ISO-10303-21;
HEADER;
FILE_DESCRIPTION(('FreeCAD Model'),'2;1');
FILE_NAME('Open CASCADE Shape Model','2026-04-26T20:02:46',(''),(''),
  'Open CASCADE STEP processor 7.8','FreeCAD','Unknown');
FILE_SCHEMA(('CONFIG_CONTROL_DESIGN','SHAPE_APPEARANCE_LAYER_MIM'));
ENDSEC;
DATA;
#1 = APPLICATION_PROTOCOL_DEFINITION('international standard',
  'config_control_design',1994,#2);
#2 = APPLICATION_CONTEXT(
'configuration controlled 3D designs of mechanical parts and assemblies'
  );
#3 = SHAPE_DEFINITION_REPRESENTATION(#4,#10);
#4 = PRODUCT_DEFINITION_SHAPE('','',#5);
#5 = PRODUCT_DEFINITION('design','',#6,#9);
#6 = PRODUCT_DEFINITION_FORMATION_WITH_SPECIFIED_SOURCE('','',#7,
  .NOT_KNOWN.);
#7 = PRODUCT('Zawartość','Zawartość','',(#8));
#8 = MECHANICAL_CONTEXT('',#2,'mechanical');
#9 = DESIGN_CONTEXT('',#2,'design');
#10 = ADVANCED_BREP_SHAPE_REPRESENTATION('',(#11,#15),#1649);
#11 = AXIS2_PLACEMENT_3D('',#12,#13,#14);
#12 = CARTESIAN_POINT('',(0.,0.,0.));
#13 = DIRECTION('',(0.,0.,1.));
#14 = DIRECTION('',(1.,0.,-0.));
#15 = MANIFOLD_SOLID_BREP('',#16);
#16 = CLOSED_SHELL('',(#17,#65,#125,#150,#348,#400,#424,#487,#504,#516,
    #533,#599,#616,#640,#683,#736,#783,#807,#850,#896,#920,#970,#1029,
    #1053,#1078,#1121,#1180,#1218,#1242,#1278,#1303,#1328,#1356,#1373,
    #1390,#1402,#1419,#1436,#1448,#1465,#1482,#1494,#1511,#1528,#1540,
    #1557,#1574,#1586,#1603,#1612,#1632));
#17 = ADVANCED_FACE('',(#18),#60,.T.);
#18 = FACE_BOUND('',#19,.T.);
#19 = EDGE_LOOP('',(#20,#30,#38,#46,#54));
#20 = ORIENTED_EDGE('',*,*,#21,.T.);
#21 = EDGE_CURVE('',#22,#24,#26,.T.);
#22 = VERTEX_POINT('',#23);
#23 = CARTESIAN_POINT('',(18.032494936612,-10.25177631085,2.));
#24 = VERTEX_POINT('',#25);
#25 = CARTESIAN_POINT('',(18.032494936612,-10.25177631085,18.));
#26 = LINE('',#27,#28);
#27 = CARTESIAN_POINT('',(18.032494936612,-10.25177631085,2.));
#28 = VECTOR('',#29,1.);
#29 = DIRECTION('',(0.,0.,1.));
#30 = ORIENTED_EDGE('',*,*,#31,.T.);
#31 = EDGE_CURVE('',#24,#32,#34,.T.);
#32 = VERTEX_POINT('',#33);
#33 = CARTESIAN_POINT('',(20.153815280172,-8.130455967291,18.));
#34 = LINE('',#35,#36);
#35 = CARTESIAN_POINT('',(18.032494936612,-10.25177631085,18.));
#36 = VECTOR('',#37,1.);
#37 = DIRECTION('',(0.707106781187,0.707106781187,0.));
#38 = ORIENTED_EDGE('',*,*,#39,.F.);
#39 = EDGE_CURVE('',#40,#32,#42,.T.);
#40 = VERTEX_POINT('',#41);
#41 = CARTESIAN_POINT('',(20.153815280172,-8.130455967291,2.));
#42 = LINE('',#43,#44);
#43 = CARTESIAN_POINT('',(20.153815280172,-8.130455967291,2.));
#44 = VECTOR('',#45,1.);
#45 = DIRECTION('',(0.,0.,1.));
#46 = ORIENTED_EDGE('',*,*,#47,.F.);
#47 = EDGE_CURVE('',#48,#40,#50,.T.);
#48 = VERTEX_POINT('',#49);
#49 = CARTESIAN_POINT('',(20.152543263817,-8.131727983646,2.));
#50 = LINE('',#51,#52);
#51 = CARTESIAN_POINT('',(18.032494936612,-10.25177631085,2.));
#52 = VECTOR('',#53,1.);
#53 = DIRECTION('',(0.707106781187,0.707106781187,0.));
#54 = ORIENTED_EDGE('',*,*,#55,.F.);
#55 = EDGE_CURVE('',#22,#48,#56,.T.);
#56 = LINE('',#57,#58);
#57 = CARTESIAN_POINT('',(18.032494936612,-10.25177631085,2.));
#58 = VECTOR('',#59,1.);
#59 = DIRECTION('',(0.707106781187,0.707106781187,0.));
#60 = PLANE('',#61);
#61 = AXIS2_PLACEMENT_3D('',#62,#63,#64);
#62 = CARTESIAN_POINT('',(18.032494936612,-10.25177631085,2.));
#63 = DIRECTION('',(-0.707106781187,0.707106781187,0.));
#64 = DIRECTION('',(0.707106781187,0.707106781187,0.));
#65 = ADVANCED_FACE('',(#66,#109),#120,.T.);
#66 = FACE_BOUND('',#67,.T.);
#67 = EDGE_LOOP('',(#68,#78,#87,#95,#102,#103));
#68 = ORIENTED_EDGE('',*,*,#69,.T.);
#69 = EDGE_CURVE('',#70,#72,#74,.T.);
#70 = VERTEX_POINT('',#71);
#71 = CARTESIAN_POINT('',(25.103562748477,-17.32284412271,2.));
#72 = VERTEX_POINT('',#73);
#73 = CARTESIAN_POINT('',(25.103562748477,-17.32284412271,18.));
#74 = LINE('',#75,#76);
#75 = CARTESIAN_POINT('',(25.103562748477,-17.32284412271,2.));
#76 = VECTOR('',#77,1.);
#77 = DIRECTION('',(0.,0.,1.));
#78 = ORIENTED_EDGE('',*,*,#79,.T.);
#79 = EDGE_CURVE('',#72,#80,#82,.T.);
#80 = VERTEX_POINT('',#81);
#81 = CARTESIAN_POINT('',(22.982242404918,-15.20152377915,21.));
#82 = CIRCLE('',#83,3.);
#83 = AXIS2_PLACEMENT_3D('',#84,#85,#86);
#84 = CARTESIAN_POINT('',(22.982242404918,-15.20152377915,18.));
#85 = DIRECTION('',(-0.707106781187,-0.707106781187,0.));
#86 = DIRECTION('',(0.707106781187,-0.707106781187,0.));
#87 = ORIENTED_EDGE('',*,*,#88,.T.);
#88 = EDGE_CURVE('',#80,#89,#91,.T.);
#89 = VERTEX_POINT('',#90);
#90 = CARTESIAN_POINT('',(20.153815280172,-12.37309665441,21.));
#91 = LINE('',#92,#93);
#92 = CARTESIAN_POINT('',(25.103562748477,-17.32284412271,21.));
#93 = VECTOR('',#94,1.);
#94 = DIRECTION('',(-0.707106781187,0.707106781187,0.));
#95 = ORIENTED_EDGE('',*,*,#96,.F.);
#96 = EDGE_CURVE('',#24,#89,#97,.T.);
#97 = CIRCLE('',#98,3.);
#98 = AXIS2_PLACEMENT_3D('',#99,#100,#101);
#99 = CARTESIAN_POINT('',(20.153815280172,-12.37309665441,18.));
#100 = DIRECTION('',(0.707106781187,0.707106781187,-0.));
#101 = DIRECTION('',(-0.707106781187,0.707106781187,0.));
#102 = ORIENTED_EDGE('',*,*,#21,.F.);
#103 = ORIENTED_EDGE('',*,*,#104,.F.);
#104 = EDGE_CURVE('',#70,#22,#105,.T.);
#105 = LINE('',#106,#107);
#106 = CARTESIAN_POINT('',(25.103562748477,-17.32284412271,2.));
#107 = VECTOR('',#108,1.);
#108 = DIRECTION('',(-0.707106781187,0.707106781187,0.));
#109 = FACE_BOUND('',#110,.T.);
#110 = EDGE_LOOP('',(#111));
#111 = ORIENTED_EDGE('',*,*,#112,.F.);
#112 = EDGE_CURVE('',#113,#113,#115,.T.);
#113 = VERTEX_POINT('',#114);
#114 = CARTESIAN_POINT('',(22.664044353384,-14.88332572762,16.));
#115 = CIRCLE('',#116,1.55);
#116 = AXIS2_PLACEMENT_3D('',#117,#118,#119);
#117 = CARTESIAN_POINT('',(21.568028842544,-13.78731021678,16.));
#118 = DIRECTION('',(-0.707106781187,-0.707106781187,0.));
#119 = DIRECTION('',(0.707106781187,-0.707106781187,0.));
#120 = PLANE('',#121);
#121 = AXIS2_PLACEMENT_3D('',#122,#123,#124);
#122 = CARTESIAN_POINT('',(25.103562748477,-17.32284412271,2.));
#123 = DIRECTION('',(-0.707106781187,-0.707106781187,0.));
#124 = DIRECTION('',(-0.707106781187,0.707106781187,0.));
#125 = ADVANCED_FACE('',(#126),#145,.T.);
#126 = FACE_BOUND('',#127,.T.);
#127 = EDGE_LOOP('',(#128,#129,#137,#144));
#128 = ORIENTED_EDGE('',*,*,#96,.T.);
#129 = ORIENTED_EDGE('',*,*,#130,.T.);
#130 = EDGE_CURVE('',#89,#131,#133,.T.);
#131 = VERTEX_POINT('',#132);
#132 = CARTESIAN_POINT('',(22.275135623731,-10.25177631085,21.));
#133 = LINE('',#134,#135);
#134 = CARTESIAN_POINT('',(20.153815280172,-12.37309665441,21.));
#135 = VECTOR('',#136,1.);
#136 = DIRECTION('',(0.707106781187,0.707106781187,0.));
#137 = ORIENTED_EDGE('',*,*,#138,.F.);
#138 = EDGE_CURVE('',#32,#131,#139,.T.);
#139 = CIRCLE('',#140,3.);
#140 = AXIS2_PLACEMENT_3D('',#141,#142,#143);
#141 = CARTESIAN_POINT('',(22.275135623731,-10.25177631085,18.));
#142 = DIRECTION('',(0.707106781187,0.707106781187,-0.));
#143 = DIRECTION('',(-0.707106781187,0.707106781187,0.));
#144 = ORIENTED_EDGE('',*,*,#31,.F.);
#145 = CYLINDRICAL_SURFACE('',#146,3.);
#146 = AXIS2_PLACEMENT_3D('',#147,#148,#149);
#147 = CARTESIAN_POINT('',(20.153815280172,-12.37309665441,18.));
#148 = DIRECTION('',(0.707106781187,0.707106781187,0.));
#149 = DIRECTION('',(-0.707106781187,0.707106781187,0.));
#150 = ADVANCED_FACE('',(#151,#321,#332),#343,.T.);
#151 = FACE_BOUND('',#152,.T.);
#152 = EDGE_LOOP('',(#153,#163,#171,#179,#187,#195,#203,#209,#210,#211,
    #219,#227,#235,#243,#251,#259,#267,#275,#283,#291,#299,#307,#315));
#153 = ORIENTED_EDGE('',*,*,#154,.F.);
#154 = EDGE_CURVE('',#155,#157,#159,.T.);
#155 = VERTEX_POINT('',#156);
#156 = CARTESIAN_POINT('',(-4.020815280171,-8.,2.));
#157 = VERTEX_POINT('',#158);
#158 = CARTESIAN_POINT('',(-11.,-8.,2.));
#159 = LINE('',#160,#161);
#160 = CARTESIAN_POINT('',(-4.020815280171,-8.,2.));
#161 = VECTOR('',#162,1.);
#162 = DIRECTION('',(-1.,0.,0.));
#163 = ORIENTED_EDGE('',*,*,#164,.F.);
#164 = EDGE_CURVE('',#165,#155,#167,.T.);
#165 = VERTEX_POINT('',#166);
#166 = CARTESIAN_POINT('',(15.202795795511,-27.22361107568,2.));
#167 = LINE('',#168,#169);
#168 = CARTESIAN_POINT('',(15.202795795511,-27.22361107568,2.));
#169 = VECTOR('',#170,1.);
#170 = DIRECTION('',(-0.707106781187,0.707106781187,0.));
#171 = ORIENTED_EDGE('',*,*,#172,.F.);
#172 = EDGE_CURVE('',#173,#165,#175,.T.);
#173 = VERTEX_POINT('',#174);
#174 = CARTESIAN_POINT('',(15.204067811865,-27.22233905932,2.));
#175 = LINE('',#176,#177);
#176 = CARTESIAN_POINT('',(27.223611075682,-15.20279579551,2.));
#177 = VECTOR('',#178,1.);
#178 = DIRECTION('',(-0.707106781187,-0.707106781187,0.));
#179 = ORIENTED_EDGE('',*,*,#180,.T.);
#180 = EDGE_CURVE('',#173,#181,#183,.T.);
#181 = VERTEX_POINT('',#182);
#182 = CARTESIAN_POINT('',(8.133,-20.15127124746,2.));
#183 = LINE('',#184,#185);
#184 = CARTESIAN_POINT('',(15.204067811865,-27.22233905932,2.));
#185 = VECTOR('',#186,1.);
#186 = DIRECTION('',(-0.707106781187,0.707106781187,0.));
#187 = ORIENTED_EDGE('',*,*,#188,.T.);
#188 = EDGE_CURVE('',#181,#189,#191,.T.);
#189 = VERTEX_POINT('',#190);
#190 = CARTESIAN_POINT('',(10.25432034356,-18.0299509039,2.));
#191 = LINE('',#192,#193);
#192 = CARTESIAN_POINT('',(8.133,-20.15127124746,2.));
#193 = VECTOR('',#194,1.);
#194 = DIRECTION('',(0.707106781187,0.707106781187,0.));
#195 = ORIENTED_EDGE('',*,*,#196,.T.);
#196 = EDGE_CURVE('',#189,#197,#199,.T.);
#197 = VERTEX_POINT('',#198);
#198 = CARTESIAN_POINT('',(17.325388155425,-25.10101871576,2.));
#199 = LINE('',#200,#201);
#200 = CARTESIAN_POINT('',(10.25432034356,-18.0299509039,2.));
#201 = VECTOR('',#202,1.);
#202 = DIRECTION('',(0.707106781187,-0.707106781187,0.));
#203 = ORIENTED_EDGE('',*,*,#204,.F.);
#204 = EDGE_CURVE('',#70,#197,#205,.T.);
#205 = LINE('',#206,#207);
#206 = CARTESIAN_POINT('',(27.223611075682,-15.20279579551,2.));
#207 = VECTOR('',#208,1.);
#208 = DIRECTION('',(-0.707106781187,-0.707106781187,0.));
#209 = ORIENTED_EDGE('',*,*,#104,.T.);
#210 = ORIENTED_EDGE('',*,*,#55,.T.);
#211 = ORIENTED_EDGE('',*,*,#212,.F.);
#212 = EDGE_CURVE('',#213,#48,#215,.T.);
#213 = VERTEX_POINT('',#214);
#214 = CARTESIAN_POINT('',(8.,4.020815280171,2.));
#215 = LINE('',#216,#217);
#216 = CARTESIAN_POINT('',(8.,4.020815280171,2.));
#217 = VECTOR('',#218,1.);
#218 = DIRECTION('',(0.707106781187,-0.707106781187,0.));
#219 = ORIENTED_EDGE('',*,*,#220,.F.);
#220 = EDGE_CURVE('',#221,#213,#223,.T.);
#221 = VERTEX_POINT('',#222);
#222 = CARTESIAN_POINT('',(8.,11.,2.));
#223 = LINE('',#224,#225);
#224 = CARTESIAN_POINT('',(8.,21.,2.));
#225 = VECTOR('',#226,1.);
#226 = DIRECTION('',(0.,-1.,0.));
#227 = ORIENTED_EDGE('',*,*,#228,.F.);
#228 = EDGE_CURVE('',#229,#221,#231,.T.);
#229 = VERTEX_POINT('',#230);
#230 = CARTESIAN_POINT('',(5.,11.,2.));
#231 = LINE('',#232,#233);
#232 = CARTESIAN_POINT('',(5.,11.,2.));
#233 = VECTOR('',#234,1.);
#234 = DIRECTION('',(1.,0.,0.));
#235 = ORIENTED_EDGE('',*,*,#236,.F.);
#236 = EDGE_CURVE('',#237,#229,#239,.T.);
#237 = VERTEX_POINT('',#238);
#238 = CARTESIAN_POINT('',(5.,21.,2.));
#239 = LINE('',#240,#241);
#240 = CARTESIAN_POINT('',(5.,21.,2.));
#241 = VECTOR('',#242,1.);
#242 = DIRECTION('',(0.,-1.,0.));
#243 = ORIENTED_EDGE('',*,*,#244,.F.);
#244 = EDGE_CURVE('',#245,#237,#247,.T.);
#245 = VERTEX_POINT('',#246);
#246 = CARTESIAN_POINT('',(-5.,21.,2.));
#247 = LINE('',#248,#249);
#248 = CARTESIAN_POINT('',(-8.,21.,2.));
#249 = VECTOR('',#250,1.);
#250 = DIRECTION('',(1.,0.,0.));
#251 = ORIENTED_EDGE('',*,*,#252,.F.);
#252 = EDGE_CURVE('',#253,#245,#255,.T.);
#253 = VERTEX_POINT('',#254);
#254 = CARTESIAN_POINT('',(-5.,11.,2.));
#255 = LINE('',#256,#257);
#256 = CARTESIAN_POINT('',(-5.,11.,2.));
#257 = VECTOR('',#258,1.);
#258 = DIRECTION('',(0.,1.,0.));
#259 = ORIENTED_EDGE('',*,*,#260,.F.);
#260 = EDGE_CURVE('',#261,#253,#263,.T.);
#261 = VERTEX_POINT('',#262);
#262 = CARTESIAN_POINT('',(-8.,11.,2.));
#263 = LINE('',#264,#265);
#264 = CARTESIAN_POINT('',(-8.,11.,2.));
#265 = VECTOR('',#266,1.);
#266 = DIRECTION('',(1.,0.,0.));
#267 = ORIENTED_EDGE('',*,*,#268,.F.);
#268 = EDGE_CURVE('',#269,#261,#271,.T.);
#269 = VERTEX_POINT('',#270);
#270 = CARTESIAN_POINT('',(-8.,8.,2.));
#271 = LINE('',#272,#273);
#272 = CARTESIAN_POINT('',(-8.,8.,2.));
#273 = VECTOR('',#274,1.);
#274 = DIRECTION('',(0.,1.,0.));
#275 = ORIENTED_EDGE('',*,*,#276,.F.);
#276 = EDGE_CURVE('',#277,#269,#279,.T.);
#277 = VERTEX_POINT('',#278);
#278 = CARTESIAN_POINT('',(-11.,8.,2.));
#279 = LINE('',#280,#281);
#280 = CARTESIAN_POINT('',(-21.,8.,2.));
#281 = VECTOR('',#282,1.);
#282 = DIRECTION('',(1.,0.,0.));
#283 = ORIENTED_EDGE('',*,*,#284,.F.);
#284 = EDGE_CURVE('',#285,#277,#287,.T.);
#285 = VERTEX_POINT('',#286);
#286 = CARTESIAN_POINT('',(-11.,5.,2.));
#287 = LINE('',#288,#289);
#288 = CARTESIAN_POINT('',(-11.,5.,2.));
#289 = VECTOR('',#290,1.);
#290 = DIRECTION('',(0.,1.,0.));
#291 = ORIENTED_EDGE('',*,*,#292,.F.);
#292 = EDGE_CURVE('',#293,#285,#295,.T.);
#293 = VERTEX_POINT('',#294);
#294 = CARTESIAN_POINT('',(-21.,5.,2.));
#295 = LINE('',#296,#297);
#296 = CARTESIAN_POINT('',(-21.,5.,2.));
#297 = VECTOR('',#298,1.);
#298 = DIRECTION('',(1.,0.,0.));
#299 = ORIENTED_EDGE('',*,*,#300,.F.);
#300 = EDGE_CURVE('',#301,#293,#303,.T.);
#301 = VERTEX_POINT('',#302);
#302 = CARTESIAN_POINT('',(-21.,-5.,2.));
#303 = LINE('',#304,#305);
#304 = CARTESIAN_POINT('',(-21.,-8.,2.));
#305 = VECTOR('',#306,1.);
#306 = DIRECTION('',(2.2E-16,1.,0.));
#307 = ORIENTED_EDGE('',*,*,#308,.F.);
#308 = EDGE_CURVE('',#309,#301,#311,.T.);
#309 = VERTEX_POINT('',#310);
#310 = CARTESIAN_POINT('',(-11.,-5.,2.));
#311 = LINE('',#312,#313);
#312 = CARTESIAN_POINT('',(-11.,-5.,2.));
#313 = VECTOR('',#314,1.);
#314 = DIRECTION('',(-1.,0.,0.));
#315 = ORIENTED_EDGE('',*,*,#316,.F.);
#316 = EDGE_CURVE('',#157,#309,#317,.T.);
#317 = LINE('',#318,#319);
#318 = CARTESIAN_POINT('',(-11.,-8.,2.));
#319 = VECTOR('',#320,1.);
#320 = DIRECTION('',(0.,1.,0.));
#321 = FACE_BOUND('',#322,.T.);
#322 = EDGE_LOOP('',(#323));
#323 = ORIENTED_EDGE('',*,*,#324,.F.);
#324 = EDGE_CURVE('',#325,#325,#327,.T.);
#325 = VERTEX_POINT('',#326);
#326 = CARTESIAN_POINT('',(19.177,-17.67833903397,2.));
#327 = CIRCLE('',#328,1.5);
#328 = AXIS2_PLACEMENT_3D('',#329,#330,#331);
#329 = CARTESIAN_POINT('',(17.677,-17.67833903397,2.));
#330 = DIRECTION('',(0.,0.,1.));
#331 = DIRECTION('',(1.,0.,0.));
#332 = FACE_BOUND('',#333,.T.);
#333 = EDGE_LOOP('',(#334));
#334 = ORIENTED_EDGE('',*,*,#335,.F.);
#335 = EDGE_CURVE('',#336,#336,#338,.T.);
#336 = VERTEX_POINT('',#337);
#337 = CARTESIAN_POINT('',(4.25,0.,2.));
#338 = CIRCLE('',#339,4.25);
#339 = AXIS2_PLACEMENT_3D('',#340,#341,#342);
#340 = CARTESIAN_POINT('',(0.,0.,2.));
#341 = DIRECTION('',(0.,0.,1.));
#342 = DIRECTION('',(1.,0.,0.));
#343 = PLANE('',#344);
#344 = AXIS2_PLACEMENT_3D('',#345,#346,#347);
#345 = CARTESIAN_POINT('',(1.75312382483,-1.75312382483,2.));
#346 = DIRECTION('',(0.,0.,1.));
#347 = DIRECTION('',(1.,0.,0.));
#348 = ADVANCED_FACE('',(#349,#384),#395,.T.);
#349 = FACE_BOUND('',#350,.T.);
#350 = EDGE_LOOP('',(#351,#352,#353,#361,#370,#378));
#351 = ORIENTED_EDGE('',*,*,#39,.T.);
#352 = ORIENTED_EDGE('',*,*,#138,.T.);
#353 = ORIENTED_EDGE('',*,*,#354,.T.);
#354 = EDGE_CURVE('',#131,#355,#357,.T.);
#355 = VERTEX_POINT('',#356);
#356 = CARTESIAN_POINT('',(25.103562748477,-13.08020343559,21.));
#357 = LINE('',#358,#359);
#358 = CARTESIAN_POINT('',(20.153815280172,-8.130455967291,21.));
#359 = VECTOR('',#360,1.);
#360 = DIRECTION('',(0.707106781187,-0.707106781187,0.));
#361 = ORIENTED_EDGE('',*,*,#362,.F.);
#362 = EDGE_CURVE('',#363,#355,#365,.T.);
#363 = VERTEX_POINT('',#364);
#364 = CARTESIAN_POINT('',(27.224883092037,-15.20152377915,18.));
#365 = CIRCLE('',#366,3.);
#366 = AXIS2_PLACEMENT_3D('',#367,#368,#369);
#367 = CARTESIAN_POINT('',(25.103562748477,-13.08020343559,18.));
#368 = DIRECTION('',(-0.707106781187,-0.707106781187,0.));
#369 = DIRECTION('',(0.707106781187,-0.707106781187,0.));
#370 = ORIENTED_EDGE('',*,*,#371,.F.);
#371 = EDGE_CURVE('',#372,#363,#374,.T.);
#372 = VERTEX_POINT('',#373);
#373 = CARTESIAN_POINT('',(27.224883092037,-15.20152377915,2.));
#374 = LINE('',#375,#376);
#375 = CARTESIAN_POINT('',(27.224883092037,-15.20152377915,2.));
#376 = VECTOR('',#377,1.);
#377 = DIRECTION('',(0.,0.,1.));
#378 = ORIENTED_EDGE('',*,*,#379,.F.);
#379 = EDGE_CURVE('',#40,#372,#380,.T.);
#380 = LINE('',#381,#382);
#381 = CARTESIAN_POINT('',(20.153815280172,-8.130455967291,2.));
#382 = VECTOR('',#383,1.);
#383 = DIRECTION('',(0.707106781187,-0.707106781187,0.));
#384 = FACE_BOUND('',#385,.T.);
#385 = EDGE_LOOP('',(#386));
#386 = ORIENTED_EDGE('',*,*,#387,.T.);
#387 = EDGE_CURVE('',#388,#388,#390,.T.);
#388 = VERTEX_POINT('',#389);
#389 = CARTESIAN_POINT('',(24.785364696943,-12.76200538406,16.));
#390 = CIRCLE('',#391,1.55);
#391 = AXIS2_PLACEMENT_3D('',#392,#393,#394);
#392 = CARTESIAN_POINT('',(23.689349186104,-11.66598987322,16.));
#393 = DIRECTION('',(-0.707106781187,-0.707106781187,0.));
#394 = DIRECTION('',(0.707106781187,-0.707106781187,0.));
#395 = PLANE('',#396);
#396 = AXIS2_PLACEMENT_3D('',#397,#398,#399);
#397 = CARTESIAN_POINT('',(20.153815280172,-8.130455967291,2.));
#398 = DIRECTION('',(0.707106781187,0.707106781187,0.));
#399 = DIRECTION('',(0.707106781187,-0.707106781187,0.));
#400 = ADVANCED_FACE('',(#401),#419,.F.);
#401 = FACE_BOUND('',#402,.F.);
#402 = EDGE_LOOP('',(#403,#404,#412,#418));
#403 = ORIENTED_EDGE('',*,*,#47,.F.);
#404 = ORIENTED_EDGE('',*,*,#405,.T.);
#405 = EDGE_CURVE('',#48,#406,#408,.T.);
#406 = VERTEX_POINT('',#407);
#407 = CARTESIAN_POINT('',(27.223611075682,-15.20279579551,2.));
#408 = LINE('',#409,#410);
#409 = CARTESIAN_POINT('',(8.,4.020815280171,2.));
#410 = VECTOR('',#411,1.);
#411 = DIRECTION('',(0.707106781187,-0.707106781187,0.));
#412 = ORIENTED_EDGE('',*,*,#413,.F.);
#413 = EDGE_CURVE('',#372,#406,#414,.T.);
#414 = LINE('',#415,#416);
#415 = CARTESIAN_POINT('',(27.224883092037,-15.20152377915,2.));
#416 = VECTOR('',#417,1.);
#417 = DIRECTION('',(-0.707106781187,-0.707106781187,0.));
#418 = ORIENTED_EDGE('',*,*,#379,.F.);
#419 = PLANE('',#420);
#420 = AXIS2_PLACEMENT_3D('',#421,#422,#423);
#421 = CARTESIAN_POINT('',(17.678941546018,-17.6763975133,2.));
#422 = DIRECTION('',(0.,0.,1.));
#423 = DIRECTION('',(1.,0.,0.));
#424 = ADVANCED_FACE('',(#425),#482,.T.);
#425 = FACE_BOUND('',#426,.T.);
#426 = EDGE_LOOP('',(#427,#428,#434,#435,#436,#444,#452,#458,#459,#467,
    #475,#481));
#427 = ORIENTED_EDGE('',*,*,#371,.T.);
#428 = ORIENTED_EDGE('',*,*,#429,.T.);
#429 = EDGE_CURVE('',#363,#72,#430,.T.);
#430 = LINE('',#431,#432);
#431 = CARTESIAN_POINT('',(27.224883092037,-15.20152377915,18.));
#432 = VECTOR('',#433,1.);
#433 = DIRECTION('',(-0.707106781187,-0.707106781187,0.));
#434 = ORIENTED_EDGE('',*,*,#69,.F.);
#435 = ORIENTED_EDGE('',*,*,#204,.T.);
#436 = ORIENTED_EDGE('',*,*,#437,.T.);
#437 = EDGE_CURVE('',#197,#438,#440,.T.);
#438 = VERTEX_POINT('',#439);
#439 = CARTESIAN_POINT('',(17.325388155425,-25.10101871576,18.));
#440 = LINE('',#441,#442);
#441 = CARTESIAN_POINT('',(17.325388155425,-25.10101871576,2.));
#442 = VECTOR('',#443,1.);
#443 = DIRECTION('',(0.,0.,1.));
#444 = ORIENTED_EDGE('',*,*,#445,.T.);
#445 = EDGE_CURVE('',#438,#446,#448,.T.);
#446 = VERTEX_POINT('',#447);
#447 = CARTESIAN_POINT('',(15.204067811866,-27.22233905932,18.));
#448 = LINE('',#449,#450);
#449 = CARTESIAN_POINT('',(17.325388155425,-25.10101871576,18.));
#450 = VECTOR('',#451,1.);
#451 = DIRECTION('',(-0.707106781187,-0.707106781187,0.));
#452 = ORIENTED_EDGE('',*,*,#453,.F.);
#453 = EDGE_CURVE('',#173,#446,#454,.T.);
#454 = LINE('',#455,#456);
#455 = CARTESIAN_POINT('',(15.204067811865,-27.22233905932,2.));
#456 = VECTOR('',#457,1.);
#457 = DIRECTION('',(0.,0.,1.));
#458 = ORIENTED_EDGE('',*,*,#172,.T.);
#459 = ORIENTED_EDGE('',*,*,#460,.F.);
#460 = EDGE_CURVE('',#461,#165,#463,.T.);
#461 = VERTEX_POINT('',#462);
#462 = CARTESIAN_POINT('',(15.202795795511,-27.22361107568,-1.));
#463 = LINE('',#464,#465);
#464 = CARTESIAN_POINT('',(15.202795795511,-27.22361107568,-1.));
#465 = VECTOR('',#466,1.);
#466 = DIRECTION('',(0.,0.,1.));
#467 = ORIENTED_EDGE('',*,*,#468,.F.);
#468 = EDGE_CURVE('',#469,#461,#471,.T.);
#469 = VERTEX_POINT('',#470);
#470 = CARTESIAN_POINT('',(27.223611075682,-15.20279579551,-1.));
#471 = LINE('',#472,#473);
#472 = CARTESIAN_POINT('',(27.223611075682,-15.20279579551,-1.));
#473 = VECTOR('',#474,1.);
#474 = DIRECTION('',(-0.707106781187,-0.707106781187,0.));
#475 = ORIENTED_EDGE('',*,*,#476,.T.);
#476 = EDGE_CURVE('',#469,#406,#477,.T.);
#477 = LINE('',#478,#479);
#478 = CARTESIAN_POINT('',(27.223611075682,-15.20279579551,-1.));
#479 = VECTOR('',#480,1.);
#480 = DIRECTION('',(0.,0.,1.));
#481 = ORIENTED_EDGE('',*,*,#413,.F.);
#482 = PLANE('',#483);
#483 = AXIS2_PLACEMENT_3D('',#484,#485,#486);
#484 = CARTESIAN_POINT('',(21.214223229909,-21.21218364128,
    8.689447695413));
#485 = DIRECTION('',(0.707106781187,-0.707106781187,-3.379697672032E-15)
  );
#486 = DIRECTION('',(-0.707106781187,-0.707106781187,0.));
#487 = ADVANCED_FACE('',(#488),#499,.T.);
#488 = FACE_BOUND('',#489,.T.);
#489 = EDGE_LOOP('',(#490,#491,#497,#498));
#490 = ORIENTED_EDGE('',*,*,#362,.T.);
#491 = ORIENTED_EDGE('',*,*,#492,.T.);
#492 = EDGE_CURVE('',#355,#80,#493,.T.);
#493 = LINE('',#494,#495);
#494 = CARTESIAN_POINT('',(25.103562748477,-13.08020343559,21.));
#495 = VECTOR('',#496,1.);
#496 = DIRECTION('',(-0.707106781187,-0.707106781187,0.));
#497 = ORIENTED_EDGE('',*,*,#79,.F.);
#498 = ORIENTED_EDGE('',*,*,#429,.F.);
#499 = CYLINDRICAL_SURFACE('',#500,3.);
#500 = AXIS2_PLACEMENT_3D('',#501,#502,#503);
#501 = CARTESIAN_POINT('',(25.103562748477,-13.08020343559,18.));
#502 = DIRECTION('',(-0.707106781187,-0.707106781187,0.));
#503 = DIRECTION('',(0.707106781187,-0.707106781187,-3.379697672032E-15)
  );
#504 = ADVANCED_FACE('',(#505),#511,.T.);
#505 = FACE_BOUND('',#506,.T.);
#506 = EDGE_LOOP('',(#507,#508,#509,#510));
#507 = ORIENTED_EDGE('',*,*,#354,.F.);
#508 = ORIENTED_EDGE('',*,*,#130,.F.);
#509 = ORIENTED_EDGE('',*,*,#88,.F.);
#510 = ORIENTED_EDGE('',*,*,#492,.F.);
#511 = PLANE('',#512);
#512 = AXIS2_PLACEMENT_3D('',#513,#514,#515);
#513 = CARTESIAN_POINT('',(17.678941546018,-17.6763975133,21.));
#514 = DIRECTION('',(0.,0.,1.));
#515 = DIRECTION('',(1.,0.,0.));
#516 = ADVANCED_FACE('',(#517),#528,.F.);
#517 = FACE_BOUND('',#518,.F.);
#518 = EDGE_LOOP('',(#519,#520,#526,#527));
#519 = ORIENTED_EDGE('',*,*,#112,.F.);
#520 = ORIENTED_EDGE('',*,*,#521,.T.);
#521 = EDGE_CURVE('',#113,#388,#522,.T.);
#522 = LINE('',#523,#524);
#523 = CARTESIAN_POINT('',(12.764549416772,-24.78282066423,16.));
#524 = VECTOR('',#525,1.);
#525 = DIRECTION('',(0.707106781187,0.707106781187,0.));
#526 = ORIENTED_EDGE('',*,*,#387,.T.);
#527 = ORIENTED_EDGE('',*,*,#521,.F.);
#528 = CYLINDRICAL_SURFACE('',#529,1.55);
#529 = AXIS2_PLACEMENT_3D('',#530,#531,#532);
#530 = CARTESIAN_POINT('',(11.668533905933,-23.68680515339,16.));
#531 = DIRECTION('',(-0.707106781187,-0.707106781187,0.));
#532 = DIRECTION('',(0.707106781187,-0.707106781187,0.));
#533 = ADVANCED_FACE('',(#534,#583),#594,.T.);
#534 = FACE_BOUND('',#535,.T.);
#535 = EDGE_LOOP('',(#536,#544,#552,#560,#568,#576,#582));
#536 = ORIENTED_EDGE('',*,*,#537,.T.);
#537 = EDGE_CURVE('',#157,#538,#540,.T.);
#538 = VERTEX_POINT('',#539);
#539 = CARTESIAN_POINT('',(-11.,-8.,14.));
#540 = LINE('',#541,#542);
#541 = CARTESIAN_POINT('',(-11.,-8.,2.));
#542 = VECTOR('',#543,1.);
#543 = DIRECTION('',(0.,0.,1.));
#544 = ORIENTED_EDGE('',*,*,#545,.T.);
#545 = EDGE_CURVE('',#538,#546,#548,.T.);
#546 = VERTEX_POINT('',#547);
#547 = CARTESIAN_POINT('',(-16.,-8.,17.));
#548 = LINE('',#549,#550);
#549 = CARTESIAN_POINT('',(-11.7018306828,-8.,14.42109840968));
#550 = VECTOR('',#551,1.);
#551 = DIRECTION('',(-0.857492925713,0.,0.514495755428));
#552 = ORIENTED_EDGE('',*,*,#553,.F.);
#553 = EDGE_CURVE('',#554,#546,#556,.T.);
#554 = VERTEX_POINT('',#555);
#555 = CARTESIAN_POINT('',(-21.,-8.,17.));
#556 = LINE('',#557,#558);
#557 = CARTESIAN_POINT('',(-21.,-8.,17.));
#558 = VECTOR('',#559,1.);
#559 = DIRECTION('',(1.,0.,0.));
#560 = ORIENTED_EDGE('',*,*,#561,.F.);
#561 = EDGE_CURVE('',#562,#554,#564,.T.);
#562 = VERTEX_POINT('',#563);
#563 = CARTESIAN_POINT('',(-21.,-8.,-1.));
#564 = LINE('',#565,#566);
#565 = CARTESIAN_POINT('',(-21.,-8.,2.));
#566 = VECTOR('',#567,1.);
#567 = DIRECTION('',(0.,0.,1.));
#568 = ORIENTED_EDGE('',*,*,#569,.F.);
#569 = EDGE_CURVE('',#570,#562,#572,.T.);
#570 = VERTEX_POINT('',#571);
#571 = CARTESIAN_POINT('',(-4.020815280171,-8.,-1.));
#572 = LINE('',#573,#574);
#573 = CARTESIAN_POINT('',(-4.020815280171,-8.,-1.));
#574 = VECTOR('',#575,1.);
#575 = DIRECTION('',(-1.,0.,0.));
#576 = ORIENTED_EDGE('',*,*,#577,.T.);
#577 = EDGE_CURVE('',#570,#155,#578,.T.);
#578 = LINE('',#579,#580);
#579 = CARTESIAN_POINT('',(-4.020815280171,-8.,-1.));
#580 = VECTOR('',#581,1.);
#581 = DIRECTION('',(0.,0.,1.));
#582 = ORIENTED_EDGE('',*,*,#154,.T.);
#583 = FACE_BOUND('',#584,.T.);
#584 = EDGE_LOOP('',(#585));
#585 = ORIENTED_EDGE('',*,*,#586,.F.);
#586 = EDGE_CURVE('',#587,#587,#589,.T.);
#587 = VERTEX_POINT('',#588);
#588 = CARTESIAN_POINT('',(-14.45,-8.,12.7));
#589 = CIRCLE('',#590,1.55);
#590 = AXIS2_PLACEMENT_3D('',#591,#592,#593);
#591 = CARTESIAN_POINT('',(-16.,-8.,12.7));
#592 = DIRECTION('',(0.,-1.,2.22044604925E-16));
#593 = DIRECTION('',(1.,0.,0.));
#594 = PLANE('',#595);
#595 = AXIS2_PLACEMENT_3D('',#596,#597,#598);
#596 = CARTESIAN_POINT('',(-14.00683718291,-8.,6.503570457174));
#597 = DIRECTION('',(-0.,-1.,-0.));
#598 = DIRECTION('',(0.,0.,-1.));
#599 = ADVANCED_FACE('',(#600),#611,.T.);
#600 = FACE_BOUND('',#601,.T.);
#601 = EDGE_LOOP('',(#602,#603,#604,#605));
#602 = ORIENTED_EDGE('',*,*,#460,.T.);
#603 = ORIENTED_EDGE('',*,*,#164,.T.);
#604 = ORIENTED_EDGE('',*,*,#577,.F.);
#605 = ORIENTED_EDGE('',*,*,#606,.F.);
#606 = EDGE_CURVE('',#461,#570,#607,.T.);
#607 = LINE('',#608,#609);
#608 = CARTESIAN_POINT('',(15.202795795511,-27.22361107568,-1.));
#609 = VECTOR('',#610,1.);
#610 = DIRECTION('',(-0.707106781187,0.707106781187,0.));
#611 = PLANE('',#612);
#612 = AXIS2_PLACEMENT_3D('',#613,#614,#615);
#613 = CARTESIAN_POINT('',(15.202795795511,-27.22361107568,-1.));
#614 = DIRECTION('',(-0.707106781187,-0.707106781187,0.));
#615 = DIRECTION('',(-0.707106781187,0.707106781187,0.));
#616 = ADVANCED_FACE('',(#617),#635,.F.);
#617 = FACE_BOUND('',#618,.F.);
#618 = EDGE_LOOP('',(#619,#620,#628,#634));
#619 = ORIENTED_EDGE('',*,*,#537,.T.);
#620 = ORIENTED_EDGE('',*,*,#621,.T.);
#621 = EDGE_CURVE('',#538,#622,#624,.T.);
#622 = VERTEX_POINT('',#623);
#623 = CARTESIAN_POINT('',(-11.,-5.,14.));
#624 = LINE('',#625,#626);
#625 = CARTESIAN_POINT('',(-11.,-8.,14.));
#626 = VECTOR('',#627,1.);
#627 = DIRECTION('',(0.,1.,0.));
#628 = ORIENTED_EDGE('',*,*,#629,.F.);
#629 = EDGE_CURVE('',#309,#622,#630,.T.);
#630 = LINE('',#631,#632);
#631 = CARTESIAN_POINT('',(-11.,-5.,2.));
#632 = VECTOR('',#633,1.);
#633 = DIRECTION('',(0.,0.,1.));
#634 = ORIENTED_EDGE('',*,*,#316,.F.);
#635 = PLANE('',#636);
#636 = AXIS2_PLACEMENT_3D('',#637,#638,#639);
#637 = CARTESIAN_POINT('',(-11.,-8.,2.));
#638 = DIRECTION('',(-1.,0.,0.));
#639 = DIRECTION('',(0.,1.,0.));
#640 = ADVANCED_FACE('',(#641,#667),#678,.F.);
#641 = FACE_BOUND('',#642,.F.);
#642 = EDGE_LOOP('',(#643,#644,#652,#660,#666));
#643 = ORIENTED_EDGE('',*,*,#629,.T.);
#644 = ORIENTED_EDGE('',*,*,#645,.T.);
#645 = EDGE_CURVE('',#622,#646,#648,.T.);
#646 = VERTEX_POINT('',#647);
#647 = CARTESIAN_POINT('',(-16.,-5.,17.));
#648 = LINE('',#649,#650);
#649 = CARTESIAN_POINT('',(-9.602941176471,-5.,13.161764705882));
#650 = VECTOR('',#651,1.);
#651 = DIRECTION('',(-0.857492925713,0.,0.514495755428));
#652 = ORIENTED_EDGE('',*,*,#653,.T.);
#653 = EDGE_CURVE('',#646,#654,#656,.T.);
#654 = VERTEX_POINT('',#655);
#655 = CARTESIAN_POINT('',(-21.,-5.,17.));
#656 = LINE('',#657,#658);
#657 = CARTESIAN_POINT('',(-11.,-5.,17.));
#658 = VECTOR('',#659,1.);
#659 = DIRECTION('',(-1.,0.,0.));
#660 = ORIENTED_EDGE('',*,*,#661,.F.);
#661 = EDGE_CURVE('',#301,#654,#662,.T.);
#662 = LINE('',#663,#664);
#663 = CARTESIAN_POINT('',(-21.,-5.,2.));
#664 = VECTOR('',#665,1.);
#665 = DIRECTION('',(0.,0.,1.));
#666 = ORIENTED_EDGE('',*,*,#308,.F.);
#667 = FACE_BOUND('',#668,.F.);
#668 = EDGE_LOOP('',(#669));
#669 = ORIENTED_EDGE('',*,*,#670,.F.);
#670 = EDGE_CURVE('',#671,#671,#673,.T.);
#671 = VERTEX_POINT('',#672);
#672 = CARTESIAN_POINT('',(-14.45,-5.,12.7));
#673 = CIRCLE('',#674,1.55);
#674 = AXIS2_PLACEMENT_3D('',#675,#676,#677);
#675 = CARTESIAN_POINT('',(-16.,-5.,12.7));
#676 = DIRECTION('',(0.,-1.,2.22044604925E-16));
#677 = DIRECTION('',(1.,0.,0.));
#678 = PLANE('',#679);
#679 = AXIS2_PLACEMENT_3D('',#680,#681,#682);
#680 = CARTESIAN_POINT('',(-11.,-5.,2.));
#681 = DIRECTION('',(0.,-1.,0.));
#682 = DIRECTION('',(-1.,0.,0.));
#683 = ADVANCED_FACE('',(#684,#720),#731,.T.);
#684 = FACE_BOUND('',#685,.T.);
#685 = EDGE_LOOP('',(#686,#687,#696,#704,#713,#719));
#686 = ORIENTED_EDGE('',*,*,#453,.T.);
#687 = ORIENTED_EDGE('',*,*,#688,.T.);
#688 = EDGE_CURVE('',#446,#689,#691,.T.);
#689 = VERTEX_POINT('',#690);
#690 = CARTESIAN_POINT('',(13.082747468306,-25.10101871576,21.));
#691 = CIRCLE('',#692,3.);
#692 = AXIS2_PLACEMENT_3D('',#693,#694,#695);
#693 = CARTESIAN_POINT('',(13.082747468306,-25.10101871576,18.));
#694 = DIRECTION('',(-0.707106781187,-0.707106781187,0.));
#695 = DIRECTION('',(0.707106781187,-0.707106781187,0.));
#696 = ORIENTED_EDGE('',*,*,#697,.T.);
#697 = EDGE_CURVE('',#689,#698,#700,.T.);
#698 = VERTEX_POINT('',#699);
#699 = CARTESIAN_POINT('',(10.25432034356,-22.27259159102,21.));
#700 = LINE('',#701,#702);
#701 = CARTESIAN_POINT('',(15.204067811865,-27.22233905932,21.));
#702 = VECTOR('',#703,1.);
#703 = DIRECTION('',(-0.707106781187,0.707106781187,0.));
#704 = ORIENTED_EDGE('',*,*,#705,.F.);
#705 = EDGE_CURVE('',#706,#698,#708,.T.);
#706 = VERTEX_POINT('',#707);
#707 = CARTESIAN_POINT('',(8.133,-20.15127124746,18.));
#708 = CIRCLE('',#709,3.);
#709 = AXIS2_PLACEMENT_3D('',#710,#711,#712);
#710 = CARTESIAN_POINT('',(10.25432034356,-22.27259159102,18.));
#711 = DIRECTION('',(0.707106781187,0.707106781187,-0.));
#712 = DIRECTION('',(-0.707106781187,0.707106781187,0.));
#713 = ORIENTED_EDGE('',*,*,#714,.F.);
#714 = EDGE_CURVE('',#181,#706,#715,.T.);
#715 = LINE('',#716,#717);
#716 = CARTESIAN_POINT('',(8.133,-20.15127124746,2.));
#717 = VECTOR('',#718,1.);
#718 = DIRECTION('',(0.,0.,1.));
#719 = ORIENTED_EDGE('',*,*,#180,.F.);
#720 = FACE_BOUND('',#721,.T.);
#721 = EDGE_LOOP('',(#722));
#722 = ORIENTED_EDGE('',*,*,#723,.F.);
#723 = EDGE_CURVE('',#724,#724,#726,.T.);
#724 = VERTEX_POINT('',#725);
#725 = CARTESIAN_POINT('',(12.764549416772,-24.78282066423,16.));
#726 = CIRCLE('',#727,1.55);
#727 = AXIS2_PLACEMENT_3D('',#728,#729,#730);
#728 = CARTESIAN_POINT('',(11.668533905933,-23.68680515339,16.));
#729 = DIRECTION('',(-0.707106781187,-0.707106781187,0.));
#730 = DIRECTION('',(0.707106781187,-0.707106781187,0.));
#731 = PLANE('',#732);
#732 = AXIS2_PLACEMENT_3D('',#733,#734,#735);
#733 = CARTESIAN_POINT('',(15.204067811865,-27.22233905932,2.));
#734 = DIRECTION('',(-0.707106781187,-0.707106781187,0.));
#735 = DIRECTION('',(-0.707106781187,0.707106781187,0.));
#736 = ADVANCED_FACE('',(#737),#778,.T.);
#737 = FACE_BOUND('',#738,.T.);
#738 = EDGE_LOOP('',(#739,#740,#746,#747,#748,#756,#764,#772));
#739 = ORIENTED_EDGE('',*,*,#561,.T.);
#740 = ORIENTED_EDGE('',*,*,#741,.F.);
#741 = EDGE_CURVE('',#654,#554,#742,.T.);
#742 = LINE('',#743,#744);
#743 = CARTESIAN_POINT('',(-21.,-5.,17.));
#744 = VECTOR('',#745,1.);
#745 = DIRECTION('',(0.,-1.,0.));
#746 = ORIENTED_EDGE('',*,*,#661,.F.);
#747 = ORIENTED_EDGE('',*,*,#300,.T.);
#748 = ORIENTED_EDGE('',*,*,#749,.T.);
#749 = EDGE_CURVE('',#293,#750,#752,.T.);
#750 = VERTEX_POINT('',#751);
#751 = CARTESIAN_POINT('',(-21.,5.,17.));
#752 = LINE('',#753,#754);
#753 = CARTESIAN_POINT('',(-21.,5.,2.));
#754 = VECTOR('',#755,1.);
#755 = DIRECTION('',(0.,0.,1.));
#756 = ORIENTED_EDGE('',*,*,#757,.F.);
#757 = EDGE_CURVE('',#758,#750,#760,.T.);
#758 = VERTEX_POINT('',#759);
#759 = CARTESIAN_POINT('',(-21.,8.,17.));
#760 = LINE('',#761,#762);
#761 = CARTESIAN_POINT('',(-21.,8.,17.));
#762 = VECTOR('',#763,1.);
#763 = DIRECTION('',(0.,-1.,0.));
#764 = ORIENTED_EDGE('',*,*,#765,.F.);
#765 = EDGE_CURVE('',#766,#758,#768,.T.);
#766 = VERTEX_POINT('',#767);
#767 = CARTESIAN_POINT('',(-21.,8.,-1.));
#768 = LINE('',#769,#770);
#769 = CARTESIAN_POINT('',(-21.,8.,2.));
#770 = VECTOR('',#771,1.);
#771 = DIRECTION('',(0.,0.,1.));
#772 = ORIENTED_EDGE('',*,*,#773,.F.);
#773 = EDGE_CURVE('',#562,#766,#774,.T.);
#774 = LINE('',#775,#776);
#775 = CARTESIAN_POINT('',(-21.,-8.,-1.));
#776 = VECTOR('',#777,1.);
#777 = DIRECTION('',(2.2E-16,1.,0.));
#778 = PLANE('',#779);
#779 = AXIS2_PLACEMENT_3D('',#780,#781,#782);
#780 = CARTESIAN_POINT('',(-21.,5.800348863348E-16,6.928571428571));
#781 = DIRECTION('',(-1.,-0.,-0.));
#782 = DIRECTION('',(0.,0.,-1.));
#783 = ADVANCED_FACE('',(#784),#802,.T.);
#784 = FACE_BOUND('',#785,.T.);
#785 = EDGE_LOOP('',(#786,#787,#795,#801));
#786 = ORIENTED_EDGE('',*,*,#714,.T.);
#787 = ORIENTED_EDGE('',*,*,#788,.T.);
#788 = EDGE_CURVE('',#706,#789,#791,.T.);
#789 = VERTEX_POINT('',#790);
#790 = CARTESIAN_POINT('',(10.25432034356,-18.0299509039,18.));
#791 = LINE('',#792,#793);
#792 = CARTESIAN_POINT('',(8.133,-20.15127124746,18.));
#793 = VECTOR('',#794,1.);
#794 = DIRECTION('',(0.707106781187,0.707106781187,0.));
#795 = ORIENTED_EDGE('',*,*,#796,.F.);
#796 = EDGE_CURVE('',#189,#789,#797,.T.);
#797 = LINE('',#798,#799);
#798 = CARTESIAN_POINT('',(10.25432034356,-18.0299509039,2.));
#799 = VECTOR('',#800,1.);
#800 = DIRECTION('',(0.,0.,1.));
#801 = ORIENTED_EDGE('',*,*,#188,.F.);
#802 = PLANE('',#803);
#803 = AXIS2_PLACEMENT_3D('',#804,#805,#806);
#804 = CARTESIAN_POINT('',(8.133,-20.15127124746,2.));
#805 = DIRECTION('',(-0.707106781187,0.707106781187,0.));
#806 = DIRECTION('',(0.707106781187,0.707106781187,0.));
#807 = ADVANCED_FACE('',(#808,#834),#845,.F.);
#808 = FACE_BOUND('',#809,.F.);
#809 = EDGE_LOOP('',(#810,#818,#826,#832,#833));
#810 = ORIENTED_EDGE('',*,*,#811,.T.);
#811 = EDGE_CURVE('',#750,#812,#814,.T.);
#812 = VERTEX_POINT('',#813);
#813 = CARTESIAN_POINT('',(-16.,5.,17.));
#814 = LINE('',#815,#816);
#815 = CARTESIAN_POINT('',(-21.,5.,17.));
#816 = VECTOR('',#817,1.);
#817 = DIRECTION('',(1.,0.,0.));
#818 = ORIENTED_EDGE('',*,*,#819,.F.);
#819 = EDGE_CURVE('',#820,#812,#822,.T.);
#820 = VERTEX_POINT('',#821);
#821 = CARTESIAN_POINT('',(-11.,5.,14.));
#822 = LINE('',#823,#824);
#823 = CARTESIAN_POINT('',(-13.2794117647,5.,15.367647058824));
#824 = VECTOR('',#825,1.);
#825 = DIRECTION('',(-0.857492925713,0.,0.514495755428));
#826 = ORIENTED_EDGE('',*,*,#827,.F.);
#827 = EDGE_CURVE('',#285,#820,#828,.T.);
#828 = LINE('',#829,#830);
#829 = CARTESIAN_POINT('',(-11.,5.,2.));
#830 = VECTOR('',#831,1.);
#831 = DIRECTION('',(0.,0.,1.));
#832 = ORIENTED_EDGE('',*,*,#292,.F.);
#833 = ORIENTED_EDGE('',*,*,#749,.T.);
#834 = FACE_BOUND('',#835,.F.);
#835 = EDGE_LOOP('',(#836));
#836 = ORIENTED_EDGE('',*,*,#837,.T.);
#837 = EDGE_CURVE('',#838,#838,#840,.T.);
#838 = VERTEX_POINT('',#839);
#839 = CARTESIAN_POINT('',(-14.45,5.,12.7));
#840 = CIRCLE('',#841,1.55);
#841 = AXIS2_PLACEMENT_3D('',#842,#843,#844);
#842 = CARTESIAN_POINT('',(-16.,5.,12.7));
#843 = DIRECTION('',(0.,-1.,2.22044604925E-16));
#844 = DIRECTION('',(1.,0.,0.));
#845 = PLANE('',#846);
#846 = AXIS2_PLACEMENT_3D('',#847,#848,#849);
#847 = CARTESIAN_POINT('',(-21.,5.,2.));
#848 = DIRECTION('',(0.,1.,0.));
#849 = DIRECTION('',(1.,0.,0.));
#850 = ADVANCED_FACE('',(#851,#880),#891,.T.);
#851 = FACE_BOUND('',#852,.T.);
#852 = EDGE_LOOP('',(#853,#854,#863,#871,#878,#879));
#853 = ORIENTED_EDGE('',*,*,#796,.T.);
#854 = ORIENTED_EDGE('',*,*,#855,.T.);
#855 = EDGE_CURVE('',#789,#856,#858,.T.);
#856 = VERTEX_POINT('',#857);
#857 = CARTESIAN_POINT('',(12.375640687119,-20.15127124746,21.));
#858 = CIRCLE('',#859,3.);
#859 = AXIS2_PLACEMENT_3D('',#860,#861,#862);
#860 = CARTESIAN_POINT('',(12.375640687119,-20.15127124746,18.));
#861 = DIRECTION('',(0.707106781187,0.707106781187,-0.));
#862 = DIRECTION('',(-0.707106781187,0.707106781187,0.));
#863 = ORIENTED_EDGE('',*,*,#864,.T.);
#864 = EDGE_CURVE('',#856,#865,#867,.T.);
#865 = VERTEX_POINT('',#866);
#866 = CARTESIAN_POINT('',(15.204067811866,-22.9796983722,21.));
#867 = LINE('',#868,#869);
#868 = CARTESIAN_POINT('',(10.25432034356,-18.0299509039,21.));
#869 = VECTOR('',#870,1.);
#870 = DIRECTION('',(0.707106781187,-0.707106781187,0.));
#871 = ORIENTED_EDGE('',*,*,#872,.F.);
#872 = EDGE_CURVE('',#438,#865,#873,.T.);
#873 = CIRCLE('',#874,3.);
#874 = AXIS2_PLACEMENT_3D('',#875,#876,#877);
#875 = CARTESIAN_POINT('',(15.204067811866,-22.9796983722,18.));
#876 = DIRECTION('',(-0.707106781187,-0.707106781187,0.));
#877 = DIRECTION('',(0.707106781187,-0.707106781187,0.));
#878 = ORIENTED_EDGE('',*,*,#437,.F.);
#879 = ORIENTED_EDGE('',*,*,#196,.F.);
#880 = FACE_BOUND('',#881,.T.);
#881 = EDGE_LOOP('',(#882));
#882 = ORIENTED_EDGE('',*,*,#883,.T.);
#883 = EDGE_CURVE('',#884,#884,#886,.T.);
#884 = VERTEX_POINT('',#885);
#885 = CARTESIAN_POINT('',(14.885869760332,-22.66150032067,16.));
#886 = CIRCLE('',#887,1.55);
#887 = AXIS2_PLACEMENT_3D('',#888,#889,#890);
#888 = CARTESIAN_POINT('',(13.789854249492,-21.56548480983,16.));
#889 = DIRECTION('',(-0.707106781187,-0.707106781187,0.));
#890 = DIRECTION('',(0.707106781187,-0.707106781187,0.));
#891 = PLANE('',#892);
#892 = AXIS2_PLACEMENT_3D('',#893,#894,#895);
#893 = CARTESIAN_POINT('',(10.25432034356,-18.0299509039,2.));
#894 = DIRECTION('',(0.707106781187,0.707106781187,0.));
#895 = DIRECTION('',(0.707106781187,-0.707106781187,0.));
#896 = ADVANCED_FACE('',(#897),#915,.F.);
#897 = FACE_BOUND('',#898,.F.);
#898 = EDGE_LOOP('',(#899,#900,#908,#914));
#899 = ORIENTED_EDGE('',*,*,#827,.T.);
#900 = ORIENTED_EDGE('',*,*,#901,.T.);
#901 = EDGE_CURVE('',#820,#902,#904,.T.);
#902 = VERTEX_POINT('',#903);
#903 = CARTESIAN_POINT('',(-11.,8.,14.));
#904 = LINE('',#905,#906);
#905 = CARTESIAN_POINT('',(-11.,5.,14.));
#906 = VECTOR('',#907,1.);
#907 = DIRECTION('',(0.,1.,0.));
#908 = ORIENTED_EDGE('',*,*,#909,.F.);
#909 = EDGE_CURVE('',#277,#902,#910,.T.);
#910 = LINE('',#911,#912);
#911 = CARTESIAN_POINT('',(-11.,8.,2.));
#912 = VECTOR('',#913,1.);
#913 = DIRECTION('',(0.,0.,1.));
#914 = ORIENTED_EDGE('',*,*,#284,.F.);
#915 = PLANE('',#916);
#916 = AXIS2_PLACEMENT_3D('',#917,#918,#919);
#917 = CARTESIAN_POINT('',(-11.,5.,2.));
#918 = DIRECTION('',(-1.,0.,0.));
#919 = DIRECTION('',(0.,1.,0.));
#920 = ADVANCED_FACE('',(#921,#954),#965,.T.);
#921 = FACE_BOUND('',#922,.T.);
#922 = EDGE_LOOP('',(#923,#931,#937,#938,#939,#947,#953));
#923 = ORIENTED_EDGE('',*,*,#924,.F.);
#924 = EDGE_CURVE('',#925,#758,#927,.T.);
#925 = VERTEX_POINT('',#926);
#926 = CARTESIAN_POINT('',(-16.,8.,17.));
#927 = LINE('',#928,#929);
#928 = CARTESIAN_POINT('',(-11.,8.,17.));
#929 = VECTOR('',#930,1.);
#930 = DIRECTION('',(-1.,0.,0.));
#931 = ORIENTED_EDGE('',*,*,#932,.F.);
#932 = EDGE_CURVE('',#902,#925,#933,.T.);
#933 = LINE('',#934,#935);
#934 = CARTESIAN_POINT('',(-12.319971537,8.,14.791982922201));
#935 = VECTOR('',#936,1.);
#936 = DIRECTION('',(-0.857492925713,0.,0.514495755428));
#937 = ORIENTED_EDGE('',*,*,#909,.F.);
#938 = ORIENTED_EDGE('',*,*,#276,.T.);
#939 = ORIENTED_EDGE('',*,*,#940,.F.);
#940 = EDGE_CURVE('',#941,#269,#943,.T.);
#941 = VERTEX_POINT('',#942);
#942 = CARTESIAN_POINT('',(-8.,8.,-1.));
#943 = LINE('',#944,#945);
#944 = CARTESIAN_POINT('',(-8.,8.,-1.));
#945 = VECTOR('',#946,1.);
#946 = DIRECTION('',(0.,0.,1.));
#947 = ORIENTED_EDGE('',*,*,#948,.F.);
#948 = EDGE_CURVE('',#766,#941,#949,.T.);
#949 = LINE('',#950,#951);
#950 = CARTESIAN_POINT('',(-21.,8.,-1.));
#951 = VECTOR('',#952,1.);
#952 = DIRECTION('',(1.,0.,0.));
#953 = ORIENTED_EDGE('',*,*,#765,.T.);
#954 = FACE_BOUND('',#955,.T.);
#955 = EDGE_LOOP('',(#956));
#956 = ORIENTED_EDGE('',*,*,#957,.T.);
#957 = EDGE_CURVE('',#958,#958,#960,.T.);
#958 = VERTEX_POINT('',#959);
#959 = CARTESIAN_POINT('',(-14.45,8.,12.7));
#960 = CIRCLE('',#961,1.55);
#961 = AXIS2_PLACEMENT_3D('',#962,#963,#964);
#962 = CARTESIAN_POINT('',(-16.,8.,12.7));
#963 = DIRECTION('',(0.,-1.,2.22044604925E-16));
#964 = DIRECTION('',(1.,0.,0.));
#965 = PLANE('',#966);
#966 = AXIS2_PLACEMENT_3D('',#967,#968,#969);
#967 = CARTESIAN_POINT('',(-15.22580645161,8.,7.274193548387));
#968 = DIRECTION('',(0.,1.,0.));
#969 = DIRECTION('',(0.,0.,1.));
#970 = ADVANCED_FACE('',(#971,#1013),#1024,.T.);
#971 = FACE_BOUND('',#972,.T.);
#972 = EDGE_LOOP('',(#973,#981,#989,#997,#1005,#1011,#1012));
#973 = ORIENTED_EDGE('',*,*,#974,.T.);
#974 = EDGE_CURVE('',#261,#975,#977,.T.);
#975 = VERTEX_POINT('',#976);
#976 = CARTESIAN_POINT('',(-8.,11.,14.));
#977 = LINE('',#978,#979);
#978 = CARTESIAN_POINT('',(-8.,11.,2.));
#979 = VECTOR('',#980,1.);
#980 = DIRECTION('',(0.,0.,1.));
#981 = ORIENTED_EDGE('',*,*,#982,.T.);
#982 = EDGE_CURVE('',#975,#983,#985,.T.);
#983 = VERTEX_POINT('',#984);
#984 = CARTESIAN_POINT('',(-8.,16.,17.));
#985 = LINE('',#986,#987);
#986 = CARTESIAN_POINT('',(-8.,12.319971537002,14.791982922201));
#987 = VECTOR('',#988,1.);
#988 = DIRECTION('',(0.,0.857492925713,0.514495755428));
#989 = ORIENTED_EDGE('',*,*,#990,.F.);
#990 = EDGE_CURVE('',#991,#983,#993,.T.);
#991 = VERTEX_POINT('',#992);
#992 = CARTESIAN_POINT('',(-8.,21.,17.));
#993 = LINE('',#994,#995);
#994 = CARTESIAN_POINT('',(-8.,21.,17.));
#995 = VECTOR('',#996,1.);
#996 = DIRECTION('',(0.,-1.,0.));
#997 = ORIENTED_EDGE('',*,*,#998,.F.);
#998 = EDGE_CURVE('',#999,#991,#1001,.T.);
#999 = VERTEX_POINT('',#1000);
#1000 = CARTESIAN_POINT('',(-8.,21.,-1.));
#1001 = LINE('',#1002,#1003);
#1002 = CARTESIAN_POINT('',(-8.,21.,2.));
#1003 = VECTOR('',#1004,1.);
#1004 = DIRECTION('',(0.,0.,1.));
#1005 = ORIENTED_EDGE('',*,*,#1006,.F.);
#1006 = EDGE_CURVE('',#941,#999,#1007,.T.);
#1007 = LINE('',#1008,#1009);
#1008 = CARTESIAN_POINT('',(-8.,8.,-1.));
#1009 = VECTOR('',#1010,1.);
#1010 = DIRECTION('',(0.,1.,0.));
#1011 = ORIENTED_EDGE('',*,*,#940,.T.);
#1012 = ORIENTED_EDGE('',*,*,#268,.T.);
#1013 = FACE_BOUND('',#1014,.T.);
#1014 = EDGE_LOOP('',(#1015));
#1015 = ORIENTED_EDGE('',*,*,#1016,.F.);
#1016 = EDGE_CURVE('',#1017,#1017,#1019,.T.);
#1017 = VERTEX_POINT('',#1018);
#1018 = CARTESIAN_POINT('',(-8.,14.45,12.7));
#1019 = CIRCLE('',#1020,1.55);
#1020 = AXIS2_PLACEMENT_3D('',#1021,#1022,#1023);
#1021 = CARTESIAN_POINT('',(-8.,16.,12.7));
#1022 = DIRECTION('',(-1.,0.,0.));
#1023 = DIRECTION('',(0.,-1.,0.));
#1024 = PLANE('',#1025);
#1025 = AXIS2_PLACEMENT_3D('',#1026,#1027,#1028);
#1026 = CARTESIAN_POINT('',(-8.,15.225806451613,7.274193548387));
#1027 = DIRECTION('',(-1.,-0.,-0.));
#1028 = DIRECTION('',(0.,0.,-1.));
#1029 = ADVANCED_FACE('',(#1030),#1048,.F.);
#1030 = FACE_BOUND('',#1031,.F.);
#1031 = EDGE_LOOP('',(#1032,#1033,#1041,#1047));
#1032 = ORIENTED_EDGE('',*,*,#974,.T.);
#1033 = ORIENTED_EDGE('',*,*,#1034,.T.);
#1034 = EDGE_CURVE('',#975,#1035,#1037,.T.);
#1035 = VERTEX_POINT('',#1036);
#1036 = CARTESIAN_POINT('',(-5.,11.,14.));
#1037 = LINE('',#1038,#1039);
#1038 = CARTESIAN_POINT('',(-8.,11.,14.));
#1039 = VECTOR('',#1040,1.);
#1040 = DIRECTION('',(1.,0.,0.));
#1041 = ORIENTED_EDGE('',*,*,#1042,.F.);
#1042 = EDGE_CURVE('',#253,#1035,#1043,.T.);
#1043 = LINE('',#1044,#1045);
#1044 = CARTESIAN_POINT('',(-5.,11.,2.));
#1045 = VECTOR('',#1046,1.);
#1046 = DIRECTION('',(0.,0.,1.));
#1047 = ORIENTED_EDGE('',*,*,#260,.F.);
#1048 = PLANE('',#1049);
#1049 = AXIS2_PLACEMENT_3D('',#1050,#1051,#1052);
#1050 = CARTESIAN_POINT('',(-8.,11.,2.));
#1051 = DIRECTION('',(0.,1.,0.));
#1052 = DIRECTION('',(1.,0.,0.));
#1053 = ADVANCED_FACE('',(#1054),#1073,.T.);
#1054 = FACE_BOUND('',#1055,.T.);
#1055 = EDGE_LOOP('',(#1056,#1064,#1065,#1066,#1067));
#1056 = ORIENTED_EDGE('',*,*,#1057,.T.);
#1057 = EDGE_CURVE('',#1058,#213,#1060,.T.);
#1058 = VERTEX_POINT('',#1059);
#1059 = CARTESIAN_POINT('',(8.,4.020815280171,-1.));
#1060 = LINE('',#1061,#1062);
#1061 = CARTESIAN_POINT('',(8.,4.020815280171,-1.));
#1062 = VECTOR('',#1063,1.);
#1063 = DIRECTION('',(0.,0.,1.));
#1064 = ORIENTED_EDGE('',*,*,#212,.T.);
#1065 = ORIENTED_EDGE('',*,*,#405,.T.);
#1066 = ORIENTED_EDGE('',*,*,#476,.F.);
#1067 = ORIENTED_EDGE('',*,*,#1068,.F.);
#1068 = EDGE_CURVE('',#1058,#469,#1069,.T.);
#1069 = LINE('',#1070,#1071);
#1070 = CARTESIAN_POINT('',(8.,4.020815280171,-1.));
#1071 = VECTOR('',#1072,1.);
#1072 = DIRECTION('',(0.707106781187,-0.707106781187,0.));
#1073 = PLANE('',#1074);
#1074 = AXIS2_PLACEMENT_3D('',#1075,#1076,#1077);
#1075 = CARTESIAN_POINT('',(8.,4.020815280171,-1.));
#1076 = DIRECTION('',(0.707106781187,0.707106781187,0.));
#1077 = DIRECTION('',(0.707106781187,-0.707106781187,0.));
#1078 = ADVANCED_FACE('',(#1079,#1105),#1116,.F.);
#1079 = FACE_BOUND('',#1080,.F.);
#1080 = EDGE_LOOP('',(#1081,#1082,#1090,#1098,#1104));
#1081 = ORIENTED_EDGE('',*,*,#1042,.T.);
#1082 = ORIENTED_EDGE('',*,*,#1083,.T.);
#1083 = EDGE_CURVE('',#1035,#1084,#1086,.T.);
#1084 = VERTEX_POINT('',#1085);
#1085 = CARTESIAN_POINT('',(-5.,16.,17.));
#1086 = LINE('',#1087,#1088);
#1087 = CARTESIAN_POINT('',(-5.,9.602941176471,13.161764705882));
#1088 = VECTOR('',#1089,1.);
#1089 = DIRECTION('',(0.,0.857492925713,0.514495755428));
#1090 = ORIENTED_EDGE('',*,*,#1091,.T.);
#1091 = EDGE_CURVE('',#1084,#1092,#1094,.T.);
#1092 = VERTEX_POINT('',#1093);
#1093 = CARTESIAN_POINT('',(-5.,21.,17.));
#1094 = LINE('',#1095,#1096);
#1095 = CARTESIAN_POINT('',(-5.,11.,17.));
#1096 = VECTOR('',#1097,1.);
#1097 = DIRECTION('',(0.,1.,0.));
#1098 = ORIENTED_EDGE('',*,*,#1099,.F.);
#1099 = EDGE_CURVE('',#245,#1092,#1100,.T.);
#1100 = LINE('',#1101,#1102);
#1101 = CARTESIAN_POINT('',(-5.,21.,2.));
#1102 = VECTOR('',#1103,1.);
#1103 = DIRECTION('',(0.,0.,1.));
#1104 = ORIENTED_EDGE('',*,*,#252,.F.);
#1105 = FACE_BOUND('',#1106,.F.);
#1106 = EDGE_LOOP('',(#1107));
#1107 = ORIENTED_EDGE('',*,*,#1108,.F.);
#1108 = EDGE_CURVE('',#1109,#1109,#1111,.T.);
#1109 = VERTEX_POINT('',#1110);
#1110 = CARTESIAN_POINT('',(-5.,14.45,12.7));
#1111 = CIRCLE('',#1112,1.55);
#1112 = AXIS2_PLACEMENT_3D('',#1113,#1114,#1115);
#1113 = CARTESIAN_POINT('',(-5.,16.,12.7));
#1114 = DIRECTION('',(-1.,0.,0.));
#1115 = DIRECTION('',(0.,-1.,0.));
#1116 = PLANE('',#1117);
#1117 = AXIS2_PLACEMENT_3D('',#1118,#1119,#1120);
#1118 = CARTESIAN_POINT('',(-5.,11.,2.));
#1119 = DIRECTION('',(-1.,0.,0.));
#1120 = DIRECTION('',(0.,1.,0.));
#1121 = ADVANCED_FACE('',(#1122,#1164),#1175,.T.);
#1122 = FACE_BOUND('',#1123,.T.);
#1123 = EDGE_LOOP('',(#1124,#1134,#1142,#1148,#1149,#1150,#1158));
#1124 = ORIENTED_EDGE('',*,*,#1125,.F.);
#1125 = EDGE_CURVE('',#1126,#1128,#1130,.T.);
#1126 = VERTEX_POINT('',#1127);
#1127 = CARTESIAN_POINT('',(8.,16.,17.));
#1128 = VERTEX_POINT('',#1129);
#1129 = CARTESIAN_POINT('',(8.,21.,17.));
#1130 = LINE('',#1131,#1132);
#1131 = CARTESIAN_POINT('',(8.,11.,17.));
#1132 = VECTOR('',#1133,1.);
#1133 = DIRECTION('',(0.,1.,0.));
#1134 = ORIENTED_EDGE('',*,*,#1135,.F.);
#1135 = EDGE_CURVE('',#1136,#1126,#1138,.T.);
#1136 = VERTEX_POINT('',#1137);
#1137 = CARTESIAN_POINT('',(8.,11.,14.));
#1138 = LINE('',#1139,#1140);
#1139 = CARTESIAN_POINT('',(8.,11.7018306828,14.42109840968));
#1140 = VECTOR('',#1141,1.);
#1141 = DIRECTION('',(0.,0.857492925713,0.514495755428));
#1142 = ORIENTED_EDGE('',*,*,#1143,.F.);
#1143 = EDGE_CURVE('',#221,#1136,#1144,.T.);
#1144 = LINE('',#1145,#1146);
#1145 = CARTESIAN_POINT('',(8.,11.,2.));
#1146 = VECTOR('',#1147,1.);
#1147 = DIRECTION('',(0.,0.,1.));
#1148 = ORIENTED_EDGE('',*,*,#220,.T.);
#1149 = ORIENTED_EDGE('',*,*,#1057,.F.);
#1150 = ORIENTED_EDGE('',*,*,#1151,.F.);
#1151 = EDGE_CURVE('',#1152,#1058,#1154,.T.);
#1152 = VERTEX_POINT('',#1153);
#1153 = CARTESIAN_POINT('',(8.,21.,-1.));
#1154 = LINE('',#1155,#1156);
#1155 = CARTESIAN_POINT('',(8.,21.,-1.));
#1156 = VECTOR('',#1157,1.);
#1157 = DIRECTION('',(0.,-1.,0.));
#1158 = ORIENTED_EDGE('',*,*,#1159,.T.);
#1159 = EDGE_CURVE('',#1152,#1128,#1160,.T.);
#1160 = LINE('',#1161,#1162);
#1161 = CARTESIAN_POINT('',(8.,21.,-1.));
#1162 = VECTOR('',#1163,1.);
#1163 = DIRECTION('',(0.,0.,1.));
#1164 = FACE_BOUND('',#1165,.T.);
#1165 = EDGE_LOOP('',(#1166));
#1166 = ORIENTED_EDGE('',*,*,#1167,.T.);
#1167 = EDGE_CURVE('',#1168,#1168,#1170,.T.);
#1168 = VERTEX_POINT('',#1169);
#1169 = CARTESIAN_POINT('',(8.,14.45,12.7));
#1170 = CIRCLE('',#1171,1.55);
#1171 = AXIS2_PLACEMENT_3D('',#1172,#1173,#1174);
#1172 = CARTESIAN_POINT('',(8.,16.,12.7));
#1173 = DIRECTION('',(-1.,0.,0.));
#1174 = DIRECTION('',(0.,-1.,0.));
#1175 = PLANE('',#1176);
#1176 = AXIS2_PLACEMENT_3D('',#1177,#1178,#1179);
#1177 = CARTESIAN_POINT('',(8.,14.006837182912,6.503570457174));
#1178 = DIRECTION('',(1.,0.,0.));
#1179 = DIRECTION('',(0.,0.,1.));
#1180 = ADVANCED_FACE('',(#1181),#1213,.T.);
#1181 = FACE_BOUND('',#1182,.T.);
#1182 = EDGE_LOOP('',(#1183,#1184,#1190,#1191,#1192,#1200,#1206,#1207));
#1183 = ORIENTED_EDGE('',*,*,#998,.T.);
#1184 = ORIENTED_EDGE('',*,*,#1185,.F.);
#1185 = EDGE_CURVE('',#1092,#991,#1186,.T.);
#1186 = LINE('',#1187,#1188);
#1187 = CARTESIAN_POINT('',(-5.,21.,17.));
#1188 = VECTOR('',#1189,1.);
#1189 = DIRECTION('',(-1.,0.,0.));
#1190 = ORIENTED_EDGE('',*,*,#1099,.F.);
#1191 = ORIENTED_EDGE('',*,*,#244,.T.);
#1192 = ORIENTED_EDGE('',*,*,#1193,.T.);
#1193 = EDGE_CURVE('',#237,#1194,#1196,.T.);
#1194 = VERTEX_POINT('',#1195);
#1195 = CARTESIAN_POINT('',(5.,21.,17.));
#1196 = LINE('',#1197,#1198);
#1197 = CARTESIAN_POINT('',(5.,21.,2.));
#1198 = VECTOR('',#1199,1.);
#1199 = DIRECTION('',(0.,0.,1.));
#1200 = ORIENTED_EDGE('',*,*,#1201,.F.);
#1201 = EDGE_CURVE('',#1128,#1194,#1202,.T.);
#1202 = LINE('',#1203,#1204);
#1203 = CARTESIAN_POINT('',(8.,21.,17.));
#1204 = VECTOR('',#1205,1.);
#1205 = DIRECTION('',(-1.,0.,0.));
#1206 = ORIENTED_EDGE('',*,*,#1159,.F.);
#1207 = ORIENTED_EDGE('',*,*,#1208,.F.);
#1208 = EDGE_CURVE('',#999,#1152,#1209,.T.);
#1209 = LINE('',#1210,#1211);
#1210 = CARTESIAN_POINT('',(-8.,21.,-1.));
#1211 = VECTOR('',#1212,1.);
#1212 = DIRECTION('',(1.,0.,0.));
#1213 = PLANE('',#1214);
#1214 = AXIS2_PLACEMENT_3D('',#1215,#1216,#1217);
#1215 = CARTESIAN_POINT('',(0.,21.,6.928571428571));
#1216 = DIRECTION('',(0.,1.,0.));
#1217 = DIRECTION('',(0.,0.,1.));
#1218 = ADVANCED_FACE('',(#1219),#1237,.F.);
#1219 = FACE_BOUND('',#1220,.F.);
#1220 = EDGE_LOOP('',(#1221,#1229,#1235,#1236));
#1221 = ORIENTED_EDGE('',*,*,#1222,.T.);
#1222 = EDGE_CURVE('',#229,#1223,#1225,.T.);
#1223 = VERTEX_POINT('',#1224);
#1224 = CARTESIAN_POINT('',(5.,11.,14.));
#1225 = LINE('',#1226,#1227);
#1226 = CARTESIAN_POINT('',(5.,11.,2.));
#1227 = VECTOR('',#1228,1.);
#1228 = DIRECTION('',(0.,0.,1.));
#1229 = ORIENTED_EDGE('',*,*,#1230,.T.);
#1230 = EDGE_CURVE('',#1223,#1136,#1231,.T.);
#1231 = LINE('',#1232,#1233);
#1232 = CARTESIAN_POINT('',(5.,11.,14.));
#1233 = VECTOR('',#1234,1.);
#1234 = DIRECTION('',(1.,0.,0.));
#1235 = ORIENTED_EDGE('',*,*,#1143,.F.);
#1236 = ORIENTED_EDGE('',*,*,#228,.F.);
#1237 = PLANE('',#1238);
#1238 = AXIS2_PLACEMENT_3D('',#1239,#1240,#1241);
#1239 = CARTESIAN_POINT('',(5.,11.,2.));
#1240 = DIRECTION('',(0.,1.,0.));
#1241 = DIRECTION('',(1.,0.,0.));
#1242 = ADVANCED_FACE('',(#1243,#1262),#1273,.F.);
#1243 = FACE_BOUND('',#1244,.F.);
#1244 = EDGE_LOOP('',(#1245,#1253,#1259,#1260,#1261));
#1245 = ORIENTED_EDGE('',*,*,#1246,.T.);
#1246 = EDGE_CURVE('',#1194,#1247,#1249,.T.);
#1247 = VERTEX_POINT('',#1248);
#1248 = CARTESIAN_POINT('',(5.,16.,17.));
#1249 = LINE('',#1250,#1251);
#1250 = CARTESIAN_POINT('',(5.,21.,17.));
#1251 = VECTOR('',#1252,1.);
#1252 = DIRECTION('',(0.,-1.,0.));
#1253 = ORIENTED_EDGE('',*,*,#1254,.F.);
#1254 = EDGE_CURVE('',#1223,#1247,#1255,.T.);
#1255 = LINE('',#1256,#1257);
#1256 = CARTESIAN_POINT('',(5.,13.279411764706,15.367647058824));
#1257 = VECTOR('',#1258,1.);
#1258 = DIRECTION('',(0.,0.857492925713,0.514495755428));
#1259 = ORIENTED_EDGE('',*,*,#1222,.F.);
#1260 = ORIENTED_EDGE('',*,*,#236,.F.);
#1261 = ORIENTED_EDGE('',*,*,#1193,.T.);
#1262 = FACE_BOUND('',#1263,.F.);
#1263 = EDGE_LOOP('',(#1264));
#1264 = ORIENTED_EDGE('',*,*,#1265,.T.);
#1265 = EDGE_CURVE('',#1266,#1266,#1268,.T.);
#1266 = VERTEX_POINT('',#1267);
#1267 = CARTESIAN_POINT('',(5.,14.45,12.7));
#1268 = CIRCLE('',#1269,1.55);
#1269 = AXIS2_PLACEMENT_3D('',#1270,#1271,#1272);
#1270 = CARTESIAN_POINT('',(5.,16.,12.7));
#1271 = DIRECTION('',(-1.,0.,0.));
#1272 = DIRECTION('',(0.,-1.,0.));
#1273 = PLANE('',#1274);
#1274 = AXIS2_PLACEMENT_3D('',#1275,#1276,#1277);
#1275 = CARTESIAN_POINT('',(5.,21.,2.));
#1276 = DIRECTION('',(1.,0.,0.));
#1277 = DIRECTION('',(0.,-1.,0.));
#1278 = ADVANCED_FACE('',(#1279),#1298,.T.);
#1279 = FACE_BOUND('',#1280,.F.);
#1280 = EDGE_LOOP('',(#1281,#1289,#1296,#1297));
#1281 = ORIENTED_EDGE('',*,*,#1282,.T.);
#1282 = EDGE_CURVE('',#325,#1283,#1285,.T.);
#1283 = VERTEX_POINT('',#1284);
#1284 = CARTESIAN_POINT('',(19.177,-17.67833903397,5.));
#1285 = LINE('',#1286,#1287);
#1286 = CARTESIAN_POINT('',(19.177,-17.67833903397,2.));
#1287 = VECTOR('',#1288,1.);
#1288 = DIRECTION('',(0.,0.,1.));
#1289 = ORIENTED_EDGE('',*,*,#1290,.T.);
#1290 = EDGE_CURVE('',#1283,#1283,#1291,.T.);
#1291 = CIRCLE('',#1292,1.5);
#1292 = AXIS2_PLACEMENT_3D('',#1293,#1294,#1295);
#1293 = CARTESIAN_POINT('',(17.677,-17.67833903397,5.));
#1294 = DIRECTION('',(0.,0.,1.));
#1295 = DIRECTION('',(1.,0.,0.));
#1296 = ORIENTED_EDGE('',*,*,#1282,.F.);
#1297 = ORIENTED_EDGE('',*,*,#324,.F.);
#1298 = CYLINDRICAL_SURFACE('',#1299,1.5);
#1299 = AXIS2_PLACEMENT_3D('',#1300,#1301,#1302);
#1300 = CARTESIAN_POINT('',(17.677,-17.67833903397,2.));
#1301 = DIRECTION('',(-0.,-0.,-1.));
#1302 = DIRECTION('',(1.,0.,0.));
#1303 = ADVANCED_FACE('',(#1304),#1323,.F.);
#1304 = FACE_BOUND('',#1305,.F.);
#1305 = EDGE_LOOP('',(#1306,#1314,#1321,#1322));
#1306 = ORIENTED_EDGE('',*,*,#1307,.T.);
#1307 = EDGE_CURVE('',#336,#1308,#1310,.T.);
#1308 = VERTEX_POINT('',#1309);
#1309 = CARTESIAN_POINT('',(4.25,0.,1.));
#1310 = LINE('',#1311,#1312);
#1311 = CARTESIAN_POINT('',(4.25,0.,2.));
#1312 = VECTOR('',#1313,1.);
#1313 = DIRECTION('',(-0.,-0.,-1.));
#1314 = ORIENTED_EDGE('',*,*,#1315,.T.);
#1315 = EDGE_CURVE('',#1308,#1308,#1316,.T.);
#1316 = CIRCLE('',#1317,4.25);
#1317 = AXIS2_PLACEMENT_3D('',#1318,#1319,#1320);
#1318 = CARTESIAN_POINT('',(0.,0.,1.));
#1319 = DIRECTION('',(0.,0.,1.));
#1320 = DIRECTION('',(1.,0.,0.));
#1321 = ORIENTED_EDGE('',*,*,#1307,.F.);
#1322 = ORIENTED_EDGE('',*,*,#335,.F.);
#1323 = CYLINDRICAL_SURFACE('',#1324,4.25);
#1324 = AXIS2_PLACEMENT_3D('',#1325,#1326,#1327);
#1325 = CARTESIAN_POINT('',(0.,0.,2.));
#1326 = DIRECTION('',(0.,0.,1.));
#1327 = DIRECTION('',(1.,0.,0.));
#1328 = ADVANCED_FACE('',(#1329,#1340),#1351,.F.);
#1329 = FACE_BOUND('',#1330,.F.);
#1330 = EDGE_LOOP('',(#1331,#1332,#1333,#1334,#1335,#1336,#1337,#1338,
    #1339));
#1331 = ORIENTED_EDGE('',*,*,#569,.F.);
#1332 = ORIENTED_EDGE('',*,*,#606,.F.);
#1333 = ORIENTED_EDGE('',*,*,#468,.F.);
#1334 = ORIENTED_EDGE('',*,*,#1068,.F.);
#1335 = ORIENTED_EDGE('',*,*,#1151,.F.);
#1336 = ORIENTED_EDGE('',*,*,#1208,.F.);
#1337 = ORIENTED_EDGE('',*,*,#1006,.F.);
#1338 = ORIENTED_EDGE('',*,*,#948,.F.);
#1339 = ORIENTED_EDGE('',*,*,#773,.F.);
#1340 = FACE_BOUND('',#1341,.F.);
#1341 = EDGE_LOOP('',(#1342));
#1342 = ORIENTED_EDGE('',*,*,#1343,.F.);
#1343 = EDGE_CURVE('',#1344,#1344,#1346,.T.);
#1344 = VERTEX_POINT('',#1345);
#1345 = CARTESIAN_POINT('',(2.05,0.,-1.));
#1346 = CIRCLE('',#1347,2.05);
#1347 = AXIS2_PLACEMENT_3D('',#1348,#1349,#1350);
#1348 = CARTESIAN_POINT('',(0.,0.,-1.));
#1349 = DIRECTION('',(0.,0.,1.));
#1350 = DIRECTION('',(1.,0.,0.));
#1351 = PLANE('',#1352);
#1352 = AXIS2_PLACEMENT_3D('',#1353,#1354,#1355);
#1353 = CARTESIAN_POINT('',(1.75312382483,-1.75312382483,-1.));
#1354 = DIRECTION('',(0.,0.,1.));
#1355 = DIRECTION('',(1.,0.,0.));
#1356 = ADVANCED_FACE('',(#1357),#1368,.T.);
#1357 = FACE_BOUND('',#1358,.T.);
#1358 = EDGE_LOOP('',(#1359,#1360,#1366,#1367));
#1359 = ORIENTED_EDGE('',*,*,#872,.T.);
#1360 = ORIENTED_EDGE('',*,*,#1361,.T.);
#1361 = EDGE_CURVE('',#865,#689,#1362,.T.);
#1362 = LINE('',#1363,#1364);
#1363 = CARTESIAN_POINT('',(15.204067811866,-22.9796983722,21.));
#1364 = VECTOR('',#1365,1.);
#1365 = DIRECTION('',(-0.707106781187,-0.707106781187,0.));
#1366 = ORIENTED_EDGE('',*,*,#688,.F.);
#1367 = ORIENTED_EDGE('',*,*,#445,.F.);
#1368 = CYLINDRICAL_SURFACE('',#1369,3.);
#1369 = AXIS2_PLACEMENT_3D('',#1370,#1371,#1372);
#1370 = CARTESIAN_POINT('',(15.204067811866,-22.9796983722,18.));
#1371 = DIRECTION('',(-0.707106781187,-0.707106781187,0.));
#1372 = DIRECTION('',(0.707106781187,-0.707106781187,-3.379697672032E-15
    ));
#1373 = ADVANCED_FACE('',(#1374),#1385,.F.);
#1374 = FACE_BOUND('',#1375,.T.);
#1375 = EDGE_LOOP('',(#1376,#1377,#1378,#1379));
#1376 = ORIENTED_EDGE('',*,*,#545,.F.);
#1377 = ORIENTED_EDGE('',*,*,#621,.T.);
#1378 = ORIENTED_EDGE('',*,*,#645,.T.);
#1379 = ORIENTED_EDGE('',*,*,#1380,.F.);
#1380 = EDGE_CURVE('',#546,#646,#1381,.T.);
#1381 = LINE('',#1382,#1383);
#1382 = CARTESIAN_POINT('',(-16.,-8.,17.));
#1383 = VECTOR('',#1384,1.);
#1384 = DIRECTION('',(0.,1.,0.));
#1385 = PLANE('',#1386);
#1386 = AXIS2_PLACEMENT_3D('',#1387,#1388,#1389);
#1387 = CARTESIAN_POINT('',(-13.5,-8.,15.5));
#1388 = DIRECTION('',(-0.514495755428,3.212940164696E-17,-0.857492925713
    ));
#1389 = DIRECTION('',(-1.653044077179E-17,-1.,-2.755073461964E-17));
#1390 = ADVANCED_FACE('',(#1391),#1397,.T.);
#1391 = FACE_BOUND('',#1392,.T.);
#1392 = EDGE_LOOP('',(#1393,#1394,#1395,#1396));
#1393 = ORIENTED_EDGE('',*,*,#553,.T.);
#1394 = ORIENTED_EDGE('',*,*,#1380,.T.);
#1395 = ORIENTED_EDGE('',*,*,#653,.T.);
#1396 = ORIENTED_EDGE('',*,*,#741,.T.);
#1397 = PLANE('',#1398);
#1398 = AXIS2_PLACEMENT_3D('',#1399,#1400,#1401);
#1399 = CARTESIAN_POINT('',(-8.,8.,17.));
#1400 = DIRECTION('',(0.,0.,1.));
#1401 = DIRECTION('',(1.,0.,0.));
#1402 = ADVANCED_FACE('',(#1403),#1414,.F.);
#1403 = FACE_BOUND('',#1404,.F.);
#1404 = EDGE_LOOP('',(#1405,#1406,#1412,#1413));
#1405 = ORIENTED_EDGE('',*,*,#586,.F.);
#1406 = ORIENTED_EDGE('',*,*,#1407,.T.);
#1407 = EDGE_CURVE('',#587,#671,#1408,.T.);
#1408 = LINE('',#1409,#1410);
#1409 = CARTESIAN_POINT('',(-14.45,-8.,12.7));
#1410 = VECTOR('',#1411,1.);
#1411 = DIRECTION('',(0.,1.,-2.22044604925E-16));
#1412 = ORIENTED_EDGE('',*,*,#670,.T.);
#1413 = ORIENTED_EDGE('',*,*,#1407,.F.);
#1414 = CYLINDRICAL_SURFACE('',#1415,1.55);
#1415 = AXIS2_PLACEMENT_3D('',#1416,#1417,#1418);
#1416 = CARTESIAN_POINT('',(-16.,-8.,12.7));
#1417 = DIRECTION('',(0.,-1.,2.22044604925E-16));
#1418 = DIRECTION('',(1.,0.,0.));
#1419 = ADVANCED_FACE('',(#1420),#1431,.T.);
#1420 = FACE_BOUND('',#1421,.T.);
#1421 = EDGE_LOOP('',(#1422,#1423,#1429,#1430));
#1422 = ORIENTED_EDGE('',*,*,#864,.F.);
#1423 = ORIENTED_EDGE('',*,*,#1424,.F.);
#1424 = EDGE_CURVE('',#698,#856,#1425,.T.);
#1425 = LINE('',#1426,#1427);
#1426 = CARTESIAN_POINT('',(10.25432034356,-22.27259159102,21.));
#1427 = VECTOR('',#1428,1.);
#1428 = DIRECTION('',(0.707106781187,0.707106781187,0.));
#1429 = ORIENTED_EDGE('',*,*,#697,.F.);
#1430 = ORIENTED_EDGE('',*,*,#1361,.F.);
#1431 = PLANE('',#1432);
#1432 = AXIS2_PLACEMENT_3D('',#1433,#1434,#1435);
#1433 = CARTESIAN_POINT('',(17.678941546018,-17.6763975133,21.));
#1434 = DIRECTION('',(0.,0.,1.));
#1435 = DIRECTION('',(1.,0.,0.));
#1436 = ADVANCED_FACE('',(#1437),#1443,.T.);
#1437 = FACE_BOUND('',#1438,.T.);
#1438 = EDGE_LOOP('',(#1439,#1440,#1441,#1442));
#1439 = ORIENTED_EDGE('',*,*,#705,.T.);
#1440 = ORIENTED_EDGE('',*,*,#1424,.T.);
#1441 = ORIENTED_EDGE('',*,*,#855,.F.);
#1442 = ORIENTED_EDGE('',*,*,#788,.F.);
#1443 = CYLINDRICAL_SURFACE('',#1444,3.);
#1444 = AXIS2_PLACEMENT_3D('',#1445,#1446,#1447);
#1445 = CARTESIAN_POINT('',(10.25432034356,-22.27259159102,18.));
#1446 = DIRECTION('',(0.707106781187,0.707106781187,0.));
#1447 = DIRECTION('',(-0.707106781187,0.707106781187,0.));
#1448 = ADVANCED_FACE('',(#1449),#1460,.F.);
#1449 = FACE_BOUND('',#1450,.F.);
#1450 = EDGE_LOOP('',(#1451,#1452,#1458,#1459));
#1451 = ORIENTED_EDGE('',*,*,#723,.F.);
#1452 = ORIENTED_EDGE('',*,*,#1453,.T.);
#1453 = EDGE_CURVE('',#724,#884,#1454,.T.);
#1454 = LINE('',#1455,#1456);
#1455 = CARTESIAN_POINT('',(12.764549416772,-24.78282066423,16.));
#1456 = VECTOR('',#1457,1.);
#1457 = DIRECTION('',(0.707106781187,0.707106781187,0.));
#1458 = ORIENTED_EDGE('',*,*,#883,.T.);
#1459 = ORIENTED_EDGE('',*,*,#1453,.F.);
#1460 = CYLINDRICAL_SURFACE('',#1461,1.55);
#1461 = AXIS2_PLACEMENT_3D('',#1462,#1463,#1464);
#1462 = CARTESIAN_POINT('',(11.668533905933,-23.68680515339,16.));
#1463 = DIRECTION('',(-0.707106781187,-0.707106781187,0.));
#1464 = DIRECTION('',(0.707106781187,-0.707106781187,0.));
#1465 = ADVANCED_FACE('',(#1466),#1477,.T.);
#1466 = FACE_BOUND('',#1467,.T.);
#1467 = EDGE_LOOP('',(#1468,#1469,#1475,#1476));
#1468 = ORIENTED_EDGE('',*,*,#811,.T.);
#1469 = ORIENTED_EDGE('',*,*,#1470,.T.);
#1470 = EDGE_CURVE('',#812,#925,#1471,.T.);
#1471 = LINE('',#1472,#1473);
#1472 = CARTESIAN_POINT('',(-16.,5.,17.));
#1473 = VECTOR('',#1474,1.);
#1474 = DIRECTION('',(0.,1.,0.));
#1475 = ORIENTED_EDGE('',*,*,#924,.T.);
#1476 = ORIENTED_EDGE('',*,*,#757,.T.);
#1477 = PLANE('',#1478);
#1478 = AXIS2_PLACEMENT_3D('',#1479,#1480,#1481);
#1479 = CARTESIAN_POINT('',(-8.,8.,17.));
#1480 = DIRECTION('',(0.,0.,1.));
#1481 = DIRECTION('',(1.,0.,0.));
#1482 = ADVANCED_FACE('',(#1483),#1489,.F.);
#1483 = FACE_BOUND('',#1484,.T.);
#1484 = EDGE_LOOP('',(#1485,#1486,#1487,#1488));
#1485 = ORIENTED_EDGE('',*,*,#819,.F.);
#1486 = ORIENTED_EDGE('',*,*,#901,.T.);
#1487 = ORIENTED_EDGE('',*,*,#932,.T.);
#1488 = ORIENTED_EDGE('',*,*,#1470,.F.);
#1489 = PLANE('',#1490);
#1490 = AXIS2_PLACEMENT_3D('',#1491,#1492,#1493);
#1491 = CARTESIAN_POINT('',(-13.5,5.,15.5));
#1492 = DIRECTION('',(-0.514495755428,0.,-0.857492925713));
#1493 = DIRECTION('',(-0.,-1.,-0.));
#1494 = ADVANCED_FACE('',(#1495),#1506,.F.);
#1495 = FACE_BOUND('',#1496,.F.);
#1496 = EDGE_LOOP('',(#1497,#1498,#1504,#1505));
#1497 = ORIENTED_EDGE('',*,*,#837,.F.);
#1498 = ORIENTED_EDGE('',*,*,#1499,.T.);
#1499 = EDGE_CURVE('',#838,#958,#1500,.T.);
#1500 = LINE('',#1501,#1502);
#1501 = CARTESIAN_POINT('',(-14.45,-8.,12.7));
#1502 = VECTOR('',#1503,1.);
#1503 = DIRECTION('',(0.,1.,-2.22044604925E-16));
#1504 = ORIENTED_EDGE('',*,*,#957,.T.);
#1505 = ORIENTED_EDGE('',*,*,#1499,.F.);
#1506 = CYLINDRICAL_SURFACE('',#1507,1.55);
#1507 = AXIS2_PLACEMENT_3D('',#1508,#1509,#1510);
#1508 = CARTESIAN_POINT('',(-16.,-8.,12.7));
#1509 = DIRECTION('',(0.,-1.,2.22044604925E-16));
#1510 = DIRECTION('',(1.,0.,0.));
#1511 = ADVANCED_FACE('',(#1512),#1523,.F.);
#1512 = FACE_BOUND('',#1513,.T.);
#1513 = EDGE_LOOP('',(#1514,#1515,#1516,#1517));
#1514 = ORIENTED_EDGE('',*,*,#982,.F.);
#1515 = ORIENTED_EDGE('',*,*,#1034,.T.);
#1516 = ORIENTED_EDGE('',*,*,#1083,.T.);
#1517 = ORIENTED_EDGE('',*,*,#1518,.F.);
#1518 = EDGE_CURVE('',#983,#1084,#1519,.T.);
#1519 = LINE('',#1520,#1521);
#1520 = CARTESIAN_POINT('',(-8.,16.,17.));
#1521 = VECTOR('',#1522,1.);
#1522 = DIRECTION('',(1.,0.,0.));
#1523 = PLANE('',#1524);
#1524 = AXIS2_PLACEMENT_3D('',#1525,#1526,#1527);
#1525 = CARTESIAN_POINT('',(-8.,13.5,15.5));
#1526 = DIRECTION('',(3.212940164696E-17,0.514495755428,-0.857492925713)
  );
#1527 = DIRECTION('',(-1.,1.653044077179E-17,-2.755073461964E-17));
#1528 = ADVANCED_FACE('',(#1529),#1535,.T.);
#1529 = FACE_BOUND('',#1530,.T.);
#1530 = EDGE_LOOP('',(#1531,#1532,#1533,#1534));
#1531 = ORIENTED_EDGE('',*,*,#990,.T.);
#1532 = ORIENTED_EDGE('',*,*,#1518,.T.);
#1533 = ORIENTED_EDGE('',*,*,#1091,.T.);
#1534 = ORIENTED_EDGE('',*,*,#1185,.T.);
#1535 = PLANE('',#1536);
#1536 = AXIS2_PLACEMENT_3D('',#1537,#1538,#1539);
#1537 = CARTESIAN_POINT('',(-8.,8.,17.));
#1538 = DIRECTION('',(0.,0.,1.));
#1539 = DIRECTION('',(1.,0.,0.));
#1540 = ADVANCED_FACE('',(#1541),#1552,.F.);
#1541 = FACE_BOUND('',#1542,.F.);
#1542 = EDGE_LOOP('',(#1543,#1544,#1550,#1551));
#1543 = ORIENTED_EDGE('',*,*,#1016,.F.);
#1544 = ORIENTED_EDGE('',*,*,#1545,.T.);
#1545 = EDGE_CURVE('',#1017,#1109,#1546,.T.);
#1546 = LINE('',#1547,#1548);
#1547 = CARTESIAN_POINT('',(-8.,14.45,12.7));
#1548 = VECTOR('',#1549,1.);
#1549 = DIRECTION('',(1.,0.,0.));
#1550 = ORIENTED_EDGE('',*,*,#1108,.T.);
#1551 = ORIENTED_EDGE('',*,*,#1545,.F.);
#1552 = CYLINDRICAL_SURFACE('',#1553,1.55);
#1553 = AXIS2_PLACEMENT_3D('',#1554,#1555,#1556);
#1554 = CARTESIAN_POINT('',(-8.,16.,12.7));
#1555 = DIRECTION('',(-1.,0.,0.));
#1556 = DIRECTION('',(0.,-1.,0.));
#1557 = ADVANCED_FACE('',(#1558),#1569,.T.);
#1558 = FACE_BOUND('',#1559,.T.);
#1559 = EDGE_LOOP('',(#1560,#1561,#1567,#1568));
#1560 = ORIENTED_EDGE('',*,*,#1246,.T.);
#1561 = ORIENTED_EDGE('',*,*,#1562,.T.);
#1562 = EDGE_CURVE('',#1247,#1126,#1563,.T.);
#1563 = LINE('',#1564,#1565);
#1564 = CARTESIAN_POINT('',(5.,16.,17.));
#1565 = VECTOR('',#1566,1.);
#1566 = DIRECTION('',(1.,0.,0.));
#1567 = ORIENTED_EDGE('',*,*,#1125,.T.);
#1568 = ORIENTED_EDGE('',*,*,#1201,.T.);
#1569 = PLANE('',#1570);
#1570 = AXIS2_PLACEMENT_3D('',#1571,#1572,#1573);
#1571 = CARTESIAN_POINT('',(-8.,8.,17.));
#1572 = DIRECTION('',(0.,0.,1.));
#1573 = DIRECTION('',(1.,0.,0.));
#1574 = ADVANCED_FACE('',(#1575),#1581,.F.);
#1575 = FACE_BOUND('',#1576,.T.);
#1576 = EDGE_LOOP('',(#1577,#1578,#1579,#1580));
#1577 = ORIENTED_EDGE('',*,*,#1254,.F.);
#1578 = ORIENTED_EDGE('',*,*,#1230,.T.);
#1579 = ORIENTED_EDGE('',*,*,#1135,.T.);
#1580 = ORIENTED_EDGE('',*,*,#1562,.F.);
#1581 = PLANE('',#1582);
#1582 = AXIS2_PLACEMENT_3D('',#1583,#1584,#1585);
#1583 = CARTESIAN_POINT('',(5.,13.5,15.5));
#1584 = DIRECTION('',(0.,0.514495755428,-0.857492925713));
#1585 = DIRECTION('',(-1.,-0.,-0.));
#1586 = ADVANCED_FACE('',(#1587),#1598,.F.);
#1587 = FACE_BOUND('',#1588,.F.);
#1588 = EDGE_LOOP('',(#1589,#1590,#1596,#1597));
#1589 = ORIENTED_EDGE('',*,*,#1265,.F.);
#1590 = ORIENTED_EDGE('',*,*,#1591,.T.);
#1591 = EDGE_CURVE('',#1266,#1168,#1592,.T.);
#1592 = LINE('',#1593,#1594);
#1593 = CARTESIAN_POINT('',(-8.,14.45,12.7));
#1594 = VECTOR('',#1595,1.);
#1595 = DIRECTION('',(1.,0.,0.));
#1596 = ORIENTED_EDGE('',*,*,#1167,.T.);
#1597 = ORIENTED_EDGE('',*,*,#1591,.F.);
#1598 = CYLINDRICAL_SURFACE('',#1599,1.55);
#1599 = AXIS2_PLACEMENT_3D('',#1600,#1601,#1602);
#1600 = CARTESIAN_POINT('',(-8.,16.,12.7));
#1601 = DIRECTION('',(-1.,0.,0.));
#1602 = DIRECTION('',(0.,-1.,0.));
#1603 = ADVANCED_FACE('',(#1604),#1607,.T.);
#1604 = FACE_BOUND('',#1605,.T.);
#1605 = EDGE_LOOP('',(#1606));
#1606 = ORIENTED_EDGE('',*,*,#1290,.T.);
#1607 = PLANE('',#1608);
#1608 = AXIS2_PLACEMENT_3D('',#1609,#1610,#1611);
#1609 = CARTESIAN_POINT('',(17.677,-17.67833903397,5.));
#1610 = DIRECTION('',(0.,0.,1.));
#1611 = DIRECTION('',(1.,0.,0.));
#1612 = ADVANCED_FACE('',(#1613,#1616),#1627,.T.);
#1613 = FACE_BOUND('',#1614,.T.);
#1614 = EDGE_LOOP('',(#1615));
#1615 = ORIENTED_EDGE('',*,*,#1315,.T.);
#1616 = FACE_BOUND('',#1617,.T.);
#1617 = EDGE_LOOP('',(#1618));
#1618 = ORIENTED_EDGE('',*,*,#1619,.F.);
#1619 = EDGE_CURVE('',#1620,#1620,#1622,.T.);
#1620 = VERTEX_POINT('',#1621);
#1621 = CARTESIAN_POINT('',(2.05,0.,1.));
#1622 = CIRCLE('',#1623,2.05);
#1623 = AXIS2_PLACEMENT_3D('',#1624,#1625,#1626);
#1624 = CARTESIAN_POINT('',(0.,0.,1.));
#1625 = DIRECTION('',(0.,0.,1.));
#1626 = DIRECTION('',(1.,0.,0.));
#1627 = PLANE('',#1628);
#1628 = AXIS2_PLACEMENT_3D('',#1629,#1630,#1631);
#1629 = CARTESIAN_POINT('',(-4.021882742763E-16,-1.734916298792E-16,1.)
  );
#1630 = DIRECTION('',(0.,0.,1.));
#1631 = DIRECTION('',(1.,0.,0.));
#1632 = ADVANCED_FACE('',(#1633),#1644,.F.);
#1633 = FACE_BOUND('',#1634,.F.);
#1634 = EDGE_LOOP('',(#1635,#1636,#1642,#1643));
#1635 = ORIENTED_EDGE('',*,*,#1619,.F.);
#1636 = ORIENTED_EDGE('',*,*,#1637,.T.);
#1637 = EDGE_CURVE('',#1620,#1344,#1638,.T.);
#1638 = LINE('',#1639,#1640);
#1639 = CARTESIAN_POINT('',(2.05,0.,2.));
#1640 = VECTOR('',#1641,1.);
#1641 = DIRECTION('',(-0.,-0.,-1.));
#1642 = ORIENTED_EDGE('',*,*,#1343,.T.);
#1643 = ORIENTED_EDGE('',*,*,#1637,.F.);
#1644 = CYLINDRICAL_SURFACE('',#1645,2.05);
#1645 = AXIS2_PLACEMENT_3D('',#1646,#1647,#1648);
#1646 = CARTESIAN_POINT('',(0.,0.,2.));
#1647 = DIRECTION('',(0.,0.,1.));
#1648 = DIRECTION('',(1.,0.,0.));
#1649 = ( GEOMETRIC_REPRESENTATION_CONTEXT(3) 
GLOBAL_UNCERTAINTY_ASSIGNED_CONTEXT((#1653)) 
GLOBAL_UNIT_ASSIGNED_CONTEXT((#1650,#1651,#1652)) REPRESENTATION_CONTEXT
('Context #1','3D Context with UNIT and UNCERTAINTY') );
#1650 = ( LENGTH_UNIT() NAMED_UNIT(*) SI_UNIT(.MILLI.,.METRE.) );
#1651 = ( NAMED_UNIT(*) PLANE_ANGLE_UNIT() SI_UNIT($,.RADIAN.) );
#1652 = ( NAMED_UNIT(*) SI_UNIT($,.STERADIAN.) SOLID_ANGLE_UNIT() );
#1653 = UNCERTAINTY_MEASURE_WITH_UNIT(LENGTH_MEASURE(1.E-07),#1650,
  'distance_accuracy_value','confusion accuracy');
#1654 = PRODUCT_RELATED_PRODUCT_CATEGORY('detail',$,(#7));
#1655 = PRODUCT_CATEGORY_RELATIONSHIP('','',#1656,#1654);
#1656 = PRODUCT_CATEGORY('part',$);
#1657 = CC_DESIGN_PERSON_AND_ORGANIZATION_ASSIGNMENT(#1658,#1661,(#6,#5)
  );
#1658 = PERSON_AND_ORGANIZATION(#1659,#1660);
#1659 = PERSON('IP169.254.190,karol','','karol',$,$,$);
#1660 = ORGANIZATION('IP169.254.190','Unspecified','');
#1661 = PERSON_AND_ORGANIZATION_ROLE('creator');
#1662 = CC_DESIGN_PERSON_AND_ORGANIZATION_ASSIGNMENT(#1658,#1663,(#7));
#1663 = PERSON_AND_ORGANIZATION_ROLE('design_owner');
#1664 = CC_DESIGN_PERSON_AND_ORGANIZATION_ASSIGNMENT(#1658,#1665,(#6));
#1665 = PERSON_AND_ORGANIZATION_ROLE('design_supplier');
#1666 = CC_DESIGN_PERSON_AND_ORGANIZATION_ASSIGNMENT(#1658,#1667,(#1668)
  );
#1667 = PERSON_AND_ORGANIZATION_ROLE('classification_officer');
#1668 = SECURITY_CLASSIFICATION('','',#1669);
#1669 = SECURITY_CLASSIFICATION_LEVEL('unclassified');
#1670 = CC_DESIGN_SECURITY_CLASSIFICATION(#1668,(#6));
#1671 = CC_DESIGN_DATE_AND_TIME_ASSIGNMENT(#1672,#1676,(#5));
#1672 = DATE_AND_TIME(#1673,#1674);
#1673 = CALENDAR_DATE(2026,26,4);
#1674 = LOCAL_TIME(19,50,$,#1675);
#1675 = COORDINATED_UNIVERSAL_TIME_OFFSET(1,$,.AHEAD.);
#1676 = DATE_TIME_ROLE('creation_date');
#1677 = CC_DESIGN_DATE_AND_TIME_ASSIGNMENT(#1672,#1678,(#1668));
#1678 = DATE_TIME_ROLE('classification_date');
#1679 = CC_DESIGN_APPROVAL(#1680,(#6,#5,#1668));
#1680 = APPROVAL(#1681,'');
#1681 = APPROVAL_STATUS('not_yet_approved');
#1682 = APPROVAL_PERSON_ORGANIZATION(#1658,#1680,#1683);
#1683 = APPROVAL_ROLE('approver');
#1684 = APPROVAL_DATE_TIME(#1672,#1680);
#1685 = MECHANICAL_DESIGN_GEOMETRIC_PRESENTATION_REPRESENTATION('',(
    #1686),#1649);
#1686 = STYLED_ITEM('color',(#1687),#15);
#1687 = PRESENTATION_STYLE_ASSIGNMENT((#1688,#1694));
#1688 = SURFACE_STYLE_USAGE(.BOTH.,#1689);
#1689 = SURFACE_SIDE_STYLE('',(#1690));
#1690 = SURFACE_STYLE_FILL_AREA(#1691);
#1691 = FILL_AREA_STYLE('',(#1692));
#1692 = FILL_AREA_STYLE_COLOUR('',#1693);
#1693 = COLOUR_RGB('',0.447058818107,0.474509808674,0.501960817233);
#1694 = CURVE_STYLE('',#1695,POSITIVE_LENGTH_MEASURE(0.1),#1696);
#1695 = DRAUGHTING_PRE_DEFINED_CURVE_FONT('continuous');
#1696 = COLOUR_RGB('',9.803921802644E-02,9.803921802644E-02,
  9.803921802644E-02);
ENDSEC;
END-ISO-10303-21;
