ISO-10303-21;
HEADER;
FILE_DESCRIPTION(('FreeCAD Model'),'2;1');
FILE_NAME('Open CASCADE Shape Model','2026-05-23T14:32:33',(''),(''),
  'Open CASCADE STEP processor 7.8','FreeCAD','Unknown');
FILE_SCHEMA(('CONFIG_CONTROL_DESIGN','SHAPE_APPEARANCE_LAYER_MIM'));
ENDSEC;
DATA;
#1 = APPLICATION_PROTOCOL_DEFINITION('international standard',
  'config_control_design',1994,#2);
#2 = APPLICATION_CONTEXT(
'configuration controlled 3D designs of mechanical parts and assemblies'
  );
#3 = SHAPE_DEFINITION_REPRESENTATION(#4,#10);
#4 = PRODUCT_DEFINITION_SHAPE('','',#5);
#5 = PRODUCT_DEFINITION('design','',#6,#9);
#6 = PRODUCT_DEFINITION_FORMATION_WITH_SPECIFIED_SOURCE('','',#7,
  .NOT_KNOWN.);
#7 = PRODUCT('Zawartość','Zawartość','',(#8));
#8 = MECHANICAL_CONTEXT('',#2,'mechanical');
#9 = DESIGN_CONTEXT('',#2,'design');
#10 = ADVANCED_BREP_SHAPE_REPRESENTATION('',(#11,#15),#2072);
#11 = AXIS2_PLACEMENT_3D('',#12,#13,#14);
#12 = CARTESIAN_POINT('',(0.,0.,0.));
#13 = DIRECTION('',(0.,0.,1.));
#14 = DIRECTION('',(1.,0.,-0.));
#15 = MANIFOLD_SOLID_BREP('',#16);
#16 = CLOSED_SHELL('',(#17,#73,#121,#145,#359,#556,#575,#601,#815,#833,
    #857,#875,#893,#911,#929,#947,#965,#977,#994,#1036,#1067,#1091,#1115
    ,#1139,#1163,#1180,#1211,#1235,#1259,#1283,#1307,#1324,#1343,#1367,
    #1379,#1403,#1420,#1445,#1470,#1497,#1524,#1555,#1579,#1603,#1627,
    #1651,#1668,#1699,#1723,#1747,#1771,#1795,#1812,#1836,#1861,#1886,
    #1911,#1936,#1961,#1986,#2011,#2036,#2045,#2054,#2063));
#17 = ADVANCED_FACE('',(#18),#68,.F.);
#18 = FACE_BOUND('',#19,.F.);
#19 = EDGE_LOOP('',(#20,#30,#38,#46,#54,#62));
#20 = ORIENTED_EDGE('',*,*,#21,.F.);
#21 = EDGE_CURVE('',#22,#24,#26,.T.);
#22 = VERTEX_POINT('',#23);
#23 = CARTESIAN_POINT('',(-5.,30.,10.));
#24 = VERTEX_POINT('',#25);
#25 = CARTESIAN_POINT('',(-5.,30.,20.));
#26 = LINE('',#27,#28);
#27 = CARTESIAN_POINT('',(-5.,30.,0.));
#28 = VECTOR('',#29,1.);
#29 = DIRECTION('',(0.,0.,1.));
#30 = ORIENTED_EDGE('',*,*,#31,.T.);
#31 = EDGE_CURVE('',#22,#32,#34,.T.);
#32 = VERTEX_POINT('',#33);
#33 = CARTESIAN_POINT('',(-15.,30.,0.));
#34 = LINE('',#35,#36);
#35 = CARTESIAN_POINT('',(3.552713678801E-15,30.,15.));
#36 = VECTOR('',#37,1.);
#37 = DIRECTION('',(-0.707106781187,-0.,-0.707106781187));
#38 = ORIENTED_EDGE('',*,*,#39,.F.);
#39 = EDGE_CURVE('',#40,#32,#42,.T.);
#40 = VERTEX_POINT('',#41);
#41 = CARTESIAN_POINT('',(-5.,30.,0.));
#42 = LINE('',#43,#44);
#43 = CARTESIAN_POINT('',(16.583355461081,30.,0.));
#44 = VECTOR('',#45,1.);
#45 = DIRECTION('',(-1.,0.,0.));
#46 = ORIENTED_EDGE('',*,*,#47,.F.);
#47 = EDGE_CURVE('',#48,#40,#50,.T.);
#48 = VERTEX_POINT('',#49);
#49 = CARTESIAN_POINT('',(14.,30.,0.));
#50 = LINE('',#51,#52);
#51 = CARTESIAN_POINT('',(35.,30.,0.));
#52 = VECTOR('',#53,1.);
#53 = DIRECTION('',(-1.,0.,0.));
#54 = ORIENTED_EDGE('',*,*,#55,.T.);
#55 = EDGE_CURVE('',#48,#56,#58,.T.);
#56 = VERTEX_POINT('',#57);
#57 = CARTESIAN_POINT('',(14.,30.,20.));
#58 = LINE('',#59,#60);
#59 = CARTESIAN_POINT('',(14.,30.,20.));
#60 = VECTOR('',#61,1.);
#61 = DIRECTION('',(0.,0.,1.));
#62 = ORIENTED_EDGE('',*,*,#63,.T.);
#63 = EDGE_CURVE('',#56,#24,#64,.T.);
#64 = LINE('',#65,#66);
#65 = CARTESIAN_POINT('',(35.,30.,20.));
#66 = VECTOR('',#67,1.);
#67 = DIRECTION('',(-1.,0.,0.));
#68 = PLANE('',#69);
#69 = AXIS2_PLACEMENT_3D('',#70,#71,#72);
#70 = CARTESIAN_POINT('',(35.,30.,0.));
#71 = DIRECTION('',(0.,-1.,0.));
#72 = DIRECTION('',(-1.,0.,0.));
#73 = ADVANCED_FACE('',(#74),#116,.F.);
#74 = FACE_BOUND('',#75,.F.);
#75 = EDGE_LOOP('',(#76,#86,#92,#93,#101,#110));
#76 = ORIENTED_EDGE('',*,*,#77,.F.);
#77 = EDGE_CURVE('',#78,#80,#82,.T.);
#78 = VERTEX_POINT('',#79);
#79 = CARTESIAN_POINT('',(-5.,-30.,10.));
#80 = VERTEX_POINT('',#81);
#81 = CARTESIAN_POINT('',(-5.,-30.,20.));
#82 = LINE('',#83,#84);
#83 = CARTESIAN_POINT('',(-5.,-30.,0.));
#84 = VECTOR('',#85,1.);
#85 = DIRECTION('',(0.,0.,1.));
#86 = ORIENTED_EDGE('',*,*,#87,.F.);
#87 = EDGE_CURVE('',#22,#78,#88,.T.);
#88 = LINE('',#89,#90);
#89 = CARTESIAN_POINT('',(-5.,30.,10.));
#90 = VECTOR('',#91,1.);
#91 = DIRECTION('',(0.,-1.,0.));
#92 = ORIENTED_EDGE('',*,*,#21,.T.);
#93 = ORIENTED_EDGE('',*,*,#94,.T.);
#94 = EDGE_CURVE('',#24,#95,#97,.T.);
#95 = VERTEX_POINT('',#96);
#96 = CARTESIAN_POINT('',(-5.,8.5,20.));
#97 = LINE('',#98,#99);
#98 = CARTESIAN_POINT('',(-5.,30.,20.));
#99 = VECTOR('',#100,1.);
#100 = DIRECTION('',(0.,-1.,0.));
#101 = ORIENTED_EDGE('',*,*,#102,.F.);
#102 = EDGE_CURVE('',#103,#95,#105,.T.);
#103 = VERTEX_POINT('',#104);
#104 = CARTESIAN_POINT('',(-5.,-8.5,20.));
#105 = CIRCLE('',#106,8.5);
#106 = AXIS2_PLACEMENT_3D('',#107,#108,#109);
#107 = CARTESIAN_POINT('',(-5.,0.,20.));
#108 = DIRECTION('',(1.,0.,0.));
#109 = DIRECTION('',(0.,1.,0.));
#110 = ORIENTED_EDGE('',*,*,#111,.T.);
#111 = EDGE_CURVE('',#103,#80,#112,.T.);
#112 = LINE('',#113,#114);
#113 = CARTESIAN_POINT('',(-5.,30.,20.));
#114 = VECTOR('',#115,1.);
#115 = DIRECTION('',(0.,-1.,0.));
#116 = PLANE('',#117);
#117 = AXIS2_PLACEMENT_3D('',#118,#119,#120);
#118 = CARTESIAN_POINT('',(-5.,30.,0.));
#119 = DIRECTION('',(1.,0.,0.));
#120 = DIRECTION('',(0.,-1.,0.));
#121 = ADVANCED_FACE('',(#122),#140,.T.);
#122 = FACE_BOUND('',#123,.F.);
#123 = EDGE_LOOP('',(#124,#125,#126,#134));
#124 = ORIENTED_EDGE('',*,*,#31,.F.);
#125 = ORIENTED_EDGE('',*,*,#87,.T.);
#126 = ORIENTED_EDGE('',*,*,#127,.T.);
#127 = EDGE_CURVE('',#78,#128,#130,.T.);
#128 = VERTEX_POINT('',#129);
#129 = CARTESIAN_POINT('',(-15.,-30.,0.));
#130 = LINE('',#131,#132);
#131 = CARTESIAN_POINT('',(-10.,-30.,5.));
#132 = VECTOR('',#133,1.);
#133 = DIRECTION('',(-0.707106781187,0.,-0.707106781187));
#134 = ORIENTED_EDGE('',*,*,#135,.F.);
#135 = EDGE_CURVE('',#32,#128,#136,.T.);
#136 = LINE('',#137,#138);
#137 = CARTESIAN_POINT('',(-15.,30.,0.));
#138 = VECTOR('',#139,1.);
#139 = DIRECTION('',(0.,-1.,0.));
#140 = PLANE('',#141);
#141 = AXIS2_PLACEMENT_3D('',#142,#143,#144);
#142 = CARTESIAN_POINT('',(-10.,30.,5.));
#143 = DIRECTION('',(-0.707106781187,0.,0.707106781187));
#144 = DIRECTION('',(-0.,1.,-0.));
#145 = ADVANCED_FACE('',(#146,#254,#304),#354,.T.);
#146 = FACE_BOUND('',#147,.T.);
#147 = EDGE_LOOP('',(#148,#158,#166,#174,#183,#190,#191,#192,#200,#208,
    #216,#224,#232,#240,#248));
#148 = ORIENTED_EDGE('',*,*,#149,.F.);
#149 = EDGE_CURVE('',#150,#152,#154,.T.);
#150 = VERTEX_POINT('',#151);
#151 = CARTESIAN_POINT('',(35.,8.5,20.));
#152 = VERTEX_POINT('',#153);
#153 = CARTESIAN_POINT('',(25.5,8.5,20.));
#154 = LINE('',#155,#156);
#155 = CARTESIAN_POINT('',(35.,8.5,20.));
#156 = VECTOR('',#157,1.);
#157 = DIRECTION('',(-1.,-0.,-0.));
#158 = ORIENTED_EDGE('',*,*,#159,.T.);
#159 = EDGE_CURVE('',#150,#160,#162,.T.);
#160 = VERTEX_POINT('',#161);
#161 = CARTESIAN_POINT('',(35.,30.,20.));
#162 = LINE('',#163,#164);
#163 = CARTESIAN_POINT('',(35.,-30.,20.));
#164 = VECTOR('',#165,1.);
#165 = DIRECTION('',(0.,1.,0.));
#166 = ORIENTED_EDGE('',*,*,#167,.T.);
#167 = EDGE_CURVE('',#160,#168,#170,.T.);
#168 = VERTEX_POINT('',#169);
#169 = CARTESIAN_POINT('',(26.,30.,20.));
#170 = LINE('',#171,#172);
#171 = CARTESIAN_POINT('',(35.,30.,20.));
#172 = VECTOR('',#173,1.);
#173 = DIRECTION('',(-1.,0.,0.));
#174 = ORIENTED_EDGE('',*,*,#175,.F.);
#175 = EDGE_CURVE('',#176,#168,#178,.T.);
#176 = VERTEX_POINT('',#177);
#177 = CARTESIAN_POINT('',(26.5,27.5,20.));
#178 = CIRCLE('',#179,6.5);
#179 = AXIS2_PLACEMENT_3D('',#180,#181,#182);
#180 = CARTESIAN_POINT('',(20.,27.5,20.));
#181 = DIRECTION('',(0.,0.,1.));
#182 = DIRECTION('',(1.,0.,0.));
#183 = ORIENTED_EDGE('',*,*,#184,.F.);
#184 = EDGE_CURVE('',#56,#176,#185,.T.);
#185 = CIRCLE('',#186,6.5);
#186 = AXIS2_PLACEMENT_3D('',#187,#188,#189);
#187 = CARTESIAN_POINT('',(20.,27.5,20.));
#188 = DIRECTION('',(0.,0.,1.));
#189 = DIRECTION('',(1.,0.,0.));
#190 = ORIENTED_EDGE('',*,*,#63,.T.);
#191 = ORIENTED_EDGE('',*,*,#94,.T.);
#192 = ORIENTED_EDGE('',*,*,#193,.F.);
#193 = EDGE_CURVE('',#194,#95,#196,.T.);
#194 = VERTEX_POINT('',#195);
#195 = CARTESIAN_POINT('',(14.5,8.5,20.));
#196 = LINE('',#197,#198);
#197 = CARTESIAN_POINT('',(35.,8.5,20.));
#198 = VECTOR('',#199,1.);
#199 = DIRECTION('',(-1.,-0.,-0.));
#200 = ORIENTED_EDGE('',*,*,#201,.T.);
#201 = EDGE_CURVE('',#194,#202,#204,.T.);
#202 = VERTEX_POINT('',#203);
#203 = CARTESIAN_POINT('',(14.5,11.,20.));
#204 = LINE('',#205,#206);
#205 = CARTESIAN_POINT('',(14.5,-3.729382179653E-16,20.));
#206 = VECTOR('',#207,1.);
#207 = DIRECTION('',(0.,1.,0.));
#208 = ORIENTED_EDGE('',*,*,#209,.F.);
#209 = EDGE_CURVE('',#210,#202,#212,.T.);
#210 = VERTEX_POINT('',#211);
#211 = CARTESIAN_POINT('',(15.5,11.,20.));
#212 = LINE('',#213,#214);
#213 = CARTESIAN_POINT('',(25.5,11.,20.));
#214 = VECTOR('',#215,1.);
#215 = DIRECTION('',(-1.,-0.,-0.));
#216 = ORIENTED_EDGE('',*,*,#217,.T.);
#217 = EDGE_CURVE('',#210,#218,#220,.T.);
#218 = VERTEX_POINT('',#219);
#219 = CARTESIAN_POINT('',(15.5,16.05,20.));
#220 = LINE('',#221,#222);
#221 = CARTESIAN_POINT('',(15.5,-6.815900972159E-16,20.));
#222 = VECTOR('',#223,1.);
#223 = DIRECTION('',(0.,1.,0.));
#224 = ORIENTED_EDGE('',*,*,#225,.F.);
#225 = EDGE_CURVE('',#226,#218,#228,.T.);
#226 = VERTEX_POINT('',#227);
#227 = CARTESIAN_POINT('',(24.5,16.05,20.));
#228 = LINE('',#229,#230);
#229 = CARTESIAN_POINT('',(24.5,16.05,20.));
#230 = VECTOR('',#231,1.);
#231 = DIRECTION('',(-1.,-0.,-0.));
#232 = ORIENTED_EDGE('',*,*,#233,.F.);
#233 = EDGE_CURVE('',#234,#226,#236,.T.);
#234 = VERTEX_POINT('',#235);
#235 = CARTESIAN_POINT('',(24.5,11.,20.));
#236 = LINE('',#237,#238);
#237 = CARTESIAN_POINT('',(24.5,-6.815900972159E-16,20.));
#238 = VECTOR('',#239,1.);
#239 = DIRECTION('',(0.,1.,0.));
#240 = ORIENTED_EDGE('',*,*,#241,.F.);
#241 = EDGE_CURVE('',#242,#234,#244,.T.);
#242 = VERTEX_POINT('',#243);
#243 = CARTESIAN_POINT('',(25.5,11.,20.));
#244 = LINE('',#245,#246);
#245 = CARTESIAN_POINT('',(25.5,11.,20.));
#246 = VECTOR('',#247,1.);
#247 = DIRECTION('',(-1.,-0.,-0.));
#248 = ORIENTED_EDGE('',*,*,#249,.F.);
#249 = EDGE_CURVE('',#152,#242,#250,.T.);
#250 = LINE('',#251,#252);
#251 = CARTESIAN_POINT('',(25.5,-3.729382179653E-16,20.));
#252 = VECTOR('',#253,1.);
#253 = DIRECTION('',(0.,1.,0.));
#254 = FACE_BOUND('',#255,.T.);
#255 = EDGE_LOOP('',(#256,#266,#274,#282,#290,#298));
#256 = ORIENTED_EDGE('',*,*,#257,.T.);
#257 = EDGE_CURVE('',#258,#260,#262,.T.);
#258 = VERTEX_POINT('',#259);
#259 = CARTESIAN_POINT('',(4.6,15.77128129211,20.));
#260 = VERTEX_POINT('',#261);
#261 = CARTESIAN_POINT('',(6.2,13.,20.));
#262 = LINE('',#263,#264);
#263 = CARTESIAN_POINT('',(4.6,15.77128129211,20.));
#264 = VECTOR('',#265,1.);
#265 = DIRECTION('',(0.5,-0.866025403784,0.));
#266 = ORIENTED_EDGE('',*,*,#267,.T.);
#267 = EDGE_CURVE('',#260,#268,#270,.T.);
#268 = VERTEX_POINT('',#269);
#269 = CARTESIAN_POINT('',(4.6,10.22871870789,20.));
#270 = LINE('',#271,#272);
#271 = CARTESIAN_POINT('',(6.2,13.,20.));
#272 = VECTOR('',#273,1.);
#273 = DIRECTION('',(-0.5,-0.866025403784,0.));
#274 = ORIENTED_EDGE('',*,*,#275,.T.);
#275 = EDGE_CURVE('',#268,#276,#278,.T.);
#276 = VERTEX_POINT('',#277);
#277 = CARTESIAN_POINT('',(1.4,10.22871870789,20.));
#278 = LINE('',#279,#280);
#279 = CARTESIAN_POINT('',(4.6,10.22871870789,20.));
#280 = VECTOR('',#281,1.);
#281 = DIRECTION('',(-1.,0.,0.));
#282 = ORIENTED_EDGE('',*,*,#283,.T.);
#283 = EDGE_CURVE('',#276,#284,#286,.T.);
#284 = VERTEX_POINT('',#285);
#285 = CARTESIAN_POINT('',(-0.2,13.,20.));
#286 = LINE('',#287,#288);
#287 = CARTESIAN_POINT('',(1.4,10.22871870789,20.));
#288 = VECTOR('',#289,1.);
#289 = DIRECTION('',(-0.5,0.866025403784,0.));
#290 = ORIENTED_EDGE('',*,*,#291,.T.);
#291 = EDGE_CURVE('',#284,#292,#294,.T.);
#292 = VERTEX_POINT('',#293);
#293 = CARTESIAN_POINT('',(1.4,15.77128129211,20.));
#294 = LINE('',#295,#296);
#295 = CARTESIAN_POINT('',(-0.2,13.,20.));
#296 = VECTOR('',#297,1.);
#297 = DIRECTION('',(0.5,0.866025403784,0.));
#298 = ORIENTED_EDGE('',*,*,#299,.T.);
#299 = EDGE_CURVE('',#292,#258,#300,.T.);
#300 = LINE('',#301,#302);
#301 = CARTESIAN_POINT('',(1.4,15.77128129211,20.));
#302 = VECTOR('',#303,1.);
#303 = DIRECTION('',(1.,0.,0.));
#304 = FACE_BOUND('',#305,.T.);
#305 = EDGE_LOOP('',(#306,#316,#324,#332,#340,#348));
#306 = ORIENTED_EDGE('',*,*,#307,.T.);
#307 = EDGE_CURVE('',#308,#310,#312,.T.);
#308 = VERTEX_POINT('',#309);
#309 = CARTESIAN_POINT('',(31.6,22.77128129211,20.));
#310 = VERTEX_POINT('',#311);
#311 = CARTESIAN_POINT('',(33.2,20.,20.));
#312 = LINE('',#313,#314);
#313 = CARTESIAN_POINT('',(31.6,22.77128129211,20.));
#314 = VECTOR('',#315,1.);
#315 = DIRECTION('',(0.5,-0.866025403784,0.));
#316 = ORIENTED_EDGE('',*,*,#317,.T.);
#317 = EDGE_CURVE('',#310,#318,#320,.T.);
#318 = VERTEX_POINT('',#319);
#319 = CARTESIAN_POINT('',(31.6,17.22871870789,20.));
#320 = LINE('',#321,#322);
#321 = CARTESIAN_POINT('',(33.2,20.,20.));
#322 = VECTOR('',#323,1.);
#323 = DIRECTION('',(-0.5,-0.866025403784,0.));
#324 = ORIENTED_EDGE('',*,*,#325,.T.);
#325 = EDGE_CURVE('',#318,#326,#328,.T.);
#326 = VERTEX_POINT('',#327);
#327 = CARTESIAN_POINT('',(28.4,17.22871870789,20.));
#328 = LINE('',#329,#330);
#329 = CARTESIAN_POINT('',(31.6,17.22871870789,20.));
#330 = VECTOR('',#331,1.);
#331 = DIRECTION('',(-1.,0.,0.));
#332 = ORIENTED_EDGE('',*,*,#333,.T.);
#333 = EDGE_CURVE('',#326,#334,#336,.T.);
#334 = VERTEX_POINT('',#335);
#335 = CARTESIAN_POINT('',(26.8,20.,20.));
#336 = LINE('',#337,#338);
#337 = CARTESIAN_POINT('',(28.4,17.22871870789,20.));
#338 = VECTOR('',#339,1.);
#339 = DIRECTION('',(-0.5,0.866025403784,0.));
#340 = ORIENTED_EDGE('',*,*,#341,.T.);
#341 = EDGE_CURVE('',#334,#342,#344,.T.);
#342 = VERTEX_POINT('',#343);
#343 = CARTESIAN_POINT('',(28.4,22.77128129211,20.));
#344 = LINE('',#345,#346);
#345 = CARTESIAN_POINT('',(26.8,20.,20.));
#346 = VECTOR('',#347,1.);
#347 = DIRECTION('',(0.5,0.866025403784,0.));
#348 = ORIENTED_EDGE('',*,*,#349,.T.);
#349 = EDGE_CURVE('',#342,#308,#350,.T.);
#350 = LINE('',#351,#352);
#351 = CARTESIAN_POINT('',(28.4,22.77128129211,20.));
#352 = VECTOR('',#353,1.);
#353 = DIRECTION('',(1.,0.,0.));
#354 = PLANE('',#355);
#355 = AXIS2_PLACEMENT_3D('',#356,#357,#358);
#356 = CARTESIAN_POINT('',(15.,0.,20.));
#357 = DIRECTION('',(0.,0.,1.));
#358 = DIRECTION('',(1.,0.,0.));
#359 = ADVANCED_FACE('',(#360,#471,#482,#493,#522),#551,.T.);
#360 = FACE_BOUND('',#361,.T.);
#361 = EDGE_LOOP('',(#362,#363,#364,#373,#382,#390,#398,#406,#414,#422,
    #430,#438,#447,#456,#464,#470));
#362 = ORIENTED_EDGE('',*,*,#39,.F.);
#363 = ORIENTED_EDGE('',*,*,#47,.F.);
#364 = ORIENTED_EDGE('',*,*,#365,.T.);
#365 = EDGE_CURVE('',#48,#366,#368,.T.);
#366 = VERTEX_POINT('',#367);
#367 = CARTESIAN_POINT('',(26.5,27.5,0.));
#368 = CIRCLE('',#369,6.5);
#369 = AXIS2_PLACEMENT_3D('',#370,#371,#372);
#370 = CARTESIAN_POINT('',(20.,27.5,0.));
#371 = DIRECTION('',(0.,0.,1.));
#372 = DIRECTION('',(1.,0.,0.));
#373 = ORIENTED_EDGE('',*,*,#374,.T.);
#374 = EDGE_CURVE('',#366,#375,#377,.T.);
#375 = VERTEX_POINT('',#376);
#376 = CARTESIAN_POINT('',(26.,30.,0.));
#377 = CIRCLE('',#378,6.5);
#378 = AXIS2_PLACEMENT_3D('',#379,#380,#381);
#379 = CARTESIAN_POINT('',(20.,27.5,0.));
#380 = DIRECTION('',(0.,0.,1.));
#381 = DIRECTION('',(1.,0.,0.));
#382 = ORIENTED_EDGE('',*,*,#383,.F.);
#383 = EDGE_CURVE('',#384,#375,#386,.T.);
#384 = VERTEX_POINT('',#385);
#385 = CARTESIAN_POINT('',(35.,30.,0.));
#386 = LINE('',#387,#388);
#387 = CARTESIAN_POINT('',(35.,30.,0.));
#388 = VECTOR('',#389,1.);
#389 = DIRECTION('',(-1.,0.,0.));
#390 = ORIENTED_EDGE('',*,*,#391,.T.);
#391 = EDGE_CURVE('',#384,#392,#394,.T.);
#392 = VERTEX_POINT('',#393);
#393 = CARTESIAN_POINT('',(35.,35.,0.));
#394 = LINE('',#395,#396);
#395 = CARTESIAN_POINT('',(35.,-35.,0.));
#396 = VECTOR('',#397,1.);
#397 = DIRECTION('',(0.,1.,0.));
#398 = ORIENTED_EDGE('',*,*,#399,.T.);
#399 = EDGE_CURVE('',#392,#400,#402,.T.);
#400 = VERTEX_POINT('',#401);
#401 = CARTESIAN_POINT('',(-35.,35.,0.));
#402 = LINE('',#403,#404);
#403 = CARTESIAN_POINT('',(35.,35.,0.));
#404 = VECTOR('',#405,1.);
#405 = DIRECTION('',(-1.,0.,0.));
#406 = ORIENTED_EDGE('',*,*,#407,.T.);
#407 = EDGE_CURVE('',#400,#408,#410,.T.);
#408 = VERTEX_POINT('',#409);
#409 = CARTESIAN_POINT('',(-35.,-35.,0.));
#410 = LINE('',#411,#412);
#411 = CARTESIAN_POINT('',(-35.,35.,0.));
#412 = VECTOR('',#413,1.);
#413 = DIRECTION('',(0.,-1.,0.));
#414 = ORIENTED_EDGE('',*,*,#415,.T.);
#415 = EDGE_CURVE('',#408,#416,#418,.T.);
#416 = VERTEX_POINT('',#417);
#417 = CARTESIAN_POINT('',(35.,-35.,0.));
#418 = LINE('',#419,#420);
#419 = CARTESIAN_POINT('',(-35.,-35.,0.));
#420 = VECTOR('',#421,1.);
#421 = DIRECTION('',(1.,0.,0.));
#422 = ORIENTED_EDGE('',*,*,#423,.T.);
#423 = EDGE_CURVE('',#416,#424,#426,.T.);
#424 = VERTEX_POINT('',#425);
#425 = CARTESIAN_POINT('',(35.,-30.,0.));
#426 = LINE('',#427,#428);
#427 = CARTESIAN_POINT('',(35.,-35.,0.));
#428 = VECTOR('',#429,1.);
#429 = DIRECTION('',(0.,1.,0.));
#430 = ORIENTED_EDGE('',*,*,#431,.F.);
#431 = EDGE_CURVE('',#432,#424,#434,.T.);
#432 = VERTEX_POINT('',#433);
#433 = CARTESIAN_POINT('',(26.,-30.,0.));
#434 = LINE('',#435,#436);
#435 = CARTESIAN_POINT('',(-5.,-30.,0.));
#436 = VECTOR('',#437,1.);
#437 = DIRECTION('',(1.,0.,0.));
#438 = ORIENTED_EDGE('',*,*,#439,.T.);
#439 = EDGE_CURVE('',#432,#440,#442,.T.);
#440 = VERTEX_POINT('',#441);
#441 = CARTESIAN_POINT('',(26.5,-27.5,0.));
#442 = CIRCLE('',#443,6.5);
#443 = AXIS2_PLACEMENT_3D('',#444,#445,#446);
#444 = CARTESIAN_POINT('',(20.,-27.5,0.));
#445 = DIRECTION('',(0.,0.,1.));
#446 = DIRECTION('',(1.,0.,0.));
#447 = ORIENTED_EDGE('',*,*,#448,.T.);
#448 = EDGE_CURVE('',#440,#449,#451,.T.);
#449 = VERTEX_POINT('',#450);
#450 = CARTESIAN_POINT('',(14.,-30.,0.));
#451 = CIRCLE('',#452,6.5);
#452 = AXIS2_PLACEMENT_3D('',#453,#454,#455);
#453 = CARTESIAN_POINT('',(20.,-27.5,0.));
#454 = DIRECTION('',(0.,0.,1.));
#455 = DIRECTION('',(1.,0.,0.));
#456 = ORIENTED_EDGE('',*,*,#457,.F.);
#457 = EDGE_CURVE('',#458,#449,#460,.T.);
#458 = VERTEX_POINT('',#459);
#459 = CARTESIAN_POINT('',(-5.,-30.,0.));
#460 = LINE('',#461,#462);
#461 = CARTESIAN_POINT('',(-5.,-30.,0.));
#462 = VECTOR('',#463,1.);
#463 = DIRECTION('',(1.,0.,0.));
#464 = ORIENTED_EDGE('',*,*,#465,.T.);
#465 = EDGE_CURVE('',#458,#128,#466,.T.);
#466 = LINE('',#467,#468);
#467 = CARTESIAN_POINT('',(-3.416644538919,-30.,0.));
#468 = VECTOR('',#469,1.);
#469 = DIRECTION('',(-1.,0.,0.));
#470 = ORIENTED_EDGE('',*,*,#135,.F.);
#471 = FACE_BOUND('',#472,.T.);
#472 = EDGE_LOOP('',(#473));
#473 = ORIENTED_EDGE('',*,*,#474,.T.);
#474 = EDGE_CURVE('',#475,#475,#477,.T.);
#475 = VERTEX_POINT('',#476);
#476 = CARTESIAN_POINT('',(-22.25,-25.,0.));
#477 = CIRCLE('',#478,2.75);
#478 = AXIS2_PLACEMENT_3D('',#479,#480,#481);
#479 = CARTESIAN_POINT('',(-25.,-25.,0.));
#480 = DIRECTION('',(0.,0.,-1.));
#481 = DIRECTION('',(1.,0.,0.));
#482 = FACE_BOUND('',#483,.T.);
#483 = EDGE_LOOP('',(#484));
#484 = ORIENTED_EDGE('',*,*,#485,.T.);
#485 = EDGE_CURVE('',#486,#486,#488,.T.);
#486 = VERTEX_POINT('',#487);
#487 = CARTESIAN_POINT('',(-22.25,25.,0.));
#488 = CIRCLE('',#489,2.75);
#489 = AXIS2_PLACEMENT_3D('',#490,#491,#492);
#490 = CARTESIAN_POINT('',(-25.,25.,0.));
#491 = DIRECTION('',(0.,0.,-1.));
#492 = DIRECTION('',(1.,0.,0.));
#493 = FACE_BOUND('',#494,.T.);
#494 = EDGE_LOOP('',(#495,#506,#515));
#495 = ORIENTED_EDGE('',*,*,#496,.T.);
#496 = EDGE_CURVE('',#497,#499,#501,.T.);
#497 = VERTEX_POINT('',#498);
#498 = CARTESIAN_POINT('',(18.854356076261,30.,0.));
#499 = VERTEX_POINT('',#500);
#500 = CARTESIAN_POINT('',(21.145643923739,30.,0.));
#501 = CIRCLE('',#502,2.75);
#502 = AXIS2_PLACEMENT_3D('',#503,#504,#505);
#503 = CARTESIAN_POINT('',(20.,27.5,0.));
#504 = DIRECTION('',(0.,0.,-1.));
#505 = DIRECTION('',(1.,0.,0.));
#506 = ORIENTED_EDGE('',*,*,#507,.T.);
#507 = EDGE_CURVE('',#499,#508,#510,.T.);
#508 = VERTEX_POINT('',#509);
#509 = CARTESIAN_POINT('',(22.75,27.5,0.));
#510 = CIRCLE('',#511,2.75);
#511 = AXIS2_PLACEMENT_3D('',#512,#513,#514);
#512 = CARTESIAN_POINT('',(20.,27.5,0.));
#513 = DIRECTION('',(0.,0.,-1.));
#514 = DIRECTION('',(1.,0.,0.));
#515 = ORIENTED_EDGE('',*,*,#516,.T.);
#516 = EDGE_CURVE('',#508,#497,#517,.T.);
#517 = CIRCLE('',#518,2.75);
#518 = AXIS2_PLACEMENT_3D('',#519,#520,#521);
#519 = CARTESIAN_POINT('',(20.,27.5,0.));
#520 = DIRECTION('',(0.,0.,-1.));
#521 = DIRECTION('',(1.,0.,0.));
#522 = FACE_BOUND('',#523,.T.);
#523 = EDGE_LOOP('',(#524,#535,#544));
#524 = ORIENTED_EDGE('',*,*,#525,.T.);
#525 = EDGE_CURVE('',#526,#528,#530,.T.);
#526 = VERTEX_POINT('',#527);
#527 = CARTESIAN_POINT('',(21.145643923739,-30.,0.));
#528 = VERTEX_POINT('',#529);
#529 = CARTESIAN_POINT('',(18.854356076261,-30.,0.));
#530 = CIRCLE('',#531,2.75);
#531 = AXIS2_PLACEMENT_3D('',#532,#533,#534);
#532 = CARTESIAN_POINT('',(20.,-27.5,0.));
#533 = DIRECTION('',(0.,0.,-1.));
#534 = DIRECTION('',(1.,0.,0.));
#535 = ORIENTED_EDGE('',*,*,#536,.T.);
#536 = EDGE_CURVE('',#528,#537,#539,.T.);
#537 = VERTEX_POINT('',#538);
#538 = CARTESIAN_POINT('',(22.75,-27.5,0.));
#539 = CIRCLE('',#540,2.75);
#540 = AXIS2_PLACEMENT_3D('',#541,#542,#543);
#541 = CARTESIAN_POINT('',(20.,-27.5,0.));
#542 = DIRECTION('',(0.,0.,-1.));
#543 = DIRECTION('',(1.,0.,0.));
#544 = ORIENTED_EDGE('',*,*,#545,.T.);
#545 = EDGE_CURVE('',#537,#526,#546,.T.);
#546 = CIRCLE('',#547,2.75);
#547 = AXIS2_PLACEMENT_3D('',#548,#549,#550);
#548 = CARTESIAN_POINT('',(20.,-27.5,0.));
#549 = DIRECTION('',(0.,0.,-1.));
#550 = DIRECTION('',(1.,0.,0.));
#551 = PLANE('',#552);
#552 = AXIS2_PLACEMENT_3D('',#553,#554,#555);
#553 = CARTESIAN_POINT('',(-1.833289077838,9.702180465142E-16,0.));
#554 = DIRECTION('',(0.,0.,1.));
#555 = DIRECTION('',(1.,0.,0.));
#556 = ADVANCED_FACE('',(#557),#570,.F.);
#557 = FACE_BOUND('',#558,.F.);
#558 = EDGE_LOOP('',(#559,#560,#561,#562,#568,#569));
#559 = ORIENTED_EDGE('',*,*,#55,.F.);
#560 = ORIENTED_EDGE('',*,*,#365,.T.);
#561 = ORIENTED_EDGE('',*,*,#374,.T.);
#562 = ORIENTED_EDGE('',*,*,#563,.T.);
#563 = EDGE_CURVE('',#375,#168,#564,.T.);
#564 = LINE('',#565,#566);
#565 = CARTESIAN_POINT('',(26.,30.,20.));
#566 = VECTOR('',#567,1.);
#567 = DIRECTION('',(0.,0.,1.));
#568 = ORIENTED_EDGE('',*,*,#175,.F.);
#569 = ORIENTED_EDGE('',*,*,#184,.F.);
#570 = CYLINDRICAL_SURFACE('',#571,6.5);
#571 = AXIS2_PLACEMENT_3D('',#572,#573,#574);
#572 = CARTESIAN_POINT('',(20.,27.5,20.));
#573 = DIRECTION('',(0.,0.,1.));
#574 = DIRECTION('',(1.,0.,0.));
#575 = ADVANCED_FACE('',(#576),#596,.F.);
#576 = FACE_BOUND('',#577,.F.);
#577 = EDGE_LOOP('',(#578,#579,#587,#593,#594,#595));
#578 = ORIENTED_EDGE('',*,*,#77,.T.);
#579 = ORIENTED_EDGE('',*,*,#580,.T.);
#580 = EDGE_CURVE('',#80,#581,#583,.T.);
#581 = VERTEX_POINT('',#582);
#582 = CARTESIAN_POINT('',(14.,-30.,20.));
#583 = LINE('',#584,#585);
#584 = CARTESIAN_POINT('',(-5.,-30.,20.));
#585 = VECTOR('',#586,1.);
#586 = DIRECTION('',(1.,0.,0.));
#587 = ORIENTED_EDGE('',*,*,#588,.F.);
#588 = EDGE_CURVE('',#449,#581,#589,.T.);
#589 = LINE('',#590,#591);
#590 = CARTESIAN_POINT('',(14.,-30.,20.));
#591 = VECTOR('',#592,1.);
#592 = DIRECTION('',(0.,0.,1.));
#593 = ORIENTED_EDGE('',*,*,#457,.F.);
#594 = ORIENTED_EDGE('',*,*,#465,.T.);
#595 = ORIENTED_EDGE('',*,*,#127,.F.);
#596 = PLANE('',#597);
#597 = AXIS2_PLACEMENT_3D('',#598,#599,#600);
#598 = CARTESIAN_POINT('',(-5.,-30.,0.));
#599 = DIRECTION('',(0.,1.,0.));
#600 = DIRECTION('',(1.,0.,0.));
#601 = ADVANCED_FACE('',(#602,#710,#760),#810,.T.);
#602 = FACE_BOUND('',#603,.T.);
#603 = EDGE_LOOP('',(#604,#612,#613,#614,#623,#632,#640,#648,#656,#664,
    #672,#680,#688,#696,#704));
#604 = ORIENTED_EDGE('',*,*,#605,.F.);
#605 = EDGE_CURVE('',#103,#606,#608,.T.);
#606 = VERTEX_POINT('',#607);
#607 = CARTESIAN_POINT('',(14.5,-8.5,20.));
#608 = LINE('',#609,#610);
#609 = CARTESIAN_POINT('',(35.,-8.5,20.));
#610 = VECTOR('',#611,1.);
#611 = DIRECTION('',(1.,0.,0.));
#612 = ORIENTED_EDGE('',*,*,#111,.T.);
#613 = ORIENTED_EDGE('',*,*,#580,.T.);
#614 = ORIENTED_EDGE('',*,*,#615,.F.);
#615 = EDGE_CURVE('',#616,#581,#618,.T.);
#616 = VERTEX_POINT('',#617);
#617 = CARTESIAN_POINT('',(26.5,-27.5,20.));
#618 = CIRCLE('',#619,6.5);
#619 = AXIS2_PLACEMENT_3D('',#620,#621,#622);
#620 = CARTESIAN_POINT('',(20.,-27.5,20.));
#621 = DIRECTION('',(0.,0.,1.));
#622 = DIRECTION('',(1.,0.,0.));
#623 = ORIENTED_EDGE('',*,*,#624,.F.);
#624 = EDGE_CURVE('',#625,#616,#627,.T.);
#625 = VERTEX_POINT('',#626);
#626 = CARTESIAN_POINT('',(26.,-30.,20.));
#627 = CIRCLE('',#628,6.5);
#628 = AXIS2_PLACEMENT_3D('',#629,#630,#631);
#629 = CARTESIAN_POINT('',(20.,-27.5,20.));
#630 = DIRECTION('',(0.,0.,1.));
#631 = DIRECTION('',(1.,0.,0.));
#632 = ORIENTED_EDGE('',*,*,#633,.T.);
#633 = EDGE_CURVE('',#625,#634,#636,.T.);
#634 = VERTEX_POINT('',#635);
#635 = CARTESIAN_POINT('',(35.,-30.,20.));
#636 = LINE('',#637,#638);
#637 = CARTESIAN_POINT('',(-5.,-30.,20.));
#638 = VECTOR('',#639,1.);
#639 = DIRECTION('',(1.,0.,0.));
#640 = ORIENTED_EDGE('',*,*,#641,.T.);
#641 = EDGE_CURVE('',#634,#642,#644,.T.);
#642 = VERTEX_POINT('',#643);
#643 = CARTESIAN_POINT('',(35.,-8.5,20.));
#644 = LINE('',#645,#646);
#645 = CARTESIAN_POINT('',(35.,-30.,20.));
#646 = VECTOR('',#647,1.);
#647 = DIRECTION('',(0.,1.,0.));
#648 = ORIENTED_EDGE('',*,*,#649,.F.);
#649 = EDGE_CURVE('',#650,#642,#652,.T.);
#650 = VERTEX_POINT('',#651);
#651 = CARTESIAN_POINT('',(25.5,-8.5,20.));
#652 = LINE('',#653,#654);
#653 = CARTESIAN_POINT('',(35.,-8.5,20.));
#654 = VECTOR('',#655,1.);
#655 = DIRECTION('',(1.,0.,0.));
#656 = ORIENTED_EDGE('',*,*,#657,.F.);
#657 = EDGE_CURVE('',#658,#650,#660,.T.);
#658 = VERTEX_POINT('',#659);
#659 = CARTESIAN_POINT('',(25.5,-11.,20.));
#660 = LINE('',#661,#662);
#661 = CARTESIAN_POINT('',(25.5,-3.729382179653E-16,20.));
#662 = VECTOR('',#663,1.);
#663 = DIRECTION('',(0.,1.,0.));
#664 = ORIENTED_EDGE('',*,*,#665,.F.);
#665 = EDGE_CURVE('',#666,#658,#668,.T.);
#666 = VERTEX_POINT('',#667);
#667 = CARTESIAN_POINT('',(24.5,-11.,20.));
#668 = LINE('',#669,#670);
#669 = CARTESIAN_POINT('',(25.5,-11.,20.));
#670 = VECTOR('',#671,1.);
#671 = DIRECTION('',(1.,0.,0.));
#672 = ORIENTED_EDGE('',*,*,#673,.F.);
#673 = EDGE_CURVE('',#674,#666,#676,.T.);
#674 = VERTEX_POINT('',#675);
#675 = CARTESIAN_POINT('',(24.5,-16.05,20.));
#676 = LINE('',#677,#678);
#677 = CARTESIAN_POINT('',(24.5,-6.815900972159E-16,20.));
#678 = VECTOR('',#679,1.);
#679 = DIRECTION('',(0.,1.,0.));
#680 = ORIENTED_EDGE('',*,*,#681,.F.);
#681 = EDGE_CURVE('',#682,#674,#684,.T.);
#682 = VERTEX_POINT('',#683);
#683 = CARTESIAN_POINT('',(15.5,-16.05,20.));
#684 = LINE('',#685,#686);
#685 = CARTESIAN_POINT('',(24.5,-16.05,20.));
#686 = VECTOR('',#687,1.);
#687 = DIRECTION('',(1.,0.,0.));
#688 = ORIENTED_EDGE('',*,*,#689,.T.);
#689 = EDGE_CURVE('',#682,#690,#692,.T.);
#690 = VERTEX_POINT('',#691);
#691 = CARTESIAN_POINT('',(15.5,-11.,20.));
#692 = LINE('',#693,#694);
#693 = CARTESIAN_POINT('',(15.5,-6.815900972159E-16,20.));
#694 = VECTOR('',#695,1.);
#695 = DIRECTION('',(0.,1.,0.));
#696 = ORIENTED_EDGE('',*,*,#697,.F.);
#697 = EDGE_CURVE('',#698,#690,#700,.T.);
#698 = VERTEX_POINT('',#699);
#699 = CARTESIAN_POINT('',(14.5,-11.,20.));
#700 = LINE('',#701,#702);
#701 = CARTESIAN_POINT('',(25.5,-11.,20.));
#702 = VECTOR('',#703,1.);
#703 = DIRECTION('',(1.,0.,0.));
#704 = ORIENTED_EDGE('',*,*,#705,.T.);
#705 = EDGE_CURVE('',#698,#606,#706,.T.);
#706 = LINE('',#707,#708);
#707 = CARTESIAN_POINT('',(14.5,-3.729382179653E-16,20.));
#708 = VECTOR('',#709,1.);
#709 = DIRECTION('',(0.,1.,0.));
#710 = FACE_BOUND('',#711,.T.);
#711 = EDGE_LOOP('',(#712,#722,#730,#738,#746,#754));
#712 = ORIENTED_EDGE('',*,*,#713,.F.);
#713 = EDGE_CURVE('',#714,#716,#718,.T.);
#714 = VERTEX_POINT('',#715);
#715 = CARTESIAN_POINT('',(33.2,-20.,20.));
#716 = VERTEX_POINT('',#717);
#717 = CARTESIAN_POINT('',(31.6,-17.22871870789,20.));
#718 = LINE('',#719,#720);
#719 = CARTESIAN_POINT('',(33.2,-20.,20.));
#720 = VECTOR('',#721,1.);
#721 = DIRECTION('',(-0.5,0.866025403784,0.));
#722 = ORIENTED_EDGE('',*,*,#723,.F.);
#723 = EDGE_CURVE('',#724,#714,#726,.T.);
#724 = VERTEX_POINT('',#725);
#725 = CARTESIAN_POINT('',(31.6,-22.77128129211,20.));
#726 = LINE('',#727,#728);
#727 = CARTESIAN_POINT('',(31.6,-22.77128129211,20.));
#728 = VECTOR('',#729,1.);
#729 = DIRECTION('',(0.5,0.866025403784,0.));
#730 = ORIENTED_EDGE('',*,*,#731,.F.);
#731 = EDGE_CURVE('',#732,#724,#734,.T.);
#732 = VERTEX_POINT('',#733);
#733 = CARTESIAN_POINT('',(28.4,-22.77128129211,20.));
#734 = LINE('',#735,#736);
#735 = CARTESIAN_POINT('',(28.4,-22.77128129211,20.));
#736 = VECTOR('',#737,1.);
#737 = DIRECTION('',(1.,0.,0.));
#738 = ORIENTED_EDGE('',*,*,#739,.F.);
#739 = EDGE_CURVE('',#740,#732,#742,.T.);
#740 = VERTEX_POINT('',#741);
#741 = CARTESIAN_POINT('',(26.8,-20.,20.));
#742 = LINE('',#743,#744);
#743 = CARTESIAN_POINT('',(26.8,-20.,20.));
#744 = VECTOR('',#745,1.);
#745 = DIRECTION('',(0.5,-0.866025403784,0.));
#746 = ORIENTED_EDGE('',*,*,#747,.F.);
#747 = EDGE_CURVE('',#748,#740,#750,.T.);
#748 = VERTEX_POINT('',#749);
#749 = CARTESIAN_POINT('',(28.4,-17.22871870789,20.));
#750 = LINE('',#751,#752);
#751 = CARTESIAN_POINT('',(28.4,-17.22871870789,20.));
#752 = VECTOR('',#753,1.);
#753 = DIRECTION('',(-0.5,-0.866025403784,0.));
#754 = ORIENTED_EDGE('',*,*,#755,.F.);
#755 = EDGE_CURVE('',#716,#748,#756,.T.);
#756 = LINE('',#757,#758);
#757 = CARTESIAN_POINT('',(31.6,-17.22871870789,20.));
#758 = VECTOR('',#759,1.);
#759 = DIRECTION('',(-1.,0.,0.));
#760 = FACE_BOUND('',#761,.T.);
#761 = EDGE_LOOP('',(#762,#772,#780,#788,#796,#804));
#762 = ORIENTED_EDGE('',*,*,#763,.F.);
#763 = EDGE_CURVE('',#764,#766,#768,.T.);
#764 = VERTEX_POINT('',#765);
#765 = CARTESIAN_POINT('',(6.2,-13.,20.));
#766 = VERTEX_POINT('',#767);
#767 = CARTESIAN_POINT('',(4.6,-10.22871870789,20.));
#768 = LINE('',#769,#770);
#769 = CARTESIAN_POINT('',(6.2,-13.,20.));
#770 = VECTOR('',#771,1.);
#771 = DIRECTION('',(-0.5,0.866025403784,0.));
#772 = ORIENTED_EDGE('',*,*,#773,.F.);
#773 = EDGE_CURVE('',#774,#764,#776,.T.);
#774 = VERTEX_POINT('',#775);
#775 = CARTESIAN_POINT('',(4.6,-15.77128129211,20.));
#776 = LINE('',#777,#778);
#777 = CARTESIAN_POINT('',(4.6,-15.77128129211,20.));
#778 = VECTOR('',#779,1.);
#779 = DIRECTION('',(0.5,0.866025403784,0.));
#780 = ORIENTED_EDGE('',*,*,#781,.F.);
#781 = EDGE_CURVE('',#782,#774,#784,.T.);
#782 = VERTEX_POINT('',#783);
#783 = CARTESIAN_POINT('',(1.4,-15.77128129211,20.));
#784 = LINE('',#785,#786);
#785 = CARTESIAN_POINT('',(1.4,-15.77128129211,20.));
#786 = VECTOR('',#787,1.);
#787 = DIRECTION('',(1.,0.,0.));
#788 = ORIENTED_EDGE('',*,*,#789,.F.);
#789 = EDGE_CURVE('',#790,#782,#792,.T.);
#790 = VERTEX_POINT('',#791);
#791 = CARTESIAN_POINT('',(-0.2,-13.,20.));
#792 = LINE('',#793,#794);
#793 = CARTESIAN_POINT('',(-0.2,-13.,20.));
#794 = VECTOR('',#795,1.);
#795 = DIRECTION('',(0.5,-0.866025403784,0.));
#796 = ORIENTED_EDGE('',*,*,#797,.F.);
#797 = EDGE_CURVE('',#798,#790,#800,.T.);
#798 = VERTEX_POINT('',#799);
#799 = CARTESIAN_POINT('',(1.4,-10.22871870789,20.));
#800 = LINE('',#801,#802);
#801 = CARTESIAN_POINT('',(1.4,-10.22871870789,20.));
#802 = VECTOR('',#803,1.);
#803 = DIRECTION('',(-0.5,-0.866025403784,0.));
#804 = ORIENTED_EDGE('',*,*,#805,.F.);
#805 = EDGE_CURVE('',#766,#798,#806,.T.);
#806 = LINE('',#807,#808);
#807 = CARTESIAN_POINT('',(4.6,-10.22871870789,20.));
#808 = VECTOR('',#809,1.);
#809 = DIRECTION('',(-1.,0.,0.));
#810 = PLANE('',#811);
#811 = AXIS2_PLACEMENT_3D('',#812,#813,#814);
#812 = CARTESIAN_POINT('',(15.,0.,20.));
#813 = DIRECTION('',(0.,0.,1.));
#814 = DIRECTION('',(1.,0.,0.));
#815 = ADVANCED_FACE('',(#816),#828,.F.);
#816 = FACE_BOUND('',#817,.F.);
#817 = EDGE_LOOP('',(#818,#819,#826,#827));
#818 = ORIENTED_EDGE('',*,*,#193,.F.);
#819 = ORIENTED_EDGE('',*,*,#820,.F.);
#820 = EDGE_CURVE('',#606,#194,#821,.T.);
#821 = CIRCLE('',#822,8.5);
#822 = AXIS2_PLACEMENT_3D('',#823,#824,#825);
#823 = CARTESIAN_POINT('',(14.5,0.,20.));
#824 = DIRECTION('',(1.,0.,0.));
#825 = DIRECTION('',(0.,1.,0.));
#826 = ORIENTED_EDGE('',*,*,#605,.F.);
#827 = ORIENTED_EDGE('',*,*,#102,.T.);
#828 = CYLINDRICAL_SURFACE('',#829,8.5);
#829 = AXIS2_PLACEMENT_3D('',#830,#831,#832);
#830 = CARTESIAN_POINT('',(35.,0.,20.));
#831 = DIRECTION('',(1.,0.,0.));
#832 = DIRECTION('',(0.,1.,0.));
#833 = ADVANCED_FACE('',(#834),#852,.F.);
#834 = FACE_BOUND('',#835,.F.);
#835 = EDGE_LOOP('',(#836,#837,#844,#845));
#836 = ORIENTED_EDGE('',*,*,#149,.F.);
#837 = ORIENTED_EDGE('',*,*,#838,.F.);
#838 = EDGE_CURVE('',#642,#150,#839,.T.);
#839 = CIRCLE('',#840,8.5);
#840 = AXIS2_PLACEMENT_3D('',#841,#842,#843);
#841 = CARTESIAN_POINT('',(35.,0.,20.));
#842 = DIRECTION('',(1.,0.,0.));
#843 = DIRECTION('',(0.,1.,0.));
#844 = ORIENTED_EDGE('',*,*,#649,.F.);
#845 = ORIENTED_EDGE('',*,*,#846,.T.);
#846 = EDGE_CURVE('',#650,#152,#847,.T.);
#847 = CIRCLE('',#848,8.5);
#848 = AXIS2_PLACEMENT_3D('',#849,#850,#851);
#849 = CARTESIAN_POINT('',(25.5,0.,20.));
#850 = DIRECTION('',(1.,0.,0.));
#851 = DIRECTION('',(0.,1.,0.));
#852 = CYLINDRICAL_SURFACE('',#853,8.5);
#853 = AXIS2_PLACEMENT_3D('',#854,#855,#856);
#854 = CARTESIAN_POINT('',(35.,0.,20.));
#855 = DIRECTION('',(1.,0.,0.));
#856 = DIRECTION('',(0.,1.,0.));
#857 = ADVANCED_FACE('',(#858),#870,.F.);
#858 = FACE_BOUND('',#859,.F.);
#859 = EDGE_LOOP('',(#860,#861,#868,#869));
#860 = ORIENTED_EDGE('',*,*,#657,.F.);
#861 = ORIENTED_EDGE('',*,*,#862,.T.);
#862 = EDGE_CURVE('',#658,#242,#863,.T.);
#863 = CIRCLE('',#864,11.);
#864 = AXIS2_PLACEMENT_3D('',#865,#866,#867);
#865 = CARTESIAN_POINT('',(25.5,0.,20.));
#866 = DIRECTION('',(1.,0.,0.));
#867 = DIRECTION('',(0.,1.,0.));
#868 = ORIENTED_EDGE('',*,*,#249,.F.);
#869 = ORIENTED_EDGE('',*,*,#846,.F.);
#870 = PLANE('',#871);
#871 = AXIS2_PLACEMENT_3D('',#872,#873,#874);
#872 = CARTESIAN_POINT('',(25.5,-7.458764359306E-16,20.));
#873 = DIRECTION('',(1.,0.,0.));
#874 = DIRECTION('',(0.,0.,1.));
#875 = ADVANCED_FACE('',(#876),#888,.F.);
#876 = FACE_BOUND('',#877,.F.);
#877 = EDGE_LOOP('',(#878,#879,#880,#881));
#878 = ORIENTED_EDGE('',*,*,#241,.F.);
#879 = ORIENTED_EDGE('',*,*,#862,.F.);
#880 = ORIENTED_EDGE('',*,*,#665,.F.);
#881 = ORIENTED_EDGE('',*,*,#882,.T.);
#882 = EDGE_CURVE('',#666,#234,#883,.T.);
#883 = CIRCLE('',#884,11.);
#884 = AXIS2_PLACEMENT_3D('',#885,#886,#887);
#885 = CARTESIAN_POINT('',(24.5,0.,20.));
#886 = DIRECTION('',(1.,0.,0.));
#887 = DIRECTION('',(0.,1.,0.));
#888 = CYLINDRICAL_SURFACE('',#889,11.);
#889 = AXIS2_PLACEMENT_3D('',#890,#891,#892);
#890 = CARTESIAN_POINT('',(25.5,0.,20.));
#891 = DIRECTION('',(1.,0.,0.));
#892 = DIRECTION('',(0.,1.,0.));
#893 = ADVANCED_FACE('',(#894),#906,.F.);
#894 = FACE_BOUND('',#895,.F.);
#895 = EDGE_LOOP('',(#896,#897,#904,#905));
#896 = ORIENTED_EDGE('',*,*,#673,.F.);
#897 = ORIENTED_EDGE('',*,*,#898,.T.);
#898 = EDGE_CURVE('',#674,#226,#899,.T.);
#899 = CIRCLE('',#900,16.05);
#900 = AXIS2_PLACEMENT_3D('',#901,#902,#903);
#901 = CARTESIAN_POINT('',(24.5,0.,20.));
#902 = DIRECTION('',(1.,0.,0.));
#903 = DIRECTION('',(0.,1.,0.));
#904 = ORIENTED_EDGE('',*,*,#233,.F.);
#905 = ORIENTED_EDGE('',*,*,#882,.F.);
#906 = PLANE('',#907);
#907 = AXIS2_PLACEMENT_3D('',#908,#909,#910);
#908 = CARTESIAN_POINT('',(24.5,-1.363180194432E-15,20.));
#909 = DIRECTION('',(1.,0.,0.));
#910 = DIRECTION('',(0.,0.,1.));
#911 = ADVANCED_FACE('',(#912),#924,.F.);
#912 = FACE_BOUND('',#913,.F.);
#913 = EDGE_LOOP('',(#914,#915,#916,#917));
#914 = ORIENTED_EDGE('',*,*,#225,.F.);
#915 = ORIENTED_EDGE('',*,*,#898,.F.);
#916 = ORIENTED_EDGE('',*,*,#681,.F.);
#917 = ORIENTED_EDGE('',*,*,#918,.T.);
#918 = EDGE_CURVE('',#682,#218,#919,.T.);
#919 = CIRCLE('',#920,16.05);
#920 = AXIS2_PLACEMENT_3D('',#921,#922,#923);
#921 = CARTESIAN_POINT('',(15.5,0.,20.));
#922 = DIRECTION('',(1.,0.,0.));
#923 = DIRECTION('',(0.,1.,0.));
#924 = CYLINDRICAL_SURFACE('',#925,16.05);
#925 = AXIS2_PLACEMENT_3D('',#926,#927,#928);
#926 = CARTESIAN_POINT('',(24.5,0.,20.));
#927 = DIRECTION('',(1.,0.,0.));
#928 = DIRECTION('',(0.,1.,0.));
#929 = ADVANCED_FACE('',(#930),#942,.T.);
#930 = FACE_BOUND('',#931,.T.);
#931 = EDGE_LOOP('',(#932,#933,#934,#935));
#932 = ORIENTED_EDGE('',*,*,#689,.F.);
#933 = ORIENTED_EDGE('',*,*,#918,.T.);
#934 = ORIENTED_EDGE('',*,*,#217,.F.);
#935 = ORIENTED_EDGE('',*,*,#936,.F.);
#936 = EDGE_CURVE('',#690,#210,#937,.T.);
#937 = CIRCLE('',#938,11.);
#938 = AXIS2_PLACEMENT_3D('',#939,#940,#941);
#939 = CARTESIAN_POINT('',(15.5,0.,20.));
#940 = DIRECTION('',(1.,0.,0.));
#941 = DIRECTION('',(0.,1.,0.));
#942 = PLANE('',#943);
#943 = AXIS2_PLACEMENT_3D('',#944,#945,#946);
#944 = CARTESIAN_POINT('',(15.5,-1.363180194432E-15,20.));
#945 = DIRECTION('',(1.,0.,0.));
#946 = DIRECTION('',(0.,0.,1.));
#947 = ADVANCED_FACE('',(#948),#960,.F.);
#948 = FACE_BOUND('',#949,.F.);
#949 = EDGE_LOOP('',(#950,#951,#952,#953));
#950 = ORIENTED_EDGE('',*,*,#209,.F.);
#951 = ORIENTED_EDGE('',*,*,#936,.F.);
#952 = ORIENTED_EDGE('',*,*,#697,.F.);
#953 = ORIENTED_EDGE('',*,*,#954,.T.);
#954 = EDGE_CURVE('',#698,#202,#955,.T.);
#955 = CIRCLE('',#956,11.);
#956 = AXIS2_PLACEMENT_3D('',#957,#958,#959);
#957 = CARTESIAN_POINT('',(14.5,0.,20.));
#958 = DIRECTION('',(1.,0.,0.));
#959 = DIRECTION('',(0.,1.,0.));
#960 = CYLINDRICAL_SURFACE('',#961,11.);
#961 = AXIS2_PLACEMENT_3D('',#962,#963,#964);
#962 = CARTESIAN_POINT('',(25.5,0.,20.));
#963 = DIRECTION('',(1.,0.,0.));
#964 = DIRECTION('',(0.,1.,0.));
#965 = ADVANCED_FACE('',(#966),#972,.T.);
#966 = FACE_BOUND('',#967,.T.);
#967 = EDGE_LOOP('',(#968,#969,#970,#971));
#968 = ORIENTED_EDGE('',*,*,#705,.F.);
#969 = ORIENTED_EDGE('',*,*,#954,.T.);
#970 = ORIENTED_EDGE('',*,*,#201,.F.);
#971 = ORIENTED_EDGE('',*,*,#820,.F.);
#972 = PLANE('',#973);
#973 = AXIS2_PLACEMENT_3D('',#974,#975,#976);
#974 = CARTESIAN_POINT('',(14.5,-7.458764359306E-16,20.));
#975 = DIRECTION('',(1.,0.,0.));
#976 = DIRECTION('',(0.,0.,1.));
#977 = ADVANCED_FACE('',(#978),#989,.F.);
#978 = FACE_BOUND('',#979,.F.);
#979 = EDGE_LOOP('',(#980,#981,#987,#988));
#980 = ORIENTED_EDGE('',*,*,#383,.F.);
#981 = ORIENTED_EDGE('',*,*,#982,.T.);
#982 = EDGE_CURVE('',#384,#160,#983,.T.);
#983 = LINE('',#984,#985);
#984 = CARTESIAN_POINT('',(35.,30.,0.));
#985 = VECTOR('',#986,1.);
#986 = DIRECTION('',(0.,0.,1.));
#987 = ORIENTED_EDGE('',*,*,#167,.T.);
#988 = ORIENTED_EDGE('',*,*,#563,.F.);
#989 = PLANE('',#990);
#990 = AXIS2_PLACEMENT_3D('',#991,#992,#993);
#991 = CARTESIAN_POINT('',(35.,30.,0.));
#992 = DIRECTION('',(0.,-1.,0.));
#993 = DIRECTION('',(-1.,0.,0.));
#994 = ADVANCED_FACE('',(#995),#1031,.T.);
#995 = FACE_BOUND('',#996,.T.);
#996 = EDGE_LOOP('',(#997,#998,#1006,#1014,#1020,#1021,#1022,#1023,#1024
    ,#1025));
#997 = ORIENTED_EDGE('',*,*,#423,.F.);
#998 = ORIENTED_EDGE('',*,*,#999,.T.);
#999 = EDGE_CURVE('',#416,#1000,#1002,.T.);
#1000 = VERTEX_POINT('',#1001);
#1001 = CARTESIAN_POINT('',(35.,-35.,-3.));
#1002 = LINE('',#1003,#1004);
#1003 = CARTESIAN_POINT('',(35.,-35.,0.));
#1004 = VECTOR('',#1005,1.);
#1005 = DIRECTION('',(-0.,-0.,-1.));
#1006 = ORIENTED_EDGE('',*,*,#1007,.T.);
#1007 = EDGE_CURVE('',#1000,#1008,#1010,.T.);
#1008 = VERTEX_POINT('',#1009);
#1009 = CARTESIAN_POINT('',(35.,35.,-3.));
#1010 = LINE('',#1011,#1012);
#1011 = CARTESIAN_POINT('',(35.,-35.,-3.));
#1012 = VECTOR('',#1013,1.);
#1013 = DIRECTION('',(0.,1.,0.));
#1014 = ORIENTED_EDGE('',*,*,#1015,.F.);
#1015 = EDGE_CURVE('',#392,#1008,#1016,.T.);
#1016 = LINE('',#1017,#1018);
#1017 = CARTESIAN_POINT('',(35.,35.,0.));
#1018 = VECTOR('',#1019,1.);
#1019 = DIRECTION('',(-0.,-0.,-1.));
#1020 = ORIENTED_EDGE('',*,*,#391,.F.);
#1021 = ORIENTED_EDGE('',*,*,#982,.T.);
#1022 = ORIENTED_EDGE('',*,*,#159,.F.);
#1023 = ORIENTED_EDGE('',*,*,#838,.F.);
#1024 = ORIENTED_EDGE('',*,*,#641,.F.);
#1025 = ORIENTED_EDGE('',*,*,#1026,.F.);
#1026 = EDGE_CURVE('',#424,#634,#1027,.T.);
#1027 = LINE('',#1028,#1029);
#1028 = CARTESIAN_POINT('',(35.,-30.,0.));
#1029 = VECTOR('',#1030,1.);
#1030 = DIRECTION('',(0.,0.,1.));
#1031 = PLANE('',#1032);
#1032 = AXIS2_PLACEMENT_3D('',#1033,#1034,#1035);
#1033 = CARTESIAN_POINT('',(35.,0.,7.424731182796));
#1034 = DIRECTION('',(1.,0.,0.));
#1035 = DIRECTION('',(0.,0.,1.));
#1036 = ADVANCED_FACE('',(#1037),#1062,.T.);
#1037 = FACE_BOUND('',#1038,.T.);
#1038 = EDGE_LOOP('',(#1039,#1047,#1055,#1061));
#1039 = ORIENTED_EDGE('',*,*,#1040,.T.);
#1040 = EDGE_CURVE('',#258,#1041,#1043,.T.);
#1041 = VERTEX_POINT('',#1042);
#1042 = CARTESIAN_POINT('',(4.6,15.77128129211,17.));
#1043 = LINE('',#1044,#1045);
#1044 = CARTESIAN_POINT('',(4.6,15.77128129211,20.));
#1045 = VECTOR('',#1046,1.);
#1046 = DIRECTION('',(-0.,-0.,-1.));
#1047 = ORIENTED_EDGE('',*,*,#1048,.T.);
#1048 = EDGE_CURVE('',#1041,#1049,#1051,.T.);
#1049 = VERTEX_POINT('',#1050);
#1050 = CARTESIAN_POINT('',(6.2,13.,17.));
#1051 = LINE('',#1052,#1053);
#1052 = CARTESIAN_POINT('',(4.6,15.77128129211,17.));
#1053 = VECTOR('',#1054,1.);
#1054 = DIRECTION('',(0.5,-0.866025403784,0.));
#1055 = ORIENTED_EDGE('',*,*,#1056,.F.);
#1056 = EDGE_CURVE('',#260,#1049,#1057,.T.);
#1057 = LINE('',#1058,#1059);
#1058 = CARTESIAN_POINT('',(6.2,13.,20.));
#1059 = VECTOR('',#1060,1.);
#1060 = DIRECTION('',(-0.,-0.,-1.));
#1061 = ORIENTED_EDGE('',*,*,#257,.F.);
#1062 = PLANE('',#1063);
#1063 = AXIS2_PLACEMENT_3D('',#1064,#1065,#1066);
#1064 = CARTESIAN_POINT('',(4.6,15.77128129211,20.));
#1065 = DIRECTION('',(-0.866025403784,-0.5,0.));
#1066 = DIRECTION('',(0.5,-0.866025403784,0.));
#1067 = ADVANCED_FACE('',(#1068),#1086,.T.);
#1068 = FACE_BOUND('',#1069,.T.);
#1069 = EDGE_LOOP('',(#1070,#1078,#1084,#1085));
#1070 = ORIENTED_EDGE('',*,*,#1071,.T.);
#1071 = EDGE_CURVE('',#292,#1072,#1074,.T.);
#1072 = VERTEX_POINT('',#1073);
#1073 = CARTESIAN_POINT('',(1.4,15.77128129211,17.));
#1074 = LINE('',#1075,#1076);
#1075 = CARTESIAN_POINT('',(1.4,15.77128129211,20.));
#1076 = VECTOR('',#1077,1.);
#1077 = DIRECTION('',(-0.,-0.,-1.));
#1078 = ORIENTED_EDGE('',*,*,#1079,.T.);
#1079 = EDGE_CURVE('',#1072,#1041,#1080,.T.);
#1080 = LINE('',#1081,#1082);
#1081 = CARTESIAN_POINT('',(1.4,15.77128129211,17.));
#1082 = VECTOR('',#1083,1.);
#1083 = DIRECTION('',(1.,0.,0.));
#1084 = ORIENTED_EDGE('',*,*,#1040,.F.);
#1085 = ORIENTED_EDGE('',*,*,#299,.F.);
#1086 = PLANE('',#1087);
#1087 = AXIS2_PLACEMENT_3D('',#1088,#1089,#1090);
#1088 = CARTESIAN_POINT('',(1.4,15.77128129211,20.));
#1089 = DIRECTION('',(0.,-1.,0.));
#1090 = DIRECTION('',(1.,0.,0.));
#1091 = ADVANCED_FACE('',(#1092),#1110,.T.);
#1092 = FACE_BOUND('',#1093,.T.);
#1093 = EDGE_LOOP('',(#1094,#1095,#1103,#1109));
#1094 = ORIENTED_EDGE('',*,*,#1056,.T.);
#1095 = ORIENTED_EDGE('',*,*,#1096,.T.);
#1096 = EDGE_CURVE('',#1049,#1097,#1099,.T.);
#1097 = VERTEX_POINT('',#1098);
#1098 = CARTESIAN_POINT('',(4.6,10.22871870789,17.));
#1099 = LINE('',#1100,#1101);
#1100 = CARTESIAN_POINT('',(6.2,13.,17.));
#1101 = VECTOR('',#1102,1.);
#1102 = DIRECTION('',(-0.5,-0.866025403784,0.));
#1103 = ORIENTED_EDGE('',*,*,#1104,.F.);
#1104 = EDGE_CURVE('',#268,#1097,#1105,.T.);
#1105 = LINE('',#1106,#1107);
#1106 = CARTESIAN_POINT('',(4.6,10.22871870789,20.));
#1107 = VECTOR('',#1108,1.);
#1108 = DIRECTION('',(-0.,-0.,-1.));
#1109 = ORIENTED_EDGE('',*,*,#267,.F.);
#1110 = PLANE('',#1111);
#1111 = AXIS2_PLACEMENT_3D('',#1112,#1113,#1114);
#1112 = CARTESIAN_POINT('',(6.2,13.,20.));
#1113 = DIRECTION('',(-0.866025403784,0.5,0.));
#1114 = DIRECTION('',(-0.5,-0.866025403784,0.));
#1115 = ADVANCED_FACE('',(#1116),#1134,.T.);
#1116 = FACE_BOUND('',#1117,.T.);
#1117 = EDGE_LOOP('',(#1118,#1126,#1132,#1133));
#1118 = ORIENTED_EDGE('',*,*,#1119,.T.);
#1119 = EDGE_CURVE('',#284,#1120,#1122,.T.);
#1120 = VERTEX_POINT('',#1121);
#1121 = CARTESIAN_POINT('',(-0.2,13.,17.));
#1122 = LINE('',#1123,#1124);
#1123 = CARTESIAN_POINT('',(-0.2,13.,20.));
#1124 = VECTOR('',#1125,1.);
#1125 = DIRECTION('',(-0.,-0.,-1.));
#1126 = ORIENTED_EDGE('',*,*,#1127,.T.);
#1127 = EDGE_CURVE('',#1120,#1072,#1128,.T.);
#1128 = LINE('',#1129,#1130);
#1129 = CARTESIAN_POINT('',(-0.2,13.,17.));
#1130 = VECTOR('',#1131,1.);
#1131 = DIRECTION('',(0.5,0.866025403784,0.));
#1132 = ORIENTED_EDGE('',*,*,#1071,.F.);
#1133 = ORIENTED_EDGE('',*,*,#291,.F.);
#1134 = PLANE('',#1135);
#1135 = AXIS2_PLACEMENT_3D('',#1136,#1137,#1138);
#1136 = CARTESIAN_POINT('',(-0.2,13.,20.));
#1137 = DIRECTION('',(0.866025403784,-0.5,0.));
#1138 = DIRECTION('',(0.5,0.866025403784,0.));
#1139 = ADVANCED_FACE('',(#1140),#1158,.T.);
#1140 = FACE_BOUND('',#1141,.T.);
#1141 = EDGE_LOOP('',(#1142,#1143,#1151,#1157));
#1142 = ORIENTED_EDGE('',*,*,#1104,.T.);
#1143 = ORIENTED_EDGE('',*,*,#1144,.T.);
#1144 = EDGE_CURVE('',#1097,#1145,#1147,.T.);
#1145 = VERTEX_POINT('',#1146);
#1146 = CARTESIAN_POINT('',(1.4,10.22871870789,17.));
#1147 = LINE('',#1148,#1149);
#1148 = CARTESIAN_POINT('',(4.6,10.22871870789,17.));
#1149 = VECTOR('',#1150,1.);
#1150 = DIRECTION('',(-1.,0.,0.));
#1151 = ORIENTED_EDGE('',*,*,#1152,.F.);
#1152 = EDGE_CURVE('',#276,#1145,#1153,.T.);
#1153 = LINE('',#1154,#1155);
#1154 = CARTESIAN_POINT('',(1.4,10.22871870789,20.));
#1155 = VECTOR('',#1156,1.);
#1156 = DIRECTION('',(-0.,-0.,-1.));
#1157 = ORIENTED_EDGE('',*,*,#275,.F.);
#1158 = PLANE('',#1159);
#1159 = AXIS2_PLACEMENT_3D('',#1160,#1161,#1162);
#1160 = CARTESIAN_POINT('',(4.6,10.22871870789,20.));
#1161 = DIRECTION('',(0.,1.,0.));
#1162 = DIRECTION('',(-1.,0.,0.));
#1163 = ADVANCED_FACE('',(#1164),#1175,.T.);
#1164 = FACE_BOUND('',#1165,.T.);
#1165 = EDGE_LOOP('',(#1166,#1167,#1173,#1174));
#1166 = ORIENTED_EDGE('',*,*,#1152,.T.);
#1167 = ORIENTED_EDGE('',*,*,#1168,.T.);
#1168 = EDGE_CURVE('',#1145,#1120,#1169,.T.);
#1169 = LINE('',#1170,#1171);
#1170 = CARTESIAN_POINT('',(1.4,10.22871870789,17.));
#1171 = VECTOR('',#1172,1.);
#1172 = DIRECTION('',(-0.5,0.866025403784,0.));
#1173 = ORIENTED_EDGE('',*,*,#1119,.F.);
#1174 = ORIENTED_EDGE('',*,*,#283,.F.);
#1175 = PLANE('',#1176);
#1176 = AXIS2_PLACEMENT_3D('',#1177,#1178,#1179);
#1177 = CARTESIAN_POINT('',(1.4,10.22871870789,20.));
#1178 = DIRECTION('',(0.866025403784,0.5,0.));
#1179 = DIRECTION('',(-0.5,0.866025403784,0.));
#1180 = ADVANCED_FACE('',(#1181),#1206,.T.);
#1181 = FACE_BOUND('',#1182,.T.);
#1182 = EDGE_LOOP('',(#1183,#1191,#1199,#1205));
#1183 = ORIENTED_EDGE('',*,*,#1184,.T.);
#1184 = EDGE_CURVE('',#308,#1185,#1187,.T.);
#1185 = VERTEX_POINT('',#1186);
#1186 = CARTESIAN_POINT('',(31.6,22.77128129211,17.));
#1187 = LINE('',#1188,#1189);
#1188 = CARTESIAN_POINT('',(31.6,22.77128129211,20.));
#1189 = VECTOR('',#1190,1.);
#1190 = DIRECTION('',(-0.,-0.,-1.));
#1191 = ORIENTED_EDGE('',*,*,#1192,.T.);
#1192 = EDGE_CURVE('',#1185,#1193,#1195,.T.);
#1193 = VERTEX_POINT('',#1194);
#1194 = CARTESIAN_POINT('',(33.2,20.,17.));
#1195 = LINE('',#1196,#1197);
#1196 = CARTESIAN_POINT('',(31.6,22.77128129211,17.));
#1197 = VECTOR('',#1198,1.);
#1198 = DIRECTION('',(0.5,-0.866025403784,0.));
#1199 = ORIENTED_EDGE('',*,*,#1200,.F.);
#1200 = EDGE_CURVE('',#310,#1193,#1201,.T.);
#1201 = LINE('',#1202,#1203);
#1202 = CARTESIAN_POINT('',(33.2,20.,20.));
#1203 = VECTOR('',#1204,1.);
#1204 = DIRECTION('',(-0.,-0.,-1.));
#1205 = ORIENTED_EDGE('',*,*,#307,.F.);
#1206 = PLANE('',#1207);
#1207 = AXIS2_PLACEMENT_3D('',#1208,#1209,#1210);
#1208 = CARTESIAN_POINT('',(31.6,22.77128129211,20.));
#1209 = DIRECTION('',(-0.866025403784,-0.5,0.));
#1210 = DIRECTION('',(0.5,-0.866025403784,0.));
#1211 = ADVANCED_FACE('',(#1212),#1230,.T.);
#1212 = FACE_BOUND('',#1213,.T.);
#1213 = EDGE_LOOP('',(#1214,#1222,#1228,#1229));
#1214 = ORIENTED_EDGE('',*,*,#1215,.T.);
#1215 = EDGE_CURVE('',#342,#1216,#1218,.T.);
#1216 = VERTEX_POINT('',#1217);
#1217 = CARTESIAN_POINT('',(28.4,22.77128129211,17.));
#1218 = LINE('',#1219,#1220);
#1219 = CARTESIAN_POINT('',(28.4,22.77128129211,20.));
#1220 = VECTOR('',#1221,1.);
#1221 = DIRECTION('',(-0.,-0.,-1.));
#1222 = ORIENTED_EDGE('',*,*,#1223,.T.);
#1223 = EDGE_CURVE('',#1216,#1185,#1224,.T.);
#1224 = LINE('',#1225,#1226);
#1225 = CARTESIAN_POINT('',(28.4,22.77128129211,17.));
#1226 = VECTOR('',#1227,1.);
#1227 = DIRECTION('',(1.,0.,0.));
#1228 = ORIENTED_EDGE('',*,*,#1184,.F.);
#1229 = ORIENTED_EDGE('',*,*,#349,.F.);
#1230 = PLANE('',#1231);
#1231 = AXIS2_PLACEMENT_3D('',#1232,#1233,#1234);
#1232 = CARTESIAN_POINT('',(28.4,22.77128129211,20.));
#1233 = DIRECTION('',(0.,-1.,0.));
#1234 = DIRECTION('',(1.,0.,0.));
#1235 = ADVANCED_FACE('',(#1236),#1254,.T.);
#1236 = FACE_BOUND('',#1237,.T.);
#1237 = EDGE_LOOP('',(#1238,#1239,#1247,#1253));
#1238 = ORIENTED_EDGE('',*,*,#1200,.T.);
#1239 = ORIENTED_EDGE('',*,*,#1240,.T.);
#1240 = EDGE_CURVE('',#1193,#1241,#1243,.T.);
#1241 = VERTEX_POINT('',#1242);
#1242 = CARTESIAN_POINT('',(31.6,17.22871870789,17.));
#1243 = LINE('',#1244,#1245);
#1244 = CARTESIAN_POINT('',(33.2,20.,17.));
#1245 = VECTOR('',#1246,1.);
#1246 = DIRECTION('',(-0.5,-0.866025403784,0.));
#1247 = ORIENTED_EDGE('',*,*,#1248,.F.);
#1248 = EDGE_CURVE('',#318,#1241,#1249,.T.);
#1249 = LINE('',#1250,#1251);
#1250 = CARTESIAN_POINT('',(31.6,17.22871870789,20.));
#1251 = VECTOR('',#1252,1.);
#1252 = DIRECTION('',(-0.,-0.,-1.));
#1253 = ORIENTED_EDGE('',*,*,#317,.F.);
#1254 = PLANE('',#1255);
#1255 = AXIS2_PLACEMENT_3D('',#1256,#1257,#1258);
#1256 = CARTESIAN_POINT('',(33.2,20.,20.));
#1257 = DIRECTION('',(-0.866025403784,0.5,0.));
#1258 = DIRECTION('',(-0.5,-0.866025403784,0.));
#1259 = ADVANCED_FACE('',(#1260),#1278,.T.);
#1260 = FACE_BOUND('',#1261,.T.);
#1261 = EDGE_LOOP('',(#1262,#1270,#1276,#1277));
#1262 = ORIENTED_EDGE('',*,*,#1263,.T.);
#1263 = EDGE_CURVE('',#334,#1264,#1266,.T.);
#1264 = VERTEX_POINT('',#1265);
#1265 = CARTESIAN_POINT('',(26.8,20.,17.));
#1266 = LINE('',#1267,#1268);
#1267 = CARTESIAN_POINT('',(26.8,20.,20.));
#1268 = VECTOR('',#1269,1.);
#1269 = DIRECTION('',(-0.,-0.,-1.));
#1270 = ORIENTED_EDGE('',*,*,#1271,.T.);
#1271 = EDGE_CURVE('',#1264,#1216,#1272,.T.);
#1272 = LINE('',#1273,#1274);
#1273 = CARTESIAN_POINT('',(26.8,20.,17.));
#1274 = VECTOR('',#1275,1.);
#1275 = DIRECTION('',(0.5,0.866025403784,0.));
#1276 = ORIENTED_EDGE('',*,*,#1215,.F.);
#1277 = ORIENTED_EDGE('',*,*,#341,.F.);
#1278 = PLANE('',#1279);
#1279 = AXIS2_PLACEMENT_3D('',#1280,#1281,#1282);
#1280 = CARTESIAN_POINT('',(26.8,20.,20.));
#1281 = DIRECTION('',(0.866025403784,-0.5,0.));
#1282 = DIRECTION('',(0.5,0.866025403784,0.));
#1283 = ADVANCED_FACE('',(#1284),#1302,.T.);
#1284 = FACE_BOUND('',#1285,.T.);
#1285 = EDGE_LOOP('',(#1286,#1287,#1295,#1301));
#1286 = ORIENTED_EDGE('',*,*,#1248,.T.);
#1287 = ORIENTED_EDGE('',*,*,#1288,.T.);
#1288 = EDGE_CURVE('',#1241,#1289,#1291,.T.);
#1289 = VERTEX_POINT('',#1290);
#1290 = CARTESIAN_POINT('',(28.4,17.22871870789,17.));
#1291 = LINE('',#1292,#1293);
#1292 = CARTESIAN_POINT('',(31.6,17.22871870789,17.));
#1293 = VECTOR('',#1294,1.);
#1294 = DIRECTION('',(-1.,0.,0.));
#1295 = ORIENTED_EDGE('',*,*,#1296,.F.);
#1296 = EDGE_CURVE('',#326,#1289,#1297,.T.);
#1297 = LINE('',#1298,#1299);
#1298 = CARTESIAN_POINT('',(28.4,17.22871870789,20.));
#1299 = VECTOR('',#1300,1.);
#1300 = DIRECTION('',(-0.,-0.,-1.));
#1301 = ORIENTED_EDGE('',*,*,#325,.F.);
#1302 = PLANE('',#1303);
#1303 = AXIS2_PLACEMENT_3D('',#1304,#1305,#1306);
#1304 = CARTESIAN_POINT('',(31.6,17.22871870789,20.));
#1305 = DIRECTION('',(0.,1.,0.));
#1306 = DIRECTION('',(-1.,0.,0.));
#1307 = ADVANCED_FACE('',(#1308),#1319,.T.);
#1308 = FACE_BOUND('',#1309,.T.);
#1309 = EDGE_LOOP('',(#1310,#1311,#1317,#1318));
#1310 = ORIENTED_EDGE('',*,*,#1296,.T.);
#1311 = ORIENTED_EDGE('',*,*,#1312,.T.);
#1312 = EDGE_CURVE('',#1289,#1264,#1313,.T.);
#1313 = LINE('',#1314,#1315);
#1314 = CARTESIAN_POINT('',(28.4,17.22871870789,17.));
#1315 = VECTOR('',#1316,1.);
#1316 = DIRECTION('',(-0.5,0.866025403784,0.));
#1317 = ORIENTED_EDGE('',*,*,#1263,.F.);
#1318 = ORIENTED_EDGE('',*,*,#333,.F.);
#1319 = PLANE('',#1320);
#1320 = AXIS2_PLACEMENT_3D('',#1321,#1322,#1323);
#1321 = CARTESIAN_POINT('',(28.4,17.22871870789,20.));
#1322 = DIRECTION('',(0.866025403784,0.5,0.));
#1323 = DIRECTION('',(-0.5,0.866025403784,0.));
#1324 = ADVANCED_FACE('',(#1325),#1338,.F.);
#1325 = FACE_BOUND('',#1326,.F.);
#1326 = EDGE_LOOP('',(#1327,#1333,#1334,#1335,#1336,#1337));
#1327 = ORIENTED_EDGE('',*,*,#1328,.F.);
#1328 = EDGE_CURVE('',#432,#625,#1329,.T.);
#1329 = LINE('',#1330,#1331);
#1330 = CARTESIAN_POINT('',(26.,-30.,20.));
#1331 = VECTOR('',#1332,1.);
#1332 = DIRECTION('',(0.,0.,1.));
#1333 = ORIENTED_EDGE('',*,*,#439,.T.);
#1334 = ORIENTED_EDGE('',*,*,#448,.T.);
#1335 = ORIENTED_EDGE('',*,*,#588,.T.);
#1336 = ORIENTED_EDGE('',*,*,#615,.F.);
#1337 = ORIENTED_EDGE('',*,*,#624,.F.);
#1338 = CYLINDRICAL_SURFACE('',#1339,6.5);
#1339 = AXIS2_PLACEMENT_3D('',#1340,#1341,#1342);
#1340 = CARTESIAN_POINT('',(20.,-27.5,20.));
#1341 = DIRECTION('',(0.,0.,1.));
#1342 = DIRECTION('',(1.,0.,0.));
#1343 = ADVANCED_FACE('',(#1344),#1362,.T.);
#1344 = FACE_BOUND('',#1345,.T.);
#1345 = EDGE_LOOP('',(#1346,#1347,#1355,#1361));
#1346 = ORIENTED_EDGE('',*,*,#1015,.T.);
#1347 = ORIENTED_EDGE('',*,*,#1348,.T.);
#1348 = EDGE_CURVE('',#1008,#1349,#1351,.T.);
#1349 = VERTEX_POINT('',#1350);
#1350 = CARTESIAN_POINT('',(-35.,35.,-3.));
#1351 = LINE('',#1352,#1353);
#1352 = CARTESIAN_POINT('',(35.,35.,-3.));
#1353 = VECTOR('',#1354,1.);
#1354 = DIRECTION('',(-1.,0.,0.));
#1355 = ORIENTED_EDGE('',*,*,#1356,.F.);
#1356 = EDGE_CURVE('',#400,#1349,#1357,.T.);
#1357 = LINE('',#1358,#1359);
#1358 = CARTESIAN_POINT('',(-35.,35.,0.));
#1359 = VECTOR('',#1360,1.);
#1360 = DIRECTION('',(-0.,-0.,-1.));
#1361 = ORIENTED_EDGE('',*,*,#399,.F.);
#1362 = PLANE('',#1363);
#1363 = AXIS2_PLACEMENT_3D('',#1364,#1365,#1366);
#1364 = CARTESIAN_POINT('',(35.,35.,0.));
#1365 = DIRECTION('',(0.,1.,0.));
#1366 = DIRECTION('',(-1.,0.,0.));
#1367 = ADVANCED_FACE('',(#1368),#1374,.F.);
#1368 = FACE_BOUND('',#1369,.F.);
#1369 = EDGE_LOOP('',(#1370,#1371,#1372,#1373));
#1370 = ORIENTED_EDGE('',*,*,#431,.F.);
#1371 = ORIENTED_EDGE('',*,*,#1328,.T.);
#1372 = ORIENTED_EDGE('',*,*,#633,.T.);
#1373 = ORIENTED_EDGE('',*,*,#1026,.F.);
#1374 = PLANE('',#1375);
#1375 = AXIS2_PLACEMENT_3D('',#1376,#1377,#1378);
#1376 = CARTESIAN_POINT('',(-5.,-30.,0.));
#1377 = DIRECTION('',(0.,1.,0.));
#1378 = DIRECTION('',(1.,0.,0.));
#1379 = ADVANCED_FACE('',(#1380),#1398,.T.);
#1380 = FACE_BOUND('',#1381,.T.);
#1381 = EDGE_LOOP('',(#1382,#1383,#1391,#1397));
#1382 = ORIENTED_EDGE('',*,*,#1356,.T.);
#1383 = ORIENTED_EDGE('',*,*,#1384,.T.);
#1384 = EDGE_CURVE('',#1349,#1385,#1387,.T.);
#1385 = VERTEX_POINT('',#1386);
#1386 = CARTESIAN_POINT('',(-35.,-35.,-3.));
#1387 = LINE('',#1388,#1389);
#1388 = CARTESIAN_POINT('',(-35.,35.,-3.));
#1389 = VECTOR('',#1390,1.);
#1390 = DIRECTION('',(0.,-1.,0.));
#1391 = ORIENTED_EDGE('',*,*,#1392,.F.);
#1392 = EDGE_CURVE('',#408,#1385,#1393,.T.);
#1393 = LINE('',#1394,#1395);
#1394 = CARTESIAN_POINT('',(-35.,-35.,0.));
#1395 = VECTOR('',#1396,1.);
#1396 = DIRECTION('',(-0.,-0.,-1.));
#1397 = ORIENTED_EDGE('',*,*,#407,.F.);
#1398 = PLANE('',#1399);
#1399 = AXIS2_PLACEMENT_3D('',#1400,#1401,#1402);
#1400 = CARTESIAN_POINT('',(-35.,35.,0.));
#1401 = DIRECTION('',(-1.,0.,0.));
#1402 = DIRECTION('',(0.,-1.,0.));
#1403 = ADVANCED_FACE('',(#1404),#1415,.T.);
#1404 = FACE_BOUND('',#1405,.T.);
#1405 = EDGE_LOOP('',(#1406,#1407,#1413,#1414));
#1406 = ORIENTED_EDGE('',*,*,#1392,.T.);
#1407 = ORIENTED_EDGE('',*,*,#1408,.T.);
#1408 = EDGE_CURVE('',#1385,#1000,#1409,.T.);
#1409 = LINE('',#1410,#1411);
#1410 = CARTESIAN_POINT('',(-35.,-35.,-3.));
#1411 = VECTOR('',#1412,1.);
#1412 = DIRECTION('',(1.,0.,0.));
#1413 = ORIENTED_EDGE('',*,*,#999,.F.);
#1414 = ORIENTED_EDGE('',*,*,#415,.F.);
#1415 = PLANE('',#1416);
#1416 = AXIS2_PLACEMENT_3D('',#1417,#1418,#1419);
#1417 = CARTESIAN_POINT('',(-35.,-35.,0.));
#1418 = DIRECTION('',(0.,-1.,0.));
#1419 = DIRECTION('',(1.,0.,0.));
#1420 = ADVANCED_FACE('',(#1421),#1440,.F.);
#1421 = FACE_BOUND('',#1422,.F.);
#1422 = EDGE_LOOP('',(#1423,#1432,#1438,#1439));
#1423 = ORIENTED_EDGE('',*,*,#1424,.F.);
#1424 = EDGE_CURVE('',#1425,#1425,#1427,.T.);
#1425 = VERTEX_POINT('',#1426);
#1426 = CARTESIAN_POINT('',(-22.25,-25.,-3.));
#1427 = CIRCLE('',#1428,2.75);
#1428 = AXIS2_PLACEMENT_3D('',#1429,#1430,#1431);
#1429 = CARTESIAN_POINT('',(-25.,-25.,-3.));
#1430 = DIRECTION('',(0.,0.,-1.));
#1431 = DIRECTION('',(1.,0.,0.));
#1432 = ORIENTED_EDGE('',*,*,#1433,.T.);
#1433 = EDGE_CURVE('',#1425,#475,#1434,.T.);
#1434 = LINE('',#1435,#1436);
#1435 = CARTESIAN_POINT('',(-22.25,-25.,-3.));
#1436 = VECTOR('',#1437,1.);
#1437 = DIRECTION('',(0.,0.,1.));
#1438 = ORIENTED_EDGE('',*,*,#474,.T.);
#1439 = ORIENTED_EDGE('',*,*,#1433,.F.);
#1440 = CYLINDRICAL_SURFACE('',#1441,2.75);
#1441 = AXIS2_PLACEMENT_3D('',#1442,#1443,#1444);
#1442 = CARTESIAN_POINT('',(-25.,-25.,-3.));
#1443 = DIRECTION('',(0.,0.,-1.));
#1444 = DIRECTION('',(1.,0.,0.));
#1445 = ADVANCED_FACE('',(#1446),#1465,.F.);
#1446 = FACE_BOUND('',#1447,.F.);
#1447 = EDGE_LOOP('',(#1448,#1457,#1463,#1464));
#1448 = ORIENTED_EDGE('',*,*,#1449,.F.);
#1449 = EDGE_CURVE('',#1450,#1450,#1452,.T.);
#1450 = VERTEX_POINT('',#1451);
#1451 = CARTESIAN_POINT('',(-22.25,25.,-3.));
#1452 = CIRCLE('',#1453,2.75);
#1453 = AXIS2_PLACEMENT_3D('',#1454,#1455,#1456);
#1454 = CARTESIAN_POINT('',(-25.,25.,-3.));
#1455 = DIRECTION('',(0.,0.,-1.));
#1456 = DIRECTION('',(1.,0.,0.));
#1457 = ORIENTED_EDGE('',*,*,#1458,.T.);
#1458 = EDGE_CURVE('',#1450,#486,#1459,.T.);
#1459 = LINE('',#1460,#1461);
#1460 = CARTESIAN_POINT('',(-22.25,25.,-3.));
#1461 = VECTOR('',#1462,1.);
#1462 = DIRECTION('',(0.,0.,1.));
#1463 = ORIENTED_EDGE('',*,*,#485,.T.);
#1464 = ORIENTED_EDGE('',*,*,#1458,.F.);
#1465 = CYLINDRICAL_SURFACE('',#1466,2.75);
#1466 = AXIS2_PLACEMENT_3D('',#1467,#1468,#1469);
#1467 = CARTESIAN_POINT('',(-25.,25.,-3.));
#1468 = DIRECTION('',(0.,0.,-1.));
#1469 = DIRECTION('',(1.,0.,0.));
#1470 = ADVANCED_FACE('',(#1471),#1492,.F.);
#1471 = FACE_BOUND('',#1472,.F.);
#1472 = EDGE_LOOP('',(#1473,#1481,#1488,#1489,#1490,#1491));
#1473 = ORIENTED_EDGE('',*,*,#1474,.F.);
#1474 = EDGE_CURVE('',#1475,#508,#1477,.T.);
#1475 = VERTEX_POINT('',#1476);
#1476 = CARTESIAN_POINT('',(22.75,27.5,-3.));
#1477 = LINE('',#1478,#1479);
#1478 = CARTESIAN_POINT('',(22.75,27.5,-3.));
#1479 = VECTOR('',#1480,1.);
#1480 = DIRECTION('',(0.,0.,1.));
#1481 = ORIENTED_EDGE('',*,*,#1482,.F.);
#1482 = EDGE_CURVE('',#1475,#1475,#1483,.T.);
#1483 = CIRCLE('',#1484,2.75);
#1484 = AXIS2_PLACEMENT_3D('',#1485,#1486,#1487);
#1485 = CARTESIAN_POINT('',(20.,27.5,-3.));
#1486 = DIRECTION('',(0.,0.,-1.));
#1487 = DIRECTION('',(1.,0.,0.));
#1488 = ORIENTED_EDGE('',*,*,#1474,.T.);
#1489 = ORIENTED_EDGE('',*,*,#516,.T.);
#1490 = ORIENTED_EDGE('',*,*,#496,.T.);
#1491 = ORIENTED_EDGE('',*,*,#507,.T.);
#1492 = CYLINDRICAL_SURFACE('',#1493,2.75);
#1493 = AXIS2_PLACEMENT_3D('',#1494,#1495,#1496);
#1494 = CARTESIAN_POINT('',(20.,27.5,-3.));
#1495 = DIRECTION('',(0.,0.,-1.));
#1496 = DIRECTION('',(1.,0.,0.));
#1497 = ADVANCED_FACE('',(#1498),#1519,.F.);
#1498 = FACE_BOUND('',#1499,.F.);
#1499 = EDGE_LOOP('',(#1500,#1508,#1515,#1516,#1517,#1518));
#1500 = ORIENTED_EDGE('',*,*,#1501,.F.);
#1501 = EDGE_CURVE('',#1502,#537,#1504,.T.);
#1502 = VERTEX_POINT('',#1503);
#1503 = CARTESIAN_POINT('',(22.75,-27.5,-3.));
#1504 = LINE('',#1505,#1506);
#1505 = CARTESIAN_POINT('',(22.75,-27.5,-3.));
#1506 = VECTOR('',#1507,1.);
#1507 = DIRECTION('',(0.,0.,1.));
#1508 = ORIENTED_EDGE('',*,*,#1509,.F.);
#1509 = EDGE_CURVE('',#1502,#1502,#1510,.T.);
#1510 = CIRCLE('',#1511,2.75);
#1511 = AXIS2_PLACEMENT_3D('',#1512,#1513,#1514);
#1512 = CARTESIAN_POINT('',(20.,-27.5,-3.));
#1513 = DIRECTION('',(0.,0.,-1.));
#1514 = DIRECTION('',(1.,0.,0.));
#1515 = ORIENTED_EDGE('',*,*,#1501,.T.);
#1516 = ORIENTED_EDGE('',*,*,#545,.T.);
#1517 = ORIENTED_EDGE('',*,*,#525,.T.);
#1518 = ORIENTED_EDGE('',*,*,#536,.T.);
#1519 = CYLINDRICAL_SURFACE('',#1520,2.75);
#1520 = AXIS2_PLACEMENT_3D('',#1521,#1522,#1523);
#1521 = CARTESIAN_POINT('',(20.,-27.5,-3.));
#1522 = DIRECTION('',(0.,0.,-1.));
#1523 = DIRECTION('',(1.,0.,0.));
#1524 = ADVANCED_FACE('',(#1525),#1550,.F.);
#1525 = FACE_BOUND('',#1526,.F.);
#1526 = EDGE_LOOP('',(#1527,#1535,#1543,#1549));
#1527 = ORIENTED_EDGE('',*,*,#1528,.T.);
#1528 = EDGE_CURVE('',#714,#1529,#1531,.T.);
#1529 = VERTEX_POINT('',#1530);
#1530 = CARTESIAN_POINT('',(33.2,-20.,17.));
#1531 = LINE('',#1532,#1533);
#1532 = CARTESIAN_POINT('',(33.2,-20.,20.));
#1533 = VECTOR('',#1534,1.);
#1534 = DIRECTION('',(-0.,-0.,-1.));
#1535 = ORIENTED_EDGE('',*,*,#1536,.T.);
#1536 = EDGE_CURVE('',#1529,#1537,#1539,.T.);
#1537 = VERTEX_POINT('',#1538);
#1538 = CARTESIAN_POINT('',(31.6,-17.22871870789,17.));
#1539 = LINE('',#1540,#1541);
#1540 = CARTESIAN_POINT('',(33.2,-20.,17.));
#1541 = VECTOR('',#1542,1.);
#1542 = DIRECTION('',(-0.5,0.866025403784,0.));
#1543 = ORIENTED_EDGE('',*,*,#1544,.F.);
#1544 = EDGE_CURVE('',#716,#1537,#1545,.T.);
#1545 = LINE('',#1546,#1547);
#1546 = CARTESIAN_POINT('',(31.6,-17.22871870789,20.));
#1547 = VECTOR('',#1548,1.);
#1548 = DIRECTION('',(-0.,-0.,-1.));
#1549 = ORIENTED_EDGE('',*,*,#713,.F.);
#1550 = PLANE('',#1551);
#1551 = AXIS2_PLACEMENT_3D('',#1552,#1553,#1554);
#1552 = CARTESIAN_POINT('',(33.2,-20.,20.));
#1553 = DIRECTION('',(0.866025403784,0.5,0.));
#1554 = DIRECTION('',(-0.5,0.866025403784,0.));
#1555 = ADVANCED_FACE('',(#1556),#1574,.F.);
#1556 = FACE_BOUND('',#1557,.F.);
#1557 = EDGE_LOOP('',(#1558,#1566,#1572,#1573));
#1558 = ORIENTED_EDGE('',*,*,#1559,.T.);
#1559 = EDGE_CURVE('',#724,#1560,#1562,.T.);
#1560 = VERTEX_POINT('',#1561);
#1561 = CARTESIAN_POINT('',(31.6,-22.77128129211,17.));
#1562 = LINE('',#1563,#1564);
#1563 = CARTESIAN_POINT('',(31.6,-22.77128129211,20.));
#1564 = VECTOR('',#1565,1.);
#1565 = DIRECTION('',(-0.,-0.,-1.));
#1566 = ORIENTED_EDGE('',*,*,#1567,.T.);
#1567 = EDGE_CURVE('',#1560,#1529,#1568,.T.);
#1568 = LINE('',#1569,#1570);
#1569 = CARTESIAN_POINT('',(31.6,-22.77128129211,17.));
#1570 = VECTOR('',#1571,1.);
#1571 = DIRECTION('',(0.5,0.866025403784,0.));
#1572 = ORIENTED_EDGE('',*,*,#1528,.F.);
#1573 = ORIENTED_EDGE('',*,*,#723,.F.);
#1574 = PLANE('',#1575);
#1575 = AXIS2_PLACEMENT_3D('',#1576,#1577,#1578);
#1576 = CARTESIAN_POINT('',(31.6,-22.77128129211,20.));
#1577 = DIRECTION('',(0.866025403784,-0.5,0.));
#1578 = DIRECTION('',(0.5,0.866025403784,0.));
#1579 = ADVANCED_FACE('',(#1580),#1598,.F.);
#1580 = FACE_BOUND('',#1581,.F.);
#1581 = EDGE_LOOP('',(#1582,#1583,#1591,#1597));
#1582 = ORIENTED_EDGE('',*,*,#1544,.T.);
#1583 = ORIENTED_EDGE('',*,*,#1584,.T.);
#1584 = EDGE_CURVE('',#1537,#1585,#1587,.T.);
#1585 = VERTEX_POINT('',#1586);
#1586 = CARTESIAN_POINT('',(28.4,-17.22871870789,17.));
#1587 = LINE('',#1588,#1589);
#1588 = CARTESIAN_POINT('',(31.6,-17.22871870789,17.));
#1589 = VECTOR('',#1590,1.);
#1590 = DIRECTION('',(-1.,0.,0.));
#1591 = ORIENTED_EDGE('',*,*,#1592,.F.);
#1592 = EDGE_CURVE('',#748,#1585,#1593,.T.);
#1593 = LINE('',#1594,#1595);
#1594 = CARTESIAN_POINT('',(28.4,-17.22871870789,20.));
#1595 = VECTOR('',#1596,1.);
#1596 = DIRECTION('',(-0.,-0.,-1.));
#1597 = ORIENTED_EDGE('',*,*,#755,.F.);
#1598 = PLANE('',#1599);
#1599 = AXIS2_PLACEMENT_3D('',#1600,#1601,#1602);
#1600 = CARTESIAN_POINT('',(31.6,-17.22871870789,20.));
#1601 = DIRECTION('',(0.,1.,0.));
#1602 = DIRECTION('',(-1.,0.,0.));
#1603 = ADVANCED_FACE('',(#1604),#1622,.F.);
#1604 = FACE_BOUND('',#1605,.F.);
#1605 = EDGE_LOOP('',(#1606,#1614,#1620,#1621));
#1606 = ORIENTED_EDGE('',*,*,#1607,.T.);
#1607 = EDGE_CURVE('',#732,#1608,#1610,.T.);
#1608 = VERTEX_POINT('',#1609);
#1609 = CARTESIAN_POINT('',(28.4,-22.77128129211,17.));
#1610 = LINE('',#1611,#1612);
#1611 = CARTESIAN_POINT('',(28.4,-22.77128129211,20.));
#1612 = VECTOR('',#1613,1.);
#1613 = DIRECTION('',(-0.,-0.,-1.));
#1614 = ORIENTED_EDGE('',*,*,#1615,.T.);
#1615 = EDGE_CURVE('',#1608,#1560,#1616,.T.);
#1616 = LINE('',#1617,#1618);
#1617 = CARTESIAN_POINT('',(28.4,-22.77128129211,17.));
#1618 = VECTOR('',#1619,1.);
#1619 = DIRECTION('',(1.,0.,0.));
#1620 = ORIENTED_EDGE('',*,*,#1559,.F.);
#1621 = ORIENTED_EDGE('',*,*,#731,.F.);
#1622 = PLANE('',#1623);
#1623 = AXIS2_PLACEMENT_3D('',#1624,#1625,#1626);
#1624 = CARTESIAN_POINT('',(28.4,-22.77128129211,20.));
#1625 = DIRECTION('',(0.,-1.,0.));
#1626 = DIRECTION('',(1.,0.,0.));
#1627 = ADVANCED_FACE('',(#1628),#1646,.F.);
#1628 = FACE_BOUND('',#1629,.F.);
#1629 = EDGE_LOOP('',(#1630,#1631,#1639,#1645));
#1630 = ORIENTED_EDGE('',*,*,#1592,.T.);
#1631 = ORIENTED_EDGE('',*,*,#1632,.T.);
#1632 = EDGE_CURVE('',#1585,#1633,#1635,.T.);
#1633 = VERTEX_POINT('',#1634);
#1634 = CARTESIAN_POINT('',(26.8,-20.,17.));
#1635 = LINE('',#1636,#1637);
#1636 = CARTESIAN_POINT('',(28.4,-17.22871870789,17.));
#1637 = VECTOR('',#1638,1.);
#1638 = DIRECTION('',(-0.5,-0.866025403784,0.));
#1639 = ORIENTED_EDGE('',*,*,#1640,.F.);
#1640 = EDGE_CURVE('',#740,#1633,#1641,.T.);
#1641 = LINE('',#1642,#1643);
#1642 = CARTESIAN_POINT('',(26.8,-20.,20.));
#1643 = VECTOR('',#1644,1.);
#1644 = DIRECTION('',(-0.,-0.,-1.));
#1645 = ORIENTED_EDGE('',*,*,#747,.F.);
#1646 = PLANE('',#1647);
#1647 = AXIS2_PLACEMENT_3D('',#1648,#1649,#1650);
#1648 = CARTESIAN_POINT('',(28.4,-17.22871870789,20.));
#1649 = DIRECTION('',(-0.866025403784,0.5,0.));
#1650 = DIRECTION('',(-0.5,-0.866025403784,0.));
#1651 = ADVANCED_FACE('',(#1652),#1663,.F.);
#1652 = FACE_BOUND('',#1653,.F.);
#1653 = EDGE_LOOP('',(#1654,#1655,#1661,#1662));
#1654 = ORIENTED_EDGE('',*,*,#1640,.T.);
#1655 = ORIENTED_EDGE('',*,*,#1656,.T.);
#1656 = EDGE_CURVE('',#1633,#1608,#1657,.T.);
#1657 = LINE('',#1658,#1659);
#1658 = CARTESIAN_POINT('',(26.8,-20.,17.));
#1659 = VECTOR('',#1660,1.);
#1660 = DIRECTION('',(0.5,-0.866025403784,0.));
#1661 = ORIENTED_EDGE('',*,*,#1607,.F.);
#1662 = ORIENTED_EDGE('',*,*,#739,.F.);
#1663 = PLANE('',#1664);
#1664 = AXIS2_PLACEMENT_3D('',#1665,#1666,#1667);
#1665 = CARTESIAN_POINT('',(26.8,-20.,20.));
#1666 = DIRECTION('',(-0.866025403784,-0.5,0.));
#1667 = DIRECTION('',(0.5,-0.866025403784,0.));
#1668 = ADVANCED_FACE('',(#1669),#1694,.F.);
#1669 = FACE_BOUND('',#1670,.F.);
#1670 = EDGE_LOOP('',(#1671,#1679,#1687,#1693));
#1671 = ORIENTED_EDGE('',*,*,#1672,.T.);
#1672 = EDGE_CURVE('',#764,#1673,#1675,.T.);
#1673 = VERTEX_POINT('',#1674);
#1674 = CARTESIAN_POINT('',(6.2,-13.,17.));
#1675 = LINE('',#1676,#1677);
#1676 = CARTESIAN_POINT('',(6.2,-13.,20.));
#1677 = VECTOR('',#1678,1.);
#1678 = DIRECTION('',(-0.,-0.,-1.));
#1679 = ORIENTED_EDGE('',*,*,#1680,.T.);
#1680 = EDGE_CURVE('',#1673,#1681,#1683,.T.);
#1681 = VERTEX_POINT('',#1682);
#1682 = CARTESIAN_POINT('',(4.6,-10.22871870789,17.));
#1683 = LINE('',#1684,#1685);
#1684 = CARTESIAN_POINT('',(6.2,-13.,17.));
#1685 = VECTOR('',#1686,1.);
#1686 = DIRECTION('',(-0.5,0.866025403784,0.));
#1687 = ORIENTED_EDGE('',*,*,#1688,.F.);
#1688 = EDGE_CURVE('',#766,#1681,#1689,.T.);
#1689 = LINE('',#1690,#1691);
#1690 = CARTESIAN_POINT('',(4.6,-10.22871870789,20.));
#1691 = VECTOR('',#1692,1.);
#1692 = DIRECTION('',(-0.,-0.,-1.));
#1693 = ORIENTED_EDGE('',*,*,#763,.F.);
#1694 = PLANE('',#1695);
#1695 = AXIS2_PLACEMENT_3D('',#1696,#1697,#1698);
#1696 = CARTESIAN_POINT('',(6.2,-13.,20.));
#1697 = DIRECTION('',(0.866025403784,0.5,0.));
#1698 = DIRECTION('',(-0.5,0.866025403784,0.));
#1699 = ADVANCED_FACE('',(#1700),#1718,.F.);
#1700 = FACE_BOUND('',#1701,.F.);
#1701 = EDGE_LOOP('',(#1702,#1710,#1716,#1717));
#1702 = ORIENTED_EDGE('',*,*,#1703,.T.);
#1703 = EDGE_CURVE('',#774,#1704,#1706,.T.);
#1704 = VERTEX_POINT('',#1705);
#1705 = CARTESIAN_POINT('',(4.6,-15.77128129211,17.));
#1706 = LINE('',#1707,#1708);
#1707 = CARTESIAN_POINT('',(4.6,-15.77128129211,20.));
#1708 = VECTOR('',#1709,1.);
#1709 = DIRECTION('',(-0.,-0.,-1.));
#1710 = ORIENTED_EDGE('',*,*,#1711,.T.);
#1711 = EDGE_CURVE('',#1704,#1673,#1712,.T.);
#1712 = LINE('',#1713,#1714);
#1713 = CARTESIAN_POINT('',(4.6,-15.77128129211,17.));
#1714 = VECTOR('',#1715,1.);
#1715 = DIRECTION('',(0.5,0.866025403784,0.));
#1716 = ORIENTED_EDGE('',*,*,#1672,.F.);
#1717 = ORIENTED_EDGE('',*,*,#773,.F.);
#1718 = PLANE('',#1719);
#1719 = AXIS2_PLACEMENT_3D('',#1720,#1721,#1722);
#1720 = CARTESIAN_POINT('',(4.6,-15.77128129211,20.));
#1721 = DIRECTION('',(0.866025403784,-0.5,0.));
#1722 = DIRECTION('',(0.5,0.866025403784,0.));
#1723 = ADVANCED_FACE('',(#1724),#1742,.F.);
#1724 = FACE_BOUND('',#1725,.F.);
#1725 = EDGE_LOOP('',(#1726,#1727,#1735,#1741));
#1726 = ORIENTED_EDGE('',*,*,#1688,.T.);
#1727 = ORIENTED_EDGE('',*,*,#1728,.T.);
#1728 = EDGE_CURVE('',#1681,#1729,#1731,.T.);
#1729 = VERTEX_POINT('',#1730);
#1730 = CARTESIAN_POINT('',(1.4,-10.22871870789,17.));
#1731 = LINE('',#1732,#1733);
#1732 = CARTESIAN_POINT('',(4.6,-10.22871870789,17.));
#1733 = VECTOR('',#1734,1.);
#1734 = DIRECTION('',(-1.,0.,0.));
#1735 = ORIENTED_EDGE('',*,*,#1736,.F.);
#1736 = EDGE_CURVE('',#798,#1729,#1737,.T.);
#1737 = LINE('',#1738,#1739);
#1738 = CARTESIAN_POINT('',(1.4,-10.22871870789,20.));
#1739 = VECTOR('',#1740,1.);
#1740 = DIRECTION('',(-0.,-0.,-1.));
#1741 = ORIENTED_EDGE('',*,*,#805,.F.);
#1742 = PLANE('',#1743);
#1743 = AXIS2_PLACEMENT_3D('',#1744,#1745,#1746);
#1744 = CARTESIAN_POINT('',(4.6,-10.22871870789,20.));
#1745 = DIRECTION('',(0.,1.,0.));
#1746 = DIRECTION('',(-1.,0.,0.));
#1747 = ADVANCED_FACE('',(#1748),#1766,.F.);
#1748 = FACE_BOUND('',#1749,.F.);
#1749 = EDGE_LOOP('',(#1750,#1758,#1764,#1765));
#1750 = ORIENTED_EDGE('',*,*,#1751,.T.);
#1751 = EDGE_CURVE('',#782,#1752,#1754,.T.);
#1752 = VERTEX_POINT('',#1753);
#1753 = CARTESIAN_POINT('',(1.4,-15.77128129211,17.));
#1754 = LINE('',#1755,#1756);
#1755 = CARTESIAN_POINT('',(1.4,-15.77128129211,20.));
#1756 = VECTOR('',#1757,1.);
#1757 = DIRECTION('',(-0.,-0.,-1.));
#1758 = ORIENTED_EDGE('',*,*,#1759,.T.);
#1759 = EDGE_CURVE('',#1752,#1704,#1760,.T.);
#1760 = LINE('',#1761,#1762);
#1761 = CARTESIAN_POINT('',(1.4,-15.77128129211,17.));
#1762 = VECTOR('',#1763,1.);
#1763 = DIRECTION('',(1.,0.,0.));
#1764 = ORIENTED_EDGE('',*,*,#1703,.F.);
#1765 = ORIENTED_EDGE('',*,*,#781,.F.);
#1766 = PLANE('',#1767);
#1767 = AXIS2_PLACEMENT_3D('',#1768,#1769,#1770);
#1768 = CARTESIAN_POINT('',(1.4,-15.77128129211,20.));
#1769 = DIRECTION('',(0.,-1.,0.));
#1770 = DIRECTION('',(1.,0.,0.));
#1771 = ADVANCED_FACE('',(#1772),#1790,.F.);
#1772 = FACE_BOUND('',#1773,.F.);
#1773 = EDGE_LOOP('',(#1774,#1775,#1783,#1789));
#1774 = ORIENTED_EDGE('',*,*,#1736,.T.);
#1775 = ORIENTED_EDGE('',*,*,#1776,.T.);
#1776 = EDGE_CURVE('',#1729,#1777,#1779,.T.);
#1777 = VERTEX_POINT('',#1778);
#1778 = CARTESIAN_POINT('',(-0.2,-13.,17.));
#1779 = LINE('',#1780,#1781);
#1780 = CARTESIAN_POINT('',(1.4,-10.22871870789,17.));
#1781 = VECTOR('',#1782,1.);
#1782 = DIRECTION('',(-0.5,-0.866025403784,0.));
#1783 = ORIENTED_EDGE('',*,*,#1784,.F.);
#1784 = EDGE_CURVE('',#790,#1777,#1785,.T.);
#1785 = LINE('',#1786,#1787);
#1786 = CARTESIAN_POINT('',(-0.2,-13.,20.));
#1787 = VECTOR('',#1788,1.);
#1788 = DIRECTION('',(-0.,-0.,-1.));
#1789 = ORIENTED_EDGE('',*,*,#797,.F.);
#1790 = PLANE('',#1791);
#1791 = AXIS2_PLACEMENT_3D('',#1792,#1793,#1794);
#1792 = CARTESIAN_POINT('',(1.4,-10.22871870789,20.));
#1793 = DIRECTION('',(-0.866025403784,0.5,0.));
#1794 = DIRECTION('',(-0.5,-0.866025403784,0.));
#1795 = ADVANCED_FACE('',(#1796),#1807,.F.);
#1796 = FACE_BOUND('',#1797,.F.);
#1797 = EDGE_LOOP('',(#1798,#1799,#1805,#1806));
#1798 = ORIENTED_EDGE('',*,*,#1784,.T.);
#1799 = ORIENTED_EDGE('',*,*,#1800,.T.);
#1800 = EDGE_CURVE('',#1777,#1752,#1801,.T.);
#1801 = LINE('',#1802,#1803);
#1802 = CARTESIAN_POINT('',(-0.2,-13.,17.));
#1803 = VECTOR('',#1804,1.);
#1804 = DIRECTION('',(0.5,-0.866025403784,0.));
#1805 = ORIENTED_EDGE('',*,*,#1751,.F.);
#1806 = ORIENTED_EDGE('',*,*,#789,.F.);
#1807 = PLANE('',#1808);
#1808 = AXIS2_PLACEMENT_3D('',#1809,#1810,#1811);
#1809 = CARTESIAN_POINT('',(-0.2,-13.,20.));
#1810 = DIRECTION('',(-0.866025403784,-0.5,0.));
#1811 = DIRECTION('',(0.5,-0.866025403784,0.));
#1812 = ADVANCED_FACE('',(#1813,#1819,#1822,#1825,#1828),#1831,.F.);
#1813 = FACE_BOUND('',#1814,.F.);
#1814 = EDGE_LOOP('',(#1815,#1816,#1817,#1818));
#1815 = ORIENTED_EDGE('',*,*,#1384,.T.);
#1816 = ORIENTED_EDGE('',*,*,#1408,.T.);
#1817 = ORIENTED_EDGE('',*,*,#1007,.T.);
#1818 = ORIENTED_EDGE('',*,*,#1348,.T.);
#1819 = FACE_BOUND('',#1820,.F.);
#1820 = EDGE_LOOP('',(#1821));
#1821 = ORIENTED_EDGE('',*,*,#1424,.T.);
#1822 = FACE_BOUND('',#1823,.F.);
#1823 = EDGE_LOOP('',(#1824));
#1824 = ORIENTED_EDGE('',*,*,#1509,.T.);
#1825 = FACE_BOUND('',#1826,.F.);
#1826 = EDGE_LOOP('',(#1827));
#1827 = ORIENTED_EDGE('',*,*,#1449,.T.);
#1828 = FACE_BOUND('',#1829,.F.);
#1829 = EDGE_LOOP('',(#1830));
#1830 = ORIENTED_EDGE('',*,*,#1482,.T.);
#1831 = PLANE('',#1832);
#1832 = AXIS2_PLACEMENT_3D('',#1833,#1834,#1835);
#1833 = CARTESIAN_POINT('',(0.,0.,-3.));
#1834 = DIRECTION('',(0.,0.,1.));
#1835 = DIRECTION('',(1.,0.,0.));
#1836 = ADVANCED_FACE('',(#1837,#1845),#1856,.T.);
#1837 = FACE_BOUND('',#1838,.T.);
#1838 = EDGE_LOOP('',(#1839,#1840,#1841,#1842,#1843,#1844));
#1839 = ORIENTED_EDGE('',*,*,#1096,.F.);
#1840 = ORIENTED_EDGE('',*,*,#1048,.F.);
#1841 = ORIENTED_EDGE('',*,*,#1079,.F.);
#1842 = ORIENTED_EDGE('',*,*,#1127,.F.);
#1843 = ORIENTED_EDGE('',*,*,#1168,.F.);
#1844 = ORIENTED_EDGE('',*,*,#1144,.F.);
#1845 = FACE_BOUND('',#1846,.T.);
#1846 = EDGE_LOOP('',(#1847));
#1847 = ORIENTED_EDGE('',*,*,#1848,.F.);
#1848 = EDGE_CURVE('',#1849,#1849,#1851,.T.);
#1849 = VERTEX_POINT('',#1850);
#1850 = CARTESIAN_POINT('',(4.55,13.,17.));
#1851 = CIRCLE('',#1852,1.55);
#1852 = AXIS2_PLACEMENT_3D('',#1853,#1854,#1855);
#1853 = CARTESIAN_POINT('',(3.,13.,17.));
#1854 = DIRECTION('',(0.,0.,1.));
#1855 = DIRECTION('',(1.,0.,0.));
#1856 = PLANE('',#1857);
#1857 = AXIS2_PLACEMENT_3D('',#1858,#1859,#1860);
#1858 = CARTESIAN_POINT('',(16.5,1.202741610011E-15,17.));
#1859 = DIRECTION('',(0.,0.,1.));
#1860 = DIRECTION('',(1.,0.,0.));
#1861 = ADVANCED_FACE('',(#1862,#1870),#1881,.T.);
#1862 = FACE_BOUND('',#1863,.T.);
#1863 = EDGE_LOOP('',(#1864,#1865,#1866,#1867,#1868,#1869));
#1864 = ORIENTED_EDGE('',*,*,#1240,.F.);
#1865 = ORIENTED_EDGE('',*,*,#1192,.F.);
#1866 = ORIENTED_EDGE('',*,*,#1223,.F.);
#1867 = ORIENTED_EDGE('',*,*,#1271,.F.);
#1868 = ORIENTED_EDGE('',*,*,#1312,.F.);
#1869 = ORIENTED_EDGE('',*,*,#1288,.F.);
#1870 = FACE_BOUND('',#1871,.T.);
#1871 = EDGE_LOOP('',(#1872));
#1872 = ORIENTED_EDGE('',*,*,#1873,.F.);
#1873 = EDGE_CURVE('',#1874,#1874,#1876,.T.);
#1874 = VERTEX_POINT('',#1875);
#1875 = CARTESIAN_POINT('',(31.55,20.,17.));
#1876 = CIRCLE('',#1877,1.55);
#1877 = AXIS2_PLACEMENT_3D('',#1878,#1879,#1880);
#1878 = CARTESIAN_POINT('',(30.,20.,17.));
#1879 = DIRECTION('',(0.,0.,1.));
#1880 = DIRECTION('',(1.,0.,0.));
#1881 = PLANE('',#1882);
#1882 = AXIS2_PLACEMENT_3D('',#1883,#1884,#1885);
#1883 = CARTESIAN_POINT('',(16.5,1.202741610011E-15,17.));
#1884 = DIRECTION('',(0.,0.,1.));
#1885 = DIRECTION('',(1.,0.,0.));
#1886 = ADVANCED_FACE('',(#1887,#1895),#1906,.T.);
#1887 = FACE_BOUND('',#1888,.T.);
#1888 = EDGE_LOOP('',(#1889,#1890,#1891,#1892,#1893,#1894));
#1889 = ORIENTED_EDGE('',*,*,#1536,.T.);
#1890 = ORIENTED_EDGE('',*,*,#1584,.T.);
#1891 = ORIENTED_EDGE('',*,*,#1632,.T.);
#1892 = ORIENTED_EDGE('',*,*,#1656,.T.);
#1893 = ORIENTED_EDGE('',*,*,#1615,.T.);
#1894 = ORIENTED_EDGE('',*,*,#1567,.T.);
#1895 = FACE_BOUND('',#1896,.T.);
#1896 = EDGE_LOOP('',(#1897));
#1897 = ORIENTED_EDGE('',*,*,#1898,.F.);
#1898 = EDGE_CURVE('',#1899,#1899,#1901,.T.);
#1899 = VERTEX_POINT('',#1900);
#1900 = CARTESIAN_POINT('',(31.55,-20.,17.));
#1901 = CIRCLE('',#1902,1.55);
#1902 = AXIS2_PLACEMENT_3D('',#1903,#1904,#1905);
#1903 = CARTESIAN_POINT('',(30.,-20.,17.));
#1904 = DIRECTION('',(0.,0.,1.));
#1905 = DIRECTION('',(1.,0.,0.));
#1906 = PLANE('',#1907);
#1907 = AXIS2_PLACEMENT_3D('',#1908,#1909,#1910);
#1908 = CARTESIAN_POINT('',(16.5,1.202741610011E-15,17.));
#1909 = DIRECTION('',(0.,0.,1.));
#1910 = DIRECTION('',(1.,0.,0.));
#1911 = ADVANCED_FACE('',(#1912,#1920),#1931,.T.);
#1912 = FACE_BOUND('',#1913,.T.);
#1913 = EDGE_LOOP('',(#1914,#1915,#1916,#1917,#1918,#1919));
#1914 = ORIENTED_EDGE('',*,*,#1680,.T.);
#1915 = ORIENTED_EDGE('',*,*,#1728,.T.);
#1916 = ORIENTED_EDGE('',*,*,#1776,.T.);
#1917 = ORIENTED_EDGE('',*,*,#1800,.T.);
#1918 = ORIENTED_EDGE('',*,*,#1759,.T.);
#1919 = ORIENTED_EDGE('',*,*,#1711,.T.);
#1920 = FACE_BOUND('',#1921,.T.);
#1921 = EDGE_LOOP('',(#1922));
#1922 = ORIENTED_EDGE('',*,*,#1923,.F.);
#1923 = EDGE_CURVE('',#1924,#1924,#1926,.T.);
#1924 = VERTEX_POINT('',#1925);
#1925 = CARTESIAN_POINT('',(4.55,-13.,17.));
#1926 = CIRCLE('',#1927,1.55);
#1927 = AXIS2_PLACEMENT_3D('',#1928,#1929,#1930);
#1928 = CARTESIAN_POINT('',(3.,-13.,17.));
#1929 = DIRECTION('',(0.,0.,1.));
#1930 = DIRECTION('',(1.,0.,0.));
#1931 = PLANE('',#1932);
#1932 = AXIS2_PLACEMENT_3D('',#1933,#1934,#1935);
#1933 = CARTESIAN_POINT('',(16.5,1.202741610011E-15,17.));
#1934 = DIRECTION('',(0.,0.,1.));
#1935 = DIRECTION('',(1.,0.,0.));
#1936 = ADVANCED_FACE('',(#1937),#1956,.F.);
#1937 = FACE_BOUND('',#1938,.F.);
#1938 = EDGE_LOOP('',(#1939,#1940,#1948,#1955));
#1939 = ORIENTED_EDGE('',*,*,#1848,.F.);
#1940 = ORIENTED_EDGE('',*,*,#1941,.T.);
#1941 = EDGE_CURVE('',#1849,#1942,#1944,.T.);
#1942 = VERTEX_POINT('',#1943);
#1943 = CARTESIAN_POINT('',(4.55,13.,5.));
#1944 = LINE('',#1945,#1946);
#1945 = CARTESIAN_POINT('',(4.55,13.,20.));
#1946 = VECTOR('',#1947,1.);
#1947 = DIRECTION('',(-0.,-0.,-1.));
#1948 = ORIENTED_EDGE('',*,*,#1949,.T.);
#1949 = EDGE_CURVE('',#1942,#1942,#1950,.T.);
#1950 = CIRCLE('',#1951,1.55);
#1951 = AXIS2_PLACEMENT_3D('',#1952,#1953,#1954);
#1952 = CARTESIAN_POINT('',(3.,13.,5.));
#1953 = DIRECTION('',(0.,0.,1.));
#1954 = DIRECTION('',(1.,0.,0.));
#1955 = ORIENTED_EDGE('',*,*,#1941,.F.);
#1956 = CYLINDRICAL_SURFACE('',#1957,1.55);
#1957 = AXIS2_PLACEMENT_3D('',#1958,#1959,#1960);
#1958 = CARTESIAN_POINT('',(3.,13.,20.));
#1959 = DIRECTION('',(0.,0.,1.));
#1960 = DIRECTION('',(1.,0.,0.));
#1961 = ADVANCED_FACE('',(#1962),#1981,.F.);
#1962 = FACE_BOUND('',#1963,.F.);
#1963 = EDGE_LOOP('',(#1964,#1965,#1973,#1980));
#1964 = ORIENTED_EDGE('',*,*,#1873,.F.);
#1965 = ORIENTED_EDGE('',*,*,#1966,.T.);
#1966 = EDGE_CURVE('',#1874,#1967,#1969,.T.);
#1967 = VERTEX_POINT('',#1968);
#1968 = CARTESIAN_POINT('',(31.55,20.,5.));
#1969 = LINE('',#1970,#1971);
#1970 = CARTESIAN_POINT('',(31.55,20.,20.));
#1971 = VECTOR('',#1972,1.);
#1972 = DIRECTION('',(-0.,-0.,-1.));
#1973 = ORIENTED_EDGE('',*,*,#1974,.T.);
#1974 = EDGE_CURVE('',#1967,#1967,#1975,.T.);
#1975 = CIRCLE('',#1976,1.55);
#1976 = AXIS2_PLACEMENT_3D('',#1977,#1978,#1979);
#1977 = CARTESIAN_POINT('',(30.,20.,5.));
#1978 = DIRECTION('',(0.,0.,1.));
#1979 = DIRECTION('',(1.,0.,0.));
#1980 = ORIENTED_EDGE('',*,*,#1966,.F.);
#1981 = CYLINDRICAL_SURFACE('',#1982,1.55);
#1982 = AXIS2_PLACEMENT_3D('',#1983,#1984,#1985);
#1983 = CARTESIAN_POINT('',(30.,20.,20.));
#1984 = DIRECTION('',(0.,0.,1.));
#1985 = DIRECTION('',(1.,0.,0.));
#1986 = ADVANCED_FACE('',(#1987),#2006,.F.);
#1987 = FACE_BOUND('',#1988,.F.);
#1988 = EDGE_LOOP('',(#1989,#1990,#1998,#2005));
#1989 = ORIENTED_EDGE('',*,*,#1898,.F.);
#1990 = ORIENTED_EDGE('',*,*,#1991,.T.);
#1991 = EDGE_CURVE('',#1899,#1992,#1994,.T.);
#1992 = VERTEX_POINT('',#1993);
#1993 = CARTESIAN_POINT('',(31.55,-20.,5.));
#1994 = LINE('',#1995,#1996);
#1995 = CARTESIAN_POINT('',(31.55,-20.,20.));
#1996 = VECTOR('',#1997,1.);
#1997 = DIRECTION('',(-0.,-0.,-1.));
#1998 = ORIENTED_EDGE('',*,*,#1999,.T.);
#1999 = EDGE_CURVE('',#1992,#1992,#2000,.T.);
#2000 = CIRCLE('',#2001,1.55);
#2001 = AXIS2_PLACEMENT_3D('',#2002,#2003,#2004);
#2002 = CARTESIAN_POINT('',(30.,-20.,5.));
#2003 = DIRECTION('',(0.,0.,1.));
#2004 = DIRECTION('',(1.,0.,0.));
#2005 = ORIENTED_EDGE('',*,*,#1991,.F.);
#2006 = CYLINDRICAL_SURFACE('',#2007,1.55);
#2007 = AXIS2_PLACEMENT_3D('',#2008,#2009,#2010);
#2008 = CARTESIAN_POINT('',(30.,-20.,20.));
#2009 = DIRECTION('',(0.,0.,1.));
#2010 = DIRECTION('',(1.,0.,0.));
#2011 = ADVANCED_FACE('',(#2012),#2031,.F.);
#2012 = FACE_BOUND('',#2013,.F.);
#2013 = EDGE_LOOP('',(#2014,#2015,#2023,#2030));
#2014 = ORIENTED_EDGE('',*,*,#1923,.F.);
#2015 = ORIENTED_EDGE('',*,*,#2016,.T.);
#2016 = EDGE_CURVE('',#1924,#2017,#2019,.T.);
#2017 = VERTEX_POINT('',#2018);
#2018 = CARTESIAN_POINT('',(4.55,-13.,5.));
#2019 = LINE('',#2020,#2021);
#2020 = CARTESIAN_POINT('',(4.55,-13.,20.));
#2021 = VECTOR('',#2022,1.);
#2022 = DIRECTION('',(-0.,-0.,-1.));
#2023 = ORIENTED_EDGE('',*,*,#2024,.T.);
#2024 = EDGE_CURVE('',#2017,#2017,#2025,.T.);
#2025 = CIRCLE('',#2026,1.55);
#2026 = AXIS2_PLACEMENT_3D('',#2027,#2028,#2029);
#2027 = CARTESIAN_POINT('',(3.,-13.,5.));
#2028 = DIRECTION('',(0.,0.,1.));
#2029 = DIRECTION('',(1.,0.,0.));
#2030 = ORIENTED_EDGE('',*,*,#2016,.F.);
#2031 = CYLINDRICAL_SURFACE('',#2032,1.55);
#2032 = AXIS2_PLACEMENT_3D('',#2033,#2034,#2035);
#2033 = CARTESIAN_POINT('',(3.,-13.,20.));
#2034 = DIRECTION('',(0.,0.,1.));
#2035 = DIRECTION('',(1.,0.,0.));
#2036 = ADVANCED_FACE('',(#2037),#2040,.T.);
#2037 = FACE_BOUND('',#2038,.T.);
#2038 = EDGE_LOOP('',(#2039));
#2039 = ORIENTED_EDGE('',*,*,#1949,.T.);
#2040 = PLANE('',#2041);
#2041 = AXIS2_PLACEMENT_3D('',#2042,#2043,#2044);
#2042 = CARTESIAN_POINT('',(16.5,-1.102774300435E-16,5.));
#2043 = DIRECTION('',(0.,0.,1.));
#2044 = DIRECTION('',(1.,0.,0.));
#2045 = ADVANCED_FACE('',(#2046),#2049,.T.);
#2046 = FACE_BOUND('',#2047,.T.);
#2047 = EDGE_LOOP('',(#2048));
#2048 = ORIENTED_EDGE('',*,*,#1974,.T.);
#2049 = PLANE('',#2050);
#2050 = AXIS2_PLACEMENT_3D('',#2051,#2052,#2053);
#2051 = CARTESIAN_POINT('',(16.5,-1.102774300435E-16,5.));
#2052 = DIRECTION('',(0.,0.,1.));
#2053 = DIRECTION('',(1.,0.,0.));
#2054 = ADVANCED_FACE('',(#2055),#2058,.T.);
#2055 = FACE_BOUND('',#2056,.T.);
#2056 = EDGE_LOOP('',(#2057));
#2057 = ORIENTED_EDGE('',*,*,#1999,.T.);
#2058 = PLANE('',#2059);
#2059 = AXIS2_PLACEMENT_3D('',#2060,#2061,#2062);
#2060 = CARTESIAN_POINT('',(16.5,-1.102774300435E-16,5.));
#2061 = DIRECTION('',(0.,0.,1.));
#2062 = DIRECTION('',(1.,0.,0.));
#2063 = ADVANCED_FACE('',(#2064),#2067,.T.);
#2064 = FACE_BOUND('',#2065,.T.);
#2065 = EDGE_LOOP('',(#2066));
#2066 = ORIENTED_EDGE('',*,*,#2024,.T.);
#2067 = PLANE('',#2068);
#2068 = AXIS2_PLACEMENT_3D('',#2069,#2070,#2071);
#2069 = CARTESIAN_POINT('',(16.5,-1.102774300435E-16,5.));
#2070 = DIRECTION('',(0.,0.,1.));
#2071 = DIRECTION('',(1.,0.,0.));
#2072 = ( GEOMETRIC_REPRESENTATION_CONTEXT(3) 
GLOBAL_UNCERTAINTY_ASSIGNED_CONTEXT((#2076)) 
GLOBAL_UNIT_ASSIGNED_CONTEXT((#2073,#2074,#2075)) REPRESENTATION_CONTEXT
('Context #1','3D Context with UNIT and UNCERTAINTY') );
#2073 = ( LENGTH_UNIT() NAMED_UNIT(*) SI_UNIT(.MILLI.,.METRE.) );
#2074 = ( NAMED_UNIT(*) PLANE_ANGLE_UNIT() SI_UNIT($,.RADIAN.) );
#2075 = ( NAMED_UNIT(*) SI_UNIT($,.STERADIAN.) SOLID_ANGLE_UNIT() );
#2076 = UNCERTAINTY_MEASURE_WITH_UNIT(LENGTH_MEASURE(5.E-06),#2073,
  'distance_accuracy_value','confusion accuracy');
#2077 = PRODUCT_RELATED_PRODUCT_CATEGORY('detail',$,(#7));
#2078 = PRODUCT_CATEGORY_RELATIONSHIP('','',#2079,#2077);
#2079 = PRODUCT_CATEGORY('part',$);
#2080 = CC_DESIGN_PERSON_AND_ORGANIZATION_ASSIGNMENT(#2081,#2084,(#6,#5)
  );
#2081 = PERSON_AND_ORGANIZATION(#2082,#2083);
#2082 = PERSON('IP169.254.190,karol','','karol',$,$,$);
#2083 = ORGANIZATION('IP169.254.190','Unspecified','');
#2084 = PERSON_AND_ORGANIZATION_ROLE('creator');
#2085 = CC_DESIGN_PERSON_AND_ORGANIZATION_ASSIGNMENT(#2081,#2086,(#7));
#2086 = PERSON_AND_ORGANIZATION_ROLE('design_owner');
#2087 = CC_DESIGN_PERSON_AND_ORGANIZATION_ASSIGNMENT(#2081,#2088,(#6));
#2088 = PERSON_AND_ORGANIZATION_ROLE('design_supplier');
#2089 = CC_DESIGN_PERSON_AND_ORGANIZATION_ASSIGNMENT(#2081,#2090,(#2091)
  );
#2090 = PERSON_AND_ORGANIZATION_ROLE('classification_officer');
#2091 = SECURITY_CLASSIFICATION('','',#2092);
#2092 = SECURITY_CLASSIFICATION_LEVEL('unclassified');
#2093 = CC_DESIGN_SECURITY_CLASSIFICATION(#2091,(#6));
#2094 = CC_DESIGN_DATE_AND_TIME_ASSIGNMENT(#2095,#2099,(#5));
#2095 = DATE_AND_TIME(#2096,#2097);
#2096 = CALENDAR_DATE(2026,23,5);
#2097 = LOCAL_TIME(14,32,$,#2098);
#2098 = COORDINATED_UNIVERSAL_TIME_OFFSET(1,$,.AHEAD.);
#2099 = DATE_TIME_ROLE('creation_date');
#2100 = CC_DESIGN_DATE_AND_TIME_ASSIGNMENT(#2095,#2101,(#2091));
#2101 = DATE_TIME_ROLE('classification_date');
#2102 = CC_DESIGN_APPROVAL(#2103,(#6,#5,#2091));
#2103 = APPROVAL(#2104,'');
#2104 = APPROVAL_STATUS('not_yet_approved');
#2105 = APPROVAL_PERSON_ORGANIZATION(#2081,#2103,#2106);
#2106 = APPROVAL_ROLE('approver');
#2107 = APPROVAL_DATE_TIME(#2095,#2103);
#2108 = MECHANICAL_DESIGN_GEOMETRIC_PRESENTATION_REPRESENTATION('',(
    #2109),#2072);
#2109 = STYLED_ITEM('color',(#2110),#15);
#2110 = PRESENTATION_STYLE_ASSIGNMENT((#2111,#2117));
#2111 = SURFACE_STYLE_USAGE(.BOTH.,#2112);
#2112 = SURFACE_SIDE_STYLE('',(#2113));
#2113 = SURFACE_STYLE_FILL_AREA(#2114);
#2114 = FILL_AREA_STYLE('',(#2115));
#2115 = FILL_AREA_STYLE_COLOUR('',#2116);
#2116 = COLOUR_RGB('',0.447058818107,0.474509808674,0.501960817233);
#2117 = CURVE_STYLE('',#2118,POSITIVE_LENGTH_MEASURE(0.1),#2119);
#2118 = DRAUGHTING_PRE_DEFINED_CURVE_FONT('continuous');
#2119 = COLOUR_RGB('',9.803921802644E-02,9.803921802644E-02,
  9.803921802644E-02);
ENDSEC;
END-ISO-10303-21;
