ISO-10303-21;
HEADER;
FILE_DESCRIPTION(('FreeCAD Model'),'2;1');
FILE_NAME('Open CASCADE Shape Model','2026-05-23T15:21:33',(''),(''),
  'Open CASCADE STEP processor 7.8','FreeCAD','Unknown');
FILE_SCHEMA(('CONFIG_CONTROL_DESIGN','SHAPE_APPEARANCE_LAYER_MIM'));
ENDSEC;
DATA;
#1 = APPLICATION_PROTOCOL_DEFINITION('international standard',
  'config_control_design',1994,#2);
#2 = APPLICATION_CONTEXT(
'configuration controlled 3D designs of mechanical parts and assemblies'
  );
#3 = SHAPE_DEFINITION_REPRESENTATION(#4,#10);
#4 = PRODUCT_DEFINITION_SHAPE('','',#5);
#5 = PRODUCT_DEFINITION('design','',#6,#9);
#6 = PRODUCT_DEFINITION_FORMATION_WITH_SPECIFIED_SOURCE('','',#7,
  .NOT_KNOWN.);
#7 = PRODUCT('Zawartość','Zawartość','',(#8));
#8 = MECHANICAL_CONTEXT('',#2,'mechanical');
#9 = DESIGN_CONTEXT('',#2,'design');
#10 = ADVANCED_BREP_SHAPE_REPRESENTATION('',(#11,#15),#1959);
#11 = AXIS2_PLACEMENT_3D('',#12,#13,#14);
#12 = CARTESIAN_POINT('',(0.,0.,0.));
#13 = DIRECTION('',(0.,0.,1.));
#14 = DIRECTION('',(1.,0.,-0.));
#15 = MANIFOLD_SOLID_BREP('',#16);
#16 = CLOSED_SHELL('',(#17,#200,#233,#258,#326,#351,#443,#492,#517,#576,
    #601,#626,#651,#676,#701,#726,#743,#768,#801,#866,#882,#993,#1026,
    #1066,#1097,#1264,#1288,#1451,#1475,#1501,#1550,#1635,#1661,#1690,
    #1709,#1726,#1745,#1762,#1779,#1791,#1824,#1841,#1851,#1882,#1904,
    #1916,#1933,#1947));
#17 = ADVANCED_FACE('',(#18,#173,#184),#195,.F.);
#18 = FACE_BOUND('',#19,.F.);
#19 = EDGE_LOOP('',(#20,#30,#39,#47,#56,#64,#72,#80,#88,#96,#104,#112,
    #120,#128,#136));
#20 = ORIENTED_EDGE('',*,*,#21,.T.);
#21 = EDGE_CURVE('',#22,#24,#26,.T.);
#22 = VERTEX_POINT('',#23);
#23 = CARTESIAN_POINT('',(35.,25.,0.));
#24 = VERTEX_POINT('',#25);
#25 = CARTESIAN_POINT('',(3.,25.,0.));
#26 = LINE('',#27,#28);
#27 = CARTESIAN_POINT('',(40.,25.,0.));
#28 = VECTOR('',#29,1.);
#29 = DIRECTION('',(-1.,0.,0.));
#30 = ORIENTED_EDGE('',*,*,#31,.T.);
#31 = EDGE_CURVE('',#24,#32,#34,.T.);
#32 = VERTEX_POINT('',#33);
#33 = CARTESIAN_POINT('',(-4.440892098501E-16,22.,0.));
#34 = CIRCLE('',#35,3.);
#35 = AXIS2_PLACEMENT_3D('',#36,#37,#38);
#36 = CARTESIAN_POINT('',(3.,22.,0.));
#37 = DIRECTION('',(-0.,0.,1.));
#38 = DIRECTION('',(0.,-1.,0.));
#39 = ORIENTED_EDGE('',*,*,#40,.T.);
#40 = EDGE_CURVE('',#32,#41,#43,.T.);
#41 = VERTEX_POINT('',#42);
#42 = CARTESIAN_POINT('',(0.,11.5,0.));
#43 = LINE('',#44,#45);
#44 = CARTESIAN_POINT('',(0.,25.,0.));
#45 = VECTOR('',#46,1.);
#46 = DIRECTION('',(0.,-1.,0.));
#47 = ORIENTED_EDGE('',*,*,#48,.T.);
#48 = EDGE_CURVE('',#41,#49,#51,.T.);
#49 = VERTEX_POINT('',#50);
#50 = CARTESIAN_POINT('',(3.,8.5,0.));
#51 = CIRCLE('',#52,3.);
#52 = AXIS2_PLACEMENT_3D('',#53,#54,#55);
#53 = CARTESIAN_POINT('',(3.,11.5,0.));
#54 = DIRECTION('',(-0.,0.,1.));
#55 = DIRECTION('',(0.,-1.,0.));
#56 = ORIENTED_EDGE('',*,*,#57,.F.);
#57 = EDGE_CURVE('',#58,#49,#60,.T.);
#58 = VERTEX_POINT('',#59);
#59 = CARTESIAN_POINT('',(19.5,8.5,0.));
#60 = LINE('',#61,#62);
#61 = CARTESIAN_POINT('',(40.,8.5,0.));
#62 = VECTOR('',#63,1.);
#63 = DIRECTION('',(-1.,-0.,-0.));
#64 = ORIENTED_EDGE('',*,*,#65,.T.);
#65 = EDGE_CURVE('',#58,#66,#68,.T.);
#66 = VERTEX_POINT('',#67);
#67 = CARTESIAN_POINT('',(19.5,11.,0.));
#68 = LINE('',#69,#70);
#69 = CARTESIAN_POINT('',(19.5,-3.729382179653E-16,0.));
#70 = VECTOR('',#71,1.);
#71 = DIRECTION('',(0.,1.,0.));
#72 = ORIENTED_EDGE('',*,*,#73,.F.);
#73 = EDGE_CURVE('',#74,#66,#76,.T.);
#74 = VERTEX_POINT('',#75);
#75 = CARTESIAN_POINT('',(20.5,11.,0.));
#76 = LINE('',#77,#78);
#77 = CARTESIAN_POINT('',(30.5,11.,0.));
#78 = VECTOR('',#79,1.);
#79 = DIRECTION('',(-1.,-0.,-0.));
#80 = ORIENTED_EDGE('',*,*,#81,.T.);
#81 = EDGE_CURVE('',#74,#82,#84,.T.);
#82 = VERTEX_POINT('',#83);
#83 = CARTESIAN_POINT('',(20.5,16.05,0.));
#84 = LINE('',#85,#86);
#85 = CARTESIAN_POINT('',(20.5,-5.111925729119E-16,0.));
#86 = VECTOR('',#87,1.);
#87 = DIRECTION('',(0.,1.,0.));
#88 = ORIENTED_EDGE('',*,*,#89,.F.);
#89 = EDGE_CURVE('',#90,#82,#92,.T.);
#90 = VERTEX_POINT('',#91);
#91 = CARTESIAN_POINT('',(29.5,16.05,0.));
#92 = LINE('',#93,#94);
#93 = CARTESIAN_POINT('',(29.5,16.05,0.));
#94 = VECTOR('',#95,1.);
#95 = DIRECTION('',(-1.,-0.,-0.));
#96 = ORIENTED_EDGE('',*,*,#97,.F.);
#97 = EDGE_CURVE('',#98,#90,#100,.T.);
#98 = VERTEX_POINT('',#99);
#99 = CARTESIAN_POINT('',(29.5,11.,0.));
#100 = LINE('',#101,#102);
#101 = CARTESIAN_POINT('',(29.5,-5.111925729119E-16,0.));
#102 = VECTOR('',#103,1.);
#103 = DIRECTION('',(0.,1.,0.));
#104 = ORIENTED_EDGE('',*,*,#105,.F.);
#105 = EDGE_CURVE('',#106,#98,#108,.T.);
#106 = VERTEX_POINT('',#107);
#107 = CARTESIAN_POINT('',(30.5,11.,0.));
#108 = LINE('',#109,#110);
#109 = CARTESIAN_POINT('',(30.5,11.,0.));
#110 = VECTOR('',#111,1.);
#111 = DIRECTION('',(-1.,-0.,-0.));
#112 = ORIENTED_EDGE('',*,*,#113,.F.);
#113 = EDGE_CURVE('',#114,#106,#116,.T.);
#114 = VERTEX_POINT('',#115);
#115 = CARTESIAN_POINT('',(30.5,8.5,0.));
#116 = LINE('',#117,#118);
#117 = CARTESIAN_POINT('',(30.5,-3.729382179653E-16,0.));
#118 = VECTOR('',#119,1.);
#119 = DIRECTION('',(0.,1.,0.));
#120 = ORIENTED_EDGE('',*,*,#121,.F.);
#121 = EDGE_CURVE('',#122,#114,#124,.T.);
#122 = VERTEX_POINT('',#123);
#123 = CARTESIAN_POINT('',(40.,8.5,0.));
#124 = LINE('',#125,#126);
#125 = CARTESIAN_POINT('',(40.,8.5,0.));
#126 = VECTOR('',#127,1.);
#127 = DIRECTION('',(-1.,-0.,-0.));
#128 = ORIENTED_EDGE('',*,*,#129,.T.);
#129 = EDGE_CURVE('',#122,#130,#132,.T.);
#130 = VERTEX_POINT('',#131);
#131 = CARTESIAN_POINT('',(40.,20.,0.));
#132 = LINE('',#133,#134);
#133 = CARTESIAN_POINT('',(40.,-25.,0.));
#134 = VECTOR('',#135,1.);
#135 = DIRECTION('',(0.,1.,0.));
#136 = ORIENTED_EDGE('',*,*,#137,.F.);
#137 = EDGE_CURVE('',#22,#130,#138,.T.);
#138 = B_SPLINE_CURVE_WITH_KNOTS('',5,(#139,#140,#141,#142,#143,#144,
    #145,#146,#147,#148,#149,#150,#151,#152,#153,#154,#155,#156,#157,
    #158,#159,#160,#161,#162,#163,#164,#165,#166,#167,#168,#169,#170,
    #171,#172),.UNSPECIFIED.,.F.,.F.,(6,4,4,4,4,4,4,4,6),(0.,
    0.141885489307,0.244295455638,0.31877866094,0.5,0.68122133906,
    0.755704544362,0.858114510693,1.),.UNSPECIFIED.);
#139 = CARTESIAN_POINT('',(35.,25.,0.));
#140 = CARTESIAN_POINT('',(35.219656614639,25.,0.));
#141 = CARTESIAN_POINT('',(35.440077697545,24.987937605482,0.));
#142 = CARTESIAN_POINT('',(35.660262181318,24.963645777601,0.));
#143 = CARTESIAN_POINT('',(35.879207126492,24.927101167745,0.));
#144 = CARTESIAN_POINT('',(36.252325715513,24.843281952244,0.));
#145 = CARTESIAN_POINT('',(36.407573976177,24.801821097781,0.));
#146 = CARTESIAN_POINT('',(36.561282315163,24.754080358491,0.));
#147 = CARTESIAN_POINT('',(36.713084091338,24.700139077477,0.));
#148 = CARTESIAN_POINT('',(36.971379640477,24.59645480429,0.));
#149 = CARTESIAN_POINT('',(37.078940626343,24.549578043629,0.));
#150 = CARTESIAN_POINT('',(37.185166227151,24.499526364706,0.));
#151 = CARTESIAN_POINT('',(37.28992262646,24.446353310014,0.));
#152 = CARTESIAN_POINT('',(37.644066367075,24.253307585226,0.));
#153 = CARTESIAN_POINT('',(37.885592902689,24.098383521765,0.));
#154 = CARTESIAN_POINT('',(38.115771990436,23.926264730079,0.));
#155 = CARTESIAN_POINT('',(38.332913429294,23.738154382571,0.));
#156 = CARTESIAN_POINT('',(38.738154382571,23.332913429294,0.));
#157 = CARTESIAN_POINT('',(38.926264730079,23.115771990436,0.));
#158 = CARTESIAN_POINT('',(39.098383521765,22.885592902689,0.));
#159 = CARTESIAN_POINT('',(39.253307585226,22.644066367075,0.));
#160 = CARTESIAN_POINT('',(39.446353310014,22.28992262646,0.));
#161 = CARTESIAN_POINT('',(39.499526364706,22.185166227151,0.));
#162 = CARTESIAN_POINT('',(39.549578043629,22.078940626343,0.));
#163 = CARTESIAN_POINT('',(39.59645480429,21.971379640477,0.));
#164 = CARTESIAN_POINT('',(39.700139077477,21.713084091338,0.));
#165 = CARTESIAN_POINT('',(39.754080358491,21.561282315163,0.));
#166 = CARTESIAN_POINT('',(39.801821097781,21.407573976177,0.));
#167 = CARTESIAN_POINT('',(39.843281952244,21.252325715513,0.));
#168 = CARTESIAN_POINT('',(39.927101167745,20.879207126492,0.));
#169 = CARTESIAN_POINT('',(39.963645777601,20.660262181317,0.));
#170 = CARTESIAN_POINT('',(39.987937605482,20.440077697545,0.));
#171 = CARTESIAN_POINT('',(40.,20.219656614639,0.));
#172 = CARTESIAN_POINT('',(40.,20.,0.));
#173 = FACE_BOUND('',#174,.F.);
#174 = EDGE_LOOP('',(#175));
#175 = ORIENTED_EDGE('',*,*,#176,.T.);
#176 = EDGE_CURVE('',#177,#177,#179,.T.);
#177 = VERTEX_POINT('',#178);
#178 = CARTESIAN_POINT('',(9.55,13.,0.));
#179 = CIRCLE('',#180,1.55);
#180 = AXIS2_PLACEMENT_3D('',#181,#182,#183);
#181 = CARTESIAN_POINT('',(8.,13.,0.));
#182 = DIRECTION('',(0.,0.,-1.));
#183 = DIRECTION('',(1.,0.,0.));
#184 = FACE_BOUND('',#185,.F.);
#185 = EDGE_LOOP('',(#186));
#186 = ORIENTED_EDGE('',*,*,#187,.T.);
#187 = EDGE_CURVE('',#188,#188,#190,.T.);
#188 = VERTEX_POINT('',#189);
#189 = CARTESIAN_POINT('',(36.55,20.,0.));
#190 = CIRCLE('',#191,1.55);
#191 = AXIS2_PLACEMENT_3D('',#192,#193,#194);
#192 = CARTESIAN_POINT('',(35.,20.,0.));
#193 = DIRECTION('',(0.,0.,-1.));
#194 = DIRECTION('',(1.,0.,0.));
#195 = PLANE('',#196);
#196 = AXIS2_PLACEMENT_3D('',#197,#198,#199);
#197 = CARTESIAN_POINT('',(20.,0.,0.));
#198 = DIRECTION('',(0.,0.,1.));
#199 = DIRECTION('',(1.,0.,0.));
#200 = ADVANCED_FACE('',(#201),#228,.F.);
#201 = FACE_BOUND('',#202,.F.);
#202 = EDGE_LOOP('',(#203,#204,#214,#222));
#203 = ORIENTED_EDGE('',*,*,#21,.F.);
#204 = ORIENTED_EDGE('',*,*,#205,.T.);
#205 = EDGE_CURVE('',#22,#206,#208,.T.);
#206 = VERTEX_POINT('',#207);
#207 = CARTESIAN_POINT('',(35.,25.,3.));
#208 = B_SPLINE_CURVE_WITH_KNOTS('',2,(#209,#210,#211,#212,#213),
  .UNSPECIFIED.,.F.,.F.,(3,1,1,3),(-0.1836,-6.680510456168E-15,3.,3.1836
    ),.UNSPECIFIED.);
#209 = CARTESIAN_POINT('',(35.,25.,-0.1836));
#210 = CARTESIAN_POINT('',(35.,25.,-9.180000000001E-02));
#211 = CARTESIAN_POINT('',(35.,25.,1.5));
#212 = CARTESIAN_POINT('',(35.,25.,3.0918));
#213 = CARTESIAN_POINT('',(35.,25.,3.1836));
#214 = ORIENTED_EDGE('',*,*,#215,.T.);
#215 = EDGE_CURVE('',#206,#216,#218,.T.);
#216 = VERTEX_POINT('',#217);
#217 = CARTESIAN_POINT('',(3.,25.,3.));
#218 = LINE('',#219,#220);
#219 = CARTESIAN_POINT('',(40.,25.,3.));
#220 = VECTOR('',#221,1.);
#221 = DIRECTION('',(-1.,0.,0.));
#222 = ORIENTED_EDGE('',*,*,#223,.F.);
#223 = EDGE_CURVE('',#24,#216,#224,.T.);
#224 = LINE('',#225,#226);
#225 = CARTESIAN_POINT('',(3.,25.,0.));
#226 = VECTOR('',#227,1.);
#227 = DIRECTION('',(0.,0.,1.));
#228 = PLANE('',#229);
#229 = AXIS2_PLACEMENT_3D('',#230,#231,#232);
#230 = CARTESIAN_POINT('',(40.,25.,0.));
#231 = DIRECTION('',(0.,-1.,0.));
#232 = DIRECTION('',(-1.,0.,0.));
#233 = ADVANCED_FACE('',(#234),#253,.T.);
#234 = FACE_BOUND('',#235,.T.);
#235 = EDGE_LOOP('',(#236,#237,#245,#252));
#236 = ORIENTED_EDGE('',*,*,#31,.T.);
#237 = ORIENTED_EDGE('',*,*,#238,.T.);
#238 = EDGE_CURVE('',#32,#239,#241,.T.);
#239 = VERTEX_POINT('',#240);
#240 = CARTESIAN_POINT('',(-4.440892098501E-16,22.,3.));
#241 = LINE('',#242,#243);
#242 = CARTESIAN_POINT('',(-4.440892098501E-16,22.,0.));
#243 = VECTOR('',#244,1.);
#244 = DIRECTION('',(0.,0.,1.));
#245 = ORIENTED_EDGE('',*,*,#246,.F.);
#246 = EDGE_CURVE('',#216,#239,#247,.T.);
#247 = CIRCLE('',#248,3.);
#248 = AXIS2_PLACEMENT_3D('',#249,#250,#251);
#249 = CARTESIAN_POINT('',(3.,22.,3.));
#250 = DIRECTION('',(-0.,0.,1.));
#251 = DIRECTION('',(0.,-1.,0.));
#252 = ORIENTED_EDGE('',*,*,#223,.F.);
#253 = CYLINDRICAL_SURFACE('',#254,3.);
#254 = AXIS2_PLACEMENT_3D('',#255,#256,#257);
#255 = CARTESIAN_POINT('',(3.,22.,0.));
#256 = DIRECTION('',(0.,0.,1.));
#257 = DIRECTION('',(0.,1.,0.));
#258 = ADVANCED_FACE('',(#259),#310,.F.);
#259 = FACE_BOUND('',#260,.F.);
#260 = EDGE_LOOP('',(#261,#262,#272,#309));
#261 = ORIENTED_EDGE('',*,*,#137,.T.);
#262 = ORIENTED_EDGE('',*,*,#263,.T.);
#263 = EDGE_CURVE('',#130,#264,#266,.T.);
#264 = VERTEX_POINT('',#265);
#265 = CARTESIAN_POINT('',(40.,20.,3.));
#266 = B_SPLINE_CURVE_WITH_KNOTS('',2,(#267,#268,#269,#270,#271),
  .UNSPECIFIED.,.F.,.F.,(3,1,1,3),(-0.1836,-6.680510456168E-15,3.,3.1836
    ),.UNSPECIFIED.);
#267 = CARTESIAN_POINT('',(40.,20.,-0.1836));
#268 = CARTESIAN_POINT('',(40.,20.,-9.179999999999E-02));
#269 = CARTESIAN_POINT('',(40.,20.,1.5));
#270 = CARTESIAN_POINT('',(40.,20.,3.0918));
#271 = CARTESIAN_POINT('',(40.,20.,3.1836));
#272 = ORIENTED_EDGE('',*,*,#273,.F.);
#273 = EDGE_CURVE('',#206,#264,#274,.T.);
#274 = B_SPLINE_CURVE_WITH_KNOTS('',5,(#275,#276,#277,#278,#279,#280,
    #281,#282,#283,#284,#285,#286,#287,#288,#289,#290,#291,#292,#293,
    #294,#295,#296,#297,#298,#299,#300,#301,#302,#303,#304,#305,#306,
    #307,#308),.UNSPECIFIED.,.F.,.F.,(6,4,4,4,4,4,4,4,6),(0.,
    0.141885489307,0.244295455638,0.31877866094,0.5,0.68122133906,
    0.755704544362,0.858114510693,1.),.UNSPECIFIED.);
#275 = CARTESIAN_POINT('',(35.,25.,3.));
#276 = CARTESIAN_POINT('',(35.219656614639,25.,3.));
#277 = CARTESIAN_POINT('',(35.440077697545,24.987937605482,3.));
#278 = CARTESIAN_POINT('',(35.660262181318,24.963645777601,3.));
#279 = CARTESIAN_POINT('',(35.879207126492,24.927101167745,3.));
#280 = CARTESIAN_POINT('',(36.252325715513,24.843281952244,3.));
#281 = CARTESIAN_POINT('',(36.407573976177,24.801821097781,3.));
#282 = CARTESIAN_POINT('',(36.561282315163,24.754080358491,3.));
#283 = CARTESIAN_POINT('',(36.713084091338,24.700139077477,3.));
#284 = CARTESIAN_POINT('',(36.971379640477,24.59645480429,3.));
#285 = CARTESIAN_POINT('',(37.078940626343,24.549578043629,3.));
#286 = CARTESIAN_POINT('',(37.185166227151,24.499526364706,3.));
#287 = CARTESIAN_POINT('',(37.28992262646,24.446353310014,3.));
#288 = CARTESIAN_POINT('',(37.644066367075,24.253307585226,3.));
#289 = CARTESIAN_POINT('',(37.885592902689,24.098383521765,3.));
#290 = CARTESIAN_POINT('',(38.115771990436,23.926264730079,3.));
#291 = CARTESIAN_POINT('',(38.332913429294,23.738154382571,3.));
#292 = CARTESIAN_POINT('',(38.738154382571,23.332913429294,3.));
#293 = CARTESIAN_POINT('',(38.926264730079,23.115771990436,3.));
#294 = CARTESIAN_POINT('',(39.098383521765,22.885592902689,3.));
#295 = CARTESIAN_POINT('',(39.253307585226,22.644066367075,3.));
#296 = CARTESIAN_POINT('',(39.446353310014,22.28992262646,3.));
#297 = CARTESIAN_POINT('',(39.499526364706,22.185166227151,3.));
#298 = CARTESIAN_POINT('',(39.549578043629,22.078940626343,3.));
#299 = CARTESIAN_POINT('',(39.59645480429,21.971379640477,3.));
#300 = CARTESIAN_POINT('',(39.700139077477,21.713084091338,3.));
#301 = CARTESIAN_POINT('',(39.754080358491,21.561282315163,3.));
#302 = CARTESIAN_POINT('',(39.801821097781,21.407573976177,3.));
#303 = CARTESIAN_POINT('',(39.843281952244,21.252325715513,3.));
#304 = CARTESIAN_POINT('',(39.927101167745,20.879207126492,3.));
#305 = CARTESIAN_POINT('',(39.963645777601,20.660262181317,3.));
#306 = CARTESIAN_POINT('',(39.987937605482,20.440077697545,3.));
#307 = CARTESIAN_POINT('',(40.,20.219656614639,3.));
#308 = CARTESIAN_POINT('',(40.,20.,3.));
#309 = ORIENTED_EDGE('',*,*,#205,.F.);
#310 = ( BOUNDED_SURFACE() B_SPLINE_SURFACE(2,2,(
    (#311,#312,#313,#314,#315)
    ,(#316,#317,#318,#319,#320)
    ,(#321,#322,#323,#324,#325
)),.UNSPECIFIED.,.F.,.F.,.F.) B_SPLINE_SURFACE_WITH_KNOTS((3,3),(3,1,1,3
    ),(0.,3.),(-0.1836,-6.680510456168E-15,3.,3.1836),.UNSPECIFIED.) 
GEOMETRIC_REPRESENTATION_ITEM() RATIONAL_B_SPLINE_SURFACE((
    (1.,1.,1.,1.,1.)
    ,(0.707106781187,0.707106781187,0.707106781187,0.707106781187
      ,0.707106781187)
,(1.,1.,1.,1.,1.))) REPRESENTATION_ITEM('') SURFACE() );
#311 = CARTESIAN_POINT('',(35.,25.,-0.1836));
#312 = CARTESIAN_POINT('',(35.,25.,-9.180000000001E-02));
#313 = CARTESIAN_POINT('',(35.,25.,1.5));
#314 = CARTESIAN_POINT('',(35.,25.,3.0918));
#315 = CARTESIAN_POINT('',(35.,25.,3.1836));
#316 = CARTESIAN_POINT('',(40.,25.,-0.1836));
#317 = CARTESIAN_POINT('',(40.,25.,-9.180000000001E-02));
#318 = CARTESIAN_POINT('',(40.,25.,1.5));
#319 = CARTESIAN_POINT('',(40.,25.,3.0918));
#320 = CARTESIAN_POINT('',(40.,25.,3.1836));
#321 = CARTESIAN_POINT('',(40.,20.,-0.1836));
#322 = CARTESIAN_POINT('',(40.,20.,-9.179999999999E-02));
#323 = CARTESIAN_POINT('',(40.,20.,1.5));
#324 = CARTESIAN_POINT('',(40.,20.,3.0918));
#325 = CARTESIAN_POINT('',(40.,20.,3.1836));
#326 = ADVANCED_FACE('',(#327),#346,.F.);
#327 = FACE_BOUND('',#328,.F.);
#328 = EDGE_LOOP('',(#329,#330,#331,#339));
#329 = ORIENTED_EDGE('',*,*,#40,.F.);
#330 = ORIENTED_EDGE('',*,*,#238,.T.);
#331 = ORIENTED_EDGE('',*,*,#332,.T.);
#332 = EDGE_CURVE('',#239,#333,#335,.T.);
#333 = VERTEX_POINT('',#334);
#334 = CARTESIAN_POINT('',(0.,11.101801655587,3.));
#335 = LINE('',#336,#337);
#336 = CARTESIAN_POINT('',(0.,25.,3.));
#337 = VECTOR('',#338,1.);
#338 = DIRECTION('',(0.,-1.,0.));
#339 = ORIENTED_EDGE('',*,*,#340,.F.);
#340 = EDGE_CURVE('',#41,#333,#341,.T.);
#341 = CIRCLE('',#342,11.5);
#342 = AXIS2_PLACEMENT_3D('',#343,#344,#345);
#343 = CARTESIAN_POINT('',(0.,0.,0.));
#344 = DIRECTION('',(1.,0.,0.));
#345 = DIRECTION('',(0.,1.,0.));
#346 = PLANE('',#347);
#347 = AXIS2_PLACEMENT_3D('',#348,#349,#350);
#348 = CARTESIAN_POINT('',(0.,25.,0.));
#349 = DIRECTION('',(1.,0.,0.));
#350 = DIRECTION('',(0.,-1.,0.));
#351 = ADVANCED_FACE('',(#352),#438,.T.);
#352 = FACE_BOUND('',#353,.T.);
#353 = EDGE_LOOP('',(#354,#355,#356,#364,#372,#381,#389,#398,#406,#414,
    #423,#431));
#354 = ORIENTED_EDGE('',*,*,#129,.T.);
#355 = ORIENTED_EDGE('',*,*,#263,.T.);
#356 = ORIENTED_EDGE('',*,*,#357,.T.);
#357 = EDGE_CURVE('',#264,#358,#360,.T.);
#358 = VERTEX_POINT('',#359);
#359 = CARTESIAN_POINT('',(40.,20.,8.));
#360 = LINE('',#361,#362);
#361 = CARTESIAN_POINT('',(40.,20.,3.));
#362 = VECTOR('',#363,1.);
#363 = DIRECTION('',(0.,0.,1.));
#364 = ORIENTED_EDGE('',*,*,#365,.T.);
#365 = EDGE_CURVE('',#358,#366,#368,.T.);
#366 = VERTEX_POINT('',#367);
#367 = CARTESIAN_POINT('',(40.,20.,13.));
#368 = LINE('',#369,#370);
#369 = CARTESIAN_POINT('',(40.,20.,3.));
#370 = VECTOR('',#371,1.);
#371 = DIRECTION('',(0.,0.,1.));
#372 = ORIENTED_EDGE('',*,*,#373,.T.);
#373 = EDGE_CURVE('',#366,#374,#376,.T.);
#374 = VERTEX_POINT('',#375);
#375 = CARTESIAN_POINT('',(40.,10.,23.));
#376 = CIRCLE('',#377,10.);
#377 = AXIS2_PLACEMENT_3D('',#378,#379,#380);
#378 = CARTESIAN_POINT('',(40.,10.,13.));
#379 = DIRECTION('',(1.,0.,0.));
#380 = DIRECTION('',(0.,1.,0.));
#381 = ORIENTED_EDGE('',*,*,#382,.F.);
#382 = EDGE_CURVE('',#383,#374,#385,.T.);
#383 = VERTEX_POINT('',#384);
#384 = CARTESIAN_POINT('',(40.,-10.,23.));
#385 = LINE('',#386,#387);
#386 = CARTESIAN_POINT('',(40.,-20.,23.));
#387 = VECTOR('',#388,1.);
#388 = DIRECTION('',(0.,1.,0.));
#389 = ORIENTED_EDGE('',*,*,#390,.T.);
#390 = EDGE_CURVE('',#383,#391,#393,.T.);
#391 = VERTEX_POINT('',#392);
#392 = CARTESIAN_POINT('',(40.,-20.,13.));
#393 = CIRCLE('',#394,10.);
#394 = AXIS2_PLACEMENT_3D('',#395,#396,#397);
#395 = CARTESIAN_POINT('',(40.,-10.,13.));
#396 = DIRECTION('',(1.,0.,0.));
#397 = DIRECTION('',(0.,1.,0.));
#398 = ORIENTED_EDGE('',*,*,#399,.F.);
#399 = EDGE_CURVE('',#400,#391,#402,.T.);
#400 = VERTEX_POINT('',#401);
#401 = CARTESIAN_POINT('',(40.,-20.,8.));
#402 = LINE('',#403,#404);
#403 = CARTESIAN_POINT('',(40.,-20.,3.));
#404 = VECTOR('',#405,1.);
#405 = DIRECTION('',(0.,0.,1.));
#406 = ORIENTED_EDGE('',*,*,#407,.F.);
#407 = EDGE_CURVE('',#408,#400,#410,.T.);
#408 = VERTEX_POINT('',#409);
#409 = CARTESIAN_POINT('',(40.,-20.,3.));
#410 = LINE('',#411,#412);
#411 = CARTESIAN_POINT('',(40.,-20.,3.));
#412 = VECTOR('',#413,1.);
#413 = DIRECTION('',(0.,0.,1.));
#414 = ORIENTED_EDGE('',*,*,#415,.F.);
#415 = EDGE_CURVE('',#416,#408,#418,.T.);
#416 = VERTEX_POINT('',#417);
#417 = CARTESIAN_POINT('',(40.,-20.,0.));
#418 = B_SPLINE_CURVE_WITH_KNOTS('',2,(#419,#420,#421,#422),
  .UNSPECIFIED.,.F.,.F.,(3,1,3),(-0.1836,-6.680835716819E-15,3.),
  .UNSPECIFIED.);
#419 = CARTESIAN_POINT('',(40.,-20.,-0.1836));
#420 = CARTESIAN_POINT('',(40.,-20.,-9.179999999999E-02));
#421 = CARTESIAN_POINT('',(40.,-20.,1.5));
#422 = CARTESIAN_POINT('',(40.,-20.,3.));
#423 = ORIENTED_EDGE('',*,*,#424,.T.);
#424 = EDGE_CURVE('',#416,#425,#427,.T.);
#425 = VERTEX_POINT('',#426);
#426 = CARTESIAN_POINT('',(40.,-8.5,-1.259339276152E-13));
#427 = LINE('',#428,#429);
#428 = CARTESIAN_POINT('',(40.,-25.,0.));
#429 = VECTOR('',#430,1.);
#430 = DIRECTION('',(0.,1.,0.));
#431 = ORIENTED_EDGE('',*,*,#432,.F.);
#432 = EDGE_CURVE('',#122,#425,#433,.T.);
#433 = CIRCLE('',#434,8.5);
#434 = AXIS2_PLACEMENT_3D('',#435,#436,#437);
#435 = CARTESIAN_POINT('',(40.,0.,0.));
#436 = DIRECTION('',(1.,0.,0.));
#437 = DIRECTION('',(0.,1.,0.));
#438 = PLANE('',#439);
#439 = AXIS2_PLACEMENT_3D('',#440,#441,#442);
#440 = CARTESIAN_POINT('',(40.,0.,10.130136986301));
#441 = DIRECTION('',(1.,0.,0.));
#442 = DIRECTION('',(0.,0.,1.));
#443 = ADVANCED_FACE('',(#444),#487,.T.);
#444 = FACE_BOUND('',#445,.F.);
#445 = EDGE_LOOP('',(#446,#447,#448,#480));
#446 = ORIENTED_EDGE('',*,*,#48,.F.);
#447 = ORIENTED_EDGE('',*,*,#340,.T.);
#448 = ORIENTED_EDGE('',*,*,#449,.T.);
#449 = EDGE_CURVE('',#333,#450,#452,.T.);
#450 = VERTEX_POINT('',#451);
#451 = CARTESIAN_POINT('',(3.,7.952986860293,3.));
#452 = B_SPLINE_CURVE_WITH_KNOTS('',6,(#453,#454,#455,#456,#457,#458,
    #459,#460,#461,#462,#463,#464,#465,#466,#467,#468,#469,#470,#471,
    #472,#473,#474,#475,#476,#477,#478,#479),.UNSPECIFIED.,.F.,.F.,(7,5,
    5,5,5,7),(0.,0.185311922703,0.419056339688,0.51162475453,
    0.647538505357,1.),.UNSPECIFIED.);
#453 = CARTESIAN_POINT('',(0.,11.101801655587,3.));
#454 = CARTESIAN_POINT('',(0.,10.952655628749,3.));
#455 = CARTESIAN_POINT('',(8.292353380302E-03,10.803496216917,3.));
#456 = CARTESIAN_POINT('',(2.484543555602E-02,10.65490343813,3.));
#457 = CARTESIAN_POINT('',(4.958208306907E-02,10.507447003832,3.));
#458 = CARTESIAN_POINT('',(8.238374264744E-02,10.36168653137,3.));
#459 = CARTESIAN_POINT('',(0.174445554488,10.037148447863,3.));
#460 = CARTESIAN_POINT('',(0.238380090127,9.859698954792,3.));
#461 = CARTESIAN_POINT('',(0.314585365201,9.686921196462,3.));
#462 = CARTESIAN_POINT('',(0.402656267578,9.519892832058,3.));
#463 = CARTESIAN_POINT('',(0.502094876607,9.35966982592,3.));
#464 = CARTESIAN_POINT('',(0.65595770852,9.14693695907,3.));
#465 = CARTESIAN_POINT('',(0.701295357166,9.087818449921,3.));
#466 = CARTESIAN_POINT('',(0.748285969341,9.029993906829,3.));
#467 = CARTESIAN_POINT('',(0.796889936938,8.973527165728,3.));
#468 = CARTESIAN_POINT('',(0.847064925086,8.918481476895,3.));
#469 = CARTESIAN_POINT('',(0.974675885826,8.786277037957,3.));
#470 = CARTESIAN_POINT('',(1.053875527353,8.710832977587,3.));
#471 = CARTESIAN_POINT('',(1.136221435974,8.638785523073,3.));
#472 = CARTESIAN_POINT('',(1.221556562476,8.570329780173,3.));
#473 = CARTESIAN_POINT('',(1.309708209759,8.505655089195,3.));
#474 = CARTESIAN_POINT('',(1.635897879112,8.28749763819,3.));
#475 = CARTESIAN_POINT('',(1.889140545836,8.156583326801,3.));
#476 = CARTESIAN_POINT('',(2.156643357598,8.055625300989,3.));
#477 = CARTESIAN_POINT('',(2.434233509891,7.987184605452,3.));
#478 = CARTESIAN_POINT('',(2.71717465268,7.952986860293,3.));
#479 = CARTESIAN_POINT('',(3.,7.952986860293,3.));
#480 = ORIENTED_EDGE('',*,*,#481,.F.);
#481 = EDGE_CURVE('',#49,#450,#482,.T.);
#482 = CIRCLE('',#483,8.5);
#483 = AXIS2_PLACEMENT_3D('',#484,#485,#486);
#484 = CARTESIAN_POINT('',(3.,0.,0.));
#485 = DIRECTION('',(1.,0.,0.));
#486 = DIRECTION('',(0.,1.,0.));
#487 = TOROIDAL_SURFACE('',#488,11.5,3.);
#488 = AXIS2_PLACEMENT_3D('',#489,#490,#491);
#489 = CARTESIAN_POINT('',(3.,0.,0.));
#490 = DIRECTION('',(-1.,-0.,-0.));
#491 = DIRECTION('',(0.,1.,0.));
#492 = ADVANCED_FACE('',(#493),#512,.F.);
#493 = FACE_BOUND('',#494,.F.);
#494 = EDGE_LOOP('',(#495,#496,#497,#506));
#495 = ORIENTED_EDGE('',*,*,#432,.F.);
#496 = ORIENTED_EDGE('',*,*,#121,.T.);
#497 = ORIENTED_EDGE('',*,*,#498,.T.);
#498 = EDGE_CURVE('',#114,#499,#501,.T.);
#499 = VERTEX_POINT('',#500);
#500 = CARTESIAN_POINT('',(30.5,-8.5,0.));
#501 = CIRCLE('',#502,8.5);
#502 = AXIS2_PLACEMENT_3D('',#503,#504,#505);
#503 = CARTESIAN_POINT('',(30.5,0.,0.));
#504 = DIRECTION('',(1.,0.,0.));
#505 = DIRECTION('',(0.,1.,0.));
#506 = ORIENTED_EDGE('',*,*,#507,.T.);
#507 = EDGE_CURVE('',#499,#425,#508,.T.);
#508 = LINE('',#509,#510);
#509 = CARTESIAN_POINT('',(40.,-8.5,0.));
#510 = VECTOR('',#511,1.);
#511 = DIRECTION('',(1.,0.,0.));
#512 = CYLINDRICAL_SURFACE('',#513,8.5);
#513 = AXIS2_PLACEMENT_3D('',#514,#515,#516);
#514 = CARTESIAN_POINT('',(40.,0.,0.));
#515 = DIRECTION('',(1.,0.,0.));
#516 = DIRECTION('',(0.,1.,0.));
#517 = ADVANCED_FACE('',(#518),#571,.F.);
#518 = FACE_BOUND('',#519,.F.);
#519 = EDGE_LOOP('',(#520,#530,#537,#538,#539,#547,#556,#564));
#520 = ORIENTED_EDGE('',*,*,#521,.T.);
#521 = EDGE_CURVE('',#522,#524,#526,.T.);
#522 = VERTEX_POINT('',#523);
#523 = CARTESIAN_POINT('',(3.,-8.5,1.7763568394E-15));
#524 = VERTEX_POINT('',#525);
#525 = CARTESIAN_POINT('',(19.5,-8.5,0.));
#526 = LINE('',#527,#528);
#527 = CARTESIAN_POINT('',(40.,-8.5,0.));
#528 = VECTOR('',#529,1.);
#529 = DIRECTION('',(1.,0.,0.));
#530 = ORIENTED_EDGE('',*,*,#531,.F.);
#531 = EDGE_CURVE('',#58,#524,#532,.T.);
#532 = CIRCLE('',#533,8.5);
#533 = AXIS2_PLACEMENT_3D('',#534,#535,#536);
#534 = CARTESIAN_POINT('',(19.5,0.,0.));
#535 = DIRECTION('',(1.,0.,0.));
#536 = DIRECTION('',(0.,1.,0.));
#537 = ORIENTED_EDGE('',*,*,#57,.T.);
#538 = ORIENTED_EDGE('',*,*,#481,.T.);
#539 = ORIENTED_EDGE('',*,*,#540,.T.);
#540 = EDGE_CURVE('',#450,#541,#543,.T.);
#541 = VERTEX_POINT('',#542);
#542 = CARTESIAN_POINT('',(10.,7.952986860293,3.));
#543 = LINE('',#544,#545);
#544 = CARTESIAN_POINT('',(40.,7.952986860293,3.));
#545 = VECTOR('',#546,1.);
#546 = DIRECTION('',(1.,0.,0.));
#547 = ORIENTED_EDGE('',*,*,#548,.T.);
#548 = EDGE_CURVE('',#541,#549,#551,.T.);
#549 = VERTEX_POINT('',#550);
#550 = CARTESIAN_POINT('',(10.,-7.952986860293,3.));
#551 = CIRCLE('',#552,8.5);
#552 = AXIS2_PLACEMENT_3D('',#553,#554,#555);
#553 = CARTESIAN_POINT('',(10.,0.,0.));
#554 = DIRECTION('',(1.,0.,0.));
#555 = DIRECTION('',(0.,1.,0.));
#556 = ORIENTED_EDGE('',*,*,#557,.F.);
#557 = EDGE_CURVE('',#558,#549,#560,.T.);
#558 = VERTEX_POINT('',#559);
#559 = CARTESIAN_POINT('',(3.,-7.952986860293,3.));
#560 = LINE('',#561,#562);
#561 = CARTESIAN_POINT('',(40.,-7.952986860293,3.));
#562 = VECTOR('',#563,1.);
#563 = DIRECTION('',(1.,0.,0.));
#564 = ORIENTED_EDGE('',*,*,#565,.T.);
#565 = EDGE_CURVE('',#558,#522,#566,.T.);
#566 = CIRCLE('',#567,8.5);
#567 = AXIS2_PLACEMENT_3D('',#568,#569,#570);
#568 = CARTESIAN_POINT('',(3.,0.,0.));
#569 = DIRECTION('',(1.,0.,0.));
#570 = DIRECTION('',(0.,-0.935645512976,0.352941176471));
#571 = CYLINDRICAL_SURFACE('',#572,8.5);
#572 = AXIS2_PLACEMENT_3D('',#573,#574,#575);
#573 = CARTESIAN_POINT('',(40.,0.,0.));
#574 = DIRECTION('',(1.,0.,0.));
#575 = DIRECTION('',(0.,1.,0.));
#576 = ADVANCED_FACE('',(#577),#596,.F.);
#577 = FACE_BOUND('',#578,.F.);
#578 = EDGE_LOOP('',(#579,#580,#589,#595));
#579 = ORIENTED_EDGE('',*,*,#113,.T.);
#580 = ORIENTED_EDGE('',*,*,#581,.T.);
#581 = EDGE_CURVE('',#106,#582,#584,.T.);
#582 = VERTEX_POINT('',#583);
#583 = CARTESIAN_POINT('',(30.5,-11.,1.347111479062E-15));
#584 = CIRCLE('',#585,11.);
#585 = AXIS2_PLACEMENT_3D('',#586,#587,#588);
#586 = CARTESIAN_POINT('',(30.5,0.,0.));
#587 = DIRECTION('',(1.,0.,0.));
#588 = DIRECTION('',(0.,1.,0.));
#589 = ORIENTED_EDGE('',*,*,#590,.T.);
#590 = EDGE_CURVE('',#582,#499,#591,.T.);
#591 = LINE('',#592,#593);
#592 = CARTESIAN_POINT('',(30.5,-3.729382179653E-16,0.));
#593 = VECTOR('',#594,1.);
#594 = DIRECTION('',(0.,1.,0.));
#595 = ORIENTED_EDGE('',*,*,#498,.F.);
#596 = PLANE('',#597);
#597 = AXIS2_PLACEMENT_3D('',#598,#599,#600);
#598 = CARTESIAN_POINT('',(30.5,-7.458764359306E-16,-4.490371596874E-16)
  );
#599 = DIRECTION('',(1.,0.,0.));
#600 = DIRECTION('',(0.,0.,1.));
#601 = ADVANCED_FACE('',(#602),#621,.T.);
#602 = FACE_BOUND('',#603,.T.);
#603 = EDGE_LOOP('',(#604,#605,#614,#620));
#604 = ORIENTED_EDGE('',*,*,#65,.T.);
#605 = ORIENTED_EDGE('',*,*,#606,.T.);
#606 = EDGE_CURVE('',#66,#607,#609,.T.);
#607 = VERTEX_POINT('',#608);
#608 = CARTESIAN_POINT('',(19.5,-11.,1.347111479062E-15));
#609 = CIRCLE('',#610,11.);
#610 = AXIS2_PLACEMENT_3D('',#611,#612,#613);
#611 = CARTESIAN_POINT('',(19.5,0.,0.));
#612 = DIRECTION('',(1.,0.,0.));
#613 = DIRECTION('',(0.,1.,0.));
#614 = ORIENTED_EDGE('',*,*,#615,.T.);
#615 = EDGE_CURVE('',#607,#524,#616,.T.);
#616 = LINE('',#617,#618);
#617 = CARTESIAN_POINT('',(19.5,-3.729382179653E-16,0.));
#618 = VECTOR('',#619,1.);
#619 = DIRECTION('',(0.,1.,0.));
#620 = ORIENTED_EDGE('',*,*,#531,.F.);
#621 = PLANE('',#622);
#622 = AXIS2_PLACEMENT_3D('',#623,#624,#625);
#623 = CARTESIAN_POINT('',(19.5,-7.458764359306E-16,-4.490371596874E-16)
  );
#624 = DIRECTION('',(1.,0.,0.));
#625 = DIRECTION('',(0.,0.,1.));
#626 = ADVANCED_FACE('',(#627),#646,.F.);
#627 = FACE_BOUND('',#628,.F.);
#628 = EDGE_LOOP('',(#629,#630,#631,#640));
#629 = ORIENTED_EDGE('',*,*,#581,.F.);
#630 = ORIENTED_EDGE('',*,*,#105,.T.);
#631 = ORIENTED_EDGE('',*,*,#632,.T.);
#632 = EDGE_CURVE('',#98,#633,#635,.T.);
#633 = VERTEX_POINT('',#634);
#634 = CARTESIAN_POINT('',(29.5,-11.,0.));
#635 = CIRCLE('',#636,11.);
#636 = AXIS2_PLACEMENT_3D('',#637,#638,#639);
#637 = CARTESIAN_POINT('',(29.5,0.,0.));
#638 = DIRECTION('',(1.,0.,0.));
#639 = DIRECTION('',(0.,1.,0.));
#640 = ORIENTED_EDGE('',*,*,#641,.T.);
#641 = EDGE_CURVE('',#633,#582,#642,.T.);
#642 = LINE('',#643,#644);
#643 = CARTESIAN_POINT('',(30.5,-11.,0.));
#644 = VECTOR('',#645,1.);
#645 = DIRECTION('',(1.,0.,0.));
#646 = CYLINDRICAL_SURFACE('',#647,11.);
#647 = AXIS2_PLACEMENT_3D('',#648,#649,#650);
#648 = CARTESIAN_POINT('',(30.5,0.,0.));
#649 = DIRECTION('',(1.,0.,0.));
#650 = DIRECTION('',(0.,1.,0.));
#651 = ADVANCED_FACE('',(#652),#671,.F.);
#652 = FACE_BOUND('',#653,.F.);
#653 = EDGE_LOOP('',(#654,#663,#664,#665));
#654 = ORIENTED_EDGE('',*,*,#655,.F.);
#655 = EDGE_CURVE('',#74,#656,#658,.T.);
#656 = VERTEX_POINT('',#657);
#657 = CARTESIAN_POINT('',(20.5,-11.,0.));
#658 = CIRCLE('',#659,11.);
#659 = AXIS2_PLACEMENT_3D('',#660,#661,#662);
#660 = CARTESIAN_POINT('',(20.5,0.,0.));
#661 = DIRECTION('',(1.,0.,0.));
#662 = DIRECTION('',(0.,1.,0.));
#663 = ORIENTED_EDGE('',*,*,#73,.T.);
#664 = ORIENTED_EDGE('',*,*,#606,.T.);
#665 = ORIENTED_EDGE('',*,*,#666,.T.);
#666 = EDGE_CURVE('',#607,#656,#667,.T.);
#667 = LINE('',#668,#669);
#668 = CARTESIAN_POINT('',(30.5,-11.,0.));
#669 = VECTOR('',#670,1.);
#670 = DIRECTION('',(1.,0.,0.));
#671 = CYLINDRICAL_SURFACE('',#672,11.);
#672 = AXIS2_PLACEMENT_3D('',#673,#674,#675);
#673 = CARTESIAN_POINT('',(30.5,0.,0.));
#674 = DIRECTION('',(1.,0.,0.));
#675 = DIRECTION('',(0.,1.,0.));
#676 = ADVANCED_FACE('',(#677),#696,.F.);
#677 = FACE_BOUND('',#678,.F.);
#678 = EDGE_LOOP('',(#679,#680,#681,#690));
#679 = ORIENTED_EDGE('',*,*,#632,.F.);
#680 = ORIENTED_EDGE('',*,*,#97,.T.);
#681 = ORIENTED_EDGE('',*,*,#682,.T.);
#682 = EDGE_CURVE('',#90,#683,#685,.T.);
#683 = VERTEX_POINT('',#684);
#684 = CARTESIAN_POINT('',(29.5,-16.05,1.965558112632E-15));
#685 = CIRCLE('',#686,16.05);
#686 = AXIS2_PLACEMENT_3D('',#687,#688,#689);
#687 = CARTESIAN_POINT('',(29.5,0.,0.));
#688 = DIRECTION('',(1.,0.,0.));
#689 = DIRECTION('',(0.,1.,0.));
#690 = ORIENTED_EDGE('',*,*,#691,.T.);
#691 = EDGE_CURVE('',#683,#633,#692,.T.);
#692 = LINE('',#693,#694);
#693 = CARTESIAN_POINT('',(29.5,-5.111925729119E-16,0.));
#694 = VECTOR('',#695,1.);
#695 = DIRECTION('',(0.,1.,0.));
#696 = PLANE('',#697);
#697 = AXIS2_PLACEMENT_3D('',#698,#699,#700);
#698 = CARTESIAN_POINT('',(29.5,-1.022385145824E-15,2.640405967208E-17)
  );
#699 = DIRECTION('',(1.,0.,0.));
#700 = DIRECTION('',(0.,0.,1.));
#701 = ADVANCED_FACE('',(#702),#721,.T.);
#702 = FACE_BOUND('',#703,.T.);
#703 = EDGE_LOOP('',(#704,#705,#706,#715));
#704 = ORIENTED_EDGE('',*,*,#655,.F.);
#705 = ORIENTED_EDGE('',*,*,#81,.T.);
#706 = ORIENTED_EDGE('',*,*,#707,.T.);
#707 = EDGE_CURVE('',#82,#708,#710,.T.);
#708 = VERTEX_POINT('',#709);
#709 = CARTESIAN_POINT('',(20.5,-16.05,1.965558112632E-15));
#710 = CIRCLE('',#711,16.05);
#711 = AXIS2_PLACEMENT_3D('',#712,#713,#714);
#712 = CARTESIAN_POINT('',(20.5,0.,0.));
#713 = DIRECTION('',(1.,0.,0.));
#714 = DIRECTION('',(0.,1.,0.));
#715 = ORIENTED_EDGE('',*,*,#716,.T.);
#716 = EDGE_CURVE('',#708,#656,#717,.T.);
#717 = LINE('',#718,#719);
#718 = CARTESIAN_POINT('',(20.5,-5.111925729119E-16,0.));
#719 = VECTOR('',#720,1.);
#720 = DIRECTION('',(0.,1.,0.));
#721 = PLANE('',#722);
#722 = AXIS2_PLACEMENT_3D('',#723,#724,#725);
#723 = CARTESIAN_POINT('',(20.5,-1.022385145824E-15,2.640405967208E-17)
  );
#724 = DIRECTION('',(1.,0.,0.));
#725 = DIRECTION('',(0.,0.,1.));
#726 = ADVANCED_FACE('',(#727),#738,.F.);
#727 = FACE_BOUND('',#728,.F.);
#728 = EDGE_LOOP('',(#729,#730,#731,#732));
#729 = ORIENTED_EDGE('',*,*,#682,.F.);
#730 = ORIENTED_EDGE('',*,*,#89,.T.);
#731 = ORIENTED_EDGE('',*,*,#707,.T.);
#732 = ORIENTED_EDGE('',*,*,#733,.T.);
#733 = EDGE_CURVE('',#708,#683,#734,.T.);
#734 = LINE('',#735,#736);
#735 = CARTESIAN_POINT('',(29.5,-16.05,0.));
#736 = VECTOR('',#737,1.);
#737 = DIRECTION('',(1.,0.,0.));
#738 = CYLINDRICAL_SURFACE('',#739,16.05);
#739 = AXIS2_PLACEMENT_3D('',#740,#741,#742);
#740 = CARTESIAN_POINT('',(29.5,0.,0.));
#741 = DIRECTION('',(1.,0.,0.));
#742 = DIRECTION('',(0.,1.,0.));
#743 = ADVANCED_FACE('',(#744),#763,.F.);
#744 = FACE_BOUND('',#745,.F.);
#745 = EDGE_LOOP('',(#746,#754,#755,#756));
#746 = ORIENTED_EDGE('',*,*,#747,.F.);
#747 = EDGE_CURVE('',#177,#748,#750,.T.);
#748 = VERTEX_POINT('',#749);
#749 = CARTESIAN_POINT('',(9.55,13.,3.));
#750 = LINE('',#751,#752);
#751 = CARTESIAN_POINT('',(9.55,13.,0.));
#752 = VECTOR('',#753,1.);
#753 = DIRECTION('',(0.,0.,1.));
#754 = ORIENTED_EDGE('',*,*,#176,.F.);
#755 = ORIENTED_EDGE('',*,*,#747,.T.);
#756 = ORIENTED_EDGE('',*,*,#757,.T.);
#757 = EDGE_CURVE('',#748,#748,#758,.T.);
#758 = CIRCLE('',#759,1.55);
#759 = AXIS2_PLACEMENT_3D('',#760,#761,#762);
#760 = CARTESIAN_POINT('',(8.,13.,3.));
#761 = DIRECTION('',(0.,0.,-1.));
#762 = DIRECTION('',(1.,0.,0.));
#763 = CYLINDRICAL_SURFACE('',#764,1.55);
#764 = AXIS2_PLACEMENT_3D('',#765,#766,#767);
#765 = CARTESIAN_POINT('',(8.,13.,0.));
#766 = DIRECTION('',(0.,0.,-1.));
#767 = DIRECTION('',(1.,0.,0.));
#768 = ADVANCED_FACE('',(#769),#796,.F.);
#769 = FACE_BOUND('',#770,.F.);
#770 = EDGE_LOOP('',(#771,#782,#789,#794,#795));
#771 = ORIENTED_EDGE('',*,*,#772,.T.);
#772 = EDGE_CURVE('',#773,#775,#777,.T.);
#773 = VERTEX_POINT('',#774);
#774 = CARTESIAN_POINT('',(36.55,20.,8.));
#775 = VERTEX_POINT('',#776);
#776 = CARTESIAN_POINT('',(33.45,20.,8.));
#777 = CIRCLE('',#778,1.55);
#778 = AXIS2_PLACEMENT_3D('',#779,#780,#781);
#779 = CARTESIAN_POINT('',(35.,20.,8.));
#780 = DIRECTION('',(0.,0.,-1.));
#781 = DIRECTION('',(1.,0.,0.));
#782 = ORIENTED_EDGE('',*,*,#783,.F.);
#783 = EDGE_CURVE('',#773,#775,#784,.T.);
#784 = CIRCLE('',#785,1.55);
#785 = AXIS2_PLACEMENT_3D('',#786,#787,#788);
#786 = CARTESIAN_POINT('',(35.,20.,8.));
#787 = DIRECTION('',(0.,0.,1.));
#788 = DIRECTION('',(1.,0.,0.));
#789 = ORIENTED_EDGE('',*,*,#790,.T.);
#790 = EDGE_CURVE('',#773,#188,#791,.T.);
#791 = B_SPLINE_CURVE_WITH_KNOTS('',1,(#792,#793),.UNSPECIFIED.,.F.,.F.,
  (2,2),(-8.,0.),.PIECEWISE_BEZIER_KNOTS.);
#792 = CARTESIAN_POINT('',(36.55,20.,8.));
#793 = CARTESIAN_POINT('',(36.55,20.,0.));
#794 = ORIENTED_EDGE('',*,*,#187,.F.);
#795 = ORIENTED_EDGE('',*,*,#790,.F.);
#796 = CYLINDRICAL_SURFACE('',#797,1.55);
#797 = AXIS2_PLACEMENT_3D('',#798,#799,#800);
#798 = CARTESIAN_POINT('',(35.,20.,0.));
#799 = DIRECTION('',(0.,0.,-1.));
#800 = DIRECTION('',(1.,0.,0.));
#801 = ADVANCED_FACE('',(#802,#858),#861,.T.);
#802 = FACE_BOUND('',#803,.T.);
#803 = EDGE_LOOP('',(#804,#805,#813,#822,#831,#839,#847,#854,#855,#856,
    #857));
#804 = ORIENTED_EDGE('',*,*,#540,.T.);
#805 = ORIENTED_EDGE('',*,*,#806,.F.);
#806 = EDGE_CURVE('',#807,#541,#809,.T.);
#807 = VERTEX_POINT('',#808);
#808 = CARTESIAN_POINT('',(10.,10.7639320225,3.));
#809 = LINE('',#810,#811);
#810 = CARTESIAN_POINT('',(10.,20.,3.));
#811 = VECTOR('',#812,1.);
#812 = DIRECTION('',(0.,-1.,0.));
#813 = ORIENTED_EDGE('',*,*,#814,.T.);
#814 = EDGE_CURVE('',#807,#815,#817,.T.);
#815 = VERTEX_POINT('',#816);
#816 = CARTESIAN_POINT('',(11.,13.,3.));
#817 = CIRCLE('',#818,3.);
#818 = AXIS2_PLACEMENT_3D('',#819,#820,#821);
#819 = CARTESIAN_POINT('',(8.,13.,3.));
#820 = DIRECTION('',(0.,0.,1.));
#821 = DIRECTION('',(1.,0.,0.));
#822 = ORIENTED_EDGE('',*,*,#823,.T.);
#823 = EDGE_CURVE('',#815,#824,#826,.T.);
#824 = VERTEX_POINT('',#825);
#825 = CARTESIAN_POINT('',(10.,15.2360679775,3.));
#826 = CIRCLE('',#827,3.);
#827 = AXIS2_PLACEMENT_3D('',#828,#829,#830);
#828 = CARTESIAN_POINT('',(8.,13.,3.));
#829 = DIRECTION('',(0.,0.,1.));
#830 = DIRECTION('',(1.,0.,0.));
#831 = ORIENTED_EDGE('',*,*,#832,.F.);
#832 = EDGE_CURVE('',#833,#824,#835,.T.);
#833 = VERTEX_POINT('',#834);
#834 = CARTESIAN_POINT('',(10.,20.,3.));
#835 = LINE('',#836,#837);
#836 = CARTESIAN_POINT('',(10.,20.,3.));
#837 = VECTOR('',#838,1.);
#838 = DIRECTION('',(0.,-1.,0.));
#839 = ORIENTED_EDGE('',*,*,#840,.F.);
#840 = EDGE_CURVE('',#841,#833,#843,.T.);
#841 = VERTEX_POINT('',#842);
#842 = CARTESIAN_POINT('',(30.,20.,3.));
#843 = LINE('',#844,#845);
#844 = CARTESIAN_POINT('',(40.,20.,3.));
#845 = VECTOR('',#846,1.);
#846 = DIRECTION('',(-1.,0.,0.));
#847 = ORIENTED_EDGE('',*,*,#848,.F.);
#848 = EDGE_CURVE('',#206,#841,#849,.T.);
#849 = CIRCLE('',#850,5.);
#850 = AXIS2_PLACEMENT_3D('',#851,#852,#853);
#851 = CARTESIAN_POINT('',(35.,20.,3.));
#852 = DIRECTION('',(0.,0.,1.));
#853 = DIRECTION('',(1.,0.,0.));
#854 = ORIENTED_EDGE('',*,*,#215,.T.);
#855 = ORIENTED_EDGE('',*,*,#246,.T.);
#856 = ORIENTED_EDGE('',*,*,#332,.T.);
#857 = ORIENTED_EDGE('',*,*,#449,.T.);
#858 = FACE_BOUND('',#859,.T.);
#859 = EDGE_LOOP('',(#860));
#860 = ORIENTED_EDGE('',*,*,#757,.T.);
#861 = PLANE('',#862);
#862 = AXIS2_PLACEMENT_3D('',#863,#864,#865);
#863 = CARTESIAN_POINT('',(17.069640340392,19.652812904103,3.));
#864 = DIRECTION('',(0.,0.,1.));
#865 = DIRECTION('',(1.,0.,0.));
#866 = ADVANCED_FACE('',(#867),#877,.T.);
#867 = FACE_BOUND('',#868,.T.);
#868 = EDGE_LOOP('',(#869,#870));
#869 = ORIENTED_EDGE('',*,*,#273,.F.);
#870 = ORIENTED_EDGE('',*,*,#871,.F.);
#871 = EDGE_CURVE('',#264,#206,#872,.T.);
#872 = CIRCLE('',#873,5.);
#873 = AXIS2_PLACEMENT_3D('',#874,#875,#876);
#874 = CARTESIAN_POINT('',(35.,20.,3.));
#875 = DIRECTION('',(0.,0.,1.));
#876 = DIRECTION('',(1.,0.,0.));
#877 = PLANE('',#878);
#878 = AXIS2_PLACEMENT_3D('',#879,#880,#881);
#879 = CARTESIAN_POINT('',(17.069640340392,19.652812904103,3.));
#880 = DIRECTION('',(0.,0.,1.));
#881 = DIRECTION('',(1.,0.,0.));
#882 = ADVANCED_FACE('',(#883,#966,#977),#988,.F.);
#883 = FACE_BOUND('',#884,.F.);
#884 = EDGE_LOOP('',(#885,#895,#932,#933,#934,#935,#936,#937,#938,#939,
    #940,#941,#942,#951,#959));
#885 = ORIENTED_EDGE('',*,*,#886,.T.);
#886 = EDGE_CURVE('',#887,#889,#891,.T.);
#887 = VERTEX_POINT('',#888);
#888 = CARTESIAN_POINT('',(3.,-25.,0.));
#889 = VERTEX_POINT('',#890);
#890 = CARTESIAN_POINT('',(35.,-25.,0.));
#891 = LINE('',#892,#893);
#892 = CARTESIAN_POINT('',(0.,-25.,0.));
#893 = VECTOR('',#894,1.);
#894 = DIRECTION('',(1.,0.,0.));
#895 = ORIENTED_EDGE('',*,*,#896,.F.);
#896 = EDGE_CURVE('',#416,#889,#897,.T.);
#897 = B_SPLINE_CURVE_WITH_KNOTS('',5,(#898,#899,#900,#901,#902,#903,
    #904,#905,#906,#907,#908,#909,#910,#911,#912,#913,#914,#915,#916,
    #917,#918,#919,#920,#921,#922,#923,#924,#925,#926,#927,#928,#929,
    #930,#931),.UNSPECIFIED.,.F.,.F.,(6,4,4,4,4,4,4,4,6),(0.,
    0.141885489307,0.244295455639,0.31877866094,0.5,0.68122133906,
    0.755704544362,0.858114510693,1.),.UNSPECIFIED.);
#898 = CARTESIAN_POINT('',(40.,-20.,0.));
#899 = CARTESIAN_POINT('',(40.,-20.21965661463,0.));
#900 = CARTESIAN_POINT('',(39.987937605482,-20.44007769754,0.));
#901 = CARTESIAN_POINT('',(39.963645777601,-20.66026218131,0.));
#902 = CARTESIAN_POINT('',(39.927101167745,-20.87920712649,0.));
#903 = CARTESIAN_POINT('',(39.843281952244,-21.25232571551,0.));
#904 = CARTESIAN_POINT('',(39.801821097781,-21.40757397617,0.));
#905 = CARTESIAN_POINT('',(39.754080358491,-21.56128231516,0.));
#906 = CARTESIAN_POINT('',(39.700139077477,-21.71308409133,0.));
#907 = CARTESIAN_POINT('',(39.59645480429,-21.97137964047,0.));
#908 = CARTESIAN_POINT('',(39.549578043629,-22.07894062634,0.));
#909 = CARTESIAN_POINT('',(39.499526364706,-22.18516622715,0.));
#910 = CARTESIAN_POINT('',(39.446353310014,-22.28992262646,0.));
#911 = CARTESIAN_POINT('',(39.253307585226,-22.64406636707,0.));
#912 = CARTESIAN_POINT('',(39.098383521765,-22.88559290268,0.));
#913 = CARTESIAN_POINT('',(38.926264730079,-23.11577199043,0.));
#914 = CARTESIAN_POINT('',(38.738154382571,-23.33291342929,0.));
#915 = CARTESIAN_POINT('',(38.332913429294,-23.73815438257,0.));
#916 = CARTESIAN_POINT('',(38.115771990436,-23.92626473007,0.));
#917 = CARTESIAN_POINT('',(37.885592902689,-24.09838352176,0.));
#918 = CARTESIAN_POINT('',(37.644066367075,-24.25330758522,0.));
#919 = CARTESIAN_POINT('',(37.28992262646,-24.44635331001,0.));
#920 = CARTESIAN_POINT('',(37.185166227151,-24.4995263647,0.));
#921 = CARTESIAN_POINT('',(37.078940626343,-24.54957804362,0.));
#922 = CARTESIAN_POINT('',(36.971379640477,-24.59645480429,0.));
#923 = CARTESIAN_POINT('',(36.713084091338,-24.70013907747,0.));
#924 = CARTESIAN_POINT('',(36.561282315163,-24.75408035849,0.));
#925 = CARTESIAN_POINT('',(36.407573976177,-24.80182109778,0.));
#926 = CARTESIAN_POINT('',(36.252325715513,-24.84328195224,0.));
#927 = CARTESIAN_POINT('',(35.879207126492,-24.92710116774,0.));
#928 = CARTESIAN_POINT('',(35.660262181318,-24.9636457776,0.));
#929 = CARTESIAN_POINT('',(35.440077697545,-24.98793760548,0.));
#930 = CARTESIAN_POINT('',(35.219656614639,-25.,0.));
#931 = CARTESIAN_POINT('',(35.,-25.,0.));
#932 = ORIENTED_EDGE('',*,*,#424,.T.);
#933 = ORIENTED_EDGE('',*,*,#507,.F.);
#934 = ORIENTED_EDGE('',*,*,#590,.F.);
#935 = ORIENTED_EDGE('',*,*,#641,.F.);
#936 = ORIENTED_EDGE('',*,*,#691,.F.);
#937 = ORIENTED_EDGE('',*,*,#733,.F.);
#938 = ORIENTED_EDGE('',*,*,#716,.T.);
#939 = ORIENTED_EDGE('',*,*,#666,.F.);
#940 = ORIENTED_EDGE('',*,*,#615,.T.);
#941 = ORIENTED_EDGE('',*,*,#521,.F.);
#942 = ORIENTED_EDGE('',*,*,#943,.T.);
#943 = EDGE_CURVE('',#522,#944,#946,.T.);
#944 = VERTEX_POINT('',#945);
#945 = CARTESIAN_POINT('',(0.,-11.5,2.22044604925E-15));
#946 = CIRCLE('',#947,3.);
#947 = AXIS2_PLACEMENT_3D('',#948,#949,#950);
#948 = CARTESIAN_POINT('',(3.,-11.5,0.));
#949 = DIRECTION('',(-0.,0.,1.));
#950 = DIRECTION('',(0.,-1.,0.));
#951 = ORIENTED_EDGE('',*,*,#952,.T.);
#952 = EDGE_CURVE('',#944,#953,#955,.T.);
#953 = VERTEX_POINT('',#954);
#954 = CARTESIAN_POINT('',(-4.440892098501E-16,-22.,0.));
#955 = LINE('',#956,#957);
#956 = CARTESIAN_POINT('',(0.,25.,0.));
#957 = VECTOR('',#958,1.);
#958 = DIRECTION('',(0.,-1.,0.));
#959 = ORIENTED_EDGE('',*,*,#960,.T.);
#960 = EDGE_CURVE('',#953,#887,#961,.T.);
#961 = CIRCLE('',#962,3.);
#962 = AXIS2_PLACEMENT_3D('',#963,#964,#965);
#963 = CARTESIAN_POINT('',(3.,-22.,0.));
#964 = DIRECTION('',(-0.,0.,1.));
#965 = DIRECTION('',(0.,-1.,0.));
#966 = FACE_BOUND('',#967,.F.);
#967 = EDGE_LOOP('',(#968));
#968 = ORIENTED_EDGE('',*,*,#969,.T.);
#969 = EDGE_CURVE('',#970,#970,#972,.T.);
#970 = VERTEX_POINT('',#971);
#971 = CARTESIAN_POINT('',(36.55,-20.,0.));
#972 = CIRCLE('',#973,1.55);
#973 = AXIS2_PLACEMENT_3D('',#974,#975,#976);
#974 = CARTESIAN_POINT('',(35.,-20.,0.));
#975 = DIRECTION('',(0.,0.,-1.));
#976 = DIRECTION('',(1.,0.,0.));
#977 = FACE_BOUND('',#978,.F.);
#978 = EDGE_LOOP('',(#979));
#979 = ORIENTED_EDGE('',*,*,#980,.T.);
#980 = EDGE_CURVE('',#981,#981,#983,.T.);
#981 = VERTEX_POINT('',#982);
#982 = CARTESIAN_POINT('',(9.55,-13.,0.));
#983 = CIRCLE('',#984,1.55);
#984 = AXIS2_PLACEMENT_3D('',#985,#986,#987);
#985 = CARTESIAN_POINT('',(8.,-13.,0.));
#986 = DIRECTION('',(0.,0.,-1.));
#987 = DIRECTION('',(1.,0.,0.));
#988 = PLANE('',#989);
#989 = AXIS2_PLACEMENT_3D('',#990,#991,#992);
#990 = CARTESIAN_POINT('',(20.,0.,0.));
#991 = DIRECTION('',(0.,0.,1.));
#992 = DIRECTION('',(1.,0.,0.));
#993 = ADVANCED_FACE('',(#994),#1013,.F.);
#994 = FACE_BOUND('',#995,.F.);
#995 = EDGE_LOOP('',(#996,#1004,#1005,#1006));
#996 = ORIENTED_EDGE('',*,*,#997,.F.);
#997 = EDGE_CURVE('',#408,#998,#1000,.T.);
#998 = VERTEX_POINT('',#999);
#999 = CARTESIAN_POINT('',(35.,-25.,3.));
#1000 = ( BOUNDED_CURVE() B_SPLINE_CURVE(2,(#1001,#1002,#1003),
.UNSPECIFIED.,.F.,.F.) B_SPLINE_CURVE_WITH_KNOTS((3,3),(-3.,0.),
.PIECEWISE_BEZIER_KNOTS.) CURVE() GEOMETRIC_REPRESENTATION_ITEM() 
RATIONAL_B_SPLINE_CURVE((1.,0.707106781187,1.)) REPRESENTATION_ITEM('') 
  );
#1001 = CARTESIAN_POINT('',(40.,-20.,3.));
#1002 = CARTESIAN_POINT('',(40.,-25.,3.));
#1003 = CARTESIAN_POINT('',(35.,-25.,3.));
#1004 = ORIENTED_EDGE('',*,*,#415,.F.);
#1005 = ORIENTED_EDGE('',*,*,#896,.T.);
#1006 = ORIENTED_EDGE('',*,*,#1007,.T.);
#1007 = EDGE_CURVE('',#889,#998,#1008,.T.);
#1008 = B_SPLINE_CURVE_WITH_KNOTS('',2,(#1009,#1010,#1011,#1012),
  .UNSPECIFIED.,.F.,.F.,(3,1,3),(-0.1836,-6.680835716819E-15,3.),
  .UNSPECIFIED.);
#1009 = CARTESIAN_POINT('',(35.,-25.,-0.1836));
#1010 = CARTESIAN_POINT('',(35.,-25.,-9.180000000001E-02));
#1011 = CARTESIAN_POINT('',(35.,-25.,1.5));
#1012 = CARTESIAN_POINT('',(35.,-25.,3.));
#1013 = ( BOUNDED_SURFACE() B_SPLINE_SURFACE(2,2,(
    (#1014,#1015,#1016,#1017)
    ,(#1018,#1019,#1020,#1021)
    ,(#1022,#1023,#1024,#1025
)),.UNSPECIFIED.,.F.,.F.,.F.) B_SPLINE_SURFACE_WITH_KNOTS((3,3),(3,1,3),
  (0.,3.),(-0.1836,-6.680835716819E-15,3.),.UNSPECIFIED.) 
GEOMETRIC_REPRESENTATION_ITEM() RATIONAL_B_SPLINE_SURFACE((
    (1.,1.,1.,1.)
    ,(0.707106781187,0.707106781187,0.707106781187,0.707106781187)
,(1.,1.,1.,1.))) REPRESENTATION_ITEM('') SURFACE() );
#1014 = CARTESIAN_POINT('',(40.,-20.,-0.1836));
#1015 = CARTESIAN_POINT('',(40.,-20.,-9.179999999999E-02));
#1016 = CARTESIAN_POINT('',(40.,-20.,1.5));
#1017 = CARTESIAN_POINT('',(40.,-20.,3.));
#1018 = CARTESIAN_POINT('',(40.,-25.,-0.1836));
#1019 = CARTESIAN_POINT('',(40.,-25.,-9.180000000001E-02));
#1020 = CARTESIAN_POINT('',(40.,-25.,1.5));
#1021 = CARTESIAN_POINT('',(40.,-25.,3.));
#1022 = CARTESIAN_POINT('',(35.,-25.,-0.1836));
#1023 = CARTESIAN_POINT('',(35.,-25.,-9.180000000001E-02));
#1024 = CARTESIAN_POINT('',(35.,-25.,1.5));
#1025 = CARTESIAN_POINT('',(35.,-25.,3.));
#1026 = ADVANCED_FACE('',(#1027),#1061,.T.);
#1027 = FACE_BOUND('',#1028,.F.);
#1028 = EDGE_LOOP('',(#1029,#1039,#1046,#1047,#1054));
#1029 = ORIENTED_EDGE('',*,*,#1030,.T.);
#1030 = EDGE_CURVE('',#1031,#1033,#1035,.T.);
#1031 = VERTEX_POINT('',#1032);
#1032 = CARTESIAN_POINT('',(30.,-20.,3.));
#1033 = VERTEX_POINT('',#1034);
#1034 = CARTESIAN_POINT('',(30.,-20.,8.));
#1035 = LINE('',#1036,#1037);
#1036 = CARTESIAN_POINT('',(30.,-20.,3.));
#1037 = VECTOR('',#1038,1.);
#1038 = DIRECTION('',(0.,0.,1.));
#1039 = ORIENTED_EDGE('',*,*,#1040,.T.);
#1040 = EDGE_CURVE('',#1033,#400,#1041,.T.);
#1041 = CIRCLE('',#1042,5.);
#1042 = AXIS2_PLACEMENT_3D('',#1043,#1044,#1045);
#1043 = CARTESIAN_POINT('',(35.,-20.,8.));
#1044 = DIRECTION('',(0.,0.,1.));
#1045 = DIRECTION('',(1.,0.,0.));
#1046 = ORIENTED_EDGE('',*,*,#407,.F.);
#1047 = ORIENTED_EDGE('',*,*,#1048,.F.);
#1048 = EDGE_CURVE('',#998,#408,#1049,.T.);
#1049 = CIRCLE('',#1050,5.);
#1050 = AXIS2_PLACEMENT_3D('',#1051,#1052,#1053);
#1051 = CARTESIAN_POINT('',(35.,-20.,3.));
#1052 = DIRECTION('',(0.,0.,1.));
#1053 = DIRECTION('',(1.,0.,0.));
#1054 = ORIENTED_EDGE('',*,*,#1055,.F.);
#1055 = EDGE_CURVE('',#1031,#998,#1056,.T.);
#1056 = CIRCLE('',#1057,5.);
#1057 = AXIS2_PLACEMENT_3D('',#1058,#1059,#1060);
#1058 = CARTESIAN_POINT('',(35.,-20.,3.));
#1059 = DIRECTION('',(0.,0.,1.));
#1060 = DIRECTION('',(1.,0.,0.));
#1061 = CYLINDRICAL_SURFACE('',#1062,5.);
#1062 = AXIS2_PLACEMENT_3D('',#1063,#1064,#1065);
#1063 = CARTESIAN_POINT('',(35.,-20.,3.));
#1064 = DIRECTION('',(-0.,-0.,-1.));
#1065 = DIRECTION('',(1.,0.,0.));
#1066 = ADVANCED_FACE('',(#1067),#1092,.F.);
#1067 = FACE_BOUND('',#1068,.F.);
#1068 = EDGE_LOOP('',(#1069,#1070,#1078,#1086));
#1069 = ORIENTED_EDGE('',*,*,#399,.F.);
#1070 = ORIENTED_EDGE('',*,*,#1071,.F.);
#1071 = EDGE_CURVE('',#1072,#400,#1074,.T.);
#1072 = VERTEX_POINT('',#1073);
#1073 = CARTESIAN_POINT('',(38.,-20.,8.));
#1074 = LINE('',#1075,#1076);
#1075 = CARTESIAN_POINT('',(30.,-20.,8.));
#1076 = VECTOR('',#1077,1.);
#1077 = DIRECTION('',(1.,0.,0.));
#1078 = ORIENTED_EDGE('',*,*,#1079,.F.);
#1079 = EDGE_CURVE('',#1080,#1072,#1082,.T.);
#1080 = VERTEX_POINT('',#1081);
#1081 = CARTESIAN_POINT('',(38.,-20.,13.));
#1082 = LINE('',#1083,#1084);
#1083 = CARTESIAN_POINT('',(38.,-20.,23.));
#1084 = VECTOR('',#1085,1.);
#1085 = DIRECTION('',(-0.,-0.,-1.));
#1086 = ORIENTED_EDGE('',*,*,#1087,.F.);
#1087 = EDGE_CURVE('',#391,#1080,#1088,.T.);
#1088 = LINE('',#1089,#1090);
#1089 = CARTESIAN_POINT('',(40.,-20.,13.));
#1090 = VECTOR('',#1091,1.);
#1091 = DIRECTION('',(-1.,-0.,-0.));
#1092 = PLANE('',#1093);
#1093 = AXIS2_PLACEMENT_3D('',#1094,#1095,#1096);
#1094 = CARTESIAN_POINT('',(10.,-20.,3.));
#1095 = DIRECTION('',(0.,1.,0.));
#1096 = DIRECTION('',(1.,0.,0.));
#1097 = ADVANCED_FACE('',(#1098),#1259,.T.);
#1098 = FACE_BOUND('',#1099,.T.);
#1099 = EDGE_LOOP('',(#1100,#1101,#1109,#1118,#1135,#1152,#1161,#1169,
    #1258));
#1100 = ORIENTED_EDGE('',*,*,#390,.F.);
#1101 = ORIENTED_EDGE('',*,*,#1102,.T.);
#1102 = EDGE_CURVE('',#383,#1103,#1105,.T.);
#1103 = VERTEX_POINT('',#1104);
#1104 = CARTESIAN_POINT('',(10.,-10.,23.));
#1105 = LINE('',#1106,#1107);
#1106 = CARTESIAN_POINT('',(40.,-10.,23.));
#1107 = VECTOR('',#1108,1.);
#1108 = DIRECTION('',(-1.,-0.,-0.));
#1109 = ORIENTED_EDGE('',*,*,#1110,.T.);
#1110 = EDGE_CURVE('',#1103,#1111,#1113,.T.);
#1111 = VERTEX_POINT('',#1112);
#1112 = CARTESIAN_POINT('',(10.,-10.7639320225,22.970777696098));
#1113 = CIRCLE('',#1114,10.);
#1114 = AXIS2_PLACEMENT_3D('',#1115,#1116,#1117);
#1115 = CARTESIAN_POINT('',(10.,-10.,13.));
#1116 = DIRECTION('',(1.,0.,0.));
#1117 = DIRECTION('',(0.,1.,0.));
#1118 = ORIENTED_EDGE('',*,*,#1119,.F.);
#1119 = EDGE_CURVE('',#1120,#1111,#1122,.T.);
#1120 = VERTEX_POINT('',#1121);
#1121 = CARTESIAN_POINT('',(11.,-13.,22.539392014169));
#1122 = B_SPLINE_CURVE_WITH_KNOTS('',6,(#1123,#1124,#1125,#1126,#1127,
    #1128,#1129,#1130,#1131,#1132,#1133,#1134),.UNSPECIFIED.,.F.,.F.,(7,
    5,7),(0.,0.481681312815,1.),.UNSPECIFIED.);
#1123 = CARTESIAN_POINT('',(11.,-13.,22.539392014169));
#1124 = CARTESIAN_POINT('',(11.,-12.79160767823,22.604928367469));
#1125 = CARTESIAN_POINT('',(10.982628793786,-12.58025592459,
    22.665392336406));
#1126 = CARTESIAN_POINT('',(10.946963058932,-12.36948180626,
    22.71953669047));
#1127 = CARTESIAN_POINT('',(10.893261228825,-12.16285929871,
    22.766765455701));
#1128 = CARTESIAN_POINT('',(10.822936032241,-11.96380763587,
    22.807148847186));
#1129 = CARTESIAN_POINT('',(10.647875795375,-11.57236104608,
    22.877762212469));
#1130 = CARTESIAN_POINT('',(10.541088430572,-11.3819778896,
    22.90692263728));
#1131 = CARTESIAN_POINT('',(10.420545543317,-11.2052650029,
    22.929719006135));
#1132 = CARTESIAN_POINT('',(10.288573845398,-11.04307570774,
    22.947281536052));
#1133 = CARTESIAN_POINT('',(10.147566768869,-10.89591975306,
    22.960665179599));
#1134 = CARTESIAN_POINT('',(10.,-10.7639320225,22.970777696098));
#1135 = ORIENTED_EDGE('',*,*,#1136,.F.);
#1136 = EDGE_CURVE('',#1137,#1120,#1139,.T.);
#1137 = VERTEX_POINT('',#1138);
#1138 = CARTESIAN_POINT('',(10.,-15.2360679775,21.519600468038));
#1139 = B_SPLINE_CURVE_WITH_KNOTS('',6,(#1140,#1141,#1142,#1143,#1144,
    #1145,#1146,#1147,#1148,#1149,#1150,#1151),.UNSPECIFIED.,.F.,.F.,(7,
    5,7),(0.,0.628038908266,1.),.UNSPECIFIED.);
#1140 = CARTESIAN_POINT('',(10.,-15.2360679775,21.519600468038));
#1141 = CARTESIAN_POINT('',(10.178103662235,-15.07676721918,
    21.617505246855));
#1142 = CARTESIAN_POINT('',(10.343523679294,-14.89816924234,
    21.722345953336));
#1143 = CARTESIAN_POINT('',(10.494481657619,-14.70022418818,
    21.832167419782));
#1144 = CARTESIAN_POINT('',(10.628545518722,-14.4827858246,
    21.944891101022));
#1145 = CARTESIAN_POINT('',(10.742447164443,-14.24590486356,
    22.058143741334));
#1146 = CARTESIAN_POINT('',(10.884751971576,-13.83899693206,
    22.235223277544));
#1147 = CARTESIAN_POINT('',(10.929158968805,-13.680866615,
    22.300473179867));
#1148 = CARTESIAN_POINT('',(10.963823663571,-13.51683191106,
    22.36424347593));
#1149 = CARTESIAN_POINT('',(10.987719467737,-13.34790421718,
    22.425737185407));
#1150 = CARTESIAN_POINT('',(11.,-13.17521825046,22.484288423647));
#1151 = CARTESIAN_POINT('',(11.,-13.,22.539392014169));
#1152 = ORIENTED_EDGE('',*,*,#1153,.T.);
#1153 = EDGE_CURVE('',#1137,#1154,#1156,.T.);
#1154 = VERTEX_POINT('',#1155);
#1155 = CARTESIAN_POINT('',(10.,-20.,13.));
#1156 = CIRCLE('',#1157,10.);
#1157 = AXIS2_PLACEMENT_3D('',#1158,#1159,#1160);
#1158 = CARTESIAN_POINT('',(10.,-10.,13.));
#1159 = DIRECTION('',(1.,0.,0.));
#1160 = DIRECTION('',(0.,1.,0.));
#1161 = ORIENTED_EDGE('',*,*,#1162,.F.);
#1162 = EDGE_CURVE('',#1163,#1154,#1165,.T.);
#1163 = VERTEX_POINT('',#1164);
#1164 = CARTESIAN_POINT('',(32.,-20.,13.));
#1165 = LINE('',#1166,#1167);
#1166 = CARTESIAN_POINT('',(40.,-20.,13.));
#1167 = VECTOR('',#1168,1.);
#1168 = DIRECTION('',(-1.,-0.,-0.));
#1169 = ORIENTED_EDGE('',*,*,#1170,.F.);
#1170 = EDGE_CURVE('',#1080,#1163,#1171,.T.);
#1171 = B_SPLINE_CURVE_WITH_KNOTS('',7,(#1172,#1173,#1174,#1175,#1176,
    #1177,#1178,#1179,#1180,#1181,#1182,#1183,#1184,#1185,#1186,#1187,
    #1188,#1189,#1190,#1191,#1192,#1193,#1194,#1195,#1196,#1197,#1198,
    #1199,#1200,#1201,#1202,#1203,#1204,#1205,#1206,#1207,#1208,#1209,
    #1210,#1211,#1212,#1213,#1214,#1215,#1216,#1217,#1218,#1219,#1220,
    #1221,#1222,#1223,#1224,#1225,#1226,#1227,#1228,#1229,#1230,#1231,
    #1232,#1233,#1234,#1235,#1236,#1237,#1238,#1239,#1240,#1241,#1242,
    #1243,#1244,#1245,#1246,#1247,#1248,#1249,#1250,#1251,#1252,#1253,
    #1254,#1255,#1256,#1257),.UNSPECIFIED.,.F.,.F.,(8,6,6,6,6,6,6,6,6,6,
    6,6,6,6,8),(0.,0.18252708767,0.30746124728,0.356025489067,
    0.400127172607,0.452900038794,0.474536403834,0.500116375024,
    0.547718848404,0.586194267626,0.617181019337,0.6434399531,
    0.690718702045,0.809735238683,1.),.UNSPECIFIED.);
#1172 = CARTESIAN_POINT('',(38.,-20.,13.));
#1173 = CARTESIAN_POINT('',(38.,-20.,13.477277320567));
#1174 = CARTESIAN_POINT('',(38.000000672156,-19.97342391487,
    13.954311823556));
#1175 = CARTESIAN_POINT('',(37.999997105758,-19.92032157229,
    14.430374732427));
#1176 = CARTESIAN_POINT('',(37.998523724129,-19.84053613834,
    14.904630659082));
#1177 = CARTESIAN_POINT('',(37.992584500433,-19.73378582206,
    15.376038395417));
#1178 = CARTESIAN_POINT('',(37.977701067361,-19.59972457728,
    15.843121566369));
#1179 = CARTESIAN_POINT('',(37.925972292821,-19.32821133497,
    16.618839630669));
#1180 = CARTESIAN_POINT('',(37.897516284795,-19.20506141249,
    16.931295799884));
#1181 = CARTESIAN_POINT('',(37.859390951499,-19.0691272575,
    17.240194490813));
#1182 = CARTESIAN_POINT('',(37.808846825497,-18.92070629636,
    17.544210813474));
#1183 = CARTESIAN_POINT('',(37.742518230591,-18.76055747276,
    17.841578158428));
#1184 = CARTESIAN_POINT('',(37.656360005843,-18.59016606994,
    18.130021728077));
#1185 = CARTESIAN_POINT('',(37.502416463788,-18.34333399994,
    18.514082724639));
#1186 = CARTESIAN_POINT('',(37.455607642612,-18.27315313406,
    18.619757656865));
#1187 = CARTESIAN_POINT('',(37.40485919956,-18.20215215388,18.7232784689
    ));
#1188 = CARTESIAN_POINT('',(37.349959138465,-18.13063203821,
    18.824335984521));
#1189 = CARTESIAN_POINT('',(37.29070564389,-18.05892362762,
    18.922636958018));
#1190 = CARTESIAN_POINT('',(37.22690785051,-17.98738606135,
    19.017903315567));
#1191 = CARTESIAN_POINT('',(37.096161777024,-17.85194678276,
    19.193388549485));
#1192 = CARTESIAN_POINT('',(37.030052552314,-17.78795877604,
    19.274171099211));
#1193 = CARTESIAN_POINT('',(36.960014317068,-17.72482187256,
    19.35190300716));
#1194 = CARTESIAN_POINT('',(36.886041309699,-17.66292835762,
    19.426305080483));
#1195 = CARTESIAN_POINT('',(36.808167683209,-17.60267436143,
    19.497132192594));
#1196 = CARTESIAN_POINT('',(36.726468560072,-17.54445209709,
    19.564170503648));
#1197 = CARTESIAN_POINT('',(36.538860971837,-17.4218588528,
    19.702698407731));
#1198 = CARTESIAN_POINT('',(36.431432366164,-17.35858284741,
    19.772411105452));
#1199 = CARTESIAN_POINT('',(36.31905120231,-17.29949765691,
    19.83602469471));
#1200 = CARTESIAN_POINT('',(36.202105658528,-17.24525044724,
    19.893263619102));
#1201 = CARTESIAN_POINT('',(36.08108974286,-17.19642542122,
    19.943918525182));
#1202 = CARTESIAN_POINT('',(35.956596876887,-17.15351726399,
    19.987839942342));
#1203 = CARTESIAN_POINT('',(35.777128516855,-17.10189374521,
    20.040139332512));
#1204 = CARTESIAN_POINT('',(35.724464584271,-17.08793835018,
    20.054201500242));
#1205 = CARTESIAN_POINT('',(35.671363969947,-17.0750637723,
    20.067112913798));
#1206 = CARTESIAN_POINT('',(35.617869502429,-17.0632923639,
    20.078869017905));
#1207 = CARTESIAN_POINT('',(35.56402455059,-17.0526434606,
    20.089466254101));
#1208 = CARTESIAN_POINT('',(35.509873023629,-17.0431333813,
    20.098902060736));
#1209 = CARTESIAN_POINT('',(35.391127878136,-17.02489409184,
    20.116955550009));
#1210 = CARTESIAN_POINT('',(35.326429669586,-17.01662322348,
    20.125110347402));
#1211 = CARTESIAN_POINT('',(35.261437780916,-17.00998472868,
    20.131636606567));
#1212 = CARTESIAN_POINT('',(35.196225415192,-17.00499501026,
    20.136532392899));
#1213 = CARTESIAN_POINT('',(35.130865943057,-17.00166496826,
    20.139796495773));
#1214 = CARTESIAN_POINT('',(35.065432902729,-17.,20.141428428543));
#1215 = CARTESIAN_POINT('',(34.87823410796,-17.,20.141428428543));
#1216 = CARTESIAN_POINT('',(34.75643742592,-17.0057657422,
    20.135776411066));
#1217 = CARTESIAN_POINT('',(34.635109639325,-17.01730355877,
    20.124467959643));
#1218 = CARTESIAN_POINT('',(34.514745488478,-17.03454529734,
    20.10751009697));
#1219 = CARTESIAN_POINT('',(34.395822799342,-17.05735425599,
    20.084921723109));
#1220 = CARTESIAN_POINT('',(34.27879051435,-17.08553111822,
    20.056734053696));
#1221 = CARTESIAN_POINT('',(34.071321400882,-17.14572603968,
    19.995717771535));
#1222 = CARTESIAN_POINT('',(33.980092851733,-17.17597052813,
    19.964816684188));
#1223 = CARTESIAN_POINT('',(33.890632368716,-17.20940453126,
    19.930326096963));
#1224 = CARTESIAN_POINT('',(33.803173960333,-17.24584849303,
    19.892297904855));
#1225 = CARTESIAN_POINT('',(33.717924206658,-17.2850967139,
    19.850799457986));
#1226 = CARTESIAN_POINT('',(33.635062115356,-17.32692194126,
    19.805915422608));
#1227 = CARTESIAN_POINT('',(33.490049542889,-17.4066432776,
    19.718958613642));
#1228 = CARTESIAN_POINT('',(33.427017743383,-17.44371367179,
    19.678045603774));
#1229 = CARTESIAN_POINT('',(33.365722154806,-17.48216228326,
    19.635066677334));
#1230 = CARTESIAN_POINT('',(33.306228545049,-17.52185353601,
    19.590085947231));
#1231 = CARTESIAN_POINT('',(33.248589993249,-17.56264688136,
    19.543176213453));
#1232 = CARTESIAN_POINT('',(33.19284700878,-17.60439854219,
    19.494419602067));
#1233 = CARTESIAN_POINT('',(33.093419805183,-17.68303364097,
    19.401103606243));
#1234 = CARTESIAN_POINT('',(33.049194902052,-17.71968669188,
    19.35704028242));
#1235 = CARTESIAN_POINT('',(33.006359607636,-17.75684210219,
    19.311764691456));
#1236 = CARTESIAN_POINT('',(32.964916114361,-17.79441953968,
    19.265326805633));
#1237 = CARTESIAN_POINT('',(32.924862213327,-17.83233914572,
    19.217780276832));
#1238 = CARTESIAN_POINT('',(32.886191367341,-17.87052203345,
    19.169182602534));
#1239 = CARTESIAN_POINT('',(32.781737339768,-17.97797305081,
    19.030314209999));
#1240 = CARTESIAN_POINT('',(32.71906876402,-18.04761813689,
    18.937876415905));
#1241 = CARTESIAN_POINT('',(32.660726426148,-18.11746530161,
    18.842527458867));
#1242 = CARTESIAN_POINT('',(32.606538105976,-18.1871774203,
    18.744526629233));
#1243 = CARTESIAN_POINT('',(32.556320708846,-18.25644256203,
    18.644147685627));
#1244 = CARTESIAN_POINT('',(32.509880980755,-18.32497556554,
    18.541679582205));
#1245 = CARTESIAN_POINT('',(32.35911119075,-18.56255073948,
    18.174988822848));
#1246 = CARTESIAN_POINT('',(32.273958615209,-18.72616243038,
    17.901477897779));
#1247 = CARTESIAN_POINT('',(32.207333059196,-18.88074942561,
    17.619513395473));
#1248 = CARTESIAN_POINT('',(32.155668568388,-19.02489817755,
    17.331144071766));
#1249 = CARTESIAN_POINT('',(32.115960606427,-19.15783868633,
    17.037999866884));
#1250 = CARTESIAN_POINT('',(32.085718460687,-19.27921980726,
    16.741350251923));
#1251 = CARTESIAN_POINT('',(32.026396385136,-19.56435902923,
    15.96356995942));
#1252 = CARTESIAN_POINT('',(32.008775143602,-19.71034292287,
    15.477338124661));
#1253 = CARTESIAN_POINT('',(32.001746104173,-19.82652715148,
    14.986140730986));
#1254 = CARTESIAN_POINT('',(32.000004145882,-19.91332654291,
    14.491744710061));
#1255 = CARTESIAN_POINT('',(31.999999008532,-19.97108496753,
    13.995338752791));
#1256 = CARTESIAN_POINT('',(32.,-20.,13.497836160491));
#1257 = CARTESIAN_POINT('',(32.,-20.,13.));
#1258 = ORIENTED_EDGE('',*,*,#1087,.F.);
#1259 = CYLINDRICAL_SURFACE('',#1260,10.);
#1260 = AXIS2_PLACEMENT_3D('',#1261,#1262,#1263);
#1261 = CARTESIAN_POINT('',(40.,-10.,13.));
#1262 = DIRECTION('',(1.,0.,0.));
#1263 = DIRECTION('',(0.,1.,0.));
#1264 = ADVANCED_FACE('',(#1265),#1283,.T.);
#1265 = FACE_BOUND('',#1266,.T.);
#1266 = EDGE_LOOP('',(#1267,#1268,#1269,#1277));
#1267 = ORIENTED_EDGE('',*,*,#1102,.F.);
#1268 = ORIENTED_EDGE('',*,*,#382,.T.);
#1269 = ORIENTED_EDGE('',*,*,#1270,.T.);
#1270 = EDGE_CURVE('',#374,#1271,#1273,.T.);
#1271 = VERTEX_POINT('',#1272);
#1272 = CARTESIAN_POINT('',(10.,10.,23.));
#1273 = LINE('',#1274,#1275);
#1274 = CARTESIAN_POINT('',(40.,10.,23.));
#1275 = VECTOR('',#1276,1.);
#1276 = DIRECTION('',(-1.,-0.,-0.));
#1277 = ORIENTED_EDGE('',*,*,#1278,.T.);
#1278 = EDGE_CURVE('',#1271,#1103,#1279,.T.);
#1279 = LINE('',#1280,#1281);
#1280 = CARTESIAN_POINT('',(10.,20.,23.));
#1281 = VECTOR('',#1282,1.);
#1282 = DIRECTION('',(0.,-1.,0.));
#1283 = PLANE('',#1284);
#1284 = AXIS2_PLACEMENT_3D('',#1285,#1286,#1287);
#1285 = CARTESIAN_POINT('',(25.,0.,23.));
#1286 = DIRECTION('',(0.,0.,1.));
#1287 = DIRECTION('',(1.,0.,0.));
#1288 = ADVANCED_FACE('',(#1289),#1446,.T.);
#1289 = FACE_BOUND('',#1290,.T.);
#1290 = EDGE_LOOP('',(#1291,#1292,#1300,#1391,#1399,#1408,#1421,#1438,
    #1445));
#1291 = ORIENTED_EDGE('',*,*,#373,.F.);
#1292 = ORIENTED_EDGE('',*,*,#1293,.T.);
#1293 = EDGE_CURVE('',#366,#1294,#1296,.T.);
#1294 = VERTEX_POINT('',#1295);
#1295 = CARTESIAN_POINT('',(38.,20.,13.));
#1296 = LINE('',#1297,#1298);
#1297 = CARTESIAN_POINT('',(40.,20.,13.));
#1298 = VECTOR('',#1299,1.);
#1299 = DIRECTION('',(-1.,-0.,-0.));
#1300 = ORIENTED_EDGE('',*,*,#1301,.F.);
#1301 = EDGE_CURVE('',#1302,#1294,#1304,.T.);
#1302 = VERTEX_POINT('',#1303);
#1303 = CARTESIAN_POINT('',(32.,20.,13.));
#1304 = B_SPLINE_CURVE_WITH_KNOTS('',7,(#1305,#1306,#1307,#1308,#1309,
    #1310,#1311,#1312,#1313,#1314,#1315,#1316,#1317,#1318,#1319,#1320,
    #1321,#1322,#1323,#1324,#1325,#1326,#1327,#1328,#1329,#1330,#1331,
    #1332,#1333,#1334,#1335,#1336,#1337,#1338,#1339,#1340,#1341,#1342,
    #1343,#1344,#1345,#1346,#1347,#1348,#1349,#1350,#1351,#1352,#1353,
    #1354,#1355,#1356,#1357,#1358,#1359,#1360,#1361,#1362,#1363,#1364,
    #1365,#1366,#1367,#1368,#1369,#1370,#1371,#1372,#1373,#1374,#1375,
    #1376,#1377,#1378,#1379,#1380,#1381,#1382,#1383,#1384,#1385,#1386,
    #1387,#1388,#1389,#1390),.UNSPECIFIED.,.F.,.F.,(8,6,6,6,6,6,6,6,6,6,
    6,6,6,6,8),(0.,0.180453809995,0.307468658531,0.356032380635,
    0.400133592226,0.452905893669,0.474542027169,0.500121724618,
    0.547723688586,0.586198696066,0.617185116175,0.643443768932,
    0.690722011918,0.809737274862,1.),.UNSPECIFIED.);
#1305 = CARTESIAN_POINT('',(32.,20.,13.));
#1306 = CARTESIAN_POINT('',(32.,20.,13.471834665456));
#1307 = CARTESIAN_POINT('',(31.999999391472,19.974026597729,
    13.943445096775));
#1308 = CARTESIAN_POINT('',(32.000002630004,19.922125247469,
    14.414114814519));
#1309 = CARTESIAN_POINT('',(32.001410372469,19.844148458152,
    14.883030462514));
#1310 = CARTESIAN_POINT('',(32.007083371673,19.739828926247,
    15.34918834554));
#1311 = CARTESIAN_POINT('',(32.021298735889,19.608836531352,
    15.811181134133));
#1312 = CARTESIAN_POINT('',(32.071226967179,19.340450084421,
    16.587640977199));
#1313 = CARTESIAN_POINT('',(32.099347856733,19.216328300025,
    16.905602259475));
#1314 = CARTESIAN_POINT('',(32.137273608322,19.078978817285,
    17.219963382558));
#1315 = CARTESIAN_POINT('',(32.187860530026,18.928689022418,
    17.52936358502));
#1316 = CARTESIAN_POINT('',(32.254621076115,18.766227963536,
    17.831971321354));
#1317 = CARTESIAN_POINT('',(32.341792611991,18.593128150442,
    18.125412847276));
#1318 = CARTESIAN_POINT('',(32.497583536191,18.343333999978,
    18.514082724588));
#1319 = CARTESIAN_POINT('',(32.544392357382,18.273153134064,
    18.619757656862));
#1320 = CARTESIAN_POINT('',(32.595140800458,18.202152153853,
    18.72327846894));
#1321 = CARTESIAN_POINT('',(32.650040861559,18.130632038188,
    18.824335984557));
#1322 = CARTESIAN_POINT('',(32.70929435611,18.058923627626,
    18.922636958011));
#1323 = CARTESIAN_POINT('',(32.773092149458,17.987386061384,
    19.017903315524));
#1324 = CARTESIAN_POINT('',(32.903838222976,17.851946782762,
    19.193388549485));
#1325 = CARTESIAN_POINT('',(32.969947447686,17.787958776045,
    19.274171099211));
#1326 = CARTESIAN_POINT('',(33.039985682932,17.724821872567,
    19.35190300716));
#1327 = CARTESIAN_POINT('',(33.113958690301,17.662928357629,
    19.426305080483));
#1328 = CARTESIAN_POINT('',(33.191832316791,17.60267436143,
    19.497132192594));
#1329 = CARTESIAN_POINT('',(33.273531439928,17.544452097099,
    19.564170503648));
#1330 = CARTESIAN_POINT('',(33.461139028163,17.421858852806,
    19.702698407731));
#1331 = CARTESIAN_POINT('',(33.568567633836,17.358582847411,
    19.772411105452));
#1332 = CARTESIAN_POINT('',(33.68094879769,17.299497656916,
    19.83602469471));
#1333 = CARTESIAN_POINT('',(33.797894341471,17.245250447242,
    19.893263619102));
#1334 = CARTESIAN_POINT('',(33.91891025714,17.196425421224,
    19.943918525182));
#1335 = CARTESIAN_POINT('',(34.043403123113,17.15351726399,
    19.987839942342));
#1336 = CARTESIAN_POINT('',(34.222871483145,17.101893745215,
    20.040139332512));
#1337 = CARTESIAN_POINT('',(34.275535415729,17.087938350183,
    20.054201500242));
#1338 = CARTESIAN_POINT('',(34.328636030053,17.0750637723,
    20.067112913798));
#1339 = CARTESIAN_POINT('',(34.382130497571,17.063292363902,
    20.078869017905));
#1340 = CARTESIAN_POINT('',(34.43597544941,17.052643460605,
    20.089466254101));
#1341 = CARTESIAN_POINT('',(34.490126976371,17.043133381307,
    20.098902060736));
#1342 = CARTESIAN_POINT('',(34.608872121864,17.024894091845,
    20.116955550009));
#1343 = CARTESIAN_POINT('',(34.673570330414,17.016623223488,
    20.125110347402));
#1344 = CARTESIAN_POINT('',(34.738562219084,17.009984728688,
    20.131636606567));
#1345 = CARTESIAN_POINT('',(34.803774584808,17.004995010262,
    20.136532392899));
#1346 = CARTESIAN_POINT('',(34.869134056943,17.001664968267,
    20.139796495773));
#1347 = CARTESIAN_POINT('',(34.934567097271,17.,20.141428428543));
#1348 = CARTESIAN_POINT('',(35.12176589204,17.,20.141428428543));
#1349 = CARTESIAN_POINT('',(35.24356257408,17.005765742208,
    20.135776411066));
#1350 = CARTESIAN_POINT('',(35.364890360674,17.017303558779,
    20.124467959643));
#1351 = CARTESIAN_POINT('',(35.485254511522,17.034545297345,
    20.10751009697));
#1352 = CARTESIAN_POINT('',(35.604177200659,17.05735425599,
    20.084921723109));
#1353 = CARTESIAN_POINT('',(35.72120948565,17.085531118226,
    20.056734053696));
#1354 = CARTESIAN_POINT('',(35.928678599118,17.145726039682,
    19.995717771535));
#1355 = CARTESIAN_POINT('',(36.019907148267,17.175970528136,
    19.964816684188));
#1356 = CARTESIAN_POINT('',(36.109367631284,17.209404531261,
    19.930326096963));
#1357 = CARTESIAN_POINT('',(36.196826039667,17.24584849303,
    19.892297904855));
#1358 = CARTESIAN_POINT('',(36.282075793341,17.285096713901,
    19.850799457986));
#1359 = CARTESIAN_POINT('',(36.364937884644,17.32692194126,
    19.805915422608));
#1360 = CARTESIAN_POINT('',(36.509950457111,17.4066432776,
    19.718958613642));
#1361 = CARTESIAN_POINT('',(36.572982256617,17.443713671793,
    19.678045603774));
#1362 = CARTESIAN_POINT('',(36.634277845194,17.482162283268,
    19.635066677334));
#1363 = CARTESIAN_POINT('',(36.693771454951,17.521853536011,
    19.590085947231));
#1364 = CARTESIAN_POINT('',(36.751410006751,17.562646881363,
    19.543176213453));
#1365 = CARTESIAN_POINT('',(36.80715299122,17.604398542196,
    19.494419602067));
#1366 = CARTESIAN_POINT('',(36.906580194817,17.683033640975,
    19.401103606243));
#1367 = CARTESIAN_POINT('',(36.950805097948,17.719686691887,
    19.35704028242));
#1368 = CARTESIAN_POINT('',(36.993640392364,17.756842102198,
    19.311764691456));
#1369 = CARTESIAN_POINT('',(37.035083885639,17.794419539688,
    19.265326805633));
#1370 = CARTESIAN_POINT('',(37.075137786673,17.832339145728,
    19.217780276832));
#1371 = CARTESIAN_POINT('',(37.113808632659,17.870522033458,
    19.169182602534));
#1372 = CARTESIAN_POINT('',(37.218262660218,17.977973050803,
    19.030314210018));
#1373 = CARTESIAN_POINT('',(37.28093123598,18.04761813689,
    18.937876415908));
#1374 = CARTESIAN_POINT('',(37.339273573863,18.117465301626,
    18.842527458852));
#1375 = CARTESIAN_POINT('',(37.393461894032,18.187177420312,
    18.744526629216));
#1376 = CARTESIAN_POINT('',(37.443679291151,18.256442562033,
    18.644147685629));
#1377 = CARTESIAN_POINT('',(37.490119019236,18.324975565526,
    18.541679582227));
#1378 = CARTESIAN_POINT('',(37.64088880925,18.562550739489,
    18.174988822848));
#1379 = CARTESIAN_POINT('',(37.726041384791,18.726162430386,
    17.901477897779));
#1380 = CARTESIAN_POINT('',(37.792666940805,18.880749425619,
    17.619513395472));
#1381 = CARTESIAN_POINT('',(37.844331431611,19.024898177557,
    17.331144071767));
#1382 = CARTESIAN_POINT('',(37.884039393574,19.157838686339,
    17.037999866884));
#1383 = CARTESIAN_POINT('',(37.914281539313,19.279219807268,
    16.741350251923));
#1384 = CARTESIAN_POINT('',(37.973603614864,19.564359029234,
    15.963569959419));
#1385 = CARTESIAN_POINT('',(37.991224856398,19.710342922877,
    15.477338124662));
#1386 = CARTESIAN_POINT('',(37.998253895827,19.826527151485,
    14.986140730987));
#1387 = CARTESIAN_POINT('',(37.999995854118,19.913326542915,
    14.49174471006));
#1388 = CARTESIAN_POINT('',(38.000000991468,19.971084967532,
    13.99533875279));
#1389 = CARTESIAN_POINT('',(38.,20.,13.497836160491));
#1390 = CARTESIAN_POINT('',(38.,20.,13.));
#1391 = ORIENTED_EDGE('',*,*,#1392,.T.);
#1392 = EDGE_CURVE('',#1302,#1393,#1395,.T.);
#1393 = VERTEX_POINT('',#1394);
#1394 = CARTESIAN_POINT('',(10.,20.,13.));
#1395 = LINE('',#1396,#1397);
#1396 = CARTESIAN_POINT('',(40.,20.,13.));
#1397 = VECTOR('',#1398,1.);
#1398 = DIRECTION('',(-1.,-0.,-0.));
#1399 = ORIENTED_EDGE('',*,*,#1400,.T.);
#1400 = EDGE_CURVE('',#1393,#1401,#1403,.T.);
#1401 = VERTEX_POINT('',#1402);
#1402 = CARTESIAN_POINT('',(10.,15.2360679775,21.519600468038));
#1403 = CIRCLE('',#1404,10.);
#1404 = AXIS2_PLACEMENT_3D('',#1405,#1406,#1407);
#1405 = CARTESIAN_POINT('',(10.,10.,13.));
#1406 = DIRECTION('',(1.,0.,0.));
#1407 = DIRECTION('',(0.,1.,0.));
#1408 = ORIENTED_EDGE('',*,*,#1409,.F.);
#1409 = EDGE_CURVE('',#1410,#1401,#1412,.T.);
#1410 = VERTEX_POINT('',#1411);
#1411 = CARTESIAN_POINT('',(11.,13.,22.539392014169));
#1412 = B_SPLINE_CURVE_WITH_KNOTS('',7,(#1413,#1414,#1415,#1416,#1417,
    #1418,#1419,#1420),.UNSPECIFIED.,.F.,.F.,(8,8),(0.,1.),
  .PIECEWISE_BEZIER_KNOTS.);
#1413 = CARTESIAN_POINT('',(11.,13.,22.539392014169));
#1414 = CARTESIAN_POINT('',(11.,13.407429813195,22.411261265609));
#1415 = CARTESIAN_POINT('',(10.935445355728,13.794205558862,
    22.26731518631));
#1416 = CARTESIAN_POINT('',(10.818111903039,14.152270990299,
    22.112909146646));
#1417 = CARTESIAN_POINT('',(10.657821501122,14.477350541731,
    21.954632936885));
#1418 = CARTESIAN_POINT('',(10.463180861876,14.766921374337,
    21.799114913291));
#1419 = CARTESIAN_POINT('',(10.241700753998,15.019884251039,
    21.652464995151));
#1420 = CARTESIAN_POINT('',(10.,15.2360679775,21.519600468038));
#1421 = ORIENTED_EDGE('',*,*,#1422,.F.);
#1422 = EDGE_CURVE('',#1423,#1410,#1425,.T.);
#1423 = VERTEX_POINT('',#1424);
#1424 = CARTESIAN_POINT('',(10.,10.7639320225,22.970777696098));
#1425 = B_SPLINE_CURVE_WITH_KNOTS('',6,(#1426,#1427,#1428,#1429,#1430,
    #1431,#1432,#1433,#1434,#1435,#1436,#1437),.UNSPECIFIED.,.F.,.F.,(7,
    5,7),(0.,0.518318687185,1.),.UNSPECIFIED.);
#1426 = CARTESIAN_POINT('',(10.,10.7639320225,22.970777696098));
#1427 = CARTESIAN_POINT('',(10.147566768869,10.895919753065,
    22.960665179599));
#1428 = CARTESIAN_POINT('',(10.288573845398,11.043075707747,
    22.947281536052));
#1429 = CARTESIAN_POINT('',(10.420545543317,11.205265002903,
    22.929719006135));
#1430 = CARTESIAN_POINT('',(10.541088430572,11.381977889604,
    22.90692263728));
#1431 = CARTESIAN_POINT('',(10.647875795375,11.572361046086,
    22.877762212469));
#1432 = CARTESIAN_POINT('',(10.822936032241,11.963807635875,
    22.807148847186));
#1433 = CARTESIAN_POINT('',(10.893261228825,12.16285929871,
    22.766765455701));
#1434 = CARTESIAN_POINT('',(10.946963058932,12.369481806264,
    22.71953669047));
#1435 = CARTESIAN_POINT('',(10.982628793786,12.58025592459,
    22.665392336406));
#1436 = CARTESIAN_POINT('',(11.,12.791607678233,22.604928367469));
#1437 = CARTESIAN_POINT('',(11.,13.,22.539392014169));
#1438 = ORIENTED_EDGE('',*,*,#1439,.T.);
#1439 = EDGE_CURVE('',#1423,#1271,#1440,.T.);
#1440 = CIRCLE('',#1441,10.);
#1441 = AXIS2_PLACEMENT_3D('',#1442,#1443,#1444);
#1442 = CARTESIAN_POINT('',(10.,10.,13.));
#1443 = DIRECTION('',(1.,0.,0.));
#1444 = DIRECTION('',(0.,1.,0.));
#1445 = ORIENTED_EDGE('',*,*,#1270,.F.);
#1446 = CYLINDRICAL_SURFACE('',#1447,10.);
#1447 = AXIS2_PLACEMENT_3D('',#1448,#1449,#1450);
#1448 = CARTESIAN_POINT('',(40.,10.,13.));
#1449 = DIRECTION('',(1.,0.,0.));
#1450 = DIRECTION('',(0.,1.,0.));
#1451 = ADVANCED_FACE('',(#1452),#1470,.F.);
#1452 = FACE_BOUND('',#1453,.F.);
#1453 = EDGE_LOOP('',(#1454,#1462,#1468,#1469));
#1454 = ORIENTED_EDGE('',*,*,#1455,.T.);
#1455 = EDGE_CURVE('',#1294,#1456,#1458,.T.);
#1456 = VERTEX_POINT('',#1457);
#1457 = CARTESIAN_POINT('',(38.,20.,8.));
#1458 = LINE('',#1459,#1460);
#1459 = CARTESIAN_POINT('',(38.,20.,23.));
#1460 = VECTOR('',#1461,1.);
#1461 = DIRECTION('',(-0.,-0.,-1.));
#1462 = ORIENTED_EDGE('',*,*,#1463,.T.);
#1463 = EDGE_CURVE('',#1456,#358,#1464,.T.);
#1464 = LINE('',#1465,#1466);
#1465 = CARTESIAN_POINT('',(30.,20.,8.));
#1466 = VECTOR('',#1467,1.);
#1467 = DIRECTION('',(1.,0.,0.));
#1468 = ORIENTED_EDGE('',*,*,#365,.T.);
#1469 = ORIENTED_EDGE('',*,*,#1293,.T.);
#1470 = PLANE('',#1471);
#1471 = AXIS2_PLACEMENT_3D('',#1472,#1473,#1474);
#1472 = CARTESIAN_POINT('',(40.,20.,3.));
#1473 = DIRECTION('',(0.,-1.,0.));
#1474 = DIRECTION('',(-1.,0.,0.));
#1475 = ADVANCED_FACE('',(#1476),#1496,.T.);
#1476 = FACE_BOUND('',#1477,.F.);
#1477 = EDGE_LOOP('',(#1478,#1479,#1488,#1494,#1495));
#1478 = ORIENTED_EDGE('',*,*,#357,.T.);
#1479 = ORIENTED_EDGE('',*,*,#1480,.T.);
#1480 = EDGE_CURVE('',#358,#1481,#1483,.T.);
#1481 = VERTEX_POINT('',#1482);
#1482 = CARTESIAN_POINT('',(30.,20.,8.));
#1483 = CIRCLE('',#1484,5.);
#1484 = AXIS2_PLACEMENT_3D('',#1485,#1486,#1487);
#1485 = CARTESIAN_POINT('',(35.,20.,8.));
#1486 = DIRECTION('',(0.,0.,1.));
#1487 = DIRECTION('',(1.,0.,0.));
#1488 = ORIENTED_EDGE('',*,*,#1489,.F.);
#1489 = EDGE_CURVE('',#841,#1481,#1490,.T.);
#1490 = LINE('',#1491,#1492);
#1491 = CARTESIAN_POINT('',(30.,20.,3.));
#1492 = VECTOR('',#1493,1.);
#1493 = DIRECTION('',(0.,0.,1.));
#1494 = ORIENTED_EDGE('',*,*,#848,.F.);
#1495 = ORIENTED_EDGE('',*,*,#871,.F.);
#1496 = CYLINDRICAL_SURFACE('',#1497,5.);
#1497 = AXIS2_PLACEMENT_3D('',#1498,#1499,#1500);
#1498 = CARTESIAN_POINT('',(35.,20.,3.));
#1499 = DIRECTION('',(-0.,-0.,-1.));
#1500 = DIRECTION('',(1.,0.,0.));
#1501 = ADVANCED_FACE('',(#1502),#1545,.T.);
#1502 = FACE_BOUND('',#1503,.T.);
#1503 = EDGE_LOOP('',(#1504,#1536,#1537,#1538));
#1504 = ORIENTED_EDGE('',*,*,#1505,.F.);
#1505 = EDGE_CURVE('',#558,#1506,#1508,.T.);
#1506 = VERTEX_POINT('',#1507);
#1507 = CARTESIAN_POINT('',(0.,-11.10180165558,3.));
#1508 = B_SPLINE_CURVE_WITH_KNOTS('',6,(#1509,#1510,#1511,#1512,#1513,
    #1514,#1515,#1516,#1517,#1518,#1519,#1520,#1521,#1522,#1523,#1524,
    #1525,#1526,#1527,#1528,#1529,#1530,#1531,#1532,#1533,#1534,#1535),
  .UNSPECIFIED.,.F.,.F.,(7,5,5,5,5,7),(0.,0.352096832899,0.488006401917,
    0.580572677462,0.814315191255,1.),.UNSPECIFIED.);
#1509 = CARTESIAN_POINT('',(3.,-7.952986860293,3.));
#1510 = CARTESIAN_POINT('',(2.717467406448,-7.952986860293,3.));
#1511 = CARTESIAN_POINT('',(2.434819438166,-7.987113840362,3.));
#1512 = CARTESIAN_POINT('',(2.157505464471,-8.055412815996,3.));
#1513 = CARTESIAN_POINT('',(1.890248011913,-8.156165536839,3.));
#1514 = CARTESIAN_POINT('',(1.637208469924,-8.286820617209,3.));
#1515 = CARTESIAN_POINT('',(1.311138471105,-8.504622368914,3.));
#1516 = CARTESIAN_POINT('',(1.222952130664,-8.569243716619,3.));
#1517 = CARTESIAN_POINT('',(1.137580231163,-8.63764790581,3.));
#1518 = CARTESIAN_POINT('',(1.055195585757,-8.709645665179,3.));
#1519 = CARTESIAN_POINT('',(0.975955351859,-8.785041943072,3.));
#1520 = CARTESIAN_POINT('',(0.848272807368,-8.917169755594,3.));
#1521 = CARTESIAN_POINT('',(0.798067791179,-8.972185574501,3.));
#1522 = CARTESIAN_POINT('',(0.749433037356,-9.028623389349,3.));
#1523 = CARTESIAN_POINT('',(0.70241091163,-9.086419961556,3.));
#1524 = CARTESIAN_POINT('',(0.657041051413,-9.145511465945,3.));
#1525 = CARTESIAN_POINT('',(0.503060656775,-9.358154858643,3.));
#1526 = CARTESIAN_POINT('',(0.403533420867,-9.518320874,3.));
#1527 = CARTESIAN_POINT('',(0.315370411614,-9.685298824194,3.));
#1528 = CARTESIAN_POINT('',(0.239069975054,-9.85803286052,3.));
#1529 = CARTESIAN_POINT('',(0.175037641605,-10.03544545126,3.));
#1530 = CARTESIAN_POINT('',(8.271415794792E-02,-10.36021978952,3.));
#1531 = CARTESIAN_POINT('',(4.978142439275E-02,-10.50625992998,3.));
#1532 = CARTESIAN_POINT('',(2.494548161355E-02,-10.65400625686,3.));
#1533 = CARTESIAN_POINT('',(8.32576640806E-03,-10.80289580977,3.));
#1534 = CARTESIAN_POINT('',(0.,-10.95235545205,3.));
#1535 = CARTESIAN_POINT('',(0.,-11.10180165558,3.));
#1536 = ORIENTED_EDGE('',*,*,#565,.T.);
#1537 = ORIENTED_EDGE('',*,*,#943,.T.);
#1538 = ORIENTED_EDGE('',*,*,#1539,.F.);
#1539 = EDGE_CURVE('',#1506,#944,#1540,.T.);
#1540 = CIRCLE('',#1541,11.5);
#1541 = AXIS2_PLACEMENT_3D('',#1542,#1543,#1544);
#1542 = CARTESIAN_POINT('',(0.,0.,0.));
#1543 = DIRECTION('',(1.,0.,0.));
#1544 = DIRECTION('',(0.,-0.935645512976,0.352941176471));
#1545 = TOROIDAL_SURFACE('',#1546,11.5,3.);
#1546 = AXIS2_PLACEMENT_3D('',#1547,#1548,#1549);
#1547 = CARTESIAN_POINT('',(3.,0.,0.));
#1548 = DIRECTION('',(1.,0.,0.));
#1549 = DIRECTION('',(0.,-0.935645512976,0.352941176471));
#1550 = ADVANCED_FACE('',(#1551,#1619),#1630,.T.);
#1551 = FACE_BOUND('',#1552,.T.);
#1552 = EDGE_LOOP('',(#1553,#1554,#1555,#1563,#1572,#1578,#1579,#1587,
    #1595,#1604,#1613));
#1553 = ORIENTED_EDGE('',*,*,#557,.F.);
#1554 = ORIENTED_EDGE('',*,*,#1505,.T.);
#1555 = ORIENTED_EDGE('',*,*,#1556,.T.);
#1556 = EDGE_CURVE('',#1506,#1557,#1559,.T.);
#1557 = VERTEX_POINT('',#1558);
#1558 = CARTESIAN_POINT('',(-4.440892098501E-16,-22.,3.));
#1559 = LINE('',#1560,#1561);
#1560 = CARTESIAN_POINT('',(0.,25.,3.));
#1561 = VECTOR('',#1562,1.);
#1562 = DIRECTION('',(0.,-1.,0.));
#1563 = ORIENTED_EDGE('',*,*,#1564,.T.);
#1564 = EDGE_CURVE('',#1557,#1565,#1567,.T.);
#1565 = VERTEX_POINT('',#1566);
#1566 = CARTESIAN_POINT('',(3.,-25.,3.));
#1567 = CIRCLE('',#1568,3.);
#1568 = AXIS2_PLACEMENT_3D('',#1569,#1570,#1571);
#1569 = CARTESIAN_POINT('',(3.,-22.,3.));
#1570 = DIRECTION('',(-0.,0.,1.));
#1571 = DIRECTION('',(0.,-1.,0.));
#1572 = ORIENTED_EDGE('',*,*,#1573,.T.);
#1573 = EDGE_CURVE('',#1565,#998,#1574,.T.);
#1574 = LINE('',#1575,#1576);
#1575 = CARTESIAN_POINT('',(0.,-25.,3.));
#1576 = VECTOR('',#1577,1.);
#1577 = DIRECTION('',(1.,0.,0.));
#1578 = ORIENTED_EDGE('',*,*,#1055,.F.);
#1579 = ORIENTED_EDGE('',*,*,#1580,.F.);
#1580 = EDGE_CURVE('',#1581,#1031,#1583,.T.);
#1581 = VERTEX_POINT('',#1582);
#1582 = CARTESIAN_POINT('',(10.,-20.,3.));
#1583 = LINE('',#1584,#1585);
#1584 = CARTESIAN_POINT('',(10.,-20.,3.));
#1585 = VECTOR('',#1586,1.);
#1586 = DIRECTION('',(1.,0.,0.));
#1587 = ORIENTED_EDGE('',*,*,#1588,.F.);
#1588 = EDGE_CURVE('',#1589,#1581,#1591,.T.);
#1589 = VERTEX_POINT('',#1590);
#1590 = CARTESIAN_POINT('',(10.,-15.2360679775,3.));
#1591 = LINE('',#1592,#1593);
#1592 = CARTESIAN_POINT('',(10.,20.,3.));
#1593 = VECTOR('',#1594,1.);
#1594 = DIRECTION('',(0.,-1.,0.));
#1595 = ORIENTED_EDGE('',*,*,#1596,.T.);
#1596 = EDGE_CURVE('',#1589,#1597,#1599,.T.);
#1597 = VERTEX_POINT('',#1598);
#1598 = CARTESIAN_POINT('',(11.,-13.,3.));
#1599 = CIRCLE('',#1600,3.);
#1600 = AXIS2_PLACEMENT_3D('',#1601,#1602,#1603);
#1601 = CARTESIAN_POINT('',(8.,-13.,3.));
#1602 = DIRECTION('',(0.,0.,1.));
#1603 = DIRECTION('',(1.,0.,0.));
#1604 = ORIENTED_EDGE('',*,*,#1605,.T.);
#1605 = EDGE_CURVE('',#1597,#1606,#1608,.T.);
#1606 = VERTEX_POINT('',#1607);
#1607 = CARTESIAN_POINT('',(10.,-10.7639320225,3.));
#1608 = CIRCLE('',#1609,3.);
#1609 = AXIS2_PLACEMENT_3D('',#1610,#1611,#1612);
#1610 = CARTESIAN_POINT('',(8.,-13.,3.));
#1611 = DIRECTION('',(0.,0.,1.));
#1612 = DIRECTION('',(1.,0.,0.));
#1613 = ORIENTED_EDGE('',*,*,#1614,.F.);
#1614 = EDGE_CURVE('',#549,#1606,#1615,.T.);
#1615 = LINE('',#1616,#1617);
#1616 = CARTESIAN_POINT('',(10.,20.,3.));
#1617 = VECTOR('',#1618,1.);
#1618 = DIRECTION('',(0.,-1.,0.));
#1619 = FACE_BOUND('',#1620,.T.);
#1620 = EDGE_LOOP('',(#1621));
#1621 = ORIENTED_EDGE('',*,*,#1622,.T.);
#1622 = EDGE_CURVE('',#1623,#1623,#1625,.T.);
#1623 = VERTEX_POINT('',#1624);
#1624 = CARTESIAN_POINT('',(9.55,-13.,3.));
#1625 = CIRCLE('',#1626,1.55);
#1626 = AXIS2_PLACEMENT_3D('',#1627,#1628,#1629);
#1627 = CARTESIAN_POINT('',(8.,-13.,3.));
#1628 = DIRECTION('',(0.,0.,-1.));
#1629 = DIRECTION('',(1.,0.,0.));
#1630 = PLANE('',#1631);
#1631 = AXIS2_PLACEMENT_3D('',#1632,#1633,#1634);
#1632 = CARTESIAN_POINT('',(17.069640340392,-19.6528129041,3.));
#1633 = DIRECTION('',(0.,0.,1.));
#1634 = DIRECTION('',(1.,0.,0.));
#1635 = ADVANCED_FACE('',(#1636),#1656,.F.);
#1636 = FACE_BOUND('',#1637,.F.);
#1637 = EDGE_LOOP('',(#1638,#1639,#1645,#1646,#1647,#1648,#1654,#1655));
#1638 = ORIENTED_EDGE('',*,*,#806,.F.);
#1639 = ORIENTED_EDGE('',*,*,#1640,.F.);
#1640 = EDGE_CURVE('',#1423,#807,#1641,.T.);
#1641 = LINE('',#1642,#1643);
#1642 = CARTESIAN_POINT('',(10.,10.7639320225,3.));
#1643 = VECTOR('',#1644,1.);
#1644 = DIRECTION('',(-0.,-0.,-1.));
#1645 = ORIENTED_EDGE('',*,*,#1439,.T.);
#1646 = ORIENTED_EDGE('',*,*,#1278,.T.);
#1647 = ORIENTED_EDGE('',*,*,#1110,.T.);
#1648 = ORIENTED_EDGE('',*,*,#1649,.T.);
#1649 = EDGE_CURVE('',#1111,#1606,#1650,.T.);
#1650 = LINE('',#1651,#1652);
#1651 = CARTESIAN_POINT('',(10.,-10.7639320225,3.));
#1652 = VECTOR('',#1653,1.);
#1653 = DIRECTION('',(-0.,-0.,-1.));
#1654 = ORIENTED_EDGE('',*,*,#1614,.F.);
#1655 = ORIENTED_EDGE('',*,*,#548,.F.);
#1656 = PLANE('',#1657);
#1657 = AXIS2_PLACEMENT_3D('',#1658,#1659,#1660);
#1658 = CARTESIAN_POINT('',(10.,20.,3.));
#1659 = DIRECTION('',(1.,0.,0.));
#1660 = DIRECTION('',(0.,-1.,0.));
#1661 = ADVANCED_FACE('',(#1662,#1681),#1685,.T.);
#1662 = FACE_BOUND('',#1663,.T.);
#1663 = EDGE_LOOP('',(#1664,#1673,#1674,#1675));
#1664 = ORIENTED_EDGE('',*,*,#1665,.T.);
#1665 = EDGE_CURVE('',#1666,#1456,#1668,.T.);
#1666 = VERTEX_POINT('',#1667);
#1667 = CARTESIAN_POINT('',(32.,20.,8.));
#1668 = CIRCLE('',#1669,3.);
#1669 = AXIS2_PLACEMENT_3D('',#1670,#1671,#1672);
#1670 = CARTESIAN_POINT('',(35.,20.,8.));
#1671 = DIRECTION('',(0.,0.,1.));
#1672 = DIRECTION('',(1.,0.,0.));
#1673 = ORIENTED_EDGE('',*,*,#1463,.T.);
#1674 = ORIENTED_EDGE('',*,*,#1480,.T.);
#1675 = ORIENTED_EDGE('',*,*,#1676,.T.);
#1676 = EDGE_CURVE('',#1481,#1666,#1677,.T.);
#1677 = LINE('',#1678,#1679);
#1678 = CARTESIAN_POINT('',(30.,20.,8.));
#1679 = VECTOR('',#1680,1.);
#1680 = DIRECTION('',(1.,0.,0.));
#1681 = FACE_BOUND('',#1682,.T.);
#1682 = EDGE_LOOP('',(#1683,#1684));
#1683 = ORIENTED_EDGE('',*,*,#783,.F.);
#1684 = ORIENTED_EDGE('',*,*,#772,.T.);
#1685 = PLANE('',#1686);
#1686 = AXIS2_PLACEMENT_3D('',#1687,#1688,#1689);
#1687 = CARTESIAN_POINT('',(35.,20.989743318611,8.));
#1688 = DIRECTION('',(0.,0.,1.));
#1689 = DIRECTION('',(1.,0.,0.));
#1690 = ADVANCED_FACE('',(#1691),#1704,.F.);
#1691 = FACE_BOUND('',#1692,.T.);
#1692 = EDGE_LOOP('',(#1693,#1694,#1700,#1701,#1702,#1703));
#1693 = ORIENTED_EDGE('',*,*,#1409,.T.);
#1694 = ORIENTED_EDGE('',*,*,#1695,.T.);
#1695 = EDGE_CURVE('',#1401,#824,#1696,.T.);
#1696 = LINE('',#1697,#1698);
#1697 = CARTESIAN_POINT('',(10.,15.2360679775,3.));
#1698 = VECTOR('',#1699,1.);
#1699 = DIRECTION('',(-0.,-0.,-1.));
#1700 = ORIENTED_EDGE('',*,*,#823,.F.);
#1701 = ORIENTED_EDGE('',*,*,#814,.F.);
#1702 = ORIENTED_EDGE('',*,*,#1640,.F.);
#1703 = ORIENTED_EDGE('',*,*,#1422,.T.);
#1704 = CYLINDRICAL_SURFACE('',#1705,3.);
#1705 = AXIS2_PLACEMENT_3D('',#1706,#1707,#1708);
#1706 = CARTESIAN_POINT('',(8.,13.,3.));
#1707 = DIRECTION('',(-0.,-0.,-1.));
#1708 = DIRECTION('',(1.,0.,0.));
#1709 = ADVANCED_FACE('',(#1710),#1721,.F.);
#1710 = FACE_BOUND('',#1711,.F.);
#1711 = EDGE_LOOP('',(#1712,#1713,#1719,#1720));
#1712 = ORIENTED_EDGE('',*,*,#832,.F.);
#1713 = ORIENTED_EDGE('',*,*,#1714,.T.);
#1714 = EDGE_CURVE('',#833,#1393,#1715,.T.);
#1715 = LINE('',#1716,#1717);
#1716 = CARTESIAN_POINT('',(10.,20.,3.));
#1717 = VECTOR('',#1718,1.);
#1718 = DIRECTION('',(0.,0.,1.));
#1719 = ORIENTED_EDGE('',*,*,#1400,.T.);
#1720 = ORIENTED_EDGE('',*,*,#1695,.T.);
#1721 = PLANE('',#1722);
#1722 = AXIS2_PLACEMENT_3D('',#1723,#1724,#1725);
#1723 = CARTESIAN_POINT('',(10.,20.,3.));
#1724 = DIRECTION('',(1.,0.,0.));
#1725 = DIRECTION('',(0.,-1.,0.));
#1726 = ADVANCED_FACE('',(#1727),#1740,.F.);
#1727 = FACE_BOUND('',#1728,.F.);
#1728 = EDGE_LOOP('',(#1729,#1730,#1731,#1732,#1738,#1739));
#1729 = ORIENTED_EDGE('',*,*,#840,.F.);
#1730 = ORIENTED_EDGE('',*,*,#1489,.T.);
#1731 = ORIENTED_EDGE('',*,*,#1676,.T.);
#1732 = ORIENTED_EDGE('',*,*,#1733,.T.);
#1733 = EDGE_CURVE('',#1666,#1302,#1734,.T.);
#1734 = LINE('',#1735,#1736);
#1735 = CARTESIAN_POINT('',(32.,20.,23.));
#1736 = VECTOR('',#1737,1.);
#1737 = DIRECTION('',(0.,0.,1.));
#1738 = ORIENTED_EDGE('',*,*,#1392,.T.);
#1739 = ORIENTED_EDGE('',*,*,#1714,.F.);
#1740 = PLANE('',#1741);
#1741 = AXIS2_PLACEMENT_3D('',#1742,#1743,#1744);
#1742 = CARTESIAN_POINT('',(40.,20.,3.));
#1743 = DIRECTION('',(0.,-1.,0.));
#1744 = DIRECTION('',(-1.,0.,0.));
#1745 = ADVANCED_FACE('',(#1746),#1757,.F.);
#1746 = FACE_BOUND('',#1747,.F.);
#1747 = EDGE_LOOP('',(#1748,#1749,#1755,#1756));
#1748 = ORIENTED_EDGE('',*,*,#886,.F.);
#1749 = ORIENTED_EDGE('',*,*,#1750,.T.);
#1750 = EDGE_CURVE('',#887,#1565,#1751,.T.);
#1751 = LINE('',#1752,#1753);
#1752 = CARTESIAN_POINT('',(3.,-25.,0.));
#1753 = VECTOR('',#1754,1.);
#1754 = DIRECTION('',(0.,0.,1.));
#1755 = ORIENTED_EDGE('',*,*,#1573,.T.);
#1756 = ORIENTED_EDGE('',*,*,#1007,.F.);
#1757 = PLANE('',#1758);
#1758 = AXIS2_PLACEMENT_3D('',#1759,#1760,#1761);
#1759 = CARTESIAN_POINT('',(0.,-25.,0.));
#1760 = DIRECTION('',(0.,1.,0.));
#1761 = DIRECTION('',(1.,0.,0.));
#1762 = ADVANCED_FACE('',(#1763),#1774,.T.);
#1763 = FACE_BOUND('',#1764,.T.);
#1764 = EDGE_LOOP('',(#1765,#1766,#1767,#1768));
#1765 = ORIENTED_EDGE('',*,*,#960,.T.);
#1766 = ORIENTED_EDGE('',*,*,#1750,.T.);
#1767 = ORIENTED_EDGE('',*,*,#1564,.F.);
#1768 = ORIENTED_EDGE('',*,*,#1769,.F.);
#1769 = EDGE_CURVE('',#953,#1557,#1770,.T.);
#1770 = LINE('',#1771,#1772);
#1771 = CARTESIAN_POINT('',(-4.440892098501E-16,-22.,0.));
#1772 = VECTOR('',#1773,1.);
#1773 = DIRECTION('',(0.,0.,1.));
#1774 = CYLINDRICAL_SURFACE('',#1775,3.);
#1775 = AXIS2_PLACEMENT_3D('',#1776,#1777,#1778);
#1776 = CARTESIAN_POINT('',(3.,-22.,0.));
#1777 = DIRECTION('',(0.,0.,1.));
#1778 = DIRECTION('',(-1.,0.,0.));
#1779 = ADVANCED_FACE('',(#1780),#1786,.F.);
#1780 = FACE_BOUND('',#1781,.F.);
#1781 = EDGE_LOOP('',(#1782,#1783,#1784,#1785));
#1782 = ORIENTED_EDGE('',*,*,#952,.F.);
#1783 = ORIENTED_EDGE('',*,*,#1539,.F.);
#1784 = ORIENTED_EDGE('',*,*,#1556,.T.);
#1785 = ORIENTED_EDGE('',*,*,#1769,.F.);
#1786 = PLANE('',#1787);
#1787 = AXIS2_PLACEMENT_3D('',#1788,#1789,#1790);
#1788 = CARTESIAN_POINT('',(0.,25.,0.));
#1789 = DIRECTION('',(1.,0.,0.));
#1790 = DIRECTION('',(0.,-1.,0.));
#1791 = ADVANCED_FACE('',(#1792),#1819,.F.);
#1792 = FACE_BOUND('',#1793,.F.);
#1793 = EDGE_LOOP('',(#1794,#1805,#1810,#1811,#1812));
#1794 = ORIENTED_EDGE('',*,*,#1795,.T.);
#1795 = EDGE_CURVE('',#1796,#1798,#1800,.T.);
#1796 = VERTEX_POINT('',#1797);
#1797 = CARTESIAN_POINT('',(33.45,-20.,8.));
#1798 = VERTEX_POINT('',#1799);
#1799 = CARTESIAN_POINT('',(36.55,-20.,8.));
#1800 = CIRCLE('',#1801,1.55);
#1801 = AXIS2_PLACEMENT_3D('',#1802,#1803,#1804);
#1802 = CARTESIAN_POINT('',(35.,-20.,8.));
#1803 = DIRECTION('',(0.,0.,-1.));
#1804 = DIRECTION('',(1.,0.,0.));
#1805 = ORIENTED_EDGE('',*,*,#1806,.T.);
#1806 = EDGE_CURVE('',#1798,#970,#1807,.T.);
#1807 = B_SPLINE_CURVE_WITH_KNOTS('',1,(#1808,#1809),.UNSPECIFIED.,.F.,
  .F.,(2,2),(-8.,0.),.PIECEWISE_BEZIER_KNOTS.);
#1808 = CARTESIAN_POINT('',(36.55,-20.,8.));
#1809 = CARTESIAN_POINT('',(36.55,-20.,0.));
#1810 = ORIENTED_EDGE('',*,*,#969,.F.);
#1811 = ORIENTED_EDGE('',*,*,#1806,.F.);
#1812 = ORIENTED_EDGE('',*,*,#1813,.F.);
#1813 = EDGE_CURVE('',#1796,#1798,#1814,.T.);
#1814 = CIRCLE('',#1815,1.55);
#1815 = AXIS2_PLACEMENT_3D('',#1816,#1817,#1818);
#1816 = CARTESIAN_POINT('',(35.,-20.,8.));
#1817 = DIRECTION('',(0.,0.,1.));
#1818 = DIRECTION('',(1.,0.,0.));
#1819 = CYLINDRICAL_SURFACE('',#1820,1.55);
#1820 = AXIS2_PLACEMENT_3D('',#1821,#1822,#1823);
#1821 = CARTESIAN_POINT('',(35.,-20.,0.));
#1822 = DIRECTION('',(0.,0.,-1.));
#1823 = DIRECTION('',(1.,0.,0.));
#1824 = ADVANCED_FACE('',(#1825),#1836,.F.);
#1825 = FACE_BOUND('',#1826,.F.);
#1826 = EDGE_LOOP('',(#1827,#1833,#1834,#1835));
#1827 = ORIENTED_EDGE('',*,*,#1828,.F.);
#1828 = EDGE_CURVE('',#981,#1623,#1829,.T.);
#1829 = LINE('',#1830,#1831);
#1830 = CARTESIAN_POINT('',(9.55,-13.,0.));
#1831 = VECTOR('',#1832,1.);
#1832 = DIRECTION('',(0.,0.,1.));
#1833 = ORIENTED_EDGE('',*,*,#980,.F.);
#1834 = ORIENTED_EDGE('',*,*,#1828,.T.);
#1835 = ORIENTED_EDGE('',*,*,#1622,.T.);
#1836 = CYLINDRICAL_SURFACE('',#1837,1.55);
#1837 = AXIS2_PLACEMENT_3D('',#1838,#1839,#1840);
#1838 = CARTESIAN_POINT('',(8.,-13.,0.));
#1839 = DIRECTION('',(0.,0.,-1.));
#1840 = DIRECTION('',(1.,0.,0.));
#1841 = ADVANCED_FACE('',(#1842),#1846,.T.);
#1842 = FACE_BOUND('',#1843,.T.);
#1843 = EDGE_LOOP('',(#1844,#1845));
#1844 = ORIENTED_EDGE('',*,*,#997,.F.);
#1845 = ORIENTED_EDGE('',*,*,#1048,.F.);
#1846 = PLANE('',#1847);
#1847 = AXIS2_PLACEMENT_3D('',#1848,#1849,#1850);
#1848 = CARTESIAN_POINT('',(17.069640340392,-19.6528129041,3.));
#1849 = DIRECTION('',(0.,0.,1.));
#1850 = DIRECTION('',(1.,0.,0.));
#1851 = ADVANCED_FACE('',(#1852),#1877,.F.);
#1852 = FACE_BOUND('',#1853,.F.);
#1853 = EDGE_LOOP('',(#1854,#1855,#1861,#1862,#1870,#1876));
#1854 = ORIENTED_EDGE('',*,*,#1580,.F.);
#1855 = ORIENTED_EDGE('',*,*,#1856,.T.);
#1856 = EDGE_CURVE('',#1581,#1154,#1857,.T.);
#1857 = LINE('',#1858,#1859);
#1858 = CARTESIAN_POINT('',(10.,-20.,3.));
#1859 = VECTOR('',#1860,1.);
#1860 = DIRECTION('',(0.,0.,1.));
#1861 = ORIENTED_EDGE('',*,*,#1162,.F.);
#1862 = ORIENTED_EDGE('',*,*,#1863,.F.);
#1863 = EDGE_CURVE('',#1864,#1163,#1866,.T.);
#1864 = VERTEX_POINT('',#1865);
#1865 = CARTESIAN_POINT('',(32.,-20.,8.));
#1866 = LINE('',#1867,#1868);
#1867 = CARTESIAN_POINT('',(32.,-20.,23.));
#1868 = VECTOR('',#1869,1.);
#1869 = DIRECTION('',(0.,0.,1.));
#1870 = ORIENTED_EDGE('',*,*,#1871,.F.);
#1871 = EDGE_CURVE('',#1033,#1864,#1872,.T.);
#1872 = LINE('',#1873,#1874);
#1873 = CARTESIAN_POINT('',(30.,-20.,8.));
#1874 = VECTOR('',#1875,1.);
#1875 = DIRECTION('',(1.,0.,0.));
#1876 = ORIENTED_EDGE('',*,*,#1030,.F.);
#1877 = PLANE('',#1878);
#1878 = AXIS2_PLACEMENT_3D('',#1879,#1880,#1881);
#1879 = CARTESIAN_POINT('',(10.,-20.,3.));
#1880 = DIRECTION('',(0.,1.,0.));
#1881 = DIRECTION('',(1.,0.,0.));
#1882 = ADVANCED_FACE('',(#1883,#1895),#1899,.T.);
#1883 = FACE_BOUND('',#1884,.T.);
#1884 = EDGE_LOOP('',(#1885,#1886,#1887,#1888));
#1885 = ORIENTED_EDGE('',*,*,#1871,.F.);
#1886 = ORIENTED_EDGE('',*,*,#1040,.T.);
#1887 = ORIENTED_EDGE('',*,*,#1071,.F.);
#1888 = ORIENTED_EDGE('',*,*,#1889,.T.);
#1889 = EDGE_CURVE('',#1072,#1864,#1890,.T.);
#1890 = CIRCLE('',#1891,3.);
#1891 = AXIS2_PLACEMENT_3D('',#1892,#1893,#1894);
#1892 = CARTESIAN_POINT('',(35.,-20.,8.));
#1893 = DIRECTION('',(0.,0.,1.));
#1894 = DIRECTION('',(1.,0.,0.));
#1895 = FACE_BOUND('',#1896,.T.);
#1896 = EDGE_LOOP('',(#1897,#1898));
#1897 = ORIENTED_EDGE('',*,*,#1813,.F.);
#1898 = ORIENTED_EDGE('',*,*,#1795,.T.);
#1899 = PLANE('',#1900);
#1900 = AXIS2_PLACEMENT_3D('',#1901,#1902,#1903);
#1901 = CARTESIAN_POINT('',(35.,-20.98974331861,8.));
#1902 = DIRECTION('',(0.,0.,1.));
#1903 = DIRECTION('',(1.,0.,0.));
#1904 = ADVANCED_FACE('',(#1905),#1911,.F.);
#1905 = FACE_BOUND('',#1906,.F.);
#1906 = EDGE_LOOP('',(#1907,#1908,#1909,#1910));
#1907 = ORIENTED_EDGE('',*,*,#1170,.F.);
#1908 = ORIENTED_EDGE('',*,*,#1079,.T.);
#1909 = ORIENTED_EDGE('',*,*,#1889,.T.);
#1910 = ORIENTED_EDGE('',*,*,#1863,.T.);
#1911 = CYLINDRICAL_SURFACE('',#1912,3.);
#1912 = AXIS2_PLACEMENT_3D('',#1913,#1914,#1915);
#1913 = CARTESIAN_POINT('',(35.,-20.,23.));
#1914 = DIRECTION('',(0.,0.,1.));
#1915 = DIRECTION('',(1.,0.,0.));
#1916 = ADVANCED_FACE('',(#1917),#1928,.F.);
#1917 = FACE_BOUND('',#1918,.F.);
#1918 = EDGE_LOOP('',(#1919,#1925,#1926,#1927));
#1919 = ORIENTED_EDGE('',*,*,#1920,.F.);
#1920 = EDGE_CURVE('',#1137,#1589,#1921,.T.);
#1921 = LINE('',#1922,#1923);
#1922 = CARTESIAN_POINT('',(10.,-15.2360679775,3.));
#1923 = VECTOR('',#1924,1.);
#1924 = DIRECTION('',(-0.,-0.,-1.));
#1925 = ORIENTED_EDGE('',*,*,#1153,.T.);
#1926 = ORIENTED_EDGE('',*,*,#1856,.F.);
#1927 = ORIENTED_EDGE('',*,*,#1588,.F.);
#1928 = PLANE('',#1929);
#1929 = AXIS2_PLACEMENT_3D('',#1930,#1931,#1932);
#1930 = CARTESIAN_POINT('',(10.,20.,3.));
#1931 = DIRECTION('',(1.,0.,0.));
#1932 = DIRECTION('',(0.,-1.,0.));
#1933 = ADVANCED_FACE('',(#1934),#1942,.F.);
#1934 = FACE_BOUND('',#1935,.T.);
#1935 = EDGE_LOOP('',(#1936,#1937,#1938,#1939,#1940,#1941));
#1936 = ORIENTED_EDGE('',*,*,#1596,.F.);
#1937 = ORIENTED_EDGE('',*,*,#1920,.F.);
#1938 = ORIENTED_EDGE('',*,*,#1136,.T.);
#1939 = ORIENTED_EDGE('',*,*,#1119,.T.);
#1940 = ORIENTED_EDGE('',*,*,#1649,.T.);
#1941 = ORIENTED_EDGE('',*,*,#1605,.F.);
#1942 = CYLINDRICAL_SURFACE('',#1943,3.);
#1943 = AXIS2_PLACEMENT_3D('',#1944,#1945,#1946);
#1944 = CARTESIAN_POINT('',(8.,-13.,3.));
#1945 = DIRECTION('',(-0.,-0.,-1.));
#1946 = DIRECTION('',(1.,0.,0.));
#1947 = ADVANCED_FACE('',(#1948),#1954,.F.);
#1948 = FACE_BOUND('',#1949,.F.);
#1949 = EDGE_LOOP('',(#1950,#1951,#1952,#1953));
#1950 = ORIENTED_EDGE('',*,*,#1665,.T.);
#1951 = ORIENTED_EDGE('',*,*,#1455,.F.);
#1952 = ORIENTED_EDGE('',*,*,#1301,.F.);
#1953 = ORIENTED_EDGE('',*,*,#1733,.F.);
#1954 = CYLINDRICAL_SURFACE('',#1955,3.);
#1955 = AXIS2_PLACEMENT_3D('',#1956,#1957,#1958);
#1956 = CARTESIAN_POINT('',(35.,20.,23.));
#1957 = DIRECTION('',(0.,0.,1.));
#1958 = DIRECTION('',(1.,0.,0.));
#1959 = ( GEOMETRIC_REPRESENTATION_CONTEXT(3) 
GLOBAL_UNCERTAINTY_ASSIGNED_CONTEXT((#1963)) 
GLOBAL_UNIT_ASSIGNED_CONTEXT((#1960,#1961,#1962)) REPRESENTATION_CONTEXT
('Context #1','3D Context with UNIT and UNCERTAINTY') );
#1960 = ( LENGTH_UNIT() NAMED_UNIT(*) SI_UNIT(.MILLI.,.METRE.) );
#1961 = ( NAMED_UNIT(*) PLANE_ANGLE_UNIT() SI_UNIT($,.RADIAN.) );
#1962 = ( NAMED_UNIT(*) SI_UNIT($,.STERADIAN.) SOLID_ANGLE_UNIT() );
#1963 = UNCERTAINTY_MEASURE_WITH_UNIT(LENGTH_MEASURE(1.E-07),#1960,
  'distance_accuracy_value','confusion accuracy');
#1964 = PRODUCT_RELATED_PRODUCT_CATEGORY('detail',$,(#7));
#1965 = PRODUCT_CATEGORY_RELATIONSHIP('','',#1966,#1964);
#1966 = PRODUCT_CATEGORY('part',$);
#1967 = CC_DESIGN_PERSON_AND_ORGANIZATION_ASSIGNMENT(#1968,#1971,(#6,#5)
  );
#1968 = PERSON_AND_ORGANIZATION(#1969,#1970);
#1969 = PERSON('IP169.254.190,karol','','karol',$,$,$);
#1970 = ORGANIZATION('IP169.254.190','Unspecified','');
#1971 = PERSON_AND_ORGANIZATION_ROLE('creator');
#1972 = CC_DESIGN_PERSON_AND_ORGANIZATION_ASSIGNMENT(#1968,#1973,(#7));
#1973 = PERSON_AND_ORGANIZATION_ROLE('design_owner');
#1974 = CC_DESIGN_PERSON_AND_ORGANIZATION_ASSIGNMENT(#1968,#1975,(#6));
#1975 = PERSON_AND_ORGANIZATION_ROLE('design_supplier');
#1976 = CC_DESIGN_PERSON_AND_ORGANIZATION_ASSIGNMENT(#1968,#1977,(#1978)
  );
#1977 = PERSON_AND_ORGANIZATION_ROLE('classification_officer');
#1978 = SECURITY_CLASSIFICATION('','',#1979);
#1979 = SECURITY_CLASSIFICATION_LEVEL('unclassified');
#1980 = CC_DESIGN_SECURITY_CLASSIFICATION(#1978,(#6));
#1981 = CC_DESIGN_DATE_AND_TIME_ASSIGNMENT(#1982,#1986,(#5));
#1982 = DATE_AND_TIME(#1983,#1984);
#1983 = CALENDAR_DATE(2026,23,5);
#1984 = LOCAL_TIME(14,32,$,#1985);
#1985 = COORDINATED_UNIVERSAL_TIME_OFFSET(1,$,.AHEAD.);
#1986 = DATE_TIME_ROLE('creation_date');
#1987 = CC_DESIGN_DATE_AND_TIME_ASSIGNMENT(#1982,#1988,(#1978));
#1988 = DATE_TIME_ROLE('classification_date');
#1989 = CC_DESIGN_APPROVAL(#1990,(#6,#5,#1978));
#1990 = APPROVAL(#1991,'');
#1991 = APPROVAL_STATUS('not_yet_approved');
#1992 = APPROVAL_PERSON_ORGANIZATION(#1968,#1990,#1993);
#1993 = APPROVAL_ROLE('approver');
#1994 = APPROVAL_DATE_TIME(#1982,#1990);
#1995 = MECHANICAL_DESIGN_GEOMETRIC_PRESENTATION_REPRESENTATION('',(
    #1996),#1959);
#1996 = STYLED_ITEM('color',(#1997),#15);
#1997 = PRESENTATION_STYLE_ASSIGNMENT((#1998,#2004));
#1998 = SURFACE_STYLE_USAGE(.BOTH.,#1999);
#1999 = SURFACE_SIDE_STYLE('',(#2000));
#2000 = SURFACE_STYLE_FILL_AREA(#2001);
#2001 = FILL_AREA_STYLE('',(#2002));
#2002 = FILL_AREA_STYLE_COLOUR('',#2003);
#2003 = COLOUR_RGB('',0.447059003357,0.474510015008,0.501960993452);
#2004 = CURVE_STYLE('',#2005,POSITIVE_LENGTH_MEASURE(0.1),#2006);
#2005 = DRAUGHTING_PRE_DEFINED_CURVE_FONT('continuous');
#2006 = COLOUR_RGB('',9.803921802644E-02,9.803921802644E-02,
  9.803921802644E-02);
ENDSEC;
END-ISO-10303-21;
