ISO-10303-21;
HEADER;
FILE_DESCRIPTION(('FreeCAD Model'),'2;1');
FILE_NAME('Open CASCADE Shape Model','2026-03-28T16:40:59',(''),(''),
  'Open CASCADE STEP processor 7.8','FreeCAD','Unknown');
FILE_SCHEMA(('CONFIG_CONTROL_DESIGN','SHAPE_APPEARANCE_LAYER_MIM'));
ENDSEC;
DATA;
#1 = APPLICATION_PROTOCOL_DEFINITION('international standard',
  'config_control_design',1994,#2);
#2 = APPLICATION_CONTEXT(
'configuration controlled 3D designs of mechanical parts and assemblies'
  );
#3 = SHAPE_DEFINITION_REPRESENTATION(#4,#10);
#4 = PRODUCT_DEFINITION_SHAPE('','',#5);
#5 = PRODUCT_DEFINITION('design','',#6,#9);
#6 = PRODUCT_DEFINITION_FORMATION_WITH_SPECIFIED_SOURCE('','',#7,
  .NOT_KNOWN.);
#7 = PRODUCT('Zawartość','Zawartość','',(#8));
#8 = MECHANICAL_CONTEXT('',#2,'mechanical');
#9 = DESIGN_CONTEXT('',#2,'design');
#10 = ADVANCED_BREP_SHAPE_REPRESENTATION('',(#11,#15),#1770);
#11 = AXIS2_PLACEMENT_3D('',#12,#13,#14);
#12 = CARTESIAN_POINT('',(0.,0.,0.));
#13 = DIRECTION('',(0.,0.,1.));
#14 = DIRECTION('',(1.,0.,-0.));
#15 = MANIFOLD_SOLID_BREP('',#16);
#16 = CLOSED_SHELL('',(#17,#108,#178,#203,#229,#291,#499,#642,#659,#709,
    #726,#738,#750,#767,#787,#848,#865,#909,#970,#1010,#1054,#1071,#1111
    ,#1172,#1189,#1233,#1268,#1314,#1360,#1406,#1426,#1443,#1489,#1506,
    #1552,#1569,#1586,#1603,#1649,#1666,#1683,#1695,#1712,#1724,#1741,
    #1753));
#17 = ADVANCED_FACE('',(#18),#103,.T.);
#18 = FACE_BOUND('',#19,.T.);
#19 = EDGE_LOOP('',(#20,#30,#38,#46,#54,#62,#70,#78));
#20 = ORIENTED_EDGE('',*,*,#21,.F.);
#21 = EDGE_CURVE('',#22,#24,#26,.T.);
#22 = VERTEX_POINT('',#23);
#23 = CARTESIAN_POINT('',(32.,-3.5,15.));
#24 = VERTEX_POINT('',#25);
#25 = CARTESIAN_POINT('',(27.780388766178,-3.5,15.));
#26 = LINE('',#27,#28);
#27 = CARTESIAN_POINT('',(34.,-3.5,15.));
#28 = VECTOR('',#29,1.);
#29 = DIRECTION('',(-1.,0.,0.));
#30 = ORIENTED_EDGE('',*,*,#31,.T.);
#31 = EDGE_CURVE('',#22,#32,#34,.T.);
#32 = VERTEX_POINT('',#33);
#33 = CARTESIAN_POINT('',(32.,-3.5,21.));
#34 = LINE('',#35,#36);
#35 = CARTESIAN_POINT('',(32.,-3.5,15.));
#36 = VECTOR('',#37,1.);
#37 = DIRECTION('',(0.,0.,1.));
#38 = ORIENTED_EDGE('',*,*,#39,.T.);
#39 = EDGE_CURVE('',#32,#40,#42,.T.);
#40 = VERTEX_POINT('',#41);
#41 = CARTESIAN_POINT('',(24.85477821265,-3.5,21.));
#42 = LINE('',#43,#44);
#43 = CARTESIAN_POINT('',(34.,-3.5,21.));
#44 = VECTOR('',#45,1.);
#45 = DIRECTION('',(-1.,0.,0.));
#46 = ORIENTED_EDGE('',*,*,#47,.F.);
#47 = EDGE_CURVE('',#48,#40,#50,.T.);
#48 = VERTEX_POINT('',#49);
#49 = CARTESIAN_POINT('',(24.85477821265,-3.5,18.));
#50 = LINE('',#51,#52);
#51 = CARTESIAN_POINT('',(24.85477821265,-3.5,15.));
#52 = VECTOR('',#53,1.);
#53 = DIRECTION('',(0.,0.,1.));
#54 = ORIENTED_EDGE('',*,*,#55,.T.);
#55 = EDGE_CURVE('',#48,#56,#58,.T.);
#56 = VERTEX_POINT('',#57);
#57 = CARTESIAN_POINT('',(26.772187060455,-3.5,18.));
#58 = LINE('',#59,#60);
#59 = CARTESIAN_POINT('',(17.,-3.5,18.));
#60 = VECTOR('',#61,1.);
#61 = DIRECTION('',(1.,0.,0.));
#62 = ORIENTED_EDGE('',*,*,#63,.T.);
#63 = EDGE_CURVE('',#56,#64,#66,.T.);
#64 = VERTEX_POINT('',#65);
#65 = CARTESIAN_POINT('',(26.772187060455,-3.5,15.));
#66 = LINE('',#67,#68);
#67 = CARTESIAN_POINT('',(26.772187060455,-3.5,0.));
#68 = VECTOR('',#69,1.);
#69 = DIRECTION('',(-0.,-0.,-1.));
#70 = ORIENTED_EDGE('',*,*,#71,.T.);
#71 = EDGE_CURVE('',#64,#72,#74,.T.);
#72 = VERTEX_POINT('',#73);
#73 = CARTESIAN_POINT('',(26.772187060455,-3.5,14.));
#74 = LINE('',#75,#76);
#75 = CARTESIAN_POINT('',(26.772187060455,-3.5,0.));
#76 = VECTOR('',#77,1.);
#77 = DIRECTION('',(-0.,-0.,-1.));
#78 = ORIENTED_EDGE('',*,*,#79,.T.);
#79 = EDGE_CURVE('',#72,#24,#80,.T.);
#80 = B_SPLINE_CURVE_WITH_KNOTS('',5,(#81,#82,#83,#84,#85,#86,#87,#88,
    #89,#90,#91,#92,#93,#94,#95,#96,#97,#98,#99,#100,#101,#102),
  .UNSPECIFIED.,.F.,.F.,(6,4,4,4,4,6),(0.,0.240189310898,0.478995034749,
    0.728161232148,0.976588909643,1.),.UNSPECIFIED.);
#81 = CARTESIAN_POINT('',(26.772187060455,-3.5,14.));
#82 = CARTESIAN_POINT('',(26.772187060455,-3.5,14.075611719337));
#83 = CARTESIAN_POINT('',(26.77939446938,-3.5,14.151226083613));
#84 = CARTESIAN_POINT('',(26.793809124324,-3.5,14.225927030559));
#85 = CARTESIAN_POINT('',(26.81525228622,-3.5,14.298816696249));
#86 = CARTESIAN_POINT('',(26.87133909538,-3.5,14.438879163312));
#87 = CARTESIAN_POINT('',(26.905907843775,-3.5,14.506087110991));
#88 = CARTESIAN_POINT('',(26.946741545915,-3.5,14.569844448474));
#89 = CARTESIAN_POINT('',(26.993347259665,-3.5,14.629404514468));
#90 = CARTESIAN_POINT('',(27.099107653727,-3.5,14.74122526371));
#91 = CARTESIAN_POINT('',(27.158722627877,-3.5,14.793060902598));
#92 = CARTESIAN_POINT('',(27.223244829417,-3.5,14.838908915272));
#93 = CARTESIAN_POINT('',(27.291844122299,-3.5,14.878196226601));
#94 = CARTESIAN_POINT('',(27.435146148922,-3.5,14.942744254533));
#95 = CARTESIAN_POINT('',(27.50983472924,-3.5,14.96804824838));
#96 = CARTESIAN_POINT('',(27.586756578734,-3.5,14.986029882606));
#97 = CARTESIAN_POINT('',(27.664942991969,-3.5,14.996468118555));
#98 = CARTESIAN_POINT('',(27.750797048647,-3.5,14.999595873987));
#99 = CARTESIAN_POINT('',(27.758193358664,-3.5,14.999797928962));
#100 = CARTESIAN_POINT('',(27.765591297435,-3.5,14.999932642751));
#101 = CARTESIAN_POINT('',(27.772990041171,-3.5,15.));
#102 = CARTESIAN_POINT('',(27.780388766178,-3.5,15.));
#103 = PLANE('',#104);
#104 = AXIS2_PLACEMENT_3D('',#105,#106,#107);
#105 = CARTESIAN_POINT('',(34.,-3.5,15.));
#106 = DIRECTION('',(0.,-1.,0.));
#107 = DIRECTION('',(-1.,0.,0.));
#108 = ADVANCED_FACE('',(#109,#162),#173,.F.);
#109 = FACE_BOUND('',#110,.F.);
#110 = EDGE_LOOP('',(#111,#121,#130,#137,#138,#147,#155));
#111 = ORIENTED_EDGE('',*,*,#112,.F.);
#112 = EDGE_CURVE('',#113,#115,#117,.T.);
#113 = VERTEX_POINT('',#114);
#114 = CARTESIAN_POINT('',(27.780388766178,3.5,15.));
#115 = VERTEX_POINT('',#116);
#116 = CARTESIAN_POINT('',(32.,3.5,15.));
#117 = LINE('',#118,#119);
#118 = CARTESIAN_POINT('',(24.85477821265,3.5,15.));
#119 = VECTOR('',#120,1.);
#120 = DIRECTION('',(1.,0.,0.));
#121 = ORIENTED_EDGE('',*,*,#122,.T.);
#122 = EDGE_CURVE('',#113,#123,#125,.T.);
#123 = VERTEX_POINT('',#124);
#124 = CARTESIAN_POINT('',(28.,0.,15.));
#125 = CIRCLE('',#126,28.);
#126 = AXIS2_PLACEMENT_3D('',#127,#128,#129);
#127 = CARTESIAN_POINT('',(0.,0.,15.));
#128 = DIRECTION('',(0.,0.,-1.));
#129 = DIRECTION('',(0.991562483721,0.12962962963,0.));
#130 = ORIENTED_EDGE('',*,*,#131,.T.);
#131 = EDGE_CURVE('',#123,#24,#132,.T.);
#132 = CIRCLE('',#133,28.);
#133 = AXIS2_PLACEMENT_3D('',#134,#135,#136);
#134 = CARTESIAN_POINT('',(0.,0.,15.));
#135 = DIRECTION('',(0.,-0.,-1.));
#136 = DIRECTION('',(1.,-2.449293598295E-16,0.));
#137 = ORIENTED_EDGE('',*,*,#21,.F.);
#138 = ORIENTED_EDGE('',*,*,#139,.T.);
#139 = EDGE_CURVE('',#22,#140,#142,.T.);
#140 = VERTEX_POINT('',#141);
#141 = CARTESIAN_POINT('',(34.,-1.5,15.));
#142 = CIRCLE('',#143,2.);
#143 = AXIS2_PLACEMENT_3D('',#144,#145,#146);
#144 = CARTESIAN_POINT('',(32.,-1.5,15.));
#145 = DIRECTION('',(-0.,0.,1.));
#146 = DIRECTION('',(0.,-1.,0.));
#147 = ORIENTED_EDGE('',*,*,#148,.F.);
#148 = EDGE_CURVE('',#149,#140,#151,.T.);
#149 = VERTEX_POINT('',#150);
#150 = CARTESIAN_POINT('',(34.,1.5,15.));
#151 = LINE('',#152,#153);
#152 = CARTESIAN_POINT('',(34.,3.5,15.));
#153 = VECTOR('',#154,1.);
#154 = DIRECTION('',(0.,-1.,0.));
#155 = ORIENTED_EDGE('',*,*,#156,.F.);
#156 = EDGE_CURVE('',#115,#149,#157,.T.);
#157 = CIRCLE('',#158,2.);
#158 = AXIS2_PLACEMENT_3D('',#159,#160,#161);
#159 = CARTESIAN_POINT('',(32.,1.5,15.));
#160 = DIRECTION('',(-0.,-0.,-1.));
#161 = DIRECTION('',(0.,-1.,0.));
#162 = FACE_BOUND('',#163,.F.);
#163 = EDGE_LOOP('',(#164));
#164 = ORIENTED_EDGE('',*,*,#165,.F.);
#165 = EDGE_CURVE('',#166,#166,#168,.T.);
#166 = VERTEX_POINT('',#167);
#167 = CARTESIAN_POINT('',(32.05,0.,15.));
#168 = CIRCLE('',#169,1.55);
#169 = AXIS2_PLACEMENT_3D('',#170,#171,#172);
#170 = CARTESIAN_POINT('',(30.5,0.,15.));
#171 = DIRECTION('',(0.,0.,1.));
#172 = DIRECTION('',(1.,0.,0.));
#173 = PLANE('',#174);
#174 = AXIS2_PLACEMENT_3D('',#175,#176,#177);
#175 = CARTESIAN_POINT('',(-7.747721653652E-13,8.449449537969E-15,15.));
#176 = DIRECTION('',(0.,0.,1.));
#177 = DIRECTION('',(1.,0.,0.));
#178 = ADVANCED_FACE('',(#179),#198,.T.);
#179 = FACE_BOUND('',#180,.T.);
#180 = EDGE_LOOP('',(#181,#182,#190,#197));
#181 = ORIENTED_EDGE('',*,*,#139,.T.);
#182 = ORIENTED_EDGE('',*,*,#183,.T.);
#183 = EDGE_CURVE('',#140,#184,#186,.T.);
#184 = VERTEX_POINT('',#185);
#185 = CARTESIAN_POINT('',(34.,-1.5,21.));
#186 = LINE('',#187,#188);
#187 = CARTESIAN_POINT('',(34.,-1.5,15.));
#188 = VECTOR('',#189,1.);
#189 = DIRECTION('',(0.,0.,1.));
#190 = ORIENTED_EDGE('',*,*,#191,.F.);
#191 = EDGE_CURVE('',#32,#184,#192,.T.);
#192 = CIRCLE('',#193,2.);
#193 = AXIS2_PLACEMENT_3D('',#194,#195,#196);
#194 = CARTESIAN_POINT('',(32.,-1.5,21.));
#195 = DIRECTION('',(-0.,0.,1.));
#196 = DIRECTION('',(0.,-1.,0.));
#197 = ORIENTED_EDGE('',*,*,#31,.F.);
#198 = CYLINDRICAL_SURFACE('',#199,2.);
#199 = AXIS2_PLACEMENT_3D('',#200,#201,#202);
#200 = CARTESIAN_POINT('',(32.,-1.5,15.));
#201 = DIRECTION('',(0.,0.,1.));
#202 = DIRECTION('',(0.,-1.,0.));
#203 = ADVANCED_FACE('',(#204),#224,.F.);
#204 = FACE_BOUND('',#205,.F.);
#205 = EDGE_LOOP('',(#206,#215,#222,#223));
#206 = ORIENTED_EDGE('',*,*,#207,.F.);
#207 = EDGE_CURVE('',#208,#123,#210,.T.);
#208 = VERTEX_POINT('',#209);
#209 = CARTESIAN_POINT('',(27.,-4.440892098501E-16,14.));
#210 = CIRCLE('',#211,1.);
#211 = AXIS2_PLACEMENT_3D('',#212,#213,#214);
#212 = CARTESIAN_POINT('',(28.,0.,14.));
#213 = DIRECTION('',(-0.,1.,0.));
#214 = DIRECTION('',(1.,0.,0.));
#215 = ORIENTED_EDGE('',*,*,#216,.T.);
#216 = EDGE_CURVE('',#208,#72,#217,.T.);
#217 = CIRCLE('',#218,27.);
#218 = AXIS2_PLACEMENT_3D('',#219,#220,#221);
#219 = CARTESIAN_POINT('',(0.,0.,14.));
#220 = DIRECTION('',(0.,-0.,-1.));
#221 = DIRECTION('',(1.,-2.449293598295E-16,0.));
#222 = ORIENTED_EDGE('',*,*,#79,.T.);
#223 = ORIENTED_EDGE('',*,*,#131,.F.);
#224 = TOROIDAL_SURFACE('',#225,28.,1.);
#225 = AXIS2_PLACEMENT_3D('',#226,#227,#228);
#226 = CARTESIAN_POINT('',(0.,0.,14.));
#227 = DIRECTION('',(-0.,-0.,-1.));
#228 = DIRECTION('',(1.,-2.449293598295E-16,0.));
#229 = ADVANCED_FACE('',(#230,#275),#286,.T.);
#230 = FACE_BOUND('',#231,.T.);
#231 = EDGE_LOOP('',(#232,#242,#251,#258,#259,#260,#268));
#232 = ORIENTED_EDGE('',*,*,#233,.F.);
#233 = EDGE_CURVE('',#234,#236,#238,.T.);
#234 = VERTEX_POINT('',#235);
#235 = CARTESIAN_POINT('',(24.85477821265,3.5,21.));
#236 = VERTEX_POINT('',#237);
#237 = CARTESIAN_POINT('',(32.,3.5,21.));
#238 = LINE('',#239,#240);
#239 = CARTESIAN_POINT('',(24.85477821265,3.5,21.));
#240 = VECTOR('',#241,1.);
#241 = DIRECTION('',(1.,0.,0.));
#242 = ORIENTED_EDGE('',*,*,#243,.F.);
#243 = EDGE_CURVE('',#244,#234,#246,.T.);
#244 = VERTEX_POINT('',#245);
#245 = CARTESIAN_POINT('',(25.1,-1.242083431312E-14,21.));
#246 = CIRCLE('',#247,25.1);
#247 = AXIS2_PLACEMENT_3D('',#248,#249,#250);
#248 = CARTESIAN_POINT('',(-1.142025527376E-14,-6.273107381404E-15,21.)
  );
#249 = DIRECTION('',(0.,0.,1.));
#250 = DIRECTION('',(1.,0.,0.));
#251 = ORIENTED_EDGE('',*,*,#252,.F.);
#252 = EDGE_CURVE('',#40,#244,#253,.T.);
#253 = CIRCLE('',#254,25.1);
#254 = AXIS2_PLACEMENT_3D('',#255,#256,#257);
#255 = CARTESIAN_POINT('',(-1.142025527376E-14,-6.273107381404E-15,21.)
  );
#256 = DIRECTION('',(0.,0.,1.));
#257 = DIRECTION('',(1.,0.,0.));
#258 = ORIENTED_EDGE('',*,*,#39,.F.);
#259 = ORIENTED_EDGE('',*,*,#191,.T.);
#260 = ORIENTED_EDGE('',*,*,#261,.F.);
#261 = EDGE_CURVE('',#262,#184,#264,.T.);
#262 = VERTEX_POINT('',#263);
#263 = CARTESIAN_POINT('',(34.,1.5,21.));
#264 = LINE('',#265,#266);
#265 = CARTESIAN_POINT('',(34.,3.5,21.));
#266 = VECTOR('',#267,1.);
#267 = DIRECTION('',(0.,-1.,0.));
#268 = ORIENTED_EDGE('',*,*,#269,.F.);
#269 = EDGE_CURVE('',#236,#262,#270,.T.);
#270 = CIRCLE('',#271,2.);
#271 = AXIS2_PLACEMENT_3D('',#272,#273,#274);
#272 = CARTESIAN_POINT('',(32.,1.5,21.));
#273 = DIRECTION('',(-0.,-0.,-1.));
#274 = DIRECTION('',(0.,-1.,0.));
#275 = FACE_BOUND('',#276,.F.);
#276 = EDGE_LOOP('',(#277));
#277 = ORIENTED_EDGE('',*,*,#278,.T.);
#278 = EDGE_CURVE('',#279,#279,#281,.T.);
#279 = VERTEX_POINT('',#280);
#280 = CARTESIAN_POINT('',(32.05,0.,21.));
#281 = CIRCLE('',#282,1.55);
#282 = AXIS2_PLACEMENT_3D('',#283,#284,#285);
#283 = CARTESIAN_POINT('',(30.5,0.,21.));
#284 = DIRECTION('',(0.,0.,1.));
#285 = DIRECTION('',(1.,0.,0.));
#286 = PLANE('',#287);
#287 = AXIS2_PLACEMENT_3D('',#288,#289,#290);
#288 = CARTESIAN_POINT('',(-7.747721653652E-13,8.449449537969E-15,21.));
#289 = DIRECTION('',(0.,0.,1.));
#290 = DIRECTION('',(1.,0.,0.));
#291 = ADVANCED_FACE('',(#292),#494,.T.);
#292 = FACE_BOUND('',#293,.F.);
#293 = EDGE_LOOP('',(#294,#301,#308,#309,#318,#326,#334,#343,#351,#359,
    #368,#376,#384,#393,#401,#409,#418,#426,#434,#443,#451,#459,#468,
    #476,#484,#491,#492,#493));
#294 = ORIENTED_EDGE('',*,*,#295,.T.);
#295 = EDGE_CURVE('',#208,#296,#298,.T.);
#296 = VERTEX_POINT('',#297);
#297 = CARTESIAN_POINT('',(27.,0.,0.));
#298 = B_SPLINE_CURVE_WITH_KNOTS('',1,(#299,#300),.UNSPECIFIED.,.F.,.F.,
  (2,2),(-18.,0.),.PIECEWISE_BEZIER_KNOTS.);
#299 = CARTESIAN_POINT('',(27.,-6.613092715396E-15,18.));
#300 = CARTESIAN_POINT('',(27.,-6.613092715396E-15,0.));
#301 = ORIENTED_EDGE('',*,*,#302,.F.);
#302 = EDGE_CURVE('',#296,#296,#303,.T.);
#303 = CIRCLE('',#304,27.);
#304 = AXIS2_PLACEMENT_3D('',#305,#306,#307);
#305 = CARTESIAN_POINT('',(0.,0.,0.));
#306 = DIRECTION('',(0.,0.,1.));
#307 = DIRECTION('',(1.,0.,0.));
#308 = ORIENTED_EDGE('',*,*,#295,.F.);
#309 = ORIENTED_EDGE('',*,*,#310,.F.);
#310 = EDGE_CURVE('',#311,#208,#313,.T.);
#311 = VERTEX_POINT('',#312);
#312 = CARTESIAN_POINT('',(26.772187060455,3.5,14.));
#313 = CIRCLE('',#314,27.);
#314 = AXIS2_PLACEMENT_3D('',#315,#316,#317);
#315 = CARTESIAN_POINT('',(0.,0.,14.));
#316 = DIRECTION('',(0.,0.,-1.));
#317 = DIRECTION('',(0.991562483721,0.12962962963,0.));
#318 = ORIENTED_EDGE('',*,*,#319,.F.);
#319 = EDGE_CURVE('',#320,#311,#322,.T.);
#320 = VERTEX_POINT('',#321);
#321 = CARTESIAN_POINT('',(26.772187060455,3.5,15.));
#322 = LINE('',#323,#324);
#323 = CARTESIAN_POINT('',(26.772187060455,3.5,0.));
#324 = VECTOR('',#325,1.);
#325 = DIRECTION('',(-0.,-0.,-1.));
#326 = ORIENTED_EDGE('',*,*,#327,.F.);
#327 = EDGE_CURVE('',#328,#320,#330,.T.);
#328 = VERTEX_POINT('',#329);
#329 = CARTESIAN_POINT('',(26.772187060455,3.5,18.));
#330 = LINE('',#331,#332);
#331 = CARTESIAN_POINT('',(26.772187060455,3.5,0.));
#332 = VECTOR('',#333,1.);
#333 = DIRECTION('',(-0.,-0.,-1.));
#334 = ORIENTED_EDGE('',*,*,#335,.T.);
#335 = EDGE_CURVE('',#328,#336,#338,.T.);
#336 = VERTEX_POINT('',#337);
#337 = CARTESIAN_POINT('',(3.5,26.772187060455,18.));
#338 = CIRCLE('',#339,27.);
#339 = AXIS2_PLACEMENT_3D('',#340,#341,#342);
#340 = CARTESIAN_POINT('',(0.,0.,18.));
#341 = DIRECTION('',(0.,0.,1.));
#342 = DIRECTION('',(1.,0.,0.));
#343 = ORIENTED_EDGE('',*,*,#344,.T.);
#344 = EDGE_CURVE('',#336,#345,#347,.T.);
#345 = VERTEX_POINT('',#346);
#346 = CARTESIAN_POINT('',(3.5,26.772187060455,15.));
#347 = LINE('',#348,#349);
#348 = CARTESIAN_POINT('',(3.5,26.772187060455,0.));
#349 = VECTOR('',#350,1.);
#350 = DIRECTION('',(-0.,-0.,-1.));
#351 = ORIENTED_EDGE('',*,*,#352,.T.);
#352 = EDGE_CURVE('',#345,#353,#355,.T.);
#353 = VERTEX_POINT('',#354);
#354 = CARTESIAN_POINT('',(3.5,26.772187060455,14.));
#355 = LINE('',#356,#357);
#356 = CARTESIAN_POINT('',(3.5,26.772187060455,0.));
#357 = VECTOR('',#358,1.);
#358 = DIRECTION('',(-0.,-0.,-1.));
#359 = ORIENTED_EDGE('',*,*,#360,.F.);
#360 = EDGE_CURVE('',#361,#353,#363,.T.);
#361 = VERTEX_POINT('',#362);
#362 = CARTESIAN_POINT('',(-3.5,26.772187060455,14.));
#363 = CIRCLE('',#364,27.);
#364 = AXIS2_PLACEMENT_3D('',#365,#366,#367);
#365 = CARTESIAN_POINT('',(0.,0.,14.));
#366 = DIRECTION('',(0.,0.,-1.));
#367 = DIRECTION('',(-0.12962962963,0.991562483721,0.));
#368 = ORIENTED_EDGE('',*,*,#369,.F.);
#369 = EDGE_CURVE('',#370,#361,#372,.T.);
#370 = VERTEX_POINT('',#371);
#371 = CARTESIAN_POINT('',(-3.5,26.772187060455,15.));
#372 = LINE('',#373,#374);
#373 = CARTESIAN_POINT('',(-3.5,26.772187060455,0.));
#374 = VECTOR('',#375,1.);
#375 = DIRECTION('',(-0.,-0.,-1.));
#376 = ORIENTED_EDGE('',*,*,#377,.F.);
#377 = EDGE_CURVE('',#378,#370,#380,.T.);
#378 = VERTEX_POINT('',#379);
#379 = CARTESIAN_POINT('',(-3.5,26.772187060455,18.));
#380 = LINE('',#381,#382);
#381 = CARTESIAN_POINT('',(-3.5,26.772187060455,0.));
#382 = VECTOR('',#383,1.);
#383 = DIRECTION('',(-0.,-0.,-1.));
#384 = ORIENTED_EDGE('',*,*,#385,.T.);
#385 = EDGE_CURVE('',#378,#386,#388,.T.);
#386 = VERTEX_POINT('',#387);
#387 = CARTESIAN_POINT('',(-26.77218706045,3.499999999999,18.));
#388 = CIRCLE('',#389,27.);
#389 = AXIS2_PLACEMENT_3D('',#390,#391,#392);
#390 = CARTESIAN_POINT('',(0.,0.,18.));
#391 = DIRECTION('',(0.,0.,1.));
#392 = DIRECTION('',(1.,0.,0.));
#393 = ORIENTED_EDGE('',*,*,#394,.T.);
#394 = EDGE_CURVE('',#386,#395,#397,.T.);
#395 = VERTEX_POINT('',#396);
#396 = CARTESIAN_POINT('',(-26.77218706045,3.499999999999,15.));
#397 = LINE('',#398,#399);
#398 = CARTESIAN_POINT('',(-26.77218706045,3.499999999999,0.));
#399 = VECTOR('',#400,1.);
#400 = DIRECTION('',(-0.,-0.,-1.));
#401 = ORIENTED_EDGE('',*,*,#402,.T.);
#402 = EDGE_CURVE('',#395,#403,#405,.T.);
#403 = VERTEX_POINT('',#404);
#404 = CARTESIAN_POINT('',(-26.77218706045,3.499999999999,14.));
#405 = LINE('',#406,#407);
#406 = CARTESIAN_POINT('',(-26.77218706045,3.499999999999,0.));
#407 = VECTOR('',#408,1.);
#408 = DIRECTION('',(-0.,-0.,-1.));
#409 = ORIENTED_EDGE('',*,*,#410,.F.);
#410 = EDGE_CURVE('',#411,#403,#413,.T.);
#411 = VERTEX_POINT('',#412);
#412 = CARTESIAN_POINT('',(-26.77218706045,-3.499999999999,14.));
#413 = CIRCLE('',#414,27.);
#414 = AXIS2_PLACEMENT_3D('',#415,#416,#417);
#415 = CARTESIAN_POINT('',(0.,0.,14.));
#416 = DIRECTION('',(-0.,0.,-1.));
#417 = DIRECTION('',(-0.991562483721,-0.12962962963,0.));
#418 = ORIENTED_EDGE('',*,*,#419,.F.);
#419 = EDGE_CURVE('',#420,#411,#422,.T.);
#420 = VERTEX_POINT('',#421);
#421 = CARTESIAN_POINT('',(-26.77218706045,-3.499999999999,15.));
#422 = LINE('',#423,#424);
#423 = CARTESIAN_POINT('',(-26.77218706045,-3.499999999999,0.));
#424 = VECTOR('',#425,1.);
#425 = DIRECTION('',(-0.,-0.,-1.));
#426 = ORIENTED_EDGE('',*,*,#427,.F.);
#427 = EDGE_CURVE('',#428,#420,#430,.T.);
#428 = VERTEX_POINT('',#429);
#429 = CARTESIAN_POINT('',(-26.77218706045,-3.499999999999,18.));
#430 = LINE('',#431,#432);
#431 = CARTESIAN_POINT('',(-26.77218706045,-3.499999999999,0.));
#432 = VECTOR('',#433,1.);
#433 = DIRECTION('',(-0.,-0.,-1.));
#434 = ORIENTED_EDGE('',*,*,#435,.T.);
#435 = EDGE_CURVE('',#428,#436,#438,.T.);
#436 = VERTEX_POINT('',#437);
#437 = CARTESIAN_POINT('',(-3.5,-26.77218706045,18.));
#438 = CIRCLE('',#439,27.);
#439 = AXIS2_PLACEMENT_3D('',#440,#441,#442);
#440 = CARTESIAN_POINT('',(0.,0.,18.));
#441 = DIRECTION('',(0.,0.,1.));
#442 = DIRECTION('',(1.,0.,0.));
#443 = ORIENTED_EDGE('',*,*,#444,.T.);
#444 = EDGE_CURVE('',#436,#445,#447,.T.);
#445 = VERTEX_POINT('',#446);
#446 = CARTESIAN_POINT('',(-3.5,-26.77218706045,15.));
#447 = LINE('',#448,#449);
#448 = CARTESIAN_POINT('',(-3.5,-26.77218706045,0.));
#449 = VECTOR('',#450,1.);
#450 = DIRECTION('',(-0.,-0.,-1.));
#451 = ORIENTED_EDGE('',*,*,#452,.T.);
#452 = EDGE_CURVE('',#445,#453,#455,.T.);
#453 = VERTEX_POINT('',#454);
#454 = CARTESIAN_POINT('',(-3.5,-26.77218706045,14.));
#455 = LINE('',#456,#457);
#456 = CARTESIAN_POINT('',(-3.5,-26.77218706045,0.));
#457 = VECTOR('',#458,1.);
#458 = DIRECTION('',(-0.,-0.,-1.));
#459 = ORIENTED_EDGE('',*,*,#460,.F.);
#460 = EDGE_CURVE('',#461,#453,#463,.T.);
#461 = VERTEX_POINT('',#462);
#462 = CARTESIAN_POINT('',(3.5,-26.77218706045,14.));
#463 = CIRCLE('',#464,27.);
#464 = AXIS2_PLACEMENT_3D('',#465,#466,#467);
#465 = CARTESIAN_POINT('',(0.,0.,14.));
#466 = DIRECTION('',(0.,-0.,-1.));
#467 = DIRECTION('',(0.12962962963,-0.991562483721,0.));
#468 = ORIENTED_EDGE('',*,*,#469,.F.);
#469 = EDGE_CURVE('',#470,#461,#472,.T.);
#470 = VERTEX_POINT('',#471);
#471 = CARTESIAN_POINT('',(3.5,-26.77218706045,15.));
#472 = LINE('',#473,#474);
#473 = CARTESIAN_POINT('',(3.5,-26.77218706045,0.));
#474 = VECTOR('',#475,1.);
#475 = DIRECTION('',(-0.,-0.,-1.));
#476 = ORIENTED_EDGE('',*,*,#477,.F.);
#477 = EDGE_CURVE('',#478,#470,#480,.T.);
#478 = VERTEX_POINT('',#479);
#479 = CARTESIAN_POINT('',(3.5,-26.77218706045,18.));
#480 = LINE('',#481,#482);
#481 = CARTESIAN_POINT('',(3.5,-26.77218706045,0.));
#482 = VECTOR('',#483,1.);
#483 = DIRECTION('',(-0.,-0.,-1.));
#484 = ORIENTED_EDGE('',*,*,#485,.T.);
#485 = EDGE_CURVE('',#478,#56,#486,.T.);
#486 = CIRCLE('',#487,27.);
#487 = AXIS2_PLACEMENT_3D('',#488,#489,#490);
#488 = CARTESIAN_POINT('',(0.,0.,18.));
#489 = DIRECTION('',(0.,0.,1.));
#490 = DIRECTION('',(1.,0.,0.));
#491 = ORIENTED_EDGE('',*,*,#63,.T.);
#492 = ORIENTED_EDGE('',*,*,#71,.T.);
#493 = ORIENTED_EDGE('',*,*,#216,.F.);
#494 = CYLINDRICAL_SURFACE('',#495,27.);
#495 = AXIS2_PLACEMENT_3D('',#496,#497,#498);
#496 = CARTESIAN_POINT('',(0.,0.,0.));
#497 = DIRECTION('',(-0.,-0.,-1.));
#498 = DIRECTION('',(1.,0.,0.));
#499 = ADVANCED_FACE('',(#500),#637,.F.);
#500 = FACE_BOUND('',#501,.T.);
#501 = EDGE_LOOP('',(#502,#512,#521,#529,#538,#546,#555,#563,#572,#580,
    #589,#597,#604,#605,#606,#613,#620,#621,#622,#630));
#502 = ORIENTED_EDGE('',*,*,#503,.T.);
#503 = EDGE_CURVE('',#504,#506,#508,.T.);
#504 = VERTEX_POINT('',#505);
#505 = CARTESIAN_POINT('',(3.500000000001,24.854778212649,18.));
#506 = VERTEX_POINT('',#507);
#507 = CARTESIAN_POINT('',(3.5,24.85477821265,21.));
#508 = LINE('',#509,#510);
#509 = CARTESIAN_POINT('',(3.5,24.85477821265,15.));
#510 = VECTOR('',#511,1.);
#511 = DIRECTION('',(0.,0.,1.));
#512 = ORIENTED_EDGE('',*,*,#513,.T.);
#513 = EDGE_CURVE('',#506,#514,#516,.T.);
#514 = VERTEX_POINT('',#515);
#515 = CARTESIAN_POINT('',(-3.5,24.85477821265,21.));
#516 = CIRCLE('',#517,25.1);
#517 = AXIS2_PLACEMENT_3D('',#518,#519,#520);
#518 = CARTESIAN_POINT('',(-1.142025527376E-14,-6.273107381404E-15,21.)
  );
#519 = DIRECTION('',(0.,0.,1.));
#520 = DIRECTION('',(1.,0.,0.));
#521 = ORIENTED_EDGE('',*,*,#522,.F.);
#522 = EDGE_CURVE('',#523,#514,#525,.T.);
#523 = VERTEX_POINT('',#524);
#524 = CARTESIAN_POINT('',(-3.5,24.85477821265,18.));
#525 = LINE('',#526,#527);
#526 = CARTESIAN_POINT('',(-3.5,24.85477821265,15.));
#527 = VECTOR('',#528,1.);
#528 = DIRECTION('',(0.,0.,1.));
#529 = ORIENTED_EDGE('',*,*,#530,.T.);
#530 = EDGE_CURVE('',#523,#531,#533,.T.);
#531 = VERTEX_POINT('',#532);
#532 = CARTESIAN_POINT('',(-24.85477821264,3.5,18.));
#533 = CIRCLE('',#534,25.1);
#534 = AXIS2_PLACEMENT_3D('',#535,#536,#537);
#535 = CARTESIAN_POINT('',(0.,0.,18.));
#536 = DIRECTION('',(0.,0.,1.));
#537 = DIRECTION('',(1.,0.,0.));
#538 = ORIENTED_EDGE('',*,*,#539,.T.);
#539 = EDGE_CURVE('',#531,#540,#542,.T.);
#540 = VERTEX_POINT('',#541);
#541 = CARTESIAN_POINT('',(-24.85477821264,3.499999999999,21.));
#542 = LINE('',#543,#544);
#543 = CARTESIAN_POINT('',(-24.85477821264,3.499999999999,15.));
#544 = VECTOR('',#545,1.);
#545 = DIRECTION('',(0.,0.,1.));
#546 = ORIENTED_EDGE('',*,*,#547,.T.);
#547 = EDGE_CURVE('',#540,#548,#550,.T.);
#548 = VERTEX_POINT('',#549);
#549 = CARTESIAN_POINT('',(-24.85477821264,-3.499999999999,21.));
#550 = CIRCLE('',#551,25.099999999995);
#551 = AXIS2_PLACEMENT_3D('',#552,#553,#554);
#552 = CARTESIAN_POINT('',(-1.142025527376E-14,-6.273107381404E-15,21.)
  );
#553 = DIRECTION('',(0.,0.,1.));
#554 = DIRECTION('',(1.,0.,0.));
#555 = ORIENTED_EDGE('',*,*,#556,.F.);
#556 = EDGE_CURVE('',#557,#548,#559,.T.);
#557 = VERTEX_POINT('',#558);
#558 = CARTESIAN_POINT('',(-24.85477821264,-3.5,18.));
#559 = LINE('',#560,#561);
#560 = CARTESIAN_POINT('',(-24.85477821264,-3.499999999999,15.));
#561 = VECTOR('',#562,1.);
#562 = DIRECTION('',(0.,0.,1.));
#563 = ORIENTED_EDGE('',*,*,#564,.T.);
#564 = EDGE_CURVE('',#557,#565,#567,.T.);
#565 = VERTEX_POINT('',#566);
#566 = CARTESIAN_POINT('',(-3.5,-24.85477821265,18.));
#567 = CIRCLE('',#568,25.1);
#568 = AXIS2_PLACEMENT_3D('',#569,#570,#571);
#569 = CARTESIAN_POINT('',(0.,0.,18.));
#570 = DIRECTION('',(0.,0.,1.));
#571 = DIRECTION('',(1.,0.,0.));
#572 = ORIENTED_EDGE('',*,*,#573,.T.);
#573 = EDGE_CURVE('',#565,#574,#576,.T.);
#574 = VERTEX_POINT('',#575);
#575 = CARTESIAN_POINT('',(-3.5,-24.85477821265,21.));
#576 = LINE('',#577,#578);
#577 = CARTESIAN_POINT('',(-3.5,-24.85477821265,15.));
#578 = VECTOR('',#579,1.);
#579 = DIRECTION('',(0.,0.,1.));
#580 = ORIENTED_EDGE('',*,*,#581,.T.);
#581 = EDGE_CURVE('',#574,#582,#584,.T.);
#582 = VERTEX_POINT('',#583);
#583 = CARTESIAN_POINT('',(3.5,-24.85477821265,21.));
#584 = CIRCLE('',#585,25.1);
#585 = AXIS2_PLACEMENT_3D('',#586,#587,#588);
#586 = CARTESIAN_POINT('',(-6.310714045682E-15,3.485744716148E-13,21.));
#587 = DIRECTION('',(0.,0.,1.));
#588 = DIRECTION('',(1.,0.,0.));
#589 = ORIENTED_EDGE('',*,*,#590,.F.);
#590 = EDGE_CURVE('',#591,#582,#593,.T.);
#591 = VERTEX_POINT('',#592);
#592 = CARTESIAN_POINT('',(3.500000000001,-24.85477821264,18.));
#593 = LINE('',#594,#595);
#594 = CARTESIAN_POINT('',(3.5,-24.85477821265,15.));
#595 = VECTOR('',#596,1.);
#596 = DIRECTION('',(0.,0.,1.));
#597 = ORIENTED_EDGE('',*,*,#598,.T.);
#598 = EDGE_CURVE('',#591,#48,#599,.T.);
#599 = CIRCLE('',#600,25.1);
#600 = AXIS2_PLACEMENT_3D('',#601,#602,#603);
#601 = CARTESIAN_POINT('',(0.,0.,18.));
#602 = DIRECTION('',(0.,0.,1.));
#603 = DIRECTION('',(1.,0.,0.));
#604 = ORIENTED_EDGE('',*,*,#47,.T.);
#605 = ORIENTED_EDGE('',*,*,#252,.T.);
#606 = ORIENTED_EDGE('',*,*,#607,.T.);
#607 = EDGE_CURVE('',#244,#608,#610,.T.);
#608 = VERTEX_POINT('',#609);
#609 = CARTESIAN_POINT('',(25.1,0.,2.));
#610 = B_SPLINE_CURVE_WITH_KNOTS('',1,(#611,#612),.UNSPECIFIED.,.F.,.F.,
  (2,2),(-6.,13.),.PIECEWISE_BEZIER_KNOTS.);
#611 = CARTESIAN_POINT('',(25.1,-6.273107381404E-15,21.));
#612 = CARTESIAN_POINT('',(25.1,-6.273107381404E-15,2.));
#613 = ORIENTED_EDGE('',*,*,#614,.F.);
#614 = EDGE_CURVE('',#608,#608,#615,.T.);
#615 = CIRCLE('',#616,25.1);
#616 = AXIS2_PLACEMENT_3D('',#617,#618,#619);
#617 = CARTESIAN_POINT('',(0.,0.,2.));
#618 = DIRECTION('',(0.,0.,1.));
#619 = DIRECTION('',(1.,0.,0.));
#620 = ORIENTED_EDGE('',*,*,#607,.F.);
#621 = ORIENTED_EDGE('',*,*,#243,.T.);
#622 = ORIENTED_EDGE('',*,*,#623,.F.);
#623 = EDGE_CURVE('',#624,#234,#626,.T.);
#624 = VERTEX_POINT('',#625);
#625 = CARTESIAN_POINT('',(24.85477821265,3.5,18.));
#626 = LINE('',#627,#628);
#627 = CARTESIAN_POINT('',(24.85477821265,3.5,15.));
#628 = VECTOR('',#629,1.);
#629 = DIRECTION('',(0.,0.,1.));
#630 = ORIENTED_EDGE('',*,*,#631,.T.);
#631 = EDGE_CURVE('',#624,#504,#632,.T.);
#632 = CIRCLE('',#633,25.1);
#633 = AXIS2_PLACEMENT_3D('',#634,#635,#636);
#634 = CARTESIAN_POINT('',(0.,0.,18.));
#635 = DIRECTION('',(0.,0.,1.));
#636 = DIRECTION('',(1.,0.,0.));
#637 = CYLINDRICAL_SURFACE('',#638,25.1);
#638 = AXIS2_PLACEMENT_3D('',#639,#640,#641);
#639 = CARTESIAN_POINT('',(-1.142025527376E-14,-6.273107381404E-15,15.)
  );
#640 = DIRECTION('',(-0.,-0.,-1.));
#641 = DIRECTION('',(1.,0.,0.));
#642 = ADVANCED_FACE('',(#643),#654,.T.);
#643 = FACE_BOUND('',#644,.T.);
#644 = EDGE_LOOP('',(#645,#646,#647,#648));
#645 = ORIENTED_EDGE('',*,*,#485,.T.);
#646 = ORIENTED_EDGE('',*,*,#55,.F.);
#647 = ORIENTED_EDGE('',*,*,#598,.F.);
#648 = ORIENTED_EDGE('',*,*,#649,.F.);
#649 = EDGE_CURVE('',#478,#591,#650,.T.);
#650 = LINE('',#651,#652);
#651 = CARTESIAN_POINT('',(3.5,-12.42738910632,18.));
#652 = VECTOR('',#653,1.);
#653 = DIRECTION('',(-7.283954728102E-16,1.,0.));
#654 = PLANE('',#655);
#655 = AXIS2_PLACEMENT_3D('',#656,#657,#658);
#656 = CARTESIAN_POINT('',(-2.099716134418E-15,-4.936274663665E-16,18.)
  );
#657 = DIRECTION('',(0.,0.,1.));
#658 = DIRECTION('',(1.,0.,0.));
#659 = ADVANCED_FACE('',(#660),#704,.T.);
#660 = FACE_BOUND('',#661,.T.);
#661 = EDGE_LOOP('',(#662,#663,#688,#689,#690,#696,#697,#698));
#662 = ORIENTED_EDGE('',*,*,#112,.F.);
#663 = ORIENTED_EDGE('',*,*,#664,.F.);
#664 = EDGE_CURVE('',#311,#113,#665,.T.);
#665 = B_SPLINE_CURVE_WITH_KNOTS('',5,(#666,#667,#668,#669,#670,#671,
    #672,#673,#674,#675,#676,#677,#678,#679,#680,#681,#682,#683,#684,
    #685,#686,#687),.UNSPECIFIED.,.F.,.F.,(6,4,4,4,4,6),(0.,
    0.240189310898,0.478995034749,0.728161232148,0.976588909643,1.),
  .UNSPECIFIED.);
#666 = CARTESIAN_POINT('',(26.772187060455,3.5,14.));
#667 = CARTESIAN_POINT('',(26.772187060455,3.5,14.075611719337));
#668 = CARTESIAN_POINT('',(26.77939446938,3.5,14.151226083613));
#669 = CARTESIAN_POINT('',(26.793809124324,3.5,14.225927030559));
#670 = CARTESIAN_POINT('',(26.81525228622,3.5,14.298816696249));
#671 = CARTESIAN_POINT('',(26.87133909538,3.5,14.438879163312));
#672 = CARTESIAN_POINT('',(26.905907843775,3.5,14.506087110991));
#673 = CARTESIAN_POINT('',(26.946741545915,3.5,14.569844448474));
#674 = CARTESIAN_POINT('',(26.993347259665,3.5,14.629404514468));
#675 = CARTESIAN_POINT('',(27.099107653727,3.5,14.74122526371));
#676 = CARTESIAN_POINT('',(27.158722627877,3.5,14.793060902598));
#677 = CARTESIAN_POINT('',(27.223244829417,3.5,14.838908915272));
#678 = CARTESIAN_POINT('',(27.291844122299,3.5,14.878196226601));
#679 = CARTESIAN_POINT('',(27.435146148922,3.5,14.942744254533));
#680 = CARTESIAN_POINT('',(27.509834729239,3.5,14.96804824838));
#681 = CARTESIAN_POINT('',(27.586756578734,3.5,14.986029882606));
#682 = CARTESIAN_POINT('',(27.664942991969,3.5,14.996468118555));
#683 = CARTESIAN_POINT('',(27.750797048647,3.5,14.999595873987));
#684 = CARTESIAN_POINT('',(27.758193358664,3.5,14.999797928962));
#685 = CARTESIAN_POINT('',(27.765591297435,3.5,14.999932642751));
#686 = CARTESIAN_POINT('',(27.772990041171,3.5,15.));
#687 = CARTESIAN_POINT('',(27.780388766178,3.5,15.));
#688 = ORIENTED_EDGE('',*,*,#319,.F.);
#689 = ORIENTED_EDGE('',*,*,#327,.F.);
#690 = ORIENTED_EDGE('',*,*,#691,.T.);
#691 = EDGE_CURVE('',#328,#624,#692,.T.);
#692 = LINE('',#693,#694);
#693 = CARTESIAN_POINT('',(12.427389106325,3.5,18.));
#694 = VECTOR('',#695,1.);
#695 = DIRECTION('',(-1.,0.,0.));
#696 = ORIENTED_EDGE('',*,*,#623,.T.);
#697 = ORIENTED_EDGE('',*,*,#233,.T.);
#698 = ORIENTED_EDGE('',*,*,#699,.F.);
#699 = EDGE_CURVE('',#115,#236,#700,.T.);
#700 = LINE('',#701,#702);
#701 = CARTESIAN_POINT('',(32.,3.5,15.));
#702 = VECTOR('',#703,1.);
#703 = DIRECTION('',(0.,0.,1.));
#704 = PLANE('',#705);
#705 = AXIS2_PLACEMENT_3D('',#706,#707,#708);
#706 = CARTESIAN_POINT('',(24.85477821265,3.5,15.));
#707 = DIRECTION('',(0.,1.,0.));
#708 = DIRECTION('',(1.,0.,0.));
#709 = ADVANCED_FACE('',(#710),#721,.T.);
#710 = FACE_BOUND('',#711,.F.);
#711 = EDGE_LOOP('',(#712,#713,#719,#720));
#712 = ORIENTED_EDGE('',*,*,#156,.T.);
#713 = ORIENTED_EDGE('',*,*,#714,.T.);
#714 = EDGE_CURVE('',#149,#262,#715,.T.);
#715 = LINE('',#716,#717);
#716 = CARTESIAN_POINT('',(34.,1.5,15.));
#717 = VECTOR('',#718,1.);
#718 = DIRECTION('',(0.,0.,1.));
#719 = ORIENTED_EDGE('',*,*,#269,.F.);
#720 = ORIENTED_EDGE('',*,*,#699,.F.);
#721 = CYLINDRICAL_SURFACE('',#722,2.);
#722 = AXIS2_PLACEMENT_3D('',#723,#724,#725);
#723 = CARTESIAN_POINT('',(32.,1.5,15.));
#724 = DIRECTION('',(0.,0.,1.));
#725 = DIRECTION('',(0.,1.,0.));
#726 = ADVANCED_FACE('',(#727),#733,.F.);
#727 = FACE_BOUND('',#728,.F.);
#728 = EDGE_LOOP('',(#729,#730,#731,#732));
#729 = ORIENTED_EDGE('',*,*,#664,.F.);
#730 = ORIENTED_EDGE('',*,*,#310,.T.);
#731 = ORIENTED_EDGE('',*,*,#207,.T.);
#732 = ORIENTED_EDGE('',*,*,#122,.F.);
#733 = TOROIDAL_SURFACE('',#734,28.,1.);
#734 = AXIS2_PLACEMENT_3D('',#735,#736,#737);
#735 = CARTESIAN_POINT('',(0.,0.,14.));
#736 = DIRECTION('',(-0.,-0.,-1.));
#737 = DIRECTION('',(0.991562483721,0.12962962963,0.));
#738 = ADVANCED_FACE('',(#739),#745,.T.);
#739 = FACE_BOUND('',#740,.T.);
#740 = EDGE_LOOP('',(#741,#742,#743,#744));
#741 = ORIENTED_EDGE('',*,*,#148,.F.);
#742 = ORIENTED_EDGE('',*,*,#714,.T.);
#743 = ORIENTED_EDGE('',*,*,#261,.T.);
#744 = ORIENTED_EDGE('',*,*,#183,.F.);
#745 = PLANE('',#746);
#746 = AXIS2_PLACEMENT_3D('',#747,#748,#749);
#747 = CARTESIAN_POINT('',(34.,3.5,15.));
#748 = DIRECTION('',(1.,0.,0.));
#749 = DIRECTION('',(0.,-1.,0.));
#750 = ADVANCED_FACE('',(#751),#762,.F.);
#751 = FACE_BOUND('',#752,.T.);
#752 = EDGE_LOOP('',(#753,#759,#760,#761));
#753 = ORIENTED_EDGE('',*,*,#754,.T.);
#754 = EDGE_CURVE('',#166,#279,#755,.T.);
#755 = LINE('',#756,#757);
#756 = CARTESIAN_POINT('',(32.05,0.,15.));
#757 = VECTOR('',#758,1.);
#758 = DIRECTION('',(0.,0.,1.));
#759 = ORIENTED_EDGE('',*,*,#278,.T.);
#760 = ORIENTED_EDGE('',*,*,#754,.F.);
#761 = ORIENTED_EDGE('',*,*,#165,.F.);
#762 = CYLINDRICAL_SURFACE('',#763,1.55);
#763 = AXIS2_PLACEMENT_3D('',#764,#765,#766);
#764 = CARTESIAN_POINT('',(30.5,0.,15.));
#765 = DIRECTION('',(-0.,-0.,-1.));
#766 = DIRECTION('',(1.,0.,0.));
#767 = ADVANCED_FACE('',(#768,#771),#782,.F.);
#768 = FACE_BOUND('',#769,.F.);
#769 = EDGE_LOOP('',(#770));
#770 = ORIENTED_EDGE('',*,*,#302,.T.);
#771 = FACE_BOUND('',#772,.T.);
#772 = EDGE_LOOP('',(#773));
#773 = ORIENTED_EDGE('',*,*,#774,.T.);
#774 = EDGE_CURVE('',#775,#775,#777,.T.);
#775 = VERTEX_POINT('',#776);
#776 = CARTESIAN_POINT('',(13.5,0.,0.));
#777 = CIRCLE('',#778,13.5);
#778 = AXIS2_PLACEMENT_3D('',#779,#780,#781);
#779 = CARTESIAN_POINT('',(0.,0.,0.));
#780 = DIRECTION('',(0.,0.,1.));
#781 = DIRECTION('',(1.,0.,0.));
#782 = PLANE('',#783);
#783 = AXIS2_PLACEMENT_3D('',#784,#785,#786);
#784 = CARTESIAN_POINT('',(-2.16E-15,-7.3E-16,0.));
#785 = DIRECTION('',(0.,0.,1.));
#786 = DIRECTION('',(1.,0.,0.));
#787 = ADVANCED_FACE('',(#788),#843,.T.);
#788 = FACE_BOUND('',#789,.T.);
#789 = EDGE_LOOP('',(#790,#800,#825,#826,#827,#828,#829,#837));
#790 = ORIENTED_EDGE('',*,*,#791,.F.);
#791 = EDGE_CURVE('',#792,#794,#796,.T.);
#792 = VERTEX_POINT('',#793);
#793 = CARTESIAN_POINT('',(3.5,-27.78038876617,15.));
#794 = VERTEX_POINT('',#795);
#795 = CARTESIAN_POINT('',(3.5,-32.,15.));
#796 = LINE('',#797,#798);
#797 = CARTESIAN_POINT('',(3.5,-24.85477821265,15.));
#798 = VECTOR('',#799,1.);
#799 = DIRECTION('',(7.283954728102E-16,-1.,0.));
#800 = ORIENTED_EDGE('',*,*,#801,.F.);
#801 = EDGE_CURVE('',#461,#792,#802,.T.);
#802 = B_SPLINE_CURVE_WITH_KNOTS('',5,(#803,#804,#805,#806,#807,#808,
    #809,#810,#811,#812,#813,#814,#815,#816,#817,#818,#819,#820,#821,
    #822,#823,#824),.UNSPECIFIED.,.F.,.F.,(6,4,4,4,4,6),(0.,
    0.240189310716,0.478995034566,0.728161231966,0.97658890946,1.),
  .UNSPECIFIED.);
#803 = CARTESIAN_POINT('',(3.5,-26.77218706045,14.));
#804 = CARTESIAN_POINT('',(3.5,-26.77218706045,14.075611719279));
#805 = CARTESIAN_POINT('',(3.5,-26.77939446936,14.151226083498));
#806 = CARTESIAN_POINT('',(3.5,-26.79380912429,14.225927030389));
#807 = CARTESIAN_POINT('',(3.5,-26.81525228615,14.298816696028));
#808 = CARTESIAN_POINT('',(3.5,-26.87133909525,14.438879163054));
#809 = CARTESIAN_POINT('',(3.5,-26.90590784362,14.506087110742));
#810 = CARTESIAN_POINT('',(3.5,-26.94674154575,14.569844448236));
#811 = CARTESIAN_POINT('',(3.5,-26.99334725948,14.629404514244));
#812 = CARTESIAN_POINT('',(3.5,-27.09910765351,14.741225263516));
#813 = CARTESIAN_POINT('',(3.5,-27.15872262764,14.793060902421));
#814 = CARTESIAN_POINT('',(3.5,-27.22324482917,14.838908915114));
#815 = CARTESIAN_POINT('',(3.5,-27.29184412204,14.878196226462));
#816 = CARTESIAN_POINT('',(3.5,-27.43514614864,14.942744254435));
#817 = CARTESIAN_POINT('',(3.5,-27.50983472896,14.968048248303));
#818 = CARTESIAN_POINT('',(3.5,-27.58675657844,14.986029882551));
#819 = CARTESIAN_POINT('',(3.5,-27.66494299168,14.996468118522));
#820 = CARTESIAN_POINT('',(3.5,-27.75079704841,14.999595873981));
#821 = CARTESIAN_POINT('',(3.5,-27.75819335849,14.999797928959));
#822 = CARTESIAN_POINT('',(3.5,-27.76559129732,14.99993264275));
#823 = CARTESIAN_POINT('',(3.5,-27.77299004111,15.));
#824 = CARTESIAN_POINT('',(3.5,-27.78038876617,15.));
#825 = ORIENTED_EDGE('',*,*,#469,.F.);
#826 = ORIENTED_EDGE('',*,*,#477,.F.);
#827 = ORIENTED_EDGE('',*,*,#649,.T.);
#828 = ORIENTED_EDGE('',*,*,#590,.T.);
#829 = ORIENTED_EDGE('',*,*,#830,.T.);
#830 = EDGE_CURVE('',#582,#831,#833,.T.);
#831 = VERTEX_POINT('',#832);
#832 = CARTESIAN_POINT('',(3.5,-32.,21.));
#833 = LINE('',#834,#835);
#834 = CARTESIAN_POINT('',(3.5,-24.85477821265,21.));
#835 = VECTOR('',#836,1.);
#836 = DIRECTION('',(7.283954728102E-16,-1.,0.));
#837 = ORIENTED_EDGE('',*,*,#838,.F.);
#838 = EDGE_CURVE('',#794,#831,#839,.T.);
#839 = LINE('',#840,#841);
#840 = CARTESIAN_POINT('',(3.5,-32.,15.));
#841 = VECTOR('',#842,1.);
#842 = DIRECTION('',(0.,0.,1.));
#843 = PLANE('',#844);
#844 = AXIS2_PLACEMENT_3D('',#845,#846,#847);
#845 = CARTESIAN_POINT('',(3.5,-24.85477821265,15.));
#846 = DIRECTION('',(1.,7.283954728102E-16,0.));
#847 = DIRECTION('',(7.283954728102E-16,-1.,0.));
#848 = ADVANCED_FACE('',(#849),#860,.T.);
#849 = FACE_BOUND('',#850,.T.);
#850 = EDGE_LOOP('',(#851,#852,#853,#859));
#851 = ORIENTED_EDGE('',*,*,#691,.F.);
#852 = ORIENTED_EDGE('',*,*,#335,.T.);
#853 = ORIENTED_EDGE('',*,*,#854,.T.);
#854 = EDGE_CURVE('',#336,#504,#855,.T.);
#855 = LINE('',#856,#857);
#856 = CARTESIAN_POINT('',(3.5,12.427389106325,18.));
#857 = VECTOR('',#858,1.);
#858 = DIRECTION('',(0.,-1.,0.));
#859 = ORIENTED_EDGE('',*,*,#631,.F.);
#860 = PLANE('',#861);
#861 = AXIS2_PLACEMENT_3D('',#862,#863,#864);
#862 = CARTESIAN_POINT('',(-2.099716134418E-15,-4.936274663665E-16,18.)
  );
#863 = DIRECTION('',(0.,0.,1.));
#864 = DIRECTION('',(1.,0.,0.));
#865 = ADVANCED_FACE('',(#866),#904,.F.);
#866 = FACE_BOUND('',#867,.F.);
#867 = EDGE_LOOP('',(#868,#869,#870,#897));
#868 = ORIENTED_EDGE('',*,*,#801,.F.);
#869 = ORIENTED_EDGE('',*,*,#460,.T.);
#870 = ORIENTED_EDGE('',*,*,#871,.T.);
#871 = EDGE_CURVE('',#453,#872,#874,.T.);
#872 = VERTEX_POINT('',#873);
#873 = CARTESIAN_POINT('',(-3.5,-27.78038876617,15.));
#874 = B_SPLINE_CURVE_WITH_KNOTS('',5,(#875,#876,#877,#878,#879,#880,
    #881,#882,#883,#884,#885,#886,#887,#888,#889,#890,#891,#892,#893,
    #894,#895,#896),.UNSPECIFIED.,.F.,.F.,(6,4,4,4,4,6),(0.,
    0.24018931047,0.47899503432,0.728161231719,0.976588909213,1.),
  .UNSPECIFIED.);
#875 = CARTESIAN_POINT('',(-3.5,-26.77218706045,14.));
#876 = CARTESIAN_POINT('',(-3.5,-26.77218706045,14.075611719202));
#877 = CARTESIAN_POINT('',(-3.5,-26.77939446935,14.151226083343));
#878 = CARTESIAN_POINT('',(-3.5,-26.79380912424,14.225927030159));
#879 = CARTESIAN_POINT('',(-3.5,-26.81525228606,14.298816695729));
#880 = CARTESIAN_POINT('',(-3.5,-26.87133909508,14.438879162705));
#881 = CARTESIAN_POINT('',(-3.5,-26.90590784343,14.506087110407));
#882 = CARTESIAN_POINT('',(-3.5,-26.94674154552,14.569844447916));
#883 = CARTESIAN_POINT('',(-3.5,-26.99334725923,14.629404513942));
#884 = CARTESIAN_POINT('',(-3.5,-27.09910765322,14.741225263255));
#885 = CARTESIAN_POINT('',(-3.5,-27.15872262733,14.793060902182));
#886 = CARTESIAN_POINT('',(-3.5,-27.22324482884,14.8389089149));
#887 = CARTESIAN_POINT('',(-3.5,-27.2918441217,14.878196226274));
#888 = CARTESIAN_POINT('',(-3.5,-27.43514614828,14.942744254303));
#889 = CARTESIAN_POINT('',(-3.5,-27.50983472858,14.968048248199));
#890 = CARTESIAN_POINT('',(-3.5,-27.58675657806,14.986029882477));
#891 = CARTESIAN_POINT('',(-3.5,-27.66494299129,14.996468118478));
#892 = CARTESIAN_POINT('',(-3.5,-27.7507970481,14.999595873973));
#893 = CARTESIAN_POINT('',(-3.5,-27.75819335825,14.999797928954));
#894 = CARTESIAN_POINT('',(-3.5,-27.76559129716,14.999932642748));
#895 = CARTESIAN_POINT('',(-3.5,-27.77299004103,15.));
#896 = CARTESIAN_POINT('',(-3.5,-27.78038876617,15.));
#897 = ORIENTED_EDGE('',*,*,#898,.F.);
#898 = EDGE_CURVE('',#792,#872,#899,.T.);
#899 = CIRCLE('',#900,28.);
#900 = AXIS2_PLACEMENT_3D('',#901,#902,#903);
#901 = CARTESIAN_POINT('',(0.,0.,15.));
#902 = DIRECTION('',(0.,-0.,-1.));
#903 = DIRECTION('',(0.12962962963,-0.991562483721,0.));
#904 = TOROIDAL_SURFACE('',#905,28.,1.);
#905 = AXIS2_PLACEMENT_3D('',#906,#907,#908);
#906 = CARTESIAN_POINT('',(0.,0.,14.));
#907 = DIRECTION('',(-0.,-0.,-1.));
#908 = DIRECTION('',(0.12962962963,-0.991562483721,0.));
#909 = ADVANCED_FACE('',(#910),#965,.F.);
#910 = FACE_BOUND('',#911,.F.);
#911 = EDGE_LOOP('',(#912,#922,#947,#948,#949,#950,#951,#959));
#912 = ORIENTED_EDGE('',*,*,#913,.F.);
#913 = EDGE_CURVE('',#914,#916,#918,.T.);
#914 = VERTEX_POINT('',#915);
#915 = CARTESIAN_POINT('',(3.5,27.780388766178,15.));
#916 = VERTEX_POINT('',#917);
#917 = CARTESIAN_POINT('',(3.5,32.,15.));
#918 = LINE('',#919,#920);
#919 = CARTESIAN_POINT('',(3.5,24.85477821265,15.));
#920 = VECTOR('',#921,1.);
#921 = DIRECTION('',(0.,1.,0.));
#922 = ORIENTED_EDGE('',*,*,#923,.F.);
#923 = EDGE_CURVE('',#353,#914,#924,.T.);
#924 = B_SPLINE_CURVE_WITH_KNOTS('',5,(#925,#926,#927,#928,#929,#930,
    #931,#932,#933,#934,#935,#936,#937,#938,#939,#940,#941,#942,#943,
    #944,#945,#946),.UNSPECIFIED.,.F.,.F.,(6,4,4,4,4,6),(0.,
    0.240189310898,0.478995034749,0.728161232148,0.976588909643,1.),
  .UNSPECIFIED.);
#925 = CARTESIAN_POINT('',(3.5,26.772187060455,14.));
#926 = CARTESIAN_POINT('',(3.5,26.772187060455,14.075611719337));
#927 = CARTESIAN_POINT('',(3.5,26.77939446938,14.151226083613));
#928 = CARTESIAN_POINT('',(3.5,26.793809124324,14.225927030559));
#929 = CARTESIAN_POINT('',(3.5,26.81525228622,14.298816696249));
#930 = CARTESIAN_POINT('',(3.5,26.87133909538,14.438879163312));
#931 = CARTESIAN_POINT('',(3.5,26.905907843775,14.506087110991));
#932 = CARTESIAN_POINT('',(3.5,26.946741545915,14.569844448474));
#933 = CARTESIAN_POINT('',(3.5,26.993347259665,14.629404514468));
#934 = CARTESIAN_POINT('',(3.5,27.099107653727,14.74122526371));
#935 = CARTESIAN_POINT('',(3.5,27.158722627877,14.793060902598));
#936 = CARTESIAN_POINT('',(3.5,27.223244829417,14.838908915272));
#937 = CARTESIAN_POINT('',(3.5,27.291844122299,14.878196226601));
#938 = CARTESIAN_POINT('',(3.5,27.435146148922,14.942744254533));
#939 = CARTESIAN_POINT('',(3.5,27.509834729239,14.96804824838));
#940 = CARTESIAN_POINT('',(3.5,27.586756578734,14.986029882606));
#941 = CARTESIAN_POINT('',(3.5,27.664942991969,14.996468118555));
#942 = CARTESIAN_POINT('',(3.5,27.750797048647,14.999595873987));
#943 = CARTESIAN_POINT('',(3.5,27.758193358664,14.999797928962));
#944 = CARTESIAN_POINT('',(3.5,27.765591297435,14.999932642751));
#945 = CARTESIAN_POINT('',(3.5,27.772990041171,15.));
#946 = CARTESIAN_POINT('',(3.5,27.780388766178,15.));
#947 = ORIENTED_EDGE('',*,*,#352,.F.);
#948 = ORIENTED_EDGE('',*,*,#344,.F.);
#949 = ORIENTED_EDGE('',*,*,#854,.T.);
#950 = ORIENTED_EDGE('',*,*,#503,.T.);
#951 = ORIENTED_EDGE('',*,*,#952,.T.);
#952 = EDGE_CURVE('',#506,#953,#955,.T.);
#953 = VERTEX_POINT('',#954);
#954 = CARTESIAN_POINT('',(3.5,32.,21.));
#955 = LINE('',#956,#957);
#956 = CARTESIAN_POINT('',(3.5,24.85477821265,21.));
#957 = VECTOR('',#958,1.);
#958 = DIRECTION('',(0.,1.,0.));
#959 = ORIENTED_EDGE('',*,*,#960,.F.);
#960 = EDGE_CURVE('',#916,#953,#961,.T.);
#961 = LINE('',#962,#963);
#962 = CARTESIAN_POINT('',(3.5,32.,15.));
#963 = VECTOR('',#964,1.);
#964 = DIRECTION('',(0.,0.,1.));
#965 = PLANE('',#966);
#966 = AXIS2_PLACEMENT_3D('',#967,#968,#969);
#967 = CARTESIAN_POINT('',(3.5,24.85477821265,15.));
#968 = DIRECTION('',(-1.,0.,0.));
#969 = DIRECTION('',(0.,1.,0.));
#970 = ADVANCED_FACE('',(#971),#1005,.T.);
#971 = FACE_BOUND('',#972,.T.);
#972 = EDGE_LOOP('',(#973,#981,#989,#995,#996,#1002,#1003,#1004));
#973 = ORIENTED_EDGE('',*,*,#974,.F.);
#974 = EDGE_CURVE('',#975,#872,#977,.T.);
#975 = VERTEX_POINT('',#976);
#976 = CARTESIAN_POINT('',(-3.5,-32.,15.));
#977 = LINE('',#978,#979);
#978 = CARTESIAN_POINT('',(-3.5,-34.,15.));
#979 = VECTOR('',#980,1.);
#980 = DIRECTION('',(7.283954728102E-16,1.,0.));
#981 = ORIENTED_EDGE('',*,*,#982,.T.);
#982 = EDGE_CURVE('',#975,#983,#985,.T.);
#983 = VERTEX_POINT('',#984);
#984 = CARTESIAN_POINT('',(-3.5,-32.,21.));
#985 = LINE('',#986,#987);
#986 = CARTESIAN_POINT('',(-3.5,-32.,15.));
#987 = VECTOR('',#988,1.);
#988 = DIRECTION('',(0.,0.,1.));
#989 = ORIENTED_EDGE('',*,*,#990,.T.);
#990 = EDGE_CURVE('',#983,#574,#991,.T.);
#991 = LINE('',#992,#993);
#992 = CARTESIAN_POINT('',(-3.5,-34.,21.));
#993 = VECTOR('',#994,1.);
#994 = DIRECTION('',(7.283954728102E-16,1.,0.));
#995 = ORIENTED_EDGE('',*,*,#573,.F.);
#996 = ORIENTED_EDGE('',*,*,#997,.T.);
#997 = EDGE_CURVE('',#565,#436,#998,.T.);
#998 = LINE('',#999,#1000);
#999 = CARTESIAN_POINT('',(-3.5,-17.,18.));
#1000 = VECTOR('',#1001,1.);
#1001 = DIRECTION('',(-7.283954728102E-16,-1.,0.));
#1002 = ORIENTED_EDGE('',*,*,#444,.T.);
#1003 = ORIENTED_EDGE('',*,*,#452,.T.);
#1004 = ORIENTED_EDGE('',*,*,#871,.T.);
#1005 = PLANE('',#1006);
#1006 = AXIS2_PLACEMENT_3D('',#1007,#1008,#1009);
#1007 = CARTESIAN_POINT('',(-3.5,-34.,15.));
#1008 = DIRECTION('',(-1.,7.283954728102E-16,0.));
#1009 = DIRECTION('',(7.283954728102E-16,1.,0.));
#1010 = ADVANCED_FACE('',(#1011),#1049,.F.);
#1011 = FACE_BOUND('',#1012,.F.);
#1012 = EDGE_LOOP('',(#1013,#1040,#1041,#1042));
#1013 = ORIENTED_EDGE('',*,*,#1014,.F.);
#1014 = EDGE_CURVE('',#361,#1015,#1017,.T.);
#1015 = VERTEX_POINT('',#1016);
#1016 = CARTESIAN_POINT('',(-3.5,27.780388766178,15.));
#1017 = B_SPLINE_CURVE_WITH_KNOTS('',5,(#1018,#1019,#1020,#1021,#1022,
    #1023,#1024,#1025,#1026,#1027,#1028,#1029,#1030,#1031,#1032,#1033,
    #1034,#1035,#1036,#1037,#1038,#1039),.UNSPECIFIED.,.F.,.F.,(6,4,4,4,
    4,6),(0.,0.240189310898,0.478995034749,0.728161232149,0.976588909643
    ,1.),.UNSPECIFIED.);
#1018 = CARTESIAN_POINT('',(-3.5,26.772187060455,14.));
#1019 = CARTESIAN_POINT('',(-3.5,26.772187060455,14.075611719337));
#1020 = CARTESIAN_POINT('',(-3.5,26.77939446938,14.151226083613));
#1021 = CARTESIAN_POINT('',(-3.5,26.793809124324,14.225927030559));
#1022 = CARTESIAN_POINT('',(-3.5,26.81525228622,14.298816696249));
#1023 = CARTESIAN_POINT('',(-3.5,26.87133909538,14.438879163312));
#1024 = CARTESIAN_POINT('',(-3.5,26.905907843775,14.506087110991));
#1025 = CARTESIAN_POINT('',(-3.5,26.946741545915,14.569844448474));
#1026 = CARTESIAN_POINT('',(-3.5,26.993347259665,14.629404514468));
#1027 = CARTESIAN_POINT('',(-3.5,27.099107653727,14.74122526371));
#1028 = CARTESIAN_POINT('',(-3.5,27.158722627877,14.793060902598));
#1029 = CARTESIAN_POINT('',(-3.5,27.223244829417,14.838908915272));
#1030 = CARTESIAN_POINT('',(-3.5,27.291844122299,14.878196226601));
#1031 = CARTESIAN_POINT('',(-3.5,27.435146148922,14.942744254533));
#1032 = CARTESIAN_POINT('',(-3.5,27.50983472924,14.96804824838));
#1033 = CARTESIAN_POINT('',(-3.5,27.586756578734,14.986029882606));
#1034 = CARTESIAN_POINT('',(-3.5,27.664942991969,14.996468118555));
#1035 = CARTESIAN_POINT('',(-3.5,27.750797048647,14.999595873987));
#1036 = CARTESIAN_POINT('',(-3.5,27.758193358664,14.999797928962));
#1037 = CARTESIAN_POINT('',(-3.5,27.765591297435,14.999932642751));
#1038 = CARTESIAN_POINT('',(-3.5,27.772990041171,15.));
#1039 = CARTESIAN_POINT('',(-3.5,27.780388766178,15.));
#1040 = ORIENTED_EDGE('',*,*,#360,.T.);
#1041 = ORIENTED_EDGE('',*,*,#923,.T.);
#1042 = ORIENTED_EDGE('',*,*,#1043,.F.);
#1043 = EDGE_CURVE('',#1015,#914,#1044,.T.);
#1044 = CIRCLE('',#1045,28.);
#1045 = AXIS2_PLACEMENT_3D('',#1046,#1047,#1048);
#1046 = CARTESIAN_POINT('',(0.,0.,15.));
#1047 = DIRECTION('',(0.,0.,-1.));
#1048 = DIRECTION('',(-0.12962962963,0.991562483721,0.));
#1049 = TOROIDAL_SURFACE('',#1050,28.,1.);
#1050 = AXIS2_PLACEMENT_3D('',#1051,#1052,#1053);
#1051 = CARTESIAN_POINT('',(0.,0.,14.));
#1052 = DIRECTION('',(-0.,-0.,-1.));
#1053 = DIRECTION('',(-0.12962962963,0.991562483721,0.));
#1054 = ADVANCED_FACE('',(#1055),#1066,.T.);
#1055 = FACE_BOUND('',#1056,.T.);
#1056 = EDGE_LOOP('',(#1057,#1058,#1059,#1060));
#1057 = ORIENTED_EDGE('',*,*,#435,.T.);
#1058 = ORIENTED_EDGE('',*,*,#997,.F.);
#1059 = ORIENTED_EDGE('',*,*,#564,.F.);
#1060 = ORIENTED_EDGE('',*,*,#1061,.T.);
#1061 = EDGE_CURVE('',#557,#428,#1062,.T.);
#1062 = LINE('',#1063,#1064);
#1063 = CARTESIAN_POINT('',(-17.,-3.499999999999,18.));
#1064 = VECTOR('',#1065,1.);
#1065 = DIRECTION('',(-1.,0.,0.));
#1066 = PLANE('',#1067);
#1067 = AXIS2_PLACEMENT_3D('',#1068,#1069,#1070);
#1068 = CARTESIAN_POINT('',(-2.099716134418E-15,-4.936274663665E-16,18.)
  );
#1069 = DIRECTION('',(0.,0.,1.));
#1070 = DIRECTION('',(1.,0.,0.));
#1071 = ADVANCED_FACE('',(#1072),#1106,.F.);
#1072 = FACE_BOUND('',#1073,.F.);
#1073 = EDGE_LOOP('',(#1074,#1082,#1090,#1096,#1097,#1103,#1104,#1105));
#1074 = ORIENTED_EDGE('',*,*,#1075,.F.);
#1075 = EDGE_CURVE('',#1076,#1015,#1078,.T.);
#1076 = VERTEX_POINT('',#1077);
#1077 = CARTESIAN_POINT('',(-3.5,32.,15.));
#1078 = LINE('',#1079,#1080);
#1079 = CARTESIAN_POINT('',(-3.5,34.,15.));
#1080 = VECTOR('',#1081,1.);
#1081 = DIRECTION('',(0.,-1.,0.));
#1082 = ORIENTED_EDGE('',*,*,#1083,.T.);
#1083 = EDGE_CURVE('',#1076,#1084,#1086,.T.);
#1084 = VERTEX_POINT('',#1085);
#1085 = CARTESIAN_POINT('',(-3.5,32.,21.));
#1086 = LINE('',#1087,#1088);
#1087 = CARTESIAN_POINT('',(-3.5,32.,15.));
#1088 = VECTOR('',#1089,1.);
#1089 = DIRECTION('',(0.,0.,1.));
#1090 = ORIENTED_EDGE('',*,*,#1091,.T.);
#1091 = EDGE_CURVE('',#1084,#514,#1092,.T.);
#1092 = LINE('',#1093,#1094);
#1093 = CARTESIAN_POINT('',(-3.5,34.,21.));
#1094 = VECTOR('',#1095,1.);
#1095 = DIRECTION('',(0.,-1.,0.));
#1096 = ORIENTED_EDGE('',*,*,#522,.F.);
#1097 = ORIENTED_EDGE('',*,*,#1098,.T.);
#1098 = EDGE_CURVE('',#523,#378,#1099,.T.);
#1099 = LINE('',#1100,#1101);
#1100 = CARTESIAN_POINT('',(-3.5,17.,18.));
#1101 = VECTOR('',#1102,1.);
#1102 = DIRECTION('',(0.,1.,0.));
#1103 = ORIENTED_EDGE('',*,*,#377,.T.);
#1104 = ORIENTED_EDGE('',*,*,#369,.T.);
#1105 = ORIENTED_EDGE('',*,*,#1014,.T.);
#1106 = PLANE('',#1107);
#1107 = AXIS2_PLACEMENT_3D('',#1108,#1109,#1110);
#1108 = CARTESIAN_POINT('',(-3.5,34.,15.));
#1109 = DIRECTION('',(1.,0.,0.));
#1110 = DIRECTION('',(0.,-1.,0.));
#1111 = ADVANCED_FACE('',(#1112),#1167,.F.);
#1112 = FACE_BOUND('',#1113,.F.);
#1113 = EDGE_LOOP('',(#1114,#1124,#1132,#1138,#1139,#1140,#1141,#1142));
#1114 = ORIENTED_EDGE('',*,*,#1115,.F.);
#1115 = EDGE_CURVE('',#1116,#1118,#1120,.T.);
#1116 = VERTEX_POINT('',#1117);
#1117 = CARTESIAN_POINT('',(-32.,-3.499999999999,15.));
#1118 = VERTEX_POINT('',#1119);
#1119 = CARTESIAN_POINT('',(-27.78038876617,-3.499999999999,15.));
#1120 = LINE('',#1121,#1122);
#1121 = CARTESIAN_POINT('',(-34.,-3.499999999999,15.));
#1122 = VECTOR('',#1123,1.);
#1123 = DIRECTION('',(1.,0.,0.));
#1124 = ORIENTED_EDGE('',*,*,#1125,.T.);
#1125 = EDGE_CURVE('',#1116,#1126,#1128,.T.);
#1126 = VERTEX_POINT('',#1127);
#1127 = CARTESIAN_POINT('',(-32.,-3.499999999999,21.));
#1128 = LINE('',#1129,#1130);
#1129 = CARTESIAN_POINT('',(-32.,-3.499999999999,15.));
#1130 = VECTOR('',#1131,1.);
#1131 = DIRECTION('',(0.,0.,1.));
#1132 = ORIENTED_EDGE('',*,*,#1133,.T.);
#1133 = EDGE_CURVE('',#1126,#548,#1134,.T.);
#1134 = LINE('',#1135,#1136);
#1135 = CARTESIAN_POINT('',(-34.,-3.499999999999,21.));
#1136 = VECTOR('',#1137,1.);
#1137 = DIRECTION('',(1.,0.,0.));
#1138 = ORIENTED_EDGE('',*,*,#556,.F.);
#1139 = ORIENTED_EDGE('',*,*,#1061,.T.);
#1140 = ORIENTED_EDGE('',*,*,#427,.T.);
#1141 = ORIENTED_EDGE('',*,*,#419,.T.);
#1142 = ORIENTED_EDGE('',*,*,#1143,.T.);
#1143 = EDGE_CURVE('',#411,#1118,#1144,.T.);
#1144 = B_SPLINE_CURVE_WITH_KNOTS('',5,(#1145,#1146,#1147,#1148,#1149,
    #1150,#1151,#1152,#1153,#1154,#1155,#1156,#1157,#1158,#1159,#1160,
    #1161,#1162,#1163,#1164,#1165,#1166),.UNSPECIFIED.,.F.,.F.,(6,4,4,4,
    4,6),(0.,0.240189310716,0.478995034566,0.728161231966,0.97658890946,
    1.),.UNSPECIFIED.);
#1145 = CARTESIAN_POINT('',(-26.77218706045,-3.499999999999,14.));
#1146 = CARTESIAN_POINT('',(-26.77218706045,-3.499999999999,
    14.075611719279));
#1147 = CARTESIAN_POINT('',(-26.77939446936,-3.499999999999,
    14.151226083498));
#1148 = CARTESIAN_POINT('',(-26.79380912429,-3.499999999999,
    14.225927030389));
#1149 = CARTESIAN_POINT('',(-26.81525228615,-3.499999999999,
    14.298816696028));
#1150 = CARTESIAN_POINT('',(-26.87133909525,-3.499999999999,
    14.438879163054));
#1151 = CARTESIAN_POINT('',(-26.90590784362,-3.499999999999,
    14.506087110742));
#1152 = CARTESIAN_POINT('',(-26.94674154575,-3.499999999999,
    14.569844448236));
#1153 = CARTESIAN_POINT('',(-26.99334725948,-3.499999999999,
    14.629404514244));
#1154 = CARTESIAN_POINT('',(-27.09910765351,-3.499999999999,
    14.741225263516));
#1155 = CARTESIAN_POINT('',(-27.15872262764,-3.499999999999,
    14.793060902421));
#1156 = CARTESIAN_POINT('',(-27.22324482917,-3.499999999999,
    14.838908915114));
#1157 = CARTESIAN_POINT('',(-27.29184412204,-3.499999999999,
    14.878196226462));
#1158 = CARTESIAN_POINT('',(-27.43514614864,-3.499999999999,
    14.942744254435));
#1159 = CARTESIAN_POINT('',(-27.50983472896,-3.499999999999,
    14.968048248303));
#1160 = CARTESIAN_POINT('',(-27.58675657844,-3.499999999999,
    14.986029882551));
#1161 = CARTESIAN_POINT('',(-27.66494299168,-3.499999999999,
    14.996468118522));
#1162 = CARTESIAN_POINT('',(-27.75079704841,-3.499999999999,
    14.999595873981));
#1163 = CARTESIAN_POINT('',(-27.75819335849,-3.499999999999,
    14.999797928959));
#1164 = CARTESIAN_POINT('',(-27.76559129732,-3.499999999999,
    14.99993264275));
#1165 = CARTESIAN_POINT('',(-27.77299004111,-3.499999999999,15.));
#1166 = CARTESIAN_POINT('',(-27.78038876617,-3.499999999999,15.));
#1167 = PLANE('',#1168);
#1168 = AXIS2_PLACEMENT_3D('',#1169,#1170,#1171);
#1169 = CARTESIAN_POINT('',(-34.,-3.499999999999,15.));
#1170 = DIRECTION('',(0.,1.,0.));
#1171 = DIRECTION('',(1.,0.,0.));
#1172 = ADVANCED_FACE('',(#1173),#1184,.T.);
#1173 = FACE_BOUND('',#1174,.T.);
#1174 = EDGE_LOOP('',(#1175,#1176,#1177,#1183));
#1175 = ORIENTED_EDGE('',*,*,#1098,.T.);
#1176 = ORIENTED_EDGE('',*,*,#385,.T.);
#1177 = ORIENTED_EDGE('',*,*,#1178,.T.);
#1178 = EDGE_CURVE('',#386,#531,#1179,.T.);
#1179 = LINE('',#1180,#1181);
#1180 = CARTESIAN_POINT('',(-12.42738910632,3.499999999999,18.));
#1181 = VECTOR('',#1182,1.);
#1182 = DIRECTION('',(1.,0.,0.));
#1183 = ORIENTED_EDGE('',*,*,#530,.F.);
#1184 = PLANE('',#1185);
#1185 = AXIS2_PLACEMENT_3D('',#1186,#1187,#1188);
#1186 = CARTESIAN_POINT('',(-2.099716134418E-15,-4.936274663665E-16,18.)
  );
#1187 = DIRECTION('',(0.,0.,1.));
#1188 = DIRECTION('',(1.,0.,0.));
#1189 = ADVANCED_FACE('',(#1190),#1228,.F.);
#1190 = FACE_BOUND('',#1191,.F.);
#1191 = EDGE_LOOP('',(#1192,#1193,#1194,#1221));
#1192 = ORIENTED_EDGE('',*,*,#1143,.F.);
#1193 = ORIENTED_EDGE('',*,*,#410,.T.);
#1194 = ORIENTED_EDGE('',*,*,#1195,.T.);
#1195 = EDGE_CURVE('',#403,#1196,#1198,.T.);
#1196 = VERTEX_POINT('',#1197);
#1197 = CARTESIAN_POINT('',(-27.78038876617,3.499999999999,15.));
#1198 = B_SPLINE_CURVE_WITH_KNOTS('',5,(#1199,#1200,#1201,#1202,#1203,
    #1204,#1205,#1206,#1207,#1208,#1209,#1210,#1211,#1212,#1213,#1214,
    #1215,#1216,#1217,#1218,#1219,#1220),.UNSPECIFIED.,.F.,.F.,(6,4,4,4,
    4,6),(0.,0.240189310716,0.478995034566,0.728161231966,0.97658890946,
    1.),.UNSPECIFIED.);
#1199 = CARTESIAN_POINT('',(-26.77218706045,3.499999999999,14.));
#1200 = CARTESIAN_POINT('',(-26.77218706045,3.499999999999,
    14.075611719279));
#1201 = CARTESIAN_POINT('',(-26.77939446936,3.499999999999,
    14.151226083498));
#1202 = CARTESIAN_POINT('',(-26.79380912429,3.499999999999,
    14.225927030389));
#1203 = CARTESIAN_POINT('',(-26.81525228615,3.499999999999,
    14.298816696028));
#1204 = CARTESIAN_POINT('',(-26.87133909525,3.499999999999,
    14.438879163054));
#1205 = CARTESIAN_POINT('',(-26.90590784362,3.499999999999,
    14.506087110742));
#1206 = CARTESIAN_POINT('',(-26.94674154575,3.499999999999,
    14.569844448236));
#1207 = CARTESIAN_POINT('',(-26.99334725948,3.499999999999,
    14.629404514244));
#1208 = CARTESIAN_POINT('',(-27.09910765351,3.499999999999,
    14.741225263516));
#1209 = CARTESIAN_POINT('',(-27.15872262764,3.499999999999,
    14.793060902421));
#1210 = CARTESIAN_POINT('',(-27.22324482917,3.499999999999,
    14.838908915114));
#1211 = CARTESIAN_POINT('',(-27.29184412204,3.499999999999,
    14.878196226462));
#1212 = CARTESIAN_POINT('',(-27.43514614864,3.499999999999,
    14.942744254435));
#1213 = CARTESIAN_POINT('',(-27.50983472896,3.499999999999,
    14.968048248303));
#1214 = CARTESIAN_POINT('',(-27.58675657844,3.499999999999,
    14.986029882551));
#1215 = CARTESIAN_POINT('',(-27.66494299168,3.499999999999,
    14.996468118522));
#1216 = CARTESIAN_POINT('',(-27.75079704841,3.499999999999,
    14.999595873981));
#1217 = CARTESIAN_POINT('',(-27.75819335849,3.499999999999,
    14.999797928959));
#1218 = CARTESIAN_POINT('',(-27.76559129732,3.499999999999,
    14.99993264275));
#1219 = CARTESIAN_POINT('',(-27.77299004111,3.499999999999,15.));
#1220 = CARTESIAN_POINT('',(-27.78038876617,3.499999999999,15.));
#1221 = ORIENTED_EDGE('',*,*,#1222,.F.);
#1222 = EDGE_CURVE('',#1118,#1196,#1223,.T.);
#1223 = CIRCLE('',#1224,28.);
#1224 = AXIS2_PLACEMENT_3D('',#1225,#1226,#1227);
#1225 = CARTESIAN_POINT('',(0.,0.,15.));
#1226 = DIRECTION('',(-0.,0.,-1.));
#1227 = DIRECTION('',(-0.991562483721,-0.12962962963,0.));
#1228 = TOROIDAL_SURFACE('',#1229,28.,1.);
#1229 = AXIS2_PLACEMENT_3D('',#1230,#1231,#1232);
#1230 = CARTESIAN_POINT('',(0.,0.,14.));
#1231 = DIRECTION('',(-0.,-0.,-1.));
#1232 = DIRECTION('',(-0.991562483721,-0.12962962963,0.));
#1233 = ADVANCED_FACE('',(#1234),#1263,.F.);
#1234 = FACE_BOUND('',#1235,.F.);
#1235 = EDGE_LOOP('',(#1236,#1244,#1245,#1246,#1247,#1248,#1249,#1257));
#1236 = ORIENTED_EDGE('',*,*,#1237,.F.);
#1237 = EDGE_CURVE('',#1196,#1238,#1240,.T.);
#1238 = VERTEX_POINT('',#1239);
#1239 = CARTESIAN_POINT('',(-32.,3.499999999999,15.));
#1240 = LINE('',#1241,#1242);
#1241 = CARTESIAN_POINT('',(-24.85477821264,3.499999999999,15.));
#1242 = VECTOR('',#1243,1.);
#1243 = DIRECTION('',(-1.,0.,0.));
#1244 = ORIENTED_EDGE('',*,*,#1195,.F.);
#1245 = ORIENTED_EDGE('',*,*,#402,.F.);
#1246 = ORIENTED_EDGE('',*,*,#394,.F.);
#1247 = ORIENTED_EDGE('',*,*,#1178,.T.);
#1248 = ORIENTED_EDGE('',*,*,#539,.T.);
#1249 = ORIENTED_EDGE('',*,*,#1250,.T.);
#1250 = EDGE_CURVE('',#540,#1251,#1253,.T.);
#1251 = VERTEX_POINT('',#1252);
#1252 = CARTESIAN_POINT('',(-32.,3.499999999999,21.));
#1253 = LINE('',#1254,#1255);
#1254 = CARTESIAN_POINT('',(-24.85477821264,3.499999999999,21.));
#1255 = VECTOR('',#1256,1.);
#1256 = DIRECTION('',(-1.,0.,0.));
#1257 = ORIENTED_EDGE('',*,*,#1258,.F.);
#1258 = EDGE_CURVE('',#1238,#1251,#1259,.T.);
#1259 = LINE('',#1260,#1261);
#1260 = CARTESIAN_POINT('',(-32.,3.499999999999,15.));
#1261 = VECTOR('',#1262,1.);
#1262 = DIRECTION('',(0.,0.,1.));
#1263 = PLANE('',#1264);
#1264 = AXIS2_PLACEMENT_3D('',#1265,#1266,#1267);
#1265 = CARTESIAN_POINT('',(-24.85477821264,3.499999999999,15.));
#1266 = DIRECTION('',(0.,-1.,0.));
#1267 = DIRECTION('',(-1.,0.,0.));
#1268 = ADVANCED_FACE('',(#1269,#1298),#1309,.T.);
#1269 = FACE_BOUND('',#1270,.T.);
#1270 = EDGE_LOOP('',(#1271,#1272,#1281,#1289,#1296,#1297));
#1271 = ORIENTED_EDGE('',*,*,#952,.T.);
#1272 = ORIENTED_EDGE('',*,*,#1273,.T.);
#1273 = EDGE_CURVE('',#953,#1274,#1276,.T.);
#1274 = VERTEX_POINT('',#1275);
#1275 = CARTESIAN_POINT('',(1.5,34.,21.));
#1276 = CIRCLE('',#1277,2.);
#1277 = AXIS2_PLACEMENT_3D('',#1278,#1279,#1280);
#1278 = CARTESIAN_POINT('',(1.5,32.,21.));
#1279 = DIRECTION('',(-0.,0.,1.));
#1280 = DIRECTION('',(0.,-1.,0.));
#1281 = ORIENTED_EDGE('',*,*,#1282,.T.);
#1282 = EDGE_CURVE('',#1274,#1283,#1285,.T.);
#1283 = VERTEX_POINT('',#1284);
#1284 = CARTESIAN_POINT('',(-1.5,34.,21.));
#1285 = LINE('',#1286,#1287);
#1286 = CARTESIAN_POINT('',(3.5,34.,21.));
#1287 = VECTOR('',#1288,1.);
#1288 = DIRECTION('',(-1.,0.,0.));
#1289 = ORIENTED_EDGE('',*,*,#1290,.F.);
#1290 = EDGE_CURVE('',#1084,#1283,#1291,.T.);
#1291 = CIRCLE('',#1292,2.);
#1292 = AXIS2_PLACEMENT_3D('',#1293,#1294,#1295);
#1293 = CARTESIAN_POINT('',(-1.5,32.,21.));
#1294 = DIRECTION('',(-0.,-0.,-1.));
#1295 = DIRECTION('',(0.,-1.,0.));
#1296 = ORIENTED_EDGE('',*,*,#1091,.T.);
#1297 = ORIENTED_EDGE('',*,*,#513,.F.);
#1298 = FACE_BOUND('',#1299,.F.);
#1299 = EDGE_LOOP('',(#1300));
#1300 = ORIENTED_EDGE('',*,*,#1301,.T.);
#1301 = EDGE_CURVE('',#1302,#1302,#1304,.T.);
#1302 = VERTEX_POINT('',#1303);
#1303 = CARTESIAN_POINT('',(1.55,30.5,21.));
#1304 = CIRCLE('',#1305,1.55);
#1305 = AXIS2_PLACEMENT_3D('',#1306,#1307,#1308);
#1306 = CARTESIAN_POINT('',(0.,30.5,21.));
#1307 = DIRECTION('',(0.,0.,1.));
#1308 = DIRECTION('',(1.,0.,0.));
#1309 = PLANE('',#1310);
#1310 = AXIS2_PLACEMENT_3D('',#1311,#1312,#1313);
#1311 = CARTESIAN_POINT('',(-7.747721653652E-13,8.449449537969E-15,21.)
  );
#1312 = DIRECTION('',(0.,0.,1.));
#1313 = DIRECTION('',(1.,0.,0.));
#1314 = ADVANCED_FACE('',(#1315,#1344),#1355,.T.);
#1315 = FACE_BOUND('',#1316,.T.);
#1316 = EDGE_LOOP('',(#1317,#1318,#1327,#1335,#1342,#1343));
#1317 = ORIENTED_EDGE('',*,*,#1250,.T.);
#1318 = ORIENTED_EDGE('',*,*,#1319,.T.);
#1319 = EDGE_CURVE('',#1251,#1320,#1322,.T.);
#1320 = VERTEX_POINT('',#1321);
#1321 = CARTESIAN_POINT('',(-34.,1.499999999999,21.));
#1322 = CIRCLE('',#1323,2.);
#1323 = AXIS2_PLACEMENT_3D('',#1324,#1325,#1326);
#1324 = CARTESIAN_POINT('',(-32.,1.499999999999,21.));
#1325 = DIRECTION('',(-0.,0.,1.));
#1326 = DIRECTION('',(0.,-1.,0.));
#1327 = ORIENTED_EDGE('',*,*,#1328,.T.);
#1328 = EDGE_CURVE('',#1320,#1329,#1331,.T.);
#1329 = VERTEX_POINT('',#1330);
#1330 = CARTESIAN_POINT('',(-34.,-1.499999999999,21.));
#1331 = LINE('',#1332,#1333);
#1332 = CARTESIAN_POINT('',(-34.,3.499999999999,21.));
#1333 = VECTOR('',#1334,1.);
#1334 = DIRECTION('',(0.,-1.,0.));
#1335 = ORIENTED_EDGE('',*,*,#1336,.F.);
#1336 = EDGE_CURVE('',#1126,#1329,#1337,.T.);
#1337 = CIRCLE('',#1338,2.);
#1338 = AXIS2_PLACEMENT_3D('',#1339,#1340,#1341);
#1339 = CARTESIAN_POINT('',(-32.,-1.499999999999,21.));
#1340 = DIRECTION('',(-0.,-0.,-1.));
#1341 = DIRECTION('',(0.,-1.,0.));
#1342 = ORIENTED_EDGE('',*,*,#1133,.T.);
#1343 = ORIENTED_EDGE('',*,*,#547,.F.);
#1344 = FACE_BOUND('',#1345,.F.);
#1345 = EDGE_LOOP('',(#1346));
#1346 = ORIENTED_EDGE('',*,*,#1347,.T.);
#1347 = EDGE_CURVE('',#1348,#1348,#1350,.T.);
#1348 = VERTEX_POINT('',#1349);
#1349 = CARTESIAN_POINT('',(-28.95,0.,21.));
#1350 = CIRCLE('',#1351,1.55);
#1351 = AXIS2_PLACEMENT_3D('',#1352,#1353,#1354);
#1352 = CARTESIAN_POINT('',(-30.5,0.,21.));
#1353 = DIRECTION('',(0.,0.,1.));
#1354 = DIRECTION('',(1.,0.,0.));
#1355 = PLANE('',#1356);
#1356 = AXIS2_PLACEMENT_3D('',#1357,#1358,#1359);
#1357 = CARTESIAN_POINT('',(-7.747721653652E-13,8.449449537969E-15,21.)
  );
#1358 = DIRECTION('',(0.,0.,1.));
#1359 = DIRECTION('',(1.,0.,0.));
#1360 = ADVANCED_FACE('',(#1361,#1390),#1401,.T.);
#1361 = FACE_BOUND('',#1362,.T.);
#1362 = EDGE_LOOP('',(#1363,#1364,#1365,#1366,#1375,#1383));
#1363 = ORIENTED_EDGE('',*,*,#830,.F.);
#1364 = ORIENTED_EDGE('',*,*,#581,.F.);
#1365 = ORIENTED_EDGE('',*,*,#990,.F.);
#1366 = ORIENTED_EDGE('',*,*,#1367,.T.);
#1367 = EDGE_CURVE('',#983,#1368,#1370,.T.);
#1368 = VERTEX_POINT('',#1369);
#1369 = CARTESIAN_POINT('',(-1.5,-34.,21.));
#1370 = CIRCLE('',#1371,2.);
#1371 = AXIS2_PLACEMENT_3D('',#1372,#1373,#1374);
#1372 = CARTESIAN_POINT('',(-1.5,-32.,21.));
#1373 = DIRECTION('',(-0.,0.,1.));
#1374 = DIRECTION('',(0.,-1.,0.));
#1375 = ORIENTED_EDGE('',*,*,#1376,.F.);
#1376 = EDGE_CURVE('',#1377,#1368,#1379,.T.);
#1377 = VERTEX_POINT('',#1378);
#1378 = CARTESIAN_POINT('',(1.5,-34.,21.));
#1379 = LINE('',#1380,#1381);
#1380 = CARTESIAN_POINT('',(3.5,-34.,21.));
#1381 = VECTOR('',#1382,1.);
#1382 = DIRECTION('',(-1.,0.,0.));
#1383 = ORIENTED_EDGE('',*,*,#1384,.F.);
#1384 = EDGE_CURVE('',#831,#1377,#1385,.T.);
#1385 = CIRCLE('',#1386,2.);
#1386 = AXIS2_PLACEMENT_3D('',#1387,#1388,#1389);
#1387 = CARTESIAN_POINT('',(1.5,-32.,21.));
#1388 = DIRECTION('',(-0.,-0.,-1.));
#1389 = DIRECTION('',(0.,-1.,0.));
#1390 = FACE_BOUND('',#1391,.F.);
#1391 = EDGE_LOOP('',(#1392));
#1392 = ORIENTED_EDGE('',*,*,#1393,.T.);
#1393 = EDGE_CURVE('',#1394,#1394,#1396,.T.);
#1394 = VERTEX_POINT('',#1395);
#1395 = CARTESIAN_POINT('',(1.55,-30.5,21.));
#1396 = CIRCLE('',#1397,1.55);
#1397 = AXIS2_PLACEMENT_3D('',#1398,#1399,#1400);
#1398 = CARTESIAN_POINT('',(0.,-30.5,21.));
#1399 = DIRECTION('',(0.,0.,1.));
#1400 = DIRECTION('',(1.,0.,0.));
#1401 = PLANE('',#1402);
#1402 = AXIS2_PLACEMENT_3D('',#1403,#1404,#1405);
#1403 = CARTESIAN_POINT('',(-7.747721653652E-13,8.449449537969E-15,21.)
  );
#1404 = DIRECTION('',(0.,0.,1.));
#1405 = DIRECTION('',(1.,0.,0.));
#1406 = ADVANCED_FACE('',(#1407,#1410),#1421,.T.);
#1407 = FACE_BOUND('',#1408,.T.);
#1408 = EDGE_LOOP('',(#1409));
#1409 = ORIENTED_EDGE('',*,*,#614,.T.);
#1410 = FACE_BOUND('',#1411,.T.);
#1411 = EDGE_LOOP('',(#1412));
#1412 = ORIENTED_EDGE('',*,*,#1413,.F.);
#1413 = EDGE_CURVE('',#1414,#1414,#1416,.T.);
#1414 = VERTEX_POINT('',#1415);
#1415 = CARTESIAN_POINT('',(13.5,0.,2.));
#1416 = CIRCLE('',#1417,13.5);
#1417 = AXIS2_PLACEMENT_3D('',#1418,#1419,#1420);
#1418 = CARTESIAN_POINT('',(0.,0.,2.));
#1419 = DIRECTION('',(0.,0.,1.));
#1420 = DIRECTION('',(1.,0.,0.));
#1421 = PLANE('',#1422);
#1422 = AXIS2_PLACEMENT_3D('',#1423,#1424,#1425);
#1423 = CARTESIAN_POINT('',(-2.16E-15,-7.3E-16,2.));
#1424 = DIRECTION('',(0.,0.,1.));
#1425 = DIRECTION('',(1.,0.,0.));
#1426 = ADVANCED_FACE('',(#1427),#1438,.F.);
#1427 = FACE_BOUND('',#1428,.T.);
#1428 = EDGE_LOOP('',(#1429,#1435,#1436,#1437));
#1429 = ORIENTED_EDGE('',*,*,#1430,.T.);
#1430 = EDGE_CURVE('',#775,#1414,#1431,.T.);
#1431 = LINE('',#1432,#1433);
#1432 = CARTESIAN_POINT('',(13.5,0.,0.));
#1433 = VECTOR('',#1434,1.);
#1434 = DIRECTION('',(0.,0.,1.));
#1435 = ORIENTED_EDGE('',*,*,#1413,.T.);
#1436 = ORIENTED_EDGE('',*,*,#1430,.F.);
#1437 = ORIENTED_EDGE('',*,*,#774,.F.);
#1438 = CYLINDRICAL_SURFACE('',#1439,13.5);
#1439 = AXIS2_PLACEMENT_3D('',#1440,#1441,#1442);
#1440 = CARTESIAN_POINT('',(0.,0.,0.));
#1441 = DIRECTION('',(-0.,-0.,-1.));
#1442 = DIRECTION('',(1.,0.,0.));
#1443 = ADVANCED_FACE('',(#1444,#1473),#1484,.F.);
#1444 = FACE_BOUND('',#1445,.F.);
#1445 = EDGE_LOOP('',(#1446,#1447,#1448,#1449,#1458,#1466));
#1446 = ORIENTED_EDGE('',*,*,#791,.F.);
#1447 = ORIENTED_EDGE('',*,*,#898,.T.);
#1448 = ORIENTED_EDGE('',*,*,#974,.F.);
#1449 = ORIENTED_EDGE('',*,*,#1450,.T.);
#1450 = EDGE_CURVE('',#975,#1451,#1453,.T.);
#1451 = VERTEX_POINT('',#1452);
#1452 = CARTESIAN_POINT('',(-1.5,-34.,15.));
#1453 = CIRCLE('',#1454,2.);
#1454 = AXIS2_PLACEMENT_3D('',#1455,#1456,#1457);
#1455 = CARTESIAN_POINT('',(-1.5,-32.,15.));
#1456 = DIRECTION('',(-0.,0.,1.));
#1457 = DIRECTION('',(0.,-1.,0.));
#1458 = ORIENTED_EDGE('',*,*,#1459,.F.);
#1459 = EDGE_CURVE('',#1460,#1451,#1462,.T.);
#1460 = VERTEX_POINT('',#1461);
#1461 = CARTESIAN_POINT('',(1.5,-34.,15.));
#1462 = LINE('',#1463,#1464);
#1463 = CARTESIAN_POINT('',(3.5,-34.,15.));
#1464 = VECTOR('',#1465,1.);
#1465 = DIRECTION('',(-1.,0.,0.));
#1466 = ORIENTED_EDGE('',*,*,#1467,.F.);
#1467 = EDGE_CURVE('',#794,#1460,#1468,.T.);
#1468 = CIRCLE('',#1469,2.);
#1469 = AXIS2_PLACEMENT_3D('',#1470,#1471,#1472);
#1470 = CARTESIAN_POINT('',(1.5,-32.,15.));
#1471 = DIRECTION('',(-0.,-0.,-1.));
#1472 = DIRECTION('',(0.,-1.,0.));
#1473 = FACE_BOUND('',#1474,.F.);
#1474 = EDGE_LOOP('',(#1475));
#1475 = ORIENTED_EDGE('',*,*,#1476,.F.);
#1476 = EDGE_CURVE('',#1477,#1477,#1479,.T.);
#1477 = VERTEX_POINT('',#1478);
#1478 = CARTESIAN_POINT('',(1.55,-30.5,15.));
#1479 = CIRCLE('',#1480,1.55);
#1480 = AXIS2_PLACEMENT_3D('',#1481,#1482,#1483);
#1481 = CARTESIAN_POINT('',(0.,-30.5,15.));
#1482 = DIRECTION('',(0.,0.,1.));
#1483 = DIRECTION('',(1.,0.,0.));
#1484 = PLANE('',#1485);
#1485 = AXIS2_PLACEMENT_3D('',#1486,#1487,#1488);
#1486 = CARTESIAN_POINT('',(-7.747721653652E-13,8.449449537969E-15,15.)
  );
#1487 = DIRECTION('',(0.,0.,1.));
#1488 = DIRECTION('',(1.,0.,0.));
#1489 = ADVANCED_FACE('',(#1490),#1501,.T.);
#1490 = FACE_BOUND('',#1491,.F.);
#1491 = EDGE_LOOP('',(#1492,#1493,#1499,#1500));
#1492 = ORIENTED_EDGE('',*,*,#1467,.T.);
#1493 = ORIENTED_EDGE('',*,*,#1494,.T.);
#1494 = EDGE_CURVE('',#1460,#1377,#1495,.T.);
#1495 = LINE('',#1496,#1497);
#1496 = CARTESIAN_POINT('',(1.5,-34.,15.));
#1497 = VECTOR('',#1498,1.);
#1498 = DIRECTION('',(0.,0.,1.));
#1499 = ORIENTED_EDGE('',*,*,#1384,.F.);
#1500 = ORIENTED_EDGE('',*,*,#838,.F.);
#1501 = CYLINDRICAL_SURFACE('',#1502,2.);
#1502 = AXIS2_PLACEMENT_3D('',#1503,#1504,#1505);
#1503 = CARTESIAN_POINT('',(1.5,-32.,15.));
#1504 = DIRECTION('',(0.,0.,1.));
#1505 = DIRECTION('',(1.,7.283954728102E-16,0.));
#1506 = ADVANCED_FACE('',(#1507,#1536),#1547,.F.);
#1507 = FACE_BOUND('',#1508,.F.);
#1508 = EDGE_LOOP('',(#1509,#1510,#1511,#1512,#1521,#1529));
#1509 = ORIENTED_EDGE('',*,*,#1075,.T.);
#1510 = ORIENTED_EDGE('',*,*,#1043,.T.);
#1511 = ORIENTED_EDGE('',*,*,#913,.T.);
#1512 = ORIENTED_EDGE('',*,*,#1513,.T.);
#1513 = EDGE_CURVE('',#916,#1514,#1516,.T.);
#1514 = VERTEX_POINT('',#1515);
#1515 = CARTESIAN_POINT('',(1.5,34.,15.));
#1516 = CIRCLE('',#1517,2.);
#1517 = AXIS2_PLACEMENT_3D('',#1518,#1519,#1520);
#1518 = CARTESIAN_POINT('',(1.5,32.,15.));
#1519 = DIRECTION('',(-0.,0.,1.));
#1520 = DIRECTION('',(0.,-1.,0.));
#1521 = ORIENTED_EDGE('',*,*,#1522,.T.);
#1522 = EDGE_CURVE('',#1514,#1523,#1525,.T.);
#1523 = VERTEX_POINT('',#1524);
#1524 = CARTESIAN_POINT('',(-1.5,34.,15.));
#1525 = LINE('',#1526,#1527);
#1526 = CARTESIAN_POINT('',(3.5,34.,15.));
#1527 = VECTOR('',#1528,1.);
#1528 = DIRECTION('',(-1.,0.,0.));
#1529 = ORIENTED_EDGE('',*,*,#1530,.F.);
#1530 = EDGE_CURVE('',#1076,#1523,#1531,.T.);
#1531 = CIRCLE('',#1532,2.);
#1532 = AXIS2_PLACEMENT_3D('',#1533,#1534,#1535);
#1533 = CARTESIAN_POINT('',(-1.5,32.,15.));
#1534 = DIRECTION('',(-0.,-0.,-1.));
#1535 = DIRECTION('',(0.,-1.,0.));
#1536 = FACE_BOUND('',#1537,.F.);
#1537 = EDGE_LOOP('',(#1538));
#1538 = ORIENTED_EDGE('',*,*,#1539,.F.);
#1539 = EDGE_CURVE('',#1540,#1540,#1542,.T.);
#1540 = VERTEX_POINT('',#1541);
#1541 = CARTESIAN_POINT('',(1.55,30.5,15.));
#1542 = CIRCLE('',#1543,1.55);
#1543 = AXIS2_PLACEMENT_3D('',#1544,#1545,#1546);
#1544 = CARTESIAN_POINT('',(0.,30.5,15.));
#1545 = DIRECTION('',(0.,0.,1.));
#1546 = DIRECTION('',(1.,0.,0.));
#1547 = PLANE('',#1548);
#1548 = AXIS2_PLACEMENT_3D('',#1549,#1550,#1551);
#1549 = CARTESIAN_POINT('',(-7.747721653652E-13,8.449449537969E-15,15.)
  );
#1550 = DIRECTION('',(0.,0.,1.));
#1551 = DIRECTION('',(1.,0.,0.));
#1552 = ADVANCED_FACE('',(#1553),#1564,.T.);
#1553 = FACE_BOUND('',#1554,.T.);
#1554 = EDGE_LOOP('',(#1555,#1556,#1562,#1563));
#1555 = ORIENTED_EDGE('',*,*,#1513,.T.);
#1556 = ORIENTED_EDGE('',*,*,#1557,.T.);
#1557 = EDGE_CURVE('',#1514,#1274,#1558,.T.);
#1558 = LINE('',#1559,#1560);
#1559 = CARTESIAN_POINT('',(1.5,34.,15.));
#1560 = VECTOR('',#1561,1.);
#1561 = DIRECTION('',(0.,0.,1.));
#1562 = ORIENTED_EDGE('',*,*,#1273,.F.);
#1563 = ORIENTED_EDGE('',*,*,#960,.F.);
#1564 = CYLINDRICAL_SURFACE('',#1565,2.);
#1565 = AXIS2_PLACEMENT_3D('',#1566,#1567,#1568);
#1566 = CARTESIAN_POINT('',(1.5,32.,15.));
#1567 = DIRECTION('',(0.,0.,1.));
#1568 = DIRECTION('',(1.,0.,0.));
#1569 = ADVANCED_FACE('',(#1570),#1581,.T.);
#1570 = FACE_BOUND('',#1571,.T.);
#1571 = EDGE_LOOP('',(#1572,#1573,#1579,#1580));
#1572 = ORIENTED_EDGE('',*,*,#1450,.T.);
#1573 = ORIENTED_EDGE('',*,*,#1574,.T.);
#1574 = EDGE_CURVE('',#1451,#1368,#1575,.T.);
#1575 = LINE('',#1576,#1577);
#1576 = CARTESIAN_POINT('',(-1.5,-34.,15.));
#1577 = VECTOR('',#1578,1.);
#1578 = DIRECTION('',(0.,0.,1.));
#1579 = ORIENTED_EDGE('',*,*,#1367,.F.);
#1580 = ORIENTED_EDGE('',*,*,#982,.F.);
#1581 = CYLINDRICAL_SURFACE('',#1582,2.);
#1582 = AXIS2_PLACEMENT_3D('',#1583,#1584,#1585);
#1583 = CARTESIAN_POINT('',(-1.5,-32.,15.));
#1584 = DIRECTION('',(0.,0.,1.));
#1585 = DIRECTION('',(-1.,7.283954728102E-16,0.));
#1586 = ADVANCED_FACE('',(#1587),#1598,.T.);
#1587 = FACE_BOUND('',#1588,.F.);
#1588 = EDGE_LOOP('',(#1589,#1590,#1596,#1597));
#1589 = ORIENTED_EDGE('',*,*,#1530,.T.);
#1590 = ORIENTED_EDGE('',*,*,#1591,.T.);
#1591 = EDGE_CURVE('',#1523,#1283,#1592,.T.);
#1592 = LINE('',#1593,#1594);
#1593 = CARTESIAN_POINT('',(-1.5,34.,15.));
#1594 = VECTOR('',#1595,1.);
#1595 = DIRECTION('',(0.,0.,1.));
#1596 = ORIENTED_EDGE('',*,*,#1290,.F.);
#1597 = ORIENTED_EDGE('',*,*,#1083,.F.);
#1598 = CYLINDRICAL_SURFACE('',#1599,2.);
#1599 = AXIS2_PLACEMENT_3D('',#1600,#1601,#1602);
#1600 = CARTESIAN_POINT('',(-1.5,32.,15.));
#1601 = DIRECTION('',(0.,0.,1.));
#1602 = DIRECTION('',(-1.,0.,0.));
#1603 = ADVANCED_FACE('',(#1604,#1633),#1644,.F.);
#1604 = FACE_BOUND('',#1605,.F.);
#1605 = EDGE_LOOP('',(#1606,#1607,#1608,#1609,#1618,#1626));
#1606 = ORIENTED_EDGE('',*,*,#1115,.T.);
#1607 = ORIENTED_EDGE('',*,*,#1222,.T.);
#1608 = ORIENTED_EDGE('',*,*,#1237,.T.);
#1609 = ORIENTED_EDGE('',*,*,#1610,.T.);
#1610 = EDGE_CURVE('',#1238,#1611,#1613,.T.);
#1611 = VERTEX_POINT('',#1612);
#1612 = CARTESIAN_POINT('',(-34.,1.499999999999,15.));
#1613 = CIRCLE('',#1614,2.);
#1614 = AXIS2_PLACEMENT_3D('',#1615,#1616,#1617);
#1615 = CARTESIAN_POINT('',(-32.,1.499999999999,15.));
#1616 = DIRECTION('',(-0.,0.,1.));
#1617 = DIRECTION('',(0.,-1.,0.));
#1618 = ORIENTED_EDGE('',*,*,#1619,.T.);
#1619 = EDGE_CURVE('',#1611,#1620,#1622,.T.);
#1620 = VERTEX_POINT('',#1621);
#1621 = CARTESIAN_POINT('',(-34.,-1.499999999999,15.));
#1622 = LINE('',#1623,#1624);
#1623 = CARTESIAN_POINT('',(-34.,3.499999999999,15.));
#1624 = VECTOR('',#1625,1.);
#1625 = DIRECTION('',(0.,-1.,0.));
#1626 = ORIENTED_EDGE('',*,*,#1627,.F.);
#1627 = EDGE_CURVE('',#1116,#1620,#1628,.T.);
#1628 = CIRCLE('',#1629,2.);
#1629 = AXIS2_PLACEMENT_3D('',#1630,#1631,#1632);
#1630 = CARTESIAN_POINT('',(-32.,-1.499999999999,15.));
#1631 = DIRECTION('',(-0.,-0.,-1.));
#1632 = DIRECTION('',(0.,-1.,0.));
#1633 = FACE_BOUND('',#1634,.F.);
#1634 = EDGE_LOOP('',(#1635));
#1635 = ORIENTED_EDGE('',*,*,#1636,.F.);
#1636 = EDGE_CURVE('',#1637,#1637,#1639,.T.);
#1637 = VERTEX_POINT('',#1638);
#1638 = CARTESIAN_POINT('',(-28.95,0.,15.));
#1639 = CIRCLE('',#1640,1.55);
#1640 = AXIS2_PLACEMENT_3D('',#1641,#1642,#1643);
#1641 = CARTESIAN_POINT('',(-30.5,0.,15.));
#1642 = DIRECTION('',(0.,0.,1.));
#1643 = DIRECTION('',(1.,0.,0.));
#1644 = PLANE('',#1645);
#1645 = AXIS2_PLACEMENT_3D('',#1646,#1647,#1648);
#1646 = CARTESIAN_POINT('',(-7.747721653652E-13,8.449449537969E-15,15.)
  );
#1647 = DIRECTION('',(0.,0.,1.));
#1648 = DIRECTION('',(1.,0.,0.));
#1649 = ADVANCED_FACE('',(#1650),#1661,.T.);
#1650 = FACE_BOUND('',#1651,.F.);
#1651 = EDGE_LOOP('',(#1652,#1653,#1659,#1660));
#1652 = ORIENTED_EDGE('',*,*,#1627,.T.);
#1653 = ORIENTED_EDGE('',*,*,#1654,.T.);
#1654 = EDGE_CURVE('',#1620,#1329,#1655,.T.);
#1655 = LINE('',#1656,#1657);
#1656 = CARTESIAN_POINT('',(-34.,-1.499999999999,15.));
#1657 = VECTOR('',#1658,1.);
#1658 = DIRECTION('',(0.,0.,1.));
#1659 = ORIENTED_EDGE('',*,*,#1336,.F.);
#1660 = ORIENTED_EDGE('',*,*,#1125,.F.);
#1661 = CYLINDRICAL_SURFACE('',#1662,2.);
#1662 = AXIS2_PLACEMENT_3D('',#1663,#1664,#1665);
#1663 = CARTESIAN_POINT('',(-32.,-1.499999999999,15.));
#1664 = DIRECTION('',(0.,0.,1.));
#1665 = DIRECTION('',(0.,-1.,0.));
#1666 = ADVANCED_FACE('',(#1667),#1678,.T.);
#1667 = FACE_BOUND('',#1668,.T.);
#1668 = EDGE_LOOP('',(#1669,#1670,#1676,#1677));
#1669 = ORIENTED_EDGE('',*,*,#1610,.T.);
#1670 = ORIENTED_EDGE('',*,*,#1671,.T.);
#1671 = EDGE_CURVE('',#1611,#1320,#1672,.T.);
#1672 = LINE('',#1673,#1674);
#1673 = CARTESIAN_POINT('',(-34.,1.499999999999,15.));
#1674 = VECTOR('',#1675,1.);
#1675 = DIRECTION('',(0.,0.,1.));
#1676 = ORIENTED_EDGE('',*,*,#1319,.F.);
#1677 = ORIENTED_EDGE('',*,*,#1258,.F.);
#1678 = CYLINDRICAL_SURFACE('',#1679,2.);
#1679 = AXIS2_PLACEMENT_3D('',#1680,#1681,#1682);
#1680 = CARTESIAN_POINT('',(-32.,1.499999999999,15.));
#1681 = DIRECTION('',(0.,0.,1.));
#1682 = DIRECTION('',(0.,1.,0.));
#1683 = ADVANCED_FACE('',(#1684),#1690,.F.);
#1684 = FACE_BOUND('',#1685,.F.);
#1685 = EDGE_LOOP('',(#1686,#1687,#1688,#1689));
#1686 = ORIENTED_EDGE('',*,*,#1522,.F.);
#1687 = ORIENTED_EDGE('',*,*,#1557,.T.);
#1688 = ORIENTED_EDGE('',*,*,#1282,.T.);
#1689 = ORIENTED_EDGE('',*,*,#1591,.F.);
#1690 = PLANE('',#1691);
#1691 = AXIS2_PLACEMENT_3D('',#1692,#1693,#1694);
#1692 = CARTESIAN_POINT('',(3.5,34.,15.));
#1693 = DIRECTION('',(0.,-1.,0.));
#1694 = DIRECTION('',(-1.,0.,0.));
#1695 = ADVANCED_FACE('',(#1696),#1707,.F.);
#1696 = FACE_BOUND('',#1697,.T.);
#1697 = EDGE_LOOP('',(#1698,#1704,#1705,#1706));
#1698 = ORIENTED_EDGE('',*,*,#1699,.T.);
#1699 = EDGE_CURVE('',#1540,#1302,#1700,.T.);
#1700 = LINE('',#1701,#1702);
#1701 = CARTESIAN_POINT('',(1.55,30.5,15.));
#1702 = VECTOR('',#1703,1.);
#1703 = DIRECTION('',(0.,0.,1.));
#1704 = ORIENTED_EDGE('',*,*,#1301,.T.);
#1705 = ORIENTED_EDGE('',*,*,#1699,.F.);
#1706 = ORIENTED_EDGE('',*,*,#1539,.F.);
#1707 = CYLINDRICAL_SURFACE('',#1708,1.55);
#1708 = AXIS2_PLACEMENT_3D('',#1709,#1710,#1711);
#1709 = CARTESIAN_POINT('',(0.,30.5,15.));
#1710 = DIRECTION('',(-0.,-0.,-1.));
#1711 = DIRECTION('',(1.,0.,0.));
#1712 = ADVANCED_FACE('',(#1713),#1719,.F.);
#1713 = FACE_BOUND('',#1714,.F.);
#1714 = EDGE_LOOP('',(#1715,#1716,#1717,#1718));
#1715 = ORIENTED_EDGE('',*,*,#1619,.F.);
#1716 = ORIENTED_EDGE('',*,*,#1671,.T.);
#1717 = ORIENTED_EDGE('',*,*,#1328,.T.);
#1718 = ORIENTED_EDGE('',*,*,#1654,.F.);
#1719 = PLANE('',#1720);
#1720 = AXIS2_PLACEMENT_3D('',#1721,#1722,#1723);
#1721 = CARTESIAN_POINT('',(-34.,3.499999999999,15.));
#1722 = DIRECTION('',(1.,0.,0.));
#1723 = DIRECTION('',(0.,-1.,0.));
#1724 = ADVANCED_FACE('',(#1725),#1736,.F.);
#1725 = FACE_BOUND('',#1726,.T.);
#1726 = EDGE_LOOP('',(#1727,#1733,#1734,#1735));
#1727 = ORIENTED_EDGE('',*,*,#1728,.T.);
#1728 = EDGE_CURVE('',#1637,#1348,#1729,.T.);
#1729 = LINE('',#1730,#1731);
#1730 = CARTESIAN_POINT('',(-28.95,0.,15.));
#1731 = VECTOR('',#1732,1.);
#1732 = DIRECTION('',(0.,0.,1.));
#1733 = ORIENTED_EDGE('',*,*,#1347,.T.);
#1734 = ORIENTED_EDGE('',*,*,#1728,.F.);
#1735 = ORIENTED_EDGE('',*,*,#1636,.F.);
#1736 = CYLINDRICAL_SURFACE('',#1737,1.55);
#1737 = AXIS2_PLACEMENT_3D('',#1738,#1739,#1740);
#1738 = CARTESIAN_POINT('',(-30.5,0.,15.));
#1739 = DIRECTION('',(-0.,-0.,-1.));
#1740 = DIRECTION('',(1.,0.,0.));
#1741 = ADVANCED_FACE('',(#1742),#1748,.T.);
#1742 = FACE_BOUND('',#1743,.T.);
#1743 = EDGE_LOOP('',(#1744,#1745,#1746,#1747));
#1744 = ORIENTED_EDGE('',*,*,#1459,.F.);
#1745 = ORIENTED_EDGE('',*,*,#1494,.T.);
#1746 = ORIENTED_EDGE('',*,*,#1376,.T.);
#1747 = ORIENTED_EDGE('',*,*,#1574,.F.);
#1748 = PLANE('',#1749);
#1749 = AXIS2_PLACEMENT_3D('',#1750,#1751,#1752);
#1750 = CARTESIAN_POINT('',(3.5,-34.,15.));
#1751 = DIRECTION('',(0.,-1.,0.));
#1752 = DIRECTION('',(-1.,0.,0.));
#1753 = ADVANCED_FACE('',(#1754),#1765,.F.);
#1754 = FACE_BOUND('',#1755,.T.);
#1755 = EDGE_LOOP('',(#1756,#1762,#1763,#1764));
#1756 = ORIENTED_EDGE('',*,*,#1757,.T.);
#1757 = EDGE_CURVE('',#1477,#1394,#1758,.T.);
#1758 = LINE('',#1759,#1760);
#1759 = CARTESIAN_POINT('',(1.55,-30.5,15.));
#1760 = VECTOR('',#1761,1.);
#1761 = DIRECTION('',(0.,0.,1.));
#1762 = ORIENTED_EDGE('',*,*,#1393,.T.);
#1763 = ORIENTED_EDGE('',*,*,#1757,.F.);
#1764 = ORIENTED_EDGE('',*,*,#1476,.F.);
#1765 = CYLINDRICAL_SURFACE('',#1766,1.55);
#1766 = AXIS2_PLACEMENT_3D('',#1767,#1768,#1769);
#1767 = CARTESIAN_POINT('',(0.,-30.5,15.));
#1768 = DIRECTION('',(-0.,-0.,-1.));
#1769 = DIRECTION('',(1.,0.,0.));
#1770 = ( GEOMETRIC_REPRESENTATION_CONTEXT(3) 
GLOBAL_UNCERTAINTY_ASSIGNED_CONTEXT((#1774)) 
GLOBAL_UNIT_ASSIGNED_CONTEXT((#1771,#1772,#1773)) REPRESENTATION_CONTEXT
('Context #1','3D Context with UNIT and UNCERTAINTY') );
#1771 = ( LENGTH_UNIT() NAMED_UNIT(*) SI_UNIT(.MILLI.,.METRE.) );
#1772 = ( NAMED_UNIT(*) PLANE_ANGLE_UNIT() SI_UNIT($,.RADIAN.) );
#1773 = ( NAMED_UNIT(*) SI_UNIT($,.STERADIAN.) SOLID_ANGLE_UNIT() );
#1774 = UNCERTAINTY_MEASURE_WITH_UNIT(LENGTH_MEASURE(1.E-05),#1771,
  'distance_accuracy_value','confusion accuracy');
#1775 = PRODUCT_RELATED_PRODUCT_CATEGORY('detail',$,(#7));
#1776 = PRODUCT_CATEGORY_RELATIONSHIP('','',#1777,#1775);
#1777 = PRODUCT_CATEGORY('part',$);
#1778 = CC_DESIGN_PERSON_AND_ORGANIZATION_ASSIGNMENT(#1779,#1782,(#6,#5)
  );
#1779 = PERSON_AND_ORGANIZATION(#1780,#1781);
#1780 = PERSON('IP169.254.190,karol','','karol',$,$,$);
#1781 = ORGANIZATION('IP169.254.190','Unspecified','');
#1782 = PERSON_AND_ORGANIZATION_ROLE('creator');
#1783 = CC_DESIGN_PERSON_AND_ORGANIZATION_ASSIGNMENT(#1779,#1784,(#7));
#1784 = PERSON_AND_ORGANIZATION_ROLE('design_owner');
#1785 = CC_DESIGN_PERSON_AND_ORGANIZATION_ASSIGNMENT(#1779,#1786,(#6));
#1786 = PERSON_AND_ORGANIZATION_ROLE('design_supplier');
#1787 = CC_DESIGN_PERSON_AND_ORGANIZATION_ASSIGNMENT(#1779,#1788,(#1789)
  );
#1788 = PERSON_AND_ORGANIZATION_ROLE('classification_officer');
#1789 = SECURITY_CLASSIFICATION('','',#1790);
#1790 = SECURITY_CLASSIFICATION_LEVEL('unclassified');
#1791 = CC_DESIGN_SECURITY_CLASSIFICATION(#1789,(#6));
#1792 = CC_DESIGN_DATE_AND_TIME_ASSIGNMENT(#1793,#1797,(#5));
#1793 = DATE_AND_TIME(#1794,#1795);
#1794 = CALENDAR_DATE(2026,28,3);
#1795 = LOCAL_TIME(14,13,$,#1796);
#1796 = COORDINATED_UNIVERSAL_TIME_OFFSET(1,$,.AHEAD.);
#1797 = DATE_TIME_ROLE('creation_date');
#1798 = CC_DESIGN_DATE_AND_TIME_ASSIGNMENT(#1793,#1799,(#1789));
#1799 = DATE_TIME_ROLE('classification_date');
#1800 = CC_DESIGN_APPROVAL(#1801,(#6,#5,#1789));
#1801 = APPROVAL(#1802,'');
#1802 = APPROVAL_STATUS('not_yet_approved');
#1803 = APPROVAL_PERSON_ORGANIZATION(#1779,#1801,#1804);
#1804 = APPROVAL_ROLE('approver');
#1805 = APPROVAL_DATE_TIME(#1793,#1801);
#1806 = MECHANICAL_DESIGN_GEOMETRIC_PRESENTATION_REPRESENTATION('',(
    #1807),#1770);
#1807 = STYLED_ITEM('color',(#1808),#15);
#1808 = PRESENTATION_STYLE_ASSIGNMENT((#1809,#1815));
#1809 = SURFACE_STYLE_USAGE(.BOTH.,#1810);
#1810 = SURFACE_SIDE_STYLE('',(#1811));
#1811 = SURFACE_STYLE_FILL_AREA(#1812);
#1812 = FILL_AREA_STYLE('',(#1813));
#1813 = FILL_AREA_STYLE_COLOUR('',#1814);
#1814 = COLOUR_RGB('',0.447058818107,0.474509808674,0.501960817233);
#1815 = CURVE_STYLE('',#1816,POSITIVE_LENGTH_MEASURE(0.1),#1817);
#1816 = DRAUGHTING_PRE_DEFINED_CURVE_FONT('continuous');
#1817 = COLOUR_RGB('',9.803921802644E-02,9.803921802644E-02,
  9.803921802644E-02);
ENDSEC;
END-ISO-10303-21;
