ISO-10303-21;
HEADER;
FILE_DESCRIPTION(('FreeCAD Model'),'2;1');
FILE_NAME('Open CASCADE Shape Model','2026-03-27T21:15:38',(''),(''),
  'Open CASCADE STEP processor 7.8','FreeCAD','Unknown');
FILE_SCHEMA(('CONFIG_CONTROL_DESIGN','SHAPE_APPEARANCE_LAYER_MIM'));
ENDSEC;
DATA;
#1 = APPLICATION_PROTOCOL_DEFINITION('international standard',
  'config_control_design',1994,#2);
#2 = APPLICATION_CONTEXT(
'configuration controlled 3D designs of mechanical parts and assemblies'
  );
#3 = SHAPE_DEFINITION_REPRESENTATION(#4,#10);
#4 = PRODUCT_DEFINITION_SHAPE('','',#5);
#5 = PRODUCT_DEFINITION('design','',#6,#9);
#6 = PRODUCT_DEFINITION_FORMATION_WITH_SPECIFIED_SOURCE('','',#7,
  .NOT_KNOWN.);
#7 = PRODUCT('Zawartość','Zawartość','',(#8));
#8 = MECHANICAL_CONTEXT('',#2,'mechanical');
#9 = DESIGN_CONTEXT('',#2,'design');
#10 = ADVANCED_BREP_SHAPE_REPRESENTATION('',(#11,#15),#1073);
#11 = AXIS2_PLACEMENT_3D('',#12,#13,#14);
#12 = CARTESIAN_POINT('',(0.,0.,0.));
#13 = DIRECTION('',(0.,0.,1.));
#14 = DIRECTION('',(1.,0.,-0.));
#15 = MANIFOLD_SOLID_BREP('',#16);
#16 = CLOSED_SHELL('',(#17,#92,#169,#194,#219,#345,#484,#527,#544,#562,
    #574,#610,#638,#690,#715,#739,#764,#809,#834,#879,#899,#922,#946,
    #974,#1002,#1020,#1036,#1056));
#17 = ADVANCED_FACE('',(#18),#87,.F.);
#18 = FACE_BOUND('',#19,.F.);
#19 = EDGE_LOOP('',(#20,#30,#57,#65,#73,#81));
#20 = ORIENTED_EDGE('',*,*,#21,.T.);
#21 = EDGE_CURVE('',#22,#24,#26,.T.);
#22 = VERTEX_POINT('',#23);
#23 = CARTESIAN_POINT('',(30.5,-2.5,7.));
#24 = VERTEX_POINT('',#25);
#25 = CARTESIAN_POINT('',(27.888169534769,-2.5,7.));
#26 = LINE('',#27,#28);
#27 = CARTESIAN_POINT('',(32.5,-2.5,7.));
#28 = VECTOR('',#29,1.);
#29 = DIRECTION('',(-1.,0.,0.));
#30 = ORIENTED_EDGE('',*,*,#31,.F.);
#31 = EDGE_CURVE('',#32,#24,#34,.T.);
#32 = VERTEX_POINT('',#33);
#33 = CARTESIAN_POINT('',(26.88401011754,-2.5,6.));
#34 = B_SPLINE_CURVE_WITH_KNOTS('',5,(#35,#36,#37,#38,#39,#40,#41,#42,
    #43,#44,#45,#46,#47,#48,#49,#50,#51,#52,#53,#54,#55,#56),
  .UNSPECIFIED.,.F.,.F.,(6,4,4,4,4,6),(0.,0.24040850166,0.47930995193,
    0.728394081332,0.976610999505,1.),.UNSPECIFIED.);
#35 = CARTESIAN_POINT('',(26.88401011754,-2.5,6.));
#36 = CARTESIAN_POINT('',(26.88401011754,-2.5,6.075604380906));
#37 = CARTESIAN_POINT('',(26.891186150747,-2.5,6.151211244762));
#38 = CARTESIAN_POINT('',(26.905538018422,-2.5,6.225909120954));
#39 = CARTESIAN_POINT('',(26.926891078944,-2.5,6.298803404084));
#40 = CARTESIAN_POINT('',(26.982742156853,-2.5,6.438856672312));
#41 = CARTESIAN_POINT('',(27.017158693902,-2.5,6.506053170615));
#42 = CARTESIAN_POINT('',(27.057819246774,-2.5,6.569812094976));
#43 = CARTESIAN_POINT('',(27.104239010888,-2.5,6.629384888815));
#44 = CARTESIAN_POINT('',(27.2095667836,-2.5,6.74120405108));
#45 = CARTESIAN_POINT('',(27.268926322366,-2.5,6.793033667889));
#46 = CARTESIAN_POINT('',(27.333186133492,-2.5,6.838887313866));
#47 = CARTESIAN_POINT('',(27.401522205229,-2.5,6.878185536413));
#48 = CARTESIAN_POINT('',(27.54426371285,-2.5,6.942738179116));
#49 = CARTESIAN_POINT('',(27.618651920237,-2.5,6.96804316059));
#50 = CARTESIAN_POINT('',(27.695274504299,-2.5,6.986027869127));
#51 = CARTESIAN_POINT('',(27.773163419981,-2.5,6.996467844418));
#52 = CARTESIAN_POINT('',(27.8586923047,-2.5,6.9995958743));
#53 = CARTESIAN_POINT('',(27.866059978681,-2.5,6.999797929352));
#54 = CARTESIAN_POINT('',(27.873429290886,-2.5,6.999932642998));
#55 = CARTESIAN_POINT('',(27.880799417491,-2.5,7.));
#56 = CARTESIAN_POINT('',(27.888169534769,-2.5,7.));
#57 = ORIENTED_EDGE('',*,*,#58,.F.);
#58 = EDGE_CURVE('',#59,#32,#61,.T.);
#59 = VERTEX_POINT('',#60);
#60 = CARTESIAN_POINT('',(26.88401011754,-2.5,7.));
#61 = LINE('',#62,#63);
#62 = CARTESIAN_POINT('',(26.88401011754,-2.5,0.));
#63 = VECTOR('',#64,1.);
#64 = DIRECTION('',(-0.,-0.,-1.));
#65 = ORIENTED_EDGE('',*,*,#66,.F.);
#66 = EDGE_CURVE('',#67,#59,#69,.T.);
#67 = VERTEX_POINT('',#68);
#68 = CARTESIAN_POINT('',(26.88401011754,-2.5,9.));
#69 = LINE('',#70,#71);
#70 = CARTESIAN_POINT('',(26.88401011754,-2.5,0.));
#71 = VECTOR('',#72,1.);
#72 = DIRECTION('',(-0.,-0.,-1.));
#73 = ORIENTED_EDGE('',*,*,#74,.F.);
#74 = EDGE_CURVE('',#75,#67,#77,.T.);
#75 = VERTEX_POINT('',#76);
#76 = CARTESIAN_POINT('',(30.5,-2.5,9.));
#77 = LINE('',#78,#79);
#78 = CARTESIAN_POINT('',(32.5,-2.5,9.));
#79 = VECTOR('',#80,1.);
#80 = DIRECTION('',(-1.,0.,0.));
#81 = ORIENTED_EDGE('',*,*,#82,.T.);
#82 = EDGE_CURVE('',#75,#22,#83,.T.);
#83 = LINE('',#84,#85);
#84 = CARTESIAN_POINT('',(30.5,-2.5,9.));
#85 = VECTOR('',#86,1.);
#86 = DIRECTION('',(-0.,-0.,-1.));
#87 = PLANE('',#88);
#88 = AXIS2_PLACEMENT_3D('',#89,#90,#91);
#89 = CARTESIAN_POINT('',(32.5,-2.5,9.));
#90 = DIRECTION('',(0.,1.,0.));
#91 = DIRECTION('',(-1.,0.,0.));
#92 = ADVANCED_FACE('',(#93),#164,.F.);
#93 = FACE_BOUND('',#94,.F.);
#94 = EDGE_LOOP('',(#95,#105,#114,#123,#132,#139,#140,#149,#157));
#95 = ORIENTED_EDGE('',*,*,#96,.F.);
#96 = EDGE_CURVE('',#97,#99,#101,.T.);
#97 = VERTEX_POINT('',#98);
#98 = CARTESIAN_POINT('',(27.888169534769,2.5,7.));
#99 = VERTEX_POINT('',#100);
#100 = CARTESIAN_POINT('',(30.5,2.5,7.));
#101 = LINE('',#102,#103);
#102 = CARTESIAN_POINT('',(26.,2.5,7.));
#103 = VECTOR('',#104,1.);
#104 = DIRECTION('',(1.,0.,0.));
#105 = ORIENTED_EDGE('',*,*,#106,.T.);
#106 = EDGE_CURVE('',#97,#107,#109,.T.);
#107 = VERTEX_POINT('',#108);
#108 = CARTESIAN_POINT('',(27.997415254237,0.380445898652,7.));
#109 = CIRCLE('',#110,28.);
#110 = AXIS2_PLACEMENT_3D('',#111,#112,#113);
#111 = CARTESIAN_POINT('',(0.,0.,7.));
#112 = DIRECTION('',(0.,0.,-1.));
#113 = DIRECTION('',(0.995704078427,9.259259259259E-02,0.));
#114 = ORIENTED_EDGE('',*,*,#115,.F.);
#115 = EDGE_CURVE('',#116,#107,#118,.T.);
#116 = VERTEX_POINT('',#117);
#117 = CARTESIAN_POINT('',(31.05,0.,7.));
#118 = CIRCLE('',#119,1.55);
#119 = AXIS2_PLACEMENT_3D('',#120,#121,#122);
#120 = CARTESIAN_POINT('',(29.5,0.,7.));
#121 = DIRECTION('',(0.,0.,1.));
#122 = DIRECTION('',(1.,0.,0.));
#123 = ORIENTED_EDGE('',*,*,#124,.F.);
#124 = EDGE_CURVE('',#125,#116,#127,.T.);
#125 = VERTEX_POINT('',#126);
#126 = CARTESIAN_POINT('',(27.997415247874,-0.380445873519,7.));
#127 = CIRCLE('',#128,1.55);
#128 = AXIS2_PLACEMENT_3D('',#129,#130,#131);
#129 = CARTESIAN_POINT('',(29.5,0.,7.));
#130 = DIRECTION('',(0.,0.,1.));
#131 = DIRECTION('',(1.,0.,0.));
#132 = ORIENTED_EDGE('',*,*,#133,.T.);
#133 = EDGE_CURVE('',#125,#24,#134,.T.);
#134 = CIRCLE('',#135,28.);
#135 = AXIS2_PLACEMENT_3D('',#136,#137,#138);
#136 = CARTESIAN_POINT('',(0.,0.,7.));
#137 = DIRECTION('',(0.,-0.,-1.));
#138 = DIRECTION('',(1.,-2.449293598295E-16,0.));
#139 = ORIENTED_EDGE('',*,*,#21,.F.);
#140 = ORIENTED_EDGE('',*,*,#141,.T.);
#141 = EDGE_CURVE('',#22,#142,#144,.T.);
#142 = VERTEX_POINT('',#143);
#143 = CARTESIAN_POINT('',(32.5,-0.5,7.));
#144 = CIRCLE('',#145,2.);
#145 = AXIS2_PLACEMENT_3D('',#146,#147,#148);
#146 = CARTESIAN_POINT('',(30.5,-0.5,7.));
#147 = DIRECTION('',(0.,-0.,1.));
#148 = DIRECTION('',(0.,1.,0.));
#149 = ORIENTED_EDGE('',*,*,#150,.F.);
#150 = EDGE_CURVE('',#151,#142,#153,.T.);
#151 = VERTEX_POINT('',#152);
#152 = CARTESIAN_POINT('',(32.5,0.5,7.));
#153 = LINE('',#154,#155);
#154 = CARTESIAN_POINT('',(32.5,2.5,7.));
#155 = VECTOR('',#156,1.);
#156 = DIRECTION('',(0.,-1.,0.));
#157 = ORIENTED_EDGE('',*,*,#158,.F.);
#158 = EDGE_CURVE('',#99,#151,#159,.T.);
#159 = CIRCLE('',#160,2.);
#160 = AXIS2_PLACEMENT_3D('',#161,#162,#163);
#161 = CARTESIAN_POINT('',(30.5,0.5,7.));
#162 = DIRECTION('',(0.,0.,-1.));
#163 = DIRECTION('',(0.,1.,0.));
#164 = PLANE('',#165);
#165 = AXIS2_PLACEMENT_3D('',#166,#167,#168);
#166 = CARTESIAN_POINT('',(3.432127453196E-16,-2.96559522347E-17,7.));
#167 = DIRECTION('',(0.,0.,1.));
#168 = DIRECTION('',(1.,0.,0.));
#169 = ADVANCED_FACE('',(#170),#189,.T.);
#170 = FACE_BOUND('',#171,.F.);
#171 = EDGE_LOOP('',(#172,#181,#187,#188));
#172 = ORIENTED_EDGE('',*,*,#173,.T.);
#173 = EDGE_CURVE('',#75,#174,#176,.T.);
#174 = VERTEX_POINT('',#175);
#175 = CARTESIAN_POINT('',(32.5,-0.5,9.));
#176 = CIRCLE('',#177,2.);
#177 = AXIS2_PLACEMENT_3D('',#178,#179,#180);
#178 = CARTESIAN_POINT('',(30.5,-0.5,9.));
#179 = DIRECTION('',(0.,-0.,1.));
#180 = DIRECTION('',(0.,1.,0.));
#181 = ORIENTED_EDGE('',*,*,#182,.T.);
#182 = EDGE_CURVE('',#174,#142,#183,.T.);
#183 = LINE('',#184,#185);
#184 = CARTESIAN_POINT('',(32.5,-0.5,9.));
#185 = VECTOR('',#186,1.);
#186 = DIRECTION('',(-0.,-0.,-1.));
#187 = ORIENTED_EDGE('',*,*,#141,.F.);
#188 = ORIENTED_EDGE('',*,*,#82,.F.);
#189 = CYLINDRICAL_SURFACE('',#190,2.);
#190 = AXIS2_PLACEMENT_3D('',#191,#192,#193);
#191 = CARTESIAN_POINT('',(30.5,-0.5,9.));
#192 = DIRECTION('',(-0.,-0.,-1.));
#193 = DIRECTION('',(0.,-1.,0.));
#194 = ADVANCED_FACE('',(#195),#214,.F.);
#195 = FACE_BOUND('',#196,.F.);
#196 = EDGE_LOOP('',(#197,#205,#212,#213));
#197 = ORIENTED_EDGE('',*,*,#198,.F.);
#198 = EDGE_CURVE('',#199,#125,#201,.T.);
#199 = VERTEX_POINT('',#200);
#200 = CARTESIAN_POINT('',(26.997507566553,-0.366858547581,
    5.999999999411));
#201 = ( BOUNDED_CURVE() B_SPLINE_CURVE(2,(#202,#203,#204),
.UNSPECIFIED.,.F.,.F.) B_SPLINE_CURVE_WITH_KNOTS((3,3),(0.,
0.366869834071),.PIECEWISE_BEZIER_KNOTS.) CURVE() 
GEOMETRIC_REPRESENTATION_ITEM() RATIONAL_B_SPLINE_CURVE((1.,
0.707106783549,1.)) REPRESENTATION_ITEM('') );
#202 = CARTESIAN_POINT('',(26.997507566553,-0.366858547581,
    5.999999999411));
#203 = CARTESIAN_POINT('',(26.997507566586,-0.366858545129,
    6.999999993319));
#204 = CARTESIAN_POINT('',(27.997415247874,-0.380445873519,7.));
#205 = ORIENTED_EDGE('',*,*,#206,.T.);
#206 = EDGE_CURVE('',#199,#32,#207,.T.);
#207 = CIRCLE('',#208,27.);
#208 = AXIS2_PLACEMENT_3D('',#209,#210,#211);
#209 = CARTESIAN_POINT('',(0.,0.,6.));
#210 = DIRECTION('',(0.,-0.,-1.));
#211 = DIRECTION('',(1.,-2.449293598295E-16,0.));
#212 = ORIENTED_EDGE('',*,*,#31,.T.);
#213 = ORIENTED_EDGE('',*,*,#133,.F.);
#214 = TOROIDAL_SURFACE('',#215,28.,1.);
#215 = AXIS2_PLACEMENT_3D('',#216,#217,#218);
#216 = CARTESIAN_POINT('',(0.,0.,6.));
#217 = DIRECTION('',(-0.,-0.,-1.));
#218 = DIRECTION('',(1.,-2.449293598295E-16,0.));
#219 = ADVANCED_FACE('',(#220,#307,#318,#329),#340,.T.);
#220 = FACE_BOUND('',#221,.T.);
#221 = EDGE_LOOP('',(#222,#223,#224,#232,#241,#249,#258,#266,#275,#283,
    #292,#300));
#222 = ORIENTED_EDGE('',*,*,#74,.F.);
#223 = ORIENTED_EDGE('',*,*,#173,.T.);
#224 = ORIENTED_EDGE('',*,*,#225,.F.);
#225 = EDGE_CURVE('',#226,#174,#228,.T.);
#226 = VERTEX_POINT('',#227);
#227 = CARTESIAN_POINT('',(32.5,0.5,9.));
#228 = LINE('',#229,#230);
#229 = CARTESIAN_POINT('',(32.5,2.5,9.));
#230 = VECTOR('',#231,1.);
#231 = DIRECTION('',(0.,-1.,0.));
#232 = ORIENTED_EDGE('',*,*,#233,.F.);
#233 = EDGE_CURVE('',#234,#226,#236,.T.);
#234 = VERTEX_POINT('',#235);
#235 = CARTESIAN_POINT('',(30.5,2.5,9.));
#236 = CIRCLE('',#237,2.);
#237 = AXIS2_PLACEMENT_3D('',#238,#239,#240);
#238 = CARTESIAN_POINT('',(30.5,0.5,9.));
#239 = DIRECTION('',(0.,0.,-1.));
#240 = DIRECTION('',(0.,1.,0.));
#241 = ORIENTED_EDGE('',*,*,#242,.F.);
#242 = EDGE_CURVE('',#243,#234,#245,.T.);
#243 = VERTEX_POINT('',#244);
#244 = CARTESIAN_POINT('',(26.88401011754,2.500000000001,9.));
#245 = LINE('',#246,#247);
#246 = CARTESIAN_POINT('',(26.,2.5,9.));
#247 = VECTOR('',#248,1.);
#248 = DIRECTION('',(1.,0.,0.));
#249 = ORIENTED_EDGE('',*,*,#250,.T.);
#250 = EDGE_CURVE('',#243,#251,#253,.T.);
#251 = VERTEX_POINT('',#252);
#252 = CARTESIAN_POINT('',(-26.88401011754,2.499999999999,9.));
#253 = CIRCLE('',#254,27.);
#254 = AXIS2_PLACEMENT_3D('',#255,#256,#257);
#255 = CARTESIAN_POINT('',(0.,0.,9.));
#256 = DIRECTION('',(0.,0.,1.));
#257 = DIRECTION('',(1.,0.,0.));
#258 = ORIENTED_EDGE('',*,*,#259,.T.);
#259 = EDGE_CURVE('',#251,#260,#262,.T.);
#260 = VERTEX_POINT('',#261);
#261 = CARTESIAN_POINT('',(-30.5,2.5,9.));
#262 = LINE('',#263,#264);
#263 = CARTESIAN_POINT('',(-26.,2.5,9.));
#264 = VECTOR('',#265,1.);
#265 = DIRECTION('',(-1.,0.,0.));
#266 = ORIENTED_EDGE('',*,*,#267,.T.);
#267 = EDGE_CURVE('',#260,#268,#270,.T.);
#268 = VERTEX_POINT('',#269);
#269 = CARTESIAN_POINT('',(-32.5,0.5,9.));
#270 = CIRCLE('',#271,2.);
#271 = AXIS2_PLACEMENT_3D('',#272,#273,#274);
#272 = CARTESIAN_POINT('',(-30.5,0.5,9.));
#273 = DIRECTION('',(0.,-0.,1.));
#274 = DIRECTION('',(0.,1.,0.));
#275 = ORIENTED_EDGE('',*,*,#276,.T.);
#276 = EDGE_CURVE('',#268,#277,#279,.T.);
#277 = VERTEX_POINT('',#278);
#278 = CARTESIAN_POINT('',(-32.5,-0.5,9.));
#279 = LINE('',#280,#281);
#280 = CARTESIAN_POINT('',(-32.5,2.5,9.));
#281 = VECTOR('',#282,1.);
#282 = DIRECTION('',(0.,-1.,0.));
#283 = ORIENTED_EDGE('',*,*,#284,.F.);
#284 = EDGE_CURVE('',#285,#277,#287,.T.);
#285 = VERTEX_POINT('',#286);
#286 = CARTESIAN_POINT('',(-30.5,-2.5,9.));
#287 = CIRCLE('',#288,2.);
#288 = AXIS2_PLACEMENT_3D('',#289,#290,#291);
#289 = CARTESIAN_POINT('',(-30.5,-0.5,9.));
#290 = DIRECTION('',(0.,0.,-1.));
#291 = DIRECTION('',(0.,1.,0.));
#292 = ORIENTED_EDGE('',*,*,#293,.T.);
#293 = EDGE_CURVE('',#285,#294,#296,.T.);
#294 = VERTEX_POINT('',#295);
#295 = CARTESIAN_POINT('',(-26.88401011754,-2.499999999999,9.));
#296 = LINE('',#297,#298);
#297 = CARTESIAN_POINT('',(-32.5,-2.5,9.));
#298 = VECTOR('',#299,1.);
#299 = DIRECTION('',(1.,0.,0.));
#300 = ORIENTED_EDGE('',*,*,#301,.T.);
#301 = EDGE_CURVE('',#294,#67,#302,.T.);
#302 = CIRCLE('',#303,27.);
#303 = AXIS2_PLACEMENT_3D('',#304,#305,#306);
#304 = CARTESIAN_POINT('',(0.,0.,9.));
#305 = DIRECTION('',(0.,0.,1.));
#306 = DIRECTION('',(1.,0.,0.));
#307 = FACE_BOUND('',#308,.T.);
#308 = EDGE_LOOP('',(#309));
#309 = ORIENTED_EDGE('',*,*,#310,.F.);
#310 = EDGE_CURVE('',#311,#311,#313,.T.);
#311 = VERTEX_POINT('',#312);
#312 = CARTESIAN_POINT('',(25.1,0.,9.));
#313 = CIRCLE('',#314,25.1);
#314 = AXIS2_PLACEMENT_3D('',#315,#316,#317);
#315 = CARTESIAN_POINT('',(0.,0.,9.));
#316 = DIRECTION('',(0.,0.,1.));
#317 = DIRECTION('',(1.,0.,0.));
#318 = FACE_BOUND('',#319,.T.);
#319 = EDGE_LOOP('',(#320));
#320 = ORIENTED_EDGE('',*,*,#321,.F.);
#321 = EDGE_CURVE('',#322,#322,#324,.T.);
#322 = VERTEX_POINT('',#323);
#323 = CARTESIAN_POINT('',(31.05,0.,9.));
#324 = CIRCLE('',#325,1.55);
#325 = AXIS2_PLACEMENT_3D('',#326,#327,#328);
#326 = CARTESIAN_POINT('',(29.5,0.,9.));
#327 = DIRECTION('',(0.,0.,1.));
#328 = DIRECTION('',(1.,0.,0.));
#329 = FACE_BOUND('',#330,.T.);
#330 = EDGE_LOOP('',(#331));
#331 = ORIENTED_EDGE('',*,*,#332,.F.);
#332 = EDGE_CURVE('',#333,#333,#335,.T.);
#333 = VERTEX_POINT('',#334);
#334 = CARTESIAN_POINT('',(-27.95,0.,9.));
#335 = CIRCLE('',#336,1.55);
#336 = AXIS2_PLACEMENT_3D('',#337,#338,#339);
#337 = CARTESIAN_POINT('',(-29.5,0.,9.));
#338 = DIRECTION('',(0.,0.,1.));
#339 = DIRECTION('',(1.,0.,0.));
#340 = PLANE('',#341);
#341 = AXIS2_PLACEMENT_3D('',#342,#343,#344);
#342 = CARTESIAN_POINT('',(-3.546682255879E-13,2.630360356976E-15,9.));
#343 = DIRECTION('',(0.,0.,1.));
#344 = DIRECTION('',(1.,0.,0.));
#345 = ADVANCED_FACE('',(#346),#479,.T.);
#346 = FACE_BOUND('',#347,.F.);
#347 = EDGE_LOOP('',(#348,#357,#364,#365,#375,#384,#392,#398,#399,#407,
    #415,#424,#434,#444,#453,#461,#467,#468,#469,#470,#471));
#348 = ORIENTED_EDGE('',*,*,#349,.T.);
#349 = EDGE_CURVE('',#350,#352,#354,.T.);
#350 = VERTEX_POINT('',#351);
#351 = CARTESIAN_POINT('',(27.,0.,6.001250782228));
#352 = VERTEX_POINT('',#353);
#353 = CARTESIAN_POINT('',(27.,0.,0.));
#354 = B_SPLINE_CURVE_WITH_KNOTS('',1,(#355,#356),.UNSPECIFIED.,.F.,.F.,
  (2,2),(-9.,0.),.PIECEWISE_BEZIER_KNOTS.);
#355 = CARTESIAN_POINT('',(27.,-6.613092715396E-15,9.));
#356 = CARTESIAN_POINT('',(27.,-6.613092715396E-15,0.));
#357 = ORIENTED_EDGE('',*,*,#358,.F.);
#358 = EDGE_CURVE('',#352,#352,#359,.T.);
#359 = CIRCLE('',#360,27.);
#360 = AXIS2_PLACEMENT_3D('',#361,#362,#363);
#361 = CARTESIAN_POINT('',(0.,0.,0.));
#362 = DIRECTION('',(0.,0.,1.));
#363 = DIRECTION('',(1.,0.,0.));
#364 = ORIENTED_EDGE('',*,*,#349,.F.);
#365 = ORIENTED_EDGE('',*,*,#366,.F.);
#366 = EDGE_CURVE('',#367,#350,#369,.T.);
#367 = VERTEX_POINT('',#368);
#368 = CARTESIAN_POINT('',(26.997507566586,0.366858545129,6.));
#369 = ( BOUNDED_CURVE() B_SPLINE_CURVE(4,(#370,#371,#372,#373,#374),
.UNSPECIFIED.,.F.,.F.) B_SPLINE_CURVE_WITH_KNOTS((5,5),(2.136716263576,
2.503586097638),.PIECEWISE_BEZIER_KNOTS.) CURVE() 
GEOMETRIC_REPRESENTATION_ITEM() RATIONAL_B_SPLINE_CURVE((1.,1.,1.,1.,1.)
) REPRESENTATION_ITEM('') );
#370 = CARTESIAN_POINT('',(26.997507566586,0.366858545121,6.));
#371 = CARTESIAN_POINT('',(26.998753764119,0.275149553267,6.));
#372 = CARTESIAN_POINT('',(26.999584588039,0.183434917071,6.0008505087)
  );
#373 = CARTESIAN_POINT('',(27.,9.171745851229E-02,6.001250782228));
#374 = CARTESIAN_POINT('',(27.,0.,6.001250782228));
#375 = ORIENTED_EDGE('',*,*,#376,.F.);
#376 = EDGE_CURVE('',#377,#367,#379,.T.);
#377 = VERTEX_POINT('',#378);
#378 = CARTESIAN_POINT('',(26.88401011754,2.5,6.));
#379 = CIRCLE('',#380,27.);
#380 = AXIS2_PLACEMENT_3D('',#381,#382,#383);
#381 = CARTESIAN_POINT('',(0.,0.,6.));
#382 = DIRECTION('',(0.,0.,-1.));
#383 = DIRECTION('',(0.995704078427,9.259259259259E-02,0.));
#384 = ORIENTED_EDGE('',*,*,#385,.F.);
#385 = EDGE_CURVE('',#386,#377,#388,.T.);
#386 = VERTEX_POINT('',#387);
#387 = CARTESIAN_POINT('',(26.88401011754,2.5,7.));
#388 = LINE('',#389,#390);
#389 = CARTESIAN_POINT('',(26.88401011754,2.5,0.));
#390 = VECTOR('',#391,1.);
#391 = DIRECTION('',(-0.,-0.,-1.));
#392 = ORIENTED_EDGE('',*,*,#393,.F.);
#393 = EDGE_CURVE('',#243,#386,#394,.T.);
#394 = LINE('',#395,#396);
#395 = CARTESIAN_POINT('',(26.88401011754,2.5,0.));
#396 = VECTOR('',#397,1.);
#397 = DIRECTION('',(-0.,-0.,-1.));
#398 = ORIENTED_EDGE('',*,*,#250,.T.);
#399 = ORIENTED_EDGE('',*,*,#400,.T.);
#400 = EDGE_CURVE('',#251,#401,#403,.T.);
#401 = VERTEX_POINT('',#402);
#402 = CARTESIAN_POINT('',(-26.88401011754,2.5,7.));
#403 = LINE('',#404,#405);
#404 = CARTESIAN_POINT('',(-26.88401011754,2.5,0.));
#405 = VECTOR('',#406,1.);
#406 = DIRECTION('',(-0.,-0.,-1.));
#407 = ORIENTED_EDGE('',*,*,#408,.T.);
#408 = EDGE_CURVE('',#401,#409,#411,.T.);
#409 = VERTEX_POINT('',#410);
#410 = CARTESIAN_POINT('',(-26.88401011754,2.5,6.));
#411 = LINE('',#412,#413);
#412 = CARTESIAN_POINT('',(-26.88401011754,2.5,0.));
#413 = VECTOR('',#414,1.);
#414 = DIRECTION('',(-0.,-0.,-1.));
#415 = ORIENTED_EDGE('',*,*,#416,.F.);
#416 = EDGE_CURVE('',#417,#409,#419,.T.);
#417 = VERTEX_POINT('',#418);
#418 = CARTESIAN_POINT('',(-26.99750756658,0.366858545129,6.));
#419 = CIRCLE('',#420,27.);
#420 = AXIS2_PLACEMENT_3D('',#421,#422,#423);
#421 = CARTESIAN_POINT('',(0.,0.,6.));
#422 = DIRECTION('',(-0.,0.,-1.));
#423 = DIRECTION('',(-0.995704078427,-9.259259259259E-02,0.));
#424 = ORIENTED_EDGE('',*,*,#425,.F.);
#425 = EDGE_CURVE('',#426,#417,#428,.T.);
#426 = VERTEX_POINT('',#427);
#427 = CARTESIAN_POINT('',(-27.,3.306546357698E-15,6.001250782228));
#428 = ( BOUNDED_CURVE() B_SPLINE_CURVE(4,(#429,#430,#431,#432,#433),
.UNSPECIFIED.,.F.,.F.) B_SPLINE_CURVE_WITH_KNOTS((5,5),(2.503586097639,
2.870455931709),.PIECEWISE_BEZIER_KNOTS.) CURVE() 
GEOMETRIC_REPRESENTATION_ITEM() RATIONAL_B_SPLINE_CURVE((1.,1.,1.,1.,1.)
) REPRESENTATION_ITEM('') );
#429 = CARTESIAN_POINT('',(-27.,1.529695502365E-14,6.001250782228));
#430 = CARTESIAN_POINT('',(-27.,9.171745851758E-02,6.001250782228));
#431 = CARTESIAN_POINT('',(-26.99958458804,0.183434917044,6.000850508699
    ));
#432 = CARTESIAN_POINT('',(-26.99875376411,0.275149553265,6.));
#433 = CARTESIAN_POINT('',(-26.99750756658,0.366858545129,6.));
#434 = ORIENTED_EDGE('',*,*,#435,.F.);
#435 = EDGE_CURVE('',#436,#426,#438,.T.);
#436 = VERTEX_POINT('',#437);
#437 = CARTESIAN_POINT('',(-26.99750756658,-0.366858545129,6.));
#438 = ( BOUNDED_CURVE() B_SPLINE_CURVE(4,(#439,#440,#441,#442,#443),
.UNSPECIFIED.,.F.,.F.) B_SPLINE_CURVE_WITH_KNOTS((5,5),(2.136716263569,
2.503586097639),.PIECEWISE_BEZIER_KNOTS.) CURVE() 
GEOMETRIC_REPRESENTATION_ITEM() RATIONAL_B_SPLINE_CURVE((1.,1.,1.,1.,1.)
) REPRESENTATION_ITEM('') );
#439 = CARTESIAN_POINT('',(-26.99750756658,-0.366858545129,6.));
#440 = CARTESIAN_POINT('',(-26.99875376411,-0.275149553265,6.));
#441 = CARTESIAN_POINT('',(-26.99958458804,-0.183434917044,
    6.000850508699));
#442 = CARTESIAN_POINT('',(-27.,-9.171745851754E-02,6.001250782228));
#443 = CARTESIAN_POINT('',(-27.,3.306546357698E-15,6.001250782228));
#444 = ORIENTED_EDGE('',*,*,#445,.F.);
#445 = EDGE_CURVE('',#446,#436,#448,.T.);
#446 = VERTEX_POINT('',#447);
#447 = CARTESIAN_POINT('',(-26.88401011754,-2.5,6.));
#448 = CIRCLE('',#449,27.);
#449 = AXIS2_PLACEMENT_3D('',#450,#451,#452);
#450 = CARTESIAN_POINT('',(0.,0.,6.));
#451 = DIRECTION('',(-0.,0.,-1.));
#452 = DIRECTION('',(-0.995704078427,-9.259259259259E-02,0.));
#453 = ORIENTED_EDGE('',*,*,#454,.F.);
#454 = EDGE_CURVE('',#455,#446,#457,.T.);
#455 = VERTEX_POINT('',#456);
#456 = CARTESIAN_POINT('',(-26.88401011754,-2.5,7.));
#457 = LINE('',#458,#459);
#458 = CARTESIAN_POINT('',(-26.88401011754,-2.5,0.));
#459 = VECTOR('',#460,1.);
#460 = DIRECTION('',(-0.,-0.,-1.));
#461 = ORIENTED_EDGE('',*,*,#462,.F.);
#462 = EDGE_CURVE('',#294,#455,#463,.T.);
#463 = LINE('',#464,#465);
#464 = CARTESIAN_POINT('',(-26.88401011754,-2.5,0.));
#465 = VECTOR('',#466,1.);
#466 = DIRECTION('',(-0.,-0.,-1.));
#467 = ORIENTED_EDGE('',*,*,#301,.T.);
#468 = ORIENTED_EDGE('',*,*,#66,.T.);
#469 = ORIENTED_EDGE('',*,*,#58,.T.);
#470 = ORIENTED_EDGE('',*,*,#206,.F.);
#471 = ORIENTED_EDGE('',*,*,#472,.F.);
#472 = EDGE_CURVE('',#350,#199,#473,.T.);
#473 = ( BOUNDED_CURVE() B_SPLINE_CURVE(4,(#474,#475,#476,#477,#478),
.UNSPECIFIED.,.F.,.F.) B_SPLINE_CURVE_WITH_KNOTS((5,5),(2.503586097638,
2.870455931709),.PIECEWISE_BEZIER_KNOTS.) CURVE() 
GEOMETRIC_REPRESENTATION_ITEM() RATIONAL_B_SPLINE_CURVE((1.,1.,1.,1.,1.)
) REPRESENTATION_ITEM('') );
#474 = CARTESIAN_POINT('',(27.,-6.613092715396E-15,6.001250782228));
#475 = CARTESIAN_POINT('',(27.,-9.171745851445E-02,6.001250782228));
#476 = CARTESIAN_POINT('',(26.999584588007,-0.183434918606,
    6.000850508521));
#477 = CARTESIAN_POINT('',(26.998753764182,-0.275149549253,6.00000000017
    ));
#478 = CARTESIAN_POINT('',(26.997507566553,-0.366858547581,
    5.999999999411));
#479 = CYLINDRICAL_SURFACE('',#480,27.);
#480 = AXIS2_PLACEMENT_3D('',#481,#482,#483);
#481 = CARTESIAN_POINT('',(0.,0.,0.));
#482 = DIRECTION('',(-0.,-0.,-1.));
#483 = DIRECTION('',(1.,0.,0.));
#484 = ADVANCED_FACE('',(#485),#522,.F.);
#485 = FACE_BOUND('',#486,.F.);
#486 = EDGE_LOOP('',(#487,#488,#494,#495,#496,#497));
#487 = ORIENTED_EDGE('',*,*,#96,.T.);
#488 = ORIENTED_EDGE('',*,*,#489,.F.);
#489 = EDGE_CURVE('',#234,#99,#490,.T.);
#490 = LINE('',#491,#492);
#491 = CARTESIAN_POINT('',(30.5,2.5,9.));
#492 = VECTOR('',#493,1.);
#493 = DIRECTION('',(-0.,-0.,-1.));
#494 = ORIENTED_EDGE('',*,*,#242,.F.);
#495 = ORIENTED_EDGE('',*,*,#393,.T.);
#496 = ORIENTED_EDGE('',*,*,#385,.T.);
#497 = ORIENTED_EDGE('',*,*,#498,.T.);
#498 = EDGE_CURVE('',#377,#97,#499,.T.);
#499 = B_SPLINE_CURVE_WITH_KNOTS('',5,(#500,#501,#502,#503,#504,#505,
    #506,#507,#508,#509,#510,#511,#512,#513,#514,#515,#516,#517,#518,
    #519,#520,#521),.UNSPECIFIED.,.F.,.F.,(6,4,4,4,4,6),(0.,
    0.240408501918,0.479309952188,0.72839408159,0.976610999764,1.),
  .UNSPECIFIED.);
#500 = CARTESIAN_POINT('',(26.88401011754,2.5,6.));
#501 = CARTESIAN_POINT('',(26.88401011754,2.5,6.075604380987));
#502 = CARTESIAN_POINT('',(26.891186150763,2.5,6.151211244924));
#503 = CARTESIAN_POINT('',(26.905538018468,2.5,6.225909121195));
#504 = CARTESIAN_POINT('',(26.926891079035,2.5,6.298803404397));
#505 = CARTESIAN_POINT('',(26.982742157032,2.5,6.438856672678));
#506 = CARTESIAN_POINT('',(27.017158694108,2.5,6.506053170967));
#507 = CARTESIAN_POINT('',(27.057819247006,2.5,6.569812095312));
#508 = CARTESIAN_POINT('',(27.104239011145,2.5,6.629384889133));
#509 = CARTESIAN_POINT('',(27.209566783902,2.5,6.741204051354));
#510 = CARTESIAN_POINT('',(27.26892632269,2.5,6.79303366814));
#511 = CARTESIAN_POINT('',(27.333186133834,2.5,6.83888731409));
#512 = CARTESIAN_POINT('',(27.401522205587,2.5,6.87818553661));
#513 = CARTESIAN_POINT('',(27.544263713235,2.5,6.942738179255));
#514 = CARTESIAN_POINT('',(27.618651920632,2.5,6.968043160699));
#515 = CARTESIAN_POINT('',(27.695274504701,2.5,6.986027869205));
#516 = CARTESIAN_POINT('',(27.773163420387,2.5,6.996467844465));
#517 = CARTESIAN_POINT('',(27.858692305026,2.5,6.999595874309));
#518 = CARTESIAN_POINT('',(27.866059978925,2.5,6.999797929356));
#519 = CARTESIAN_POINT('',(27.873429291049,2.5,6.999932642999));
#520 = CARTESIAN_POINT('',(27.880799417573,2.5,7.));
#521 = CARTESIAN_POINT('',(27.888169534769,2.5,7.));
#522 = PLANE('',#523);
#523 = AXIS2_PLACEMENT_3D('',#524,#525,#526);
#524 = CARTESIAN_POINT('',(26.,2.5,9.));
#525 = DIRECTION('',(0.,-1.,0.));
#526 = DIRECTION('',(1.,0.,0.));
#527 = ADVANCED_FACE('',(#528),#539,.T.);
#528 = FACE_BOUND('',#529,.T.);
#529 = EDGE_LOOP('',(#530,#531,#537,#538));
#530 = ORIENTED_EDGE('',*,*,#233,.T.);
#531 = ORIENTED_EDGE('',*,*,#532,.T.);
#532 = EDGE_CURVE('',#226,#151,#533,.T.);
#533 = LINE('',#534,#535);
#534 = CARTESIAN_POINT('',(32.5,0.5,9.));
#535 = VECTOR('',#536,1.);
#536 = DIRECTION('',(-0.,-0.,-1.));
#537 = ORIENTED_EDGE('',*,*,#158,.F.);
#538 = ORIENTED_EDGE('',*,*,#489,.F.);
#539 = CYLINDRICAL_SURFACE('',#540,2.);
#540 = AXIS2_PLACEMENT_3D('',#541,#542,#543);
#541 = CARTESIAN_POINT('',(30.5,0.5,9.));
#542 = DIRECTION('',(-0.,-0.,-1.));
#543 = DIRECTION('',(0.,1.,0.));
#544 = ADVANCED_FACE('',(#545),#557,.F.);
#545 = FACE_BOUND('',#546,.F.);
#546 = EDGE_LOOP('',(#547,#548,#549,#556));
#547 = ORIENTED_EDGE('',*,*,#498,.F.);
#548 = ORIENTED_EDGE('',*,*,#376,.T.);
#549 = ORIENTED_EDGE('',*,*,#550,.T.);
#550 = EDGE_CURVE('',#367,#107,#551,.T.);
#551 = CIRCLE('',#552,1.);
#552 = AXIS2_PLACEMENT_3D('',#553,#554,#555);
#553 = CARTESIAN_POINT('',(27.997415254237,0.380445898652,6.));
#554 = DIRECTION('',(-1.358735352329E-02,0.999907687651,0.));
#555 = DIRECTION('',(0.999907687651,1.358735352329E-02,0.));
#556 = ORIENTED_EDGE('',*,*,#106,.F.);
#557 = TOROIDAL_SURFACE('',#558,28.,1.);
#558 = AXIS2_PLACEMENT_3D('',#559,#560,#561);
#559 = CARTESIAN_POINT('',(0.,0.,6.));
#560 = DIRECTION('',(-0.,-0.,-1.));
#561 = DIRECTION('',(0.995704078427,9.259259259259E-02,0.));
#562 = ADVANCED_FACE('',(#563),#569,.F.);
#563 = FACE_BOUND('',#564,.F.);
#564 = EDGE_LOOP('',(#565,#566,#567,#568));
#565 = ORIENTED_EDGE('',*,*,#225,.F.);
#566 = ORIENTED_EDGE('',*,*,#532,.T.);
#567 = ORIENTED_EDGE('',*,*,#150,.T.);
#568 = ORIENTED_EDGE('',*,*,#182,.F.);
#569 = PLANE('',#570);
#570 = AXIS2_PLACEMENT_3D('',#571,#572,#573);
#571 = CARTESIAN_POINT('',(32.5,2.5,9.));
#572 = DIRECTION('',(-1.,0.,0.));
#573 = DIRECTION('',(0.,-1.,0.));
#574 = ADVANCED_FACE('',(#575),#605,.F.);
#575 = FACE_BOUND('',#576,.F.);
#576 = EDGE_LOOP('',(#577,#578,#588,#596,#597,#603,#604));
#577 = ORIENTED_EDGE('',*,*,#115,.T.);
#578 = ORIENTED_EDGE('',*,*,#579,.T.);
#579 = EDGE_CURVE('',#107,#580,#582,.T.);
#580 = VERTEX_POINT('',#581);
#581 = CARTESIAN_POINT('',(27.95,1.059578089145E-11,7.));
#582 = ( BOUNDED_CURVE() B_SPLINE_CURVE(4,(#583,#584,#585,#586,#587),
.UNSPECIFIED.,.F.,.F.) B_SPLINE_CURVE_WITH_KNOTS((5,5),(2.136716263576,
2.503586097638),.PIECEWISE_BEZIER_KNOTS.) CURVE() 
GEOMETRIC_REPRESENTATION_ITEM() RATIONAL_B_SPLINE_CURVE((1.,1.,1.,1.,1.)
) REPRESENTATION_ITEM('') );
#583 = CARTESIAN_POINT('',(27.997415254237,0.380445898652,7.));
#584 = CARTESIAN_POINT('',(27.973247455536,0.284994309355,7.));
#585 = CARTESIAN_POINT('',(27.957761192107,0.189890240928,7.));
#586 = CARTESIAN_POINT('',(27.950000000001,9.49445543038E-02,7.));
#587 = CARTESIAN_POINT('',(27.95,1.059578089145E-11,7.));
#588 = ORIENTED_EDGE('',*,*,#589,.T.);
#589 = EDGE_CURVE('',#580,#125,#590,.T.);
#590 = ( BOUNDED_CURVE() B_SPLINE_CURVE(4,(#591,#592,#593,#594,#595),
.UNSPECIFIED.,.F.,.F.) B_SPLINE_CURVE_WITH_KNOTS((5,5),(2.503586097638,
2.870455931709),.PIECEWISE_BEZIER_KNOTS.) CURVE() 
GEOMETRIC_REPRESENTATION_ITEM() RATIONAL_B_SPLINE_CURVE((1.,1.,1.,1.,1.)
) REPRESENTATION_ITEM('') );
#591 = CARTESIAN_POINT('',(27.95,1.05888975087E-11,7.));
#592 = CARTESIAN_POINT('',(27.949999999999,-9.494455428485E-02,7.));
#593 = CARTESIAN_POINT('',(27.957761185455,-0.189890223891,7.));
#594 = CARTESIAN_POINT('',(27.973247467943,-0.28499435167,7.));
#595 = CARTESIAN_POINT('',(27.997415247874,-0.380445873519,7.));
#596 = ORIENTED_EDGE('',*,*,#124,.T.);
#597 = ORIENTED_EDGE('',*,*,#598,.F.);
#598 = EDGE_CURVE('',#322,#116,#599,.T.);
#599 = LINE('',#600,#601);
#600 = CARTESIAN_POINT('',(31.05,0.,9.));
#601 = VECTOR('',#602,1.);
#602 = DIRECTION('',(-0.,-0.,-1.));
#603 = ORIENTED_EDGE('',*,*,#321,.F.);
#604 = ORIENTED_EDGE('',*,*,#598,.T.);
#605 = CYLINDRICAL_SURFACE('',#606,1.55);
#606 = AXIS2_PLACEMENT_3D('',#607,#608,#609);
#607 = CARTESIAN_POINT('',(29.5,0.,9.));
#608 = DIRECTION('',(0.,0.,1.));
#609 = DIRECTION('',(1.,0.,0.));
#610 = ADVANCED_FACE('',(#611),#622,.T.);
#611 = FACE_BOUND('',#612,.T.);
#612 = EDGE_LOOP('',(#613,#619,#620,#621));
#613 = ORIENTED_EDGE('',*,*,#614,.T.);
#614 = EDGE_CURVE('',#350,#580,#615,.T.);
#615 = ( BOUNDED_CURVE() B_SPLINE_CURVE(2,(#616,#617,#618),
.UNSPECIFIED.,.F.,.F.) B_SPLINE_CURVE_WITH_KNOTS((3,3),(0.,
0.366869834062),.PIECEWISE_BEZIER_KNOTS.) CURVE() 
GEOMETRIC_REPRESENTATION_ITEM() RATIONAL_B_SPLINE_CURVE((1.,
0.724568837309,1.)) REPRESENTATION_ITEM('') );
#616 = CARTESIAN_POINT('',(27.,0.,6.001250782228));
#617 = CARTESIAN_POINT('',(27.,6.016298570444E-13,6.952440513439));
#618 = CARTESIAN_POINT('',(27.95,1.059578089145E-11,7.));
#619 = ORIENTED_EDGE('',*,*,#589,.T.);
#620 = ORIENTED_EDGE('',*,*,#198,.F.);
#621 = ORIENTED_EDGE('',*,*,#472,.F.);
#622 = ( BOUNDED_SURFACE() B_SPLINE_SURFACE(2,4,(
    (#623,#624,#625,#626,#627)
    ,(#628,#629,#630,#631,#632)
    ,(#633,#634,#635,#636,#637
)),.UNSPECIFIED.,.F.,.F.,.F.) B_SPLINE_SURFACE_WITH_KNOTS((3,3),(5,5),(
    0.,0.366869834071),(2.503586097638,2.870455931709),
.PIECEWISE_BEZIER_KNOTS.) GEOMETRIC_REPRESENTATION_ITEM() 
RATIONAL_B_SPLINE_SURFACE((
    (1.,1.,1.,1.,1.)
    ,(0.724568837309,0.72456883731,0.7217397302,0.716109130524
      ,0.707106783549)
,(1.,1.,1.,1.,1.))) REPRESENTATION_ITEM('') SURFACE() );
#623 = CARTESIAN_POINT('',(27.,-6.613092715396E-15,6.001250782228));
#624 = CARTESIAN_POINT('',(27.,-9.171745851445E-02,6.001250782228));
#625 = CARTESIAN_POINT('',(26.999584588007,-0.183434918606,
    6.000850508521));
#626 = CARTESIAN_POINT('',(26.998753764182,-0.275149549253,6.00000000017
    ));
#627 = CARTESIAN_POINT('',(26.997507566553,-0.366858547581,
    5.999999999411));
#628 = CARTESIAN_POINT('',(27.,5.949685188966E-13,6.952440513439));
#629 = CARTESIAN_POINT('',(27.,-9.171745851693E-02,6.952440513439));
#630 = CARTESIAN_POINT('',(26.999583366668,-0.184128507004,
    6.959876761075));
#631 = CARTESIAN_POINT('',(26.998738097927,-0.276302444876,
    6.974857605011));
#632 = CARTESIAN_POINT('',(26.997507566586,-0.366858545129,
    6.999999993319));
#633 = CARTESIAN_POINT('',(27.95,1.05888975087E-11,7.));
#634 = CARTESIAN_POINT('',(27.949999999999,-9.494455428485E-02,7.));
#635 = CARTESIAN_POINT('',(27.957761185455,-0.189890223891,7.));
#636 = CARTESIAN_POINT('',(27.973247467943,-0.28499435167,7.));
#637 = CARTESIAN_POINT('',(27.997415247874,-0.380445873519,7.));
#638 = ADVANCED_FACE('',(#639),#685,.T.);
#639 = FACE_BOUND('',#640,.T.);
#640 = EDGE_LOOP('',(#641,#651,#676,#677,#678,#679));
#641 = ORIENTED_EDGE('',*,*,#642,.T.);
#642 = EDGE_CURVE('',#643,#645,#647,.T.);
#643 = VERTEX_POINT('',#644);
#644 = CARTESIAN_POINT('',(-30.5,-2.5,7.));
#645 = VERTEX_POINT('',#646);
#646 = CARTESIAN_POINT('',(-27.88816953476,-2.5,7.));
#647 = LINE('',#648,#649);
#648 = CARTESIAN_POINT('',(-32.5,-2.5,7.));
#649 = VECTOR('',#650,1.);
#650 = DIRECTION('',(1.,0.,0.));
#651 = ORIENTED_EDGE('',*,*,#652,.F.);
#652 = EDGE_CURVE('',#446,#645,#653,.T.);
#653 = B_SPLINE_CURVE_WITH_KNOTS('',5,(#654,#655,#656,#657,#658,#659,
    #660,#661,#662,#663,#664,#665,#666,#667,#668,#669,#670,#671,#672,
    #673,#674,#675),.UNSPECIFIED.,.F.,.F.,(6,4,4,4,4,6),(0.,
    0.240408502007,0.479309952278,0.72839408168,0.976610999854,1.),
  .UNSPECIFIED.);
#654 = CARTESIAN_POINT('',(-26.88401011754,-2.5,6.));
#655 = CARTESIAN_POINT('',(-26.88401011754,-2.5,6.075604381015));
#656 = CARTESIAN_POINT('',(-26.89118615076,-2.5,6.151211244981));
#657 = CARTESIAN_POINT('',(-26.90553801848,-2.5,6.225909121278));
#658 = CARTESIAN_POINT('',(-26.92689107906,-2.5,6.298803404506));
#659 = CARTESIAN_POINT('',(-26.98274215709,-2.5,6.438856672805));
#660 = CARTESIAN_POINT('',(-27.01715869418,-2.5,6.506053171089));
#661 = CARTESIAN_POINT('',(-27.05781924708,-2.5,6.569812095428));
#662 = CARTESIAN_POINT('',(-27.10423901123,-2.5,6.629384889242));
#663 = CARTESIAN_POINT('',(-27.209566784,-2.5,6.741204051449));
#664 = CARTESIAN_POINT('',(-27.2689263228,-2.5,6.793033668226));
#665 = CARTESIAN_POINT('',(-27.33318613395,-2.5,6.838887314168));
#666 = CARTESIAN_POINT('',(-27.40152220571,-2.5,6.878185536678));
#667 = CARTESIAN_POINT('',(-27.54426371336,-2.5,6.942738179303));
#668 = CARTESIAN_POINT('',(-27.61865192076,-2.5,6.968043160737));
#669 = CARTESIAN_POINT('',(-27.69527450484,-2.5,6.986027869232));
#670 = CARTESIAN_POINT('',(-27.77316342052,-2.5,6.996467844481));
#671 = CARTESIAN_POINT('',(-27.85869230513,-2.5,6.999595874312));
#672 = CARTESIAN_POINT('',(-27.86605997901,-2.5,6.999797929358));
#673 = CARTESIAN_POINT('',(-27.8734292911,-2.5,6.999932643));
#674 = CARTESIAN_POINT('',(-27.8807994176,-2.5,7.));
#675 = CARTESIAN_POINT('',(-27.88816953476,-2.5,7.));
#676 = ORIENTED_EDGE('',*,*,#454,.F.);
#677 = ORIENTED_EDGE('',*,*,#462,.F.);
#678 = ORIENTED_EDGE('',*,*,#293,.F.);
#679 = ORIENTED_EDGE('',*,*,#680,.T.);
#680 = EDGE_CURVE('',#285,#643,#681,.T.);
#681 = LINE('',#682,#683);
#682 = CARTESIAN_POINT('',(-30.5,-2.5,9.));
#683 = VECTOR('',#684,1.);
#684 = DIRECTION('',(-0.,-0.,-1.));
#685 = PLANE('',#686);
#686 = AXIS2_PLACEMENT_3D('',#687,#688,#689);
#687 = CARTESIAN_POINT('',(-32.5,-2.5,9.));
#688 = DIRECTION('',(0.,-1.,0.));
#689 = DIRECTION('',(1.,0.,0.));
#690 = ADVANCED_FACE('',(#691),#710,.T.);
#691 = FACE_BOUND('',#692,.T.);
#692 = EDGE_LOOP('',(#693,#694,#702,#709));
#693 = ORIENTED_EDGE('',*,*,#284,.T.);
#694 = ORIENTED_EDGE('',*,*,#695,.T.);
#695 = EDGE_CURVE('',#277,#696,#698,.T.);
#696 = VERTEX_POINT('',#697);
#697 = CARTESIAN_POINT('',(-32.5,-0.5,7.));
#698 = LINE('',#699,#700);
#699 = CARTESIAN_POINT('',(-32.5,-0.5,9.));
#700 = VECTOR('',#701,1.);
#701 = DIRECTION('',(-0.,-0.,-1.));
#702 = ORIENTED_EDGE('',*,*,#703,.F.);
#703 = EDGE_CURVE('',#643,#696,#704,.T.);
#704 = CIRCLE('',#705,2.);
#705 = AXIS2_PLACEMENT_3D('',#706,#707,#708);
#706 = CARTESIAN_POINT('',(-30.5,-0.5,7.));
#707 = DIRECTION('',(0.,0.,-1.));
#708 = DIRECTION('',(0.,1.,0.));
#709 = ORIENTED_EDGE('',*,*,#680,.F.);
#710 = CYLINDRICAL_SURFACE('',#711,2.);
#711 = AXIS2_PLACEMENT_3D('',#712,#713,#714);
#712 = CARTESIAN_POINT('',(-30.5,-0.5,9.));
#713 = DIRECTION('',(-0.,-0.,-1.));
#714 = DIRECTION('',(0.,-1.,0.));
#715 = ADVANCED_FACE('',(#716),#734,.T.);
#716 = FACE_BOUND('',#717,.T.);
#717 = EDGE_LOOP('',(#718,#719,#727,#733));
#718 = ORIENTED_EDGE('',*,*,#276,.F.);
#719 = ORIENTED_EDGE('',*,*,#720,.T.);
#720 = EDGE_CURVE('',#268,#721,#723,.T.);
#721 = VERTEX_POINT('',#722);
#722 = CARTESIAN_POINT('',(-32.5,0.5,7.));
#723 = LINE('',#724,#725);
#724 = CARTESIAN_POINT('',(-32.5,0.5,9.));
#725 = VECTOR('',#726,1.);
#726 = DIRECTION('',(-0.,-0.,-1.));
#727 = ORIENTED_EDGE('',*,*,#728,.T.);
#728 = EDGE_CURVE('',#721,#696,#729,.T.);
#729 = LINE('',#730,#731);
#730 = CARTESIAN_POINT('',(-32.5,2.5,7.));
#731 = VECTOR('',#732,1.);
#732 = DIRECTION('',(0.,-1.,0.));
#733 = ORIENTED_EDGE('',*,*,#695,.F.);
#734 = PLANE('',#735);
#735 = AXIS2_PLACEMENT_3D('',#736,#737,#738);
#736 = CARTESIAN_POINT('',(-32.5,2.5,9.));
#737 = DIRECTION('',(-1.,0.,0.));
#738 = DIRECTION('',(0.,-1.,0.));
#739 = ADVANCED_FACE('',(#740),#759,.T.);
#740 = FACE_BOUND('',#741,.F.);
#741 = EDGE_LOOP('',(#742,#743,#744,#753));
#742 = ORIENTED_EDGE('',*,*,#267,.T.);
#743 = ORIENTED_EDGE('',*,*,#720,.T.);
#744 = ORIENTED_EDGE('',*,*,#745,.F.);
#745 = EDGE_CURVE('',#746,#721,#748,.T.);
#746 = VERTEX_POINT('',#747);
#747 = CARTESIAN_POINT('',(-30.5,2.5,7.));
#748 = CIRCLE('',#749,2.);
#749 = AXIS2_PLACEMENT_3D('',#750,#751,#752);
#750 = CARTESIAN_POINT('',(-30.5,0.5,7.));
#751 = DIRECTION('',(0.,-0.,1.));
#752 = DIRECTION('',(0.,1.,0.));
#753 = ORIENTED_EDGE('',*,*,#754,.F.);
#754 = EDGE_CURVE('',#260,#746,#755,.T.);
#755 = LINE('',#756,#757);
#756 = CARTESIAN_POINT('',(-30.5,2.5,9.));
#757 = VECTOR('',#758,1.);
#758 = DIRECTION('',(-0.,-0.,-1.));
#759 = CYLINDRICAL_SURFACE('',#760,2.);
#760 = AXIS2_PLACEMENT_3D('',#761,#762,#763);
#761 = CARTESIAN_POINT('',(-30.5,0.5,9.));
#762 = DIRECTION('',(-0.,-0.,-1.));
#763 = DIRECTION('',(0.,1.,0.));
#764 = ADVANCED_FACE('',(#765),#804,.T.);
#765 = FACE_BOUND('',#766,.T.);
#766 = EDGE_LOOP('',(#767,#775,#776,#777,#778,#779));
#767 = ORIENTED_EDGE('',*,*,#768,.T.);
#768 = EDGE_CURVE('',#769,#746,#771,.T.);
#769 = VERTEX_POINT('',#770);
#770 = CARTESIAN_POINT('',(-27.88816953476,2.5,7.));
#771 = LINE('',#772,#773);
#772 = CARTESIAN_POINT('',(-26.,2.5,7.));
#773 = VECTOR('',#774,1.);
#774 = DIRECTION('',(-1.,0.,0.));
#775 = ORIENTED_EDGE('',*,*,#754,.F.);
#776 = ORIENTED_EDGE('',*,*,#259,.F.);
#777 = ORIENTED_EDGE('',*,*,#400,.T.);
#778 = ORIENTED_EDGE('',*,*,#408,.T.);
#779 = ORIENTED_EDGE('',*,*,#780,.T.);
#780 = EDGE_CURVE('',#409,#769,#781,.T.);
#781 = B_SPLINE_CURVE_WITH_KNOTS('',5,(#782,#783,#784,#785,#786,#787,
    #788,#789,#790,#791,#792,#793,#794,#795,#796,#797,#798,#799,#800,
    #801,#802,#803),.UNSPECIFIED.,.F.,.F.,(6,4,4,4,4,6),(0.,
    0.240408501642,0.479309951912,0.728394081314,0.976610999488,1.),
  .UNSPECIFIED.);
#782 = CARTESIAN_POINT('',(-26.88401011754,2.5,6.));
#783 = CARTESIAN_POINT('',(-26.88401011754,2.5,6.0756043809));
#784 = CARTESIAN_POINT('',(-26.89118615074,2.5,6.151211244751));
#785 = CARTESIAN_POINT('',(-26.90553801841,2.5,6.225909120938));
#786 = CARTESIAN_POINT('',(-26.92689107893,2.5,6.298803404062));
#787 = CARTESIAN_POINT('',(-26.98274215684,2.5,6.438856672287));
#788 = CARTESIAN_POINT('',(-27.01715869388,2.5,6.506053170591));
#789 = CARTESIAN_POINT('',(-27.05781924675,2.5,6.569812094953));
#790 = CARTESIAN_POINT('',(-27.10423901087,2.5,6.629384888794));
#791 = CARTESIAN_POINT('',(-27.20956678357,2.5,6.741204051061));
#792 = CARTESIAN_POINT('',(-27.26892632234,2.5,6.793033667872));
#793 = CARTESIAN_POINT('',(-27.33318613346,2.5,6.838887313851));
#794 = CARTESIAN_POINT('',(-27.4015222052,2.5,6.8781855364));
#795 = CARTESIAN_POINT('',(-27.54426371282,2.5,6.942738179107));
#796 = CARTESIAN_POINT('',(-27.61865192021,2.5,6.968043160583));
#797 = CARTESIAN_POINT('',(-27.69527450427,2.5,6.986027869122));
#798 = CARTESIAN_POINT('',(-27.77316341995,2.5,6.996467844415));
#799 = CARTESIAN_POINT('',(-27.85869230467,2.5,6.999595874299));
#800 = CARTESIAN_POINT('',(-27.86605997866,2.5,6.999797929352));
#801 = CARTESIAN_POINT('',(-27.87342929087,2.5,6.999932642998));
#802 = CARTESIAN_POINT('',(-27.88079941748,2.5,7.));
#803 = CARTESIAN_POINT('',(-27.88816953476,2.5,7.));
#804 = PLANE('',#805);
#805 = AXIS2_PLACEMENT_3D('',#806,#807,#808);
#806 = CARTESIAN_POINT('',(-26.,2.5,9.));
#807 = DIRECTION('',(0.,1.,0.));
#808 = DIRECTION('',(-1.,0.,0.));
#809 = ADVANCED_FACE('',(#810),#829,.F.);
#810 = FACE_BOUND('',#811,.T.);
#811 = EDGE_LOOP('',(#812,#820,#821,#822));
#812 = ORIENTED_EDGE('',*,*,#813,.T.);
#813 = EDGE_CURVE('',#814,#311,#816,.T.);
#814 = VERTEX_POINT('',#815);
#815 = CARTESIAN_POINT('',(25.1,0.,2.));
#816 = LINE('',#817,#818);
#817 = CARTESIAN_POINT('',(25.1,0.,2.));
#818 = VECTOR('',#819,1.);
#819 = DIRECTION('',(0.,0.,1.));
#820 = ORIENTED_EDGE('',*,*,#310,.T.);
#821 = ORIENTED_EDGE('',*,*,#813,.F.);
#822 = ORIENTED_EDGE('',*,*,#823,.F.);
#823 = EDGE_CURVE('',#814,#814,#824,.T.);
#824 = CIRCLE('',#825,25.1);
#825 = AXIS2_PLACEMENT_3D('',#826,#827,#828);
#826 = CARTESIAN_POINT('',(0.,0.,2.));
#827 = DIRECTION('',(0.,0.,1.));
#828 = DIRECTION('',(1.,0.,0.));
#829 = CYLINDRICAL_SURFACE('',#830,25.1);
#830 = AXIS2_PLACEMENT_3D('',#831,#832,#833);
#831 = CARTESIAN_POINT('',(0.,0.,2.));
#832 = DIRECTION('',(-0.,-0.,-1.));
#833 = DIRECTION('',(1.,0.,0.));
#834 = ADVANCED_FACE('',(#835),#874,.F.);
#835 = FACE_BOUND('',#836,.F.);
#836 = EDGE_LOOP('',(#837,#848,#858,#864,#865,#866));
#837 = ORIENTED_EDGE('',*,*,#838,.T.);
#838 = EDGE_CURVE('',#839,#841,#843,.T.);
#839 = VERTEX_POINT('',#840);
#840 = CARTESIAN_POINT('',(-27.99741525423,0.380445898652,7.));
#841 = VERTEX_POINT('',#842);
#842 = CARTESIAN_POINT('',(-27.99741525423,-0.380445898652,7.));
#843 = CIRCLE('',#844,1.55);
#844 = AXIS2_PLACEMENT_3D('',#845,#846,#847);
#845 = CARTESIAN_POINT('',(-29.5,0.,7.));
#846 = DIRECTION('',(0.,0.,1.));
#847 = DIRECTION('',(1.,0.,0.));
#848 = ORIENTED_EDGE('',*,*,#849,.T.);
#849 = EDGE_CURVE('',#841,#850,#852,.T.);
#850 = VERTEX_POINT('',#851);
#851 = CARTESIAN_POINT('',(-27.95,0.,7.));
#852 = ( BOUNDED_CURVE() B_SPLINE_CURVE(4,(#853,#854,#855,#856,#857),
.UNSPECIFIED.,.F.,.F.) B_SPLINE_CURVE_WITH_KNOTS((5,5),(2.136716263569,
2.503586097639),.PIECEWISE_BEZIER_KNOTS.) CURVE() 
GEOMETRIC_REPRESENTATION_ITEM() RATIONAL_B_SPLINE_CURVE((1.,1.,1.,1.,1.)
) REPRESENTATION_ITEM('') );
#853 = CARTESIAN_POINT('',(-27.99741525423,-0.380445898652,7.));
#854 = CARTESIAN_POINT('',(-27.97324745555,-0.284994309441,7.));
#855 = CARTESIAN_POINT('',(-27.95776119212,-0.189890241219,7.));
#856 = CARTESIAN_POINT('',(-27.95,-9.494455428018E-02,7.));
#857 = CARTESIAN_POINT('',(-27.95,-1.276972946255E-14,7.));
#858 = ORIENTED_EDGE('',*,*,#859,.F.);
#859 = EDGE_CURVE('',#333,#850,#860,.T.);
#860 = LINE('',#861,#862);
#861 = CARTESIAN_POINT('',(-27.95,0.,9.));
#862 = VECTOR('',#863,1.);
#863 = DIRECTION('',(-0.,-0.,-1.));
#864 = ORIENTED_EDGE('',*,*,#332,.F.);
#865 = ORIENTED_EDGE('',*,*,#859,.T.);
#866 = ORIENTED_EDGE('',*,*,#867,.T.);
#867 = EDGE_CURVE('',#850,#839,#868,.T.);
#868 = ( BOUNDED_CURVE() B_SPLINE_CURVE(4,(#869,#870,#871,#872,#873),
.UNSPECIFIED.,.F.,.F.) B_SPLINE_CURVE_WITH_KNOTS((5,5),(2.503586097639,
2.870455931709),.PIECEWISE_BEZIER_KNOTS.) CURVE() 
GEOMETRIC_REPRESENTATION_ITEM() RATIONAL_B_SPLINE_CURVE((1.,1.,1.,1.,1.)
) REPRESENTATION_ITEM('') );
#869 = CARTESIAN_POINT('',(-27.95,0.,7.));
#870 = CARTESIAN_POINT('',(-27.95,9.494455428019E-02,7.));
#871 = CARTESIAN_POINT('',(-27.95776119212,0.189890241219,7.));
#872 = CARTESIAN_POINT('',(-27.97324745555,0.284994309442,7.));
#873 = CARTESIAN_POINT('',(-27.99741525423,0.380445898652,7.));
#874 = CYLINDRICAL_SURFACE('',#875,1.55);
#875 = AXIS2_PLACEMENT_3D('',#876,#877,#878);
#876 = CARTESIAN_POINT('',(-29.5,0.,9.));
#877 = DIRECTION('',(0.,0.,1.));
#878 = DIRECTION('',(1.,0.,0.));
#879 = ADVANCED_FACE('',(#880,#883),#894,.F.);
#880 = FACE_BOUND('',#881,.F.);
#881 = EDGE_LOOP('',(#882));
#882 = ORIENTED_EDGE('',*,*,#358,.T.);
#883 = FACE_BOUND('',#884,.T.);
#884 = EDGE_LOOP('',(#885));
#885 = ORIENTED_EDGE('',*,*,#886,.T.);
#886 = EDGE_CURVE('',#887,#887,#889,.T.);
#887 = VERTEX_POINT('',#888);
#888 = CARTESIAN_POINT('',(13.5,0.,0.));
#889 = CIRCLE('',#890,13.5);
#890 = AXIS2_PLACEMENT_3D('',#891,#892,#893);
#891 = CARTESIAN_POINT('',(0.,0.,0.));
#892 = DIRECTION('',(0.,0.,1.));
#893 = DIRECTION('',(1.,0.,0.));
#894 = PLANE('',#895);
#895 = AXIS2_PLACEMENT_3D('',#896,#897,#898);
#896 = CARTESIAN_POINT('',(-2.160893048951E-15,-7.347880794884E-16,0.));
#897 = DIRECTION('',(0.,0.,1.));
#898 = DIRECTION('',(1.,0.,0.));
#899 = ADVANCED_FACE('',(#900),#906,.T.);
#900 = FACE_BOUND('',#901,.T.);
#901 = EDGE_LOOP('',(#902,#903,#904,#905));
#902 = ORIENTED_EDGE('',*,*,#550,.T.);
#903 = ORIENTED_EDGE('',*,*,#579,.T.);
#904 = ORIENTED_EDGE('',*,*,#614,.F.);
#905 = ORIENTED_EDGE('',*,*,#366,.F.);
#906 = ( BOUNDED_SURFACE() B_SPLINE_SURFACE(2,4,(
    (#907,#908,#909,#910,#911)
    ,(#912,#913,#914,#915,#916)
    ,(#917,#918,#919,#920,#921
)),.UNSPECIFIED.,.F.,.F.,.F.) B_SPLINE_SURFACE_WITH_KNOTS((3,3),(5,5),(
    0.,0.366869834062),(2.136716263576,2.503586097638),
.PIECEWISE_BEZIER_KNOTS.) GEOMETRIC_REPRESENTATION_ITEM() 
RATIONAL_B_SPLINE_SURFACE((
    (1.,1.,1.,1.,1.)
    ,(0.707106781187,0.716109135174,0.721739727693,0.724568837309
      ,0.724568837309)
,(1.,1.,1.,1.,1.))) REPRESENTATION_ITEM('') SURFACE() );
#907 = CARTESIAN_POINT('',(26.997507566586,0.366858545121,6.));
#908 = CARTESIAN_POINT('',(26.998753764119,0.275149553267,6.));
#909 = CARTESIAN_POINT('',(26.999584588039,0.183434917071,6.0008505087)
  );
#910 = CARTESIAN_POINT('',(27.,9.171745851229E-02,6.001250782228));
#911 = CARTESIAN_POINT('',(27.,0.,6.001250782228));
#912 = CARTESIAN_POINT('',(26.997507566586,0.366858545121,7.));
#913 = CARTESIAN_POINT('',(26.998738097916,0.2763024457,6.974857592105)
  );
#914 = CARTESIAN_POINT('',(26.999583366678,0.184128506107,6.959876767973
    ));
#915 = CARTESIAN_POINT('',(27.,9.171745851603E-02,6.95244051344));
#916 = CARTESIAN_POINT('',(27.,6.016298570444E-13,6.952440513439));
#917 = CARTESIAN_POINT('',(27.997415254237,0.380445898652,7.));
#918 = CARTESIAN_POINT('',(27.973247455536,0.284994309355,7.));
#919 = CARTESIAN_POINT('',(27.957761192107,0.189890240928,7.));
#920 = CARTESIAN_POINT('',(27.950000000001,9.49445543038E-02,7.));
#921 = CARTESIAN_POINT('',(27.95,1.059578089145E-11,7.));
#922 = ADVANCED_FACE('',(#923),#941,.F.);
#923 = FACE_BOUND('',#924,.F.);
#924 = EDGE_LOOP('',(#925,#926,#927,#934));
#925 = ORIENTED_EDGE('',*,*,#652,.F.);
#926 = ORIENTED_EDGE('',*,*,#445,.T.);
#927 = ORIENTED_EDGE('',*,*,#928,.T.);
#928 = EDGE_CURVE('',#436,#841,#929,.T.);
#929 = CIRCLE('',#930,1.);
#930 = AXIS2_PLACEMENT_3D('',#931,#932,#933);
#931 = CARTESIAN_POINT('',(-27.99741525423,-0.380445898652,6.));
#932 = DIRECTION('',(1.358735352329E-02,-0.999907687651,0.));
#933 = DIRECTION('',(-0.999907687651,-1.358735352329E-02,0.));
#934 = ORIENTED_EDGE('',*,*,#935,.F.);
#935 = EDGE_CURVE('',#645,#841,#936,.T.);
#936 = CIRCLE('',#937,28.);
#937 = AXIS2_PLACEMENT_3D('',#938,#939,#940);
#938 = CARTESIAN_POINT('',(0.,0.,7.));
#939 = DIRECTION('',(-0.,0.,-1.));
#940 = DIRECTION('',(-0.995704078427,-9.259259259259E-02,0.));
#941 = TOROIDAL_SURFACE('',#942,28.,1.);
#942 = AXIS2_PLACEMENT_3D('',#943,#944,#945);
#943 = CARTESIAN_POINT('',(0.,0.,6.));
#944 = DIRECTION('',(-0.,-0.,-1.));
#945 = DIRECTION('',(-0.995704078427,-9.259259259259E-02,0.));
#946 = ADVANCED_FACE('',(#947),#958,.T.);
#947 = FACE_BOUND('',#948,.T.);
#948 = EDGE_LOOP('',(#949,#950,#951,#957));
#949 = ORIENTED_EDGE('',*,*,#928,.T.);
#950 = ORIENTED_EDGE('',*,*,#849,.T.);
#951 = ORIENTED_EDGE('',*,*,#952,.F.);
#952 = EDGE_CURVE('',#426,#850,#953,.T.);
#953 = ( BOUNDED_CURVE() B_SPLINE_CURVE(2,(#954,#955,#956),
.UNSPECIFIED.,.F.,.F.) B_SPLINE_CURVE_WITH_KNOTS((3,3),(0.,0.36686983407
),.PIECEWISE_BEZIER_KNOTS.) CURVE() GEOMETRIC_REPRESENTATION_ITEM() 
RATIONAL_B_SPLINE_CURVE((1.,0.724568837309,1.)) REPRESENTATION_ITEM('') 
  );
#954 = CARTESIAN_POINT('',(-27.,3.306546357698E-15,6.001250782228));
#955 = CARTESIAN_POINT('',(-27.,-2.331468351713E-15,6.952440513439));
#956 = CARTESIAN_POINT('',(-27.95,-1.276972946255E-14,7.));
#957 = ORIENTED_EDGE('',*,*,#435,.F.);
#958 = ( BOUNDED_SURFACE() B_SPLINE_SURFACE(2,4,(
    (#959,#960,#961,#962,#963)
    ,(#964,#965,#966,#967,#968)
    ,(#969,#970,#971,#972,#973
)),.UNSPECIFIED.,.F.,.F.,.F.) B_SPLINE_SURFACE_WITH_KNOTS((3,3),(5,5),(
    0.,0.36686983407),(2.136716263569,2.503586097639),
.PIECEWISE_BEZIER_KNOTS.) GEOMETRIC_REPRESENTATION_ITEM() 
RATIONAL_B_SPLINE_SURFACE((
    (1.,1.,1.,1.,1.)
    ,(0.707106781187,0.716109135165,0.721739727685,0.724568837309
      ,0.724568837309)
,(1.,1.,1.,1.,1.))) REPRESENTATION_ITEM('') SURFACE() );
#959 = CARTESIAN_POINT('',(-26.99750756658,-0.366858545129,6.));
#960 = CARTESIAN_POINT('',(-26.99875376411,-0.275149553265,6.));
#961 = CARTESIAN_POINT('',(-26.99958458804,-0.183434917044,
    6.000850508699));
#962 = CARTESIAN_POINT('',(-27.,-9.171745851754E-02,6.001250782228));
#963 = CARTESIAN_POINT('',(-27.,3.306546357698E-15,6.001250782228));
#964 = CARTESIAN_POINT('',(-26.99750756658,-0.366858545129,7.));
#965 = CARTESIAN_POINT('',(-26.99873809791,-0.276302445705,
    6.974857592127));
#966 = CARTESIAN_POINT('',(-26.99958336667,-0.18412850611,6.959876767993
    ));
#967 = CARTESIAN_POINT('',(-27.,-9.171745851755E-02,6.952440513439));
#968 = CARTESIAN_POINT('',(-27.,-2.331468351713E-15,6.952440513439));
#969 = CARTESIAN_POINT('',(-27.99741525423,-0.380445898652,7.));
#970 = CARTESIAN_POINT('',(-27.97324745555,-0.284994309441,7.));
#971 = CARTESIAN_POINT('',(-27.95776119212,-0.189890241219,7.));
#972 = CARTESIAN_POINT('',(-27.95,-9.494455428018E-02,7.));
#973 = CARTESIAN_POINT('',(-27.95,-1.276972946255E-14,7.));
#974 = ADVANCED_FACE('',(#975),#986,.T.);
#975 = FACE_BOUND('',#976,.T.);
#976 = EDGE_LOOP('',(#977,#978,#979,#985));
#977 = ORIENTED_EDGE('',*,*,#952,.T.);
#978 = ORIENTED_EDGE('',*,*,#867,.T.);
#979 = ORIENTED_EDGE('',*,*,#980,.F.);
#980 = EDGE_CURVE('',#417,#839,#981,.T.);
#981 = ( BOUNDED_CURVE() B_SPLINE_CURVE(2,(#982,#983,#984),
.UNSPECIFIED.,.F.,.F.) B_SPLINE_CURVE_WITH_KNOTS((3,3),(0.,0.36686983407
),.PIECEWISE_BEZIER_KNOTS.) CURVE() GEOMETRIC_REPRESENTATION_ITEM() 
RATIONAL_B_SPLINE_CURVE((1.,0.707106781187,1.)) REPRESENTATION_ITEM('') 
  );
#982 = CARTESIAN_POINT('',(-26.99750756658,0.366858545129,6.));
#983 = CARTESIAN_POINT('',(-26.99750756658,0.366858545129,7.));
#984 = CARTESIAN_POINT('',(-27.99741525423,0.380445898652,7.));
#985 = ORIENTED_EDGE('',*,*,#425,.F.);
#986 = ( BOUNDED_SURFACE() B_SPLINE_SURFACE(2,4,(
    (#987,#988,#989,#990,#991)
    ,(#992,#993,#994,#995,#996)
    ,(#997,#998,#999,#1000,#1001
)),.UNSPECIFIED.,.F.,.F.,.F.) B_SPLINE_SURFACE_WITH_KNOTS((3,3),(5,5),(
    0.,0.36686983407),(2.503586097639,2.870455931709),
.PIECEWISE_BEZIER_KNOTS.) GEOMETRIC_REPRESENTATION_ITEM() 
RATIONAL_B_SPLINE_SURFACE((
    (1.,1.,1.,1.,1.)
    ,(0.724568837309,0.724568837309,0.721739727685,0.716109135165
      ,0.707106781187)
,(1.,1.,1.,1.,1.))) REPRESENTATION_ITEM('') SURFACE() );
#987 = CARTESIAN_POINT('',(-27.,1.529695502365E-14,6.001250782228));
#988 = CARTESIAN_POINT('',(-27.,9.171745851758E-02,6.001250782228));
#989 = CARTESIAN_POINT('',(-26.99958458804,0.183434917044,6.000850508699
    ));
#990 = CARTESIAN_POINT('',(-26.99875376411,0.275149553265,6.));
#991 = CARTESIAN_POINT('',(-26.99750756658,0.366858545129,6.));
#992 = CARTESIAN_POINT('',(-27.,1.021405182655E-14,6.952440513439));
#993 = CARTESIAN_POINT('',(-27.,9.171745851758E-02,6.952440513439));
#994 = CARTESIAN_POINT('',(-26.99958336667,0.18412850611,6.959876767993)
  );
#995 = CARTESIAN_POINT('',(-26.99873809791,0.276302445705,6.974857592127
    ));
#996 = CARTESIAN_POINT('',(-26.99750756658,0.366858545129,7.));
#997 = CARTESIAN_POINT('',(-27.95,0.,7.));
#998 = CARTESIAN_POINT('',(-27.95,9.494455428019E-02,7.));
#999 = CARTESIAN_POINT('',(-27.95776119212,0.189890241219,7.));
#1000 = CARTESIAN_POINT('',(-27.97324745555,0.284994309442,7.));
#1001 = CARTESIAN_POINT('',(-27.99741525423,0.380445898652,7.));
#1002 = ADVANCED_FACE('',(#1003),#1015,.F.);
#1003 = FACE_BOUND('',#1004,.F.);
#1004 = EDGE_LOOP('',(#1005,#1006,#1007,#1008));
#1005 = ORIENTED_EDGE('',*,*,#980,.F.);
#1006 = ORIENTED_EDGE('',*,*,#416,.T.);
#1007 = ORIENTED_EDGE('',*,*,#780,.T.);
#1008 = ORIENTED_EDGE('',*,*,#1009,.F.);
#1009 = EDGE_CURVE('',#839,#769,#1010,.T.);
#1010 = CIRCLE('',#1011,28.);
#1011 = AXIS2_PLACEMENT_3D('',#1012,#1013,#1014);
#1012 = CARTESIAN_POINT('',(0.,0.,7.));
#1013 = DIRECTION('',(-0.,0.,-1.));
#1014 = DIRECTION('',(-0.995704078427,-9.259259259259E-02,0.));
#1015 = TOROIDAL_SURFACE('',#1016,28.,1.);
#1016 = AXIS2_PLACEMENT_3D('',#1017,#1018,#1019);
#1017 = CARTESIAN_POINT('',(0.,0.,6.));
#1018 = DIRECTION('',(-0.,-0.,-1.));
#1019 = DIRECTION('',(-0.995704078427,-9.259259259259E-02,0.));
#1020 = ADVANCED_FACE('',(#1021),#1031,.F.);
#1021 = FACE_BOUND('',#1022,.F.);
#1022 = EDGE_LOOP('',(#1023,#1024,#1025,#1026,#1027,#1028,#1029,#1030));
#1023 = ORIENTED_EDGE('',*,*,#642,.T.);
#1024 = ORIENTED_EDGE('',*,*,#935,.T.);
#1025 = ORIENTED_EDGE('',*,*,#838,.F.);
#1026 = ORIENTED_EDGE('',*,*,#1009,.T.);
#1027 = ORIENTED_EDGE('',*,*,#768,.T.);
#1028 = ORIENTED_EDGE('',*,*,#745,.T.);
#1029 = ORIENTED_EDGE('',*,*,#728,.T.);
#1030 = ORIENTED_EDGE('',*,*,#703,.F.);
#1031 = PLANE('',#1032);
#1032 = AXIS2_PLACEMENT_3D('',#1033,#1034,#1035);
#1033 = CARTESIAN_POINT('',(3.432127453196E-16,-2.96559522347E-17,7.));
#1034 = DIRECTION('',(0.,0.,1.));
#1035 = DIRECTION('',(1.,0.,0.));
#1036 = ADVANCED_FACE('',(#1037,#1040),#1051,.T.);
#1037 = FACE_BOUND('',#1038,.T.);
#1038 = EDGE_LOOP('',(#1039));
#1039 = ORIENTED_EDGE('',*,*,#823,.T.);
#1040 = FACE_BOUND('',#1041,.T.);
#1041 = EDGE_LOOP('',(#1042));
#1042 = ORIENTED_EDGE('',*,*,#1043,.F.);
#1043 = EDGE_CURVE('',#1044,#1044,#1046,.T.);
#1044 = VERTEX_POINT('',#1045);
#1045 = CARTESIAN_POINT('',(13.5,0.,2.));
#1046 = CIRCLE('',#1047,13.5);
#1047 = AXIS2_PLACEMENT_3D('',#1048,#1049,#1050);
#1048 = CARTESIAN_POINT('',(0.,0.,2.));
#1049 = DIRECTION('',(0.,0.,1.));
#1050 = DIRECTION('',(1.,0.,0.));
#1051 = PLANE('',#1052);
#1052 = AXIS2_PLACEMENT_3D('',#1053,#1054,#1055);
#1053 = CARTESIAN_POINT('',(-2.160893048951E-15,-7.347880794884E-16,2.)
  );
#1054 = DIRECTION('',(0.,0.,1.));
#1055 = DIRECTION('',(1.,0.,0.));
#1056 = ADVANCED_FACE('',(#1057),#1068,.F.);
#1057 = FACE_BOUND('',#1058,.T.);
#1058 = EDGE_LOOP('',(#1059,#1065,#1066,#1067));
#1059 = ORIENTED_EDGE('',*,*,#1060,.T.);
#1060 = EDGE_CURVE('',#887,#1044,#1061,.T.);
#1061 = LINE('',#1062,#1063);
#1062 = CARTESIAN_POINT('',(13.5,0.,0.));
#1063 = VECTOR('',#1064,1.);
#1064 = DIRECTION('',(0.,0.,1.));
#1065 = ORIENTED_EDGE('',*,*,#1043,.T.);
#1066 = ORIENTED_EDGE('',*,*,#1060,.F.);
#1067 = ORIENTED_EDGE('',*,*,#886,.F.);
#1068 = CYLINDRICAL_SURFACE('',#1069,13.5);
#1069 = AXIS2_PLACEMENT_3D('',#1070,#1071,#1072);
#1070 = CARTESIAN_POINT('',(0.,0.,0.));
#1071 = DIRECTION('',(-0.,-0.,-1.));
#1072 = DIRECTION('',(1.,0.,0.));
#1073 = ( GEOMETRIC_REPRESENTATION_CONTEXT(3) 
GLOBAL_UNCERTAINTY_ASSIGNED_CONTEXT((#1077)) 
GLOBAL_UNIT_ASSIGNED_CONTEXT((#1074,#1075,#1076)) REPRESENTATION_CONTEXT
('Context #1','3D Context with UNIT and UNCERTAINTY') );
#1074 = ( LENGTH_UNIT() NAMED_UNIT(*) SI_UNIT(.MILLI.,.METRE.) );
#1075 = ( NAMED_UNIT(*) PLANE_ANGLE_UNIT() SI_UNIT($,.RADIAN.) );
#1076 = ( NAMED_UNIT(*) SI_UNIT($,.STERADIAN.) SOLID_ANGLE_UNIT() );
#1077 = UNCERTAINTY_MEASURE_WITH_UNIT(LENGTH_MEASURE(1.E-05),#1074,
  'distance_accuracy_value','confusion accuracy');
#1078 = PRODUCT_RELATED_PRODUCT_CATEGORY('detail',$,(#7));
#1079 = PRODUCT_CATEGORY_RELATIONSHIP('','',#1080,#1078);
#1080 = PRODUCT_CATEGORY('part',$);
#1081 = CC_DESIGN_PERSON_AND_ORGANIZATION_ASSIGNMENT(#1082,#1085,(#6,#5)
  );
#1082 = PERSON_AND_ORGANIZATION(#1083,#1084);
#1083 = PERSON('IP169.254.190,karol','','karol',$,$,$);
#1084 = ORGANIZATION('IP169.254.190','Unspecified','');
#1085 = PERSON_AND_ORGANIZATION_ROLE('creator');
#1086 = CC_DESIGN_PERSON_AND_ORGANIZATION_ASSIGNMENT(#1082,#1087,(#7));
#1087 = PERSON_AND_ORGANIZATION_ROLE('design_owner');
#1088 = CC_DESIGN_PERSON_AND_ORGANIZATION_ASSIGNMENT(#1082,#1089,(#6));
#1089 = PERSON_AND_ORGANIZATION_ROLE('design_supplier');
#1090 = CC_DESIGN_PERSON_AND_ORGANIZATION_ASSIGNMENT(#1082,#1091,(#1092)
  );
#1091 = PERSON_AND_ORGANIZATION_ROLE('classification_officer');
#1092 = SECURITY_CLASSIFICATION('','',#1093);
#1093 = SECURITY_CLASSIFICATION_LEVEL('unclassified');
#1094 = CC_DESIGN_SECURITY_CLASSIFICATION(#1092,(#6));
#1095 = CC_DESIGN_DATE_AND_TIME_ASSIGNMENT(#1096,#1100,(#5));
#1096 = DATE_AND_TIME(#1097,#1098);
#1097 = CALENDAR_DATE(2026,27,3);
#1098 = LOCAL_TIME(21,15,$,#1099);
#1099 = COORDINATED_UNIVERSAL_TIME_OFFSET(1,$,.AHEAD.);
#1100 = DATE_TIME_ROLE('creation_date');
#1101 = CC_DESIGN_DATE_AND_TIME_ASSIGNMENT(#1096,#1102,(#1092));
#1102 = DATE_TIME_ROLE('classification_date');
#1103 = CC_DESIGN_APPROVAL(#1104,(#6,#5,#1092));
#1104 = APPROVAL(#1105,'');
#1105 = APPROVAL_STATUS('not_yet_approved');
#1106 = APPROVAL_PERSON_ORGANIZATION(#1082,#1104,#1107);
#1107 = APPROVAL_ROLE('approver');
#1108 = APPROVAL_DATE_TIME(#1096,#1104);
#1109 = MECHANICAL_DESIGN_GEOMETRIC_PRESENTATION_REPRESENTATION('',(
    #1110),#1073);
#1110 = STYLED_ITEM('color',(#1111),#15);
#1111 = PRESENTATION_STYLE_ASSIGNMENT((#1112,#1118));
#1112 = SURFACE_STYLE_USAGE(.BOTH.,#1113);
#1113 = SURFACE_SIDE_STYLE('',(#1114));
#1114 = SURFACE_STYLE_FILL_AREA(#1115);
#1115 = FILL_AREA_STYLE('',(#1116));
#1116 = FILL_AREA_STYLE_COLOUR('',#1117);
#1117 = COLOUR_RGB('',0.447059003357,0.474510015008,0.501960993452);
#1118 = CURVE_STYLE('',#1119,POSITIVE_LENGTH_MEASURE(0.1),#1120);
#1119 = DRAUGHTING_PRE_DEFINED_CURVE_FONT('continuous');
#1120 = COLOUR_RGB('',9.803921802644E-02,9.803921802644E-02,
  9.803921802644E-02);
ENDSEC;
END-ISO-10303-21;
