ISO-10303-21;
HEADER;
FILE_DESCRIPTION(('FreeCAD Model'),'2;1');
FILE_NAME('Open CASCADE Shape Model','2026-05-10T14:08:13',(''),(''),
  'Open CASCADE STEP processor 7.8','FreeCAD','Unknown');
FILE_SCHEMA(('CONFIG_CONTROL_DESIGN','SHAPE_APPEARANCE_LAYER_MIM'));
ENDSEC;
DATA;
#1 = APPLICATION_PROTOCOL_DEFINITION('international standard',
  'config_control_design',1994,#2);
#2 = APPLICATION_CONTEXT(
'configuration controlled 3D designs of mechanical parts and assemblies'
  );
#3 = SHAPE_DEFINITION_REPRESENTATION(#4,#10);
#4 = PRODUCT_DEFINITION_SHAPE('','',#5);
#5 = PRODUCT_DEFINITION('design','',#6,#9);
#6 = PRODUCT_DEFINITION_FORMATION_WITH_SPECIFIED_SOURCE('','',#7,
  .NOT_KNOWN.);
#7 = PRODUCT('Zawartość','Zawartość','',(#8));
#8 = MECHANICAL_CONTEXT('',#2,'mechanical');
#9 = DESIGN_CONTEXT('',#2,'design');
#10 = ADVANCED_BREP_SHAPE_REPRESENTATION('',(#11,#15),#2068);
#11 = AXIS2_PLACEMENT_3D('',#12,#13,#14);
#12 = CARTESIAN_POINT('',(0.,0.,0.));
#13 = DIRECTION('',(0.,0.,1.));
#14 = DIRECTION('',(1.,0.,-0.));
#15 = MANIFOLD_SOLID_BREP('',#16);
#16 = CLOSED_SHELL('',(#17,#123,#464,#489,#558,#583,#639,#656,#762,#927,
    #952,#977,#994,#1018,#1043,#1067,#1092,#1136,#1153,#1178,#1202,#1227
    ,#1251,#1269,#1294,#1312,#1336,#1354,#1372,#1390,#1408,#1426,#1444,
    #1462,#1480,#1490,#1515,#1540,#1557,#1569,#1586,#1611,#1636,#1653,
    #1678,#1703,#1720,#1744,#1769,#1793,#1818,#1835,#1859,#1883,#1908,
    #1933,#1950,#1975,#2000,#2017,#2034,#2051));
#17 = ADVANCED_FACE('',(#18),#118,.F.);
#18 = FACE_BOUND('',#19,.F.);
#19 = EDGE_LOOP('',(#20,#30,#38,#48,#56,#64,#72,#80,#88,#96,#104,#112));
#20 = ORIENTED_EDGE('',*,*,#21,.T.);
#21 = EDGE_CURVE('',#22,#24,#26,.T.);
#22 = VERTEX_POINT('',#23);
#23 = CARTESIAN_POINT('',(-276.9999978143,24.999987614584,20.));
#24 = VERTEX_POINT('',#25);
#25 = CARTESIAN_POINT('',(-280.,24.99998542892,20.));
#26 = LINE('',#27,#28);
#27 = CARTESIAN_POINT('',(-240.,25.00001457108,20.));
#28 = VECTOR('',#29,1.);
#29 = DIRECTION('',(-1.,-7.2855400024E-07,0.));
#30 = ORIENTED_EDGE('',*,*,#31,.F.);
#31 = EDGE_CURVE('',#32,#24,#34,.T.);
#32 = VERTEX_POINT('',#33);
#33 = CARTESIAN_POINT('',(-280.,24.99998542892,4.55662401371));
#34 = LINE('',#35,#36);
#35 = CARTESIAN_POINT('',(-280.,24.99998542892,0.));
#36 = VECTOR('',#37,1.);
#37 = DIRECTION('',(0.,0.,1.));
#38 = ORIENTED_EDGE('',*,*,#39,.F.);
#39 = EDGE_CURVE('',#40,#32,#42,.T.);
#40 = VERTEX_POINT('',#41);
#41 = CARTESIAN_POINT('',(-240.,25.00001457108,4.556645404216));
#42 = B_SPLINE_CURVE_WITH_KNOTS('',2,(#43,#44,#45,#46,#47),
  .UNSPECIFIED.,.F.,.F.,(3,1,1,3),(-2.447998070709,1.487283104949E-06,
    40.000001487298,42.448001487298),.UNSPECIFIED.);
#43 = CARTESIAN_POINT('',(-237.5520014872,25.000016354579,4.556646713316
    ));
#44 = CARTESIAN_POINT('',(-238.7760017082,25.000015462829,4.556646058765
    ));
#45 = CARTESIAN_POINT('',(-260.0000014872,24.999999999999,4.556634708946
    ));
#46 = CARTESIAN_POINT('',(-281.2240014872,24.999984537169,4.556623359161
    ));
#47 = CARTESIAN_POINT('',(-282.4480014872,24.999983645419,4.556622704612
    ));
#48 = ORIENTED_EDGE('',*,*,#49,.T.);
#49 = EDGE_CURVE('',#40,#50,#52,.T.);
#50 = VERTEX_POINT('',#51);
#51 = CARTESIAN_POINT('',(-240.,25.00001457108,20.));
#52 = LINE('',#53,#54);
#53 = CARTESIAN_POINT('',(-240.,25.00001457108,0.));
#54 = VECTOR('',#55,1.);
#55 = DIRECTION('',(0.,0.,1.));
#56 = ORIENTED_EDGE('',*,*,#57,.T.);
#57 = EDGE_CURVE('',#50,#58,#60,.T.);
#58 = VERTEX_POINT('',#59);
#59 = CARTESIAN_POINT('',(-248.7468584526,25.000008198517,20.));
#60 = LINE('',#61,#62);
#61 = CARTESIAN_POINT('',(-240.,25.00001457108,20.));
#62 = VECTOR('',#63,1.);
#63 = DIRECTION('',(-1.,-7.2855400024E-07,0.));
#64 = ORIENTED_EDGE('',*,*,#65,.F.);
#65 = EDGE_CURVE('',#66,#58,#68,.T.);
#66 = VERTEX_POINT('',#67);
#67 = CARTESIAN_POINT('',(-248.7468584526,25.000008198521,5.));
#68 = LINE('',#69,#70);
#69 = CARTESIAN_POINT('',(-248.7468584526,25.000008198521,20.));
#70 = VECTOR('',#71,1.);
#71 = DIRECTION('',(0.,0.,1.));
#72 = ORIENTED_EDGE('',*,*,#73,.T.);
#73 = EDGE_CURVE('',#66,#74,#76,.T.);
#74 = VERTEX_POINT('',#75);
#75 = CARTESIAN_POINT('',(-251.8622832096,25.000005928766,5.));
#76 = LINE('',#77,#78);
#77 = CARTESIAN_POINT('',(-120.0000091069,25.000101997553,5.));
#78 = VECTOR('',#79,1.);
#79 = DIRECTION('',(-1.,-7.2855400024E-07,0.));
#80 = ORIENTED_EDGE('',*,*,#81,.T.);
#81 = EDGE_CURVE('',#74,#82,#84,.T.);
#82 = VERTEX_POINT('',#83);
#83 = CARTESIAN_POINT('',(-251.8622832096,25.000005928763,20.));
#84 = LINE('',#85,#86);
#85 = CARTESIAN_POINT('',(-251.8622832096,25.000005928766,20.));
#86 = VECTOR('',#87,1.);
#87 = DIRECTION('',(0.,0.,1.));
#88 = ORIENTED_EDGE('',*,*,#89,.T.);
#89 = EDGE_CURVE('',#82,#90,#92,.T.);
#90 = VERTEX_POINT('',#91);
#91 = CARTESIAN_POINT('',(-255.9999978143,25.000002914218,20.));
#92 = LINE('',#93,#94);
#93 = CARTESIAN_POINT('',(-240.,25.00001457108,20.));
#94 = VECTOR('',#95,1.);
#95 = DIRECTION('',(-1.,-7.2855400024E-07,0.));
#96 = ORIENTED_EDGE('',*,*,#97,.F.);
#97 = EDGE_CURVE('',#98,#90,#100,.T.);
#98 = VERTEX_POINT('',#99);
#99 = CARTESIAN_POINT('',(-255.9999978143,25.000002914218,12.));
#100 = LINE('',#101,#102);
#101 = CARTESIAN_POINT('',(-255.9999978143,25.000002914218,15.));
#102 = VECTOR('',#103,1.);
#103 = DIRECTION('',(0.,0.,1.));
#104 = ORIENTED_EDGE('',*,*,#105,.T.);
#105 = EDGE_CURVE('',#98,#106,#108,.T.);
#106 = VERTEX_POINT('',#107);
#107 = CARTESIAN_POINT('',(-276.9999978143,24.999987614584,12.));
#108 = LINE('',#109,#110);
#109 = CARTESIAN_POINT('',(-259.,25.000000728554,12.));
#110 = VECTOR('',#111,1.);
#111 = DIRECTION('',(-1.,-7.2855400024E-07,0.));
#112 = ORIENTED_EDGE('',*,*,#113,.F.);
#113 = EDGE_CURVE('',#22,#106,#114,.T.);
#114 = LINE('',#115,#116);
#115 = CARTESIAN_POINT('',(-276.9999978143,24.999987614584,20.));
#116 = VECTOR('',#117,1.);
#117 = DIRECTION('',(-0.,-0.,-1.));
#118 = PLANE('',#119);
#119 = AXIS2_PLACEMENT_3D('',#120,#121,#122);
#120 = CARTESIAN_POINT('',(-240.,25.00001457108,0.));
#121 = DIRECTION('',(7.2855400024E-07,-1.,0.));
#122 = DIRECTION('',(-1.,-7.2855400024E-07,0.));
#123 = ADVANCED_FACE('',(#124,#437,#448),#459,.T.);
#124 = FACE_BOUND('',#125,.T.);
#125 = EDGE_LOOP('',(#126,#136,#145,#153,#162,#170,#177,#178,#186,#194,
    #202,#210,#218,#226,#234,#242,#250,#258,#266,#274,#282,#290,#298,
    #306,#314,#322,#330,#338,#346,#354,#363,#371,#380,#388,#397,#405,
    #414,#422,#429,#430));
#126 = ORIENTED_EDGE('',*,*,#127,.T.);
#127 = EDGE_CURVE('',#128,#130,#132,.T.);
#128 = VERTEX_POINT('',#129);
#129 = CARTESIAN_POINT('',(-259.,28.000002914217,20.));
#130 = VERTEX_POINT('',#131);
#131 = CARTESIAN_POINT('',(-259.,35.,20.));
#132 = LINE('',#133,#134);
#133 = CARTESIAN_POINT('',(-259.,24.,20.));
#134 = VECTOR('',#135,1.);
#135 = DIRECTION('',(0.,1.,0.));
#136 = ORIENTED_EDGE('',*,*,#137,.T.);
#137 = EDGE_CURVE('',#130,#138,#140,.T.);
#138 = VERTEX_POINT('',#139);
#139 = CARTESIAN_POINT('',(-264.,40.,20.));
#140 = CIRCLE('',#141,5.);
#141 = AXIS2_PLACEMENT_3D('',#142,#143,#144);
#142 = CARTESIAN_POINT('',(-264.,35.,20.));
#143 = DIRECTION('',(0.,-0.,1.));
#144 = DIRECTION('',(0.,1.,0.));
#145 = ORIENTED_EDGE('',*,*,#146,.T.);
#146 = EDGE_CURVE('',#138,#147,#149,.T.);
#147 = VERTEX_POINT('',#148);
#148 = CARTESIAN_POINT('',(-269.,40.,20.));
#149 = LINE('',#150,#151);
#150 = CARTESIAN_POINT('',(-259.,40.,20.));
#151 = VECTOR('',#152,1.);
#152 = DIRECTION('',(-1.,0.,0.));
#153 = ORIENTED_EDGE('',*,*,#154,.F.);
#154 = EDGE_CURVE('',#155,#147,#157,.T.);
#155 = VERTEX_POINT('',#156);
#156 = CARTESIAN_POINT('',(-274.,35.,20.));
#157 = CIRCLE('',#158,5.);
#158 = AXIS2_PLACEMENT_3D('',#159,#160,#161);
#159 = CARTESIAN_POINT('',(-269.,35.,20.));
#160 = DIRECTION('',(0.,0.,-1.));
#161 = DIRECTION('',(0.,1.,0.));
#162 = ORIENTED_EDGE('',*,*,#163,.T.);
#163 = EDGE_CURVE('',#155,#164,#166,.T.);
#164 = VERTEX_POINT('',#165);
#165 = CARTESIAN_POINT('',(-274.,27.999987614583,20.));
#166 = LINE('',#167,#168);
#167 = CARTESIAN_POINT('',(-274.,40.,20.));
#168 = VECTOR('',#169,1.);
#169 = DIRECTION('',(0.,-1.,0.));
#170 = ORIENTED_EDGE('',*,*,#171,.F.);
#171 = EDGE_CURVE('',#22,#164,#172,.T.);
#172 = CIRCLE('',#173,3.);
#173 = AXIS2_PLACEMENT_3D('',#174,#175,#176);
#174 = CARTESIAN_POINT('',(-277.,27.999987614583,20.));
#175 = DIRECTION('',(0.,-0.,1.));
#176 = DIRECTION('',(0.,1.,0.));
#177 = ORIENTED_EDGE('',*,*,#21,.T.);
#178 = ORIENTED_EDGE('',*,*,#179,.T.);
#179 = EDGE_CURVE('',#24,#180,#182,.T.);
#180 = VERTEX_POINT('',#181);
#181 = CARTESIAN_POINT('',(-280.,8.5,20.));
#182 = LINE('',#183,#184);
#183 = CARTESIAN_POINT('',(-280.,24.99998542892,20.));
#184 = VECTOR('',#185,1.);
#185 = DIRECTION('',(0.,-1.,0.));
#186 = ORIENTED_EDGE('',*,*,#187,.F.);
#187 = EDGE_CURVE('',#188,#180,#190,.T.);
#188 = VERTEX_POINT('',#189);
#189 = CARTESIAN_POINT('',(-272.,8.5,20.));
#190 = LINE('',#191,#192);
#191 = CARTESIAN_POINT('',(-280.,8.5,20.));
#192 = VECTOR('',#193,1.);
#193 = DIRECTION('',(-1.,0.,0.));
#194 = ORIENTED_EDGE('',*,*,#195,.T.);
#195 = EDGE_CURVE('',#188,#196,#198,.T.);
#196 = VERTEX_POINT('',#197);
#197 = CARTESIAN_POINT('',(-272.,11.,20.));
#198 = LINE('',#199,#200);
#199 = CARTESIAN_POINT('',(-272.,3.720496456298E-07,20.));
#200 = VECTOR('',#201,1.);
#201 = DIRECTION('',(0.,1.,0.));
#202 = ORIENTED_EDGE('',*,*,#203,.F.);
#203 = EDGE_CURVE('',#204,#196,#206,.T.);
#204 = VERTEX_POINT('',#205);
#205 = CARTESIAN_POINT('',(-271.,11.,20.));
#206 = LINE('',#207,#208);
#207 = CARTESIAN_POINT('',(-261.,11.,20.));
#208 = VECTOR('',#209,1.);
#209 = DIRECTION('',(-1.,-1.110223024625E-16,1.110223024625E-16));
#210 = ORIENTED_EDGE('',*,*,#211,.T.);
#211 = EDGE_CURVE('',#204,#212,#214,.T.);
#212 = VERTEX_POINT('',#213);
#213 = CARTESIAN_POINT('',(-271.,16.05,20.));
#214 = LINE('',#215,#216);
#215 = CARTESIAN_POINT('',(-271.,3.6427713287E-06,20.));
#216 = VECTOR('',#217,1.);
#217 = DIRECTION('',(0.,1.,0.));
#218 = ORIENTED_EDGE('',*,*,#219,.T.);
#219 = EDGE_CURVE('',#212,#220,#222,.T.);
#220 = VERTEX_POINT('',#221);
#221 = CARTESIAN_POINT('',(-262.,16.05,20.));
#222 = LINE('',#223,#224);
#223 = CARTESIAN_POINT('',(-262.,16.05,20.));
#224 = VECTOR('',#225,1.);
#225 = DIRECTION('',(1.,0.,0.));
#226 = ORIENTED_EDGE('',*,*,#227,.F.);
#227 = EDGE_CURVE('',#228,#220,#230,.T.);
#228 = VERTEX_POINT('',#229);
#229 = CARTESIAN_POINT('',(-262.,11.,20.));
#230 = LINE('',#231,#232);
#231 = CARTESIAN_POINT('',(-262.,3.6427713287E-06,20.));
#232 = VECTOR('',#233,1.);
#233 = DIRECTION('',(0.,1.,0.));
#234 = ORIENTED_EDGE('',*,*,#235,.F.);
#235 = EDGE_CURVE('',#236,#228,#238,.T.);
#236 = VERTEX_POINT('',#237);
#237 = CARTESIAN_POINT('',(-261.,11.,20.));
#238 = LINE('',#239,#240);
#239 = CARTESIAN_POINT('',(-261.,11.,20.));
#240 = VECTOR('',#241,1.);
#241 = DIRECTION('',(-1.,-1.110223024625E-16,1.110223024625E-16));
#242 = ORIENTED_EDGE('',*,*,#243,.F.);
#243 = EDGE_CURVE('',#244,#236,#246,.T.);
#244 = VERTEX_POINT('',#245);
#245 = CARTESIAN_POINT('',(-261.,8.5,20.));
#246 = LINE('',#247,#248);
#247 = CARTESIAN_POINT('',(-261.,3.720496462404E-07,20.));
#248 = VECTOR('',#249,1.);
#249 = DIRECTION('',(0.,1.,0.));
#250 = ORIENTED_EDGE('',*,*,#251,.F.);
#251 = EDGE_CURVE('',#252,#244,#254,.T.);
#252 = VERTEX_POINT('',#253);
#253 = CARTESIAN_POINT('',(-259.,8.5,20.));
#254 = LINE('',#255,#256);
#255 = CARTESIAN_POINT('',(-280.,8.5,20.));
#256 = VECTOR('',#257,1.);
#257 = DIRECTION('',(-1.,0.,0.));
#258 = ORIENTED_EDGE('',*,*,#259,.F.);
#259 = EDGE_CURVE('',#260,#252,#262,.T.);
#260 = VERTEX_POINT('',#261);
#261 = CARTESIAN_POINT('',(-259.,-8.5,20.));
#262 = LINE('',#263,#264);
#263 = CARTESIAN_POINT('',(-259.,3.642771328498E-06,20.));
#264 = VECTOR('',#265,1.);
#265 = DIRECTION('',(0.,1.,0.));
#266 = ORIENTED_EDGE('',*,*,#267,.F.);
#267 = EDGE_CURVE('',#268,#260,#270,.T.);
#268 = VERTEX_POINT('',#269);
#269 = CARTESIAN_POINT('',(-261.,-8.5,20.));
#270 = LINE('',#271,#272);
#271 = CARTESIAN_POINT('',(-280.,-8.5,20.));
#272 = VECTOR('',#273,1.);
#273 = DIRECTION('',(1.,0.,0.));
#274 = ORIENTED_EDGE('',*,*,#275,.F.);
#275 = EDGE_CURVE('',#276,#268,#278,.T.);
#276 = VERTEX_POINT('',#277);
#277 = CARTESIAN_POINT('',(-261.,-11.,20.));
#278 = LINE('',#279,#280);
#279 = CARTESIAN_POINT('',(-261.,3.720496462404E-07,20.));
#280 = VECTOR('',#281,1.);
#281 = DIRECTION('',(0.,1.,0.));
#282 = ORIENTED_EDGE('',*,*,#283,.F.);
#283 = EDGE_CURVE('',#284,#276,#286,.T.);
#284 = VERTEX_POINT('',#285);
#285 = CARTESIAN_POINT('',(-262.,-11.,20.));
#286 = LINE('',#287,#288);
#287 = CARTESIAN_POINT('',(-261.,-11.,20.));
#288 = VECTOR('',#289,1.);
#289 = DIRECTION('',(1.,4.440892098501E-16,-2.22044604925E-16));
#290 = ORIENTED_EDGE('',*,*,#291,.F.);
#291 = EDGE_CURVE('',#292,#284,#294,.T.);
#292 = VERTEX_POINT('',#293);
#293 = CARTESIAN_POINT('',(-262.,-16.05,20.));
#294 = LINE('',#295,#296);
#295 = CARTESIAN_POINT('',(-262.,3.6427713287E-06,20.));
#296 = VECTOR('',#297,1.);
#297 = DIRECTION('',(0.,1.,0.));
#298 = ORIENTED_EDGE('',*,*,#299,.T.);
#299 = EDGE_CURVE('',#292,#300,#302,.T.);
#300 = VERTEX_POINT('',#301);
#301 = CARTESIAN_POINT('',(-271.,-16.05,20.));
#302 = LINE('',#303,#304);
#303 = CARTESIAN_POINT('',(-262.,-16.05,20.));
#304 = VECTOR('',#305,1.);
#305 = DIRECTION('',(-1.,-0.,-0.));
#306 = ORIENTED_EDGE('',*,*,#307,.T.);
#307 = EDGE_CURVE('',#300,#308,#310,.T.);
#308 = VERTEX_POINT('',#309);
#309 = CARTESIAN_POINT('',(-271.,-11.,20.));
#310 = LINE('',#311,#312);
#311 = CARTESIAN_POINT('',(-271.,3.6427713287E-06,20.));
#312 = VECTOR('',#313,1.);
#313 = DIRECTION('',(0.,1.,0.));
#314 = ORIENTED_EDGE('',*,*,#315,.F.);
#315 = EDGE_CURVE('',#316,#308,#318,.T.);
#316 = VERTEX_POINT('',#317);
#317 = CARTESIAN_POINT('',(-272.,-11.,20.));
#318 = LINE('',#319,#320);
#319 = CARTESIAN_POINT('',(-261.,-11.,20.));
#320 = VECTOR('',#321,1.);
#321 = DIRECTION('',(1.,4.440892098501E-16,-2.22044604925E-16));
#322 = ORIENTED_EDGE('',*,*,#323,.T.);
#323 = EDGE_CURVE('',#316,#324,#326,.T.);
#324 = VERTEX_POINT('',#325);
#325 = CARTESIAN_POINT('',(-272.,-8.5,20.));
#326 = LINE('',#327,#328);
#327 = CARTESIAN_POINT('',(-272.,3.720496456298E-07,20.));
#328 = VECTOR('',#329,1.);
#329 = DIRECTION('',(0.,1.,0.));
#330 = ORIENTED_EDGE('',*,*,#331,.F.);
#331 = EDGE_CURVE('',#332,#324,#334,.T.);
#332 = VERTEX_POINT('',#333);
#333 = CARTESIAN_POINT('',(-280.,-8.5,20.));
#334 = LINE('',#335,#336);
#335 = CARTESIAN_POINT('',(-280.,-8.5,20.));
#336 = VECTOR('',#337,1.);
#337 = DIRECTION('',(1.,0.,0.));
#338 = ORIENTED_EDGE('',*,*,#339,.T.);
#339 = EDGE_CURVE('',#332,#340,#342,.T.);
#340 = VERTEX_POINT('',#341);
#341 = CARTESIAN_POINT('',(-280.,-24.99998542892,20.));
#342 = LINE('',#343,#344);
#343 = CARTESIAN_POINT('',(-280.,24.99998542892,20.));
#344 = VECTOR('',#345,1.);
#345 = DIRECTION('',(0.,-1.,0.));
#346 = ORIENTED_EDGE('',*,*,#347,.T.);
#347 = EDGE_CURVE('',#340,#348,#350,.T.);
#348 = VERTEX_POINT('',#349);
#349 = CARTESIAN_POINT('',(-277.,-24.99998542892,20.));
#350 = LINE('',#351,#352);
#351 = CARTESIAN_POINT('',(-280.,-24.99998542892,20.));
#352 = VECTOR('',#353,1.);
#353 = DIRECTION('',(1.,0.,0.));
#354 = ORIENTED_EDGE('',*,*,#355,.T.);
#355 = EDGE_CURVE('',#348,#356,#358,.T.);
#356 = VERTEX_POINT('',#357);
#357 = CARTESIAN_POINT('',(-274.,-27.99998542892,20.));
#358 = CIRCLE('',#359,3.);
#359 = AXIS2_PLACEMENT_3D('',#360,#361,#362);
#360 = CARTESIAN_POINT('',(-277.,-27.99998542892,20.));
#361 = DIRECTION('',(0.,0.,-1.));
#362 = DIRECTION('',(0.,1.,0.));
#363 = ORIENTED_EDGE('',*,*,#364,.F.);
#364 = EDGE_CURVE('',#365,#356,#367,.T.);
#365 = VERTEX_POINT('',#366);
#366 = CARTESIAN_POINT('',(-274.,-35.,20.));
#367 = LINE('',#368,#369);
#368 = CARTESIAN_POINT('',(-274.,-40.,20.));
#369 = VECTOR('',#370,1.);
#370 = DIRECTION('',(0.,1.,0.));
#371 = ORIENTED_EDGE('',*,*,#372,.F.);
#372 = EDGE_CURVE('',#373,#365,#375,.T.);
#373 = VERTEX_POINT('',#374);
#374 = CARTESIAN_POINT('',(-269.,-40.,20.));
#375 = CIRCLE('',#376,5.);
#376 = AXIS2_PLACEMENT_3D('',#377,#378,#379);
#377 = CARTESIAN_POINT('',(-269.,-35.,20.));
#378 = DIRECTION('',(0.,0.,-1.));
#379 = DIRECTION('',(0.,1.,0.));
#380 = ORIENTED_EDGE('',*,*,#381,.F.);
#381 = EDGE_CURVE('',#382,#373,#384,.T.);
#382 = VERTEX_POINT('',#383);
#383 = CARTESIAN_POINT('',(-264.,-40.,20.));
#384 = LINE('',#385,#386);
#385 = CARTESIAN_POINT('',(-259.,-40.,20.));
#386 = VECTOR('',#387,1.);
#387 = DIRECTION('',(-1.,0.,0.));
#388 = ORIENTED_EDGE('',*,*,#389,.F.);
#389 = EDGE_CURVE('',#390,#382,#392,.T.);
#390 = VERTEX_POINT('',#391);
#391 = CARTESIAN_POINT('',(-259.,-35.,20.));
#392 = CIRCLE('',#393,5.);
#393 = AXIS2_PLACEMENT_3D('',#394,#395,#396);
#394 = CARTESIAN_POINT('',(-264.,-35.,20.));
#395 = DIRECTION('',(0.,0.,-1.));
#396 = DIRECTION('',(0.,1.,0.));
#397 = ORIENTED_EDGE('',*,*,#398,.F.);
#398 = EDGE_CURVE('',#399,#390,#401,.T.);
#399 = VERTEX_POINT('',#400);
#400 = CARTESIAN_POINT('',(-259.,-27.99998542892,20.));
#401 = LINE('',#402,#403);
#402 = CARTESIAN_POINT('',(-259.,-24.,20.));
#403 = VECTOR('',#404,1.);
#404 = DIRECTION('',(0.,-1.,0.));
#405 = ORIENTED_EDGE('',*,*,#406,.F.);
#406 = EDGE_CURVE('',#407,#399,#409,.T.);
#407 = VERTEX_POINT('',#408);
#408 = CARTESIAN_POINT('',(-256.,-24.99998542892,20.));
#409 = CIRCLE('',#410,3.);
#410 = AXIS2_PLACEMENT_3D('',#411,#412,#413);
#411 = CARTESIAN_POINT('',(-256.,-27.99998542892,20.));
#412 = DIRECTION('',(-0.,0.,1.));
#413 = DIRECTION('',(0.,-1.,0.));
#414 = ORIENTED_EDGE('',*,*,#415,.T.);
#415 = EDGE_CURVE('',#407,#416,#418,.T.);
#416 = VERTEX_POINT('',#417);
#417 = CARTESIAN_POINT('',(-251.8622852444,-24.99998542892,20.));
#418 = LINE('',#419,#420);
#419 = CARTESIAN_POINT('',(-280.,-24.99998542892,20.));
#420 = VECTOR('',#421,1.);
#421 = DIRECTION('',(1.,0.,0.));
#422 = ORIENTED_EDGE('',*,*,#423,.F.);
#423 = EDGE_CURVE('',#82,#416,#424,.T.);
#424 = CIRCLE('',#425,253.1);
#425 = AXIS2_PLACEMENT_3D('',#426,#427,#428);
#426 = CARTESIAN_POINT('',(0.,0.,20.));
#427 = DIRECTION('',(0.,0.,1.));
#428 = DIRECTION('',(1.,0.,0.));
#429 = ORIENTED_EDGE('',*,*,#89,.T.);
#430 = ORIENTED_EDGE('',*,*,#431,.T.);
#431 = EDGE_CURVE('',#90,#128,#432,.T.);
#432 = CIRCLE('',#433,3.);
#433 = AXIS2_PLACEMENT_3D('',#434,#435,#436);
#434 = CARTESIAN_POINT('',(-256.,28.000002914217,20.));
#435 = DIRECTION('',(-0.,-0.,-1.));
#436 = DIRECTION('',(0.,-1.,0.));
#437 = FACE_BOUND('',#438,.T.);
#438 = EDGE_LOOP('',(#439));
#439 = ORIENTED_EDGE('',*,*,#440,.T.);
#440 = EDGE_CURVE('',#441,#441,#443,.T.);
#441 = VERTEX_POINT('',#442);
#442 = CARTESIAN_POINT('',(-263.95,-32.5,20.));
#443 = CIRCLE('',#444,2.55);
#444 = AXIS2_PLACEMENT_3D('',#445,#446,#447);
#445 = CARTESIAN_POINT('',(-266.5,-32.5,20.));
#446 = DIRECTION('',(0.,0.,-1.));
#447 = DIRECTION('',(1.,0.,0.));
#448 = FACE_BOUND('',#449,.T.);
#449 = EDGE_LOOP('',(#450));
#450 = ORIENTED_EDGE('',*,*,#451,.T.);
#451 = EDGE_CURVE('',#452,#452,#454,.T.);
#452 = VERTEX_POINT('',#453);
#453 = CARTESIAN_POINT('',(-263.95,32.5,20.));
#454 = CIRCLE('',#455,2.55);
#455 = AXIS2_PLACEMENT_3D('',#456,#457,#458);
#456 = CARTESIAN_POINT('',(-266.5,32.5,20.));
#457 = DIRECTION('',(0.,0.,-1.));
#458 = DIRECTION('',(1.,0.,0.));
#459 = PLANE('',#460);
#460 = AXIS2_PLACEMENT_3D('',#461,#462,#463);
#461 = CARTESIAN_POINT('',(-265.5149361389,7.440992965917E-07,20.));
#462 = DIRECTION('',(0.,0.,1.));
#463 = DIRECTION('',(1.,0.,0.));
#464 = ADVANCED_FACE('',(#465),#484,.F.);
#465 = FACE_BOUND('',#466,.T.);
#466 = EDGE_LOOP('',(#467,#468,#476,#483));
#467 = ORIENTED_EDGE('',*,*,#171,.T.);
#468 = ORIENTED_EDGE('',*,*,#469,.T.);
#469 = EDGE_CURVE('',#164,#470,#472,.T.);
#470 = VERTEX_POINT('',#471);
#471 = CARTESIAN_POINT('',(-274.,27.999987614583,15.));
#472 = LINE('',#473,#474);
#473 = CARTESIAN_POINT('',(-274.,27.999987614583,20.));
#474 = VECTOR('',#475,1.);
#475 = DIRECTION('',(-0.,-0.,-1.));
#476 = ORIENTED_EDGE('',*,*,#477,.F.);
#477 = EDGE_CURVE('',#106,#470,#478,.T.);
#478 = ELLIPSE('',#479,4.242640687119,3.);
#479 = AXIS2_PLACEMENT_3D('',#480,#481,#482);
#480 = CARTESIAN_POINT('',(-277.,27.999987614583,12.));
#481 = DIRECTION('',(-0.707106781186,-5.151654740303E-07,0.707106781187)
  );
#482 = DIRECTION('',(-0.707106781186,-5.151654740303E-07,-0.707106781187
    ));
#483 = ORIENTED_EDGE('',*,*,#113,.F.);
#484 = CYLINDRICAL_SURFACE('',#485,3.);
#485 = AXIS2_PLACEMENT_3D('',#486,#487,#488);
#486 = CARTESIAN_POINT('',(-277.,27.999987614583,20.));
#487 = DIRECTION('',(-0.,-0.,-1.));
#488 = DIRECTION('',(7.2855400024E-07,-1.,0.));
#489 = ADVANCED_FACE('',(#490),#553,.T.);
#490 = FACE_BOUND('',#491,.T.);
#491 = EDGE_LOOP('',(#492,#500,#501,#508,#509,#510,#537,#546));
#492 = ORIENTED_EDGE('',*,*,#493,.T.);
#493 = EDGE_CURVE('',#494,#340,#496,.T.);
#494 = VERTEX_POINT('',#495);
#495 = CARTESIAN_POINT('',(-280.,-24.99998542892,4.556624013709));
#496 = LINE('',#497,#498);
#497 = CARTESIAN_POINT('',(-280.,-24.99998542892,0.));
#498 = VECTOR('',#499,1.);
#499 = DIRECTION('',(0.,0.,1.));
#500 = ORIENTED_EDGE('',*,*,#339,.F.);
#501 = ORIENTED_EDGE('',*,*,#502,.F.);
#502 = EDGE_CURVE('',#180,#332,#503,.T.);
#503 = CIRCLE('',#504,8.5);
#504 = AXIS2_PLACEMENT_3D('',#505,#506,#507);
#505 = CARTESIAN_POINT('',(-280.,0.,20.));
#506 = DIRECTION('',(-1.,0.,0.));
#507 = DIRECTION('',(0.,-1.,0.));
#508 = ORIENTED_EDGE('',*,*,#179,.F.);
#509 = ORIENTED_EDGE('',*,*,#31,.F.);
#510 = ORIENTED_EDGE('',*,*,#511,.T.);
#511 = EDGE_CURVE('',#32,#512,#514,.T.);
#512 = VERTEX_POINT('',#513);
#513 = CARTESIAN_POINT('',(-280.,20.91713944427,-3.504845353511));
#514 = B_SPLINE_CURVE_WITH_KNOTS('',6,(#515,#516,#517,#518,#519,#520,
    #521,#522,#523,#524,#525,#526,#527,#528,#529,#530,#531,#532,#533,
    #534,#535,#536),.UNSPECIFIED.,.F.,.F.,(7,5,5,5,7),(0.,0.249819075848
    ,0.499999999814,0.749180699669,1.),.UNSPECIFIED.);
#515 = CARTESIAN_POINT('',(-280.,24.99998542892,4.55662401371));
#516 = CARTESIAN_POINT('',(-280.,24.99998542892,4.179677628972));
#517 = CARTESIAN_POINT('',(-280.,24.982934775957,3.798856676891));
#518 = CARTESIAN_POINT('',(-280.,24.948176405152,3.415516863576));
#519 = CARTESIAN_POINT('',(-280.,24.895232058534,3.031154129353));
#520 = CARTESIAN_POINT('',(-280.,24.823854520423,2.647363115206));
#521 = CARTESIAN_POINT('',(-280.,24.644111225622,1.883617421632));
#522 = CARTESIAN_POINT('',(-280.,24.535691686205,1.503667738454));
#523 = CARTESIAN_POINT('',(-280.,24.408793135638,1.127547824876));
#524 = CARTESIAN_POINT('',(-280.,24.263670416383,0.756912904391));
#525 = CARTESIAN_POINT('',(-280.,24.100844559792,0.393370886484));
#526 = CARTESIAN_POINT('',(-280.,23.742016433903,-0.315125577951));
#527 = CARTESIAN_POINT('',(-280.,23.546148703012,-0.66014991536));
#528 = CARTESIAN_POINT('',(-280.,23.33421405974,-0.995186215027));
#529 = CARTESIAN_POINT('',(-280.,23.107187681318,-1.318878939445));
#530 = CARTESIAN_POINT('',(-280.,22.866237454239,-1.630055894176));
#531 = CARTESIAN_POINT('',(-280.,22.357411286757,-2.227418430033));
#532 = CARTESIAN_POINT('',(-280.,22.089367812739,-2.513427313229));
#533 = CARTESIAN_POINT('',(-280.,21.809847704092,-2.784807142336));
#534 = CARTESIAN_POINT('',(-280.,21.520299543563,-3.04080267764));
#535 = CARTESIAN_POINT('',(-280.,21.22223026693,-3.280907346168));
#536 = CARTESIAN_POINT('',(-280.,20.91713944427,-3.504845353511));
#537 = ORIENTED_EDGE('',*,*,#538,.T.);
#538 = EDGE_CURVE('',#512,#539,#541,.T.);
#539 = VERTEX_POINT('',#540);
#540 = CARTESIAN_POINT('',(-280.,-20.91713944427,-3.504845353509));
#541 = CIRCLE('',#542,35.35);
#542 = AXIS2_PLACEMENT_3D('',#543,#544,#545);
#543 = CARTESIAN_POINT('',(-280.,4.6E-15,24.992448859606));
#544 = DIRECTION('',(-1.,0.,0.));
#545 = DIRECTION('',(0.,-1.,0.));
#546 = ORIENTED_EDGE('',*,*,#547,.F.);
#547 = EDGE_CURVE('',#494,#539,#548,.T.);
#548 = CIRCLE('',#549,10.);
#549 = AXIS2_PLACEMENT_3D('',#550,#551,#552);
#550 = CARTESIAN_POINT('',(-280.,-14.99998542892,4.556624013709));
#551 = DIRECTION('',(1.,0.,-0.));
#552 = DIRECTION('',(0.,0.,1.));
#553 = PLANE('',#554);
#554 = AXIS2_PLACEMENT_3D('',#555,#556,#557);
#555 = CARTESIAN_POINT('',(-280.,2.964342516144E-15,7.234661950229));
#556 = DIRECTION('',(-1.,-0.,-0.));
#557 = DIRECTION('',(0.,0.,-1.));
#558 = ADVANCED_FACE('',(#559),#578,.F.);
#559 = FACE_BOUND('',#560,.F.);
#560 = EDGE_LOOP('',(#561,#570,#576,#577));
#561 = ORIENTED_EDGE('',*,*,#562,.T.);
#562 = EDGE_CURVE('',#98,#563,#565,.T.);
#563 = VERTEX_POINT('',#564);
#564 = CARTESIAN_POINT('',(-259.,28.000002914217,15.));
#565 = ELLIPSE('',#566,4.242640687119,3.);
#566 = AXIS2_PLACEMENT_3D('',#567,#568,#569);
#567 = CARTESIAN_POINT('',(-256.,28.000002914217,12.));
#568 = DIRECTION('',(-0.707106781186,-5.151654740303E-07,-0.707106781187
    ));
#569 = DIRECTION('',(-0.707106781186,-5.151654740303E-07,0.707106781187)
  );
#570 = ORIENTED_EDGE('',*,*,#571,.T.);
#571 = EDGE_CURVE('',#563,#470,#572,.T.);
#572 = LINE('',#573,#574);
#573 = CARTESIAN_POINT('',(-259.0000021856,28.000000728553,15.));
#574 = VECTOR('',#575,1.);
#575 = DIRECTION('',(-1.,-7.2855400024E-07,0.));
#576 = ORIENTED_EDGE('',*,*,#477,.F.);
#577 = ORIENTED_EDGE('',*,*,#105,.F.);
#578 = CYLINDRICAL_SURFACE('',#579,3.);
#579 = AXIS2_PLACEMENT_3D('',#580,#581,#582);
#580 = CARTESIAN_POINT('',(-259.0000021856,28.000000728553,12.));
#581 = DIRECTION('',(-1.,-7.2855400024E-07,0.));
#582 = DIRECTION('',(7.2855400024E-07,-1.,0.));
#583 = ADVANCED_FACE('',(#584),#623,.T.);
#584 = FACE_BOUND('',#585,.T.);
#585 = EDGE_LOOP('',(#586,#613,#621,#622));
#586 = ORIENTED_EDGE('',*,*,#587,.T.);
#587 = EDGE_CURVE('',#40,#588,#590,.T.);
#588 = VERTEX_POINT('',#589);
#589 = CARTESIAN_POINT('',(-240.,20.917180082351,-3.504815524936));
#590 = B_SPLINE_CURVE_WITH_KNOTS('',6,(#591,#592,#593,#594,#595,#596,
    #597,#598,#599,#600,#601,#602,#603,#604,#605,#606,#607,#608,#609,
    #610,#611,#612),.UNSPECIFIED.,.F.,.F.,(7,5,5,5,7),(0.,0.249819076926
    ,0.499999999814,0.749180698591,1.),.UNSPECIFIED.);
#591 = CARTESIAN_POINT('',(-240.,25.00001457108,4.556645404216));
#592 = CARTESIAN_POINT('',(-240.,25.00001457108,4.179699552639));
#593 = CARTESIAN_POINT('',(-240.,24.982963966351,3.798879150269));
#594 = CARTESIAN_POINT('',(-240.,24.948205695748,3.415539897695));
#595 = CARTESIAN_POINT('',(-240.,24.895261504132,3.031177728754));
#596 = CARTESIAN_POINT('',(-240.,24.823884177313,2.647387277197));
#597 = CARTESIAN_POINT('',(-240.,24.644141418761,1.883642692651));
#598 = CARTESIAN_POINT('',(-240.,24.535722204786,1.503693555854));
#599 = CARTESIAN_POINT('',(-240.,24.408824036366,1.127574170966));
#600 = CARTESIAN_POINT('',(-240.,24.263701754392,0.756939753773));
#601 = CARTESIAN_POINT('',(-240.,24.100876387,0.39339820645));
#602 = CARTESIAN_POINT('',(-240.,23.742049331989,-0.315097396855));
#603 = CARTESIAN_POINT('',(-240.,23.546182182414,-0.660121343386));
#604 = CARTESIAN_POINT('',(-240.,23.334248162856,-0.995157297377));
#605 = CARTESIAN_POINT('',(-240.,23.10722244468,-1.318849726769));
#606 = CARTESIAN_POINT('',(-240.,22.866272907493,-1.630026441224));
#607 = CARTESIAN_POINT('',(-240.,22.357448166934,-2.227388612579));
#608 = CARTESIAN_POINT('',(-240.,22.089405430032,-2.513397372057));
#609 = CARTESIAN_POINT('',(-240.,21.809886073474,-2.784777137923));
#610 = CARTESIAN_POINT('',(-240.,21.520338672159,-3.040772671501));
#611 = CARTESIAN_POINT('',(-240.,21.222270154134,-3.280877399272));
#612 = CARTESIAN_POINT('',(-240.,20.917180082351,-3.504815524936));
#613 = ORIENTED_EDGE('',*,*,#614,.T.);
#614 = EDGE_CURVE('',#588,#512,#615,.T.);
#615 = B_SPLINE_CURVE_WITH_KNOTS('',2,(#616,#617,#618,#619,#620),
  .UNSPECIFIED.,.F.,.F.,(3,1,1,3),(-2.447998070709,1.487283104949E-06,
    40.000001487298,42.448001487298),.UNSPECIFIED.);
#616 = CARTESIAN_POINT('',(-237.5519985127,20.917182569403,
    -3.504813699423));
#617 = CARTESIAN_POINT('',(-238.7759987337,20.917181325878,
    -3.504814612179));
#618 = CARTESIAN_POINT('',(-259.9999985127,20.917159763312,
    -3.504830439245));
#619 = CARTESIAN_POINT('',(-281.2239985127,20.917138200746,
    -3.504846266263));
#620 = CARTESIAN_POINT('',(-282.4479985127,20.917136957221,
    -3.504847179016));
#621 = ORIENTED_EDGE('',*,*,#511,.F.);
#622 = ORIENTED_EDGE('',*,*,#39,.F.);
#623 = ( BOUNDED_SURFACE() B_SPLINE_SURFACE(2,2,(
    (#624,#625,#626,#627,#628)
    ,(#629,#630,#631,#632,#633)
    ,(#634,#635,#636,#637,#638
)),.UNSPECIFIED.,.F.,.F.,.F.) B_SPLINE_SURFACE_WITH_KNOTS((3,3),(3,1,1,3
    ),(0.,40.000000000015),(-2.447998070709,1.487283104949E-06,
    40.000001487298,42.448001487298),.UNSPECIFIED.) 
GEOMETRIC_REPRESENTATION_ITEM() RATIONAL_B_SPLINE_SURFACE((
    (1.,1.,1.,1.,1.)
    ,(0.892108892212,0.89210890207,0.892108731134,0.892108560198
      ,0.892108570056)
,(1.,1.,1.,1.,1.))) REPRESENTATION_ITEM('') SURFACE() );
#624 = CARTESIAN_POINT('',(-237.5520014872,25.000016354579,
    4.556646713316));
#625 = CARTESIAN_POINT('',(-238.7760017082,25.000015462829,
    4.556646058765));
#626 = CARTESIAN_POINT('',(-260.0000014872,24.999999999999,
    4.556634708946));
#627 = CARTESIAN_POINT('',(-281.2240014872,24.999984537169,
    4.556623359161));
#628 = CARTESIAN_POINT('',(-282.4480014872,24.999983645419,
    4.556622704612));
#629 = CARTESIAN_POINT('',(-237.5520014872,25.000016354579,
    -0.507986214392));
#630 = CARTESIAN_POINT('',(-238.7760017218,25.000015462829,
    -0.507987143091));
#631 = CARTESIAN_POINT('',(-260.0000050984,24.999999999996,
    -0.50800324661));
#632 = CARTESIAN_POINT('',(-281.2240015008,24.999984537169,
    -0.508019350089));
#633 = CARTESIAN_POINT('',(-282.4480014872,24.999983645419,
    -0.508020278786));
#634 = CARTESIAN_POINT('',(-237.5519985127,20.917182569403,
    -3.504813699423));
#635 = CARTESIAN_POINT('',(-238.7759987337,20.917181325878,
    -3.504814612179));
#636 = CARTESIAN_POINT('',(-259.9999985127,20.917159763312,
    -3.504830439245));
#637 = CARTESIAN_POINT('',(-281.2239985127,20.917138200746,
    -3.504846266263));
#638 = CARTESIAN_POINT('',(-282.4479985127,20.917136957221,
    -3.504847179016));
#639 = ADVANCED_FACE('',(#640),#651,.F.);
#640 = FACE_BOUND('',#641,.T.);
#641 = EDGE_LOOP('',(#642,#643,#649,#650));
#642 = ORIENTED_EDGE('',*,*,#562,.T.);
#643 = ORIENTED_EDGE('',*,*,#644,.T.);
#644 = EDGE_CURVE('',#563,#128,#645,.T.);
#645 = LINE('',#646,#647);
#646 = CARTESIAN_POINT('',(-259.,28.000002914217,15.));
#647 = VECTOR('',#648,1.);
#648 = DIRECTION('',(0.,0.,1.));
#649 = ORIENTED_EDGE('',*,*,#431,.F.);
#650 = ORIENTED_EDGE('',*,*,#97,.F.);
#651 = CYLINDRICAL_SURFACE('',#652,3.);
#652 = AXIS2_PLACEMENT_3D('',#653,#654,#655);
#653 = CARTESIAN_POINT('',(-256.,28.000002914217,15.));
#654 = DIRECTION('',(0.,0.,1.));
#655 = DIRECTION('',(7.2855400024E-07,-1.,0.));
#656 = ADVANCED_FACE('',(#657),#757,.T.);
#657 = FACE_BOUND('',#658,.T.);
#658 = EDGE_LOOP('',(#659,#667,#675,#683,#691,#699,#707,#715,#723,#731,
    #739,#748,#755,#756));
#659 = ORIENTED_EDGE('',*,*,#660,.F.);
#660 = EDGE_CURVE('',#661,#50,#663,.T.);
#661 = VERTEX_POINT('',#662);
#662 = CARTESIAN_POINT('',(-240.,24.,20.));
#663 = LINE('',#664,#665);
#664 = CARTESIAN_POINT('',(-240.,-24.99998542892,20.));
#665 = VECTOR('',#666,1.);
#666 = DIRECTION('',(0.,1.,0.));
#667 = ORIENTED_EDGE('',*,*,#668,.T.);
#668 = EDGE_CURVE('',#661,#669,#671,.T.);
#669 = VERTEX_POINT('',#670);
#670 = CARTESIAN_POINT('',(-240.,24.,12.));
#671 = LINE('',#672,#673);
#672 = CARTESIAN_POINT('',(-240.,24.,20.));
#673 = VECTOR('',#674,1.);
#674 = DIRECTION('',(0.,0.,-1.));
#675 = ORIENTED_EDGE('',*,*,#676,.F.);
#676 = EDGE_CURVE('',#677,#669,#679,.T.);
#677 = VERTEX_POINT('',#678);
#678 = CARTESIAN_POINT('',(-240.,3.,12.));
#679 = LINE('',#680,#681);
#680 = CARTESIAN_POINT('',(-240.,6.,12.));
#681 = VECTOR('',#682,1.);
#682 = DIRECTION('',(0.,1.,0.));
#683 = ORIENTED_EDGE('',*,*,#684,.T.);
#684 = EDGE_CURVE('',#677,#685,#687,.T.);
#685 = VERTEX_POINT('',#686);
#686 = CARTESIAN_POINT('',(-240.,3.,20.));
#687 = LINE('',#688,#689);
#688 = CARTESIAN_POINT('',(-240.,3.,15.));
#689 = VECTOR('',#690,1.);
#690 = DIRECTION('',(0.,0.,1.));
#691 = ORIENTED_EDGE('',*,*,#692,.F.);
#692 = EDGE_CURVE('',#693,#685,#695,.T.);
#693 = VERTEX_POINT('',#694);
#694 = CARTESIAN_POINT('',(-240.,-3.,20.));
#695 = LINE('',#696,#697);
#696 = CARTESIAN_POINT('',(-240.,-24.99998542892,20.));
#697 = VECTOR('',#698,1.);
#698 = DIRECTION('',(0.,1.,0.));
#699 = ORIENTED_EDGE('',*,*,#700,.F.);
#700 = EDGE_CURVE('',#701,#693,#703,.T.);
#701 = VERTEX_POINT('',#702);
#702 = CARTESIAN_POINT('',(-240.,-3.,12.));
#703 = LINE('',#704,#705);
#704 = CARTESIAN_POINT('',(-240.,-3.,15.));
#705 = VECTOR('',#706,1.);
#706 = DIRECTION('',(0.,0.,1.));
#707 = ORIENTED_EDGE('',*,*,#708,.F.);
#708 = EDGE_CURVE('',#709,#701,#711,.T.);
#709 = VERTEX_POINT('',#710);
#710 = CARTESIAN_POINT('',(-240.,-24.,12.));
#711 = LINE('',#712,#713);
#712 = CARTESIAN_POINT('',(-240.,-21.,12.));
#713 = VECTOR('',#714,1.);
#714 = DIRECTION('',(0.,1.,0.));
#715 = ORIENTED_EDGE('',*,*,#716,.F.);
#716 = EDGE_CURVE('',#717,#709,#719,.T.);
#717 = VERTEX_POINT('',#718);
#718 = CARTESIAN_POINT('',(-240.,-24.,20.));
#719 = LINE('',#720,#721);
#720 = CARTESIAN_POINT('',(-240.,-24.,20.));
#721 = VECTOR('',#722,1.);
#722 = DIRECTION('',(0.,0.,-1.));
#723 = ORIENTED_EDGE('',*,*,#724,.F.);
#724 = EDGE_CURVE('',#725,#717,#727,.T.);
#725 = VERTEX_POINT('',#726);
#726 = CARTESIAN_POINT('',(-240.,-24.99998542892,20.));
#727 = LINE('',#728,#729);
#728 = CARTESIAN_POINT('',(-240.,-24.99998542892,20.));
#729 = VECTOR('',#730,1.);
#730 = DIRECTION('',(0.,1.,0.));
#731 = ORIENTED_EDGE('',*,*,#732,.F.);
#732 = EDGE_CURVE('',#733,#725,#735,.T.);
#733 = VERTEX_POINT('',#734);
#734 = CARTESIAN_POINT('',(-240.,-24.99998542892,4.556624013709));
#735 = LINE('',#736,#737);
#736 = CARTESIAN_POINT('',(-240.,-24.99998542892,0.));
#737 = VECTOR('',#738,1.);
#738 = DIRECTION('',(0.,0.,1.));
#739 = ORIENTED_EDGE('',*,*,#740,.T.);
#740 = EDGE_CURVE('',#733,#741,#743,.T.);
#741 = VERTEX_POINT('',#742);
#742 = CARTESIAN_POINT('',(-240.,-20.91713944427,-3.504845353509));
#743 = CIRCLE('',#744,10.);
#744 = AXIS2_PLACEMENT_3D('',#745,#746,#747);
#745 = CARTESIAN_POINT('',(-240.,-14.99998542892,4.556624013709));
#746 = DIRECTION('',(1.,0.,-0.));
#747 = DIRECTION('',(0.,0.,1.));
#748 = ORIENTED_EDGE('',*,*,#749,.F.);
#749 = EDGE_CURVE('',#588,#741,#750,.T.);
#750 = CIRCLE('',#751,35.35);
#751 = AXIS2_PLACEMENT_3D('',#752,#753,#754);
#752 = CARTESIAN_POINT('',(-240.,4.6E-15,24.992448859606));
#753 = DIRECTION('',(-1.,0.,0.));
#754 = DIRECTION('',(0.,-1.,0.));
#755 = ORIENTED_EDGE('',*,*,#587,.F.);
#756 = ORIENTED_EDGE('',*,*,#49,.T.);
#757 = PLANE('',#758);
#758 = AXIS2_PLACEMENT_3D('',#759,#760,#761);
#759 = CARTESIAN_POINT('',(-240.,7.952400262308E-06,7.670925655939));
#760 = DIRECTION('',(1.,0.,0.));
#761 = DIRECTION('',(0.,0.,1.));
#762 = ADVANCED_FACE('',(#763,#900,#911),#922,.T.);
#763 = FACE_BOUND('',#764,.T.);
#764 = EDGE_LOOP('',(#765,#775,#784,#792,#801,#809,#816,#817,#826,#834,
    #843,#851,#860,#868,#875,#876,#877,#886,#892,#893));
#765 = ORIENTED_EDGE('',*,*,#766,.F.);
#766 = EDGE_CURVE('',#767,#769,#771,.T.);
#767 = VERTEX_POINT('',#768);
#768 = CARTESIAN_POINT('',(-230.,-21.,20.));
#769 = VERTEX_POINT('',#770);
#770 = CARTESIAN_POINT('',(-237.,-21.,20.));
#771 = LINE('',#772,#773);
#772 = CARTESIAN_POINT('',(-225.,-21.,20.));
#773 = VECTOR('',#774,1.);
#774 = DIRECTION('',(-1.,0.,0.));
#775 = ORIENTED_EDGE('',*,*,#776,.T.);
#776 = EDGE_CURVE('',#767,#777,#779,.T.);
#777 = VERTEX_POINT('',#778);
#778 = CARTESIAN_POINT('',(-225.,-16.,20.));
#779 = CIRCLE('',#780,5.);
#780 = AXIS2_PLACEMENT_3D('',#781,#782,#783);
#781 = CARTESIAN_POINT('',(-230.,-16.,20.));
#782 = DIRECTION('',(0.,-0.,1.));
#783 = DIRECTION('',(0.,1.,0.));
#784 = ORIENTED_EDGE('',*,*,#785,.F.);
#785 = EDGE_CURVE('',#786,#777,#788,.T.);
#786 = VERTEX_POINT('',#787);
#787 = CARTESIAN_POINT('',(-225.,-11.,20.));
#788 = LINE('',#789,#790);
#789 = CARTESIAN_POINT('',(-225.,-6.,20.));
#790 = VECTOR('',#791,1.);
#791 = DIRECTION('',(0.,-1.,0.));
#792 = ORIENTED_EDGE('',*,*,#793,.T.);
#793 = EDGE_CURVE('',#786,#794,#796,.T.);
#794 = VERTEX_POINT('',#795);
#795 = CARTESIAN_POINT('',(-230.,-6.,20.));
#796 = CIRCLE('',#797,5.);
#797 = AXIS2_PLACEMENT_3D('',#798,#799,#800);
#798 = CARTESIAN_POINT('',(-230.,-11.,20.));
#799 = DIRECTION('',(0.,-0.,1.));
#800 = DIRECTION('',(0.,1.,0.));
#801 = ORIENTED_EDGE('',*,*,#802,.F.);
#802 = EDGE_CURVE('',#803,#794,#805,.T.);
#803 = VERTEX_POINT('',#804);
#804 = CARTESIAN_POINT('',(-237.,-6.,20.));
#805 = LINE('',#806,#807);
#806 = CARTESIAN_POINT('',(-241.,-6.,20.));
#807 = VECTOR('',#808,1.);
#808 = DIRECTION('',(1.,0.,0.));
#809 = ORIENTED_EDGE('',*,*,#810,.F.);
#810 = EDGE_CURVE('',#693,#803,#811,.T.);
#811 = CIRCLE('',#812,3.);
#812 = AXIS2_PLACEMENT_3D('',#813,#814,#815);
#813 = CARTESIAN_POINT('',(-237.,-3.,20.));
#814 = DIRECTION('',(-0.,0.,1.));
#815 = DIRECTION('',(0.,-1.,0.));
#816 = ORIENTED_EDGE('',*,*,#692,.T.);
#817 = ORIENTED_EDGE('',*,*,#818,.T.);
#818 = EDGE_CURVE('',#685,#819,#821,.T.);
#819 = VERTEX_POINT('',#820);
#820 = CARTESIAN_POINT('',(-237.,6.,20.));
#821 = CIRCLE('',#822,3.);
#822 = AXIS2_PLACEMENT_3D('',#823,#824,#825);
#823 = CARTESIAN_POINT('',(-237.,3.,20.));
#824 = DIRECTION('',(-0.,-0.,-1.));
#825 = DIRECTION('',(0.,-1.,0.));
#826 = ORIENTED_EDGE('',*,*,#827,.T.);
#827 = EDGE_CURVE('',#819,#828,#830,.T.);
#828 = VERTEX_POINT('',#829);
#829 = CARTESIAN_POINT('',(-230.,6.,20.));
#830 = LINE('',#831,#832);
#831 = CARTESIAN_POINT('',(-241.,6.,20.));
#832 = VECTOR('',#833,1.);
#833 = DIRECTION('',(1.,0.,0.));
#834 = ORIENTED_EDGE('',*,*,#835,.F.);
#835 = EDGE_CURVE('',#836,#828,#838,.T.);
#836 = VERTEX_POINT('',#837);
#837 = CARTESIAN_POINT('',(-225.,11.,20.));
#838 = CIRCLE('',#839,5.);
#839 = AXIS2_PLACEMENT_3D('',#840,#841,#842);
#840 = CARTESIAN_POINT('',(-230.,11.,20.));
#841 = DIRECTION('',(0.,0.,-1.));
#842 = DIRECTION('',(0.,1.,0.));
#843 = ORIENTED_EDGE('',*,*,#844,.T.);
#844 = EDGE_CURVE('',#836,#845,#847,.T.);
#845 = VERTEX_POINT('',#846);
#846 = CARTESIAN_POINT('',(-225.,16.,20.));
#847 = LINE('',#848,#849);
#848 = CARTESIAN_POINT('',(-225.,6.,20.));
#849 = VECTOR('',#850,1.);
#850 = DIRECTION('',(0.,1.,0.));
#851 = ORIENTED_EDGE('',*,*,#852,.F.);
#852 = EDGE_CURVE('',#853,#845,#855,.T.);
#853 = VERTEX_POINT('',#854);
#854 = CARTESIAN_POINT('',(-230.,21.,20.));
#855 = CIRCLE('',#856,5.);
#856 = AXIS2_PLACEMENT_3D('',#857,#858,#859);
#857 = CARTESIAN_POINT('',(-230.,16.,20.));
#858 = DIRECTION('',(0.,0.,-1.));
#859 = DIRECTION('',(0.,1.,0.));
#860 = ORIENTED_EDGE('',*,*,#861,.T.);
#861 = EDGE_CURVE('',#853,#862,#864,.T.);
#862 = VERTEX_POINT('',#863);
#863 = CARTESIAN_POINT('',(-237.,21.,20.));
#864 = LINE('',#865,#866);
#865 = CARTESIAN_POINT('',(-225.,21.,20.));
#866 = VECTOR('',#867,1.);
#867 = DIRECTION('',(-1.,0.,0.));
#868 = ORIENTED_EDGE('',*,*,#869,.F.);
#869 = EDGE_CURVE('',#661,#862,#870,.T.);
#870 = CIRCLE('',#871,3.);
#871 = AXIS2_PLACEMENT_3D('',#872,#873,#874);
#872 = CARTESIAN_POINT('',(-237.,24.,20.));
#873 = DIRECTION('',(0.,-0.,1.));
#874 = DIRECTION('',(0.,1.,0.));
#875 = ORIENTED_EDGE('',*,*,#660,.T.);
#876 = ORIENTED_EDGE('',*,*,#57,.T.);
#877 = ORIENTED_EDGE('',*,*,#878,.T.);
#878 = EDGE_CURVE('',#58,#879,#881,.T.);
#879 = VERTEX_POINT('',#880);
#880 = CARTESIAN_POINT('',(-248.7468607411,-24.99998542891,20.));
#881 = CIRCLE('',#882,250.);
#882 = AXIS2_PLACEMENT_3D('',#883,#884,#885);
#883 = CARTESIAN_POINT('',(0.,0.,20.));
#884 = DIRECTION('',(0.,0.,1.));
#885 = DIRECTION('',(1.,0.,0.));
#886 = ORIENTED_EDGE('',*,*,#887,.T.);
#887 = EDGE_CURVE('',#879,#725,#888,.T.);
#888 = LINE('',#889,#890);
#889 = CARTESIAN_POINT('',(-280.,-24.99998542892,20.));
#890 = VECTOR('',#891,1.);
#891 = DIRECTION('',(1.,0.,0.));
#892 = ORIENTED_EDGE('',*,*,#724,.T.);
#893 = ORIENTED_EDGE('',*,*,#894,.T.);
#894 = EDGE_CURVE('',#717,#769,#895,.T.);
#895 = CIRCLE('',#896,3.);
#896 = AXIS2_PLACEMENT_3D('',#897,#898,#899);
#897 = CARTESIAN_POINT('',(-237.,-24.,20.));
#898 = DIRECTION('',(0.,0.,-1.));
#899 = DIRECTION('',(0.,1.,0.));
#900 = FACE_BOUND('',#901,.T.);
#901 = EDGE_LOOP('',(#902));
#902 = ORIENTED_EDGE('',*,*,#903,.T.);
#903 = EDGE_CURVE('',#904,#904,#906,.T.);
#904 = VERTEX_POINT('',#905);
#905 = CARTESIAN_POINT('',(-229.95,-13.5,20.));
#906 = CIRCLE('',#907,2.55);
#907 = AXIS2_PLACEMENT_3D('',#908,#909,#910);
#908 = CARTESIAN_POINT('',(-232.5,-13.5,20.));
#909 = DIRECTION('',(0.,0.,-1.));
#910 = DIRECTION('',(1.,0.,0.));
#911 = FACE_BOUND('',#912,.T.);
#912 = EDGE_LOOP('',(#913));
#913 = ORIENTED_EDGE('',*,*,#914,.T.);
#914 = EDGE_CURVE('',#915,#915,#917,.T.);
#915 = VERTEX_POINT('',#916);
#916 = CARTESIAN_POINT('',(-229.95,13.5,20.));
#917 = CIRCLE('',#918,2.55);
#918 = AXIS2_PLACEMENT_3D('',#919,#920,#921);
#919 = CARTESIAN_POINT('',(-232.5,13.5,20.));
#920 = DIRECTION('',(0.,0.,-1.));
#921 = DIRECTION('',(1.,0.,0.));
#922 = PLANE('',#923);
#923 = AXIS2_PLACEMENT_3D('',#924,#925,#926);
#924 = CARTESIAN_POINT('',(-238.0384044369,8.279440275635E-06,20.));
#925 = DIRECTION('',(0.,0.,1.));
#926 = DIRECTION('',(1.,0.,0.));
#927 = ADVANCED_FACE('',(#928),#947,.F.);
#928 = FACE_BOUND('',#929,.F.);
#929 = EDGE_LOOP('',(#930,#931,#932,#941));
#930 = ORIENTED_EDGE('',*,*,#423,.F.);
#931 = ORIENTED_EDGE('',*,*,#81,.F.);
#932 = ORIENTED_EDGE('',*,*,#933,.T.);
#933 = EDGE_CURVE('',#74,#934,#936,.T.);
#934 = VERTEX_POINT('',#935);
#935 = CARTESIAN_POINT('',(-251.8622852444,-24.99998542892,5.));
#936 = CIRCLE('',#937,253.1);
#937 = AXIS2_PLACEMENT_3D('',#938,#939,#940);
#938 = CARTESIAN_POINT('',(0.,0.,5.));
#939 = DIRECTION('',(0.,0.,1.));
#940 = DIRECTION('',(1.,0.,0.));
#941 = ORIENTED_EDGE('',*,*,#942,.T.);
#942 = EDGE_CURVE('',#934,#416,#943,.T.);
#943 = LINE('',#944,#945);
#944 = CARTESIAN_POINT('',(-251.8622852444,-24.99998542892,20.));
#945 = VECTOR('',#946,1.);
#946 = DIRECTION('',(0.,0.,1.));
#947 = CYLINDRICAL_SURFACE('',#948,253.1);
#948 = AXIS2_PLACEMENT_3D('',#949,#950,#951);
#949 = CARTESIAN_POINT('',(0.,0.,20.));
#950 = DIRECTION('',(0.,0.,1.));
#951 = DIRECTION('',(1.,0.,0.));
#952 = ADVANCED_FACE('',(#953),#972,.T.);
#953 = FACE_BOUND('',#954,.T.);
#954 = EDGE_LOOP('',(#955,#956,#957,#966));
#955 = ORIENTED_EDGE('',*,*,#878,.F.);
#956 = ORIENTED_EDGE('',*,*,#65,.F.);
#957 = ORIENTED_EDGE('',*,*,#958,.T.);
#958 = EDGE_CURVE('',#66,#959,#961,.T.);
#959 = VERTEX_POINT('',#960);
#960 = CARTESIAN_POINT('',(-248.7468607411,-24.99998542892,5.));
#961 = CIRCLE('',#962,250.);
#962 = AXIS2_PLACEMENT_3D('',#963,#964,#965);
#963 = CARTESIAN_POINT('',(0.,0.,5.));
#964 = DIRECTION('',(0.,0.,1.));
#965 = DIRECTION('',(1.,0.,0.));
#966 = ORIENTED_EDGE('',*,*,#967,.T.);
#967 = EDGE_CURVE('',#959,#879,#968,.T.);
#968 = LINE('',#969,#970);
#969 = CARTESIAN_POINT('',(-248.7468607411,-24.99998542892,20.));
#970 = VECTOR('',#971,1.);
#971 = DIRECTION('',(0.,0.,1.));
#972 = CYLINDRICAL_SURFACE('',#973,250.);
#973 = AXIS2_PLACEMENT_3D('',#974,#975,#976);
#974 = CARTESIAN_POINT('',(0.,0.,20.));
#975 = DIRECTION('',(0.,0.,1.));
#976 = DIRECTION('',(1.,0.,0.));
#977 = ADVANCED_FACE('',(#978),#989,.T.);
#978 = FACE_BOUND('',#979,.T.);
#979 = EDGE_LOOP('',(#980,#981,#982,#988));
#980 = ORIENTED_EDGE('',*,*,#73,.T.);
#981 = ORIENTED_EDGE('',*,*,#933,.T.);
#982 = ORIENTED_EDGE('',*,*,#983,.T.);
#983 = EDGE_CURVE('',#934,#959,#984,.T.);
#984 = LINE('',#985,#986);
#985 = CARTESIAN_POINT('',(-140.,-24.99998542892,5.));
#986 = VECTOR('',#987,1.);
#987 = DIRECTION('',(1.,0.,0.));
#988 = ORIENTED_EDGE('',*,*,#958,.F.);
#989 = PLANE('',#990);
#990 = AXIS2_PLACEMENT_3D('',#991,#992,#993);
#991 = CARTESIAN_POINT('',(-1.392E-14,3.7E-16,5.));
#992 = DIRECTION('',(0.,0.,1.));
#993 = DIRECTION('',(1.,0.,0.));
#994 = ADVANCED_FACE('',(#995),#1013,.T.);
#995 = FACE_BOUND('',#996,.T.);
#996 = EDGE_LOOP('',(#997,#998,#999,#1007));
#997 = ORIENTED_EDGE('',*,*,#127,.F.);
#998 = ORIENTED_EDGE('',*,*,#644,.F.);
#999 = ORIENTED_EDGE('',*,*,#1000,.T.);
#1000 = EDGE_CURVE('',#563,#1001,#1003,.T.);
#1001 = VERTEX_POINT('',#1002);
#1002 = CARTESIAN_POINT('',(-259.,35.,15.));
#1003 = LINE('',#1004,#1005);
#1004 = CARTESIAN_POINT('',(-259.,24.,15.));
#1005 = VECTOR('',#1006,1.);
#1006 = DIRECTION('',(0.,1.,0.));
#1007 = ORIENTED_EDGE('',*,*,#1008,.F.);
#1008 = EDGE_CURVE('',#130,#1001,#1009,.T.);
#1009 = LINE('',#1010,#1011);
#1010 = CARTESIAN_POINT('',(-259.,35.,20.));
#1011 = VECTOR('',#1012,1.);
#1012 = DIRECTION('',(-0.,-0.,-1.));
#1013 = PLANE('',#1014);
#1014 = AXIS2_PLACEMENT_3D('',#1015,#1016,#1017);
#1015 = CARTESIAN_POINT('',(-259.,24.,20.));
#1016 = DIRECTION('',(1.,0.,0.));
#1017 = DIRECTION('',(0.,1.,0.));
#1018 = ADVANCED_FACE('',(#1019),#1038,.T.);
#1019 = FACE_BOUND('',#1020,.F.);
#1020 = EDGE_LOOP('',(#1021,#1022,#1030,#1037));
#1021 = ORIENTED_EDGE('',*,*,#137,.T.);
#1022 = ORIENTED_EDGE('',*,*,#1023,.T.);
#1023 = EDGE_CURVE('',#138,#1024,#1026,.T.);
#1024 = VERTEX_POINT('',#1025);
#1025 = CARTESIAN_POINT('',(-264.,40.,15.));
#1026 = LINE('',#1027,#1028);
#1027 = CARTESIAN_POINT('',(-264.,40.,20.));
#1028 = VECTOR('',#1029,1.);
#1029 = DIRECTION('',(-0.,-0.,-1.));
#1030 = ORIENTED_EDGE('',*,*,#1031,.F.);
#1031 = EDGE_CURVE('',#1001,#1024,#1032,.T.);
#1032 = CIRCLE('',#1033,5.);
#1033 = AXIS2_PLACEMENT_3D('',#1034,#1035,#1036);
#1034 = CARTESIAN_POINT('',(-264.,35.,15.));
#1035 = DIRECTION('',(0.,-0.,1.));
#1036 = DIRECTION('',(0.,1.,0.));
#1037 = ORIENTED_EDGE('',*,*,#1008,.F.);
#1038 = CYLINDRICAL_SURFACE('',#1039,5.);
#1039 = AXIS2_PLACEMENT_3D('',#1040,#1041,#1042);
#1040 = CARTESIAN_POINT('',(-264.,35.,20.));
#1041 = DIRECTION('',(-0.,-0.,-1.));
#1042 = DIRECTION('',(1.,0.,0.));
#1043 = ADVANCED_FACE('',(#1044),#1062,.T.);
#1044 = FACE_BOUND('',#1045,.T.);
#1045 = EDGE_LOOP('',(#1046,#1047,#1048,#1056));
#1046 = ORIENTED_EDGE('',*,*,#146,.F.);
#1047 = ORIENTED_EDGE('',*,*,#1023,.T.);
#1048 = ORIENTED_EDGE('',*,*,#1049,.T.);
#1049 = EDGE_CURVE('',#1024,#1050,#1052,.T.);
#1050 = VERTEX_POINT('',#1051);
#1051 = CARTESIAN_POINT('',(-269.,40.,15.));
#1052 = LINE('',#1053,#1054);
#1053 = CARTESIAN_POINT('',(-259.,40.,15.));
#1054 = VECTOR('',#1055,1.);
#1055 = DIRECTION('',(-1.,0.,0.));
#1056 = ORIENTED_EDGE('',*,*,#1057,.F.);
#1057 = EDGE_CURVE('',#147,#1050,#1058,.T.);
#1058 = LINE('',#1059,#1060);
#1059 = CARTESIAN_POINT('',(-269.,40.,20.));
#1060 = VECTOR('',#1061,1.);
#1061 = DIRECTION('',(-0.,-0.,-1.));
#1062 = PLANE('',#1063);
#1063 = AXIS2_PLACEMENT_3D('',#1064,#1065,#1066);
#1064 = CARTESIAN_POINT('',(-259.,40.,20.));
#1065 = DIRECTION('',(0.,1.,0.));
#1066 = DIRECTION('',(-1.,0.,0.));
#1067 = ADVANCED_FACE('',(#1068),#1087,.T.);
#1068 = FACE_BOUND('',#1069,.T.);
#1069 = EDGE_LOOP('',(#1070,#1071,#1072,#1081));
#1070 = ORIENTED_EDGE('',*,*,#154,.T.);
#1071 = ORIENTED_EDGE('',*,*,#1057,.T.);
#1072 = ORIENTED_EDGE('',*,*,#1073,.F.);
#1073 = EDGE_CURVE('',#1074,#1050,#1076,.T.);
#1074 = VERTEX_POINT('',#1075);
#1075 = CARTESIAN_POINT('',(-274.,35.,15.));
#1076 = CIRCLE('',#1077,5.);
#1077 = AXIS2_PLACEMENT_3D('',#1078,#1079,#1080);
#1078 = CARTESIAN_POINT('',(-269.,35.,15.));
#1079 = DIRECTION('',(0.,0.,-1.));
#1080 = DIRECTION('',(0.,1.,0.));
#1081 = ORIENTED_EDGE('',*,*,#1082,.F.);
#1082 = EDGE_CURVE('',#155,#1074,#1083,.T.);
#1083 = LINE('',#1084,#1085);
#1084 = CARTESIAN_POINT('',(-274.,35.,20.));
#1085 = VECTOR('',#1086,1.);
#1086 = DIRECTION('',(-0.,-0.,-1.));
#1087 = CYLINDRICAL_SURFACE('',#1088,5.);
#1088 = AXIS2_PLACEMENT_3D('',#1089,#1090,#1091);
#1089 = CARTESIAN_POINT('',(-269.,35.,20.));
#1090 = DIRECTION('',(-0.,-0.,-1.));
#1091 = DIRECTION('',(-1.,0.,0.));
#1092 = ADVANCED_FACE('',(#1093),#1131,.F.);
#1093 = FACE_BOUND('',#1094,.F.);
#1094 = EDGE_LOOP('',(#1095,#1096,#1104,#1112,#1118,#1119,#1120,#1121,
    #1122,#1123,#1124,#1130));
#1095 = ORIENTED_EDGE('',*,*,#347,.T.);
#1096 = ORIENTED_EDGE('',*,*,#1097,.T.);
#1097 = EDGE_CURVE('',#348,#1098,#1100,.T.);
#1098 = VERTEX_POINT('',#1099);
#1099 = CARTESIAN_POINT('',(-277.,-24.99998542892,12.));
#1100 = LINE('',#1101,#1102);
#1101 = CARTESIAN_POINT('',(-277.,-24.99998542892,20.));
#1102 = VECTOR('',#1103,1.);
#1103 = DIRECTION('',(0.,0.,-1.));
#1104 = ORIENTED_EDGE('',*,*,#1105,.T.);
#1105 = EDGE_CURVE('',#1098,#1106,#1108,.T.);
#1106 = VERTEX_POINT('',#1107);
#1107 = CARTESIAN_POINT('',(-256.,-24.99998542892,12.));
#1108 = LINE('',#1109,#1110);
#1109 = CARTESIAN_POINT('',(-274.,-24.99998542892,12.));
#1110 = VECTOR('',#1111,1.);
#1111 = DIRECTION('',(1.,0.,0.));
#1112 = ORIENTED_EDGE('',*,*,#1113,.T.);
#1113 = EDGE_CURVE('',#1106,#407,#1114,.T.);
#1114 = LINE('',#1115,#1116);
#1115 = CARTESIAN_POINT('',(-256.,-24.99998542892,15.));
#1116 = VECTOR('',#1117,1.);
#1117 = DIRECTION('',(0.,0.,1.));
#1118 = ORIENTED_EDGE('',*,*,#415,.T.);
#1119 = ORIENTED_EDGE('',*,*,#942,.F.);
#1120 = ORIENTED_EDGE('',*,*,#983,.T.);
#1121 = ORIENTED_EDGE('',*,*,#967,.T.);
#1122 = ORIENTED_EDGE('',*,*,#887,.T.);
#1123 = ORIENTED_EDGE('',*,*,#732,.F.);
#1124 = ORIENTED_EDGE('',*,*,#1125,.F.);
#1125 = EDGE_CURVE('',#494,#733,#1126,.T.);
#1126 = LINE('',#1127,#1128);
#1127 = CARTESIAN_POINT('',(-280.,-24.99998542892,4.556624013709));
#1128 = VECTOR('',#1129,1.);
#1129 = DIRECTION('',(1.,0.,0.));
#1130 = ORIENTED_EDGE('',*,*,#493,.T.);
#1131 = PLANE('',#1132);
#1132 = AXIS2_PLACEMENT_3D('',#1133,#1134,#1135);
#1133 = CARTESIAN_POINT('',(-280.,-24.99998542892,0.));
#1134 = DIRECTION('',(0.,1.,0.));
#1135 = DIRECTION('',(1.,0.,0.));
#1136 = ADVANCED_FACE('',(#1137),#1148,.T.);
#1137 = FACE_BOUND('',#1138,.T.);
#1138 = EDGE_LOOP('',(#1139,#1140,#1141,#1147));
#1139 = ORIENTED_EDGE('',*,*,#163,.F.);
#1140 = ORIENTED_EDGE('',*,*,#1082,.T.);
#1141 = ORIENTED_EDGE('',*,*,#1142,.T.);
#1142 = EDGE_CURVE('',#1074,#470,#1143,.T.);
#1143 = LINE('',#1144,#1145);
#1144 = CARTESIAN_POINT('',(-274.,40.,15.));
#1145 = VECTOR('',#1146,1.);
#1146 = DIRECTION('',(0.,-1.,0.));
#1147 = ORIENTED_EDGE('',*,*,#469,.F.);
#1148 = PLANE('',#1149);
#1149 = AXIS2_PLACEMENT_3D('',#1150,#1151,#1152);
#1150 = CARTESIAN_POINT('',(-274.,40.,20.));
#1151 = DIRECTION('',(-1.,0.,0.));
#1152 = DIRECTION('',(0.,-1.,0.));
#1153 = ADVANCED_FACE('',(#1154),#1173,.F.);
#1154 = FACE_BOUND('',#1155,.F.);
#1155 = EDGE_LOOP('',(#1156,#1165,#1171,#1172));
#1156 = ORIENTED_EDGE('',*,*,#1157,.T.);
#1157 = EDGE_CURVE('',#1106,#1158,#1160,.T.);
#1158 = VERTEX_POINT('',#1159);
#1159 = CARTESIAN_POINT('',(-259.,-27.99998542892,15.));
#1160 = ELLIPSE('',#1161,4.242640687119,3.);
#1161 = AXIS2_PLACEMENT_3D('',#1162,#1163,#1164);
#1162 = CARTESIAN_POINT('',(-256.,-27.99998542892,12.));
#1163 = DIRECTION('',(0.707106781187,0.,0.707106781187));
#1164 = DIRECTION('',(-0.707106781187,0.,0.707106781187));
#1165 = ORIENTED_EDGE('',*,*,#1166,.T.);
#1166 = EDGE_CURVE('',#1158,#399,#1167,.T.);
#1167 = LINE('',#1168,#1169);
#1168 = CARTESIAN_POINT('',(-259.,-27.99998542892,15.));
#1169 = VECTOR('',#1170,1.);
#1170 = DIRECTION('',(0.,0.,1.));
#1171 = ORIENTED_EDGE('',*,*,#406,.F.);
#1172 = ORIENTED_EDGE('',*,*,#1113,.F.);
#1173 = CYLINDRICAL_SURFACE('',#1174,3.);
#1174 = AXIS2_PLACEMENT_3D('',#1175,#1176,#1177);
#1175 = CARTESIAN_POINT('',(-256.,-27.99998542892,15.));
#1176 = DIRECTION('',(0.,0.,1.));
#1177 = DIRECTION('',(0.,1.,0.));
#1178 = ADVANCED_FACE('',(#1179),#1197,.F.);
#1179 = FACE_BOUND('',#1180,.F.);
#1180 = EDGE_LOOP('',(#1181,#1182,#1183,#1191));
#1181 = ORIENTED_EDGE('',*,*,#398,.F.);
#1182 = ORIENTED_EDGE('',*,*,#1166,.F.);
#1183 = ORIENTED_EDGE('',*,*,#1184,.T.);
#1184 = EDGE_CURVE('',#1158,#1185,#1187,.T.);
#1185 = VERTEX_POINT('',#1186);
#1186 = CARTESIAN_POINT('',(-259.,-35.,15.));
#1187 = LINE('',#1188,#1189);
#1188 = CARTESIAN_POINT('',(-259.,-24.,15.));
#1189 = VECTOR('',#1190,1.);
#1190 = DIRECTION('',(0.,-1.,0.));
#1191 = ORIENTED_EDGE('',*,*,#1192,.F.);
#1192 = EDGE_CURVE('',#390,#1185,#1193,.T.);
#1193 = LINE('',#1194,#1195);
#1194 = CARTESIAN_POINT('',(-259.,-35.,20.));
#1195 = VECTOR('',#1196,1.);
#1196 = DIRECTION('',(-0.,-0.,-1.));
#1197 = PLANE('',#1198);
#1198 = AXIS2_PLACEMENT_3D('',#1199,#1200,#1201);
#1199 = CARTESIAN_POINT('',(-259.,-24.,20.));
#1200 = DIRECTION('',(-1.,0.,0.));
#1201 = DIRECTION('',(0.,-1.,0.));
#1202 = ADVANCED_FACE('',(#1203),#1222,.T.);
#1203 = FACE_BOUND('',#1204,.T.);
#1204 = EDGE_LOOP('',(#1205,#1206,#1214,#1221));
#1205 = ORIENTED_EDGE('',*,*,#389,.T.);
#1206 = ORIENTED_EDGE('',*,*,#1207,.T.);
#1207 = EDGE_CURVE('',#382,#1208,#1210,.T.);
#1208 = VERTEX_POINT('',#1209);
#1209 = CARTESIAN_POINT('',(-264.,-40.,15.));
#1210 = LINE('',#1211,#1212);
#1211 = CARTESIAN_POINT('',(-264.,-40.,20.));
#1212 = VECTOR('',#1213,1.);
#1213 = DIRECTION('',(-0.,-0.,-1.));
#1214 = ORIENTED_EDGE('',*,*,#1215,.F.);
#1215 = EDGE_CURVE('',#1185,#1208,#1216,.T.);
#1216 = CIRCLE('',#1217,5.);
#1217 = AXIS2_PLACEMENT_3D('',#1218,#1219,#1220);
#1218 = CARTESIAN_POINT('',(-264.,-35.,15.));
#1219 = DIRECTION('',(0.,0.,-1.));
#1220 = DIRECTION('',(0.,1.,0.));
#1221 = ORIENTED_EDGE('',*,*,#1192,.F.);
#1222 = CYLINDRICAL_SURFACE('',#1223,5.);
#1223 = AXIS2_PLACEMENT_3D('',#1224,#1225,#1226);
#1224 = CARTESIAN_POINT('',(-264.,-35.,20.));
#1225 = DIRECTION('',(-0.,-0.,-1.));
#1226 = DIRECTION('',(1.,0.,0.));
#1227 = ADVANCED_FACE('',(#1228),#1246,.F.);
#1228 = FACE_BOUND('',#1229,.F.);
#1229 = EDGE_LOOP('',(#1230,#1231,#1232,#1240));
#1230 = ORIENTED_EDGE('',*,*,#381,.F.);
#1231 = ORIENTED_EDGE('',*,*,#1207,.T.);
#1232 = ORIENTED_EDGE('',*,*,#1233,.T.);
#1233 = EDGE_CURVE('',#1208,#1234,#1236,.T.);
#1234 = VERTEX_POINT('',#1235);
#1235 = CARTESIAN_POINT('',(-269.,-40.,15.));
#1236 = LINE('',#1237,#1238);
#1237 = CARTESIAN_POINT('',(-259.,-40.,15.));
#1238 = VECTOR('',#1239,1.);
#1239 = DIRECTION('',(-1.,0.,0.));
#1240 = ORIENTED_EDGE('',*,*,#1241,.F.);
#1241 = EDGE_CURVE('',#373,#1234,#1242,.T.);
#1242 = LINE('',#1243,#1244);
#1243 = CARTESIAN_POINT('',(-269.,-40.,20.));
#1244 = VECTOR('',#1245,1.);
#1245 = DIRECTION('',(-0.,-0.,-1.));
#1246 = PLANE('',#1247);
#1247 = AXIS2_PLACEMENT_3D('',#1248,#1249,#1250);
#1248 = CARTESIAN_POINT('',(-259.,-40.,20.));
#1249 = DIRECTION('',(0.,1.,0.));
#1250 = DIRECTION('',(-1.,0.,0.));
#1251 = ADVANCED_FACE('',(#1252),#1264,.F.);
#1252 = FACE_BOUND('',#1253,.F.);
#1253 = EDGE_LOOP('',(#1254,#1255,#1256,#1257));
#1254 = ORIENTED_EDGE('',*,*,#331,.F.);
#1255 = ORIENTED_EDGE('',*,*,#502,.F.);
#1256 = ORIENTED_EDGE('',*,*,#187,.F.);
#1257 = ORIENTED_EDGE('',*,*,#1258,.T.);
#1258 = EDGE_CURVE('',#188,#324,#1259,.T.);
#1259 = CIRCLE('',#1260,8.5);
#1260 = AXIS2_PLACEMENT_3D('',#1261,#1262,#1263);
#1261 = CARTESIAN_POINT('',(-272.,0.,20.));
#1262 = DIRECTION('',(-1.,0.,0.));
#1263 = DIRECTION('',(0.,-1.,0.));
#1264 = CYLINDRICAL_SURFACE('',#1265,8.5);
#1265 = AXIS2_PLACEMENT_3D('',#1266,#1267,#1268);
#1266 = CARTESIAN_POINT('',(-280.,0.,20.));
#1267 = DIRECTION('',(-1.,0.,0.));
#1268 = DIRECTION('',(0.,-1.,0.));
#1269 = ADVANCED_FACE('',(#1270),#1289,.T.);
#1270 = FACE_BOUND('',#1271,.T.);
#1271 = EDGE_LOOP('',(#1272,#1273,#1281,#1288));
#1272 = ORIENTED_EDGE('',*,*,#372,.T.);
#1273 = ORIENTED_EDGE('',*,*,#1274,.T.);
#1274 = EDGE_CURVE('',#365,#1275,#1277,.T.);
#1275 = VERTEX_POINT('',#1276);
#1276 = CARTESIAN_POINT('',(-274.,-35.,15.));
#1277 = LINE('',#1278,#1279);
#1278 = CARTESIAN_POINT('',(-274.,-35.,20.));
#1279 = VECTOR('',#1280,1.);
#1280 = DIRECTION('',(-0.,-0.,-1.));
#1281 = ORIENTED_EDGE('',*,*,#1282,.F.);
#1282 = EDGE_CURVE('',#1234,#1275,#1283,.T.);
#1283 = CIRCLE('',#1284,5.);
#1284 = AXIS2_PLACEMENT_3D('',#1285,#1286,#1287);
#1285 = CARTESIAN_POINT('',(-269.,-35.,15.));
#1286 = DIRECTION('',(0.,0.,-1.));
#1287 = DIRECTION('',(0.,1.,0.));
#1288 = ORIENTED_EDGE('',*,*,#1241,.F.);
#1289 = CYLINDRICAL_SURFACE('',#1290,5.);
#1290 = AXIS2_PLACEMENT_3D('',#1291,#1292,#1293);
#1291 = CARTESIAN_POINT('',(-269.,-35.,20.));
#1292 = DIRECTION('',(-0.,-0.,-1.));
#1293 = DIRECTION('',(0.,-1.,0.));
#1294 = ADVANCED_FACE('',(#1295),#1307,.T.);
#1295 = FACE_BOUND('',#1296,.T.);
#1296 = EDGE_LOOP('',(#1297,#1304,#1305,#1306));
#1297 = ORIENTED_EDGE('',*,*,#1298,.T.);
#1298 = EDGE_CURVE('',#316,#196,#1299,.T.);
#1299 = CIRCLE('',#1300,11.);
#1300 = AXIS2_PLACEMENT_3D('',#1301,#1302,#1303);
#1301 = CARTESIAN_POINT('',(-272.,-4.551914400963E-15,20.));
#1302 = DIRECTION('',(1.,4.440892098501E-16,-2.22044604925E-16));
#1303 = DIRECTION('',(-4.440892098501E-16,1.,2.22044604925E-16));
#1304 = ORIENTED_EDGE('',*,*,#195,.F.);
#1305 = ORIENTED_EDGE('',*,*,#1258,.T.);
#1306 = ORIENTED_EDGE('',*,*,#323,.F.);
#1307 = PLANE('',#1308);
#1308 = AXIS2_PLACEMENT_3D('',#1309,#1310,#1311);
#1309 = CARTESIAN_POINT('',(-272.,-5.332157353977E-15,20.));
#1310 = DIRECTION('',(1.,0.,0.));
#1311 = DIRECTION('',(0.,0.,1.));
#1312 = ADVANCED_FACE('',(#1313),#1331,.F.);
#1313 = FACE_BOUND('',#1314,.F.);
#1314 = EDGE_LOOP('',(#1315,#1316,#1317,#1325));
#1315 = ORIENTED_EDGE('',*,*,#364,.F.);
#1316 = ORIENTED_EDGE('',*,*,#1274,.T.);
#1317 = ORIENTED_EDGE('',*,*,#1318,.T.);
#1318 = EDGE_CURVE('',#1275,#1319,#1321,.T.);
#1319 = VERTEX_POINT('',#1320);
#1320 = CARTESIAN_POINT('',(-274.,-27.99998542892,15.));
#1321 = LINE('',#1322,#1323);
#1322 = CARTESIAN_POINT('',(-274.,-40.,15.));
#1323 = VECTOR('',#1324,1.);
#1324 = DIRECTION('',(0.,1.,0.));
#1325 = ORIENTED_EDGE('',*,*,#1326,.F.);
#1326 = EDGE_CURVE('',#356,#1319,#1327,.T.);
#1327 = LINE('',#1328,#1329);
#1328 = CARTESIAN_POINT('',(-274.,-27.99998542892,20.));
#1329 = VECTOR('',#1330,1.);
#1330 = DIRECTION('',(0.,0.,-1.));
#1331 = PLANE('',#1332);
#1332 = AXIS2_PLACEMENT_3D('',#1333,#1334,#1335);
#1333 = CARTESIAN_POINT('',(-274.,-40.,20.));
#1334 = DIRECTION('',(1.,0.,0.));
#1335 = DIRECTION('',(0.,1.,0.));
#1336 = ADVANCED_FACE('',(#1337),#1349,.F.);
#1337 = FACE_BOUND('',#1338,.F.);
#1338 = EDGE_LOOP('',(#1339,#1340,#1347,#1348));
#1339 = ORIENTED_EDGE('',*,*,#203,.F.);
#1340 = ORIENTED_EDGE('',*,*,#1341,.F.);
#1341 = EDGE_CURVE('',#308,#204,#1342,.T.);
#1342 = CIRCLE('',#1343,11.);
#1343 = AXIS2_PLACEMENT_3D('',#1344,#1345,#1346);
#1344 = CARTESIAN_POINT('',(-271.,-7.771561172376E-15,20.));
#1345 = DIRECTION('',(1.,4.440892098501E-16,-2.22044604925E-16));
#1346 = DIRECTION('',(-4.440892098501E-16,1.,2.22044604925E-16));
#1347 = ORIENTED_EDGE('',*,*,#315,.F.);
#1348 = ORIENTED_EDGE('',*,*,#1298,.T.);
#1349 = CYLINDRICAL_SURFACE('',#1350,11.);
#1350 = AXIS2_PLACEMENT_3D('',#1351,#1352,#1353);
#1351 = CARTESIAN_POINT('',(-261.,-3.330669073875E-15,20.));
#1352 = DIRECTION('',(1.,4.440892098501E-16,-2.22044604925E-16));
#1353 = DIRECTION('',(-4.440892098501E-16,1.,2.22044604925E-16));
#1354 = ADVANCED_FACE('',(#1355),#1367,.F.);
#1355 = FACE_BOUND('',#1356,.F.);
#1356 = EDGE_LOOP('',(#1357,#1358,#1359,#1366));
#1357 = ORIENTED_EDGE('',*,*,#355,.T.);
#1358 = ORIENTED_EDGE('',*,*,#1326,.T.);
#1359 = ORIENTED_EDGE('',*,*,#1360,.F.);
#1360 = EDGE_CURVE('',#1098,#1319,#1361,.T.);
#1361 = ELLIPSE('',#1362,4.242640687119,3.);
#1362 = AXIS2_PLACEMENT_3D('',#1363,#1364,#1365);
#1363 = CARTESIAN_POINT('',(-277.,-27.99998542892,12.));
#1364 = DIRECTION('',(0.707106781187,0.,-0.707106781187));
#1365 = DIRECTION('',(-0.707106781187,0.,-0.707106781187));
#1366 = ORIENTED_EDGE('',*,*,#1097,.F.);
#1367 = CYLINDRICAL_SURFACE('',#1368,3.);
#1368 = AXIS2_PLACEMENT_3D('',#1369,#1370,#1371);
#1369 = CARTESIAN_POINT('',(-277.,-27.99998542892,20.));
#1370 = DIRECTION('',(0.,0.,-1.));
#1371 = DIRECTION('',(0.,1.,0.));
#1372 = ADVANCED_FACE('',(#1373),#1385,.T.);
#1373 = FACE_BOUND('',#1374,.T.);
#1374 = EDGE_LOOP('',(#1375,#1376,#1383,#1384));
#1375 = ORIENTED_EDGE('',*,*,#307,.F.);
#1376 = ORIENTED_EDGE('',*,*,#1377,.F.);
#1377 = EDGE_CURVE('',#212,#300,#1378,.T.);
#1378 = CIRCLE('',#1379,16.05);
#1379 = AXIS2_PLACEMENT_3D('',#1380,#1381,#1382);
#1380 = CARTESIAN_POINT('',(-271.,0.,20.));
#1381 = DIRECTION('',(-1.,0.,0.));
#1382 = DIRECTION('',(0.,-1.,0.));
#1383 = ORIENTED_EDGE('',*,*,#211,.F.);
#1384 = ORIENTED_EDGE('',*,*,#1341,.F.);
#1385 = PLANE('',#1386);
#1386 = AXIS2_PLACEMENT_3D('',#1387,#1388,#1389);
#1387 = CARTESIAN_POINT('',(-271.,1.77E-15,14.440116907704));
#1388 = DIRECTION('',(1.,0.,-1.03E-15));
#1389 = DIRECTION('',(1.03E-15,0.,1.));
#1390 = ADVANCED_FACE('',(#1391),#1403,.F.);
#1391 = FACE_BOUND('',#1392,.T.);
#1392 = EDGE_LOOP('',(#1393,#1394,#1401,#1402));
#1393 = ORIENTED_EDGE('',*,*,#299,.F.);
#1394 = ORIENTED_EDGE('',*,*,#1395,.F.);
#1395 = EDGE_CURVE('',#220,#292,#1396,.T.);
#1396 = CIRCLE('',#1397,16.05);
#1397 = AXIS2_PLACEMENT_3D('',#1398,#1399,#1400);
#1398 = CARTESIAN_POINT('',(-262.,0.,20.));
#1399 = DIRECTION('',(-1.,0.,0.));
#1400 = DIRECTION('',(0.,-1.,0.));
#1401 = ORIENTED_EDGE('',*,*,#219,.F.);
#1402 = ORIENTED_EDGE('',*,*,#1377,.T.);
#1403 = CYLINDRICAL_SURFACE('',#1404,16.05);
#1404 = AXIS2_PLACEMENT_3D('',#1405,#1406,#1407);
#1405 = CARTESIAN_POINT('',(-262.,0.,20.));
#1406 = DIRECTION('',(1.,0.,0.));
#1407 = DIRECTION('',(0.,-1.,0.));
#1408 = ADVANCED_FACE('',(#1409),#1421,.T.);
#1409 = FACE_BOUND('',#1410,.T.);
#1410 = EDGE_LOOP('',(#1411,#1412,#1413,#1414));
#1411 = ORIENTED_EDGE('',*,*,#227,.T.);
#1412 = ORIENTED_EDGE('',*,*,#1395,.T.);
#1413 = ORIENTED_EDGE('',*,*,#291,.T.);
#1414 = ORIENTED_EDGE('',*,*,#1415,.T.);
#1415 = EDGE_CURVE('',#284,#228,#1416,.T.);
#1416 = CIRCLE('',#1417,11.);
#1417 = AXIS2_PLACEMENT_3D('',#1418,#1419,#1420);
#1418 = CARTESIAN_POINT('',(-262.,-3.774758283726E-15,20.));
#1419 = DIRECTION('',(1.,4.440892098501E-16,-2.22044604925E-16));
#1420 = DIRECTION('',(-4.440892098501E-16,1.,2.22044604925E-16));
#1421 = PLANE('',#1422);
#1422 = AXIS2_PLACEMENT_3D('',#1423,#1424,#1425);
#1423 = CARTESIAN_POINT('',(-262.,1.77E-15,14.440116907704));
#1424 = DIRECTION('',(-1.,0.,1.03E-15));
#1425 = DIRECTION('',(-1.03E-15,0.,-1.));
#1426 = ADVANCED_FACE('',(#1427),#1439,.F.);
#1427 = FACE_BOUND('',#1428,.F.);
#1428 = EDGE_LOOP('',(#1429,#1430,#1437,#1438));
#1429 = ORIENTED_EDGE('',*,*,#235,.F.);
#1430 = ORIENTED_EDGE('',*,*,#1431,.F.);
#1431 = EDGE_CURVE('',#276,#236,#1432,.T.);
#1432 = CIRCLE('',#1433,11.);
#1433 = AXIS2_PLACEMENT_3D('',#1434,#1435,#1436);
#1434 = CARTESIAN_POINT('',(-261.,-3.330669073875E-15,20.));
#1435 = DIRECTION('',(1.,4.440892098501E-16,-2.22044604925E-16));
#1436 = DIRECTION('',(-4.440892098501E-16,1.,2.22044604925E-16));
#1437 = ORIENTED_EDGE('',*,*,#283,.F.);
#1438 = ORIENTED_EDGE('',*,*,#1415,.T.);
#1439 = CYLINDRICAL_SURFACE('',#1440,11.);
#1440 = AXIS2_PLACEMENT_3D('',#1441,#1442,#1443);
#1441 = CARTESIAN_POINT('',(-261.,-3.330669073875E-15,20.));
#1442 = DIRECTION('',(1.,4.440892098501E-16,-2.22044604925E-16));
#1443 = DIRECTION('',(-4.440892098501E-16,1.,2.22044604925E-16));
#1444 = ADVANCED_FACE('',(#1445),#1457,.F.);
#1445 = FACE_BOUND('',#1446,.F.);
#1446 = EDGE_LOOP('',(#1447,#1448,#1449,#1456));
#1447 = ORIENTED_EDGE('',*,*,#1431,.T.);
#1448 = ORIENTED_EDGE('',*,*,#243,.F.);
#1449 = ORIENTED_EDGE('',*,*,#1450,.T.);
#1450 = EDGE_CURVE('',#244,#268,#1451,.T.);
#1451 = CIRCLE('',#1452,8.5);
#1452 = AXIS2_PLACEMENT_3D('',#1453,#1454,#1455);
#1453 = CARTESIAN_POINT('',(-261.,0.,20.));
#1454 = DIRECTION('',(-1.,0.,0.));
#1455 = DIRECTION('',(0.,-1.,0.));
#1456 = ORIENTED_EDGE('',*,*,#275,.F.);
#1457 = PLANE('',#1458);
#1458 = AXIS2_PLACEMENT_3D('',#1459,#1460,#1461);
#1459 = CARTESIAN_POINT('',(-261.,-4.110912026889E-15,20.));
#1460 = DIRECTION('',(1.,0.,0.));
#1461 = DIRECTION('',(0.,0.,1.));
#1462 = ADVANCED_FACE('',(#1463),#1475,.F.);
#1463 = FACE_BOUND('',#1464,.F.);
#1464 = EDGE_LOOP('',(#1465,#1472,#1473,#1474));
#1465 = ORIENTED_EDGE('',*,*,#1466,.T.);
#1466 = EDGE_CURVE('',#252,#260,#1467,.T.);
#1467 = CIRCLE('',#1468,8.5);
#1468 = AXIS2_PLACEMENT_3D('',#1469,#1470,#1471);
#1469 = CARTESIAN_POINT('',(-259.,0.,20.));
#1470 = DIRECTION('',(-1.,0.,0.));
#1471 = DIRECTION('',(0.,-1.,0.));
#1472 = ORIENTED_EDGE('',*,*,#267,.F.);
#1473 = ORIENTED_EDGE('',*,*,#1450,.F.);
#1474 = ORIENTED_EDGE('',*,*,#251,.F.);
#1475 = CYLINDRICAL_SURFACE('',#1476,8.5);
#1476 = AXIS2_PLACEMENT_3D('',#1477,#1478,#1479);
#1477 = CARTESIAN_POINT('',(-280.,0.,20.));
#1478 = DIRECTION('',(-1.,0.,0.));
#1479 = DIRECTION('',(0.,-1.,0.));
#1480 = ADVANCED_FACE('',(#1481),#1485,.F.);
#1481 = FACE_BOUND('',#1482,.F.);
#1482 = EDGE_LOOP('',(#1483,#1484));
#1483 = ORIENTED_EDGE('',*,*,#259,.F.);
#1484 = ORIENTED_EDGE('',*,*,#1466,.F.);
#1485 = PLANE('',#1486);
#1486 = AXIS2_PLACEMENT_3D('',#1487,#1488,#1489);
#1487 = CARTESIAN_POINT('',(-259.,9.652518582631E-16,20.));
#1488 = DIRECTION('',(1.,0.,0.));
#1489 = DIRECTION('',(0.,0.,1.));
#1490 = ADVANCED_FACE('',(#1491),#1510,.F.);
#1491 = FACE_BOUND('',#1492,.F.);
#1492 = EDGE_LOOP('',(#1493,#1501,#1502,#1503));
#1493 = ORIENTED_EDGE('',*,*,#1494,.T.);
#1494 = EDGE_CURVE('',#1495,#441,#1497,.T.);
#1495 = VERTEX_POINT('',#1496);
#1496 = CARTESIAN_POINT('',(-263.95,-32.5,15.));
#1497 = LINE('',#1498,#1499);
#1498 = CARTESIAN_POINT('',(-263.95,-32.5,15.));
#1499 = VECTOR('',#1500,1.);
#1500 = DIRECTION('',(0.,0.,1.));
#1501 = ORIENTED_EDGE('',*,*,#440,.T.);
#1502 = ORIENTED_EDGE('',*,*,#1494,.F.);
#1503 = ORIENTED_EDGE('',*,*,#1504,.F.);
#1504 = EDGE_CURVE('',#1495,#1495,#1505,.T.);
#1505 = CIRCLE('',#1506,2.55);
#1506 = AXIS2_PLACEMENT_3D('',#1507,#1508,#1509);
#1507 = CARTESIAN_POINT('',(-266.5,-32.5,15.));
#1508 = DIRECTION('',(0.,0.,-1.));
#1509 = DIRECTION('',(1.,0.,0.));
#1510 = CYLINDRICAL_SURFACE('',#1511,2.55);
#1511 = AXIS2_PLACEMENT_3D('',#1512,#1513,#1514);
#1512 = CARTESIAN_POINT('',(-266.5,-32.5,15.));
#1513 = DIRECTION('',(0.,0.,-1.));
#1514 = DIRECTION('',(1.,0.,0.));
#1515 = ADVANCED_FACE('',(#1516),#1535,.F.);
#1516 = FACE_BOUND('',#1517,.F.);
#1517 = EDGE_LOOP('',(#1518,#1526,#1527,#1528));
#1518 = ORIENTED_EDGE('',*,*,#1519,.T.);
#1519 = EDGE_CURVE('',#1520,#452,#1522,.T.);
#1520 = VERTEX_POINT('',#1521);
#1521 = CARTESIAN_POINT('',(-263.95,32.5,15.));
#1522 = LINE('',#1523,#1524);
#1523 = CARTESIAN_POINT('',(-263.95,32.5,15.));
#1524 = VECTOR('',#1525,1.);
#1525 = DIRECTION('',(0.,0.,1.));
#1526 = ORIENTED_EDGE('',*,*,#451,.T.);
#1527 = ORIENTED_EDGE('',*,*,#1519,.F.);
#1528 = ORIENTED_EDGE('',*,*,#1529,.F.);
#1529 = EDGE_CURVE('',#1520,#1520,#1530,.T.);
#1530 = CIRCLE('',#1531,2.55);
#1531 = AXIS2_PLACEMENT_3D('',#1532,#1533,#1534);
#1532 = CARTESIAN_POINT('',(-266.5,32.5,15.));
#1533 = DIRECTION('',(0.,0.,-1.));
#1534 = DIRECTION('',(1.,0.,0.));
#1535 = CYLINDRICAL_SURFACE('',#1536,2.55);
#1536 = AXIS2_PLACEMENT_3D('',#1537,#1538,#1539);
#1537 = CARTESIAN_POINT('',(-266.5,32.5,15.));
#1538 = DIRECTION('',(0.,0.,-1.));
#1539 = DIRECTION('',(1.,0.,0.));
#1540 = ADVANCED_FACE('',(#1541),#1552,.T.);
#1541 = FACE_BOUND('',#1542,.T.);
#1542 = EDGE_LOOP('',(#1543,#1544,#1550,#1551));
#1543 = ORIENTED_EDGE('',*,*,#547,.T.);
#1544 = ORIENTED_EDGE('',*,*,#1545,.T.);
#1545 = EDGE_CURVE('',#539,#741,#1546,.T.);
#1546 = LINE('',#1547,#1548);
#1547 = CARTESIAN_POINT('',(-280.,-20.91713944427,-3.504845353509));
#1548 = VECTOR('',#1549,1.);
#1549 = DIRECTION('',(1.,0.,0.));
#1550 = ORIENTED_EDGE('',*,*,#740,.F.);
#1551 = ORIENTED_EDGE('',*,*,#1125,.F.);
#1552 = CYLINDRICAL_SURFACE('',#1553,10.);
#1553 = AXIS2_PLACEMENT_3D('',#1554,#1555,#1556);
#1554 = CARTESIAN_POINT('',(-280.,-14.99998542892,4.556624013709));
#1555 = DIRECTION('',(1.,0.,0.));
#1556 = DIRECTION('',(0.,-1.,0.));
#1557 = ADVANCED_FACE('',(#1558),#1564,.T.);
#1558 = FACE_BOUND('',#1559,.T.);
#1559 = EDGE_LOOP('',(#1560,#1561,#1562,#1563));
#1560 = ORIENTED_EDGE('',*,*,#538,.F.);
#1561 = ORIENTED_EDGE('',*,*,#614,.F.);
#1562 = ORIENTED_EDGE('',*,*,#749,.T.);
#1563 = ORIENTED_EDGE('',*,*,#1545,.F.);
#1564 = CYLINDRICAL_SURFACE('',#1565,35.35);
#1565 = AXIS2_PLACEMENT_3D('',#1566,#1567,#1568);
#1566 = CARTESIAN_POINT('',(-280.,4.6E-15,24.992448859606));
#1567 = DIRECTION('',(-1.,0.,0.));
#1568 = DIRECTION('',(0.,-1.,0.));
#1569 = ADVANCED_FACE('',(#1570,#1578),#1581,.F.);
#1570 = FACE_BOUND('',#1571,.F.);
#1571 = EDGE_LOOP('',(#1572,#1573,#1574,#1575,#1576,#1577));
#1572 = ORIENTED_EDGE('',*,*,#1000,.T.);
#1573 = ORIENTED_EDGE('',*,*,#1031,.T.);
#1574 = ORIENTED_EDGE('',*,*,#1049,.T.);
#1575 = ORIENTED_EDGE('',*,*,#1073,.F.);
#1576 = ORIENTED_EDGE('',*,*,#1142,.T.);
#1577 = ORIENTED_EDGE('',*,*,#571,.F.);
#1578 = FACE_BOUND('',#1579,.F.);
#1579 = EDGE_LOOP('',(#1580));
#1580 = ORIENTED_EDGE('',*,*,#1529,.T.);
#1581 = PLANE('',#1582);
#1582 = AXIS2_PLACEMENT_3D('',#1583,#1584,#1585);
#1583 = CARTESIAN_POINT('',(-249.75,0.,15.));
#1584 = DIRECTION('',(0.,0.,1.));
#1585 = DIRECTION('',(1.,0.,0.));
#1586 = ADVANCED_FACE('',(#1587),#1606,.F.);
#1587 = FACE_BOUND('',#1588,.T.);
#1588 = EDGE_LOOP('',(#1589,#1590,#1598,#1605));
#1589 = ORIENTED_EDGE('',*,*,#869,.T.);
#1590 = ORIENTED_EDGE('',*,*,#1591,.T.);
#1591 = EDGE_CURVE('',#862,#1592,#1594,.T.);
#1592 = VERTEX_POINT('',#1593);
#1593 = CARTESIAN_POINT('',(-237.,21.,15.));
#1594 = LINE('',#1595,#1596);
#1595 = CARTESIAN_POINT('',(-237.,21.,20.));
#1596 = VECTOR('',#1597,1.);
#1597 = DIRECTION('',(0.,0.,-1.));
#1598 = ORIENTED_EDGE('',*,*,#1599,.F.);
#1599 = EDGE_CURVE('',#669,#1592,#1600,.T.);
#1600 = ELLIPSE('',#1601,4.242640687119,3.);
#1601 = AXIS2_PLACEMENT_3D('',#1602,#1603,#1604);
#1602 = CARTESIAN_POINT('',(-237.,24.,12.));
#1603 = DIRECTION('',(0.,0.707106781187,0.707106781187));
#1604 = DIRECTION('',(0.,0.707106781187,-0.707106781187));
#1605 = ORIENTED_EDGE('',*,*,#668,.F.);
#1606 = CYLINDRICAL_SURFACE('',#1607,3.);
#1607 = AXIS2_PLACEMENT_3D('',#1608,#1609,#1610);
#1608 = CARTESIAN_POINT('',(-237.,24.,20.));
#1609 = DIRECTION('',(0.,0.,-1.));
#1610 = DIRECTION('',(-1.,-0.,-0.));
#1611 = ADVANCED_FACE('',(#1612),#1631,.F.);
#1612 = FACE_BOUND('',#1613,.F.);
#1613 = EDGE_LOOP('',(#1614,#1623,#1629,#1630));
#1614 = ORIENTED_EDGE('',*,*,#1615,.T.);
#1615 = EDGE_CURVE('',#677,#1616,#1618,.T.);
#1616 = VERTEX_POINT('',#1617);
#1617 = CARTESIAN_POINT('',(-237.,6.,15.));
#1618 = ELLIPSE('',#1619,4.242640687119,3.);
#1619 = AXIS2_PLACEMENT_3D('',#1620,#1621,#1622);
#1620 = CARTESIAN_POINT('',(-237.,3.,12.));
#1621 = DIRECTION('',(0.,0.707106781187,-0.707106781187));
#1622 = DIRECTION('',(0.,0.707106781187,0.707106781187));
#1623 = ORIENTED_EDGE('',*,*,#1624,.T.);
#1624 = EDGE_CURVE('',#1616,#1592,#1625,.T.);
#1625 = LINE('',#1626,#1627);
#1626 = CARTESIAN_POINT('',(-237.,6.,15.));
#1627 = VECTOR('',#1628,1.);
#1628 = DIRECTION('',(0.,1.,0.));
#1629 = ORIENTED_EDGE('',*,*,#1599,.F.);
#1630 = ORIENTED_EDGE('',*,*,#676,.F.);
#1631 = CYLINDRICAL_SURFACE('',#1632,3.);
#1632 = AXIS2_PLACEMENT_3D('',#1633,#1634,#1635);
#1633 = CARTESIAN_POINT('',(-237.,6.,12.));
#1634 = DIRECTION('',(0.,1.,0.));
#1635 = DIRECTION('',(-1.,0.,0.));
#1636 = ADVANCED_FACE('',(#1637),#1648,.F.);
#1637 = FACE_BOUND('',#1638,.T.);
#1638 = EDGE_LOOP('',(#1639,#1640,#1646,#1647));
#1639 = ORIENTED_EDGE('',*,*,#1615,.T.);
#1640 = ORIENTED_EDGE('',*,*,#1641,.T.);
#1641 = EDGE_CURVE('',#1616,#819,#1642,.T.);
#1642 = LINE('',#1643,#1644);
#1643 = CARTESIAN_POINT('',(-237.,6.,15.));
#1644 = VECTOR('',#1645,1.);
#1645 = DIRECTION('',(0.,0.,1.));
#1646 = ORIENTED_EDGE('',*,*,#818,.F.);
#1647 = ORIENTED_EDGE('',*,*,#684,.F.);
#1648 = CYLINDRICAL_SURFACE('',#1649,3.);
#1649 = AXIS2_PLACEMENT_3D('',#1650,#1651,#1652);
#1650 = CARTESIAN_POINT('',(-237.,3.,15.));
#1651 = DIRECTION('',(0.,0.,1.));
#1652 = DIRECTION('',(-1.,0.,0.));
#1653 = ADVANCED_FACE('',(#1654),#1673,.F.);
#1654 = FACE_BOUND('',#1655,.F.);
#1655 = EDGE_LOOP('',(#1656,#1665,#1671,#1672));
#1656 = ORIENTED_EDGE('',*,*,#1657,.T.);
#1657 = EDGE_CURVE('',#701,#1658,#1660,.T.);
#1658 = VERTEX_POINT('',#1659);
#1659 = CARTESIAN_POINT('',(-237.,-6.,15.));
#1660 = ELLIPSE('',#1661,4.242640687119,3.);
#1661 = AXIS2_PLACEMENT_3D('',#1662,#1663,#1664);
#1662 = CARTESIAN_POINT('',(-237.,-3.,12.));
#1663 = DIRECTION('',(-0.,0.707106781187,0.707106781187));
#1664 = DIRECTION('',(0.,-0.707106781187,0.707106781187));
#1665 = ORIENTED_EDGE('',*,*,#1666,.T.);
#1666 = EDGE_CURVE('',#1658,#803,#1667,.T.);
#1667 = LINE('',#1668,#1669);
#1668 = CARTESIAN_POINT('',(-237.,-6.,15.));
#1669 = VECTOR('',#1670,1.);
#1670 = DIRECTION('',(0.,0.,1.));
#1671 = ORIENTED_EDGE('',*,*,#810,.F.);
#1672 = ORIENTED_EDGE('',*,*,#700,.F.);
#1673 = CYLINDRICAL_SURFACE('',#1674,3.);
#1674 = AXIS2_PLACEMENT_3D('',#1675,#1676,#1677);
#1675 = CARTESIAN_POINT('',(-237.,-3.,15.));
#1676 = DIRECTION('',(0.,0.,1.));
#1677 = DIRECTION('',(-1.,0.,0.));
#1678 = ADVANCED_FACE('',(#1679),#1698,.F.);
#1679 = FACE_BOUND('',#1680,.F.);
#1680 = EDGE_LOOP('',(#1681,#1690,#1696,#1697));
#1681 = ORIENTED_EDGE('',*,*,#1682,.T.);
#1682 = EDGE_CURVE('',#709,#1683,#1685,.T.);
#1683 = VERTEX_POINT('',#1684);
#1684 = CARTESIAN_POINT('',(-237.,-21.,15.));
#1685 = ELLIPSE('',#1686,4.242640687119,3.);
#1686 = AXIS2_PLACEMENT_3D('',#1687,#1688,#1689);
#1687 = CARTESIAN_POINT('',(-237.,-24.,12.));
#1688 = DIRECTION('',(0.,0.707106781187,-0.707106781187));
#1689 = DIRECTION('',(0.,-0.707106781187,-0.707106781187));
#1690 = ORIENTED_EDGE('',*,*,#1691,.T.);
#1691 = EDGE_CURVE('',#1683,#1658,#1692,.T.);
#1692 = LINE('',#1693,#1694);
#1693 = CARTESIAN_POINT('',(-237.,-21.,15.));
#1694 = VECTOR('',#1695,1.);
#1695 = DIRECTION('',(0.,1.,0.));
#1696 = ORIENTED_EDGE('',*,*,#1657,.F.);
#1697 = ORIENTED_EDGE('',*,*,#708,.F.);
#1698 = CYLINDRICAL_SURFACE('',#1699,3.);
#1699 = AXIS2_PLACEMENT_3D('',#1700,#1701,#1702);
#1700 = CARTESIAN_POINT('',(-237.,-21.,12.));
#1701 = DIRECTION('',(0.,1.,0.));
#1702 = DIRECTION('',(-1.,0.,0.));
#1703 = ADVANCED_FACE('',(#1704),#1715,.F.);
#1704 = FACE_BOUND('',#1705,.F.);
#1705 = EDGE_LOOP('',(#1706,#1707,#1713,#1714));
#1706 = ORIENTED_EDGE('',*,*,#894,.T.);
#1707 = ORIENTED_EDGE('',*,*,#1708,.T.);
#1708 = EDGE_CURVE('',#769,#1683,#1709,.T.);
#1709 = LINE('',#1710,#1711);
#1710 = CARTESIAN_POINT('',(-237.,-21.,20.));
#1711 = VECTOR('',#1712,1.);
#1712 = DIRECTION('',(0.,0.,-1.));
#1713 = ORIENTED_EDGE('',*,*,#1682,.F.);
#1714 = ORIENTED_EDGE('',*,*,#716,.F.);
#1715 = CYLINDRICAL_SURFACE('',#1716,3.);
#1716 = AXIS2_PLACEMENT_3D('',#1717,#1718,#1719);
#1717 = CARTESIAN_POINT('',(-237.,-24.,20.));
#1718 = DIRECTION('',(0.,0.,-1.));
#1719 = DIRECTION('',(-1.,-0.,-0.));
#1720 = ADVANCED_FACE('',(#1721),#1739,.F.);
#1721 = FACE_BOUND('',#1722,.F.);
#1722 = EDGE_LOOP('',(#1723,#1724,#1732,#1738));
#1723 = ORIENTED_EDGE('',*,*,#766,.F.);
#1724 = ORIENTED_EDGE('',*,*,#1725,.T.);
#1725 = EDGE_CURVE('',#767,#1726,#1728,.T.);
#1726 = VERTEX_POINT('',#1727);
#1727 = CARTESIAN_POINT('',(-230.,-21.,15.));
#1728 = LINE('',#1729,#1730);
#1729 = CARTESIAN_POINT('',(-230.,-21.,20.));
#1730 = VECTOR('',#1731,1.);
#1731 = DIRECTION('',(-0.,-0.,-1.));
#1732 = ORIENTED_EDGE('',*,*,#1733,.T.);
#1733 = EDGE_CURVE('',#1726,#1683,#1734,.T.);
#1734 = LINE('',#1735,#1736);
#1735 = CARTESIAN_POINT('',(-225.,-21.,15.));
#1736 = VECTOR('',#1737,1.);
#1737 = DIRECTION('',(-1.,0.,0.));
#1738 = ORIENTED_EDGE('',*,*,#1708,.F.);
#1739 = PLANE('',#1740);
#1740 = AXIS2_PLACEMENT_3D('',#1741,#1742,#1743);
#1741 = CARTESIAN_POINT('',(-225.,-21.,20.));
#1742 = DIRECTION('',(0.,1.,0.));
#1743 = DIRECTION('',(-1.,0.,0.));
#1744 = ADVANCED_FACE('',(#1745),#1764,.T.);
#1745 = FACE_BOUND('',#1746,.F.);
#1746 = EDGE_LOOP('',(#1747,#1748,#1756,#1763));
#1747 = ORIENTED_EDGE('',*,*,#776,.T.);
#1748 = ORIENTED_EDGE('',*,*,#1749,.T.);
#1749 = EDGE_CURVE('',#777,#1750,#1752,.T.);
#1750 = VERTEX_POINT('',#1751);
#1751 = CARTESIAN_POINT('',(-225.,-16.,15.));
#1752 = LINE('',#1753,#1754);
#1753 = CARTESIAN_POINT('',(-225.,-16.,20.));
#1754 = VECTOR('',#1755,1.);
#1755 = DIRECTION('',(-0.,-0.,-1.));
#1756 = ORIENTED_EDGE('',*,*,#1757,.F.);
#1757 = EDGE_CURVE('',#1726,#1750,#1758,.T.);
#1758 = CIRCLE('',#1759,5.);
#1759 = AXIS2_PLACEMENT_3D('',#1760,#1761,#1762);
#1760 = CARTESIAN_POINT('',(-230.,-16.,15.));
#1761 = DIRECTION('',(0.,-0.,1.));
#1762 = DIRECTION('',(0.,1.,0.));
#1763 = ORIENTED_EDGE('',*,*,#1725,.F.);
#1764 = CYLINDRICAL_SURFACE('',#1765,5.);
#1765 = AXIS2_PLACEMENT_3D('',#1766,#1767,#1768);
#1766 = CARTESIAN_POINT('',(-230.,-16.,20.));
#1767 = DIRECTION('',(-0.,-0.,-1.));
#1768 = DIRECTION('',(0.,-1.,0.));
#1769 = ADVANCED_FACE('',(#1770),#1788,.F.);
#1770 = FACE_BOUND('',#1771,.F.);
#1771 = EDGE_LOOP('',(#1772,#1773,#1781,#1787));
#1772 = ORIENTED_EDGE('',*,*,#785,.F.);
#1773 = ORIENTED_EDGE('',*,*,#1774,.T.);
#1774 = EDGE_CURVE('',#786,#1775,#1777,.T.);
#1775 = VERTEX_POINT('',#1776);
#1776 = CARTESIAN_POINT('',(-225.,-11.,15.));
#1777 = LINE('',#1778,#1779);
#1778 = CARTESIAN_POINT('',(-225.,-11.,20.));
#1779 = VECTOR('',#1780,1.);
#1780 = DIRECTION('',(-0.,-0.,-1.));
#1781 = ORIENTED_EDGE('',*,*,#1782,.T.);
#1782 = EDGE_CURVE('',#1775,#1750,#1783,.T.);
#1783 = LINE('',#1784,#1785);
#1784 = CARTESIAN_POINT('',(-225.,-6.,15.));
#1785 = VECTOR('',#1786,1.);
#1786 = DIRECTION('',(0.,-1.,0.));
#1787 = ORIENTED_EDGE('',*,*,#1749,.F.);
#1788 = PLANE('',#1789);
#1789 = AXIS2_PLACEMENT_3D('',#1790,#1791,#1792);
#1790 = CARTESIAN_POINT('',(-225.,-6.,20.));
#1791 = DIRECTION('',(-1.,0.,0.));
#1792 = DIRECTION('',(0.,-1.,0.));
#1793 = ADVANCED_FACE('',(#1794),#1813,.T.);
#1794 = FACE_BOUND('',#1795,.F.);
#1795 = EDGE_LOOP('',(#1796,#1797,#1805,#1812));
#1796 = ORIENTED_EDGE('',*,*,#793,.T.);
#1797 = ORIENTED_EDGE('',*,*,#1798,.T.);
#1798 = EDGE_CURVE('',#794,#1799,#1801,.T.);
#1799 = VERTEX_POINT('',#1800);
#1800 = CARTESIAN_POINT('',(-230.,-6.,15.));
#1801 = LINE('',#1802,#1803);
#1802 = CARTESIAN_POINT('',(-230.,-6.,20.));
#1803 = VECTOR('',#1804,1.);
#1804 = DIRECTION('',(-0.,-0.,-1.));
#1805 = ORIENTED_EDGE('',*,*,#1806,.F.);
#1806 = EDGE_CURVE('',#1775,#1799,#1807,.T.);
#1807 = CIRCLE('',#1808,5.);
#1808 = AXIS2_PLACEMENT_3D('',#1809,#1810,#1811);
#1809 = CARTESIAN_POINT('',(-230.,-11.,15.));
#1810 = DIRECTION('',(0.,-0.,1.));
#1811 = DIRECTION('',(0.,1.,0.));
#1812 = ORIENTED_EDGE('',*,*,#1774,.F.);
#1813 = CYLINDRICAL_SURFACE('',#1814,5.);
#1814 = AXIS2_PLACEMENT_3D('',#1815,#1816,#1817);
#1815 = CARTESIAN_POINT('',(-230.,-11.,20.));
#1816 = DIRECTION('',(-0.,-0.,-1.));
#1817 = DIRECTION('',(1.,0.,0.));
#1818 = ADVANCED_FACE('',(#1819),#1830,.F.);
#1819 = FACE_BOUND('',#1820,.F.);
#1820 = EDGE_LOOP('',(#1821,#1822,#1823,#1829));
#1821 = ORIENTED_EDGE('',*,*,#802,.F.);
#1822 = ORIENTED_EDGE('',*,*,#1666,.F.);
#1823 = ORIENTED_EDGE('',*,*,#1824,.T.);
#1824 = EDGE_CURVE('',#1658,#1799,#1825,.T.);
#1825 = LINE('',#1826,#1827);
#1826 = CARTESIAN_POINT('',(-241.,-6.,15.));
#1827 = VECTOR('',#1828,1.);
#1828 = DIRECTION('',(1.,0.,0.));
#1829 = ORIENTED_EDGE('',*,*,#1798,.F.);
#1830 = PLANE('',#1831);
#1831 = AXIS2_PLACEMENT_3D('',#1832,#1833,#1834);
#1832 = CARTESIAN_POINT('',(-241.,-6.,20.));
#1833 = DIRECTION('',(0.,-1.,0.));
#1834 = DIRECTION('',(1.,0.,0.));
#1835 = ADVANCED_FACE('',(#1836),#1854,.T.);
#1836 = FACE_BOUND('',#1837,.T.);
#1837 = EDGE_LOOP('',(#1838,#1839,#1847,#1853));
#1838 = ORIENTED_EDGE('',*,*,#861,.F.);
#1839 = ORIENTED_EDGE('',*,*,#1840,.T.);
#1840 = EDGE_CURVE('',#853,#1841,#1843,.T.);
#1841 = VERTEX_POINT('',#1842);
#1842 = CARTESIAN_POINT('',(-230.,21.,15.));
#1843 = LINE('',#1844,#1845);
#1844 = CARTESIAN_POINT('',(-230.,21.,20.));
#1845 = VECTOR('',#1846,1.);
#1846 = DIRECTION('',(-0.,-0.,-1.));
#1847 = ORIENTED_EDGE('',*,*,#1848,.T.);
#1848 = EDGE_CURVE('',#1841,#1592,#1849,.T.);
#1849 = LINE('',#1850,#1851);
#1850 = CARTESIAN_POINT('',(-225.,21.,15.));
#1851 = VECTOR('',#1852,1.);
#1852 = DIRECTION('',(-1.,0.,0.));
#1853 = ORIENTED_EDGE('',*,*,#1591,.F.);
#1854 = PLANE('',#1855);
#1855 = AXIS2_PLACEMENT_3D('',#1856,#1857,#1858);
#1856 = CARTESIAN_POINT('',(-225.,21.,20.));
#1857 = DIRECTION('',(0.,1.,0.));
#1858 = DIRECTION('',(-1.,0.,0.));
#1859 = ADVANCED_FACE('',(#1860),#1878,.T.);
#1860 = FACE_BOUND('',#1861,.T.);
#1861 = EDGE_LOOP('',(#1862,#1863,#1864,#1872));
#1862 = ORIENTED_EDGE('',*,*,#827,.F.);
#1863 = ORIENTED_EDGE('',*,*,#1641,.F.);
#1864 = ORIENTED_EDGE('',*,*,#1865,.T.);
#1865 = EDGE_CURVE('',#1616,#1866,#1868,.T.);
#1866 = VERTEX_POINT('',#1867);
#1867 = CARTESIAN_POINT('',(-230.,6.,15.));
#1868 = LINE('',#1869,#1870);
#1869 = CARTESIAN_POINT('',(-241.,6.,15.));
#1870 = VECTOR('',#1871,1.);
#1871 = DIRECTION('',(1.,0.,0.));
#1872 = ORIENTED_EDGE('',*,*,#1873,.F.);
#1873 = EDGE_CURVE('',#828,#1866,#1874,.T.);
#1874 = LINE('',#1875,#1876);
#1875 = CARTESIAN_POINT('',(-230.,6.,20.));
#1876 = VECTOR('',#1877,1.);
#1877 = DIRECTION('',(-0.,-0.,-1.));
#1878 = PLANE('',#1879);
#1879 = AXIS2_PLACEMENT_3D('',#1880,#1881,#1882);
#1880 = CARTESIAN_POINT('',(-241.,6.,20.));
#1881 = DIRECTION('',(0.,-1.,0.));
#1882 = DIRECTION('',(1.,0.,0.));
#1883 = ADVANCED_FACE('',(#1884),#1903,.T.);
#1884 = FACE_BOUND('',#1885,.T.);
#1885 = EDGE_LOOP('',(#1886,#1887,#1895,#1902));
#1886 = ORIENTED_EDGE('',*,*,#852,.T.);
#1887 = ORIENTED_EDGE('',*,*,#1888,.T.);
#1888 = EDGE_CURVE('',#845,#1889,#1891,.T.);
#1889 = VERTEX_POINT('',#1890);
#1890 = CARTESIAN_POINT('',(-225.,16.,15.));
#1891 = LINE('',#1892,#1893);
#1892 = CARTESIAN_POINT('',(-225.,16.,20.));
#1893 = VECTOR('',#1894,1.);
#1894 = DIRECTION('',(-0.,-0.,-1.));
#1895 = ORIENTED_EDGE('',*,*,#1896,.F.);
#1896 = EDGE_CURVE('',#1841,#1889,#1897,.T.);
#1897 = CIRCLE('',#1898,5.);
#1898 = AXIS2_PLACEMENT_3D('',#1899,#1900,#1901);
#1899 = CARTESIAN_POINT('',(-230.,16.,15.));
#1900 = DIRECTION('',(0.,0.,-1.));
#1901 = DIRECTION('',(0.,1.,0.));
#1902 = ORIENTED_EDGE('',*,*,#1840,.F.);
#1903 = CYLINDRICAL_SURFACE('',#1904,5.);
#1904 = AXIS2_PLACEMENT_3D('',#1905,#1906,#1907);
#1905 = CARTESIAN_POINT('',(-230.,16.,20.));
#1906 = DIRECTION('',(-0.,-0.,-1.));
#1907 = DIRECTION('',(0.,1.,0.));
#1908 = ADVANCED_FACE('',(#1909),#1928,.T.);
#1909 = FACE_BOUND('',#1910,.T.);
#1910 = EDGE_LOOP('',(#1911,#1912,#1913,#1922));
#1911 = ORIENTED_EDGE('',*,*,#835,.T.);
#1912 = ORIENTED_EDGE('',*,*,#1873,.T.);
#1913 = ORIENTED_EDGE('',*,*,#1914,.F.);
#1914 = EDGE_CURVE('',#1915,#1866,#1917,.T.);
#1915 = VERTEX_POINT('',#1916);
#1916 = CARTESIAN_POINT('',(-225.,11.,15.));
#1917 = CIRCLE('',#1918,5.);
#1918 = AXIS2_PLACEMENT_3D('',#1919,#1920,#1921);
#1919 = CARTESIAN_POINT('',(-230.,11.,15.));
#1920 = DIRECTION('',(0.,0.,-1.));
#1921 = DIRECTION('',(0.,1.,0.));
#1922 = ORIENTED_EDGE('',*,*,#1923,.F.);
#1923 = EDGE_CURVE('',#836,#1915,#1924,.T.);
#1924 = LINE('',#1925,#1926);
#1925 = CARTESIAN_POINT('',(-225.,11.,20.));
#1926 = VECTOR('',#1927,1.);
#1927 = DIRECTION('',(-0.,-0.,-1.));
#1928 = CYLINDRICAL_SURFACE('',#1929,5.);
#1929 = AXIS2_PLACEMENT_3D('',#1930,#1931,#1932);
#1930 = CARTESIAN_POINT('',(-230.,11.,20.));
#1931 = DIRECTION('',(-0.,-0.,-1.));
#1932 = DIRECTION('',(1.,0.,0.));
#1933 = ADVANCED_FACE('',(#1934),#1945,.T.);
#1934 = FACE_BOUND('',#1935,.T.);
#1935 = EDGE_LOOP('',(#1936,#1937,#1938,#1944));
#1936 = ORIENTED_EDGE('',*,*,#844,.F.);
#1937 = ORIENTED_EDGE('',*,*,#1923,.T.);
#1938 = ORIENTED_EDGE('',*,*,#1939,.T.);
#1939 = EDGE_CURVE('',#1915,#1889,#1940,.T.);
#1940 = LINE('',#1941,#1942);
#1941 = CARTESIAN_POINT('',(-225.,6.,15.));
#1942 = VECTOR('',#1943,1.);
#1943 = DIRECTION('',(0.,1.,0.));
#1944 = ORIENTED_EDGE('',*,*,#1888,.F.);
#1945 = PLANE('',#1946);
#1946 = AXIS2_PLACEMENT_3D('',#1947,#1948,#1949);
#1947 = CARTESIAN_POINT('',(-225.,6.,20.));
#1948 = DIRECTION('',(1.,0.,0.));
#1949 = DIRECTION('',(0.,1.,0.));
#1950 = ADVANCED_FACE('',(#1951),#1970,.F.);
#1951 = FACE_BOUND('',#1952,.F.);
#1952 = EDGE_LOOP('',(#1953,#1961,#1962,#1963));
#1953 = ORIENTED_EDGE('',*,*,#1954,.T.);
#1954 = EDGE_CURVE('',#1955,#904,#1957,.T.);
#1955 = VERTEX_POINT('',#1956);
#1956 = CARTESIAN_POINT('',(-229.95,-13.5,15.));
#1957 = LINE('',#1958,#1959);
#1958 = CARTESIAN_POINT('',(-229.95,-13.5,15.));
#1959 = VECTOR('',#1960,1.);
#1960 = DIRECTION('',(0.,0.,1.));
#1961 = ORIENTED_EDGE('',*,*,#903,.T.);
#1962 = ORIENTED_EDGE('',*,*,#1954,.F.);
#1963 = ORIENTED_EDGE('',*,*,#1964,.F.);
#1964 = EDGE_CURVE('',#1955,#1955,#1965,.T.);
#1965 = CIRCLE('',#1966,2.55);
#1966 = AXIS2_PLACEMENT_3D('',#1967,#1968,#1969);
#1967 = CARTESIAN_POINT('',(-232.5,-13.5,15.));
#1968 = DIRECTION('',(0.,0.,-1.));
#1969 = DIRECTION('',(1.,0.,0.));
#1970 = CYLINDRICAL_SURFACE('',#1971,2.55);
#1971 = AXIS2_PLACEMENT_3D('',#1972,#1973,#1974);
#1972 = CARTESIAN_POINT('',(-232.5,-13.5,15.));
#1973 = DIRECTION('',(0.,0.,-1.));
#1974 = DIRECTION('',(1.,0.,0.));
#1975 = ADVANCED_FACE('',(#1976),#1995,.F.);
#1976 = FACE_BOUND('',#1977,.F.);
#1977 = EDGE_LOOP('',(#1978,#1986,#1987,#1988));
#1978 = ORIENTED_EDGE('',*,*,#1979,.T.);
#1979 = EDGE_CURVE('',#1980,#915,#1982,.T.);
#1980 = VERTEX_POINT('',#1981);
#1981 = CARTESIAN_POINT('',(-229.95,13.5,15.));
#1982 = LINE('',#1983,#1984);
#1983 = CARTESIAN_POINT('',(-229.95,13.5,15.));
#1984 = VECTOR('',#1985,1.);
#1985 = DIRECTION('',(0.,0.,1.));
#1986 = ORIENTED_EDGE('',*,*,#914,.T.);
#1987 = ORIENTED_EDGE('',*,*,#1979,.F.);
#1988 = ORIENTED_EDGE('',*,*,#1989,.F.);
#1989 = EDGE_CURVE('',#1980,#1980,#1990,.T.);
#1990 = CIRCLE('',#1991,2.55);
#1991 = AXIS2_PLACEMENT_3D('',#1992,#1993,#1994);
#1992 = CARTESIAN_POINT('',(-232.5,13.5,15.));
#1993 = DIRECTION('',(0.,0.,-1.));
#1994 = DIRECTION('',(1.,0.,0.));
#1995 = CYLINDRICAL_SURFACE('',#1996,2.55);
#1996 = AXIS2_PLACEMENT_3D('',#1997,#1998,#1999);
#1997 = CARTESIAN_POINT('',(-232.5,13.5,15.));
#1998 = DIRECTION('',(0.,0.,-1.));
#1999 = DIRECTION('',(1.,0.,0.));
#2000 = ADVANCED_FACE('',(#2001),#2012,.F.);
#2001 = FACE_BOUND('',#2002,.F.);
#2002 = EDGE_LOOP('',(#2003,#2004,#2010,#2011));
#2003 = ORIENTED_EDGE('',*,*,#1360,.T.);
#2004 = ORIENTED_EDGE('',*,*,#2005,.T.);
#2005 = EDGE_CURVE('',#1319,#1158,#2006,.T.);
#2006 = LINE('',#2007,#2008);
#2007 = CARTESIAN_POINT('',(-274.,-27.99998542892,15.));
#2008 = VECTOR('',#2009,1.);
#2009 = DIRECTION('',(1.,0.,0.));
#2010 = ORIENTED_EDGE('',*,*,#1157,.F.);
#2011 = ORIENTED_EDGE('',*,*,#1105,.F.);
#2012 = CYLINDRICAL_SURFACE('',#2013,3.);
#2013 = AXIS2_PLACEMENT_3D('',#2014,#2015,#2016);
#2014 = CARTESIAN_POINT('',(-274.,-27.99998542892,12.));
#2015 = DIRECTION('',(1.,0.,0.));
#2016 = DIRECTION('',(0.,1.,0.));
#2017 = ADVANCED_FACE('',(#2018,#2026),#2029,.F.);
#2018 = FACE_BOUND('',#2019,.F.);
#2019 = EDGE_LOOP('',(#2020,#2021,#2022,#2023,#2024,#2025));
#2020 = ORIENTED_EDGE('',*,*,#1318,.F.);
#2021 = ORIENTED_EDGE('',*,*,#1282,.F.);
#2022 = ORIENTED_EDGE('',*,*,#1233,.F.);
#2023 = ORIENTED_EDGE('',*,*,#1215,.F.);
#2024 = ORIENTED_EDGE('',*,*,#1184,.F.);
#2025 = ORIENTED_EDGE('',*,*,#2005,.F.);
#2026 = FACE_BOUND('',#2027,.F.);
#2027 = EDGE_LOOP('',(#2028));
#2028 = ORIENTED_EDGE('',*,*,#1504,.T.);
#2029 = PLANE('',#2030);
#2030 = AXIS2_PLACEMENT_3D('',#2031,#2032,#2033);
#2031 = CARTESIAN_POINT('',(-249.75,0.,15.));
#2032 = DIRECTION('',(0.,0.,1.));
#2033 = DIRECTION('',(1.,0.,0.));
#2034 = ADVANCED_FACE('',(#2035,#2043),#2046,.F.);
#2035 = FACE_BOUND('',#2036,.F.);
#2036 = EDGE_LOOP('',(#2037,#2038,#2039,#2040,#2041,#2042));
#2037 = ORIENTED_EDGE('',*,*,#1848,.T.);
#2038 = ORIENTED_EDGE('',*,*,#1624,.F.);
#2039 = ORIENTED_EDGE('',*,*,#1865,.T.);
#2040 = ORIENTED_EDGE('',*,*,#1914,.F.);
#2041 = ORIENTED_EDGE('',*,*,#1939,.T.);
#2042 = ORIENTED_EDGE('',*,*,#1896,.F.);
#2043 = FACE_BOUND('',#2044,.F.);
#2044 = EDGE_LOOP('',(#2045));
#2045 = ORIENTED_EDGE('',*,*,#1989,.T.);
#2046 = PLANE('',#2047);
#2047 = AXIS2_PLACEMENT_3D('',#2048,#2049,#2050);
#2048 = CARTESIAN_POINT('',(-249.75,0.,15.));
#2049 = DIRECTION('',(0.,0.,1.));
#2050 = DIRECTION('',(1.,0.,0.));
#2051 = ADVANCED_FACE('',(#2052,#2060),#2063,.F.);
#2052 = FACE_BOUND('',#2053,.F.);
#2053 = EDGE_LOOP('',(#2054,#2055,#2056,#2057,#2058,#2059));
#2054 = ORIENTED_EDGE('',*,*,#1733,.F.);
#2055 = ORIENTED_EDGE('',*,*,#1757,.T.);
#2056 = ORIENTED_EDGE('',*,*,#1782,.F.);
#2057 = ORIENTED_EDGE('',*,*,#1806,.T.);
#2058 = ORIENTED_EDGE('',*,*,#1824,.F.);
#2059 = ORIENTED_EDGE('',*,*,#1691,.F.);
#2060 = FACE_BOUND('',#2061,.F.);
#2061 = EDGE_LOOP('',(#2062));
#2062 = ORIENTED_EDGE('',*,*,#1964,.T.);
#2063 = PLANE('',#2064);
#2064 = AXIS2_PLACEMENT_3D('',#2065,#2066,#2067);
#2065 = CARTESIAN_POINT('',(-249.75,0.,15.));
#2066 = DIRECTION('',(0.,0.,1.));
#2067 = DIRECTION('',(1.,0.,0.));
#2068 = ( GEOMETRIC_REPRESENTATION_CONTEXT(3) 
GLOBAL_UNCERTAINTY_ASSIGNED_CONTEXT((#2072)) 
GLOBAL_UNIT_ASSIGNED_CONTEXT((#2069,#2070,#2071)) REPRESENTATION_CONTEXT
('Context #1','3D Context with UNIT and UNCERTAINTY') );
#2069 = ( LENGTH_UNIT() NAMED_UNIT(*) SI_UNIT(.MILLI.,.METRE.) );
#2070 = ( NAMED_UNIT(*) PLANE_ANGLE_UNIT() SI_UNIT($,.RADIAN.) );
#2071 = ( NAMED_UNIT(*) SI_UNIT($,.STERADIAN.) SOLID_ANGLE_UNIT() );
#2072 = UNCERTAINTY_MEASURE_WITH_UNIT(LENGTH_MEASURE(1.E-04),#2069,
  'distance_accuracy_value','confusion accuracy');
#2073 = PRODUCT_RELATED_PRODUCT_CATEGORY('detail',$,(#7));
#2074 = PRODUCT_CATEGORY_RELATIONSHIP('','',#2075,#2073);
#2075 = PRODUCT_CATEGORY('part',$);
#2076 = CC_DESIGN_PERSON_AND_ORGANIZATION_ASSIGNMENT(#2077,#2080,(#6,#5)
  );
#2077 = PERSON_AND_ORGANIZATION(#2078,#2079);
#2078 = PERSON('IP169.254.190,karol','','karol',$,$,$);
#2079 = ORGANIZATION('IP169.254.190','Unspecified','');
#2080 = PERSON_AND_ORGANIZATION_ROLE('creator');
#2081 = CC_DESIGN_PERSON_AND_ORGANIZATION_ASSIGNMENT(#2077,#2082,(#7));
#2082 = PERSON_AND_ORGANIZATION_ROLE('design_owner');
#2083 = CC_DESIGN_PERSON_AND_ORGANIZATION_ASSIGNMENT(#2077,#2084,(#6));
#2084 = PERSON_AND_ORGANIZATION_ROLE('design_supplier');
#2085 = CC_DESIGN_PERSON_AND_ORGANIZATION_ASSIGNMENT(#2077,#2086,(#2087)
  );
#2086 = PERSON_AND_ORGANIZATION_ROLE('classification_officer');
#2087 = SECURITY_CLASSIFICATION('','',#2088);
#2088 = SECURITY_CLASSIFICATION_LEVEL('unclassified');
#2089 = CC_DESIGN_SECURITY_CLASSIFICATION(#2087,(#6));
#2090 = CC_DESIGN_DATE_AND_TIME_ASSIGNMENT(#2091,#2095,(#5));
#2091 = DATE_AND_TIME(#2092,#2093);
#2092 = CALENDAR_DATE(2026,10,5);
#2093 = LOCAL_TIME(12,9,$,#2094);
#2094 = COORDINATED_UNIVERSAL_TIME_OFFSET(1,$,.AHEAD.);
#2095 = DATE_TIME_ROLE('creation_date');
#2096 = CC_DESIGN_DATE_AND_TIME_ASSIGNMENT(#2091,#2097,(#2087));
#2097 = DATE_TIME_ROLE('classification_date');
#2098 = CC_DESIGN_APPROVAL(#2099,(#6,#5,#2087));
#2099 = APPROVAL(#2100,'');
#2100 = APPROVAL_STATUS('not_yet_approved');
#2101 = APPROVAL_PERSON_ORGANIZATION(#2077,#2099,#2102);
#2102 = APPROVAL_ROLE('approver');
#2103 = APPROVAL_DATE_TIME(#2091,#2099);
#2104 = MECHANICAL_DESIGN_GEOMETRIC_PRESENTATION_REPRESENTATION('',(
    #2105),#2068);
#2105 = STYLED_ITEM('color',(#2106),#15);
#2106 = PRESENTATION_STYLE_ASSIGNMENT((#2107,#2113));
#2107 = SURFACE_STYLE_USAGE(.BOTH.,#2108);
#2108 = SURFACE_SIDE_STYLE('',(#2109));
#2109 = SURFACE_STYLE_FILL_AREA(#2110);
#2110 = FILL_AREA_STYLE('',(#2111));
#2111 = FILL_AREA_STYLE_COLOUR('',#2112);
#2112 = COLOUR_RGB('',0.447058818107,0.474509808674,0.501960817233);
#2113 = CURVE_STYLE('',#2114,POSITIVE_LENGTH_MEASURE(0.1),#2115);
#2114 = DRAUGHTING_PRE_DEFINED_CURVE_FONT('continuous');
#2115 = COLOUR_RGB('',9.803921802644E-02,9.803921802644E-02,
  9.803921802644E-02);
ENDSEC;
END-ISO-10303-21;
