ISO-10303-21;
HEADER;
FILE_DESCRIPTION(('FreeCAD Model'),'2;1');
FILE_NAME('Open CASCADE Shape Model','2026-04-30T15:38:59',(''),(''),
  'Open CASCADE STEP processor 7.8','FreeCAD','Unknown');
FILE_SCHEMA(('CONFIG_CONTROL_DESIGN','SHAPE_APPEARANCE_LAYER_MIM'));
ENDSEC;
DATA;
#1 = APPLICATION_PROTOCOL_DEFINITION('international standard',
  'config_control_design',1994,#2);
#2 = APPLICATION_CONTEXT(
'configuration controlled 3D designs of mechanical parts and assemblies'
  );
#3 = SHAPE_DEFINITION_REPRESENTATION(#4,#10);
#4 = PRODUCT_DEFINITION_SHAPE('','',#5);
#5 = PRODUCT_DEFINITION('design','',#6,#9);
#6 = PRODUCT_DEFINITION_FORMATION_WITH_SPECIFIED_SOURCE('','',#7,
  .NOT_KNOWN.);
#7 = PRODUCT('Body','Body','',(#8));
#8 = MECHANICAL_CONTEXT('',#2,'mechanical');
#9 = DESIGN_CONTEXT('',#2,'design');
#10 = ADVANCED_BREP_SHAPE_REPRESENTATION('',(#11,#15),#445);
#11 = AXIS2_PLACEMENT_3D('',#12,#13,#14);
#12 = CARTESIAN_POINT('',(0.,0.,0.));
#13 = DIRECTION('',(0.,0.,1.));
#14 = DIRECTION('',(1.,0.,-0.));
#15 = MANIFOLD_SOLID_BREP('',#16);
#16 = CLOSED_SHELL('',(#17,#57,#99,#132,#198,#264,#281,#306,#323,#351,
    #368,#396,#413,#428));
#17 = ADVANCED_FACE('',(#18),#52,.T.);
#18 = FACE_BOUND('',#19,.T.);
#19 = EDGE_LOOP('',(#20,#30,#38,#46));
#20 = ORIENTED_EDGE('',*,*,#21,.T.);
#21 = EDGE_CURVE('',#22,#24,#26,.T.);
#22 = VERTEX_POINT('',#23);
#23 = CARTESIAN_POINT('',(-9.499999999943,2.109431062821E-15,
    9.500032948486));
#24 = VERTEX_POINT('',#25);
#25 = CARTESIAN_POINT('',(-9.499999999943,-6.,9.500032948486));
#26 = LINE('',#27,#28);
#27 = CARTESIAN_POINT('',(-9.499999999943,2.109431062821E-15,
    9.500032948486));
#28 = VECTOR('',#29,1.);
#29 = DIRECTION('',(0.,-1.,2.22044604925E-16));
#30 = ORIENTED_EDGE('',*,*,#31,.T.);
#31 = EDGE_CURVE('',#24,#32,#34,.T.);
#32 = VERTEX_POINT('',#33);
#33 = CARTESIAN_POINT('',(-6.499999999986,-6.,9.500010982829));
#34 = LINE('',#35,#36);
#35 = CARTESIAN_POINT('',(-9.499999999943,-6.,9.500032948486));
#36 = VECTOR('',#37,1.);
#37 = DIRECTION('',(1.,0.,0.));
#38 = ORIENTED_EDGE('',*,*,#39,.F.);
#39 = EDGE_CURVE('',#40,#32,#42,.T.);
#40 = VERTEX_POINT('',#41);
#41 = CARTESIAN_POINT('',(-6.499999999986,1.517307238999E-15,
    9.500010982829));
#42 = LINE('',#43,#44);
#43 = CARTESIAN_POINT('',(-6.499999999958,2.109431062821E-15,
    9.500032948486));
#44 = VECTOR('',#45,1.);
#45 = DIRECTION('',(0.,-1.,2.22044604925E-16));
#46 = ORIENTED_EDGE('',*,*,#47,.F.);
#47 = EDGE_CURVE('',#22,#40,#48,.T.);
#48 = LINE('',#49,#50);
#49 = CARTESIAN_POINT('',(-9.499999999943,2.109431062821E-15,
    9.500032948486));
#50 = VECTOR('',#51,1.);
#51 = DIRECTION('',(1.,0.,0.));
#52 = PLANE('',#53);
#53 = AXIS2_PLACEMENT_3D('',#54,#55,#56);
#54 = CARTESIAN_POINT('',(-9.499999999943,2.109431062821E-15,
    9.500032948486));
#55 = DIRECTION('',(0.,2.22044604925E-16,1.));
#56 = DIRECTION('',(1.,0.,0.));
#57 = ADVANCED_FACE('',(#58,#83),#94,.T.);
#58 = FACE_BOUND('',#59,.T.);
#59 = EDGE_LOOP('',(#60,#61,#69,#77));
#60 = ORIENTED_EDGE('',*,*,#21,.F.);
#61 = ORIENTED_EDGE('',*,*,#62,.T.);
#62 = EDGE_CURVE('',#22,#63,#65,.T.);
#63 = VERTEX_POINT('',#64);
#64 = CARTESIAN_POINT('',(-15.5,1.221245327088E-15,9.5));
#65 = LINE('',#66,#67);
#66 = CARTESIAN_POINT('',(-6.5,1.221245327088E-15,9.5));
#67 = VECTOR('',#68,1.);
#68 = DIRECTION('',(-1.,0.,0.));
#69 = ORIENTED_EDGE('',*,*,#70,.F.);
#70 = EDGE_CURVE('',#71,#63,#73,.T.);
#71 = VERTEX_POINT('',#72);
#72 = CARTESIAN_POINT('',(-15.5,-6.,9.5));
#73 = LINE('',#74,#75);
#74 = CARTESIAN_POINT('',(-15.5,-6.,9.5));
#75 = VECTOR('',#76,1.);
#76 = DIRECTION('',(0.,1.,-2.22044604925E-16));
#77 = ORIENTED_EDGE('',*,*,#78,.F.);
#78 = EDGE_CURVE('',#24,#71,#79,.T.);
#79 = LINE('',#80,#81);
#80 = CARTESIAN_POINT('',(-6.5,-6.,9.5));
#81 = VECTOR('',#82,1.);
#82 = DIRECTION('',(-1.,0.,0.));
#83 = FACE_BOUND('',#84,.T.);
#84 = EDGE_LOOP('',(#85));
#85 = ORIENTED_EDGE('',*,*,#86,.F.);
#86 = EDGE_CURVE('',#87,#87,#89,.T.);
#87 = VERTEX_POINT('',#88);
#88 = CARTESIAN_POINT('',(-14.05,-3.,9.5));
#89 = CIRCLE('',#90,1.55);
#90 = AXIS2_PLACEMENT_3D('',#91,#92,#93);
#91 = CARTESIAN_POINT('',(-12.5,-3.,9.5));
#92 = DIRECTION('',(0.,4.930380657631E-32,1.));
#93 = DIRECTION('',(-1.,0.,0.));
#94 = PLANE('',#95);
#95 = AXIS2_PLACEMENT_3D('',#96,#97,#98);
#96 = CARTESIAN_POINT('',(-6.5,-6.,9.5));
#97 = DIRECTION('',(0.,2.22044604925E-16,1.));
#98 = DIRECTION('',(-1.,0.,0.));
#99 = ADVANCED_FACE('',(#100),#127,.F.);
#100 = FACE_BOUND('',#101,.T.);
#101 = EDGE_LOOP('',(#102,#103,#112,#120));
#102 = ORIENTED_EDGE('',*,*,#39,.T.);
#103 = ORIENTED_EDGE('',*,*,#104,.T.);
#104 = EDGE_CURVE('',#32,#105,#107,.T.);
#105 = VERTEX_POINT('',#106);
#106 = CARTESIAN_POINT('',(6.499999999972,-6.,9.499989017172));
#107 = CIRCLE('',#108,6.5);
#108 = AXIS2_PLACEMENT_3D('',#109,#110,#111);
#109 = CARTESIAN_POINT('',(8.083646064514E-27,-6.,9.5));
#110 = DIRECTION('',(0.,-1.,2.22044604925E-16));
#111 = DIRECTION('',(1.,0.,0.));
#112 = ORIENTED_EDGE('',*,*,#113,.F.);
#113 = EDGE_CURVE('',#114,#105,#116,.T.);
#114 = VERTEX_POINT('',#115);
#115 = CARTESIAN_POINT('',(6.499999999972,1.517302361643E-15,
    9.499989017172));
#116 = LINE('',#117,#118);
#117 = CARTESIAN_POINT('',(6.499999999916,2.109416430755E-15,
    9.499967051517));
#118 = VECTOR('',#119,1.);
#119 = DIRECTION('',(0.,-1.,2.22044604925E-16));
#120 = ORIENTED_EDGE('',*,*,#121,.F.);
#121 = EDGE_CURVE('',#40,#114,#122,.T.);
#122 = CIRCLE('',#123,6.5);
#123 = AXIS2_PLACEMENT_3D('',#124,#125,#126);
#124 = CARTESIAN_POINT('',(8.083646064514E-27,2.109423746788E-15,9.5));
#125 = DIRECTION('',(0.,-1.,2.22044604925E-16));
#126 = DIRECTION('',(1.,0.,0.));
#127 = CYLINDRICAL_SURFACE('',#128,6.5);
#128 = AXIS2_PLACEMENT_3D('',#129,#130,#131);
#129 = CARTESIAN_POINT('',(8.083646064514E-27,2.109423746788E-15,9.5));
#130 = DIRECTION('',(0.,1.,-2.22044604925E-16));
#131 = DIRECTION('',(1.,0.,0.));
#132 = ADVANCED_FACE('',(#133),#193,.T.);
#133 = FACE_BOUND('',#134,.T.);
#134 = EDGE_LOOP('',(#135,#136,#137,#145,#153,#161,#169,#178,#186,#192)
  );
#135 = ORIENTED_EDGE('',*,*,#47,.T.);
#136 = ORIENTED_EDGE('',*,*,#121,.T.);
#137 = ORIENTED_EDGE('',*,*,#138,.F.);
#138 = EDGE_CURVE('',#139,#114,#141,.T.);
#139 = VERTEX_POINT('',#140);
#140 = CARTESIAN_POINT('',(9.499999999971,2.109416430755E-15,
    9.499967051517));
#141 = LINE('',#142,#143);
#142 = CARTESIAN_POINT('',(9.5,2.109416430755E-15,9.499967051517));
#143 = VECTOR('',#144,1.);
#144 = DIRECTION('',(-1.,0.,0.));
#145 = ORIENTED_EDGE('',*,*,#146,.T.);
#146 = EDGE_CURVE('',#139,#147,#149,.T.);
#147 = VERTEX_POINT('',#148);
#148 = CARTESIAN_POINT('',(15.5,1.221245327088E-15,9.5));
#149 = LINE('',#150,#151);
#150 = CARTESIAN_POINT('',(6.5,1.221245327088E-15,9.5));
#151 = VECTOR('',#152,1.);
#152 = DIRECTION('',(1.,0.,0.));
#153 = ORIENTED_EDGE('',*,*,#154,.T.);
#154 = EDGE_CURVE('',#147,#155,#157,.T.);
#155 = VERTEX_POINT('',#156);
#156 = CARTESIAN_POINT('',(15.5,7.771561172376E-16,7.5));
#157 = LINE('',#158,#159);
#158 = CARTESIAN_POINT('',(15.5,1.221245327088E-15,9.5));
#159 = VECTOR('',#160,1.);
#160 = DIRECTION('',(0.,-2.22044604925E-16,-1.));
#161 = ORIENTED_EDGE('',*,*,#162,.T.);
#162 = EDGE_CURVE('',#155,#163,#165,.T.);
#163 = VERTEX_POINT('',#164);
#164 = CARTESIAN_POINT('',(9.287087810503,1.221245327088E-15,7.5));
#165 = LINE('',#166,#167);
#166 = CARTESIAN_POINT('',(15.5,7.771561172376E-16,7.5));
#167 = VECTOR('',#168,1.);
#168 = DIRECTION('',(-1.,0.,0.));
#169 = ORIENTED_EDGE('',*,*,#170,.F.);
#170 = EDGE_CURVE('',#171,#163,#173,.T.);
#171 = VERTEX_POINT('',#172);
#172 = CARTESIAN_POINT('',(-9.287087810503,1.221245327088E-15,7.5));
#173 = CIRCLE('',#174,9.5);
#174 = AXIS2_PLACEMENT_3D('',#175,#176,#177);
#175 = CARTESIAN_POINT('',(8.083646064514E-27,2.109423746788E-15,9.5));
#176 = DIRECTION('',(0.,-1.,2.22044604925E-16));
#177 = DIRECTION('',(1.,0.,0.));
#178 = ORIENTED_EDGE('',*,*,#179,.F.);
#179 = EDGE_CURVE('',#180,#171,#182,.T.);
#180 = VERTEX_POINT('',#181);
#181 = CARTESIAN_POINT('',(-15.5,7.771561172376E-16,7.5));
#182 = LINE('',#183,#184);
#183 = CARTESIAN_POINT('',(-15.5,7.771561172376E-16,7.5));
#184 = VECTOR('',#185,1.);
#185 = DIRECTION('',(1.,0.,0.));
#186 = ORIENTED_EDGE('',*,*,#187,.F.);
#187 = EDGE_CURVE('',#63,#180,#188,.T.);
#188 = LINE('',#189,#190);
#189 = CARTESIAN_POINT('',(-15.5,1.221245327088E-15,9.5));
#190 = VECTOR('',#191,1.);
#191 = DIRECTION('',(0.,-2.22044604925E-16,-1.));
#192 = ORIENTED_EDGE('',*,*,#62,.F.);
#193 = PLANE('',#194);
#194 = AXIS2_PLACEMENT_3D('',#195,#196,#197);
#195 = CARTESIAN_POINT('',(-4.70339502899E-06,1.05533222627E-15,
    6.194497599152));
#196 = DIRECTION('',(0.,1.,-1.543673151765E-16));
#197 = DIRECTION('',(0.,-1.543673151765E-16,-1.));
#198 = ADVANCED_FACE('',(#199),#259,.T.);
#199 = FACE_BOUND('',#200,.T.);
#200 = EDGE_LOOP('',(#201,#202,#203,#211,#219,#228,#236,#244,#252,#258)
  );
#201 = ORIENTED_EDGE('',*,*,#31,.F.);
#202 = ORIENTED_EDGE('',*,*,#78,.T.);
#203 = ORIENTED_EDGE('',*,*,#204,.T.);
#204 = EDGE_CURVE('',#71,#205,#207,.T.);
#205 = VERTEX_POINT('',#206);
#206 = CARTESIAN_POINT('',(-15.5,-6.,7.5));
#207 = LINE('',#208,#209);
#208 = CARTESIAN_POINT('',(-15.5,-6.,9.5));
#209 = VECTOR('',#210,1.);
#210 = DIRECTION('',(0.,-2.22044604925E-16,-1.));
#211 = ORIENTED_EDGE('',*,*,#212,.T.);
#212 = EDGE_CURVE('',#205,#213,#215,.T.);
#213 = VERTEX_POINT('',#214);
#214 = CARTESIAN_POINT('',(-9.287087810503,-6.,7.5));
#215 = LINE('',#216,#217);
#216 = CARTESIAN_POINT('',(-15.5,-6.,7.5));
#217 = VECTOR('',#218,1.);
#218 = DIRECTION('',(1.,0.,0.));
#219 = ORIENTED_EDGE('',*,*,#220,.T.);
#220 = EDGE_CURVE('',#213,#221,#223,.T.);
#221 = VERTEX_POINT('',#222);
#222 = CARTESIAN_POINT('',(9.287087810503,-6.,7.5));
#223 = CIRCLE('',#224,9.5);
#224 = AXIS2_PLACEMENT_3D('',#225,#226,#227);
#225 = CARTESIAN_POINT('',(8.083646064514E-27,-6.,9.5));
#226 = DIRECTION('',(0.,-1.,2.22044604925E-16));
#227 = DIRECTION('',(1.,0.,0.));
#228 = ORIENTED_EDGE('',*,*,#229,.F.);
#229 = EDGE_CURVE('',#230,#221,#232,.T.);
#230 = VERTEX_POINT('',#231);
#231 = CARTESIAN_POINT('',(15.5,-6.,7.5));
#232 = LINE('',#233,#234);
#233 = CARTESIAN_POINT('',(15.5,-6.,7.5));
#234 = VECTOR('',#235,1.);
#235 = DIRECTION('',(-1.,0.,0.));
#236 = ORIENTED_EDGE('',*,*,#237,.F.);
#237 = EDGE_CURVE('',#238,#230,#240,.T.);
#238 = VERTEX_POINT('',#239);
#239 = CARTESIAN_POINT('',(15.5,-6.,9.5));
#240 = LINE('',#241,#242);
#241 = CARTESIAN_POINT('',(15.5,-6.,9.5));
#242 = VECTOR('',#243,1.);
#243 = DIRECTION('',(0.,-2.22044604925E-16,-1.));
#244 = ORIENTED_EDGE('',*,*,#245,.F.);
#245 = EDGE_CURVE('',#246,#238,#248,.T.);
#246 = VERTEX_POINT('',#247);
#247 = CARTESIAN_POINT('',(9.499999999971,-6.,9.499967051517));
#248 = LINE('',#249,#250);
#249 = CARTESIAN_POINT('',(6.5,-6.,9.5));
#250 = VECTOR('',#251,1.);
#251 = DIRECTION('',(1.,0.,0.));
#252 = ORIENTED_EDGE('',*,*,#253,.T.);
#253 = EDGE_CURVE('',#246,#105,#254,.T.);
#254 = LINE('',#255,#256);
#255 = CARTESIAN_POINT('',(9.5,-6.,9.499967051517));
#256 = VECTOR('',#257,1.);
#257 = DIRECTION('',(-1.,0.,0.));
#258 = ORIENTED_EDGE('',*,*,#104,.F.);
#259 = PLANE('',#260);
#260 = AXIS2_PLACEMENT_3D('',#261,#262,#263);
#261 = CARTESIAN_POINT('',(-4.703395029125E-06,-6.,6.194497599152));
#262 = DIRECTION('',(0.,-1.,3.615128918575E-16));
#263 = DIRECTION('',(0.,3.615128918575E-16,1.));
#264 = ADVANCED_FACE('',(#265),#276,.T.);
#265 = FACE_BOUND('',#266,.T.);
#266 = EDGE_LOOP('',(#267,#268,#269,#275));
#267 = ORIENTED_EDGE('',*,*,#70,.T.);
#268 = ORIENTED_EDGE('',*,*,#187,.T.);
#269 = ORIENTED_EDGE('',*,*,#270,.F.);
#270 = EDGE_CURVE('',#205,#180,#271,.T.);
#271 = LINE('',#272,#273);
#272 = CARTESIAN_POINT('',(-15.5,-6.,7.5));
#273 = VECTOR('',#274,1.);
#274 = DIRECTION('',(0.,1.,-2.22044604925E-16));
#275 = ORIENTED_EDGE('',*,*,#204,.F.);
#276 = PLANE('',#277);
#277 = AXIS2_PLACEMENT_3D('',#278,#279,#280);
#278 = CARTESIAN_POINT('',(-15.5,-6.,9.5));
#279 = DIRECTION('',(-1.,0.,0.));
#280 = DIRECTION('',(0.,-2.22044604925E-16,-1.));
#281 = ADVANCED_FACE('',(#282),#301,.F.);
#282 = FACE_BOUND('',#283,.F.);
#283 = EDGE_LOOP('',(#284,#285,#293,#300));
#284 = ORIENTED_EDGE('',*,*,#86,.F.);
#285 = ORIENTED_EDGE('',*,*,#286,.T.);
#286 = EDGE_CURVE('',#87,#287,#289,.T.);
#287 = VERTEX_POINT('',#288);
#288 = CARTESIAN_POINT('',(-14.05,-3.,7.5));
#289 = LINE('',#290,#291);
#290 = CARTESIAN_POINT('',(-14.05,-3.,9.5));
#291 = VECTOR('',#292,1.);
#292 = DIRECTION('',(0.,-4.930380657631E-32,-1.));
#293 = ORIENTED_EDGE('',*,*,#294,.T.);
#294 = EDGE_CURVE('',#287,#287,#295,.T.);
#295 = CIRCLE('',#296,1.55);
#296 = AXIS2_PLACEMENT_3D('',#297,#298,#299);
#297 = CARTESIAN_POINT('',(-12.5,-3.,7.5));
#298 = DIRECTION('',(0.,4.930380657631E-32,1.));
#299 = DIRECTION('',(-1.,-0.,0.));
#300 = ORIENTED_EDGE('',*,*,#286,.F.);
#301 = CYLINDRICAL_SURFACE('',#302,1.55);
#302 = AXIS2_PLACEMENT_3D('',#303,#304,#305);
#303 = CARTESIAN_POINT('',(-12.5,-3.,9.5));
#304 = DIRECTION('',(0.,4.930380657631E-32,1.));
#305 = DIRECTION('',(-1.,-0.,0.));
#306 = ADVANCED_FACE('',(#307),#318,.F.);
#307 = FACE_BOUND('',#308,.F.);
#308 = EDGE_LOOP('',(#309,#315,#316,#317));
#309 = ORIENTED_EDGE('',*,*,#310,.T.);
#310 = EDGE_CURVE('',#139,#246,#311,.T.);
#311 = LINE('',#312,#313);
#312 = CARTESIAN_POINT('',(9.499999999971,2.109416430755E-15,
    9.499967051517));
#313 = VECTOR('',#314,1.);
#314 = DIRECTION('',(0.,-1.,2.22044604925E-16));
#315 = ORIENTED_EDGE('',*,*,#253,.T.);
#316 = ORIENTED_EDGE('',*,*,#113,.F.);
#317 = ORIENTED_EDGE('',*,*,#138,.F.);
#318 = PLANE('',#319);
#319 = AXIS2_PLACEMENT_3D('',#320,#321,#322);
#320 = CARTESIAN_POINT('',(9.5,2.109416430755E-15,9.499967051517));
#321 = DIRECTION('',(0.,-2.22044604925E-16,-1.));
#322 = DIRECTION('',(-1.,0.,0.));
#323 = ADVANCED_FACE('',(#324,#335),#346,.F.);
#324 = FACE_BOUND('',#325,.F.);
#325 = EDGE_LOOP('',(#326,#327,#328,#334));
#326 = ORIENTED_EDGE('',*,*,#310,.F.);
#327 = ORIENTED_EDGE('',*,*,#146,.T.);
#328 = ORIENTED_EDGE('',*,*,#329,.F.);
#329 = EDGE_CURVE('',#238,#147,#330,.T.);
#330 = LINE('',#331,#332);
#331 = CARTESIAN_POINT('',(15.5,-6.,9.5));
#332 = VECTOR('',#333,1.);
#333 = DIRECTION('',(0.,1.,-2.22044604925E-16));
#334 = ORIENTED_EDGE('',*,*,#245,.F.);
#335 = FACE_BOUND('',#336,.F.);
#336 = EDGE_LOOP('',(#337));
#337 = ORIENTED_EDGE('',*,*,#338,.T.);
#338 = EDGE_CURVE('',#339,#339,#341,.T.);
#339 = VERTEX_POINT('',#340);
#340 = CARTESIAN_POINT('',(10.95,-3.,9.5));
#341 = CIRCLE('',#342,1.55);
#342 = AXIS2_PLACEMENT_3D('',#343,#344,#345);
#343 = CARTESIAN_POINT('',(12.5,-3.,9.5));
#344 = DIRECTION('',(0.,4.930380657631E-32,1.));
#345 = DIRECTION('',(-1.,0.,0.));
#346 = PLANE('',#347);
#347 = AXIS2_PLACEMENT_3D('',#348,#349,#350);
#348 = CARTESIAN_POINT('',(6.5,-6.,9.5));
#349 = DIRECTION('',(0.,-2.22044604925E-16,-1.));
#350 = DIRECTION('',(1.,0.,0.));
#351 = ADVANCED_FACE('',(#352),#363,.F.);
#352 = FACE_BOUND('',#353,.F.);
#353 = EDGE_LOOP('',(#354,#355,#356,#362));
#354 = ORIENTED_EDGE('',*,*,#329,.T.);
#355 = ORIENTED_EDGE('',*,*,#154,.T.);
#356 = ORIENTED_EDGE('',*,*,#357,.F.);
#357 = EDGE_CURVE('',#230,#155,#358,.T.);
#358 = LINE('',#359,#360);
#359 = CARTESIAN_POINT('',(15.5,-6.,7.5));
#360 = VECTOR('',#361,1.);
#361 = DIRECTION('',(0.,1.,-2.22044604925E-16));
#362 = ORIENTED_EDGE('',*,*,#237,.F.);
#363 = PLANE('',#364);
#364 = AXIS2_PLACEMENT_3D('',#365,#366,#367);
#365 = CARTESIAN_POINT('',(15.5,-6.,9.5));
#366 = DIRECTION('',(-1.,0.,0.));
#367 = DIRECTION('',(0.,-2.22044604925E-16,-1.));
#368 = ADVANCED_FACE('',(#369,#380),#391,.F.);
#369 = FACE_BOUND('',#370,.F.);
#370 = EDGE_LOOP('',(#371,#372,#373,#374));
#371 = ORIENTED_EDGE('',*,*,#229,.F.);
#372 = ORIENTED_EDGE('',*,*,#357,.T.);
#373 = ORIENTED_EDGE('',*,*,#162,.T.);
#374 = ORIENTED_EDGE('',*,*,#375,.F.);
#375 = EDGE_CURVE('',#221,#163,#376,.T.);
#376 = LINE('',#377,#378);
#377 = CARTESIAN_POINT('',(9.287087810503,1.665334536938E-15,7.5));
#378 = VECTOR('',#379,1.);
#379 = DIRECTION('',(0.,1.,-2.22044604925E-16));
#380 = FACE_BOUND('',#381,.F.);
#381 = EDGE_LOOP('',(#382));
#382 = ORIENTED_EDGE('',*,*,#383,.F.);
#383 = EDGE_CURVE('',#384,#384,#386,.T.);
#384 = VERTEX_POINT('',#385);
#385 = CARTESIAN_POINT('',(10.95,-3.,7.5));
#386 = CIRCLE('',#387,1.55);
#387 = AXIS2_PLACEMENT_3D('',#388,#389,#390);
#388 = CARTESIAN_POINT('',(12.5,-3.,7.5));
#389 = DIRECTION('',(0.,4.930380657631E-32,1.));
#390 = DIRECTION('',(-1.,-0.,0.));
#391 = PLANE('',#392);
#392 = AXIS2_PLACEMENT_3D('',#393,#394,#395);
#393 = CARTESIAN_POINT('',(15.5,-6.,7.5));
#394 = DIRECTION('',(0.,2.22044604925E-16,1.));
#395 = DIRECTION('',(-1.,0.,0.));
#396 = ADVANCED_FACE('',(#397),#408,.T.);
#397 = FACE_BOUND('',#398,.F.);
#398 = EDGE_LOOP('',(#399,#400,#406,#407));
#399 = ORIENTED_EDGE('',*,*,#170,.F.);
#400 = ORIENTED_EDGE('',*,*,#401,.F.);
#401 = EDGE_CURVE('',#213,#171,#402,.T.);
#402 = LINE('',#403,#404);
#403 = CARTESIAN_POINT('',(-9.287087810503,1.665334536938E-15,7.5));
#404 = VECTOR('',#405,1.);
#405 = DIRECTION('',(0.,1.,-2.22044604925E-16));
#406 = ORIENTED_EDGE('',*,*,#220,.T.);
#407 = ORIENTED_EDGE('',*,*,#375,.T.);
#408 = CYLINDRICAL_SURFACE('',#409,9.5);
#409 = AXIS2_PLACEMENT_3D('',#410,#411,#412);
#410 = CARTESIAN_POINT('',(8.083646064514E-27,2.109423746788E-15,9.5));
#411 = DIRECTION('',(0.,1.,-2.22044604925E-16));
#412 = DIRECTION('',(1.,0.,0.));
#413 = ADVANCED_FACE('',(#414,#420),#423,.T.);
#414 = FACE_BOUND('',#415,.T.);
#415 = EDGE_LOOP('',(#416,#417,#418,#419));
#416 = ORIENTED_EDGE('',*,*,#212,.F.);
#417 = ORIENTED_EDGE('',*,*,#270,.T.);
#418 = ORIENTED_EDGE('',*,*,#179,.T.);
#419 = ORIENTED_EDGE('',*,*,#401,.F.);
#420 = FACE_BOUND('',#421,.T.);
#421 = EDGE_LOOP('',(#422));
#422 = ORIENTED_EDGE('',*,*,#294,.T.);
#423 = PLANE('',#424);
#424 = AXIS2_PLACEMENT_3D('',#425,#426,#427);
#425 = CARTESIAN_POINT('',(-15.5,-6.,7.5));
#426 = DIRECTION('',(0.,-2.22044604925E-16,-1.));
#427 = DIRECTION('',(1.,0.,0.));
#428 = ADVANCED_FACE('',(#429),#440,.F.);
#429 = FACE_BOUND('',#430,.F.);
#430 = EDGE_LOOP('',(#431,#432,#438,#439));
#431 = ORIENTED_EDGE('',*,*,#338,.F.);
#432 = ORIENTED_EDGE('',*,*,#433,.T.);
#433 = EDGE_CURVE('',#339,#384,#434,.T.);
#434 = LINE('',#435,#436);
#435 = CARTESIAN_POINT('',(10.95,-3.,9.5));
#436 = VECTOR('',#437,1.);
#437 = DIRECTION('',(0.,-4.930380657631E-32,-1.));
#438 = ORIENTED_EDGE('',*,*,#383,.T.);
#439 = ORIENTED_EDGE('',*,*,#433,.F.);
#440 = CYLINDRICAL_SURFACE('',#441,1.55);
#441 = AXIS2_PLACEMENT_3D('',#442,#443,#444);
#442 = CARTESIAN_POINT('',(12.5,-3.,9.5));
#443 = DIRECTION('',(0.,4.930380657631E-32,1.));
#444 = DIRECTION('',(-1.,-0.,0.));
#445 = ( GEOMETRIC_REPRESENTATION_CONTEXT(3) 
GLOBAL_UNCERTAINTY_ASSIGNED_CONTEXT((#449)) GLOBAL_UNIT_ASSIGNED_CONTEXT
((#446,#447,#448)) REPRESENTATION_CONTEXT('Context #1',
  '3D Context with UNIT and UNCERTAINTY') );
#446 = ( LENGTH_UNIT() NAMED_UNIT(*) SI_UNIT(.MILLI.,.METRE.) );
#447 = ( NAMED_UNIT(*) PLANE_ANGLE_UNIT() SI_UNIT($,.RADIAN.) );
#448 = ( NAMED_UNIT(*) SI_UNIT($,.STERADIAN.) SOLID_ANGLE_UNIT() );
#449 = UNCERTAINTY_MEASURE_WITH_UNIT(LENGTH_MEASURE(1.E-04),#446,
  'distance_accuracy_value','confusion accuracy');
#450 = PRODUCT_RELATED_PRODUCT_CATEGORY('detail',$,(#7));
#451 = PRODUCT_CATEGORY_RELATIONSHIP('','',#452,#450);
#452 = PRODUCT_CATEGORY('part',$);
#453 = CC_DESIGN_PERSON_AND_ORGANIZATION_ASSIGNMENT(#454,#457,(#6,#5));
#454 = PERSON_AND_ORGANIZATION(#455,#456);
#455 = PERSON('IP169.254.190,karol','','karol',$,$,$);
#456 = ORGANIZATION('IP169.254.190','Unspecified','');
#457 = PERSON_AND_ORGANIZATION_ROLE('creator');
#458 = CC_DESIGN_PERSON_AND_ORGANIZATION_ASSIGNMENT(#454,#459,(#7));
#459 = PERSON_AND_ORGANIZATION_ROLE('design_owner');
#460 = CC_DESIGN_PERSON_AND_ORGANIZATION_ASSIGNMENT(#454,#461,(#6));
#461 = PERSON_AND_ORGANIZATION_ROLE('design_supplier');
#462 = CC_DESIGN_PERSON_AND_ORGANIZATION_ASSIGNMENT(#454,#463,(#464));
#463 = PERSON_AND_ORGANIZATION_ROLE('classification_officer');
#464 = SECURITY_CLASSIFICATION('','',#465);
#465 = SECURITY_CLASSIFICATION_LEVEL('unclassified');
#466 = CC_DESIGN_SECURITY_CLASSIFICATION(#464,(#6));
#467 = CC_DESIGN_DATE_AND_TIME_ASSIGNMENT(#468,#472,(#5));
#468 = DATE_AND_TIME(#469,#470);
#469 = CALENDAR_DATE(2026,30,4);
#470 = LOCAL_TIME(15,10,$,#471);
#471 = COORDINATED_UNIVERSAL_TIME_OFFSET(1,$,.AHEAD.);
#472 = DATE_TIME_ROLE('creation_date');
#473 = CC_DESIGN_DATE_AND_TIME_ASSIGNMENT(#468,#474,(#464));
#474 = DATE_TIME_ROLE('classification_date');
#475 = CC_DESIGN_APPROVAL(#476,(#6,#5,#464));
#476 = APPROVAL(#477,'');
#477 = APPROVAL_STATUS('not_yet_approved');
#478 = APPROVAL_PERSON_ORGANIZATION(#454,#476,#479);
#479 = APPROVAL_ROLE('approver');
#480 = APPROVAL_DATE_TIME(#468,#476);
#481 = MECHANICAL_DESIGN_GEOMETRIC_PRESENTATION_REPRESENTATION('',(#482)
  ,#445);
#482 = STYLED_ITEM('color',(#483),#15);
#483 = PRESENTATION_STYLE_ASSIGNMENT((#484,#490));
#484 = SURFACE_STYLE_USAGE(.BOTH.,#485);
#485 = SURFACE_SIDE_STYLE('',(#486));
#486 = SURFACE_STYLE_FILL_AREA(#487);
#487 = FILL_AREA_STYLE('',(#488));
#488 = FILL_AREA_STYLE_COLOUR('',#489);
#489 = COLOUR_RGB('',0.447059003357,0.474510015008,0.501960993452);
#490 = CURVE_STYLE('',#491,POSITIVE_LENGTH_MEASURE(0.1),#492);
#491 = DRAUGHTING_PRE_DEFINED_CURVE_FONT('continuous');
#492 = COLOUR_RGB('',9.803921802644E-02,9.803921802644E-02,
  9.803921802644E-02);
ENDSEC;
END-ISO-10303-21;
