ISO-10303-21;
HEADER;
FILE_DESCRIPTION(('FreeCAD Model'),'2;1');
FILE_NAME('Open CASCADE Shape Model','2026-05-25T18:22:35',(''),(''),
  'Open CASCADE STEP processor 7.8','FreeCAD','Unknown');
FILE_SCHEMA(('CONFIG_CONTROL_DESIGN','SHAPE_APPEARANCE_LAYER_MIM'));
ENDSEC;
DATA;
#1 = APPLICATION_PROTOCOL_DEFINITION('international standard',
  'config_control_design',1994,#2);
#2 = APPLICATION_CONTEXT(
'configuration controlled 3D designs of mechanical parts and assemblies'
  );
#3 = SHAPE_DEFINITION_REPRESENTATION(#4,#10);
#4 = PRODUCT_DEFINITION_SHAPE('','',#5);
#5 = PRODUCT_DEFINITION('design','',#6,#9);
#6 = PRODUCT_DEFINITION_FORMATION_WITH_SPECIFIED_SOURCE('','',#7,
  .NOT_KNOWN.);
#7 = PRODUCT('Zawartość','Zawartość','',(#8));
#8 = MECHANICAL_CONTEXT('',#2,'mechanical');
#9 = DESIGN_CONTEXT('',#2,'design');
#10 = ADVANCED_BREP_SHAPE_REPRESENTATION('',(#11,#15),#1489);
#11 = AXIS2_PLACEMENT_3D('',#12,#13,#14);
#12 = CARTESIAN_POINT('',(0.,0.,0.));
#13 = DIRECTION('',(0.,0.,1.));
#14 = DIRECTION('',(1.,0.,-0.));
#15 = MANIFOLD_SOLID_BREP('',#16);
#16 = CLOSED_SHELL('',(#17,#139,#285,#316,#340,#408,#483,#507,#532,#557,
    #705,#730,#754,#821,#853,#869,#885,#910,#935,#960,#985,#1016,#1040,
    #1064,#1088,#1112,#1129,#1160,#1184,#1208,#1232,#1256,#1273,#1298,
    #1323,#1348,#1373,#1382,#1391,#1413,#1465,#1477));
#17 = ADVANCED_FACE('',(#18),#134,.T.);
#18 = FACE_BOUND('',#19,.T.);
#19 = EDGE_LOOP('',(#20,#30,#38,#46,#54,#62,#71,#79,#87,#95,#103,#111,
    #119,#127));
#20 = ORIENTED_EDGE('',*,*,#21,.F.);
#21 = EDGE_CURVE('',#22,#24,#26,.T.);
#22 = VERTEX_POINT('',#23);
#23 = CARTESIAN_POINT('',(30.,20.,3.));
#24 = VERTEX_POINT('',#25);
#25 = CARTESIAN_POINT('',(18.,20.,3.));
#26 = LINE('',#27,#28);
#27 = CARTESIAN_POINT('',(30.,20.,3.));
#28 = VECTOR('',#29,1.);
#29 = DIRECTION('',(-1.,0.,0.));
#30 = ORIENTED_EDGE('',*,*,#31,.F.);
#31 = EDGE_CURVE('',#32,#22,#34,.T.);
#32 = VERTEX_POINT('',#33);
#33 = CARTESIAN_POINT('',(30.,20.,0.));
#34 = LINE('',#35,#36);
#35 = CARTESIAN_POINT('',(30.,20.,0.));
#36 = VECTOR('',#37,1.);
#37 = DIRECTION('',(0.,0.,1.));
#38 = ORIENTED_EDGE('',*,*,#39,.T.);
#39 = EDGE_CURVE('',#32,#40,#42,.T.);
#40 = VERTEX_POINT('',#41);
#41 = CARTESIAN_POINT('',(-30.,20.,0.));
#42 = LINE('',#43,#44);
#43 = CARTESIAN_POINT('',(30.,20.,0.));
#44 = VECTOR('',#45,1.);
#45 = DIRECTION('',(-1.,0.,0.));
#46 = ORIENTED_EDGE('',*,*,#47,.T.);
#47 = EDGE_CURVE('',#40,#48,#50,.T.);
#48 = VERTEX_POINT('',#49);
#49 = CARTESIAN_POINT('',(-30.,20.,3.));
#50 = LINE('',#51,#52);
#51 = CARTESIAN_POINT('',(-30.,20.,0.));
#52 = VECTOR('',#53,1.);
#53 = DIRECTION('',(0.,0.,1.));
#54 = ORIENTED_EDGE('',*,*,#55,.F.);
#55 = EDGE_CURVE('',#56,#48,#58,.T.);
#56 = VERTEX_POINT('',#57);
#57 = CARTESIAN_POINT('',(-18.,20.,3.));
#58 = LINE('',#59,#60);
#59 = CARTESIAN_POINT('',(30.,20.,3.));
#60 = VECTOR('',#61,1.);
#61 = DIRECTION('',(-1.,0.,0.));
#62 = ORIENTED_EDGE('',*,*,#63,.T.);
#63 = EDGE_CURVE('',#56,#64,#66,.T.);
#64 = VERTEX_POINT('',#65);
#65 = CARTESIAN_POINT('',(-15.,20.,6.));
#66 = CIRCLE('',#67,3.);
#67 = AXIS2_PLACEMENT_3D('',#68,#69,#70);
#68 = CARTESIAN_POINT('',(-18.,20.,6.));
#69 = DIRECTION('',(0.,-1.,0.));
#70 = DIRECTION('',(0.,0.,-1.));
#71 = ORIENTED_EDGE('',*,*,#72,.T.);
#72 = EDGE_CURVE('',#64,#73,#75,.T.);
#73 = VERTEX_POINT('',#74);
#74 = CARTESIAN_POINT('',(-15.,20.,23.));
#75 = LINE('',#76,#77);
#76 = CARTESIAN_POINT('',(-15.,20.,3.));
#77 = VECTOR('',#78,1.);
#78 = DIRECTION('',(0.,0.,1.));
#79 = ORIENTED_EDGE('',*,*,#80,.F.);
#80 = EDGE_CURVE('',#81,#73,#83,.T.);
#81 = VERTEX_POINT('',#82);
#82 = CARTESIAN_POINT('',(-2.339213467257,20.000000000005,23.));
#83 = LINE('',#84,#85);
#84 = CARTESIAN_POINT('',(15.,20.,23.));
#85 = VECTOR('',#86,1.);
#86 = DIRECTION('',(-1.,0.,0.));
#87 = ORIENTED_EDGE('',*,*,#88,.F.);
#88 = EDGE_CURVE('',#89,#81,#91,.T.);
#89 = VERTEX_POINT('',#90);
#90 = CARTESIAN_POINT('',(-2.339213467258,20.,3.));
#91 = LINE('',#92,#93);
#92 = CARTESIAN_POINT('',(-2.339213467258,20.,23.));
#93 = VECTOR('',#94,1.);
#94 = DIRECTION('',(0.,0.,1.));
#95 = ORIENTED_EDGE('',*,*,#96,.T.);
#96 = EDGE_CURVE('',#89,#97,#99,.T.);
#97 = VERTEX_POINT('',#98);
#98 = CARTESIAN_POINT('',(0.667409058085,20.,3.));
#99 = LINE('',#100,#101);
#100 = CARTESIAN_POINT('',(150.,20.,3.));
#101 = VECTOR('',#102,1.);
#102 = DIRECTION('',(1.,0.,0.));
#103 = ORIENTED_EDGE('',*,*,#104,.T.);
#104 = EDGE_CURVE('',#97,#105,#107,.T.);
#105 = VERTEX_POINT('',#106);
#106 = CARTESIAN_POINT('',(0.667409058084,19.999999999997,23.));
#107 = LINE('',#108,#109);
#108 = CARTESIAN_POINT('',(0.667409058085,20.,23.));
#109 = VECTOR('',#110,1.);
#110 = DIRECTION('',(0.,0.,1.));
#111 = ORIENTED_EDGE('',*,*,#112,.F.);
#112 = EDGE_CURVE('',#113,#105,#115,.T.);
#113 = VERTEX_POINT('',#114);
#114 = CARTESIAN_POINT('',(15.,20.,23.));
#115 = LINE('',#116,#117);
#116 = CARTESIAN_POINT('',(15.,20.,23.));
#117 = VECTOR('',#118,1.);
#118 = DIRECTION('',(-1.,0.,0.));
#119 = ORIENTED_EDGE('',*,*,#120,.F.);
#120 = EDGE_CURVE('',#121,#113,#123,.T.);
#121 = VERTEX_POINT('',#122);
#122 = CARTESIAN_POINT('',(15.,20.,6.));
#123 = LINE('',#124,#125);
#124 = CARTESIAN_POINT('',(15.,20.,3.));
#125 = VECTOR('',#126,1.);
#126 = DIRECTION('',(0.,0.,1.));
#127 = ORIENTED_EDGE('',*,*,#128,.F.);
#128 = EDGE_CURVE('',#24,#121,#129,.T.);
#129 = CIRCLE('',#130,3.);
#130 = AXIS2_PLACEMENT_3D('',#131,#132,#133);
#131 = CARTESIAN_POINT('',(18.,20.,6.));
#132 = DIRECTION('',(0.,1.,0.));
#133 = DIRECTION('',(0.,0.,1.));
#134 = PLANE('',#135);
#135 = AXIS2_PLACEMENT_3D('',#136,#137,#138);
#136 = CARTESIAN_POINT('',(0.,20.,7.885542168675));
#137 = DIRECTION('',(0.,1.,0.));
#138 = DIRECTION('',(0.,0.,1.));
#139 = ADVANCED_FACE('',(#140),#280,.F.);
#140 = FACE_BOUND('',#141,.F.);
#141 = EDGE_LOOP('',(#142,#152,#161,#167,#168,#176,#225,#233));
#142 = ORIENTED_EDGE('',*,*,#143,.F.);
#143 = EDGE_CURVE('',#144,#146,#148,.T.);
#144 = VERTEX_POINT('',#145);
#145 = CARTESIAN_POINT('',(18.,-20.,3.));
#146 = VERTEX_POINT('',#147);
#147 = CARTESIAN_POINT('',(18.,-15.47213595499,3.));
#148 = LINE('',#149,#150);
#149 = CARTESIAN_POINT('',(18.,-20.,3.));
#150 = VECTOR('',#151,1.);
#151 = DIRECTION('',(0.,1.,0.));
#152 = ORIENTED_EDGE('',*,*,#153,.T.);
#153 = EDGE_CURVE('',#144,#154,#156,.T.);
#154 = VERTEX_POINT('',#155);
#155 = CARTESIAN_POINT('',(15.,-20.,6.));
#156 = CIRCLE('',#157,3.);
#157 = AXIS2_PLACEMENT_3D('',#158,#159,#160);
#158 = CARTESIAN_POINT('',(18.,-20.,6.));
#159 = DIRECTION('',(0.,1.,0.));
#160 = DIRECTION('',(0.,0.,1.));
#161 = ORIENTED_EDGE('',*,*,#162,.T.);
#162 = EDGE_CURVE('',#154,#121,#163,.T.);
#163 = LINE('',#164,#165);
#164 = CARTESIAN_POINT('',(15.,-20.,6.));
#165 = VECTOR('',#166,1.);
#166 = DIRECTION('',(0.,1.,0.));
#167 = ORIENTED_EDGE('',*,*,#128,.F.);
#168 = ORIENTED_EDGE('',*,*,#169,.F.);
#169 = EDGE_CURVE('',#170,#24,#172,.T.);
#170 = VERTEX_POINT('',#171);
#171 = CARTESIAN_POINT('',(18.,15.472135954999,3.));
#172 = LINE('',#173,#174);
#173 = CARTESIAN_POINT('',(18.,-20.,3.));
#174 = VECTOR('',#175,1.);
#175 = DIRECTION('',(0.,1.,0.));
#176 = ORIENTED_EDGE('',*,*,#177,.T.);
#177 = EDGE_CURVE('',#170,#178,#180,.T.);
#178 = VERTEX_POINT('',#179);
#179 = CARTESIAN_POINT('',(18.,6.527864045001,3.));
#180 = B_SPLINE_CURVE_WITH_KNOTS('',7,(#181,#182,#183,#184,#185,#186,
    #187,#188,#189,#190,#191,#192,#193,#194,#195,#196,#197,#198,#199,
    #200,#201,#202,#203,#204,#205,#206,#207,#208,#209,#210,#211,#212,
    #213,#214,#215,#216,#217,#218,#219,#220,#221,#222,#223,#224),
  .UNSPECIFIED.,.F.,.F.,(8,6,6,6,6,6,6,8),(0.,7.133636406969E-02,
    0.249530000617,0.377247802128,0.499915366774,0.621945449533,
    0.749194142909,1.),.UNSPECIFIED.);
#181 = CARTESIAN_POINT('',(18.,15.472135955,3.));
#182 = CARTESIAN_POINT('',(17.914714700659,15.395854464276,3.));
#183 = CARTESIAN_POINT('',(17.831708494617,15.318195917683,
    3.002828562524));
#184 = CARTESIAN_POINT('',(17.75102306813,15.239281695433,3.008213779073
    ));
#185 = CARTESIAN_POINT('',(17.672684255165,15.159228610446,
    3.015902633985));
#186 = CARTESIAN_POINT('',(17.596704232659,15.078147742779,
    3.025659364565));
#187 = CARTESIAN_POINT('',(17.523083715773,14.996143274067,
    3.037263821215));
#188 = CARTESIAN_POINT('',(17.273787382299,14.706402447873,
    3.083597497102));
#189 = CARTESIAN_POINT('',(17.110215719951,14.494081559825,
    3.126967150143));
#190 = CARTESIAN_POINT('',(16.960699999901,14.277446430735,
    3.177517742926));
#191 = CARTESIAN_POINT('',(16.824647027693,14.057259505383,
    3.232763366096));
#192 = CARTESIAN_POINT('',(16.701402858528,13.833912414148,
    3.290636650592));
#193 = CARTESIAN_POINT('',(16.590374054476,13.607425656546,
    3.349313776744));
#194 = CARTESIAN_POINT('',(16.42001009087,13.212675591182,3.448450664754
    ));
#195 = CARTESIAN_POINT('',(16.354962136611,13.046141963813,
    3.489349880148));
#196 = CARTESIAN_POINT('',(16.295927782623,12.877992450128,
    3.529063707605));
#197 = CARTESIAN_POINT('',(16.242861804961,12.708318104351,
    3.566909970253));
#198 = CARTESIAN_POINT('',(16.195734132889,12.537177601849,
    3.602219369162));
#199 = CARTESIAN_POINT('',(16.154535420413,12.364584927,3.634348573403)
  );
#200 = CARTESIAN_POINT('',(16.085444312874,12.023295441582,
    3.689942839303));
#201 = CARTESIAN_POINT('',(16.057059653542,11.854563490449,
    3.713724770446));
#202 = CARTESIAN_POINT('',(16.034281644876,11.68475836853,3.733436111341
    ));
#203 = CARTESIAN_POINT('',(16.017164542818,11.514201655226,
    3.748579571703));
#204 = CARTESIAN_POINT('',(16.005730335717,11.34311747241,3.758806662975
    ));
#205 = CARTESIAN_POINT('',(16.,11.171669767648,3.7639320225));
#206 = CARTESIAN_POINT('',(16.,10.829222370121,3.7639320225));
#207 = CARTESIAN_POINT('',(16.005670932514,10.658661628616,
    3.758859794417));
#208 = CARTESIAN_POINT('',(16.016987082004,10.488458509407,
    3.748738298359));
#209 = CARTESIAN_POINT('',(16.033927826409,10.318775621358,
    3.733749141297));
#210 = CARTESIAN_POINT('',(16.056471342647,10.14983434543,3.714233959069
    ));
#211 = CARTESIAN_POINT('',(16.084564212209,9.981951344624,3.690680517539
    ));
#212 = CARTESIAN_POINT('',(16.153002383444,9.642082938968,3.635552451196
    ));
#213 = CARTESIAN_POINT('',(16.193851946959,9.470071678617,3.603652424977
    ));
#214 = CARTESIAN_POINT('',(16.24058803376,9.299499501017,3.568577026034)
  );
#215 = CARTESIAN_POINT('',(16.293219213062,9.130380560588,3.53096185764)
  );
#216 = CARTESIAN_POINT('',(16.351774261489,8.962773616861,3.491468808952
    ));
#217 = CARTESIAN_POINT('',(16.416296405676,8.796769888451,3.450772906054
    ));
#218 = CARTESIAN_POINT('',(16.625903727745,8.308665484038,3.328335016797
    ));
#219 = CARTESIAN_POINT('',(16.78794511208,7.99252581867,3.245362007538)
  );
#220 = CARTESIAN_POINT('',(16.974449190019,7.681880682301,3.165191623464
    ));
#221 = CARTESIAN_POINT('',(17.187603458604,7.377152766849,3.092809413973
    ));
#222 = CARTESIAN_POINT('',(17.429229753423,7.08050927753,3.034892200901)
  );
#223 = CARTESIAN_POINT('',(17.700460274725,6.795780520071,3.));
#224 = CARTESIAN_POINT('',(18.,6.527864045,3.));
#225 = ORIENTED_EDGE('',*,*,#226,.F.);
#226 = EDGE_CURVE('',#227,#178,#229,.T.);
#227 = VERTEX_POINT('',#228);
#228 = CARTESIAN_POINT('',(18.,-6.527864045001,3.));
#229 = LINE('',#230,#231);
#230 = CARTESIAN_POINT('',(18.,-20.,3.));
#231 = VECTOR('',#232,1.);
#232 = DIRECTION('',(0.,1.,0.));
#233 = ORIENTED_EDGE('',*,*,#234,.T.);
#234 = EDGE_CURVE('',#227,#146,#235,.T.);
#235 = B_SPLINE_CURVE_WITH_KNOTS('',7,(#236,#237,#238,#239,#240,#241,
    #242,#243,#244,#245,#246,#247,#248,#249,#250,#251,#252,#253,#254,
    #255,#256,#257,#258,#259,#260,#261,#262,#263,#264,#265,#266,#267,
    #268,#269,#270,#271,#272,#273,#274,#275,#276,#277,#278,#279),
  .UNSPECIFIED.,.F.,.F.,(8,6,6,6,6,6,6,8),(0.,7.133636411592E-02,
    0.249530001013,0.377247802457,0.499915367039,0.621945449733,
    0.749194143042,1.),.UNSPECIFIED.);
#236 = CARTESIAN_POINT('',(18.,-6.527864045,3.));
#237 = CARTESIAN_POINT('',(17.914714700658,-6.604145535724,3.));
#238 = CARTESIAN_POINT('',(17.831708494618,-6.681804082317,
    3.002828562524));
#239 = CARTESIAN_POINT('',(17.75102306813,-6.760718304567,3.008213779073
    ));
#240 = CARTESIAN_POINT('',(17.672684255165,-6.840771389555,
    3.015902633985));
#241 = CARTESIAN_POINT('',(17.596704232659,-6.921852257221,
    3.025659364565));
#242 = CARTESIAN_POINT('',(17.523083715773,-7.003856725933,
    3.037263821215));
#243 = CARTESIAN_POINT('',(17.273787382066,-7.293597552399,
    3.083597497146));
#244 = CARTESIAN_POINT('',(17.110215720104,-7.505918440128,
    3.126967150159));
#245 = CARTESIAN_POINT('',(16.960700000168,-7.722553568697,
    3.177517742784));
#246 = CARTESIAN_POINT('',(16.824647027575,-7.942740494722,
    3.232763366106));
#247 = CARTESIAN_POINT('',(16.7014028582,-8.166087586647,3.2906366508));
#248 = CARTESIAN_POINT('',(16.590374054722,-8.392574342882,
    3.349313776601));
#249 = CARTESIAN_POINT('',(16.42001009087,-8.787324408819,3.448450664754
    ));
#250 = CARTESIAN_POINT('',(16.354962136611,-8.953858036186,
    3.489349880148));
#251 = CARTESIAN_POINT('',(16.295927782623,-9.122007549873,
    3.529063707605));
#252 = CARTESIAN_POINT('',(16.242861804961,-9.29168189565,3.566909970254
    ));
#253 = CARTESIAN_POINT('',(16.19573413289,-9.46282239815,3.602219369162)
  );
#254 = CARTESIAN_POINT('',(16.154535420413,-9.635415073001,
    3.634348573404));
#255 = CARTESIAN_POINT('',(16.085444312874,-9.976704558418,
    3.689942839303));
#256 = CARTESIAN_POINT('',(16.057059653542,-10.14543650955,
    3.713724770446));
#257 = CARTESIAN_POINT('',(16.034281644876,-10.31524163147,
    3.733436111341));
#258 = CARTESIAN_POINT('',(16.017164542818,-10.48579834477,
    3.748579571703));
#259 = CARTESIAN_POINT('',(16.005730335717,-10.65688252759,
    3.758806662975));
#260 = CARTESIAN_POINT('',(16.,-10.82833023235,3.7639320225));
#261 = CARTESIAN_POINT('',(16.,-11.17077762987,3.7639320225));
#262 = CARTESIAN_POINT('',(16.005670932514,-11.34133837138,
    3.758859794417));
#263 = CARTESIAN_POINT('',(16.016987082004,-11.51154149059,
    3.748738298359));
#264 = CARTESIAN_POINT('',(16.033927826409,-11.68122437864,
    3.733749141297));
#265 = CARTESIAN_POINT('',(16.056471342647,-11.85016565456,
    3.714233959069));
#266 = CARTESIAN_POINT('',(16.084564212209,-12.01804865537,
    3.690680517539));
#267 = CARTESIAN_POINT('',(16.153002383444,-12.35791706103,
    3.635552451196));
#268 = CARTESIAN_POINT('',(16.193851946959,-12.52992832138,
    3.603652424977));
#269 = CARTESIAN_POINT('',(16.24058803376,-12.70050049898,3.568577026034
    ));
#270 = CARTESIAN_POINT('',(16.293219213062,-12.86961943941,3.53096185764
    ));
#271 = CARTESIAN_POINT('',(16.351774261489,-13.03722638313,
    3.491468808952));
#272 = CARTESIAN_POINT('',(16.416296405676,-13.20323011154,
    3.450772906055));
#273 = CARTESIAN_POINT('',(16.625903727745,-13.69133451596,
    3.328335016797));
#274 = CARTESIAN_POINT('',(16.78794511208,-14.00747418132,3.245362007538
    ));
#275 = CARTESIAN_POINT('',(16.974449190021,-14.3181193177,3.165191623463
    ));
#276 = CARTESIAN_POINT('',(17.187603458603,-14.62284723314,
    3.092809413974));
#277 = CARTESIAN_POINT('',(17.429229753423,-14.91949072247,
    3.034892200901));
#278 = CARTESIAN_POINT('',(17.700460274725,-15.20421947992,3.));
#279 = CARTESIAN_POINT('',(18.,-15.472135955,3.));
#280 = CYLINDRICAL_SURFACE('',#281,3.);
#281 = AXIS2_PLACEMENT_3D('',#282,#283,#284);
#282 = CARTESIAN_POINT('',(18.,-20.,6.));
#283 = DIRECTION('',(0.,1.,0.));
#284 = DIRECTION('',(0.,0.,-1.));
#285 = ADVANCED_FACE('',(#286),#311,.F.);
#286 = FACE_BOUND('',#287,.F.);
#287 = EDGE_LOOP('',(#288,#298,#304,#305));
#288 = ORIENTED_EDGE('',*,*,#289,.T.);
#289 = EDGE_CURVE('',#290,#292,#294,.T.);
#290 = VERTEX_POINT('',#291);
#291 = CARTESIAN_POINT('',(30.,-20.,0.));
#292 = VERTEX_POINT('',#293);
#293 = CARTESIAN_POINT('',(30.,-20.,3.));
#294 = LINE('',#295,#296);
#295 = CARTESIAN_POINT('',(30.,-20.,0.));
#296 = VECTOR('',#297,1.);
#297 = DIRECTION('',(0.,0.,1.));
#298 = ORIENTED_EDGE('',*,*,#299,.T.);
#299 = EDGE_CURVE('',#292,#22,#300,.T.);
#300 = LINE('',#301,#302);
#301 = CARTESIAN_POINT('',(30.,-20.,3.));
#302 = VECTOR('',#303,1.);
#303 = DIRECTION('',(0.,1.,0.));
#304 = ORIENTED_EDGE('',*,*,#31,.F.);
#305 = ORIENTED_EDGE('',*,*,#306,.F.);
#306 = EDGE_CURVE('',#290,#32,#307,.T.);
#307 = LINE('',#308,#309);
#308 = CARTESIAN_POINT('',(30.,-20.,0.));
#309 = VECTOR('',#310,1.);
#310 = DIRECTION('',(0.,1.,0.));
#311 = PLANE('',#312);
#312 = AXIS2_PLACEMENT_3D('',#313,#314,#315);
#313 = CARTESIAN_POINT('',(30.,-20.,0.));
#314 = DIRECTION('',(-1.,0.,0.));
#315 = DIRECTION('',(0.,1.,0.));
#316 = ADVANCED_FACE('',(#317),#335,.F.);
#317 = FACE_BOUND('',#318,.F.);
#318 = EDGE_LOOP('',(#319,#327,#333,#334));
#319 = ORIENTED_EDGE('',*,*,#320,.T.);
#320 = EDGE_CURVE('',#154,#321,#323,.T.);
#321 = VERTEX_POINT('',#322);
#322 = CARTESIAN_POINT('',(15.,-20.,23.));
#323 = LINE('',#324,#325);
#324 = CARTESIAN_POINT('',(15.,-20.,3.));
#325 = VECTOR('',#326,1.);
#326 = DIRECTION('',(0.,0.,1.));
#327 = ORIENTED_EDGE('',*,*,#328,.T.);
#328 = EDGE_CURVE('',#321,#113,#329,.T.);
#329 = LINE('',#330,#331);
#330 = CARTESIAN_POINT('',(15.,-20.,23.));
#331 = VECTOR('',#332,1.);
#332 = DIRECTION('',(0.,1.,0.));
#333 = ORIENTED_EDGE('',*,*,#120,.F.);
#334 = ORIENTED_EDGE('',*,*,#162,.F.);
#335 = PLANE('',#336);
#336 = AXIS2_PLACEMENT_3D('',#337,#338,#339);
#337 = CARTESIAN_POINT('',(15.,-20.,3.));
#338 = DIRECTION('',(-1.,0.,0.));
#339 = DIRECTION('',(0.,1.,0.));
#340 = ADVANCED_FACE('',(#341,#359,#370,#381,#392),#403,.F.);
#341 = FACE_BOUND('',#342,.F.);
#342 = EDGE_LOOP('',(#343,#351,#357,#358));
#343 = ORIENTED_EDGE('',*,*,#344,.T.);
#344 = EDGE_CURVE('',#40,#345,#347,.T.);
#345 = VERTEX_POINT('',#346);
#346 = CARTESIAN_POINT('',(-30.,-20.,0.));
#347 = LINE('',#348,#349);
#348 = CARTESIAN_POINT('',(-30.,20.,0.));
#349 = VECTOR('',#350,1.);
#350 = DIRECTION('',(0.,-1.,0.));
#351 = ORIENTED_EDGE('',*,*,#352,.T.);
#352 = EDGE_CURVE('',#345,#290,#353,.T.);
#353 = LINE('',#354,#355);
#354 = CARTESIAN_POINT('',(-30.,-20.,0.));
#355 = VECTOR('',#356,1.);
#356 = DIRECTION('',(1.,0.,0.));
#357 = ORIENTED_EDGE('',*,*,#306,.T.);
#358 = ORIENTED_EDGE('',*,*,#39,.T.);
#359 = FACE_BOUND('',#360,.F.);
#360 = EDGE_LOOP('',(#361));
#361 = ORIENTED_EDGE('',*,*,#362,.F.);
#362 = EDGE_CURVE('',#363,#363,#365,.T.);
#363 = VERTEX_POINT('',#364);
#364 = CARTESIAN_POINT('',(-19.25,-11.,0.));
#365 = CIRCLE('',#366,2.75);
#366 = AXIS2_PLACEMENT_3D('',#367,#368,#369);
#367 = CARTESIAN_POINT('',(-22.,-11.,0.));
#368 = DIRECTION('',(0.,0.,1.));
#369 = DIRECTION('',(1.,0.,0.));
#370 = FACE_BOUND('',#371,.F.);
#371 = EDGE_LOOP('',(#372));
#372 = ORIENTED_EDGE('',*,*,#373,.F.);
#373 = EDGE_CURVE('',#374,#374,#376,.T.);
#374 = VERTEX_POINT('',#375);
#375 = CARTESIAN_POINT('',(24.75,-11.,0.));
#376 = CIRCLE('',#377,2.75);
#377 = AXIS2_PLACEMENT_3D('',#378,#379,#380);
#378 = CARTESIAN_POINT('',(22.,-11.,0.));
#379 = DIRECTION('',(0.,0.,1.));
#380 = DIRECTION('',(1.,0.,0.));
#381 = FACE_BOUND('',#382,.F.);
#382 = EDGE_LOOP('',(#383));
#383 = ORIENTED_EDGE('',*,*,#384,.F.);
#384 = EDGE_CURVE('',#385,#385,#387,.T.);
#385 = VERTEX_POINT('',#386);
#386 = CARTESIAN_POINT('',(-19.25,11.,0.));
#387 = CIRCLE('',#388,2.75);
#388 = AXIS2_PLACEMENT_3D('',#389,#390,#391);
#389 = CARTESIAN_POINT('',(-22.,11.,0.));
#390 = DIRECTION('',(0.,0.,1.));
#391 = DIRECTION('',(1.,0.,0.));
#392 = FACE_BOUND('',#393,.F.);
#393 = EDGE_LOOP('',(#394));
#394 = ORIENTED_EDGE('',*,*,#395,.F.);
#395 = EDGE_CURVE('',#396,#396,#398,.T.);
#396 = VERTEX_POINT('',#397);
#397 = CARTESIAN_POINT('',(24.75,11.,0.));
#398 = CIRCLE('',#399,2.75);
#399 = AXIS2_PLACEMENT_3D('',#400,#401,#402);
#400 = CARTESIAN_POINT('',(22.,11.,0.));
#401 = DIRECTION('',(0.,0.,1.));
#402 = DIRECTION('',(1.,0.,0.));
#403 = PLANE('',#404);
#404 = AXIS2_PLACEMENT_3D('',#405,#406,#407);
#405 = CARTESIAN_POINT('',(0.,0.,0.));
#406 = DIRECTION('',(0.,0.,1.));
#407 = DIRECTION('',(1.,0.,0.));
#408 = ADVANCED_FACE('',(#409,#428),#478,.T.);
#409 = FACE_BOUND('',#410,.T.);
#410 = EDGE_LOOP('',(#411,#412,#421,#427));
#411 = ORIENTED_EDGE('',*,*,#112,.T.);
#412 = ORIENTED_EDGE('',*,*,#413,.T.);
#413 = EDGE_CURVE('',#105,#414,#416,.T.);
#414 = VERTEX_POINT('',#415);
#415 = CARTESIAN_POINT('',(0.667409058084,-19.99999999999,23.));
#416 = CIRCLE('',#417,300.);
#417 = AXIS2_PLACEMENT_3D('',#418,#419,#420);
#418 = CARTESIAN_POINT('',(300.,0.,23.));
#419 = DIRECTION('',(0.,0.,1.));
#420 = DIRECTION('',(1.,0.,0.));
#421 = ORIENTED_EDGE('',*,*,#422,.T.);
#422 = EDGE_CURVE('',#414,#321,#423,.T.);
#423 = LINE('',#424,#425);
#424 = CARTESIAN_POINT('',(-15.,-20.,23.));
#425 = VECTOR('',#426,1.);
#426 = DIRECTION('',(1.,0.,0.));
#427 = ORIENTED_EDGE('',*,*,#328,.T.);
#428 = FACE_BOUND('',#429,.T.);
#429 = EDGE_LOOP('',(#430,#440,#448,#456,#464,#472));
#430 = ORIENTED_EDGE('',*,*,#431,.F.);
#431 = EDGE_CURVE('',#432,#434,#436,.T.);
#432 = VERTEX_POINT('',#433);
#433 = CARTESIAN_POINT('',(10.7,0.,23.));
#434 = VERTEX_POINT('',#435);
#435 = CARTESIAN_POINT('',(9.1,2.77128129211,23.));
#436 = LINE('',#437,#438);
#437 = CARTESIAN_POINT('',(10.7,0.,23.));
#438 = VECTOR('',#439,1.);
#439 = DIRECTION('',(-0.5,0.866025403784,0.));
#440 = ORIENTED_EDGE('',*,*,#441,.F.);
#441 = EDGE_CURVE('',#442,#432,#444,.T.);
#442 = VERTEX_POINT('',#443);
#443 = CARTESIAN_POINT('',(9.1,-2.77128129211,23.));
#444 = LINE('',#445,#446);
#445 = CARTESIAN_POINT('',(9.1,-2.77128129211,23.));
#446 = VECTOR('',#447,1.);
#447 = DIRECTION('',(0.5,0.866025403784,0.));
#448 = ORIENTED_EDGE('',*,*,#449,.F.);
#449 = EDGE_CURVE('',#450,#442,#452,.T.);
#450 = VERTEX_POINT('',#451);
#451 = CARTESIAN_POINT('',(5.9,-2.77128129211,23.));
#452 = LINE('',#453,#454);
#453 = CARTESIAN_POINT('',(5.9,-2.77128129211,23.));
#454 = VECTOR('',#455,1.);
#455 = DIRECTION('',(1.,-2.775557561563E-16,0.));
#456 = ORIENTED_EDGE('',*,*,#457,.F.);
#457 = EDGE_CURVE('',#458,#450,#460,.T.);
#458 = VERTEX_POINT('',#459);
#459 = CARTESIAN_POINT('',(4.3,0.,23.));
#460 = LINE('',#461,#462);
#461 = CARTESIAN_POINT('',(4.3,0.,23.));
#462 = VECTOR('',#463,1.);
#463 = DIRECTION('',(0.5,-0.866025403784,0.));
#464 = ORIENTED_EDGE('',*,*,#465,.F.);
#465 = EDGE_CURVE('',#466,#458,#468,.T.);
#466 = VERTEX_POINT('',#467);
#467 = CARTESIAN_POINT('',(5.9,2.77128129211,23.));
#468 = LINE('',#469,#470);
#469 = CARTESIAN_POINT('',(5.9,2.77128129211,23.));
#470 = VECTOR('',#471,1.);
#471 = DIRECTION('',(-0.5,-0.866025403784,0.));
#472 = ORIENTED_EDGE('',*,*,#473,.F.);
#473 = EDGE_CURVE('',#434,#466,#474,.T.);
#474 = LINE('',#475,#476);
#475 = CARTESIAN_POINT('',(9.1,2.77128129211,23.));
#476 = VECTOR('',#477,1.);
#477 = DIRECTION('',(-1.,-4.163336342345E-16,0.));
#478 = PLANE('',#479);
#479 = AXIS2_PLACEMENT_3D('',#480,#481,#482);
#480 = CARTESIAN_POINT('',(0.,0.,23.));
#481 = DIRECTION('',(0.,0.,1.));
#482 = DIRECTION('',(1.,0.,0.));
#483 = ADVANCED_FACE('',(#484),#502,.F.);
#484 = FACE_BOUND('',#485,.F.);
#485 = EDGE_LOOP('',(#486,#487,#495,#501));
#486 = ORIENTED_EDGE('',*,*,#47,.T.);
#487 = ORIENTED_EDGE('',*,*,#488,.T.);
#488 = EDGE_CURVE('',#48,#489,#491,.T.);
#489 = VERTEX_POINT('',#490);
#490 = CARTESIAN_POINT('',(-30.,-20.,3.));
#491 = LINE('',#492,#493);
#492 = CARTESIAN_POINT('',(-30.,20.,3.));
#493 = VECTOR('',#494,1.);
#494 = DIRECTION('',(0.,-1.,0.));
#495 = ORIENTED_EDGE('',*,*,#496,.F.);
#496 = EDGE_CURVE('',#345,#489,#497,.T.);
#497 = LINE('',#498,#499);
#498 = CARTESIAN_POINT('',(-30.,-20.,0.));
#499 = VECTOR('',#500,1.);
#500 = DIRECTION('',(0.,0.,1.));
#501 = ORIENTED_EDGE('',*,*,#344,.F.);
#502 = PLANE('',#503);
#503 = AXIS2_PLACEMENT_3D('',#504,#505,#506);
#504 = CARTESIAN_POINT('',(-30.,20.,0.));
#505 = DIRECTION('',(1.,0.,0.));
#506 = DIRECTION('',(0.,-1.,0.));
#507 = ADVANCED_FACE('',(#508),#527,.T.);
#508 = FACE_BOUND('',#509,.T.);
#509 = EDGE_LOOP('',(#510,#511,#512,#521));
#510 = ORIENTED_EDGE('',*,*,#413,.F.);
#511 = ORIENTED_EDGE('',*,*,#104,.F.);
#512 = ORIENTED_EDGE('',*,*,#513,.T.);
#513 = EDGE_CURVE('',#97,#514,#516,.T.);
#514 = VERTEX_POINT('',#515);
#515 = CARTESIAN_POINT('',(0.667409058085,-20.,3.));
#516 = CIRCLE('',#517,300.);
#517 = AXIS2_PLACEMENT_3D('',#518,#519,#520);
#518 = CARTESIAN_POINT('',(300.,0.,3.));
#519 = DIRECTION('',(0.,0.,1.));
#520 = DIRECTION('',(1.,0.,0.));
#521 = ORIENTED_EDGE('',*,*,#522,.T.);
#522 = EDGE_CURVE('',#514,#414,#523,.T.);
#523 = LINE('',#524,#525);
#524 = CARTESIAN_POINT('',(0.667409058085,-20.,23.));
#525 = VECTOR('',#526,1.);
#526 = DIRECTION('',(0.,0.,1.));
#527 = CYLINDRICAL_SURFACE('',#528,300.);
#528 = AXIS2_PLACEMENT_3D('',#529,#530,#531);
#529 = CARTESIAN_POINT('',(300.,0.,23.));
#530 = DIRECTION('',(0.,0.,1.));
#531 = DIRECTION('',(1.,0.,0.));
#532 = ADVANCED_FACE('',(#533),#552,.T.);
#533 = FACE_BOUND('',#534,.T.);
#534 = EDGE_LOOP('',(#535,#536,#545,#551));
#535 = ORIENTED_EDGE('',*,*,#96,.F.);
#536 = ORIENTED_EDGE('',*,*,#537,.T.);
#537 = EDGE_CURVE('',#89,#538,#540,.T.);
#538 = VERTEX_POINT('',#539);
#539 = CARTESIAN_POINT('',(-2.339213467258,-20.,3.));
#540 = CIRCLE('',#541,303.);
#541 = AXIS2_PLACEMENT_3D('',#542,#543,#544);
#542 = CARTESIAN_POINT('',(300.,0.,3.));
#543 = DIRECTION('',(0.,0.,1.));
#544 = DIRECTION('',(1.,0.,0.));
#545 = ORIENTED_EDGE('',*,*,#546,.F.);
#546 = EDGE_CURVE('',#514,#538,#547,.T.);
#547 = LINE('',#548,#549);
#548 = CARTESIAN_POINT('',(150.,-20.,3.));
#549 = VECTOR('',#550,1.);
#550 = DIRECTION('',(-1.,0.,0.));
#551 = ORIENTED_EDGE('',*,*,#513,.F.);
#552 = PLANE('',#553);
#553 = AXIS2_PLACEMENT_3D('',#554,#555,#556);
#554 = CARTESIAN_POINT('',(300.,3.073380072058E-15,3.));
#555 = DIRECTION('',(0.,0.,1.));
#556 = DIRECTION('',(1.,0.,0.));
#557 = ADVANCED_FACE('',(#558),#700,.F.);
#558 = FACE_BOUND('',#559,.F.);
#559 = EDGE_LOOP('',(#560,#568,#569,#577,#586,#594,#619,#644,#652,#677)
  );
#560 = ORIENTED_EDGE('',*,*,#561,.F.);
#561 = EDGE_CURVE('',#56,#562,#564,.T.);
#562 = VERTEX_POINT('',#563);
#563 = CARTESIAN_POINT('',(-18.,15.472135955,3.));
#564 = LINE('',#565,#566);
#565 = CARTESIAN_POINT('',(-18.,20.,3.));
#566 = VECTOR('',#567,1.);
#567 = DIRECTION('',(0.,-1.,0.));
#568 = ORIENTED_EDGE('',*,*,#63,.T.);
#569 = ORIENTED_EDGE('',*,*,#570,.T.);
#570 = EDGE_CURVE('',#64,#571,#573,.T.);
#571 = VERTEX_POINT('',#572);
#572 = CARTESIAN_POINT('',(-15.,-20.,6.));
#573 = LINE('',#574,#575);
#574 = CARTESIAN_POINT('',(-15.,20.,6.));
#575 = VECTOR('',#576,1.);
#576 = DIRECTION('',(0.,-1.,0.));
#577 = ORIENTED_EDGE('',*,*,#578,.F.);
#578 = EDGE_CURVE('',#579,#571,#581,.T.);
#579 = VERTEX_POINT('',#580);
#580 = CARTESIAN_POINT('',(-18.,-20.,3.));
#581 = CIRCLE('',#582,3.);
#582 = AXIS2_PLACEMENT_3D('',#583,#584,#585);
#583 = CARTESIAN_POINT('',(-18.,-20.,6.));
#584 = DIRECTION('',(0.,-1.,0.));
#585 = DIRECTION('',(0.,0.,-1.));
#586 = ORIENTED_EDGE('',*,*,#587,.F.);
#587 = EDGE_CURVE('',#588,#579,#590,.T.);
#588 = VERTEX_POINT('',#589);
#589 = CARTESIAN_POINT('',(-18.,-15.472135955,3.));
#590 = LINE('',#591,#592);
#591 = CARTESIAN_POINT('',(-18.,20.,3.));
#592 = VECTOR('',#593,1.);
#593 = DIRECTION('',(0.,-1.,0.));
#594 = ORIENTED_EDGE('',*,*,#595,.T.);
#595 = EDGE_CURVE('',#588,#596,#598,.T.);
#596 = VERTEX_POINT('',#597);
#597 = CARTESIAN_POINT('',(-16.,-11.,3.7639320225));
#598 = B_SPLINE_CURVE_WITH_KNOTS('',7,(#599,#600,#601,#602,#603,#604,
    #605,#606,#607,#608,#609,#610,#611,#612,#613,#614,#615,#616,#617,
    #618),.UNSPECIFIED.,.F.,.F.,(8,6,6,8),(0.,0.143055730173,
    0.500399717852,1.),.UNSPECIFIED.);
#599 = CARTESIAN_POINT('',(-18.,-15.472135955,3.));
#600 = CARTESIAN_POINT('',(-17.91471470065,-15.39585446427,3.));
#601 = CARTESIAN_POINT('',(-17.83170849461,-15.31819591768,
    3.002828562524));
#602 = CARTESIAN_POINT('',(-17.75102306813,-15.23928169543,
    3.008213779073));
#603 = CARTESIAN_POINT('',(-17.67268425516,-15.15922861044,
    3.015902633985));
#604 = CARTESIAN_POINT('',(-17.59670423265,-15.07814774277,
    3.025659364565));
#605 = CARTESIAN_POINT('',(-17.52308371577,-14.99614327406,
    3.037263821215));
#606 = CARTESIAN_POINT('',(-17.27378738219,-14.70640244775,
    3.083597497122));
#607 = CARTESIAN_POINT('',(-17.11021572002,-14.49408155984,
    3.126967150149));
#608 = CARTESIAN_POINT('',(-16.96070000002,-14.27744643099,
    3.177517742862));
#609 = CARTESIAN_POINT('',(-16.82464702763,-14.05725950533,
    3.232763366101));
#610 = CARTESIAN_POINT('',(-16.70140285837,-13.83391241378,
    3.290636650686));
#611 = CARTESIAN_POINT('',(-16.59037405458,-13.6074256568,3.349313776678
    ));
#612 = CARTESIAN_POINT('',(-16.3523941363,-13.05600277189,3.487797221228
    ));
#613 = CARTESIAN_POINT('',(-16.23535792314,-12.72465745362,3.5674966026)
  );
#614 = CARTESIAN_POINT('',(-16.1416139476,-12.38683598622,3.640218268464
    ));
#615 = CARTESIAN_POINT('',(-16.07134522351,-12.04504382145,
    3.700118542924));
#616 = CARTESIAN_POINT('',(-16.02412427907,-11.70029652603,
    3.742354814967));
#617 = CARTESIAN_POINT('',(-16.,-11.35223300949,3.7639320225));
#618 = CARTESIAN_POINT('',(-16.,-11.,3.7639320225));
#619 = ORIENTED_EDGE('',*,*,#620,.T.);
#620 = EDGE_CURVE('',#596,#621,#623,.T.);
#621 = VERTEX_POINT('',#622);
#622 = CARTESIAN_POINT('',(-18.,-6.527864045,3.));
#623 = B_SPLINE_CURVE_WITH_KNOTS('',7,(#624,#625,#626,#627,#628,#629,
    #630,#631,#632,#633,#634,#635,#636,#637,#638,#639,#640,#641,#642,
    #643),.UNSPECIFIED.,.F.,.F.,(8,6,6,8),(0.,0.497405543269,
    0.855357010919,1.),.UNSPECIFIED.);
#624 = CARTESIAN_POINT('',(-16.,-11.,3.7639320225));
#625 = CARTESIAN_POINT('',(-16.,-10.64934047553,3.7639320225));
#626 = CARTESIAN_POINT('',(-16.02390923304,-10.3027867728,3.742547145176
    ));
#627 = CARTESIAN_POINT('',(-16.07072025142,-9.959508242148,
    3.700677576895));
#628 = CARTESIAN_POINT('',(-16.14038235598,-9.619156371809,
    3.641267434527));
#629 = CARTESIAN_POINT('',(-16.23331173089,-9.282736095155,
    3.569084279391));
#630 = CARTESIAN_POINT('',(-16.34932496231,-8.952723679349,
    3.489892923835));
#631 = CARTESIAN_POINT('',(-16.58581425092,-8.402020286778,
    3.351752476046));
#632 = CARTESIAN_POINT('',(-16.69660374501,-8.175027387147,
    3.292953705726));
#633 = CARTESIAN_POINT('',(-16.81963748743,-7.951181305238,
    3.234907139249));
#634 = CARTESIAN_POINT('',(-16.95550761881,-7.730500183867,3.17944301243
    ));
#635 = CARTESIAN_POINT('',(-17.1048692752,-7.513372305776,3.128632874859
    ));
#636 = CARTESIAN_POINT('',(-17.26831986809,-7.300555937895,
    3.084965577941));
#637 = CARTESIAN_POINT('',(-17.51817079802,-7.00933568658,3.038042311368
    ));
#638 = CARTESIAN_POINT('',(-17.59247850229,-6.926366042277,
    3.026204916912));
#639 = CARTESIAN_POINT('',(-17.6691981067,-6.844336459424,3.016246684624
    ));
#640 = CARTESIAN_POINT('',(-17.74832946687,-6.763354111595,
    3.008394584692));
#641 = CARTESIAN_POINT('',(-17.82986052209,-6.683533454264,
    3.002891907639));
#642 = CARTESIAN_POINT('',(-17.91376497979,-6.604994991888,3.));
#643 = CARTESIAN_POINT('',(-18.,-6.527864045,3.));
#644 = ORIENTED_EDGE('',*,*,#645,.F.);
#645 = EDGE_CURVE('',#646,#621,#648,.T.);
#646 = VERTEX_POINT('',#647);
#647 = CARTESIAN_POINT('',(-18.,6.527864045,3.));
#648 = LINE('',#649,#650);
#649 = CARTESIAN_POINT('',(-18.,20.,3.));
#650 = VECTOR('',#651,1.);
#651 = DIRECTION('',(0.,-1.,0.));
#652 = ORIENTED_EDGE('',*,*,#653,.T.);
#653 = EDGE_CURVE('',#646,#654,#656,.T.);
#654 = VERTEX_POINT('',#655);
#655 = CARTESIAN_POINT('',(-16.,11.,3.7639320225));
#656 = B_SPLINE_CURVE_WITH_KNOTS('',7,(#657,#658,#659,#660,#661,#662,
    #663,#664,#665,#666,#667,#668,#669,#670,#671,#672,#673,#674,#675,
    #676),.UNSPECIFIED.,.F.,.F.,(8,6,6,8),(0.,0.143055730172,
    0.500399717811,1.),.UNSPECIFIED.);
#657 = CARTESIAN_POINT('',(-18.,6.527864045,3.));
#658 = CARTESIAN_POINT('',(-17.91471470065,6.604145535724,3.));
#659 = CARTESIAN_POINT('',(-17.83170849461,6.681804082317,3.002828562524
    ));
#660 = CARTESIAN_POINT('',(-17.75102306813,6.760718304567,3.008213779073
    ));
#661 = CARTESIAN_POINT('',(-17.67268425516,6.840771389554,3.015902633985
    ));
#662 = CARTESIAN_POINT('',(-17.59670423265,6.921852257221,3.025659364565
    ));
#663 = CARTESIAN_POINT('',(-17.52308371577,7.003856725933,3.037263821215
    ));
#664 = CARTESIAN_POINT('',(-17.27378738221,7.293597552225,3.083597497118
    ));
#665 = CARTESIAN_POINT('',(-17.11021572,7.505918440156,3.126967150148));
#666 = CARTESIAN_POINT('',(-16.96069999999,7.722553569055,3.177517742873
    ));
#667 = CARTESIAN_POINT('',(-16.82464702764,7.94274049466,3.232763366101)
  );
#668 = CARTESIAN_POINT('',(-16.7014028584,8.166087586151,3.29063665067)
  );
#669 = CARTESIAN_POINT('',(-16.59037405457,8.392574343235,3.34931377669)
  );
#670 = CARTESIAN_POINT('',(-16.3523941363,8.943997228108,3.487797221228)
  );
#671 = CARTESIAN_POINT('',(-16.23535792314,9.275342546373,3.567496602599
    ));
#672 = CARTESIAN_POINT('',(-16.14161394759,9.613164013782,3.640218268465
    ));
#673 = CARTESIAN_POINT('',(-16.07134522351,9.954956178541,3.700118542923
    ));
#674 = CARTESIAN_POINT('',(-16.02412427907,10.299703473964,
    3.742354814967));
#675 = CARTESIAN_POINT('',(-16.,10.647766990508,3.7639320225));
#676 = CARTESIAN_POINT('',(-16.,11.,3.7639320225));
#677 = ORIENTED_EDGE('',*,*,#678,.T.);
#678 = EDGE_CURVE('',#654,#562,#679,.T.);
#679 = B_SPLINE_CURVE_WITH_KNOTS('',7,(#680,#681,#682,#683,#684,#685,
    #686,#687,#688,#689,#690,#691,#692,#693,#694,#695,#696,#697,#698,
    #699),.UNSPECIFIED.,.F.,.F.,(8,6,6,8),(0.,0.497405543267,
    0.855357010919,1.),.UNSPECIFIED.);
#680 = CARTESIAN_POINT('',(-16.,11.,3.7639320225));
#681 = CARTESIAN_POINT('',(-16.,11.350659524466,3.7639320225));
#682 = CARTESIAN_POINT('',(-16.02390923304,11.697213227198,
    3.742547145176));
#683 = CARTESIAN_POINT('',(-16.07072025142,12.040491757852,
    3.700677576895));
#684 = CARTESIAN_POINT('',(-16.14038235598,12.380843628191,
    3.641267434527));
#685 = CARTESIAN_POINT('',(-16.23331173089,12.717263904845,
    3.569084279391));
#686 = CARTESIAN_POINT('',(-16.34932496231,13.047276320651,
    3.489892923835));
#687 = CARTESIAN_POINT('',(-16.58581425093,13.597979713225,
    3.351752476045));
#688 = CARTESIAN_POINT('',(-16.69660374501,13.82497261285,3.292953705727
    ));
#689 = CARTESIAN_POINT('',(-16.81963748742,14.048818694762,
    3.234907139249));
#690 = CARTESIAN_POINT('',(-16.95550761881,14.269499816135,
    3.179443012429));
#691 = CARTESIAN_POINT('',(-17.1048692752,14.486627694224,3.128632874859
    ));
#692 = CARTESIAN_POINT('',(-17.26831986809,14.699444062104,
    3.084965577941));
#693 = CARTESIAN_POINT('',(-17.51817079802,14.99066431342,3.038042311368
    ));
#694 = CARTESIAN_POINT('',(-17.59247850229,15.073633957723,
    3.026204916912));
#695 = CARTESIAN_POINT('',(-17.6691981067,15.155663540576,3.016246684624
    ));
#696 = CARTESIAN_POINT('',(-17.74832946687,15.236645888405,
    3.008394584692));
#697 = CARTESIAN_POINT('',(-17.82986052209,15.316466545736,
    3.002891907639));
#698 = CARTESIAN_POINT('',(-17.91376497979,15.395005008112,3.));
#699 = CARTESIAN_POINT('',(-18.,15.472135955,3.));
#700 = CYLINDRICAL_SURFACE('',#701,3.);
#701 = AXIS2_PLACEMENT_3D('',#702,#703,#704);
#702 = CARTESIAN_POINT('',(-18.,20.,6.));
#703 = DIRECTION('',(0.,-1.,0.));
#704 = DIRECTION('',(-0.,-0.,-1.));
#705 = ADVANCED_FACE('',(#706),#725,.F.);
#706 = FACE_BOUND('',#707,.F.);
#707 = EDGE_LOOP('',(#708,#717,#718,#719));
#708 = ORIENTED_EDGE('',*,*,#709,.F.);
#709 = EDGE_CURVE('',#81,#710,#712,.T.);
#710 = VERTEX_POINT('',#711);
#711 = CARTESIAN_POINT('',(-2.339213467257,-20.,23.));
#712 = CIRCLE('',#713,303.);
#713 = AXIS2_PLACEMENT_3D('',#714,#715,#716);
#714 = CARTESIAN_POINT('',(300.,0.,23.));
#715 = DIRECTION('',(0.,0.,1.));
#716 = DIRECTION('',(1.,0.,0.));
#717 = ORIENTED_EDGE('',*,*,#88,.F.);
#718 = ORIENTED_EDGE('',*,*,#537,.T.);
#719 = ORIENTED_EDGE('',*,*,#720,.T.);
#720 = EDGE_CURVE('',#538,#710,#721,.T.);
#721 = LINE('',#722,#723);
#722 = CARTESIAN_POINT('',(-2.339213467258,-20.,23.));
#723 = VECTOR('',#724,1.);
#724 = DIRECTION('',(0.,0.,1.));
#725 = CYLINDRICAL_SURFACE('',#726,303.);
#726 = AXIS2_PLACEMENT_3D('',#727,#728,#729);
#727 = CARTESIAN_POINT('',(300.,0.,23.));
#728 = DIRECTION('',(0.,0.,1.));
#729 = DIRECTION('',(1.,0.,0.));
#730 = ADVANCED_FACE('',(#731),#749,.F.);
#731 = FACE_BOUND('',#732,.F.);
#732 = EDGE_LOOP('',(#733,#734,#742,#748));
#733 = ORIENTED_EDGE('',*,*,#72,.T.);
#734 = ORIENTED_EDGE('',*,*,#735,.T.);
#735 = EDGE_CURVE('',#73,#736,#738,.T.);
#736 = VERTEX_POINT('',#737);
#737 = CARTESIAN_POINT('',(-15.,-20.,23.));
#738 = LINE('',#739,#740);
#739 = CARTESIAN_POINT('',(-15.,20.,23.));
#740 = VECTOR('',#741,1.);
#741 = DIRECTION('',(0.,-1.,0.));
#742 = ORIENTED_EDGE('',*,*,#743,.F.);
#743 = EDGE_CURVE('',#571,#736,#744,.T.);
#744 = LINE('',#745,#746);
#745 = CARTESIAN_POINT('',(-15.,-20.,3.));
#746 = VECTOR('',#747,1.);
#747 = DIRECTION('',(0.,0.,1.));
#748 = ORIENTED_EDGE('',*,*,#570,.F.);
#749 = PLANE('',#750);
#750 = AXIS2_PLACEMENT_3D('',#751,#752,#753);
#751 = CARTESIAN_POINT('',(-15.,20.,3.));
#752 = DIRECTION('',(1.,0.,0.));
#753 = DIRECTION('',(0.,-1.,0.));
#754 = ADVANCED_FACE('',(#755,#766),#816,.T.);
#755 = FACE_BOUND('',#756,.T.);
#756 = EDGE_LOOP('',(#757,#758,#759,#765));
#757 = ORIENTED_EDGE('',*,*,#80,.T.);
#758 = ORIENTED_EDGE('',*,*,#735,.T.);
#759 = ORIENTED_EDGE('',*,*,#760,.T.);
#760 = EDGE_CURVE('',#736,#710,#761,.T.);
#761 = LINE('',#762,#763);
#762 = CARTESIAN_POINT('',(-15.,-20.,23.));
#763 = VECTOR('',#764,1.);
#764 = DIRECTION('',(1.,0.,0.));
#765 = ORIENTED_EDGE('',*,*,#709,.F.);
#766 = FACE_BOUND('',#767,.T.);
#767 = EDGE_LOOP('',(#768,#778,#786,#794,#802,#810));
#768 = ORIENTED_EDGE('',*,*,#769,.F.);
#769 = EDGE_CURVE('',#770,#772,#774,.T.);
#770 = VERTEX_POINT('',#771);
#771 = CARTESIAN_POINT('',(-5.55,0.,23.));
#772 = VERTEX_POINT('',#773);
#773 = CARTESIAN_POINT('',(-7.15,2.77128129211,23.));
#774 = LINE('',#775,#776);
#775 = CARTESIAN_POINT('',(-5.55,0.,23.));
#776 = VECTOR('',#777,1.);
#777 = DIRECTION('',(-0.5,0.866025403784,0.));
#778 = ORIENTED_EDGE('',*,*,#779,.F.);
#779 = EDGE_CURVE('',#780,#770,#782,.T.);
#780 = VERTEX_POINT('',#781);
#781 = CARTESIAN_POINT('',(-7.149999999999,-2.77128129211,23.));
#782 = LINE('',#783,#784);
#783 = CARTESIAN_POINT('',(-7.149999999999,-2.77128129211,23.));
#784 = VECTOR('',#785,1.);
#785 = DIRECTION('',(0.5,0.866025403785,0.));
#786 = ORIENTED_EDGE('',*,*,#787,.F.);
#787 = EDGE_CURVE('',#788,#780,#790,.T.);
#788 = VERTEX_POINT('',#789);
#789 = CARTESIAN_POINT('',(-10.34999999999,-2.771281292111,23.));
#790 = LINE('',#791,#792);
#791 = CARTESIAN_POINT('',(-10.34999999999,-2.771281292111,23.));
#792 = VECTOR('',#793,1.);
#793 = DIRECTION('',(1.,3.90798504668E-13,0.));
#794 = ORIENTED_EDGE('',*,*,#795,.F.);
#795 = EDGE_CURVE('',#796,#788,#798,.T.);
#796 = VERTEX_POINT('',#797);
#797 = CARTESIAN_POINT('',(-11.95,-8.335554468886E-13,23.));
#798 = LINE('',#799,#800);
#799 = CARTESIAN_POINT('',(-11.95,-8.335554468886E-13,23.));
#800 = VECTOR('',#801,1.);
#801 = DIRECTION('',(0.5,-0.866025403784,0.));
#802 = ORIENTED_EDGE('',*,*,#803,.F.);
#803 = EDGE_CURVE('',#804,#796,#806,.T.);
#804 = VERTEX_POINT('',#805);
#805 = CARTESIAN_POINT('',(-10.35,2.77128129211,23.));
#806 = LINE('',#807,#808);
#807 = CARTESIAN_POINT('',(-10.35,2.77128129211,23.));
#808 = VECTOR('',#809,1.);
#809 = DIRECTION('',(-0.5,-0.866025403785,0.));
#810 = ORIENTED_EDGE('',*,*,#811,.F.);
#811 = EDGE_CURVE('',#772,#804,#812,.T.);
#812 = LINE('',#813,#814);
#813 = CARTESIAN_POINT('',(-7.15,2.77128129211,23.));
#814 = VECTOR('',#815,1.);
#815 = DIRECTION('',(-1.,-1.301736496373E-13,0.));
#816 = PLANE('',#817);
#817 = AXIS2_PLACEMENT_3D('',#818,#819,#820);
#818 = CARTESIAN_POINT('',(0.,0.,23.));
#819 = DIRECTION('',(0.,0.,1.));
#820 = DIRECTION('',(1.,0.,0.));
#821 = ADVANCED_FACE('',(#822),#848,.T.);
#822 = FACE_BOUND('',#823,.T.);
#823 = EDGE_LOOP('',(#824,#830,#831,#832,#833,#839,#840,#841,#842,#843,
    #844,#845,#846,#847));
#824 = ORIENTED_EDGE('',*,*,#825,.F.);
#825 = EDGE_CURVE('',#489,#579,#826,.T.);
#826 = LINE('',#827,#828);
#827 = CARTESIAN_POINT('',(-30.,-20.,3.));
#828 = VECTOR('',#829,1.);
#829 = DIRECTION('',(1.,0.,0.));
#830 = ORIENTED_EDGE('',*,*,#496,.F.);
#831 = ORIENTED_EDGE('',*,*,#352,.T.);
#832 = ORIENTED_EDGE('',*,*,#289,.T.);
#833 = ORIENTED_EDGE('',*,*,#834,.F.);
#834 = EDGE_CURVE('',#144,#292,#835,.T.);
#835 = LINE('',#836,#837);
#836 = CARTESIAN_POINT('',(-30.,-20.,3.));
#837 = VECTOR('',#838,1.);
#838 = DIRECTION('',(1.,0.,0.));
#839 = ORIENTED_EDGE('',*,*,#153,.T.);
#840 = ORIENTED_EDGE('',*,*,#320,.T.);
#841 = ORIENTED_EDGE('',*,*,#422,.F.);
#842 = ORIENTED_EDGE('',*,*,#522,.F.);
#843 = ORIENTED_EDGE('',*,*,#546,.T.);
#844 = ORIENTED_EDGE('',*,*,#720,.T.);
#845 = ORIENTED_EDGE('',*,*,#760,.F.);
#846 = ORIENTED_EDGE('',*,*,#743,.F.);
#847 = ORIENTED_EDGE('',*,*,#578,.F.);
#848 = PLANE('',#849);
#849 = AXIS2_PLACEMENT_3D('',#850,#851,#852);
#850 = CARTESIAN_POINT('',(0.,-20.,7.885542168675));
#851 = DIRECTION('',(-0.,-1.,-0.));
#852 = DIRECTION('',(0.,0.,-1.));
#853 = ADVANCED_FACE('',(#854),#864,.F.);
#854 = FACE_BOUND('',#855,.T.);
#855 = EDGE_LOOP('',(#856,#863));
#856 = ORIENTED_EDGE('',*,*,#857,.F.);
#857 = EDGE_CURVE('',#227,#146,#858,.T.);
#858 = CIRCLE('',#859,6.);
#859 = AXIS2_PLACEMENT_3D('',#860,#861,#862);
#860 = CARTESIAN_POINT('',(22.,-11.,3.));
#861 = DIRECTION('',(0.,0.,1.));
#862 = DIRECTION('',(1.,0.,0.));
#863 = ORIENTED_EDGE('',*,*,#234,.T.);
#864 = CYLINDRICAL_SURFACE('',#865,6.);
#865 = AXIS2_PLACEMENT_3D('',#866,#867,#868);
#866 = CARTESIAN_POINT('',(22.,-11.,3.));
#867 = DIRECTION('',(-0.,-0.,-1.));
#868 = DIRECTION('',(1.,0.,0.));
#869 = ADVANCED_FACE('',(#870),#880,.F.);
#870 = FACE_BOUND('',#871,.T.);
#871 = EDGE_LOOP('',(#872,#879));
#872 = ORIENTED_EDGE('',*,*,#873,.F.);
#873 = EDGE_CURVE('',#170,#178,#874,.T.);
#874 = CIRCLE('',#875,6.);
#875 = AXIS2_PLACEMENT_3D('',#876,#877,#878);
#876 = CARTESIAN_POINT('',(22.,11.,3.));
#877 = DIRECTION('',(0.,0.,1.));
#878 = DIRECTION('',(1.,0.,0.));
#879 = ORIENTED_EDGE('',*,*,#177,.T.);
#880 = CYLINDRICAL_SURFACE('',#881,6.);
#881 = AXIS2_PLACEMENT_3D('',#882,#883,#884);
#882 = CARTESIAN_POINT('',(22.,11.,3.));
#883 = DIRECTION('',(-0.,-0.,-1.));
#884 = DIRECTION('',(1.,0.,0.));
#885 = ADVANCED_FACE('',(#886),#905,.F.);
#886 = FACE_BOUND('',#887,.F.);
#887 = EDGE_LOOP('',(#888,#896,#903,#904));
#888 = ORIENTED_EDGE('',*,*,#889,.F.);
#889 = EDGE_CURVE('',#890,#363,#892,.T.);
#890 = VERTEX_POINT('',#891);
#891 = CARTESIAN_POINT('',(-19.25,-11.,3.));
#892 = LINE('',#893,#894);
#893 = CARTESIAN_POINT('',(-19.25,-11.,3.));
#894 = VECTOR('',#895,1.);
#895 = DIRECTION('',(-0.,-0.,-1.));
#896 = ORIENTED_EDGE('',*,*,#897,.F.);
#897 = EDGE_CURVE('',#890,#890,#898,.T.);
#898 = CIRCLE('',#899,2.75);
#899 = AXIS2_PLACEMENT_3D('',#900,#901,#902);
#900 = CARTESIAN_POINT('',(-22.,-11.,3.));
#901 = DIRECTION('',(0.,0.,1.));
#902 = DIRECTION('',(1.,0.,0.));
#903 = ORIENTED_EDGE('',*,*,#889,.T.);
#904 = ORIENTED_EDGE('',*,*,#362,.T.);
#905 = CYLINDRICAL_SURFACE('',#906,2.75);
#906 = AXIS2_PLACEMENT_3D('',#907,#908,#909);
#907 = CARTESIAN_POINT('',(-22.,-11.,3.));
#908 = DIRECTION('',(0.,0.,1.));
#909 = DIRECTION('',(1.,0.,0.));
#910 = ADVANCED_FACE('',(#911),#930,.F.);
#911 = FACE_BOUND('',#912,.F.);
#912 = EDGE_LOOP('',(#913,#921,#928,#929));
#913 = ORIENTED_EDGE('',*,*,#914,.F.);
#914 = EDGE_CURVE('',#915,#374,#917,.T.);
#915 = VERTEX_POINT('',#916);
#916 = CARTESIAN_POINT('',(24.75,-11.,3.));
#917 = LINE('',#918,#919);
#918 = CARTESIAN_POINT('',(24.75,-11.,3.));
#919 = VECTOR('',#920,1.);
#920 = DIRECTION('',(-0.,-0.,-1.));
#921 = ORIENTED_EDGE('',*,*,#922,.F.);
#922 = EDGE_CURVE('',#915,#915,#923,.T.);
#923 = CIRCLE('',#924,2.75);
#924 = AXIS2_PLACEMENT_3D('',#925,#926,#927);
#925 = CARTESIAN_POINT('',(22.,-11.,3.));
#926 = DIRECTION('',(0.,0.,1.));
#927 = DIRECTION('',(1.,0.,0.));
#928 = ORIENTED_EDGE('',*,*,#914,.T.);
#929 = ORIENTED_EDGE('',*,*,#373,.T.);
#930 = CYLINDRICAL_SURFACE('',#931,2.75);
#931 = AXIS2_PLACEMENT_3D('',#932,#933,#934);
#932 = CARTESIAN_POINT('',(22.,-11.,3.));
#933 = DIRECTION('',(0.,0.,1.));
#934 = DIRECTION('',(1.,0.,0.));
#935 = ADVANCED_FACE('',(#936),#955,.F.);
#936 = FACE_BOUND('',#937,.F.);
#937 = EDGE_LOOP('',(#938,#946,#953,#954));
#938 = ORIENTED_EDGE('',*,*,#939,.F.);
#939 = EDGE_CURVE('',#940,#385,#942,.T.);
#940 = VERTEX_POINT('',#941);
#941 = CARTESIAN_POINT('',(-19.25,11.,3.));
#942 = LINE('',#943,#944);
#943 = CARTESIAN_POINT('',(-19.25,11.,3.));
#944 = VECTOR('',#945,1.);
#945 = DIRECTION('',(-0.,-0.,-1.));
#946 = ORIENTED_EDGE('',*,*,#947,.F.);
#947 = EDGE_CURVE('',#940,#940,#948,.T.);
#948 = CIRCLE('',#949,2.75);
#949 = AXIS2_PLACEMENT_3D('',#950,#951,#952);
#950 = CARTESIAN_POINT('',(-22.,11.,3.));
#951 = DIRECTION('',(0.,0.,1.));
#952 = DIRECTION('',(1.,0.,0.));
#953 = ORIENTED_EDGE('',*,*,#939,.T.);
#954 = ORIENTED_EDGE('',*,*,#384,.T.);
#955 = CYLINDRICAL_SURFACE('',#956,2.75);
#956 = AXIS2_PLACEMENT_3D('',#957,#958,#959);
#957 = CARTESIAN_POINT('',(-22.,11.,3.));
#958 = DIRECTION('',(0.,0.,1.));
#959 = DIRECTION('',(1.,0.,0.));
#960 = ADVANCED_FACE('',(#961),#980,.F.);
#961 = FACE_BOUND('',#962,.F.);
#962 = EDGE_LOOP('',(#963,#971,#978,#979));
#963 = ORIENTED_EDGE('',*,*,#964,.F.);
#964 = EDGE_CURVE('',#965,#396,#967,.T.);
#965 = VERTEX_POINT('',#966);
#966 = CARTESIAN_POINT('',(24.75,11.,3.));
#967 = LINE('',#968,#969);
#968 = CARTESIAN_POINT('',(24.75,11.,3.));
#969 = VECTOR('',#970,1.);
#970 = DIRECTION('',(-0.,-0.,-1.));
#971 = ORIENTED_EDGE('',*,*,#972,.F.);
#972 = EDGE_CURVE('',#965,#965,#973,.T.);
#973 = CIRCLE('',#974,2.75);
#974 = AXIS2_PLACEMENT_3D('',#975,#976,#977);
#975 = CARTESIAN_POINT('',(22.,11.,3.));
#976 = DIRECTION('',(0.,0.,1.));
#977 = DIRECTION('',(1.,0.,0.));
#978 = ORIENTED_EDGE('',*,*,#964,.T.);
#979 = ORIENTED_EDGE('',*,*,#395,.T.);
#980 = CYLINDRICAL_SURFACE('',#981,2.75);
#981 = AXIS2_PLACEMENT_3D('',#982,#983,#984);
#982 = CARTESIAN_POINT('',(22.,11.,3.));
#983 = DIRECTION('',(0.,0.,1.));
#984 = DIRECTION('',(1.,0.,0.));
#985 = ADVANCED_FACE('',(#986),#1011,.F.);
#986 = FACE_BOUND('',#987,.F.);
#987 = EDGE_LOOP('',(#988,#996,#1004,#1010));
#988 = ORIENTED_EDGE('',*,*,#989,.T.);
#989 = EDGE_CURVE('',#432,#990,#992,.T.);
#990 = VERTEX_POINT('',#991);
#991 = CARTESIAN_POINT('',(10.7,0.,20.));
#992 = LINE('',#993,#994);
#993 = CARTESIAN_POINT('',(10.7,0.,23.));
#994 = VECTOR('',#995,1.);
#995 = DIRECTION('',(-0.,-0.,-1.));
#996 = ORIENTED_EDGE('',*,*,#997,.T.);
#997 = EDGE_CURVE('',#990,#998,#1000,.T.);
#998 = VERTEX_POINT('',#999);
#999 = CARTESIAN_POINT('',(9.1,2.77128129211,20.));
#1000 = LINE('',#1001,#1002);
#1001 = CARTESIAN_POINT('',(10.7,0.,20.));
#1002 = VECTOR('',#1003,1.);
#1003 = DIRECTION('',(-0.5,0.866025403784,0.));
#1004 = ORIENTED_EDGE('',*,*,#1005,.F.);
#1005 = EDGE_CURVE('',#434,#998,#1006,.T.);
#1006 = LINE('',#1007,#1008);
#1007 = CARTESIAN_POINT('',(9.1,2.77128129211,23.));
#1008 = VECTOR('',#1009,1.);
#1009 = DIRECTION('',(-0.,-0.,-1.));
#1010 = ORIENTED_EDGE('',*,*,#431,.F.);
#1011 = PLANE('',#1012);
#1012 = AXIS2_PLACEMENT_3D('',#1013,#1014,#1015);
#1013 = CARTESIAN_POINT('',(10.7,0.,23.));
#1014 = DIRECTION('',(0.866025403784,0.5,0.));
#1015 = DIRECTION('',(-0.5,0.866025403784,0.));
#1016 = ADVANCED_FACE('',(#1017),#1035,.F.);
#1017 = FACE_BOUND('',#1018,.F.);
#1018 = EDGE_LOOP('',(#1019,#1020,#1028,#1034));
#1019 = ORIENTED_EDGE('',*,*,#1005,.T.);
#1020 = ORIENTED_EDGE('',*,*,#1021,.T.);
#1021 = EDGE_CURVE('',#998,#1022,#1024,.T.);
#1022 = VERTEX_POINT('',#1023);
#1023 = CARTESIAN_POINT('',(5.9,2.77128129211,20.));
#1024 = LINE('',#1025,#1026);
#1025 = CARTESIAN_POINT('',(9.1,2.77128129211,20.));
#1026 = VECTOR('',#1027,1.);
#1027 = DIRECTION('',(-1.,-4.163336342345E-16,0.));
#1028 = ORIENTED_EDGE('',*,*,#1029,.F.);
#1029 = EDGE_CURVE('',#466,#1022,#1030,.T.);
#1030 = LINE('',#1031,#1032);
#1031 = CARTESIAN_POINT('',(5.9,2.77128129211,23.));
#1032 = VECTOR('',#1033,1.);
#1033 = DIRECTION('',(-0.,-0.,-1.));
#1034 = ORIENTED_EDGE('',*,*,#473,.F.);
#1035 = PLANE('',#1036);
#1036 = AXIS2_PLACEMENT_3D('',#1037,#1038,#1039);
#1037 = CARTESIAN_POINT('',(9.1,2.77128129211,23.));
#1038 = DIRECTION('',(-4.163336342345E-16,1.,0.));
#1039 = DIRECTION('',(-1.,-4.163336342345E-16,0.));
#1040 = ADVANCED_FACE('',(#1041),#1059,.F.);
#1041 = FACE_BOUND('',#1042,.F.);
#1042 = EDGE_LOOP('',(#1043,#1044,#1052,#1058));
#1043 = ORIENTED_EDGE('',*,*,#1029,.T.);
#1044 = ORIENTED_EDGE('',*,*,#1045,.T.);
#1045 = EDGE_CURVE('',#1022,#1046,#1048,.T.);
#1046 = VERTEX_POINT('',#1047);
#1047 = CARTESIAN_POINT('',(4.3,0.,20.));
#1048 = LINE('',#1049,#1050);
#1049 = CARTESIAN_POINT('',(5.9,2.77128129211,20.));
#1050 = VECTOR('',#1051,1.);
#1051 = DIRECTION('',(-0.5,-0.866025403784,0.));
#1052 = ORIENTED_EDGE('',*,*,#1053,.F.);
#1053 = EDGE_CURVE('',#458,#1046,#1054,.T.);
#1054 = LINE('',#1055,#1056);
#1055 = CARTESIAN_POINT('',(4.3,0.,23.));
#1056 = VECTOR('',#1057,1.);
#1057 = DIRECTION('',(-0.,-0.,-1.));
#1058 = ORIENTED_EDGE('',*,*,#465,.F.);
#1059 = PLANE('',#1060);
#1060 = AXIS2_PLACEMENT_3D('',#1061,#1062,#1063);
#1061 = CARTESIAN_POINT('',(5.9,2.77128129211,23.));
#1062 = DIRECTION('',(-0.866025403784,0.5,0.));
#1063 = DIRECTION('',(-0.5,-0.866025403784,0.));
#1064 = ADVANCED_FACE('',(#1065),#1083,.F.);
#1065 = FACE_BOUND('',#1066,.F.);
#1066 = EDGE_LOOP('',(#1067,#1068,#1076,#1082));
#1067 = ORIENTED_EDGE('',*,*,#1053,.T.);
#1068 = ORIENTED_EDGE('',*,*,#1069,.T.);
#1069 = EDGE_CURVE('',#1046,#1070,#1072,.T.);
#1070 = VERTEX_POINT('',#1071);
#1071 = CARTESIAN_POINT('',(5.9,-2.77128129211,20.));
#1072 = LINE('',#1073,#1074);
#1073 = CARTESIAN_POINT('',(4.3,0.,20.));
#1074 = VECTOR('',#1075,1.);
#1075 = DIRECTION('',(0.5,-0.866025403784,0.));
#1076 = ORIENTED_EDGE('',*,*,#1077,.F.);
#1077 = EDGE_CURVE('',#450,#1070,#1078,.T.);
#1078 = LINE('',#1079,#1080);
#1079 = CARTESIAN_POINT('',(5.9,-2.77128129211,23.));
#1080 = VECTOR('',#1081,1.);
#1081 = DIRECTION('',(-0.,-0.,-1.));
#1082 = ORIENTED_EDGE('',*,*,#457,.F.);
#1083 = PLANE('',#1084);
#1084 = AXIS2_PLACEMENT_3D('',#1085,#1086,#1087);
#1085 = CARTESIAN_POINT('',(4.3,0.,23.));
#1086 = DIRECTION('',(-0.866025403784,-0.5,0.));
#1087 = DIRECTION('',(0.5,-0.866025403784,0.));
#1088 = ADVANCED_FACE('',(#1089),#1107,.F.);
#1089 = FACE_BOUND('',#1090,.F.);
#1090 = EDGE_LOOP('',(#1091,#1092,#1100,#1106));
#1091 = ORIENTED_EDGE('',*,*,#1077,.T.);
#1092 = ORIENTED_EDGE('',*,*,#1093,.T.);
#1093 = EDGE_CURVE('',#1070,#1094,#1096,.T.);
#1094 = VERTEX_POINT('',#1095);
#1095 = CARTESIAN_POINT('',(9.1,-2.77128129211,20.));
#1096 = LINE('',#1097,#1098);
#1097 = CARTESIAN_POINT('',(5.9,-2.77128129211,20.));
#1098 = VECTOR('',#1099,1.);
#1099 = DIRECTION('',(1.,-2.775557561563E-16,0.));
#1100 = ORIENTED_EDGE('',*,*,#1101,.F.);
#1101 = EDGE_CURVE('',#442,#1094,#1102,.T.);
#1102 = LINE('',#1103,#1104);
#1103 = CARTESIAN_POINT('',(9.1,-2.77128129211,23.));
#1104 = VECTOR('',#1105,1.);
#1105 = DIRECTION('',(-0.,-0.,-1.));
#1106 = ORIENTED_EDGE('',*,*,#449,.F.);
#1107 = PLANE('',#1108);
#1108 = AXIS2_PLACEMENT_3D('',#1109,#1110,#1111);
#1109 = CARTESIAN_POINT('',(5.9,-2.77128129211,23.));
#1110 = DIRECTION('',(-2.775557561563E-16,-1.,0.));
#1111 = DIRECTION('',(1.,-2.775557561563E-16,0.));
#1112 = ADVANCED_FACE('',(#1113),#1124,.F.);
#1113 = FACE_BOUND('',#1114,.F.);
#1114 = EDGE_LOOP('',(#1115,#1116,#1122,#1123));
#1115 = ORIENTED_EDGE('',*,*,#1101,.T.);
#1116 = ORIENTED_EDGE('',*,*,#1117,.T.);
#1117 = EDGE_CURVE('',#1094,#990,#1118,.T.);
#1118 = LINE('',#1119,#1120);
#1119 = CARTESIAN_POINT('',(9.1,-2.77128129211,20.));
#1120 = VECTOR('',#1121,1.);
#1121 = DIRECTION('',(0.5,0.866025403784,0.));
#1122 = ORIENTED_EDGE('',*,*,#989,.F.);
#1123 = ORIENTED_EDGE('',*,*,#441,.F.);
#1124 = PLANE('',#1125);
#1125 = AXIS2_PLACEMENT_3D('',#1126,#1127,#1128);
#1126 = CARTESIAN_POINT('',(9.1,-2.77128129211,23.));
#1127 = DIRECTION('',(0.866025403784,-0.5,0.));
#1128 = DIRECTION('',(0.5,0.866025403784,0.));
#1129 = ADVANCED_FACE('',(#1130),#1155,.F.);
#1130 = FACE_BOUND('',#1131,.F.);
#1131 = EDGE_LOOP('',(#1132,#1140,#1148,#1154));
#1132 = ORIENTED_EDGE('',*,*,#1133,.T.);
#1133 = EDGE_CURVE('',#770,#1134,#1136,.T.);
#1134 = VERTEX_POINT('',#1135);
#1135 = CARTESIAN_POINT('',(-5.55,0.,20.));
#1136 = LINE('',#1137,#1138);
#1137 = CARTESIAN_POINT('',(-5.55,0.,23.));
#1138 = VECTOR('',#1139,1.);
#1139 = DIRECTION('',(-0.,-0.,-1.));
#1140 = ORIENTED_EDGE('',*,*,#1141,.T.);
#1141 = EDGE_CURVE('',#1134,#1142,#1144,.T.);
#1142 = VERTEX_POINT('',#1143);
#1143 = CARTESIAN_POINT('',(-7.15,2.77128129211,20.));
#1144 = LINE('',#1145,#1146);
#1145 = CARTESIAN_POINT('',(-5.55,0.,20.));
#1146 = VECTOR('',#1147,1.);
#1147 = DIRECTION('',(-0.5,0.866025403784,0.));
#1148 = ORIENTED_EDGE('',*,*,#1149,.F.);
#1149 = EDGE_CURVE('',#772,#1142,#1150,.T.);
#1150 = LINE('',#1151,#1152);
#1151 = CARTESIAN_POINT('',(-7.15,2.77128129211,23.));
#1152 = VECTOR('',#1153,1.);
#1153 = DIRECTION('',(-0.,-0.,-1.));
#1154 = ORIENTED_EDGE('',*,*,#769,.F.);
#1155 = PLANE('',#1156);
#1156 = AXIS2_PLACEMENT_3D('',#1157,#1158,#1159);
#1157 = CARTESIAN_POINT('',(-5.55,0.,23.));
#1158 = DIRECTION('',(0.866025403784,0.5,0.));
#1159 = DIRECTION('',(-0.5,0.866025403784,0.));
#1160 = ADVANCED_FACE('',(#1161),#1179,.F.);
#1161 = FACE_BOUND('',#1162,.F.);
#1162 = EDGE_LOOP('',(#1163,#1164,#1172,#1178));
#1163 = ORIENTED_EDGE('',*,*,#1149,.T.);
#1164 = ORIENTED_EDGE('',*,*,#1165,.T.);
#1165 = EDGE_CURVE('',#1142,#1166,#1168,.T.);
#1166 = VERTEX_POINT('',#1167);
#1167 = CARTESIAN_POINT('',(-10.35,2.77128129211,20.));
#1168 = LINE('',#1169,#1170);
#1169 = CARTESIAN_POINT('',(-7.15,2.77128129211,20.));
#1170 = VECTOR('',#1171,1.);
#1171 = DIRECTION('',(-1.,-1.301736496373E-13,0.));
#1172 = ORIENTED_EDGE('',*,*,#1173,.F.);
#1173 = EDGE_CURVE('',#804,#1166,#1174,.T.);
#1174 = LINE('',#1175,#1176);
#1175 = CARTESIAN_POINT('',(-10.35,2.77128129211,23.));
#1176 = VECTOR('',#1177,1.);
#1177 = DIRECTION('',(-0.,-0.,-1.));
#1178 = ORIENTED_EDGE('',*,*,#811,.F.);
#1179 = PLANE('',#1180);
#1180 = AXIS2_PLACEMENT_3D('',#1181,#1182,#1183);
#1181 = CARTESIAN_POINT('',(-7.15,2.77128129211,23.));
#1182 = DIRECTION('',(-1.301736496373E-13,1.,0.));
#1183 = DIRECTION('',(-1.,-1.301736496373E-13,0.));
#1184 = ADVANCED_FACE('',(#1185),#1203,.F.);
#1185 = FACE_BOUND('',#1186,.F.);
#1186 = EDGE_LOOP('',(#1187,#1188,#1196,#1202));
#1187 = ORIENTED_EDGE('',*,*,#1173,.T.);
#1188 = ORIENTED_EDGE('',*,*,#1189,.T.);
#1189 = EDGE_CURVE('',#1166,#1190,#1192,.T.);
#1190 = VERTEX_POINT('',#1191);
#1191 = CARTESIAN_POINT('',(-11.95,-8.335554468886E-13,20.));
#1192 = LINE('',#1193,#1194);
#1193 = CARTESIAN_POINT('',(-10.35,2.77128129211,20.));
#1194 = VECTOR('',#1195,1.);
#1195 = DIRECTION('',(-0.5,-0.866025403785,0.));
#1196 = ORIENTED_EDGE('',*,*,#1197,.F.);
#1197 = EDGE_CURVE('',#796,#1190,#1198,.T.);
#1198 = LINE('',#1199,#1200);
#1199 = CARTESIAN_POINT('',(-11.95,-8.335554468886E-13,23.));
#1200 = VECTOR('',#1201,1.);
#1201 = DIRECTION('',(-0.,-0.,-1.));
#1202 = ORIENTED_EDGE('',*,*,#803,.F.);
#1203 = PLANE('',#1204);
#1204 = AXIS2_PLACEMENT_3D('',#1205,#1206,#1207);
#1205 = CARTESIAN_POINT('',(-10.35,2.77128129211,23.));
#1206 = DIRECTION('',(-0.866025403785,0.5,0.));
#1207 = DIRECTION('',(-0.5,-0.866025403785,0.));
#1208 = ADVANCED_FACE('',(#1209),#1227,.F.);
#1209 = FACE_BOUND('',#1210,.F.);
#1210 = EDGE_LOOP('',(#1211,#1212,#1220,#1226));
#1211 = ORIENTED_EDGE('',*,*,#1197,.T.);
#1212 = ORIENTED_EDGE('',*,*,#1213,.T.);
#1213 = EDGE_CURVE('',#1190,#1214,#1216,.T.);
#1214 = VERTEX_POINT('',#1215);
#1215 = CARTESIAN_POINT('',(-10.34999999999,-2.771281292111,20.));
#1216 = LINE('',#1217,#1218);
#1217 = CARTESIAN_POINT('',(-11.95,-8.335554468886E-13,20.));
#1218 = VECTOR('',#1219,1.);
#1219 = DIRECTION('',(0.5,-0.866025403784,0.));
#1220 = ORIENTED_EDGE('',*,*,#1221,.F.);
#1221 = EDGE_CURVE('',#788,#1214,#1222,.T.);
#1222 = LINE('',#1223,#1224);
#1223 = CARTESIAN_POINT('',(-10.34999999999,-2.771281292111,23.));
#1224 = VECTOR('',#1225,1.);
#1225 = DIRECTION('',(-0.,-0.,-1.));
#1226 = ORIENTED_EDGE('',*,*,#795,.F.);
#1227 = PLANE('',#1228);
#1228 = AXIS2_PLACEMENT_3D('',#1229,#1230,#1231);
#1229 = CARTESIAN_POINT('',(-11.95,-8.335554468886E-13,23.));
#1230 = DIRECTION('',(-0.866025403784,-0.5,0.));
#1231 = DIRECTION('',(0.5,-0.866025403784,0.));
#1232 = ADVANCED_FACE('',(#1233),#1251,.F.);
#1233 = FACE_BOUND('',#1234,.F.);
#1234 = EDGE_LOOP('',(#1235,#1236,#1244,#1250));
#1235 = ORIENTED_EDGE('',*,*,#1221,.T.);
#1236 = ORIENTED_EDGE('',*,*,#1237,.T.);
#1237 = EDGE_CURVE('',#1214,#1238,#1240,.T.);
#1238 = VERTEX_POINT('',#1239);
#1239 = CARTESIAN_POINT('',(-7.149999999999,-2.77128129211,20.));
#1240 = LINE('',#1241,#1242);
#1241 = CARTESIAN_POINT('',(-10.34999999999,-2.771281292111,20.));
#1242 = VECTOR('',#1243,1.);
#1243 = DIRECTION('',(1.,3.90798504668E-13,0.));
#1244 = ORIENTED_EDGE('',*,*,#1245,.F.);
#1245 = EDGE_CURVE('',#780,#1238,#1246,.T.);
#1246 = LINE('',#1247,#1248);
#1247 = CARTESIAN_POINT('',(-7.149999999999,-2.77128129211,23.));
#1248 = VECTOR('',#1249,1.);
#1249 = DIRECTION('',(-0.,-0.,-1.));
#1250 = ORIENTED_EDGE('',*,*,#787,.F.);
#1251 = PLANE('',#1252);
#1252 = AXIS2_PLACEMENT_3D('',#1253,#1254,#1255);
#1253 = CARTESIAN_POINT('',(-10.34999999999,-2.771281292111,23.));
#1254 = DIRECTION('',(3.90798504668E-13,-1.,0.));
#1255 = DIRECTION('',(1.,3.90798504668E-13,0.));
#1256 = ADVANCED_FACE('',(#1257),#1268,.F.);
#1257 = FACE_BOUND('',#1258,.F.);
#1258 = EDGE_LOOP('',(#1259,#1260,#1266,#1267));
#1259 = ORIENTED_EDGE('',*,*,#1245,.T.);
#1260 = ORIENTED_EDGE('',*,*,#1261,.T.);
#1261 = EDGE_CURVE('',#1238,#1134,#1262,.T.);
#1262 = LINE('',#1263,#1264);
#1263 = CARTESIAN_POINT('',(-7.149999999999,-2.77128129211,20.));
#1264 = VECTOR('',#1265,1.);
#1265 = DIRECTION('',(0.5,0.866025403785,0.));
#1266 = ORIENTED_EDGE('',*,*,#1133,.F.);
#1267 = ORIENTED_EDGE('',*,*,#779,.F.);
#1268 = PLANE('',#1269);
#1269 = AXIS2_PLACEMENT_3D('',#1270,#1271,#1272);
#1270 = CARTESIAN_POINT('',(-7.149999999999,-2.77128129211,23.));
#1271 = DIRECTION('',(0.866025403785,-0.5,0.));
#1272 = DIRECTION('',(0.5,0.866025403785,0.));
#1273 = ADVANCED_FACE('',(#1274,#1282),#1293,.T.);
#1274 = FACE_BOUND('',#1275,.T.);
#1275 = EDGE_LOOP('',(#1276,#1277,#1278,#1279,#1280,#1281));
#1276 = ORIENTED_EDGE('',*,*,#997,.T.);
#1277 = ORIENTED_EDGE('',*,*,#1021,.T.);
#1278 = ORIENTED_EDGE('',*,*,#1045,.T.);
#1279 = ORIENTED_EDGE('',*,*,#1069,.T.);
#1280 = ORIENTED_EDGE('',*,*,#1093,.T.);
#1281 = ORIENTED_EDGE('',*,*,#1117,.T.);
#1282 = FACE_BOUND('',#1283,.T.);
#1283 = EDGE_LOOP('',(#1284));
#1284 = ORIENTED_EDGE('',*,*,#1285,.F.);
#1285 = EDGE_CURVE('',#1286,#1286,#1288,.T.);
#1286 = VERTEX_POINT('',#1287);
#1287 = CARTESIAN_POINT('',(9.05,0.,20.));
#1288 = CIRCLE('',#1289,1.55);
#1289 = AXIS2_PLACEMENT_3D('',#1290,#1291,#1292);
#1290 = CARTESIAN_POINT('',(7.5,0.,20.));
#1291 = DIRECTION('',(0.,0.,1.));
#1292 = DIRECTION('',(1.,0.,0.));
#1293 = PLANE('',#1294);
#1294 = AXIS2_PLACEMENT_3D('',#1295,#1296,#1297);
#1295 = CARTESIAN_POINT('',(-0.625,-1.727784582073E-14,20.));
#1296 = DIRECTION('',(0.,0.,1.));
#1297 = DIRECTION('',(1.,0.,0.));
#1298 = ADVANCED_FACE('',(#1299,#1307),#1318,.T.);
#1299 = FACE_BOUND('',#1300,.T.);
#1300 = EDGE_LOOP('',(#1301,#1302,#1303,#1304,#1305,#1306));
#1301 = ORIENTED_EDGE('',*,*,#1141,.T.);
#1302 = ORIENTED_EDGE('',*,*,#1165,.T.);
#1303 = ORIENTED_EDGE('',*,*,#1189,.T.);
#1304 = ORIENTED_EDGE('',*,*,#1213,.T.);
#1305 = ORIENTED_EDGE('',*,*,#1237,.T.);
#1306 = ORIENTED_EDGE('',*,*,#1261,.T.);
#1307 = FACE_BOUND('',#1308,.T.);
#1308 = EDGE_LOOP('',(#1309));
#1309 = ORIENTED_EDGE('',*,*,#1310,.F.);
#1310 = EDGE_CURVE('',#1311,#1311,#1313,.T.);
#1311 = VERTEX_POINT('',#1312);
#1312 = CARTESIAN_POINT('',(-7.2,0.,20.));
#1313 = CIRCLE('',#1314,1.55);
#1314 = AXIS2_PLACEMENT_3D('',#1315,#1316,#1317);
#1315 = CARTESIAN_POINT('',(-8.75,0.,20.));
#1316 = DIRECTION('',(0.,0.,1.));
#1317 = DIRECTION('',(1.,0.,0.));
#1318 = PLANE('',#1319);
#1319 = AXIS2_PLACEMENT_3D('',#1320,#1321,#1322);
#1320 = CARTESIAN_POINT('',(-0.625,-1.727784582073E-14,20.));
#1321 = DIRECTION('',(0.,0.,1.));
#1322 = DIRECTION('',(1.,0.,0.));
#1323 = ADVANCED_FACE('',(#1324),#1343,.F.);
#1324 = FACE_BOUND('',#1325,.F.);
#1325 = EDGE_LOOP('',(#1326,#1327,#1335,#1342));
#1326 = ORIENTED_EDGE('',*,*,#1285,.F.);
#1327 = ORIENTED_EDGE('',*,*,#1328,.T.);
#1328 = EDGE_CURVE('',#1286,#1329,#1331,.T.);
#1329 = VERTEX_POINT('',#1330);
#1330 = CARTESIAN_POINT('',(9.05,0.,13.));
#1331 = LINE('',#1332,#1333);
#1332 = CARTESIAN_POINT('',(9.05,0.,23.));
#1333 = VECTOR('',#1334,1.);
#1334 = DIRECTION('',(-0.,-0.,-1.));
#1335 = ORIENTED_EDGE('',*,*,#1336,.T.);
#1336 = EDGE_CURVE('',#1329,#1329,#1337,.T.);
#1337 = CIRCLE('',#1338,1.55);
#1338 = AXIS2_PLACEMENT_3D('',#1339,#1340,#1341);
#1339 = CARTESIAN_POINT('',(7.5,0.,13.));
#1340 = DIRECTION('',(0.,0.,1.));
#1341 = DIRECTION('',(1.,0.,0.));
#1342 = ORIENTED_EDGE('',*,*,#1328,.F.);
#1343 = CYLINDRICAL_SURFACE('',#1344,1.55);
#1344 = AXIS2_PLACEMENT_3D('',#1345,#1346,#1347);
#1345 = CARTESIAN_POINT('',(7.5,0.,23.));
#1346 = DIRECTION('',(0.,0.,1.));
#1347 = DIRECTION('',(1.,0.,0.));
#1348 = ADVANCED_FACE('',(#1349),#1368,.F.);
#1349 = FACE_BOUND('',#1350,.F.);
#1350 = EDGE_LOOP('',(#1351,#1352,#1360,#1367));
#1351 = ORIENTED_EDGE('',*,*,#1310,.F.);
#1352 = ORIENTED_EDGE('',*,*,#1353,.T.);
#1353 = EDGE_CURVE('',#1311,#1354,#1356,.T.);
#1354 = VERTEX_POINT('',#1355);
#1355 = CARTESIAN_POINT('',(-7.2,0.,13.));
#1356 = LINE('',#1357,#1358);
#1357 = CARTESIAN_POINT('',(-7.2,0.,23.));
#1358 = VECTOR('',#1359,1.);
#1359 = DIRECTION('',(-0.,-0.,-1.));
#1360 = ORIENTED_EDGE('',*,*,#1361,.T.);
#1361 = EDGE_CURVE('',#1354,#1354,#1362,.T.);
#1362 = CIRCLE('',#1363,1.55);
#1363 = AXIS2_PLACEMENT_3D('',#1364,#1365,#1366);
#1364 = CARTESIAN_POINT('',(-8.75,0.,13.));
#1365 = DIRECTION('',(0.,0.,1.));
#1366 = DIRECTION('',(1.,0.,0.));
#1367 = ORIENTED_EDGE('',*,*,#1353,.F.);
#1368 = CYLINDRICAL_SURFACE('',#1369,1.55);
#1369 = AXIS2_PLACEMENT_3D('',#1370,#1371,#1372);
#1370 = CARTESIAN_POINT('',(-8.75,0.,23.));
#1371 = DIRECTION('',(0.,0.,1.));
#1372 = DIRECTION('',(1.,0.,0.));
#1373 = ADVANCED_FACE('',(#1374),#1377,.T.);
#1374 = FACE_BOUND('',#1375,.T.);
#1375 = EDGE_LOOP('',(#1376));
#1376 = ORIENTED_EDGE('',*,*,#1336,.T.);
#1377 = PLANE('',#1378);
#1378 = AXIS2_PLACEMENT_3D('',#1379,#1380,#1381);
#1379 = CARTESIAN_POINT('',(-0.625,-3.163670897797E-17,13.));
#1380 = DIRECTION('',(0.,0.,1.));
#1381 = DIRECTION('',(1.,0.,0.));
#1382 = ADVANCED_FACE('',(#1383),#1386,.T.);
#1383 = FACE_BOUND('',#1384,.T.);
#1384 = EDGE_LOOP('',(#1385));
#1385 = ORIENTED_EDGE('',*,*,#1361,.T.);
#1386 = PLANE('',#1387);
#1387 = AXIS2_PLACEMENT_3D('',#1388,#1389,#1390);
#1388 = CARTESIAN_POINT('',(-0.625,-3.163670897797E-17,13.));
#1389 = DIRECTION('',(0.,0.,1.));
#1390 = DIRECTION('',(1.,0.,0.));
#1391 = ADVANCED_FACE('',(#1392,#1402,#1405),#1408,.T.);
#1392 = FACE_BOUND('',#1393,.T.);
#1393 = EDGE_LOOP('',(#1394,#1395,#1396,#1397,#1398,#1399,#1400,#1401));
#1394 = ORIENTED_EDGE('',*,*,#21,.T.);
#1395 = ORIENTED_EDGE('',*,*,#169,.F.);
#1396 = ORIENTED_EDGE('',*,*,#873,.T.);
#1397 = ORIENTED_EDGE('',*,*,#226,.F.);
#1398 = ORIENTED_EDGE('',*,*,#857,.T.);
#1399 = ORIENTED_EDGE('',*,*,#143,.F.);
#1400 = ORIENTED_EDGE('',*,*,#834,.T.);
#1401 = ORIENTED_EDGE('',*,*,#299,.T.);
#1402 = FACE_BOUND('',#1403,.T.);
#1403 = EDGE_LOOP('',(#1404));
#1404 = ORIENTED_EDGE('',*,*,#922,.F.);
#1405 = FACE_BOUND('',#1406,.T.);
#1406 = EDGE_LOOP('',(#1407));
#1407 = ORIENTED_EDGE('',*,*,#972,.F.);
#1408 = PLANE('',#1409);
#1409 = AXIS2_PLACEMENT_3D('',#1410,#1411,#1412);
#1410 = CARTESIAN_POINT('',(23.663748751547,0.,3.));
#1411 = DIRECTION('',(0.,0.,1.));
#1412 = DIRECTION('',(1.,0.,0.));
#1413 = ADVANCED_FACE('',(#1414,#1454,#1457),#1460,.T.);
#1414 = FACE_BOUND('',#1415,.T.);
#1415 = EDGE_LOOP('',(#1416,#1417,#1418,#1419,#1420,#1421,#1430,#1437,
    #1438,#1447));
#1416 = ORIENTED_EDGE('',*,*,#561,.F.);
#1417 = ORIENTED_EDGE('',*,*,#55,.T.);
#1418 = ORIENTED_EDGE('',*,*,#488,.T.);
#1419 = ORIENTED_EDGE('',*,*,#825,.T.);
#1420 = ORIENTED_EDGE('',*,*,#587,.F.);
#1421 = ORIENTED_EDGE('',*,*,#1422,.T.);
#1422 = EDGE_CURVE('',#588,#1423,#1425,.T.);
#1423 = VERTEX_POINT('',#1424);
#1424 = CARTESIAN_POINT('',(-16.,-11.,3.));
#1425 = CIRCLE('',#1426,6.);
#1426 = AXIS2_PLACEMENT_3D('',#1427,#1428,#1429);
#1427 = CARTESIAN_POINT('',(-22.,-11.,3.));
#1428 = DIRECTION('',(0.,0.,1.));
#1429 = DIRECTION('',(1.,0.,0.));
#1430 = ORIENTED_EDGE('',*,*,#1431,.T.);
#1431 = EDGE_CURVE('',#1423,#621,#1432,.T.);
#1432 = CIRCLE('',#1433,6.);
#1433 = AXIS2_PLACEMENT_3D('',#1434,#1435,#1436);
#1434 = CARTESIAN_POINT('',(-22.,-11.,3.));
#1435 = DIRECTION('',(0.,0.,1.));
#1436 = DIRECTION('',(1.,0.,0.));
#1437 = ORIENTED_EDGE('',*,*,#645,.F.);
#1438 = ORIENTED_EDGE('',*,*,#1439,.T.);
#1439 = EDGE_CURVE('',#646,#1440,#1442,.T.);
#1440 = VERTEX_POINT('',#1441);
#1441 = CARTESIAN_POINT('',(-16.,11.,3.));
#1442 = CIRCLE('',#1443,6.);
#1443 = AXIS2_PLACEMENT_3D('',#1444,#1445,#1446);
#1444 = CARTESIAN_POINT('',(-22.,11.,3.));
#1445 = DIRECTION('',(0.,0.,1.));
#1446 = DIRECTION('',(1.,0.,0.));
#1447 = ORIENTED_EDGE('',*,*,#1448,.T.);
#1448 = EDGE_CURVE('',#1440,#562,#1449,.T.);
#1449 = CIRCLE('',#1450,6.);
#1450 = AXIS2_PLACEMENT_3D('',#1451,#1452,#1453);
#1451 = CARTESIAN_POINT('',(-22.,11.,3.));
#1452 = DIRECTION('',(0.,0.,1.));
#1453 = DIRECTION('',(1.,0.,0.));
#1454 = FACE_BOUND('',#1455,.T.);
#1455 = EDGE_LOOP('',(#1456));
#1456 = ORIENTED_EDGE('',*,*,#947,.F.);
#1457 = FACE_BOUND('',#1458,.T.);
#1458 = EDGE_LOOP('',(#1459));
#1459 = ORIENTED_EDGE('',*,*,#897,.F.);
#1460 = PLANE('',#1461);
#1461 = AXIS2_PLACEMENT_3D('',#1462,#1463,#1464);
#1462 = CARTESIAN_POINT('',(-23.63112096109,3.845975623387E-16,3.));
#1463 = DIRECTION('',(0.,0.,1.));
#1464 = DIRECTION('',(1.,0.,0.));
#1465 = ADVANCED_FACE('',(#1466),#1472,.F.);
#1466 = FACE_BOUND('',#1467,.T.);
#1467 = EDGE_LOOP('',(#1468,#1469,#1470,#1471));
#1468 = ORIENTED_EDGE('',*,*,#1439,.F.);
#1469 = ORIENTED_EDGE('',*,*,#653,.T.);
#1470 = ORIENTED_EDGE('',*,*,#678,.T.);
#1471 = ORIENTED_EDGE('',*,*,#1448,.F.);
#1472 = CYLINDRICAL_SURFACE('',#1473,6.);
#1473 = AXIS2_PLACEMENT_3D('',#1474,#1475,#1476);
#1474 = CARTESIAN_POINT('',(-22.,11.,3.));
#1475 = DIRECTION('',(-0.,-0.,-1.));
#1476 = DIRECTION('',(1.,0.,0.));
#1477 = ADVANCED_FACE('',(#1478),#1484,.F.);
#1478 = FACE_BOUND('',#1479,.T.);
#1479 = EDGE_LOOP('',(#1480,#1481,#1482,#1483));
#1480 = ORIENTED_EDGE('',*,*,#1422,.F.);
#1481 = ORIENTED_EDGE('',*,*,#595,.T.);
#1482 = ORIENTED_EDGE('',*,*,#620,.T.);
#1483 = ORIENTED_EDGE('',*,*,#1431,.F.);
#1484 = CYLINDRICAL_SURFACE('',#1485,6.);
#1485 = AXIS2_PLACEMENT_3D('',#1486,#1487,#1488);
#1486 = CARTESIAN_POINT('',(-22.,-11.,3.));
#1487 = DIRECTION('',(-0.,-0.,-1.));
#1488 = DIRECTION('',(1.,0.,0.));
#1489 = ( GEOMETRIC_REPRESENTATION_CONTEXT(3) 
GLOBAL_UNCERTAINTY_ASSIGNED_CONTEXT((#1493)) 
GLOBAL_UNIT_ASSIGNED_CONTEXT((#1490,#1491,#1492)) REPRESENTATION_CONTEXT
('Context #1','3D Context with UNIT and UNCERTAINTY') );
#1490 = ( LENGTH_UNIT() NAMED_UNIT(*) SI_UNIT(.MILLI.,.METRE.) );
#1491 = ( NAMED_UNIT(*) PLANE_ANGLE_UNIT() SI_UNIT($,.RADIAN.) );
#1492 = ( NAMED_UNIT(*) SI_UNIT($,.STERADIAN.) SOLID_ANGLE_UNIT() );
#1493 = UNCERTAINTY_MEASURE_WITH_UNIT(LENGTH_MEASURE(2.E-05),#1490,
  'distance_accuracy_value','confusion accuracy');
#1494 = PRODUCT_RELATED_PRODUCT_CATEGORY('detail',$,(#7));
#1495 = PRODUCT_CATEGORY_RELATIONSHIP('','',#1496,#1494);
#1496 = PRODUCT_CATEGORY('part',$);
#1497 = CC_DESIGN_PERSON_AND_ORGANIZATION_ASSIGNMENT(#1498,#1501,(#6,#5)
  );
#1498 = PERSON_AND_ORGANIZATION(#1499,#1500);
#1499 = PERSON('IP169.254.190,karol','','karol',$,$,$);
#1500 = ORGANIZATION('IP169.254.190','Unspecified','');
#1501 = PERSON_AND_ORGANIZATION_ROLE('creator');
#1502 = CC_DESIGN_PERSON_AND_ORGANIZATION_ASSIGNMENT(#1498,#1503,(#7));
#1503 = PERSON_AND_ORGANIZATION_ROLE('design_owner');
#1504 = CC_DESIGN_PERSON_AND_ORGANIZATION_ASSIGNMENT(#1498,#1505,(#6));
#1505 = PERSON_AND_ORGANIZATION_ROLE('design_supplier');
#1506 = CC_DESIGN_PERSON_AND_ORGANIZATION_ASSIGNMENT(#1498,#1507,(#1508)
  );
#1507 = PERSON_AND_ORGANIZATION_ROLE('classification_officer');
#1508 = SECURITY_CLASSIFICATION('','',#1509);
#1509 = SECURITY_CLASSIFICATION_LEVEL('unclassified');
#1510 = CC_DESIGN_SECURITY_CLASSIFICATION(#1508,(#6));
#1511 = CC_DESIGN_DATE_AND_TIME_ASSIGNMENT(#1512,#1516,(#5));
#1512 = DATE_AND_TIME(#1513,#1514);
#1513 = CALENDAR_DATE(2026,25,5);
#1514 = LOCAL_TIME(18,22,$,#1515);
#1515 = COORDINATED_UNIVERSAL_TIME_OFFSET(1,$,.AHEAD.);
#1516 = DATE_TIME_ROLE('creation_date');
#1517 = CC_DESIGN_DATE_AND_TIME_ASSIGNMENT(#1512,#1518,(#1508));
#1518 = DATE_TIME_ROLE('classification_date');
#1519 = CC_DESIGN_APPROVAL(#1520,(#6,#5,#1508));
#1520 = APPROVAL(#1521,'');
#1521 = APPROVAL_STATUS('not_yet_approved');
#1522 = APPROVAL_PERSON_ORGANIZATION(#1498,#1520,#1523);
#1523 = APPROVAL_ROLE('approver');
#1524 = APPROVAL_DATE_TIME(#1512,#1520);
#1525 = MECHANICAL_DESIGN_GEOMETRIC_PRESENTATION_REPRESENTATION('',(
    #1526),#1489);
#1526 = STYLED_ITEM('color',(#1527),#15);
#1527 = PRESENTATION_STYLE_ASSIGNMENT((#1528,#1534));
#1528 = SURFACE_STYLE_USAGE(.BOTH.,#1529);
#1529 = SURFACE_SIDE_STYLE('',(#1530));
#1530 = SURFACE_STYLE_FILL_AREA(#1531);
#1531 = FILL_AREA_STYLE('',(#1532));
#1532 = FILL_AREA_STYLE_COLOUR('',#1533);
#1533 = COLOUR_RGB('',0.447059003357,0.474510015008,0.501960993452);
#1534 = CURVE_STYLE('',#1535,POSITIVE_LENGTH_MEASURE(0.1),#1536);
#1535 = DRAUGHTING_PRE_DEFINED_CURVE_FONT('continuous');
#1536 = COLOUR_RGB('',9.803921802644E-02,9.803921802644E-02,
  9.803921802644E-02);
ENDSEC;
END-ISO-10303-21;
