ISO-10303-21;
HEADER;
FILE_DESCRIPTION(('FreeCAD Model'),'2;1');
FILE_NAME('Open CASCADE Shape Model','2026-03-28T17:17:07',(''),(''),
  'Open CASCADE STEP processor 7.8','FreeCAD','Unknown');
FILE_SCHEMA(('CONFIG_CONTROL_DESIGN','SHAPE_APPEARANCE_LAYER_MIM'));
ENDSEC;
DATA;
#1 = APPLICATION_PROTOCOL_DEFINITION('international standard',
  'config_control_design',1994,#2);
#2 = APPLICATION_CONTEXT(
'configuration controlled 3D designs of mechanical parts and assemblies'
  );
#3 = SHAPE_DEFINITION_REPRESENTATION(#4,#10);
#4 = PRODUCT_DEFINITION_SHAPE('','',#5);
#5 = PRODUCT_DEFINITION('design','',#6,#9);
#6 = PRODUCT_DEFINITION_FORMATION_WITH_SPECIFIED_SOURCE('','',#7,
  .NOT_KNOWN.);
#7 = PRODUCT('Zawartość','Zawartość','',(#8));
#8 = MECHANICAL_CONTEXT('',#2,'mechanical');
#9 = DESIGN_CONTEXT('',#2,'design');
#10 = ADVANCED_BREP_SHAPE_REPRESENTATION('',(#11,#15),#1939);
#11 = AXIS2_PLACEMENT_3D('',#12,#13,#14);
#12 = CARTESIAN_POINT('',(0.,0.,0.));
#13 = DIRECTION('',(0.,0.,1.));
#14 = DIRECTION('',(1.,0.,-0.));
#15 = MANIFOLD_SOLID_BREP('',#16);
#16 = CLOSED_SHELL('',(#17,#57,#205,#230,#254,#355,#372,#389,#406,#423,
    #657,#763,#788,#813,#998,#1101,#1118,#1135,#1152,#1164,#1181,#1198,
    #1215,#1322,#1347,#1437,#1454,#1471,#1483,#1505,#1522,#1539,#1551,
    #1573,#1590,#1607,#1619,#1641,#1658,#1675,#1687,#1704,#1721,#1738,
    #1750,#1767,#1784,#1796,#1813,#1830,#1847,#1864,#1881,#1898,#1915,
    #1927));
#17 = ADVANCED_FACE('',(#18),#52,.F.);
#18 = FACE_BOUND('',#19,.F.);
#19 = EDGE_LOOP('',(#20,#30,#38,#46));
#20 = ORIENTED_EDGE('',*,*,#21,.F.);
#21 = EDGE_CURVE('',#22,#24,#26,.T.);
#22 = VERTEX_POINT('',#23);
#23 = CARTESIAN_POINT('',(-65.,7.5,-5.E-02));
#24 = VERTEX_POINT('',#25);
#25 = CARTESIAN_POINT('',(-60.34289321881,7.500000000393,-4.707106781187
    ));
#26 = LINE('',#27,#28);
#27 = CARTESIAN_POINT('',(-44.73783783783,7.499999994053,-20.31216216216
    ));
#28 = VECTOR('',#29,1.);
#29 = DIRECTION('',(0.707106781187,-2.8728105E-10,-0.707106781187));
#30 = ORIENTED_EDGE('',*,*,#31,.T.);
#31 = EDGE_CURVE('',#22,#32,#34,.T.);
#32 = VERTEX_POINT('',#33);
#33 = CARTESIAN_POINT('',(-65.,5.1,-5.E-02));
#34 = LINE('',#35,#36);
#35 = CARTESIAN_POINT('',(-65.,7.5,-5.E-02));
#36 = VECTOR('',#37,1.);
#37 = DIRECTION('',(0.,-1.,0.));
#38 = ORIENTED_EDGE('',*,*,#39,.T.);
#39 = EDGE_CURVE('',#32,#40,#42,.T.);
#40 = VERTEX_POINT('',#41);
#41 = CARTESIAN_POINT('',(-60.34289321881,5.1,-4.707106781187));
#42 = LINE('',#43,#44);
#43 = CARTESIAN_POINT('',(-63.775,5.1,-1.275));
#44 = VECTOR('',#45,1.);
#45 = DIRECTION('',(0.707106781187,0.,-0.707106781187));
#46 = ORIENTED_EDGE('',*,*,#47,.F.);
#47 = EDGE_CURVE('',#24,#40,#48,.T.);
#48 = LINE('',#49,#50);
#49 = CARTESIAN_POINT('',(-60.34289321881,7.500000000274,-4.707106781187
    ));
#50 = VECTOR('',#51,1.);
#51 = DIRECTION('',(0.,-1.,0.));
#52 = PLANE('',#53);
#53 = AXIS2_PLACEMENT_3D('',#54,#55,#56);
#54 = CARTESIAN_POINT('',(-62.525,7.5,-2.525));
#55 = DIRECTION('',(0.707106781187,0.,0.707106781187));
#56 = DIRECTION('',(0.,-1.,0.));
#57 = ADVANCED_FACE('',(#58),#200,.T.);
#58 = FACE_BOUND('',#59,.T.);
#59 = EDGE_LOOP('',(#60,#70,#77,#78,#86,#94,#102,#110,#118,#126,#135,
    #143,#152,#160,#168,#176,#185,#193));
#60 = ORIENTED_EDGE('',*,*,#61,.T.);
#61 = EDGE_CURVE('',#62,#64,#66,.T.);
#62 = VERTEX_POINT('',#63);
#63 = CARTESIAN_POINT('',(22.5,7.5,-5.));
#64 = VERTEX_POINT('',#65);
#65 = CARTESIAN_POINT('',(-59.63578643762,7.5,-5.));
#66 = LINE('',#67,#68);
#67 = CARTESIAN_POINT('',(50.,7.5,-5.));
#68 = VECTOR('',#69,1.);
#69 = DIRECTION('',(-1.,0.,0.));
#70 = ORIENTED_EDGE('',*,*,#71,.F.);
#71 = EDGE_CURVE('',#24,#64,#72,.T.);
#72 = CIRCLE('',#73,1.);
#73 = AXIS2_PLACEMENT_3D('',#74,#75,#76);
#74 = CARTESIAN_POINT('',(-59.63578643762,7.500000000891,-4.));
#75 = DIRECTION('',(0.,-1.,0.));
#76 = DIRECTION('',(0.,0.,-1.));
#77 = ORIENTED_EDGE('',*,*,#21,.F.);
#78 = ORIENTED_EDGE('',*,*,#79,.F.);
#79 = EDGE_CURVE('',#80,#22,#82,.T.);
#80 = VERTEX_POINT('',#81);
#81 = CARTESIAN_POINT('',(-65.,7.5,0.));
#82 = LINE('',#83,#84);
#83 = CARTESIAN_POINT('',(-65.,7.5,0.));
#84 = VECTOR('',#85,1.);
#85 = DIRECTION('',(0.,0.,-1.));
#86 = ORIENTED_EDGE('',*,*,#87,.T.);
#87 = EDGE_CURVE('',#80,#88,#90,.T.);
#88 = VERTEX_POINT('',#89);
#89 = CARTESIAN_POINT('',(-73.,7.500000002424,0.));
#90 = LINE('',#91,#92);
#91 = CARTESIAN_POINT('',(100.,7.500000004273,0.));
#92 = VECTOR('',#93,1.);
#93 = DIRECTION('',(-1.,0.,0.));
#94 = ORIENTED_EDGE('',*,*,#95,.T.);
#95 = EDGE_CURVE('',#88,#96,#98,.T.);
#96 = VERTEX_POINT('',#97);
#97 = CARTESIAN_POINT('',(-73.,7.500000002424,5.));
#98 = LINE('',#99,#100);
#99 = CARTESIAN_POINT('',(-73.,7.500000002424,6.945511E-10));
#100 = VECTOR('',#101,1.);
#101 = DIRECTION('',(0.,0.,1.));
#102 = ORIENTED_EDGE('',*,*,#103,.F.);
#103 = EDGE_CURVE('',#104,#96,#106,.T.);
#104 = VERTEX_POINT('',#105);
#105 = CARTESIAN_POINT('',(97.999999999995,7.500000002844,5.));
#106 = LINE('',#107,#108);
#107 = CARTESIAN_POINT('',(100.,7.500000004273,5.));
#108 = VECTOR('',#109,1.);
#109 = DIRECTION('',(-1.,0.,0.));
#110 = ORIENTED_EDGE('',*,*,#111,.F.);
#111 = EDGE_CURVE('',#112,#104,#114,.T.);
#112 = VERTEX_POINT('',#113);
#113 = CARTESIAN_POINT('',(97.999999999995,7.500000002844,0.));
#114 = LINE('',#115,#116);
#115 = CARTESIAN_POINT('',(97.999999999995,7.500000002844,6.945511E-10)
  );
#116 = VECTOR('',#117,1.);
#117 = DIRECTION('',(0.,0.,1.));
#118 = ORIENTED_EDGE('',*,*,#119,.T.);
#119 = EDGE_CURVE('',#112,#120,#122,.T.);
#120 = VERTEX_POINT('',#121);
#121 = CARTESIAN_POINT('',(52.5,7.500000004273,0.));
#122 = LINE('',#123,#124);
#123 = CARTESIAN_POINT('',(100.,7.500000004273,0.));
#124 = VECTOR('',#125,1.);
#125 = DIRECTION('',(-1.,0.,0.));
#126 = ORIENTED_EDGE('',*,*,#127,.T.);
#127 = EDGE_CURVE('',#120,#128,#130,.T.);
#128 = VERTEX_POINT('',#129);
#129 = CARTESIAN_POINT('',(50.,7.5,-2.5));
#130 = CIRCLE('',#131,2.5);
#131 = AXIS2_PLACEMENT_3D('',#132,#133,#134);
#132 = CARTESIAN_POINT('',(52.5,7.500000001577,-2.5));
#133 = DIRECTION('',(0.,-1.,0.));
#134 = DIRECTION('',(0.,0.,1.));
#135 = ORIENTED_EDGE('',*,*,#136,.T.);
#136 = EDGE_CURVE('',#128,#137,#139,.T.);
#137 = VERTEX_POINT('',#138);
#138 = CARTESIAN_POINT('',(50.,7.5,-2.55));
#139 = LINE('',#140,#141);
#140 = CARTESIAN_POINT('',(50.,7.5,0.));
#141 = VECTOR('',#142,1.);
#142 = DIRECTION('',(0.,0.,-1.));
#143 = ORIENTED_EDGE('',*,*,#144,.T.);
#144 = EDGE_CURVE('',#137,#145,#147,.T.);
#145 = VERTEX_POINT('',#146);
#146 = CARTESIAN_POINT('',(52.45,7.5,-5.));
#147 = CIRCLE('',#148,2.45);
#148 = AXIS2_PLACEMENT_3D('',#149,#150,#151);
#149 = CARTESIAN_POINT('',(52.45,7.500000001847,-2.55));
#150 = DIRECTION('',(0.,-1.,0.));
#151 = DIRECTION('',(0.,0.,1.));
#152 = ORIENTED_EDGE('',*,*,#153,.T.);
#153 = EDGE_CURVE('',#145,#154,#156,.T.);
#154 = VERTEX_POINT('',#155);
#155 = CARTESIAN_POINT('',(97.999999999995,7.500000001108,-5.));
#156 = LINE('',#157,#158);
#157 = CARTESIAN_POINT('',(25.,7.5,-5.));
#158 = VECTOR('',#159,1.);
#159 = DIRECTION('',(1.,0.,0.));
#160 = ORIENTED_EDGE('',*,*,#161,.T.);
#161 = EDGE_CURVE('',#154,#162,#164,.T.);
#162 = VERTEX_POINT('',#163);
#163 = CARTESIAN_POINT('',(97.999999999995,7.500000001108,-10.));
#164 = LINE('',#165,#166);
#165 = CARTESIAN_POINT('',(97.999999999995,7.500000001108,
    -4.999999999305));
#166 = VECTOR('',#167,1.);
#167 = DIRECTION('',(0.,0.,-1.));
#168 = ORIENTED_EDGE('',*,*,#169,.F.);
#169 = EDGE_CURVE('',#170,#162,#172,.T.);
#170 = VERTEX_POINT('',#171);
#171 = CARTESIAN_POINT('',(27.45,7.5,-10.));
#172 = LINE('',#173,#174);
#173 = CARTESIAN_POINT('',(25.,7.5,-10.));
#174 = VECTOR('',#175,1.);
#175 = DIRECTION('',(1.,0.,0.));
#176 = ORIENTED_EDGE('',*,*,#177,.F.);
#177 = EDGE_CURVE('',#178,#170,#180,.T.);
#178 = VERTEX_POINT('',#179);
#179 = CARTESIAN_POINT('',(25.,7.5,-7.55));
#180 = CIRCLE('',#181,2.45);
#181 = AXIS2_PLACEMENT_3D('',#182,#183,#184);
#182 = CARTESIAN_POINT('',(27.45,7.500000000049,-7.55));
#183 = DIRECTION('',(0.,-1.,0.));
#184 = DIRECTION('',(0.,0.,1.));
#185 = ORIENTED_EDGE('',*,*,#186,.F.);
#186 = EDGE_CURVE('',#187,#178,#189,.T.);
#187 = VERTEX_POINT('',#188);
#188 = CARTESIAN_POINT('',(25.,7.5,-7.5));
#189 = LINE('',#190,#191);
#190 = CARTESIAN_POINT('',(25.,7.5,-5.));
#191 = VECTOR('',#192,1.);
#192 = DIRECTION('',(0.,0.,-1.));
#193 = ORIENTED_EDGE('',*,*,#194,.T.);
#194 = EDGE_CURVE('',#187,#62,#195,.T.);
#195 = CIRCLE('',#196,2.5);
#196 = AXIS2_PLACEMENT_3D('',#197,#198,#199);
#197 = CARTESIAN_POINT('',(22.5,7.500000000054,-7.5));
#198 = DIRECTION('',(0.,-1.,0.));
#199 = DIRECTION('',(0.,0.,1.));
#200 = PLANE('',#201);
#201 = AXIS2_PLACEMENT_3D('',#202,#203,#204);
#202 = CARTESIAN_POINT('',(26.206405565972,7.5000000022,-1.299076935373)
  );
#203 = DIRECTION('',(-4.43321E-12,1.,-3.4390667E-10));
#204 = DIRECTION('',(0.,3.4390667E-10,1.));
#205 = ADVANCED_FACE('',(#206),#225,.T.);
#206 = FACE_BOUND('',#207,.T.);
#207 = EDGE_LOOP('',(#208,#209,#217,#224));
#208 = ORIENTED_EDGE('',*,*,#71,.T.);
#209 = ORIENTED_EDGE('',*,*,#210,.T.);
#210 = EDGE_CURVE('',#64,#211,#213,.T.);
#211 = VERTEX_POINT('',#212);
#212 = CARTESIAN_POINT('',(-59.63578643762,5.1,-5.));
#213 = LINE('',#214,#215);
#214 = CARTESIAN_POINT('',(-59.63578643762,7.500000000274,-5.));
#215 = VECTOR('',#216,1.);
#216 = DIRECTION('',(0.,-1.,0.));
#217 = ORIENTED_EDGE('',*,*,#218,.F.);
#218 = EDGE_CURVE('',#40,#211,#219,.T.);
#219 = CIRCLE('',#220,1.);
#220 = AXIS2_PLACEMENT_3D('',#221,#222,#223);
#221 = CARTESIAN_POINT('',(-59.63578643762,5.1,-4.));
#222 = DIRECTION('',(0.,-1.,0.));
#223 = DIRECTION('',(0.,0.,-1.));
#224 = ORIENTED_EDGE('',*,*,#47,.F.);
#225 = CYLINDRICAL_SURFACE('',#226,1.);
#226 = AXIS2_PLACEMENT_3D('',#227,#228,#229);
#227 = CARTESIAN_POINT('',(-59.63578643762,7.500000000274,-4.));
#228 = DIRECTION('',(0.,-1.,0.));
#229 = DIRECTION('',(-0.707106781187,-0.,-0.707106781187));
#230 = ADVANCED_FACE('',(#231),#249,.T.);
#231 = FACE_BOUND('',#232,.T.);
#232 = EDGE_LOOP('',(#233,#234,#235,#243));
#233 = ORIENTED_EDGE('',*,*,#79,.T.);
#234 = ORIENTED_EDGE('',*,*,#31,.T.);
#235 = ORIENTED_EDGE('',*,*,#236,.F.);
#236 = EDGE_CURVE('',#237,#32,#239,.T.);
#237 = VERTEX_POINT('',#238);
#238 = CARTESIAN_POINT('',(-65.,5.1,0.));
#239 = LINE('',#240,#241);
#240 = CARTESIAN_POINT('',(-65.,5.1,0.));
#241 = VECTOR('',#242,1.);
#242 = DIRECTION('',(0.,0.,-1.));
#243 = ORIENTED_EDGE('',*,*,#244,.F.);
#244 = EDGE_CURVE('',#80,#237,#245,.T.);
#245 = LINE('',#246,#247);
#246 = CARTESIAN_POINT('',(-65.,7.5,0.));
#247 = VECTOR('',#248,1.);
#248 = DIRECTION('',(0.,-1.,0.));
#249 = PLANE('',#250);
#250 = AXIS2_PLACEMENT_3D('',#251,#252,#253);
#251 = CARTESIAN_POINT('',(-65.,7.5,0.));
#252 = DIRECTION('',(-1.,-0.,-0.));
#253 = DIRECTION('',(0.,-1.,0.));
#254 = ADVANCED_FACE('',(#255),#350,.T.);
#255 = FACE_BOUND('',#256,.T.);
#256 = EDGE_LOOP('',(#257,#265,#274,#282,#291,#299,#307,#315,#324,#332,
    #341,#347,#348,#349));
#257 = ORIENTED_EDGE('',*,*,#258,.T.);
#258 = EDGE_CURVE('',#211,#259,#261,.T.);
#259 = VERTEX_POINT('',#260);
#260 = CARTESIAN_POINT('',(22.5,5.1,-5.));
#261 = LINE('',#262,#263);
#262 = CARTESIAN_POINT('',(-65.,5.1,-5.));
#263 = VECTOR('',#264,1.);
#264 = DIRECTION('',(1.,0.,0.));
#265 = ORIENTED_EDGE('',*,*,#266,.F.);
#266 = EDGE_CURVE('',#267,#259,#269,.T.);
#267 = VERTEX_POINT('',#268);
#268 = CARTESIAN_POINT('',(25.,5.1,-7.5));
#269 = CIRCLE('',#270,2.5);
#270 = AXIS2_PLACEMENT_3D('',#271,#272,#273);
#271 = CARTESIAN_POINT('',(22.5,5.1,-7.5));
#272 = DIRECTION('',(0.,-1.,0.));
#273 = DIRECTION('',(0.,0.,1.));
#274 = ORIENTED_EDGE('',*,*,#275,.T.);
#275 = EDGE_CURVE('',#267,#276,#278,.T.);
#276 = VERTEX_POINT('',#277);
#277 = CARTESIAN_POINT('',(25.,5.1,-7.55));
#278 = LINE('',#279,#280);
#279 = CARTESIAN_POINT('',(25.,5.1,-5.));
#280 = VECTOR('',#281,1.);
#281 = DIRECTION('',(0.,0.,-1.));
#282 = ORIENTED_EDGE('',*,*,#283,.T.);
#283 = EDGE_CURVE('',#276,#284,#286,.T.);
#284 = VERTEX_POINT('',#285);
#285 = CARTESIAN_POINT('',(27.45,5.1,-10.));
#286 = CIRCLE('',#287,2.45);
#287 = AXIS2_PLACEMENT_3D('',#288,#289,#290);
#288 = CARTESIAN_POINT('',(27.45,5.1,-7.55));
#289 = DIRECTION('',(0.,-1.,0.));
#290 = DIRECTION('',(0.,0.,1.));
#291 = ORIENTED_EDGE('',*,*,#292,.F.);
#292 = EDGE_CURVE('',#293,#284,#295,.T.);
#293 = VERTEX_POINT('',#294);
#294 = CARTESIAN_POINT('',(50.,5.1,-10.));
#295 = LINE('',#296,#297);
#296 = CARTESIAN_POINT('',(50.,5.1,-10.));
#297 = VECTOR('',#298,1.);
#298 = DIRECTION('',(-1.,0.,0.));
#299 = ORIENTED_EDGE('',*,*,#300,.F.);
#300 = EDGE_CURVE('',#301,#293,#303,.T.);
#301 = VERTEX_POINT('',#302);
#302 = CARTESIAN_POINT('',(50.,5.1,-5.));
#303 = LINE('',#304,#305);
#304 = CARTESIAN_POINT('',(50.,5.1,-5.));
#305 = VECTOR('',#306,1.);
#306 = DIRECTION('',(0.,0.,-1.));
#307 = ORIENTED_EDGE('',*,*,#308,.T.);
#308 = EDGE_CURVE('',#301,#309,#311,.T.);
#309 = VERTEX_POINT('',#310);
#310 = CARTESIAN_POINT('',(52.45,5.1,-5.));
#311 = LINE('',#312,#313);
#312 = CARTESIAN_POINT('',(27.013345314792,5.1,-5.));
#313 = VECTOR('',#314,1.);
#314 = DIRECTION('',(1.,0.,0.));
#315 = ORIENTED_EDGE('',*,*,#316,.F.);
#316 = EDGE_CURVE('',#317,#309,#319,.T.);
#317 = VERTEX_POINT('',#318);
#318 = CARTESIAN_POINT('',(50.,5.1,-2.55));
#319 = CIRCLE('',#320,2.45);
#320 = AXIS2_PLACEMENT_3D('',#321,#322,#323);
#321 = CARTESIAN_POINT('',(52.45,5.1,-2.55));
#322 = DIRECTION('',(0.,-1.,0.));
#323 = DIRECTION('',(0.,0.,1.));
#324 = ORIENTED_EDGE('',*,*,#325,.F.);
#325 = EDGE_CURVE('',#326,#317,#328,.T.);
#326 = VERTEX_POINT('',#327);
#327 = CARTESIAN_POINT('',(50.,5.1,-2.5));
#328 = LINE('',#329,#330);
#329 = CARTESIAN_POINT('',(50.,5.1,0.));
#330 = VECTOR('',#331,1.);
#331 = DIRECTION('',(0.,0.,-1.));
#332 = ORIENTED_EDGE('',*,*,#333,.F.);
#333 = EDGE_CURVE('',#334,#326,#336,.T.);
#334 = VERTEX_POINT('',#335);
#335 = CARTESIAN_POINT('',(52.5,5.1,0.));
#336 = CIRCLE('',#337,2.5);
#337 = AXIS2_PLACEMENT_3D('',#338,#339,#340);
#338 = CARTESIAN_POINT('',(52.5,5.1,-2.5));
#339 = DIRECTION('',(0.,-1.,0.));
#340 = DIRECTION('',(0.,0.,1.));
#341 = ORIENTED_EDGE('',*,*,#342,.F.);
#342 = EDGE_CURVE('',#237,#334,#343,.T.);
#343 = LINE('',#344,#345);
#344 = CARTESIAN_POINT('',(-65.,5.1,0.));
#345 = VECTOR('',#346,1.);
#346 = DIRECTION('',(1.,0.,0.));
#347 = ORIENTED_EDGE('',*,*,#236,.T.);
#348 = ORIENTED_EDGE('',*,*,#39,.T.);
#349 = ORIENTED_EDGE('',*,*,#218,.T.);
#350 = PLANE('',#351);
#351 = AXIS2_PLACEMENT_3D('',#352,#353,#354);
#352 = CARTESIAN_POINT('',(-4.106023455027,5.1,-3.111652745366));
#353 = DIRECTION('',(-0.,-1.,-0.));
#354 = DIRECTION('',(0.,0.,-1.));
#355 = ADVANCED_FACE('',(#356),#367,.F.);
#356 = FACE_BOUND('',#357,.F.);
#357 = EDGE_LOOP('',(#358,#359,#360,#361));
#358 = ORIENTED_EDGE('',*,*,#61,.T.);
#359 = ORIENTED_EDGE('',*,*,#210,.T.);
#360 = ORIENTED_EDGE('',*,*,#258,.T.);
#361 = ORIENTED_EDGE('',*,*,#362,.T.);
#362 = EDGE_CURVE('',#259,#62,#363,.T.);
#363 = LINE('',#364,#365);
#364 = CARTESIAN_POINT('',(22.5,5.1,-5.));
#365 = VECTOR('',#366,1.);
#366 = DIRECTION('',(0.,1.,0.));
#367 = PLANE('',#368);
#368 = AXIS2_PLACEMENT_3D('',#369,#370,#371);
#369 = CARTESIAN_POINT('',(-7.5,0.,-5.));
#370 = DIRECTION('',(0.,0.,1.));
#371 = DIRECTION('',(1.,0.,0.));
#372 = ADVANCED_FACE('',(#373),#384,.F.);
#373 = FACE_BOUND('',#374,.T.);
#374 = EDGE_LOOP('',(#375,#376,#377,#378));
#375 = ORIENTED_EDGE('',*,*,#266,.T.);
#376 = ORIENTED_EDGE('',*,*,#362,.T.);
#377 = ORIENTED_EDGE('',*,*,#194,.F.);
#378 = ORIENTED_EDGE('',*,*,#379,.F.);
#379 = EDGE_CURVE('',#267,#187,#380,.T.);
#380 = LINE('',#381,#382);
#381 = CARTESIAN_POINT('',(25.,5.1,-7.5));
#382 = VECTOR('',#383,1.);
#383 = DIRECTION('',(0.,1.,0.));
#384 = CYLINDRICAL_SURFACE('',#385,2.5);
#385 = AXIS2_PLACEMENT_3D('',#386,#387,#388);
#386 = CARTESIAN_POINT('',(22.5,5.1,-7.5));
#387 = DIRECTION('',(0.,1.,0.));
#388 = DIRECTION('',(1.,0.,0.));
#389 = ADVANCED_FACE('',(#390),#401,.F.);
#390 = FACE_BOUND('',#391,.F.);
#391 = EDGE_LOOP('',(#392,#393,#399,#400));
#392 = ORIENTED_EDGE('',*,*,#275,.T.);
#393 = ORIENTED_EDGE('',*,*,#394,.T.);
#394 = EDGE_CURVE('',#276,#178,#395,.T.);
#395 = LINE('',#396,#397);
#396 = CARTESIAN_POINT('',(25.,5.1,-7.55));
#397 = VECTOR('',#398,1.);
#398 = DIRECTION('',(0.,1.,0.));
#399 = ORIENTED_EDGE('',*,*,#186,.F.);
#400 = ORIENTED_EDGE('',*,*,#379,.F.);
#401 = PLANE('',#402);
#402 = AXIS2_PLACEMENT_3D('',#403,#404,#405);
#403 = CARTESIAN_POINT('',(25.,5.1,-5.));
#404 = DIRECTION('',(1.,0.,0.));
#405 = DIRECTION('',(0.,1.,0.));
#406 = ADVANCED_FACE('',(#407),#418,.T.);
#407 = FACE_BOUND('',#408,.F.);
#408 = EDGE_LOOP('',(#409,#410,#416,#417));
#409 = ORIENTED_EDGE('',*,*,#283,.T.);
#410 = ORIENTED_EDGE('',*,*,#411,.T.);
#411 = EDGE_CURVE('',#284,#170,#412,.T.);
#412 = LINE('',#413,#414);
#413 = CARTESIAN_POINT('',(27.45,5.1,-10.));
#414 = VECTOR('',#415,1.);
#415 = DIRECTION('',(0.,1.,0.));
#416 = ORIENTED_EDGE('',*,*,#177,.F.);
#417 = ORIENTED_EDGE('',*,*,#394,.F.);
#418 = CYLINDRICAL_SURFACE('',#419,2.45);
#419 = AXIS2_PLACEMENT_3D('',#420,#421,#422);
#420 = CARTESIAN_POINT('',(27.45,5.1,-7.55));
#421 = DIRECTION('',(0.,1.,0.));
#422 = DIRECTION('',(-1.,0.,0.));
#423 = ADVANCED_FACE('',(#424,#526,#561,#595,#630,#641),#652,.T.);
#424 = FACE_BOUND('',#425,.T.);
#425 = EDGE_LOOP('',(#426,#435,#443,#452,#460,#468,#476,#484,#492,#501,
    #509,#516,#517,#518,#519,#525));
#426 = ORIENTED_EDGE('',*,*,#427,.T.);
#427 = EDGE_CURVE('',#112,#428,#430,.T.);
#428 = VERTEX_POINT('',#429);
#429 = CARTESIAN_POINT('',(100.,5.500000002844,0.));
#430 = CIRCLE('',#431,2.);
#431 = AXIS2_PLACEMENT_3D('',#432,#433,#434);
#432 = CARTESIAN_POINT('',(98.,5.500000002844,0.));
#433 = DIRECTION('',(-0.,-0.,-1.));
#434 = DIRECTION('',(0.,-1.,0.));
#435 = ORIENTED_EDGE('',*,*,#436,.F.);
#436 = EDGE_CURVE('',#437,#428,#439,.T.);
#437 = VERTEX_POINT('',#438);
#438 = CARTESIAN_POINT('',(100.,-5.500000002849,0.));
#439 = LINE('',#440,#441);
#440 = CARTESIAN_POINT('',(100.,-7.500000004273,0.));
#441 = VECTOR('',#442,1.);
#442 = DIRECTION('',(0.,1.,0.));
#443 = ORIENTED_EDGE('',*,*,#444,.T.);
#444 = EDGE_CURVE('',#437,#445,#447,.T.);
#445 = VERTEX_POINT('',#446);
#446 = CARTESIAN_POINT('',(97.999999999929,-7.500000002849,0.));
#447 = CIRCLE('',#448,2.);
#448 = AXIS2_PLACEMENT_3D('',#449,#450,#451);
#449 = CARTESIAN_POINT('',(98.,-5.500000002849,0.));
#450 = DIRECTION('',(-0.,-0.,-1.));
#451 = DIRECTION('',(0.,-1.,0.));
#452 = ORIENTED_EDGE('',*,*,#453,.F.);
#453 = EDGE_CURVE('',#454,#445,#456,.T.);
#454 = VERTEX_POINT('',#455);
#455 = CARTESIAN_POINT('',(52.5,-7.500000001953,0.));
#456 = LINE('',#457,#458);
#457 = CARTESIAN_POINT('',(-75.,-7.499999995727,0.));
#458 = VECTOR('',#459,1.);
#459 = DIRECTION('',(1.,-4.883093E-11,0.));
#460 = ORIENTED_EDGE('',*,*,#461,.F.);
#461 = EDGE_CURVE('',#462,#454,#464,.T.);
#462 = VERTEX_POINT('',#463);
#463 = CARTESIAN_POINT('',(52.5,-5.1,0.));
#464 = LINE('',#465,#466);
#465 = CARTESIAN_POINT('',(52.5,-5.1,4.4E-16));
#466 = VECTOR('',#467,1.);
#467 = DIRECTION('',(0.,-1.,0.));
#468 = ORIENTED_EDGE('',*,*,#469,.F.);
#469 = EDGE_CURVE('',#470,#462,#472,.T.);
#470 = VERTEX_POINT('',#471);
#471 = CARTESIAN_POINT('',(-65.,-5.1,0.));
#472 = LINE('',#473,#474);
#473 = CARTESIAN_POINT('',(-26.24999999901,-5.1,0.));
#474 = VECTOR('',#475,1.);
#475 = DIRECTION('',(1.,0.,0.));
#476 = ORIENTED_EDGE('',*,*,#477,.F.);
#477 = EDGE_CURVE('',#478,#470,#480,.T.);
#478 = VERTEX_POINT('',#479);
#479 = CARTESIAN_POINT('',(-65.,-7.5,0.));
#480 = LINE('',#481,#482);
#481 = CARTESIAN_POINT('',(-65.,-7.5,0.));
#482 = VECTOR('',#483,1.);
#483 = DIRECTION('',(0.,1.,0.));
#484 = ORIENTED_EDGE('',*,*,#485,.F.);
#485 = EDGE_CURVE('',#486,#478,#488,.T.);
#486 = VERTEX_POINT('',#487);
#487 = CARTESIAN_POINT('',(-73.00000000007,-7.499999996807,0.));
#488 = LINE('',#489,#490);
#489 = CARTESIAN_POINT('',(-75.,-7.499999995727,0.));
#490 = VECTOR('',#491,1.);
#491 = DIRECTION('',(1.,-4.883093E-11,0.));
#492 = ORIENTED_EDGE('',*,*,#493,.F.);
#493 = EDGE_CURVE('',#494,#486,#496,.T.);
#494 = VERTEX_POINT('',#495);
#495 = CARTESIAN_POINT('',(-75.,-5.499999996807,0.));
#496 = CIRCLE('',#497,2.);
#497 = AXIS2_PLACEMENT_3D('',#498,#499,#500);
#498 = CARTESIAN_POINT('',(-73.,-5.499999996807,0.));
#499 = DIRECTION('',(-0.,0.,1.));
#500 = DIRECTION('',(0.,-1.,0.));
#501 = ORIENTED_EDGE('',*,*,#502,.F.);
#502 = EDGE_CURVE('',#503,#494,#505,.T.);
#503 = VERTEX_POINT('',#504);
#504 = CARTESIAN_POINT('',(-75.,5.500000002424,0.));
#505 = LINE('',#506,#507);
#506 = CARTESIAN_POINT('',(-75.,7.500000004273,0.));
#507 = VECTOR('',#508,1.);
#508 = DIRECTION('',(0.,-1.,0.));
#509 = ORIENTED_EDGE('',*,*,#510,.F.);
#510 = EDGE_CURVE('',#88,#503,#511,.T.);
#511 = CIRCLE('',#512,2.);
#512 = AXIS2_PLACEMENT_3D('',#513,#514,#515);
#513 = CARTESIAN_POINT('',(-73.,5.500000002424,0.));
#514 = DIRECTION('',(-0.,0.,1.));
#515 = DIRECTION('',(0.,-1.,0.));
#516 = ORIENTED_EDGE('',*,*,#87,.F.);
#517 = ORIENTED_EDGE('',*,*,#244,.T.);
#518 = ORIENTED_EDGE('',*,*,#342,.T.);
#519 = ORIENTED_EDGE('',*,*,#520,.T.);
#520 = EDGE_CURVE('',#334,#120,#521,.T.);
#521 = LINE('',#522,#523);
#522 = CARTESIAN_POINT('',(52.5,5.1,4.4E-16));
#523 = VECTOR('',#524,1.);
#524 = DIRECTION('',(0.,1.,0.));
#525 = ORIENTED_EDGE('',*,*,#119,.F.);
#526 = FACE_BOUND('',#527,.T.);
#527 = EDGE_LOOP('',(#528,#538,#547,#555));
#528 = ORIENTED_EDGE('',*,*,#529,.T.);
#529 = EDGE_CURVE('',#530,#532,#534,.T.);
#530 = VERTEX_POINT('',#531);
#531 = CARTESIAN_POINT('',(7.7,-2.55,0.));
#532 = VERTEX_POINT('',#533);
#533 = CARTESIAN_POINT('',(50.,-2.55,0.));
#534 = LINE('',#535,#536);
#535 = CARTESIAN_POINT('',(-55.,-2.55,0.));
#536 = VECTOR('',#537,1.);
#537 = DIRECTION('',(1.,0.,0.));
#538 = ORIENTED_EDGE('',*,*,#539,.F.);
#539 = EDGE_CURVE('',#540,#532,#542,.T.);
#540 = VERTEX_POINT('',#541);
#541 = CARTESIAN_POINT('',(50.,2.55,0.));
#542 = CIRCLE('',#543,2.55);
#543 = AXIS2_PLACEMENT_3D('',#544,#545,#546);
#544 = CARTESIAN_POINT('',(50.,-8.E-17,0.));
#545 = DIRECTION('',(0.,0.,-1.));
#546 = DIRECTION('',(1.,0.,0.));
#547 = ORIENTED_EDGE('',*,*,#548,.T.);
#548 = EDGE_CURVE('',#540,#549,#551,.T.);
#549 = VERTEX_POINT('',#550);
#550 = CARTESIAN_POINT('',(7.7,2.55,0.));
#551 = LINE('',#552,#553);
#552 = CARTESIAN_POINT('',(50.,2.55,0.));
#553 = VECTOR('',#554,1.);
#554 = DIRECTION('',(-1.,0.,0.));
#555 = ORIENTED_EDGE('',*,*,#556,.T.);
#556 = EDGE_CURVE('',#549,#530,#557,.T.);
#557 = LINE('',#558,#559);
#558 = CARTESIAN_POINT('',(7.7,7.5,0.));
#559 = VECTOR('',#560,1.);
#560 = DIRECTION('',(0.,-1.,0.));
#561 = FACE_BOUND('',#562,.T.);
#562 = EDGE_LOOP('',(#563,#573,#581,#589));
#563 = ORIENTED_EDGE('',*,*,#564,.T.);
#564 = EDGE_CURVE('',#565,#567,#569,.T.);
#565 = VERTEX_POINT('',#566);
#566 = CARTESIAN_POINT('',(-31.,-2.55,0.));
#567 = VERTEX_POINT('',#568);
#568 = CARTESIAN_POINT('',(5.7,-2.55,0.));
#569 = LINE('',#570,#571);
#570 = CARTESIAN_POINT('',(-55.,-2.55,0.));
#571 = VECTOR('',#572,1.);
#572 = DIRECTION('',(1.,0.,0.));
#573 = ORIENTED_EDGE('',*,*,#574,.T.);
#574 = EDGE_CURVE('',#567,#575,#577,.T.);
#575 = VERTEX_POINT('',#576);
#576 = CARTESIAN_POINT('',(5.7,2.55,0.));
#577 = LINE('',#578,#579);
#578 = CARTESIAN_POINT('',(5.7,-7.5,0.));
#579 = VECTOR('',#580,1.);
#580 = DIRECTION('',(6.E-17,1.,0.));
#581 = ORIENTED_EDGE('',*,*,#582,.T.);
#582 = EDGE_CURVE('',#575,#583,#585,.T.);
#583 = VERTEX_POINT('',#584);
#584 = CARTESIAN_POINT('',(-31.,2.55,0.));
#585 = LINE('',#586,#587);
#586 = CARTESIAN_POINT('',(50.,2.55,0.));
#587 = VECTOR('',#588,1.);
#588 = DIRECTION('',(-1.,0.,0.));
#589 = ORIENTED_EDGE('',*,*,#590,.T.);
#590 = EDGE_CURVE('',#583,#565,#591,.T.);
#591 = LINE('',#592,#593);
#592 = CARTESIAN_POINT('',(-31.,7.5,0.));
#593 = VECTOR('',#594,1.);
#594 = DIRECTION('',(0.,-1.,0.));
#595 = FACE_BOUND('',#596,.T.);
#596 = EDGE_LOOP('',(#597,#607,#616,#624));
#597 = ORIENTED_EDGE('',*,*,#598,.T.);
#598 = EDGE_CURVE('',#599,#601,#603,.T.);
#599 = VERTEX_POINT('',#600);
#600 = CARTESIAN_POINT('',(-33.,2.55,0.));
#601 = VERTEX_POINT('',#602);
#602 = CARTESIAN_POINT('',(-55.,2.55,0.));
#603 = LINE('',#604,#605);
#604 = CARTESIAN_POINT('',(50.,2.55,0.));
#605 = VECTOR('',#606,1.);
#606 = DIRECTION('',(-1.,0.,0.));
#607 = ORIENTED_EDGE('',*,*,#608,.F.);
#608 = EDGE_CURVE('',#609,#601,#611,.T.);
#609 = VERTEX_POINT('',#610);
#610 = CARTESIAN_POINT('',(-55.,-2.55,0.));
#611 = CIRCLE('',#612,2.55);
#612 = AXIS2_PLACEMENT_3D('',#613,#614,#615);
#613 = CARTESIAN_POINT('',(-55.,3.E-17,0.));
#614 = DIRECTION('',(0.,0.,-1.));
#615 = DIRECTION('',(1.,0.,0.));
#616 = ORIENTED_EDGE('',*,*,#617,.T.);
#617 = EDGE_CURVE('',#609,#618,#620,.T.);
#618 = VERTEX_POINT('',#619);
#619 = CARTESIAN_POINT('',(-33.,-2.55,0.));
#620 = LINE('',#621,#622);
#621 = CARTESIAN_POINT('',(-55.,-2.55,0.));
#622 = VECTOR('',#623,1.);
#623 = DIRECTION('',(1.,0.,0.));
#624 = ORIENTED_EDGE('',*,*,#625,.T.);
#625 = EDGE_CURVE('',#618,#599,#626,.T.);
#626 = LINE('',#627,#628);
#627 = CARTESIAN_POINT('',(-33.,-7.5,0.));
#628 = VECTOR('',#629,1.);
#629 = DIRECTION('',(0.,1.,0.));
#630 = FACE_BOUND('',#631,.T.);
#631 = EDGE_LOOP('',(#632));
#632 = ORIENTED_EDGE('',*,*,#633,.F.);
#633 = EDGE_CURVE('',#634,#634,#636,.T.);
#634 = VERTEX_POINT('',#635);
#635 = CARTESIAN_POINT('',(66.575,0.,0.));
#636 = CIRCLE('',#637,1.575);
#637 = AXIS2_PLACEMENT_3D('',#638,#639,#640);
#638 = CARTESIAN_POINT('',(65.,0.,0.));
#639 = DIRECTION('',(0.,0.,-1.));
#640 = DIRECTION('',(1.,0.,0.));
#641 = FACE_BOUND('',#642,.T.);
#642 = EDGE_LOOP('',(#643));
#643 = ORIENTED_EDGE('',*,*,#644,.F.);
#644 = EDGE_CURVE('',#645,#645,#647,.T.);
#645 = VERTEX_POINT('',#646);
#646 = CARTESIAN_POINT('',(86.575,0.,0.));
#647 = CIRCLE('',#648,1.575);
#648 = AXIS2_PLACEMENT_3D('',#649,#650,#651);
#649 = CARTESIAN_POINT('',(85.,0.,0.));
#650 = DIRECTION('',(0.,0.,-1.));
#651 = DIRECTION('',(1.,0.,0.));
#652 = PLANE('',#653);
#653 = AXIS2_PLACEMENT_3D('',#654,#655,#656);
#654 = CARTESIAN_POINT('',(12.03370692224,4.5132421E-10,1.E-17));
#655 = DIRECTION('',(-0.,-0.,-1.));
#656 = DIRECTION('',(-1.,0.,0.));
#657 = ADVANCED_FACE('',(#658,#736,#747),#758,.F.);
#658 = FACE_BOUND('',#659,.F.);
#659 = EDGE_LOOP('',(#660,#661,#662,#663,#671,#680,#688,#696,#704,#712,
    #721,#729));
#660 = ORIENTED_EDGE('',*,*,#169,.F.);
#661 = ORIENTED_EDGE('',*,*,#411,.F.);
#662 = ORIENTED_EDGE('',*,*,#292,.F.);
#663 = ORIENTED_EDGE('',*,*,#664,.T.);
#664 = EDGE_CURVE('',#293,#665,#667,.T.);
#665 = VERTEX_POINT('',#666);
#666 = CARTESIAN_POINT('',(50.,2.55,-10.));
#667 = LINE('',#668,#669);
#668 = CARTESIAN_POINT('',(50.,5.1,-10.));
#669 = VECTOR('',#670,1.);
#670 = DIRECTION('',(0.,-1.,0.));
#671 = ORIENTED_EDGE('',*,*,#672,.T.);
#672 = EDGE_CURVE('',#665,#673,#675,.T.);
#673 = VERTEX_POINT('',#674);
#674 = CARTESIAN_POINT('',(50.,-2.55,-10.));
#675 = CIRCLE('',#676,2.55);
#676 = AXIS2_PLACEMENT_3D('',#677,#678,#679);
#677 = CARTESIAN_POINT('',(50.,0.,-10.));
#678 = DIRECTION('',(0.,0.,-1.));
#679 = DIRECTION('',(1.,0.,0.));
#680 = ORIENTED_EDGE('',*,*,#681,.F.);
#681 = EDGE_CURVE('',#682,#673,#684,.T.);
#682 = VERTEX_POINT('',#683);
#683 = CARTESIAN_POINT('',(50.,-5.1,-10.));
#684 = LINE('',#685,#686);
#685 = CARTESIAN_POINT('',(50.,-5.1,-10.));
#686 = VECTOR('',#687,1.);
#687 = DIRECTION('',(0.,1.,0.));
#688 = ORIENTED_EDGE('',*,*,#689,.F.);
#689 = EDGE_CURVE('',#690,#682,#692,.T.);
#690 = VERTEX_POINT('',#691);
#691 = CARTESIAN_POINT('',(27.45,-5.1,-10.));
#692 = LINE('',#693,#694);
#693 = CARTESIAN_POINT('',(25.,-5.1,-10.));
#694 = VECTOR('',#695,1.);
#695 = DIRECTION('',(1.,0.,0.));
#696 = ORIENTED_EDGE('',*,*,#697,.F.);
#697 = EDGE_CURVE('',#698,#690,#700,.T.);
#698 = VERTEX_POINT('',#699);
#699 = CARTESIAN_POINT('',(27.45,-7.5,-10.));
#700 = LINE('',#701,#702);
#701 = CARTESIAN_POINT('',(27.45,-7.5,-10.));
#702 = VECTOR('',#703,1.);
#703 = DIRECTION('',(0.,1.,0.));
#704 = ORIENTED_EDGE('',*,*,#705,.F.);
#705 = EDGE_CURVE('',#706,#698,#708,.T.);
#706 = VERTEX_POINT('',#707);
#707 = CARTESIAN_POINT('',(97.999999999929,-7.5000000024,-10.));
#708 = LINE('',#709,#710);
#709 = CARTESIAN_POINT('',(100.,-7.5,-10.));
#710 = VECTOR('',#711,1.);
#711 = DIRECTION('',(-1.,0.,0.));
#712 = ORIENTED_EDGE('',*,*,#713,.F.);
#713 = EDGE_CURVE('',#714,#706,#716,.T.);
#714 = VERTEX_POINT('',#715);
#715 = CARTESIAN_POINT('',(100.,-5.5000000024,-10.));
#716 = CIRCLE('',#717,2.);
#717 = AXIS2_PLACEMENT_3D('',#718,#719,#720);
#718 = CARTESIAN_POINT('',(98.,-5.5000000024,-10.));
#719 = DIRECTION('',(0.,0.,-1.));
#720 = DIRECTION('',(0.,1.,0.));
#721 = ORIENTED_EDGE('',*,*,#722,.F.);
#722 = EDGE_CURVE('',#723,#714,#725,.T.);
#723 = VERTEX_POINT('',#724);
#724 = CARTESIAN_POINT('',(100.,5.500000001108,-10.));
#725 = LINE('',#726,#727);
#726 = CARTESIAN_POINT('',(100.,7.5,-10.));
#727 = VECTOR('',#728,1.);
#728 = DIRECTION('',(0.,-1.,0.));
#729 = ORIENTED_EDGE('',*,*,#730,.F.);
#730 = EDGE_CURVE('',#162,#723,#731,.T.);
#731 = CIRCLE('',#732,2.);
#732 = AXIS2_PLACEMENT_3D('',#733,#734,#735);
#733 = CARTESIAN_POINT('',(98.,5.500000001108,-10.));
#734 = DIRECTION('',(0.,0.,-1.));
#735 = DIRECTION('',(0.,1.,0.));
#736 = FACE_BOUND('',#737,.F.);
#737 = EDGE_LOOP('',(#738));
#738 = ORIENTED_EDGE('',*,*,#739,.T.);
#739 = EDGE_CURVE('',#740,#740,#742,.T.);
#740 = VERTEX_POINT('',#741);
#741 = CARTESIAN_POINT('',(66.575,0.,-10.));
#742 = CIRCLE('',#743,1.575);
#743 = AXIS2_PLACEMENT_3D('',#744,#745,#746);
#744 = CARTESIAN_POINT('',(65.,0.,-10.));
#745 = DIRECTION('',(0.,0.,-1.));
#746 = DIRECTION('',(1.,0.,0.));
#747 = FACE_BOUND('',#748,.F.);
#748 = EDGE_LOOP('',(#749));
#749 = ORIENTED_EDGE('',*,*,#750,.T.);
#750 = EDGE_CURVE('',#751,#751,#753,.T.);
#751 = VERTEX_POINT('',#752);
#752 = CARTESIAN_POINT('',(86.575,0.,-10.));
#753 = CIRCLE('',#754,1.575);
#754 = AXIS2_PLACEMENT_3D('',#755,#756,#757);
#755 = CARTESIAN_POINT('',(85.,0.,-10.));
#756 = DIRECTION('',(0.,0.,-1.));
#757 = DIRECTION('',(1.,0.,0.));
#758 = PLANE('',#759);
#759 = AXIS2_PLACEMENT_3D('',#760,#761,#762);
#760 = CARTESIAN_POINT('',(58.132714084611,9.E-17,-10.));
#761 = DIRECTION('',(0.,0.,1.));
#762 = DIRECTION('',(1.,0.,0.));
#763 = ADVANCED_FACE('',(#764),#783,.T.);
#764 = FACE_BOUND('',#765,.T.);
#765 = EDGE_LOOP('',(#766,#767,#775,#782));
#766 = ORIENTED_EDGE('',*,*,#510,.T.);
#767 = ORIENTED_EDGE('',*,*,#768,.T.);
#768 = EDGE_CURVE('',#503,#769,#771,.T.);
#769 = VERTEX_POINT('',#770);
#770 = CARTESIAN_POINT('',(-75.,5.500000002424,5.));
#771 = LINE('',#772,#773);
#772 = CARTESIAN_POINT('',(-75.,5.500000002424,6.945511E-10));
#773 = VECTOR('',#774,1.);
#774 = DIRECTION('',(0.,0.,1.));
#775 = ORIENTED_EDGE('',*,*,#776,.F.);
#776 = EDGE_CURVE('',#96,#769,#777,.T.);
#777 = CIRCLE('',#778,2.);
#778 = AXIS2_PLACEMENT_3D('',#779,#780,#781);
#779 = CARTESIAN_POINT('',(-73.,5.500000002424,5.));
#780 = DIRECTION('',(-0.,0.,1.));
#781 = DIRECTION('',(0.,-1.,0.));
#782 = ORIENTED_EDGE('',*,*,#95,.F.);
#783 = CYLINDRICAL_SURFACE('',#784,2.);
#784 = AXIS2_PLACEMENT_3D('',#785,#786,#787);
#785 = CARTESIAN_POINT('',(-73.,5.500000002424,6.945511E-10));
#786 = DIRECTION('',(0.,0.,1.));
#787 = DIRECTION('',(-2.45864E-12,1.,0.));
#788 = ADVANCED_FACE('',(#789),#808,.T.);
#789 = FACE_BOUND('',#790,.T.);
#790 = EDGE_LOOP('',(#791,#800,#806,#807));
#791 = ORIENTED_EDGE('',*,*,#792,.T.);
#792 = EDGE_CURVE('',#154,#793,#795,.T.);
#793 = VERTEX_POINT('',#794);
#794 = CARTESIAN_POINT('',(100.,5.500000001108,-5.));
#795 = CIRCLE('',#796,2.);
#796 = AXIS2_PLACEMENT_3D('',#797,#798,#799);
#797 = CARTESIAN_POINT('',(98.,5.500000001108,-5.));
#798 = DIRECTION('',(0.,0.,-1.));
#799 = DIRECTION('',(0.,1.,0.));
#800 = ORIENTED_EDGE('',*,*,#801,.T.);
#801 = EDGE_CURVE('',#793,#723,#802,.T.);
#802 = LINE('',#803,#804);
#803 = CARTESIAN_POINT('',(100.,5.500000001108,-4.999999999305));
#804 = VECTOR('',#805,1.);
#805 = DIRECTION('',(0.,0.,-1.));
#806 = ORIENTED_EDGE('',*,*,#730,.F.);
#807 = ORIENTED_EDGE('',*,*,#161,.F.);
#808 = CYLINDRICAL_SURFACE('',#809,2.);
#809 = AXIS2_PLACEMENT_3D('',#810,#811,#812);
#810 = CARTESIAN_POINT('',(98.,5.500000001108,-4.999999999305));
#811 = DIRECTION('',(0.,0.,-1.));
#812 = DIRECTION('',(-2.45864E-12,1.,0.));
#813 = ADVANCED_FACE('',(#814,#867,#902,#936,#971,#982),#993,.T.);
#814 = FACE_BOUND('',#815,.T.);
#815 = EDGE_LOOP('',(#816,#817,#818,#826,#835,#843,#852,#860));
#816 = ORIENTED_EDGE('',*,*,#103,.T.);
#817 = ORIENTED_EDGE('',*,*,#776,.T.);
#818 = ORIENTED_EDGE('',*,*,#819,.T.);
#819 = EDGE_CURVE('',#769,#820,#822,.T.);
#820 = VERTEX_POINT('',#821);
#821 = CARTESIAN_POINT('',(-75.,-5.499999996807,5.));
#822 = LINE('',#823,#824);
#823 = CARTESIAN_POINT('',(-75.,7.500000004273,5.));
#824 = VECTOR('',#825,1.);
#825 = DIRECTION('',(0.,-1.,0.));
#826 = ORIENTED_EDGE('',*,*,#827,.T.);
#827 = EDGE_CURVE('',#820,#828,#830,.T.);
#828 = VERTEX_POINT('',#829);
#829 = CARTESIAN_POINT('',(-73.00000000007,-7.499999996807,5.));
#830 = CIRCLE('',#831,2.);
#831 = AXIS2_PLACEMENT_3D('',#832,#833,#834);
#832 = CARTESIAN_POINT('',(-73.,-5.499999996807,5.));
#833 = DIRECTION('',(-0.,0.,1.));
#834 = DIRECTION('',(0.,-1.,0.));
#835 = ORIENTED_EDGE('',*,*,#836,.T.);
#836 = EDGE_CURVE('',#828,#837,#839,.T.);
#837 = VERTEX_POINT('',#838);
#838 = CARTESIAN_POINT('',(97.999999999929,-7.500000002849,5.));
#839 = LINE('',#840,#841);
#840 = CARTESIAN_POINT('',(-75.,-7.499999995727,5.));
#841 = VECTOR('',#842,1.);
#842 = DIRECTION('',(1.,-4.883093E-11,0.));
#843 = ORIENTED_EDGE('',*,*,#844,.F.);
#844 = EDGE_CURVE('',#845,#837,#847,.T.);
#845 = VERTEX_POINT('',#846);
#846 = CARTESIAN_POINT('',(100.,-5.500000002849,5.));
#847 = CIRCLE('',#848,2.);
#848 = AXIS2_PLACEMENT_3D('',#849,#850,#851);
#849 = CARTESIAN_POINT('',(98.,-5.500000002849,5.));
#850 = DIRECTION('',(-0.,-0.,-1.));
#851 = DIRECTION('',(0.,-1.,0.));
#852 = ORIENTED_EDGE('',*,*,#853,.T.);
#853 = EDGE_CURVE('',#845,#854,#856,.T.);
#854 = VERTEX_POINT('',#855);
#855 = CARTESIAN_POINT('',(100.,5.500000002844,5.));
#856 = LINE('',#857,#858);
#857 = CARTESIAN_POINT('',(100.,-7.500000004273,5.));
#858 = VECTOR('',#859,1.);
#859 = DIRECTION('',(0.,1.,0.));
#860 = ORIENTED_EDGE('',*,*,#861,.F.);
#861 = EDGE_CURVE('',#104,#854,#862,.T.);
#862 = CIRCLE('',#863,2.);
#863 = AXIS2_PLACEMENT_3D('',#864,#865,#866);
#864 = CARTESIAN_POINT('',(98.,5.500000002844,5.));
#865 = DIRECTION('',(-0.,-0.,-1.));
#866 = DIRECTION('',(0.,-1.,0.));
#867 = FACE_BOUND('',#868,.T.);
#868 = EDGE_LOOP('',(#869,#879,#887,#895));
#869 = ORIENTED_EDGE('',*,*,#870,.F.);
#870 = EDGE_CURVE('',#871,#873,#875,.T.);
#871 = VERTEX_POINT('',#872);
#872 = CARTESIAN_POINT('',(7.7,-2.55,5.));
#873 = VERTEX_POINT('',#874);
#874 = CARTESIAN_POINT('',(50.,-2.55,5.));
#875 = LINE('',#876,#877);
#876 = CARTESIAN_POINT('',(-55.,-2.55,5.));
#877 = VECTOR('',#878,1.);
#878 = DIRECTION('',(1.,0.,0.));
#879 = ORIENTED_EDGE('',*,*,#880,.F.);
#880 = EDGE_CURVE('',#881,#871,#883,.T.);
#881 = VERTEX_POINT('',#882);
#882 = CARTESIAN_POINT('',(7.7,2.55,5.));
#883 = LINE('',#884,#885);
#884 = CARTESIAN_POINT('',(7.7,7.5,5.));
#885 = VECTOR('',#886,1.);
#886 = DIRECTION('',(0.,-1.,0.));
#887 = ORIENTED_EDGE('',*,*,#888,.F.);
#888 = EDGE_CURVE('',#889,#881,#891,.T.);
#889 = VERTEX_POINT('',#890);
#890 = CARTESIAN_POINT('',(50.,2.55,5.));
#891 = LINE('',#892,#893);
#892 = CARTESIAN_POINT('',(50.,2.55,5.));
#893 = VECTOR('',#894,1.);
#894 = DIRECTION('',(-1.,0.,0.));
#895 = ORIENTED_EDGE('',*,*,#896,.T.);
#896 = EDGE_CURVE('',#889,#873,#897,.T.);
#897 = CIRCLE('',#898,2.55);
#898 = AXIS2_PLACEMENT_3D('',#899,#900,#901);
#899 = CARTESIAN_POINT('',(50.,9.2E-16,5.));
#900 = DIRECTION('',(0.,0.,-1.));
#901 = DIRECTION('',(1.,0.,0.));
#902 = FACE_BOUND('',#903,.T.);
#903 = EDGE_LOOP('',(#904,#914,#922,#930));
#904 = ORIENTED_EDGE('',*,*,#905,.F.);
#905 = EDGE_CURVE('',#906,#908,#910,.T.);
#906 = VERTEX_POINT('',#907);
#907 = CARTESIAN_POINT('',(-31.,-2.55,5.));
#908 = VERTEX_POINT('',#909);
#909 = CARTESIAN_POINT('',(5.7,-2.55,5.));
#910 = LINE('',#911,#912);
#911 = CARTESIAN_POINT('',(-55.,-2.55,5.));
#912 = VECTOR('',#913,1.);
#913 = DIRECTION('',(1.,0.,0.));
#914 = ORIENTED_EDGE('',*,*,#915,.F.);
#915 = EDGE_CURVE('',#916,#906,#918,.T.);
#916 = VERTEX_POINT('',#917);
#917 = CARTESIAN_POINT('',(-31.,2.55,5.));
#918 = LINE('',#919,#920);
#919 = CARTESIAN_POINT('',(-31.,7.5,5.));
#920 = VECTOR('',#921,1.);
#921 = DIRECTION('',(0.,-1.,0.));
#922 = ORIENTED_EDGE('',*,*,#923,.F.);
#923 = EDGE_CURVE('',#924,#916,#926,.T.);
#924 = VERTEX_POINT('',#925);
#925 = CARTESIAN_POINT('',(5.7,2.55,5.));
#926 = LINE('',#927,#928);
#927 = CARTESIAN_POINT('',(50.,2.55,5.));
#928 = VECTOR('',#929,1.);
#929 = DIRECTION('',(-1.,0.,0.));
#930 = ORIENTED_EDGE('',*,*,#931,.F.);
#931 = EDGE_CURVE('',#908,#924,#932,.T.);
#932 = LINE('',#933,#934);
#933 = CARTESIAN_POINT('',(5.7,-7.5,5.));
#934 = VECTOR('',#935,1.);
#935 = DIRECTION('',(6.E-17,1.,0.));
#936 = FACE_BOUND('',#937,.T.);
#937 = EDGE_LOOP('',(#938,#948,#956,#964));
#938 = ORIENTED_EDGE('',*,*,#939,.F.);
#939 = EDGE_CURVE('',#940,#942,#944,.T.);
#940 = VERTEX_POINT('',#941);
#941 = CARTESIAN_POINT('',(-33.,2.55,5.));
#942 = VERTEX_POINT('',#943);
#943 = CARTESIAN_POINT('',(-55.,2.55,5.));
#944 = LINE('',#945,#946);
#945 = CARTESIAN_POINT('',(50.,2.55,5.));
#946 = VECTOR('',#947,1.);
#947 = DIRECTION('',(-1.,0.,0.));
#948 = ORIENTED_EDGE('',*,*,#949,.F.);
#949 = EDGE_CURVE('',#950,#940,#952,.T.);
#950 = VERTEX_POINT('',#951);
#951 = CARTESIAN_POINT('',(-33.,-2.55,5.));
#952 = LINE('',#953,#954);
#953 = CARTESIAN_POINT('',(-33.,-7.5,5.));
#954 = VECTOR('',#955,1.);
#955 = DIRECTION('',(0.,1.,0.));
#956 = ORIENTED_EDGE('',*,*,#957,.F.);
#957 = EDGE_CURVE('',#958,#950,#960,.T.);
#958 = VERTEX_POINT('',#959);
#959 = CARTESIAN_POINT('',(-55.,-2.55,5.));
#960 = LINE('',#961,#962);
#961 = CARTESIAN_POINT('',(-55.,-2.55,5.));
#962 = VECTOR('',#963,1.);
#963 = DIRECTION('',(1.,0.,0.));
#964 = ORIENTED_EDGE('',*,*,#965,.T.);
#965 = EDGE_CURVE('',#958,#942,#966,.T.);
#966 = CIRCLE('',#967,2.55);
#967 = AXIS2_PLACEMENT_3D('',#968,#969,#970);
#968 = CARTESIAN_POINT('',(-55.,1.03E-15,5.));
#969 = DIRECTION('',(0.,0.,-1.));
#970 = DIRECTION('',(1.,0.,0.));
#971 = FACE_BOUND('',#972,.T.);
#972 = EDGE_LOOP('',(#973));
#973 = ORIENTED_EDGE('',*,*,#974,.T.);
#974 = EDGE_CURVE('',#975,#975,#977,.T.);
#975 = VERTEX_POINT('',#976);
#976 = CARTESIAN_POINT('',(66.575,0.,5.));
#977 = CIRCLE('',#978,1.575);
#978 = AXIS2_PLACEMENT_3D('',#979,#980,#981);
#979 = CARTESIAN_POINT('',(65.,0.,5.));
#980 = DIRECTION('',(0.,0.,-1.));
#981 = DIRECTION('',(1.,0.,0.));
#982 = FACE_BOUND('',#983,.T.);
#983 = EDGE_LOOP('',(#984));
#984 = ORIENTED_EDGE('',*,*,#985,.T.);
#985 = EDGE_CURVE('',#986,#986,#988,.T.);
#986 = VERTEX_POINT('',#987);
#987 = CARTESIAN_POINT('',(86.575,0.,5.));
#988 = CIRCLE('',#989,1.575);
#989 = AXIS2_PLACEMENT_3D('',#990,#991,#992);
#990 = CARTESIAN_POINT('',(85.,0.,5.));
#991 = DIRECTION('',(0.,0.,-1.));
#992 = DIRECTION('',(1.,0.,0.));
#993 = PLANE('',#994);
#994 = AXIS2_PLACEMENT_3D('',#995,#996,#997);
#995 = CARTESIAN_POINT('',(12.500000001501,2.06928662E-09,5.));
#996 = DIRECTION('',(0.,0.,1.));
#997 = DIRECTION('',(1.,0.,0.));
#998 = ADVANCED_FACE('',(#999,#1074,#1085),#1096,.T.);
#999 = FACE_BOUND('',#1000,.T.);
#1000 = EDGE_LOOP('',(#1001,#1002,#1008,#1009,#1017,#1026,#1034,#1042,
    #1050,#1058,#1067,#1073));
#1001 = ORIENTED_EDGE('',*,*,#153,.F.);
#1002 = ORIENTED_EDGE('',*,*,#1003,.F.);
#1003 = EDGE_CURVE('',#309,#145,#1004,.T.);
#1004 = LINE('',#1005,#1006);
#1005 = CARTESIAN_POINT('',(52.45,5.1,-5.));
#1006 = VECTOR('',#1007,1.);
#1007 = DIRECTION('',(0.,1.,0.));
#1008 = ORIENTED_EDGE('',*,*,#308,.F.);
#1009 = ORIENTED_EDGE('',*,*,#1010,.T.);
#1010 = EDGE_CURVE('',#301,#1011,#1013,.T.);
#1011 = VERTEX_POINT('',#1012);
#1012 = CARTESIAN_POINT('',(50.,2.55,-5.));
#1013 = LINE('',#1014,#1015);
#1014 = CARTESIAN_POINT('',(50.,5.1,-5.));
#1015 = VECTOR('',#1016,1.);
#1016 = DIRECTION('',(0.,-1.,0.));
#1017 = ORIENTED_EDGE('',*,*,#1018,.T.);
#1018 = EDGE_CURVE('',#1011,#1019,#1021,.T.);
#1019 = VERTEX_POINT('',#1020);
#1020 = CARTESIAN_POINT('',(50.,-2.55,-5.));
#1021 = CIRCLE('',#1022,2.55);
#1022 = AXIS2_PLACEMENT_3D('',#1023,#1024,#1025);
#1023 = CARTESIAN_POINT('',(50.,0.,-5.));
#1024 = DIRECTION('',(0.,0.,-1.));
#1025 = DIRECTION('',(1.,0.,0.));
#1026 = ORIENTED_EDGE('',*,*,#1027,.F.);
#1027 = EDGE_CURVE('',#1028,#1019,#1030,.T.);
#1028 = VERTEX_POINT('',#1029);
#1029 = CARTESIAN_POINT('',(50.,-5.1,-5.));
#1030 = LINE('',#1031,#1032);
#1031 = CARTESIAN_POINT('',(50.,-5.1,-5.));
#1032 = VECTOR('',#1033,1.);
#1033 = DIRECTION('',(0.,1.,0.));
#1034 = ORIENTED_EDGE('',*,*,#1035,.T.);
#1035 = EDGE_CURVE('',#1028,#1036,#1038,.T.);
#1036 = VERTEX_POINT('',#1037);
#1037 = CARTESIAN_POINT('',(52.45,-5.1,-5.));
#1038 = LINE('',#1039,#1040);
#1039 = CARTESIAN_POINT('',(27.013345314792,-5.1,-5.));
#1040 = VECTOR('',#1041,1.);
#1041 = DIRECTION('',(1.,0.,0.));
#1042 = ORIENTED_EDGE('',*,*,#1043,.T.);
#1043 = EDGE_CURVE('',#1036,#1044,#1046,.T.);
#1044 = VERTEX_POINT('',#1045);
#1045 = CARTESIAN_POINT('',(52.45,-7.5,-5.));
#1046 = LINE('',#1047,#1048);
#1047 = CARTESIAN_POINT('',(52.45,-5.1,-5.));
#1048 = VECTOR('',#1049,1.);
#1049 = DIRECTION('',(0.,-1.,0.));
#1050 = ORIENTED_EDGE('',*,*,#1051,.F.);
#1051 = EDGE_CURVE('',#1052,#1044,#1054,.T.);
#1052 = VERTEX_POINT('',#1053);
#1053 = CARTESIAN_POINT('',(97.999999999929,-7.5000000024,-5.));
#1054 = LINE('',#1055,#1056);
#1055 = CARTESIAN_POINT('',(100.,-7.5,-5.));
#1056 = VECTOR('',#1057,1.);
#1057 = DIRECTION('',(-1.,0.,0.));
#1058 = ORIENTED_EDGE('',*,*,#1059,.F.);
#1059 = EDGE_CURVE('',#1060,#1052,#1062,.T.);
#1060 = VERTEX_POINT('',#1061);
#1061 = CARTESIAN_POINT('',(100.,-5.5000000024,-5.));
#1062 = CIRCLE('',#1063,2.);
#1063 = AXIS2_PLACEMENT_3D('',#1064,#1065,#1066);
#1064 = CARTESIAN_POINT('',(98.,-5.5000000024,-5.));
#1065 = DIRECTION('',(0.,0.,-1.));
#1066 = DIRECTION('',(0.,1.,0.));
#1067 = ORIENTED_EDGE('',*,*,#1068,.F.);
#1068 = EDGE_CURVE('',#793,#1060,#1069,.T.);
#1069 = LINE('',#1070,#1071);
#1070 = CARTESIAN_POINT('',(100.,7.5,-5.));
#1071 = VECTOR('',#1072,1.);
#1072 = DIRECTION('',(0.,-1.,0.));
#1073 = ORIENTED_EDGE('',*,*,#792,.F.);
#1074 = FACE_BOUND('',#1075,.T.);
#1075 = EDGE_LOOP('',(#1076));
#1076 = ORIENTED_EDGE('',*,*,#1077,.T.);
#1077 = EDGE_CURVE('',#1078,#1078,#1080,.T.);
#1078 = VERTEX_POINT('',#1079);
#1079 = CARTESIAN_POINT('',(66.575,0.,-5.));
#1080 = CIRCLE('',#1081,1.575);
#1081 = AXIS2_PLACEMENT_3D('',#1082,#1083,#1084);
#1082 = CARTESIAN_POINT('',(65.,0.,-5.));
#1083 = DIRECTION('',(0.,0.,-1.));
#1084 = DIRECTION('',(1.,0.,0.));
#1085 = FACE_BOUND('',#1086,.T.);
#1086 = EDGE_LOOP('',(#1087));
#1087 = ORIENTED_EDGE('',*,*,#1088,.T.);
#1088 = EDGE_CURVE('',#1089,#1089,#1091,.T.);
#1089 = VERTEX_POINT('',#1090);
#1090 = CARTESIAN_POINT('',(86.575,0.,-5.));
#1091 = CIRCLE('',#1092,1.575);
#1092 = AXIS2_PLACEMENT_3D('',#1093,#1094,#1095);
#1093 = CARTESIAN_POINT('',(85.,0.,-5.));
#1094 = DIRECTION('',(0.,0.,-1.));
#1095 = DIRECTION('',(1.,0.,0.));
#1096 = PLANE('',#1097);
#1097 = AXIS2_PLACEMENT_3D('',#1098,#1099,#1100);
#1098 = CARTESIAN_POINT('',(58.132714084611,9.E-17,-5.));
#1099 = DIRECTION('',(0.,0.,1.));
#1100 = DIRECTION('',(1.,0.,0.));
#1101 = ADVANCED_FACE('',(#1102),#1113,.T.);
#1102 = FACE_BOUND('',#1103,.F.);
#1103 = EDGE_LOOP('',(#1104,#1105,#1111,#1112));
#1104 = ORIENTED_EDGE('',*,*,#427,.T.);
#1105 = ORIENTED_EDGE('',*,*,#1106,.T.);
#1106 = EDGE_CURVE('',#428,#854,#1107,.T.);
#1107 = LINE('',#1108,#1109);
#1108 = CARTESIAN_POINT('',(100.,5.500000002844,6.945511E-10));
#1109 = VECTOR('',#1110,1.);
#1110 = DIRECTION('',(0.,0.,1.));
#1111 = ORIENTED_EDGE('',*,*,#861,.F.);
#1112 = ORIENTED_EDGE('',*,*,#111,.F.);
#1113 = CYLINDRICAL_SURFACE('',#1114,2.);
#1114 = AXIS2_PLACEMENT_3D('',#1115,#1116,#1117);
#1115 = CARTESIAN_POINT('',(98.,5.500000002844,6.945511E-10));
#1116 = DIRECTION('',(0.,0.,1.));
#1117 = DIRECTION('',(-2.45864E-12,1.,0.));
#1118 = ADVANCED_FACE('',(#1119),#1130,.F.);
#1119 = FACE_BOUND('',#1120,.T.);
#1120 = EDGE_LOOP('',(#1121,#1122,#1123,#1124));
#1121 = ORIENTED_EDGE('',*,*,#316,.T.);
#1122 = ORIENTED_EDGE('',*,*,#1003,.T.);
#1123 = ORIENTED_EDGE('',*,*,#144,.F.);
#1124 = ORIENTED_EDGE('',*,*,#1125,.F.);
#1125 = EDGE_CURVE('',#317,#137,#1126,.T.);
#1126 = LINE('',#1127,#1128);
#1127 = CARTESIAN_POINT('',(50.,5.1,-2.55));
#1128 = VECTOR('',#1129,1.);
#1129 = DIRECTION('',(0.,1.,0.));
#1130 = CYLINDRICAL_SURFACE('',#1131,2.45);
#1131 = AXIS2_PLACEMENT_3D('',#1132,#1133,#1134);
#1132 = CARTESIAN_POINT('',(52.45,5.1,-2.55));
#1133 = DIRECTION('',(0.,1.,0.));
#1134 = DIRECTION('',(-1.,0.,0.));
#1135 = ADVANCED_FACE('',(#1136),#1147,.T.);
#1136 = FACE_BOUND('',#1137,.T.);
#1137 = EDGE_LOOP('',(#1138,#1139,#1140,#1141));
#1138 = ORIENTED_EDGE('',*,*,#325,.T.);
#1139 = ORIENTED_EDGE('',*,*,#1125,.T.);
#1140 = ORIENTED_EDGE('',*,*,#136,.F.);
#1141 = ORIENTED_EDGE('',*,*,#1142,.F.);
#1142 = EDGE_CURVE('',#326,#128,#1143,.T.);
#1143 = LINE('',#1144,#1145);
#1144 = CARTESIAN_POINT('',(50.,5.1,-2.5));
#1145 = VECTOR('',#1146,1.);
#1146 = DIRECTION('',(0.,1.,0.));
#1147 = PLANE('',#1148);
#1148 = AXIS2_PLACEMENT_3D('',#1149,#1150,#1151);
#1149 = CARTESIAN_POINT('',(50.,5.1,0.));
#1150 = DIRECTION('',(1.,0.,0.));
#1151 = DIRECTION('',(0.,1.,0.));
#1152 = ADVANCED_FACE('',(#1153),#1159,.F.);
#1153 = FACE_BOUND('',#1154,.T.);
#1154 = EDGE_LOOP('',(#1155,#1156,#1157,#1158));
#1155 = ORIENTED_EDGE('',*,*,#333,.T.);
#1156 = ORIENTED_EDGE('',*,*,#1142,.T.);
#1157 = ORIENTED_EDGE('',*,*,#127,.F.);
#1158 = ORIENTED_EDGE('',*,*,#520,.F.);
#1159 = CYLINDRICAL_SURFACE('',#1160,2.5);
#1160 = AXIS2_PLACEMENT_3D('',#1161,#1162,#1163);
#1161 = CARTESIAN_POINT('',(52.5,5.1,-2.5));
#1162 = DIRECTION('',(0.,1.,0.));
#1163 = DIRECTION('',(0.,0.,1.));
#1164 = ADVANCED_FACE('',(#1165),#1176,.T.);
#1165 = FACE_BOUND('',#1166,.T.);
#1166 = EDGE_LOOP('',(#1167,#1168,#1169,#1175));
#1167 = ORIENTED_EDGE('',*,*,#300,.T.);
#1168 = ORIENTED_EDGE('',*,*,#664,.T.);
#1169 = ORIENTED_EDGE('',*,*,#1170,.F.);
#1170 = EDGE_CURVE('',#1011,#665,#1171,.T.);
#1171 = LINE('',#1172,#1173);
#1172 = CARTESIAN_POINT('',(50.,2.55,-5.));
#1173 = VECTOR('',#1174,1.);
#1174 = DIRECTION('',(0.,0.,-1.));
#1175 = ORIENTED_EDGE('',*,*,#1010,.F.);
#1176 = PLANE('',#1177);
#1177 = AXIS2_PLACEMENT_3D('',#1178,#1179,#1180);
#1178 = CARTESIAN_POINT('',(50.,5.1,-5.));
#1179 = DIRECTION('',(-1.,-0.,-0.));
#1180 = DIRECTION('',(0.,-1.,0.));
#1181 = ADVANCED_FACE('',(#1182),#1193,.F.);
#1182 = FACE_BOUND('',#1183,.F.);
#1183 = EDGE_LOOP('',(#1184,#1185,#1191,#1192));
#1184 = ORIENTED_EDGE('',*,*,#436,.F.);
#1185 = ORIENTED_EDGE('',*,*,#1186,.T.);
#1186 = EDGE_CURVE('',#437,#845,#1187,.T.);
#1187 = LINE('',#1188,#1189);
#1188 = CARTESIAN_POINT('',(100.,-5.500000002849,1.7978373E-10));
#1189 = VECTOR('',#1190,1.);
#1190 = DIRECTION('',(0.,0.,1.));
#1191 = ORIENTED_EDGE('',*,*,#853,.T.);
#1192 = ORIENTED_EDGE('',*,*,#1106,.F.);
#1193 = PLANE('',#1194);
#1194 = AXIS2_PLACEMENT_3D('',#1195,#1196,#1197);
#1195 = CARTESIAN_POINT('',(100.,-7.500000004273,0.));
#1196 = DIRECTION('',(-1.,0.,0.));
#1197 = DIRECTION('',(0.,1.,0.));
#1198 = ADVANCED_FACE('',(#1199),#1210,.T.);
#1199 = FACE_BOUND('',#1200,.F.);
#1200 = EDGE_LOOP('',(#1201,#1202,#1208,#1209));
#1201 = ORIENTED_EDGE('',*,*,#444,.T.);
#1202 = ORIENTED_EDGE('',*,*,#1203,.T.);
#1203 = EDGE_CURVE('',#445,#837,#1204,.T.);
#1204 = LINE('',#1205,#1206);
#1205 = CARTESIAN_POINT('',(97.999999999929,-7.500000002849,
    1.7978373E-10));
#1206 = VECTOR('',#1207,1.);
#1207 = DIRECTION('',(0.,0.,1.));
#1208 = ORIENTED_EDGE('',*,*,#844,.F.);
#1209 = ORIENTED_EDGE('',*,*,#1186,.F.);
#1210 = CYLINDRICAL_SURFACE('',#1211,2.);
#1211 = AXIS2_PLACEMENT_3D('',#1212,#1213,#1214);
#1212 = CARTESIAN_POINT('',(98.,-5.500000002849,1.7978373E-10));
#1213 = DIRECTION('',(0.,0.,1.));
#1214 = DIRECTION('',(1.,0.,0.));
#1215 = ADVANCED_FACE('',(#1216),#1317,.T.);
#1216 = FACE_BOUND('',#1217,.T.);
#1217 = EDGE_LOOP('',(#1218,#1228,#1237,#1245,#1254,#1262,#1269,#1270,
    #1276,#1277,#1286,#1294,#1301,#1302,#1303,#1304,#1310,#1311));
#1218 = ORIENTED_EDGE('',*,*,#1219,.T.);
#1219 = EDGE_CURVE('',#1220,#1222,#1224,.T.);
#1220 = VERTEX_POINT('',#1221);
#1221 = CARTESIAN_POINT('',(-65.,-7.5,-5.E-02));
#1222 = VERTEX_POINT('',#1223);
#1223 = CARTESIAN_POINT('',(-60.34289321881,-7.49999999792,
    -4.707106781187));
#1224 = LINE('',#1225,#1226);
#1225 = CARTESIAN_POINT('',(-44.73783783783,-7.49999999974,
    -20.31216216216));
#1226 = VECTOR('',#1227,1.);
#1227 = DIRECTION('',(0.707106781187,-8.246539E-11,-0.707106781187));
#1228 = ORIENTED_EDGE('',*,*,#1229,.F.);
#1229 = EDGE_CURVE('',#1230,#1222,#1232,.T.);
#1230 = VERTEX_POINT('',#1231);
#1231 = CARTESIAN_POINT('',(-59.63578643762,-7.5,-5.));
#1232 = CIRCLE('',#1233,1.);
#1233 = AXIS2_PLACEMENT_3D('',#1234,#1235,#1236);
#1234 = CARTESIAN_POINT('',(-59.63578643762,-7.499999997572,-4.));
#1235 = DIRECTION('',(0.,1.,0.));
#1236 = DIRECTION('',(0.,-0.,1.));
#1237 = ORIENTED_EDGE('',*,*,#1238,.F.);
#1238 = EDGE_CURVE('',#1239,#1230,#1241,.T.);
#1239 = VERTEX_POINT('',#1240);
#1240 = CARTESIAN_POINT('',(22.5,-7.5,-5.));
#1241 = LINE('',#1242,#1243);
#1242 = CARTESIAN_POINT('',(50.,-7.5,-5.));
#1243 = VECTOR('',#1244,1.);
#1244 = DIRECTION('',(-1.,0.,0.));
#1245 = ORIENTED_EDGE('',*,*,#1246,.F.);
#1246 = EDGE_CURVE('',#1247,#1239,#1249,.T.);
#1247 = VERTEX_POINT('',#1248);
#1248 = CARTESIAN_POINT('',(25.,-7.5,-7.5));
#1249 = CIRCLE('',#1250,2.5);
#1250 = AXIS2_PLACEMENT_3D('',#1251,#1252,#1253);
#1251 = CARTESIAN_POINT('',(22.5,-7.499999999507,-7.5));
#1252 = DIRECTION('',(0.,-1.,0.));
#1253 = DIRECTION('',(0.,0.,1.));
#1254 = ORIENTED_EDGE('',*,*,#1255,.T.);
#1255 = EDGE_CURVE('',#1247,#1256,#1258,.T.);
#1256 = VERTEX_POINT('',#1257);
#1257 = CARTESIAN_POINT('',(25.,-7.5,-7.55));
#1258 = LINE('',#1259,#1260);
#1259 = CARTESIAN_POINT('',(25.,-7.5,-5.));
#1260 = VECTOR('',#1261,1.);
#1261 = DIRECTION('',(0.,0.,-1.));
#1262 = ORIENTED_EDGE('',*,*,#1263,.F.);
#1263 = EDGE_CURVE('',#698,#1256,#1264,.T.);
#1264 = CIRCLE('',#1265,2.45);
#1265 = AXIS2_PLACEMENT_3D('',#1266,#1267,#1268);
#1266 = CARTESIAN_POINT('',(27.45,-7.499999999678,-7.55));
#1267 = DIRECTION('',(0.,1.,0.));
#1268 = DIRECTION('',(0.,0.,1.));
#1269 = ORIENTED_EDGE('',*,*,#705,.F.);
#1270 = ORIENTED_EDGE('',*,*,#1271,.F.);
#1271 = EDGE_CURVE('',#1052,#706,#1272,.T.);
#1272 = LINE('',#1273,#1274);
#1273 = CARTESIAN_POINT('',(97.999999999929,-7.5000000024,-4.99999999982
    ));
#1274 = VECTOR('',#1275,1.);
#1275 = DIRECTION('',(0.,0.,-1.));
#1276 = ORIENTED_EDGE('',*,*,#1051,.T.);
#1277 = ORIENTED_EDGE('',*,*,#1278,.T.);
#1278 = EDGE_CURVE('',#1044,#1279,#1281,.T.);
#1279 = VERTEX_POINT('',#1280);
#1280 = CARTESIAN_POINT('',(50.,-7.5,-2.55));
#1281 = CIRCLE('',#1282,2.45);
#1282 = AXIS2_PLACEMENT_3D('',#1283,#1284,#1285);
#1283 = CARTESIAN_POINT('',(52.45,-7.50000000101,-2.55));
#1284 = DIRECTION('',(0.,1.,0.));
#1285 = DIRECTION('',(0.,0.,-1.));
#1286 = ORIENTED_EDGE('',*,*,#1287,.F.);
#1287 = EDGE_CURVE('',#1288,#1279,#1290,.T.);
#1288 = VERTEX_POINT('',#1289);
#1289 = CARTESIAN_POINT('',(50.,-7.5,-2.5));
#1290 = LINE('',#1291,#1292);
#1291 = CARTESIAN_POINT('',(50.,-7.5,0.));
#1292 = VECTOR('',#1293,1.);
#1293 = DIRECTION('',(0.,0.,-1.));
#1294 = ORIENTED_EDGE('',*,*,#1295,.F.);
#1295 = EDGE_CURVE('',#454,#1288,#1296,.T.);
#1296 = CIRCLE('',#1297,2.5);
#1297 = AXIS2_PLACEMENT_3D('',#1298,#1299,#1300);
#1298 = CARTESIAN_POINT('',(52.5,-7.500000002138,-2.5));
#1299 = DIRECTION('',(0.,-1.,0.));
#1300 = DIRECTION('',(0.,0.,-1.));
#1301 = ORIENTED_EDGE('',*,*,#453,.T.);
#1302 = ORIENTED_EDGE('',*,*,#1203,.T.);
#1303 = ORIENTED_EDGE('',*,*,#836,.F.);
#1304 = ORIENTED_EDGE('',*,*,#1305,.F.);
#1305 = EDGE_CURVE('',#486,#828,#1306,.T.);
#1306 = LINE('',#1307,#1308);
#1307 = CARTESIAN_POINT('',(-73.00000000007,-7.499999996807,
    1.7978373E-10));
#1308 = VECTOR('',#1309,1.);
#1309 = DIRECTION('',(0.,0.,1.));
#1310 = ORIENTED_EDGE('',*,*,#485,.T.);
#1311 = ORIENTED_EDGE('',*,*,#1312,.T.);
#1312 = EDGE_CURVE('',#478,#1220,#1313,.T.);
#1313 = LINE('',#1314,#1315);
#1314 = CARTESIAN_POINT('',(-65.,-7.5,0.));
#1315 = VECTOR('',#1316,1.);
#1316 = DIRECTION('',(0.,0.,-1.));
#1317 = PLANE('',#1318);
#1318 = AXIS2_PLACEMENT_3D('',#1319,#1320,#1321);
#1319 = CARTESIAN_POINT('',(26.206405565901,-7.50000000024,
    -1.299076935371));
#1320 = DIRECTION('',(-2.892803E-11,-1.,-6.823228E-11));
#1321 = DIRECTION('',(0.,6.823228E-11,-1.));
#1322 = ADVANCED_FACE('',(#1323),#1342,.F.);
#1323 = FACE_BOUND('',#1324,.F.);
#1324 = EDGE_LOOP('',(#1325,#1334,#1340,#1341));
#1325 = ORIENTED_EDGE('',*,*,#1326,.T.);
#1326 = EDGE_CURVE('',#462,#1327,#1329,.T.);
#1327 = VERTEX_POINT('',#1328);
#1328 = CARTESIAN_POINT('',(50.,-5.1,-2.5));
#1329 = CIRCLE('',#1330,2.5);
#1330 = AXIS2_PLACEMENT_3D('',#1331,#1332,#1333);
#1331 = CARTESIAN_POINT('',(52.5,-5.1,-2.5));
#1332 = DIRECTION('',(0.,-1.,0.));
#1333 = DIRECTION('',(0.,0.,-1.));
#1334 = ORIENTED_EDGE('',*,*,#1335,.T.);
#1335 = EDGE_CURVE('',#1327,#1288,#1336,.T.);
#1336 = LINE('',#1337,#1338);
#1337 = CARTESIAN_POINT('',(50.,-5.1,-2.5));
#1338 = VECTOR('',#1339,1.);
#1339 = DIRECTION('',(0.,-1.,0.));
#1340 = ORIENTED_EDGE('',*,*,#1295,.F.);
#1341 = ORIENTED_EDGE('',*,*,#461,.F.);
#1342 = CYLINDRICAL_SURFACE('',#1343,2.5);
#1343 = AXIS2_PLACEMENT_3D('',#1344,#1345,#1346);
#1344 = CARTESIAN_POINT('',(52.5,-5.1,-2.5));
#1345 = DIRECTION('',(0.,-1.,0.));
#1346 = DIRECTION('',(0.,0.,1.));
#1347 = ADVANCED_FACE('',(#1348),#1432,.T.);
#1348 = FACE_BOUND('',#1349,.T.);
#1349 = EDGE_LOOP('',(#1350,#1360,#1369,#1377,#1383,#1384,#1385,#1393,
    #1400,#1401,#1407,#1408,#1417,#1425));
#1350 = ORIENTED_EDGE('',*,*,#1351,.F.);
#1351 = EDGE_CURVE('',#1352,#1354,#1356,.T.);
#1352 = VERTEX_POINT('',#1353);
#1353 = CARTESIAN_POINT('',(-59.63578643762,-5.1,-5.));
#1354 = VERTEX_POINT('',#1355);
#1355 = CARTESIAN_POINT('',(22.5,-5.1,-5.));
#1356 = LINE('',#1357,#1358);
#1357 = CARTESIAN_POINT('',(-65.,-5.1,-5.));
#1358 = VECTOR('',#1359,1.);
#1359 = DIRECTION('',(1.,0.,0.));
#1360 = ORIENTED_EDGE('',*,*,#1361,.T.);
#1361 = EDGE_CURVE('',#1352,#1362,#1364,.T.);
#1362 = VERTEX_POINT('',#1363);
#1363 = CARTESIAN_POINT('',(-60.34289321881,-5.1,-4.707106781187));
#1364 = CIRCLE('',#1365,1.);
#1365 = AXIS2_PLACEMENT_3D('',#1366,#1367,#1368);
#1366 = CARTESIAN_POINT('',(-59.63578643762,-5.1,-4.));
#1367 = DIRECTION('',(0.,1.,0.));
#1368 = DIRECTION('',(0.,-0.,1.));
#1369 = ORIENTED_EDGE('',*,*,#1370,.F.);
#1370 = EDGE_CURVE('',#1371,#1362,#1373,.T.);
#1371 = VERTEX_POINT('',#1372);
#1372 = CARTESIAN_POINT('',(-65.,-5.1,-5.E-02));
#1373 = LINE('',#1374,#1375);
#1374 = CARTESIAN_POINT('',(-63.775,-5.1,-1.275));
#1375 = VECTOR('',#1376,1.);
#1376 = DIRECTION('',(0.707106781187,0.,-0.707106781187));
#1377 = ORIENTED_EDGE('',*,*,#1378,.F.);
#1378 = EDGE_CURVE('',#470,#1371,#1379,.T.);
#1379 = LINE('',#1380,#1381);
#1380 = CARTESIAN_POINT('',(-65.,-5.1,0.));
#1381 = VECTOR('',#1382,1.);
#1382 = DIRECTION('',(0.,0.,-1.));
#1383 = ORIENTED_EDGE('',*,*,#469,.T.);
#1384 = ORIENTED_EDGE('',*,*,#1326,.T.);
#1385 = ORIENTED_EDGE('',*,*,#1386,.T.);
#1386 = EDGE_CURVE('',#1327,#1387,#1389,.T.);
#1387 = VERTEX_POINT('',#1388);
#1388 = CARTESIAN_POINT('',(50.,-5.1,-2.55));
#1389 = LINE('',#1390,#1391);
#1390 = CARTESIAN_POINT('',(50.,-5.1,0.));
#1391 = VECTOR('',#1392,1.);
#1392 = DIRECTION('',(0.,0.,-1.));
#1393 = ORIENTED_EDGE('',*,*,#1394,.F.);
#1394 = EDGE_CURVE('',#1036,#1387,#1395,.T.);
#1395 = CIRCLE('',#1396,2.45);
#1396 = AXIS2_PLACEMENT_3D('',#1397,#1398,#1399);
#1397 = CARTESIAN_POINT('',(52.45,-5.1,-2.55));
#1398 = DIRECTION('',(0.,1.,0.));
#1399 = DIRECTION('',(0.,0.,-1.));
#1400 = ORIENTED_EDGE('',*,*,#1035,.F.);
#1401 = ORIENTED_EDGE('',*,*,#1402,.T.);
#1402 = EDGE_CURVE('',#1028,#682,#1403,.T.);
#1403 = LINE('',#1404,#1405);
#1404 = CARTESIAN_POINT('',(50.,-5.1,-5.));
#1405 = VECTOR('',#1406,1.);
#1406 = DIRECTION('',(0.,0.,-1.));
#1407 = ORIENTED_EDGE('',*,*,#689,.F.);
#1408 = ORIENTED_EDGE('',*,*,#1409,.T.);
#1409 = EDGE_CURVE('',#690,#1410,#1412,.T.);
#1410 = VERTEX_POINT('',#1411);
#1411 = CARTESIAN_POINT('',(25.,-5.1,-7.55));
#1412 = CIRCLE('',#1413,2.45);
#1413 = AXIS2_PLACEMENT_3D('',#1414,#1415,#1416);
#1414 = CARTESIAN_POINT('',(27.45,-5.1,-7.55));
#1415 = DIRECTION('',(0.,1.,0.));
#1416 = DIRECTION('',(0.,0.,1.));
#1417 = ORIENTED_EDGE('',*,*,#1418,.F.);
#1418 = EDGE_CURVE('',#1419,#1410,#1421,.T.);
#1419 = VERTEX_POINT('',#1420);
#1420 = CARTESIAN_POINT('',(25.,-5.1,-7.5));
#1421 = LINE('',#1422,#1423);
#1422 = CARTESIAN_POINT('',(25.,-5.1,-5.));
#1423 = VECTOR('',#1424,1.);
#1424 = DIRECTION('',(0.,0.,-1.));
#1425 = ORIENTED_EDGE('',*,*,#1426,.T.);
#1426 = EDGE_CURVE('',#1419,#1354,#1427,.T.);
#1427 = CIRCLE('',#1428,2.5);
#1428 = AXIS2_PLACEMENT_3D('',#1429,#1430,#1431);
#1429 = CARTESIAN_POINT('',(22.5,-5.1,-7.5));
#1430 = DIRECTION('',(0.,-1.,0.));
#1431 = DIRECTION('',(0.,0.,1.));
#1432 = PLANE('',#1433);
#1433 = AXIS2_PLACEMENT_3D('',#1434,#1435,#1436);
#1434 = CARTESIAN_POINT('',(-4.106023455027,-5.1,-3.111652745366));
#1435 = DIRECTION('',(0.,1.,0.));
#1436 = DIRECTION('',(0.,0.,1.));
#1437 = ADVANCED_FACE('',(#1438),#1449,.F.);
#1438 = FACE_BOUND('',#1439,.F.);
#1439 = EDGE_LOOP('',(#1440,#1441,#1447,#1448));
#1440 = ORIENTED_EDGE('',*,*,#1312,.T.);
#1441 = ORIENTED_EDGE('',*,*,#1442,.T.);
#1442 = EDGE_CURVE('',#1220,#1371,#1443,.T.);
#1443 = LINE('',#1444,#1445);
#1444 = CARTESIAN_POINT('',(-65.,-7.5,-5.E-02));
#1445 = VECTOR('',#1446,1.);
#1446 = DIRECTION('',(0.,1.,0.));
#1447 = ORIENTED_EDGE('',*,*,#1378,.F.);
#1448 = ORIENTED_EDGE('',*,*,#477,.F.);
#1449 = PLANE('',#1450);
#1450 = AXIS2_PLACEMENT_3D('',#1451,#1452,#1453);
#1451 = CARTESIAN_POINT('',(-65.,-7.5,0.));
#1452 = DIRECTION('',(1.,0.,0.));
#1453 = DIRECTION('',(0.,1.,0.));
#1454 = ADVANCED_FACE('',(#1455),#1466,.T.);
#1455 = FACE_BOUND('',#1456,.T.);
#1456 = EDGE_LOOP('',(#1457,#1458,#1459,#1460));
#1457 = ORIENTED_EDGE('',*,*,#493,.T.);
#1458 = ORIENTED_EDGE('',*,*,#1305,.T.);
#1459 = ORIENTED_EDGE('',*,*,#827,.F.);
#1460 = ORIENTED_EDGE('',*,*,#1461,.F.);
#1461 = EDGE_CURVE('',#494,#820,#1462,.T.);
#1462 = LINE('',#1463,#1464);
#1463 = CARTESIAN_POINT('',(-75.,-5.499999996807,1.7978373E-10));
#1464 = VECTOR('',#1465,1.);
#1465 = DIRECTION('',(0.,0.,1.));
#1466 = CYLINDRICAL_SURFACE('',#1467,2.);
#1467 = AXIS2_PLACEMENT_3D('',#1468,#1469,#1470);
#1468 = CARTESIAN_POINT('',(-73.,-5.499999996807,1.7978373E-10));
#1469 = DIRECTION('',(0.,0.,1.));
#1470 = DIRECTION('',(-1.,0.,0.));
#1471 = ADVANCED_FACE('',(#1472),#1478,.F.);
#1472 = FACE_BOUND('',#1473,.F.);
#1473 = EDGE_LOOP('',(#1474,#1475,#1476,#1477));
#1474 = ORIENTED_EDGE('',*,*,#502,.F.);
#1475 = ORIENTED_EDGE('',*,*,#768,.T.);
#1476 = ORIENTED_EDGE('',*,*,#819,.T.);
#1477 = ORIENTED_EDGE('',*,*,#1461,.F.);
#1478 = PLANE('',#1479);
#1479 = AXIS2_PLACEMENT_3D('',#1480,#1481,#1482);
#1480 = CARTESIAN_POINT('',(-75.,7.500000004273,0.));
#1481 = DIRECTION('',(1.,0.,0.));
#1482 = DIRECTION('',(0.,-1.,0.));
#1483 = ADVANCED_FACE('',(#1484),#1500,.T.);
#1484 = FACE_BOUND('',#1485,.T.);
#1485 = EDGE_LOOP('',(#1486,#1487,#1493,#1494));
#1486 = ORIENTED_EDGE('',*,*,#529,.F.);
#1487 = ORIENTED_EDGE('',*,*,#1488,.F.);
#1488 = EDGE_CURVE('',#871,#530,#1489,.T.);
#1489 = LINE('',#1490,#1491);
#1490 = CARTESIAN_POINT('',(7.7,-2.55,7.6E-16));
#1491 = VECTOR('',#1492,1.);
#1492 = DIRECTION('',(0.,-1.2E-16,-1.));
#1493 = ORIENTED_EDGE('',*,*,#870,.T.);
#1494 = ORIENTED_EDGE('',*,*,#1495,.F.);
#1495 = EDGE_CURVE('',#532,#873,#1496,.T.);
#1496 = LINE('',#1497,#1498);
#1497 = CARTESIAN_POINT('',(50.,-2.55,3.1E-16));
#1498 = VECTOR('',#1499,1.);
#1499 = DIRECTION('',(0.,1.2E-16,1.));
#1500 = PLANE('',#1501);
#1501 = AXIS2_PLACEMENT_3D('',#1502,#1503,#1504);
#1502 = CARTESIAN_POINT('',(-55.,-2.55,3.1E-16));
#1503 = DIRECTION('',(0.,1.,-1.2E-16));
#1504 = DIRECTION('',(1.,0.,0.));
#1505 = ADVANCED_FACE('',(#1506),#1517,.F.);
#1506 = FACE_BOUND('',#1507,.F.);
#1507 = EDGE_LOOP('',(#1508,#1514,#1515,#1516));
#1508 = ORIENTED_EDGE('',*,*,#1509,.T.);
#1509 = EDGE_CURVE('',#540,#889,#1510,.T.);
#1510 = LINE('',#1511,#1512);
#1511 = CARTESIAN_POINT('',(50.,2.55,-3.1E-16));
#1512 = VECTOR('',#1513,1.);
#1513 = DIRECTION('',(0.,1.2E-16,1.));
#1514 = ORIENTED_EDGE('',*,*,#896,.T.);
#1515 = ORIENTED_EDGE('',*,*,#1495,.F.);
#1516 = ORIENTED_EDGE('',*,*,#539,.F.);
#1517 = CYLINDRICAL_SURFACE('',#1518,2.55);
#1518 = AXIS2_PLACEMENT_3D('',#1519,#1520,#1521);
#1519 = CARTESIAN_POINT('',(50.,-8.E-17,0.));
#1520 = DIRECTION('',(0.,-1.2E-16,-1.));
#1521 = DIRECTION('',(1.,0.,0.));
#1522 = ADVANCED_FACE('',(#1523),#1534,.T.);
#1523 = FACE_BOUND('',#1524,.T.);
#1524 = EDGE_LOOP('',(#1525,#1526,#1527,#1528));
#1525 = ORIENTED_EDGE('',*,*,#548,.F.);
#1526 = ORIENTED_EDGE('',*,*,#1509,.T.);
#1527 = ORIENTED_EDGE('',*,*,#888,.T.);
#1528 = ORIENTED_EDGE('',*,*,#1529,.F.);
#1529 = EDGE_CURVE('',#549,#881,#1530,.T.);
#1530 = LINE('',#1531,#1532);
#1531 = CARTESIAN_POINT('',(7.7,2.55,1.4E-16));
#1532 = VECTOR('',#1533,1.);
#1533 = DIRECTION('',(0.,1.2E-16,1.));
#1534 = PLANE('',#1535);
#1535 = AXIS2_PLACEMENT_3D('',#1536,#1537,#1538);
#1536 = CARTESIAN_POINT('',(50.,2.55,-3.1E-16));
#1537 = DIRECTION('',(0.,-1.,1.2E-16));
#1538 = DIRECTION('',(-1.,0.,0.));
#1539 = ADVANCED_FACE('',(#1540),#1546,.T.);
#1540 = FACE_BOUND('',#1541,.T.);
#1541 = EDGE_LOOP('',(#1542,#1543,#1544,#1545));
#1542 = ORIENTED_EDGE('',*,*,#1529,.T.);
#1543 = ORIENTED_EDGE('',*,*,#880,.T.);
#1544 = ORIENTED_EDGE('',*,*,#1488,.T.);
#1545 = ORIENTED_EDGE('',*,*,#556,.F.);
#1546 = PLANE('',#1547);
#1547 = AXIS2_PLACEMENT_3D('',#1548,#1549,#1550);
#1548 = CARTESIAN_POINT('',(7.7,7.5,0.));
#1549 = DIRECTION('',(1.,0.,0.));
#1550 = DIRECTION('',(0.,-1.,0.));
#1551 = ADVANCED_FACE('',(#1552),#1568,.T.);
#1552 = FACE_BOUND('',#1553,.T.);
#1553 = EDGE_LOOP('',(#1554,#1555,#1561,#1562));
#1554 = ORIENTED_EDGE('',*,*,#564,.F.);
#1555 = ORIENTED_EDGE('',*,*,#1556,.F.);
#1556 = EDGE_CURVE('',#906,#565,#1557,.T.);
#1557 = LINE('',#1558,#1559);
#1558 = CARTESIAN_POINT('',(-31.,-2.55,7.6E-16));
#1559 = VECTOR('',#1560,1.);
#1560 = DIRECTION('',(0.,-1.2E-16,-1.));
#1561 = ORIENTED_EDGE('',*,*,#905,.T.);
#1562 = ORIENTED_EDGE('',*,*,#1563,.F.);
#1563 = EDGE_CURVE('',#567,#908,#1564,.T.);
#1564 = LINE('',#1565,#1566);
#1565 = CARTESIAN_POINT('',(5.7,-2.55,-1.4E-16));
#1566 = VECTOR('',#1567,1.);
#1567 = DIRECTION('',(0.,1.2E-16,1.));
#1568 = PLANE('',#1569);
#1569 = AXIS2_PLACEMENT_3D('',#1570,#1571,#1572);
#1570 = CARTESIAN_POINT('',(-55.,-2.55,3.1E-16));
#1571 = DIRECTION('',(0.,1.,-1.2E-16));
#1572 = DIRECTION('',(1.,0.,0.));
#1573 = ADVANCED_FACE('',(#1574),#1585,.T.);
#1574 = FACE_BOUND('',#1575,.T.);
#1575 = EDGE_LOOP('',(#1576,#1577,#1578,#1584));
#1576 = ORIENTED_EDGE('',*,*,#1563,.T.);
#1577 = ORIENTED_EDGE('',*,*,#931,.T.);
#1578 = ORIENTED_EDGE('',*,*,#1579,.T.);
#1579 = EDGE_CURVE('',#924,#575,#1580,.T.);
#1580 = LINE('',#1581,#1582);
#1581 = CARTESIAN_POINT('',(5.7,2.55,-7.6E-16));
#1582 = VECTOR('',#1583,1.);
#1583 = DIRECTION('',(-0.,-1.2E-16,-1.));
#1584 = ORIENTED_EDGE('',*,*,#574,.F.);
#1585 = PLANE('',#1586);
#1586 = AXIS2_PLACEMENT_3D('',#1587,#1588,#1589);
#1587 = CARTESIAN_POINT('',(5.7,-7.5,0.));
#1588 = DIRECTION('',(-1.,6.E-17,0.));
#1589 = DIRECTION('',(6.E-17,1.,0.));
#1590 = ADVANCED_FACE('',(#1591),#1602,.T.);
#1591 = FACE_BOUND('',#1592,.T.);
#1592 = EDGE_LOOP('',(#1593,#1594,#1595,#1596));
#1593 = ORIENTED_EDGE('',*,*,#582,.F.);
#1594 = ORIENTED_EDGE('',*,*,#1579,.F.);
#1595 = ORIENTED_EDGE('',*,*,#923,.T.);
#1596 = ORIENTED_EDGE('',*,*,#1597,.F.);
#1597 = EDGE_CURVE('',#583,#916,#1598,.T.);
#1598 = LINE('',#1599,#1600);
#1599 = CARTESIAN_POINT('',(-31.,2.55,1.4E-16));
#1600 = VECTOR('',#1601,1.);
#1601 = DIRECTION('',(0.,1.2E-16,1.));
#1602 = PLANE('',#1603);
#1603 = AXIS2_PLACEMENT_3D('',#1604,#1605,#1606);
#1604 = CARTESIAN_POINT('',(50.,2.55,-3.1E-16));
#1605 = DIRECTION('',(0.,-1.,1.2E-16));
#1606 = DIRECTION('',(-1.,0.,0.));
#1607 = ADVANCED_FACE('',(#1608),#1614,.T.);
#1608 = FACE_BOUND('',#1609,.T.);
#1609 = EDGE_LOOP('',(#1610,#1611,#1612,#1613));
#1610 = ORIENTED_EDGE('',*,*,#1597,.T.);
#1611 = ORIENTED_EDGE('',*,*,#915,.T.);
#1612 = ORIENTED_EDGE('',*,*,#1556,.T.);
#1613 = ORIENTED_EDGE('',*,*,#590,.F.);
#1614 = PLANE('',#1615);
#1615 = AXIS2_PLACEMENT_3D('',#1616,#1617,#1618);
#1616 = CARTESIAN_POINT('',(-31.,7.5,0.));
#1617 = DIRECTION('',(1.,0.,0.));
#1618 = DIRECTION('',(0.,-1.,0.));
#1619 = ADVANCED_FACE('',(#1620),#1636,.T.);
#1620 = FACE_BOUND('',#1621,.T.);
#1621 = EDGE_LOOP('',(#1622,#1623,#1629,#1630));
#1622 = ORIENTED_EDGE('',*,*,#598,.F.);
#1623 = ORIENTED_EDGE('',*,*,#1624,.F.);
#1624 = EDGE_CURVE('',#940,#599,#1625,.T.);
#1625 = LINE('',#1626,#1627);
#1626 = CARTESIAN_POINT('',(-33.,2.55,-7.6E-16));
#1627 = VECTOR('',#1628,1.);
#1628 = DIRECTION('',(-0.,-1.2E-16,-1.));
#1629 = ORIENTED_EDGE('',*,*,#939,.T.);
#1630 = ORIENTED_EDGE('',*,*,#1631,.F.);
#1631 = EDGE_CURVE('',#601,#942,#1632,.T.);
#1632 = LINE('',#1633,#1634);
#1633 = CARTESIAN_POINT('',(-55.,2.55,-3.1E-16));
#1634 = VECTOR('',#1635,1.);
#1635 = DIRECTION('',(0.,1.2E-16,1.));
#1636 = PLANE('',#1637);
#1637 = AXIS2_PLACEMENT_3D('',#1638,#1639,#1640);
#1638 = CARTESIAN_POINT('',(50.,2.55,-3.1E-16));
#1639 = DIRECTION('',(0.,-1.,1.2E-16));
#1640 = DIRECTION('',(-1.,0.,0.));
#1641 = ADVANCED_FACE('',(#1642),#1653,.F.);
#1642 = FACE_BOUND('',#1643,.F.);
#1643 = EDGE_LOOP('',(#1644,#1650,#1651,#1652));
#1644 = ORIENTED_EDGE('',*,*,#1645,.T.);
#1645 = EDGE_CURVE('',#609,#958,#1646,.T.);
#1646 = LINE('',#1647,#1648);
#1647 = CARTESIAN_POINT('',(-55.,-2.55,3.1E-16));
#1648 = VECTOR('',#1649,1.);
#1649 = DIRECTION('',(0.,1.2E-16,1.));
#1650 = ORIENTED_EDGE('',*,*,#965,.T.);
#1651 = ORIENTED_EDGE('',*,*,#1631,.F.);
#1652 = ORIENTED_EDGE('',*,*,#608,.F.);
#1653 = CYLINDRICAL_SURFACE('',#1654,2.55);
#1654 = AXIS2_PLACEMENT_3D('',#1655,#1656,#1657);
#1655 = CARTESIAN_POINT('',(-55.,3.E-17,0.));
#1656 = DIRECTION('',(0.,-1.2E-16,-1.));
#1657 = DIRECTION('',(1.,0.,0.));
#1658 = ADVANCED_FACE('',(#1659),#1670,.T.);
#1659 = FACE_BOUND('',#1660,.T.);
#1660 = EDGE_LOOP('',(#1661,#1662,#1663,#1664));
#1661 = ORIENTED_EDGE('',*,*,#617,.F.);
#1662 = ORIENTED_EDGE('',*,*,#1645,.T.);
#1663 = ORIENTED_EDGE('',*,*,#957,.T.);
#1664 = ORIENTED_EDGE('',*,*,#1665,.F.);
#1665 = EDGE_CURVE('',#618,#950,#1666,.T.);
#1666 = LINE('',#1667,#1668);
#1667 = CARTESIAN_POINT('',(-33.,-2.55,-1.4E-16));
#1668 = VECTOR('',#1669,1.);
#1669 = DIRECTION('',(0.,1.2E-16,1.));
#1670 = PLANE('',#1671);
#1671 = AXIS2_PLACEMENT_3D('',#1672,#1673,#1674);
#1672 = CARTESIAN_POINT('',(-55.,-2.55,3.1E-16));
#1673 = DIRECTION('',(0.,1.,-1.2E-16));
#1674 = DIRECTION('',(1.,0.,0.));
#1675 = ADVANCED_FACE('',(#1676),#1682,.T.);
#1676 = FACE_BOUND('',#1677,.T.);
#1677 = EDGE_LOOP('',(#1678,#1679,#1680,#1681));
#1678 = ORIENTED_EDGE('',*,*,#1665,.T.);
#1679 = ORIENTED_EDGE('',*,*,#949,.T.);
#1680 = ORIENTED_EDGE('',*,*,#1624,.T.);
#1681 = ORIENTED_EDGE('',*,*,#625,.F.);
#1682 = PLANE('',#1683);
#1683 = AXIS2_PLACEMENT_3D('',#1684,#1685,#1686);
#1684 = CARTESIAN_POINT('',(-33.,-7.5,0.));
#1685 = DIRECTION('',(-1.,0.,0.));
#1686 = DIRECTION('',(0.,1.,0.));
#1687 = ADVANCED_FACE('',(#1688),#1699,.F.);
#1688 = FACE_BOUND('',#1689,.F.);
#1689 = EDGE_LOOP('',(#1690,#1696,#1697,#1698));
#1690 = ORIENTED_EDGE('',*,*,#1691,.F.);
#1691 = EDGE_CURVE('',#634,#975,#1692,.T.);
#1692 = LINE('',#1693,#1694);
#1693 = CARTESIAN_POINT('',(66.575,0.,-177.6853820669));
#1694 = VECTOR('',#1695,1.);
#1695 = DIRECTION('',(0.,0.,1.));
#1696 = ORIENTED_EDGE('',*,*,#633,.F.);
#1697 = ORIENTED_EDGE('',*,*,#1691,.T.);
#1698 = ORIENTED_EDGE('',*,*,#974,.T.);
#1699 = CYLINDRICAL_SURFACE('',#1700,1.575);
#1700 = AXIS2_PLACEMENT_3D('',#1701,#1702,#1703);
#1701 = CARTESIAN_POINT('',(65.,0.,-177.6853820669));
#1702 = DIRECTION('',(0.,0.,-1.));
#1703 = DIRECTION('',(1.,0.,0.));
#1704 = ADVANCED_FACE('',(#1705),#1716,.F.);
#1705 = FACE_BOUND('',#1706,.F.);
#1706 = EDGE_LOOP('',(#1707,#1713,#1714,#1715));
#1707 = ORIENTED_EDGE('',*,*,#1708,.F.);
#1708 = EDGE_CURVE('',#645,#986,#1709,.T.);
#1709 = LINE('',#1710,#1711);
#1710 = CARTESIAN_POINT('',(86.575,0.,-177.6853820669));
#1711 = VECTOR('',#1712,1.);
#1712 = DIRECTION('',(0.,0.,1.));
#1713 = ORIENTED_EDGE('',*,*,#644,.F.);
#1714 = ORIENTED_EDGE('',*,*,#1708,.T.);
#1715 = ORIENTED_EDGE('',*,*,#985,.T.);
#1716 = CYLINDRICAL_SURFACE('',#1717,1.575);
#1717 = AXIS2_PLACEMENT_3D('',#1718,#1719,#1720);
#1718 = CARTESIAN_POINT('',(85.,0.,-177.6853820669));
#1719 = DIRECTION('',(0.,0.,-1.));
#1720 = DIRECTION('',(1.,0.,0.));
#1721 = ADVANCED_FACE('',(#1722),#1733,.F.);
#1722 = FACE_BOUND('',#1723,.F.);
#1723 = EDGE_LOOP('',(#1724,#1725,#1726,#1727));
#1724 = ORIENTED_EDGE('',*,*,#1068,.F.);
#1725 = ORIENTED_EDGE('',*,*,#801,.T.);
#1726 = ORIENTED_EDGE('',*,*,#722,.T.);
#1727 = ORIENTED_EDGE('',*,*,#1728,.F.);
#1728 = EDGE_CURVE('',#1060,#714,#1729,.T.);
#1729 = LINE('',#1730,#1731);
#1730 = CARTESIAN_POINT('',(100.,-5.5000000024,-4.99999999982));
#1731 = VECTOR('',#1732,1.);
#1732 = DIRECTION('',(0.,0.,-1.));
#1733 = PLANE('',#1734);
#1734 = AXIS2_PLACEMENT_3D('',#1735,#1736,#1737);
#1735 = CARTESIAN_POINT('',(100.,7.5,-5.));
#1736 = DIRECTION('',(-1.,-0.,-0.));
#1737 = DIRECTION('',(0.,-1.,0.));
#1738 = ADVANCED_FACE('',(#1739),#1745,.T.);
#1739 = FACE_BOUND('',#1740,.T.);
#1740 = EDGE_LOOP('',(#1741,#1742,#1743,#1744));
#1741 = ORIENTED_EDGE('',*,*,#1059,.T.);
#1742 = ORIENTED_EDGE('',*,*,#1271,.T.);
#1743 = ORIENTED_EDGE('',*,*,#713,.F.);
#1744 = ORIENTED_EDGE('',*,*,#1728,.F.);
#1745 = CYLINDRICAL_SURFACE('',#1746,2.);
#1746 = AXIS2_PLACEMENT_3D('',#1747,#1748,#1749);
#1747 = CARTESIAN_POINT('',(98.,-5.5000000024,-4.99999999982));
#1748 = DIRECTION('',(0.,0.,-1.));
#1749 = DIRECTION('',(1.,0.,0.));
#1750 = ADVANCED_FACE('',(#1751),#1762,.F.);
#1751 = FACE_BOUND('',#1752,.T.);
#1752 = EDGE_LOOP('',(#1753,#1754,#1755,#1761));
#1753 = ORIENTED_EDGE('',*,*,#1170,.T.);
#1754 = ORIENTED_EDGE('',*,*,#672,.T.);
#1755 = ORIENTED_EDGE('',*,*,#1756,.F.);
#1756 = EDGE_CURVE('',#1019,#673,#1757,.T.);
#1757 = LINE('',#1758,#1759);
#1758 = CARTESIAN_POINT('',(50.,-2.55,-5.));
#1759 = VECTOR('',#1760,1.);
#1760 = DIRECTION('',(0.,0.,-1.));
#1761 = ORIENTED_EDGE('',*,*,#1018,.F.);
#1762 = CYLINDRICAL_SURFACE('',#1763,2.55);
#1763 = AXIS2_PLACEMENT_3D('',#1764,#1765,#1766);
#1764 = CARTESIAN_POINT('',(50.,0.,-5.));
#1765 = DIRECTION('',(0.,0.,1.));
#1766 = DIRECTION('',(1.,0.,0.));
#1767 = ADVANCED_FACE('',(#1768),#1779,.T.);
#1768 = FACE_BOUND('',#1769,.T.);
#1769 = EDGE_LOOP('',(#1770,#1771,#1777,#1778));
#1770 = ORIENTED_EDGE('',*,*,#1263,.T.);
#1771 = ORIENTED_EDGE('',*,*,#1772,.T.);
#1772 = EDGE_CURVE('',#1256,#1410,#1773,.T.);
#1773 = LINE('',#1774,#1775);
#1774 = CARTESIAN_POINT('',(25.,-7.5,-7.55));
#1775 = VECTOR('',#1776,1.);
#1776 = DIRECTION('',(0.,1.,0.));
#1777 = ORIENTED_EDGE('',*,*,#1409,.F.);
#1778 = ORIENTED_EDGE('',*,*,#697,.F.);
#1779 = CYLINDRICAL_SURFACE('',#1780,2.45);
#1780 = AXIS2_PLACEMENT_3D('',#1781,#1782,#1783);
#1781 = CARTESIAN_POINT('',(27.45,-7.5,-7.55));
#1782 = DIRECTION('',(0.,1.,0.));
#1783 = DIRECTION('',(0.,0.,-1.));
#1784 = ADVANCED_FACE('',(#1785),#1791,.F.);
#1785 = FACE_BOUND('',#1786,.F.);
#1786 = EDGE_LOOP('',(#1787,#1788,#1789,#1790));
#1787 = ORIENTED_EDGE('',*,*,#1402,.T.);
#1788 = ORIENTED_EDGE('',*,*,#681,.T.);
#1789 = ORIENTED_EDGE('',*,*,#1756,.F.);
#1790 = ORIENTED_EDGE('',*,*,#1027,.F.);
#1791 = PLANE('',#1792);
#1792 = AXIS2_PLACEMENT_3D('',#1793,#1794,#1795);
#1793 = CARTESIAN_POINT('',(50.,-5.1,-5.));
#1794 = DIRECTION('',(1.,0.,0.));
#1795 = DIRECTION('',(0.,1.,0.));
#1796 = ADVANCED_FACE('',(#1797),#1808,.F.);
#1797 = FACE_BOUND('',#1798,.F.);
#1798 = EDGE_LOOP('',(#1799,#1800,#1806,#1807));
#1799 = ORIENTED_EDGE('',*,*,#1077,.T.);
#1800 = ORIENTED_EDGE('',*,*,#1801,.F.);
#1801 = EDGE_CURVE('',#740,#1078,#1802,.T.);
#1802 = LINE('',#1803,#1804);
#1803 = CARTESIAN_POINT('',(66.575,0.,-10.));
#1804 = VECTOR('',#1805,1.);
#1805 = DIRECTION('',(0.,0.,1.));
#1806 = ORIENTED_EDGE('',*,*,#739,.F.);
#1807 = ORIENTED_EDGE('',*,*,#1801,.T.);
#1808 = CYLINDRICAL_SURFACE('',#1809,1.575);
#1809 = AXIS2_PLACEMENT_3D('',#1810,#1811,#1812);
#1810 = CARTESIAN_POINT('',(65.,0.,-10.));
#1811 = DIRECTION('',(0.,0.,-1.));
#1812 = DIRECTION('',(1.,0.,0.));
#1813 = ADVANCED_FACE('',(#1814),#1825,.F.);
#1814 = FACE_BOUND('',#1815,.F.);
#1815 = EDGE_LOOP('',(#1816,#1817,#1823,#1824));
#1816 = ORIENTED_EDGE('',*,*,#1088,.T.);
#1817 = ORIENTED_EDGE('',*,*,#1818,.F.);
#1818 = EDGE_CURVE('',#751,#1089,#1819,.T.);
#1819 = LINE('',#1820,#1821);
#1820 = CARTESIAN_POINT('',(86.575,0.,-10.));
#1821 = VECTOR('',#1822,1.);
#1822 = DIRECTION('',(0.,0.,1.));
#1823 = ORIENTED_EDGE('',*,*,#750,.F.);
#1824 = ORIENTED_EDGE('',*,*,#1818,.T.);
#1825 = CYLINDRICAL_SURFACE('',#1826,1.575);
#1826 = AXIS2_PLACEMENT_3D('',#1827,#1828,#1829);
#1827 = CARTESIAN_POINT('',(85.,0.,-10.));
#1828 = DIRECTION('',(0.,0.,-1.));
#1829 = DIRECTION('',(1.,0.,0.));
#1830 = ADVANCED_FACE('',(#1831),#1842,.F.);
#1831 = FACE_BOUND('',#1832,.T.);
#1832 = EDGE_LOOP('',(#1833,#1834,#1840,#1841));
#1833 = ORIENTED_EDGE('',*,*,#1394,.T.);
#1834 = ORIENTED_EDGE('',*,*,#1835,.T.);
#1835 = EDGE_CURVE('',#1387,#1279,#1836,.T.);
#1836 = LINE('',#1837,#1838);
#1837 = CARTESIAN_POINT('',(50.,-5.1,-2.55));
#1838 = VECTOR('',#1839,1.);
#1839 = DIRECTION('',(0.,-1.,0.));
#1840 = ORIENTED_EDGE('',*,*,#1278,.F.);
#1841 = ORIENTED_EDGE('',*,*,#1043,.F.);
#1842 = CYLINDRICAL_SURFACE('',#1843,2.45);
#1843 = AXIS2_PLACEMENT_3D('',#1844,#1845,#1846);
#1844 = CARTESIAN_POINT('',(52.45,-5.1,-2.55));
#1845 = DIRECTION('',(0.,-1.,0.));
#1846 = DIRECTION('',(-0.,-0.,-1.));
#1847 = ADVANCED_FACE('',(#1848),#1859,.T.);
#1848 = FACE_BOUND('',#1849,.T.);
#1849 = EDGE_LOOP('',(#1850,#1851,#1852,#1853));
#1850 = ORIENTED_EDGE('',*,*,#1219,.F.);
#1851 = ORIENTED_EDGE('',*,*,#1442,.T.);
#1852 = ORIENTED_EDGE('',*,*,#1370,.T.);
#1853 = ORIENTED_EDGE('',*,*,#1854,.F.);
#1854 = EDGE_CURVE('',#1222,#1362,#1855,.T.);
#1855 = LINE('',#1856,#1857);
#1856 = CARTESIAN_POINT('',(-60.34289321881,-7.499999997955,
    -4.707106781187));
#1857 = VECTOR('',#1858,1.);
#1858 = DIRECTION('',(0.,1.,0.));
#1859 = PLANE('',#1860);
#1860 = AXIS2_PLACEMENT_3D('',#1861,#1862,#1863);
#1861 = CARTESIAN_POINT('',(-62.525,-7.5,-2.525));
#1862 = DIRECTION('',(-0.707106781187,0.,-0.707106781187));
#1863 = DIRECTION('',(0.,1.,0.));
#1864 = ADVANCED_FACE('',(#1865),#1876,.T.);
#1865 = FACE_BOUND('',#1866,.T.);
#1866 = EDGE_LOOP('',(#1867,#1868,#1869,#1870));
#1867 = ORIENTED_EDGE('',*,*,#1229,.T.);
#1868 = ORIENTED_EDGE('',*,*,#1854,.T.);
#1869 = ORIENTED_EDGE('',*,*,#1361,.F.);
#1870 = ORIENTED_EDGE('',*,*,#1871,.F.);
#1871 = EDGE_CURVE('',#1230,#1352,#1872,.T.);
#1872 = LINE('',#1873,#1874);
#1873 = CARTESIAN_POINT('',(-59.63578643762,-7.499999997955,-5.));
#1874 = VECTOR('',#1875,1.);
#1875 = DIRECTION('',(0.,1.,0.));
#1876 = CYLINDRICAL_SURFACE('',#1877,1.);
#1877 = AXIS2_PLACEMENT_3D('',#1878,#1879,#1880);
#1878 = CARTESIAN_POINT('',(-59.63578643762,-7.499999997955,-4.));
#1879 = DIRECTION('',(0.,1.,0.));
#1880 = DIRECTION('',(0.,0.,-1.));
#1881 = ADVANCED_FACE('',(#1882),#1893,.F.);
#1882 = FACE_BOUND('',#1883,.F.);
#1883 = EDGE_LOOP('',(#1884,#1885,#1886,#1887));
#1884 = ORIENTED_EDGE('',*,*,#1351,.F.);
#1885 = ORIENTED_EDGE('',*,*,#1871,.F.);
#1886 = ORIENTED_EDGE('',*,*,#1238,.F.);
#1887 = ORIENTED_EDGE('',*,*,#1888,.T.);
#1888 = EDGE_CURVE('',#1239,#1354,#1889,.T.);
#1889 = LINE('',#1890,#1891);
#1890 = CARTESIAN_POINT('',(22.5,-7.5,-5.));
#1891 = VECTOR('',#1892,1.);
#1892 = DIRECTION('',(0.,1.,0.));
#1893 = PLANE('',#1894);
#1894 = AXIS2_PLACEMENT_3D('',#1895,#1896,#1897);
#1895 = CARTESIAN_POINT('',(-7.5,0.,-5.));
#1896 = DIRECTION('',(0.,0.,1.));
#1897 = DIRECTION('',(1.,0.,0.));
#1898 = ADVANCED_FACE('',(#1899),#1910,.F.);
#1899 = FACE_BOUND('',#1900,.T.);
#1900 = EDGE_LOOP('',(#1901,#1902,#1903,#1904));
#1901 = ORIENTED_EDGE('',*,*,#1246,.T.);
#1902 = ORIENTED_EDGE('',*,*,#1888,.T.);
#1903 = ORIENTED_EDGE('',*,*,#1426,.F.);
#1904 = ORIENTED_EDGE('',*,*,#1905,.F.);
#1905 = EDGE_CURVE('',#1247,#1419,#1906,.T.);
#1906 = LINE('',#1907,#1908);
#1907 = CARTESIAN_POINT('',(25.,-7.5,-7.5));
#1908 = VECTOR('',#1909,1.);
#1909 = DIRECTION('',(0.,1.,0.));
#1910 = CYLINDRICAL_SURFACE('',#1911,2.5);
#1911 = AXIS2_PLACEMENT_3D('',#1912,#1913,#1914);
#1912 = CARTESIAN_POINT('',(22.5,-7.5,-7.5));
#1913 = DIRECTION('',(0.,1.,0.));
#1914 = DIRECTION('',(1.,0.,0.));
#1915 = ADVANCED_FACE('',(#1916),#1922,.F.);
#1916 = FACE_BOUND('',#1917,.F.);
#1917 = EDGE_LOOP('',(#1918,#1919,#1920,#1921));
#1918 = ORIENTED_EDGE('',*,*,#1255,.T.);
#1919 = ORIENTED_EDGE('',*,*,#1772,.T.);
#1920 = ORIENTED_EDGE('',*,*,#1418,.F.);
#1921 = ORIENTED_EDGE('',*,*,#1905,.F.);
#1922 = PLANE('',#1923);
#1923 = AXIS2_PLACEMENT_3D('',#1924,#1925,#1926);
#1924 = CARTESIAN_POINT('',(25.,-7.5,-5.));
#1925 = DIRECTION('',(1.,0.,0.));
#1926 = DIRECTION('',(0.,1.,0.));
#1927 = ADVANCED_FACE('',(#1928),#1934,.F.);
#1928 = FACE_BOUND('',#1929,.F.);
#1929 = EDGE_LOOP('',(#1930,#1931,#1932,#1933));
#1930 = ORIENTED_EDGE('',*,*,#1386,.T.);
#1931 = ORIENTED_EDGE('',*,*,#1835,.T.);
#1932 = ORIENTED_EDGE('',*,*,#1287,.F.);
#1933 = ORIENTED_EDGE('',*,*,#1335,.F.);
#1934 = PLANE('',#1935);
#1935 = AXIS2_PLACEMENT_3D('',#1936,#1937,#1938);
#1936 = CARTESIAN_POINT('',(50.,-5.1,0.));
#1937 = DIRECTION('',(-1.,-0.,-0.));
#1938 = DIRECTION('',(0.,-1.,0.));
#1939 = ( GEOMETRIC_REPRESENTATION_CONTEXT(3) 
GLOBAL_UNCERTAINTY_ASSIGNED_CONTEXT((#1943)) 
GLOBAL_UNIT_ASSIGNED_CONTEXT((#1940,#1941,#1942)) REPRESENTATION_CONTEXT
('Context #1','3D Context with UNIT and UNCERTAINTY') );
#1940 = ( LENGTH_UNIT() NAMED_UNIT(*) SI_UNIT(.MILLI.,.METRE.) );
#1941 = ( NAMED_UNIT(*) PLANE_ANGLE_UNIT() SI_UNIT($,.RADIAN.) );
#1942 = ( NAMED_UNIT(*) SI_UNIT($,.STERADIAN.) SOLID_ANGLE_UNIT() );
#1943 = UNCERTAINTY_MEASURE_WITH_UNIT(LENGTH_MEASURE(1.E-05),#1940,
  'distance_accuracy_value','confusion accuracy');
#1944 = PRODUCT_RELATED_PRODUCT_CATEGORY('detail',$,(#7));
#1945 = PRODUCT_CATEGORY_RELATIONSHIP('','',#1946,#1944);
#1946 = PRODUCT_CATEGORY('part',$);
#1947 = CC_DESIGN_PERSON_AND_ORGANIZATION_ASSIGNMENT(#1948,#1951,(#6,#5)
  );
#1948 = PERSON_AND_ORGANIZATION(#1949,#1950);
#1949 = PERSON('IP169.254.190,karol','','karol',$,$,$);
#1950 = ORGANIZATION('IP169.254.190','Unspecified','');
#1951 = PERSON_AND_ORGANIZATION_ROLE('creator');
#1952 = CC_DESIGN_PERSON_AND_ORGANIZATION_ASSIGNMENT(#1948,#1953,(#7));
#1953 = PERSON_AND_ORGANIZATION_ROLE('design_owner');
#1954 = CC_DESIGN_PERSON_AND_ORGANIZATION_ASSIGNMENT(#1948,#1955,(#6));
#1955 = PERSON_AND_ORGANIZATION_ROLE('design_supplier');
#1956 = CC_DESIGN_PERSON_AND_ORGANIZATION_ASSIGNMENT(#1948,#1957,(#1958)
  );
#1957 = PERSON_AND_ORGANIZATION_ROLE('classification_officer');
#1958 = SECURITY_CLASSIFICATION('','',#1959);
#1959 = SECURITY_CLASSIFICATION_LEVEL('unclassified');
#1960 = CC_DESIGN_SECURITY_CLASSIFICATION(#1958,(#6));
#1961 = CC_DESIGN_DATE_AND_TIME_ASSIGNMENT(#1962,#1966,(#5));
#1962 = DATE_AND_TIME(#1963,#1964);
#1963 = CALENDAR_DATE(2026,28,3);
#1964 = LOCAL_TIME(14,13,$,#1965);
#1965 = COORDINATED_UNIVERSAL_TIME_OFFSET(1,$,.AHEAD.);
#1966 = DATE_TIME_ROLE('creation_date');
#1967 = CC_DESIGN_DATE_AND_TIME_ASSIGNMENT(#1962,#1968,(#1958));
#1968 = DATE_TIME_ROLE('classification_date');
#1969 = CC_DESIGN_APPROVAL(#1970,(#6,#5,#1958));
#1970 = APPROVAL(#1971,'');
#1971 = APPROVAL_STATUS('not_yet_approved');
#1972 = APPROVAL_PERSON_ORGANIZATION(#1948,#1970,#1973);
#1973 = APPROVAL_ROLE('approver');
#1974 = APPROVAL_DATE_TIME(#1962,#1970);
#1975 = MECHANICAL_DESIGN_GEOMETRIC_PRESENTATION_REPRESENTATION('',(
    #1976),#1939);
#1976 = STYLED_ITEM('color',(#1977),#15);
#1977 = PRESENTATION_STYLE_ASSIGNMENT((#1978,#1984));
#1978 = SURFACE_STYLE_USAGE(.BOTH.,#1979);
#1979 = SURFACE_SIDE_STYLE('',(#1980));
#1980 = SURFACE_STYLE_FILL_AREA(#1981);
#1981 = FILL_AREA_STYLE('',(#1982));
#1982 = FILL_AREA_STYLE_COLOUR('',#1983);
#1983 = COLOUR_RGB('',0.447058818107,0.474509808674,0.501960817233);
#1984 = CURVE_STYLE('',#1985,POSITIVE_LENGTH_MEASURE(0.1),#1986);
#1985 = DRAUGHTING_PRE_DEFINED_CURVE_FONT('continuous');
#1986 = COLOUR_RGB('',9.803921802644E-02,9.803921802644E-02,
  9.803921802644E-02);
ENDSEC;
END-ISO-10303-21;
