ISO-10303-21;
HEADER;
FILE_DESCRIPTION(('FreeCAD Model'),'2;1');
FILE_NAME('Open CASCADE Shape Model','2026-03-17T19:30:29',(''),(''),
  'Open CASCADE STEP processor 7.8','FreeCAD','Unknown');
FILE_SCHEMA(('CONFIG_CONTROL_DESIGN','SHAPE_APPEARANCE_LAYER_MIM'));
ENDSEC;
DATA;
#1 = APPLICATION_PROTOCOL_DEFINITION('international standard',
  'config_control_design',1994,#2);
#2 = APPLICATION_CONTEXT(
'configuration controlled 3D designs of mechanical parts and assemblies'
  );
#3 = SHAPE_DEFINITION_REPRESENTATION(#4,#10);
#4 = PRODUCT_DEFINITION_SHAPE('','',#5);
#5 = PRODUCT_DEFINITION('design','',#6,#9);
#6 = PRODUCT_DEFINITION_FORMATION_WITH_SPECIFIED_SOURCE('','',#7,
  .NOT_KNOWN.);
#7 = PRODUCT('Part','Part','',(#8));
#8 = MECHANICAL_CONTEXT('',#2,'mechanical');
#9 = DESIGN_CONTEXT('',#2,'design');
#10 = SHAPE_REPRESENTATION('',(#11,#15),#19);
#11 = AXIS2_PLACEMENT_3D('',#12,#13,#14);
#12 = CARTESIAN_POINT('',(0.,0.,0.));
#13 = DIRECTION('',(0.,0.,1.));
#14 = DIRECTION('',(1.,0.,-0.));
#15 = AXIS2_PLACEMENT_3D('',#16,#17,#18);
#16 = CARTESIAN_POINT('',(0.,0.,0.));
#17 = DIRECTION('',(0.,0.,1.));
#18 = DIRECTION('',(1.,0.,0.));
#19 = ( GEOMETRIC_REPRESENTATION_CONTEXT(3) 
GLOBAL_UNCERTAINTY_ASSIGNED_CONTEXT((#23)) GLOBAL_UNIT_ASSIGNED_CONTEXT(
(#20,#21,#22)) REPRESENTATION_CONTEXT('Context #1',
  '3D Context with UNIT and UNCERTAINTY') );
#20 = ( LENGTH_UNIT() NAMED_UNIT(*) SI_UNIT(.MILLI.,.METRE.) );
#21 = ( NAMED_UNIT(*) PLANE_ANGLE_UNIT() SI_UNIT($,.RADIAN.) );
#22 = ( NAMED_UNIT(*) SI_UNIT($,.STERADIAN.) SOLID_ANGLE_UNIT() );
#23 = UNCERTAINTY_MEASURE_WITH_UNIT(LENGTH_MEASURE(1.E-07),#20,
  'distance_accuracy_value','confusion accuracy');
#24 = PRODUCT_RELATED_PRODUCT_CATEGORY('detail',$,(#7));
#25 = PRODUCT_CATEGORY_RELATIONSHIP('','',#26,#24);
#26 = PRODUCT_CATEGORY('part',$);
#27 = CC_DESIGN_PERSON_AND_ORGANIZATION_ASSIGNMENT(#28,#31,(#6,#5));
#28 = PERSON_AND_ORGANIZATION(#29,#30);
#29 = PERSON('IP169.254.190,karol','','karol',$,$,$);
#30 = ORGANIZATION('IP169.254.190','Unspecified','');
#31 = PERSON_AND_ORGANIZATION_ROLE('creator');
#32 = CC_DESIGN_PERSON_AND_ORGANIZATION_ASSIGNMENT(#28,#33,(#7));
#33 = PERSON_AND_ORGANIZATION_ROLE('design_owner');
#34 = CC_DESIGN_PERSON_AND_ORGANIZATION_ASSIGNMENT(#28,#35,(#6));
#35 = PERSON_AND_ORGANIZATION_ROLE('design_supplier');
#36 = CC_DESIGN_PERSON_AND_ORGANIZATION_ASSIGNMENT(#28,#37,(#38));
#37 = PERSON_AND_ORGANIZATION_ROLE('classification_officer');
#38 = SECURITY_CLASSIFICATION('','',#39);
#39 = SECURITY_CLASSIFICATION_LEVEL('unclassified');
#40 = CC_DESIGN_SECURITY_CLASSIFICATION(#38,(#6));
#41 = CC_DESIGN_DATE_AND_TIME_ASSIGNMENT(#42,#46,(#5));
#42 = DATE_AND_TIME(#43,#44);
#43 = CALENDAR_DATE(2026,17,3);
#44 = LOCAL_TIME(19,30,$,#45);
#45 = COORDINATED_UNIVERSAL_TIME_OFFSET(1,$,.AHEAD.);
#46 = DATE_TIME_ROLE('creation_date');
#47 = CC_DESIGN_DATE_AND_TIME_ASSIGNMENT(#42,#48,(#38));
#48 = DATE_TIME_ROLE('classification_date');
#49 = CC_DESIGN_APPROVAL(#50,(#6,#5,#38));
#50 = APPROVAL(#51,'');
#51 = APPROVAL_STATUS('not_yet_approved');
#52 = APPROVAL_PERSON_ORGANIZATION(#28,#50,#53);
#53 = APPROVAL_ROLE('approver');
#54 = APPROVAL_DATE_TIME(#42,#50);
#55 = SHAPE_DEFINITION_REPRESENTATION(#56,#62);
#56 = PRODUCT_DEFINITION_SHAPE('','',#57);
#57 = PRODUCT_DEFINITION('design','',#58,#61);
#58 = PRODUCT_DEFINITION_FORMATION_WITH_SPECIFIED_SOURCE('','',#59,
  .NOT_KNOWN.);
#59 = PRODUCT('Zawartość','Zawartość','',(#60));
#60 = MECHANICAL_CONTEXT('',#2,'mechanical');
#61 = DESIGN_CONTEXT('',#2,'design');
#62 = ADVANCED_BREP_SHAPE_REPRESENTATION('',(#11,#63),#497);
#63 = MANIFOLD_SOLID_BREP('',#64);
#64 = CLOSED_SHELL('',(#65,#105,#136,#167,#198,#231,#262,#284,#326,#359,
    #392,#416,#449,#473));
#65 = ADVANCED_FACE('',(#66),#100,.F.);
#66 = FACE_BOUND('',#67,.F.);
#67 = EDGE_LOOP('',(#68,#78,#86,#94));
#68 = ORIENTED_EDGE('',*,*,#69,.T.);
#69 = EDGE_CURVE('',#70,#72,#74,.T.);
#70 = VERTEX_POINT('',#71);
#71 = CARTESIAN_POINT('',(0.,-50.,0.));
#72 = VERTEX_POINT('',#73);
#73 = CARTESIAN_POINT('',(0.,-50.,3.));
#74 = LINE('',#75,#76);
#75 = CARTESIAN_POINT('',(0.,-50.,0.));
#76 = VECTOR('',#77,1.);
#77 = DIRECTION('',(0.,0.,1.));
#78 = ORIENTED_EDGE('',*,*,#79,.T.);
#79 = EDGE_CURVE('',#72,#80,#82,.T.);
#80 = VERTEX_POINT('',#81);
#81 = CARTESIAN_POINT('',(0.,0.,3.));
#82 = LINE('',#83,#84);
#83 = CARTESIAN_POINT('',(0.,-50.,3.));
#84 = VECTOR('',#85,1.);
#85 = DIRECTION('',(0.,1.,0.));
#86 = ORIENTED_EDGE('',*,*,#87,.F.);
#87 = EDGE_CURVE('',#88,#80,#90,.T.);
#88 = VERTEX_POINT('',#89);
#89 = CARTESIAN_POINT('',(0.,0.,0.));
#90 = LINE('',#91,#92);
#91 = CARTESIAN_POINT('',(0.,0.,0.));
#92 = VECTOR('',#93,1.);
#93 = DIRECTION('',(0.,0.,1.));
#94 = ORIENTED_EDGE('',*,*,#95,.F.);
#95 = EDGE_CURVE('',#70,#88,#96,.T.);
#96 = LINE('',#97,#98);
#97 = CARTESIAN_POINT('',(0.,-50.,0.));
#98 = VECTOR('',#99,1.);
#99 = DIRECTION('',(0.,1.,0.));
#100 = PLANE('',#101);
#101 = AXIS2_PLACEMENT_3D('',#102,#103,#104);
#102 = CARTESIAN_POINT('',(0.,-50.,0.));
#103 = DIRECTION('',(-1.,0.,0.));
#104 = DIRECTION('',(0.,1.,0.));
#105 = ADVANCED_FACE('',(#106),#131,.F.);
#106 = FACE_BOUND('',#107,.F.);
#107 = EDGE_LOOP('',(#108,#109,#117,#125));
#108 = ORIENTED_EDGE('',*,*,#87,.T.);
#109 = ORIENTED_EDGE('',*,*,#110,.T.);
#110 = EDGE_CURVE('',#80,#111,#113,.T.);
#111 = VERTEX_POINT('',#112);
#112 = CARTESIAN_POINT('',(-50.,0.,3.));
#113 = LINE('',#114,#115);
#114 = CARTESIAN_POINT('',(0.,0.,3.));
#115 = VECTOR('',#116,1.);
#116 = DIRECTION('',(-1.,0.,0.));
#117 = ORIENTED_EDGE('',*,*,#118,.F.);
#118 = EDGE_CURVE('',#119,#111,#121,.T.);
#119 = VERTEX_POINT('',#120);
#120 = CARTESIAN_POINT('',(-50.,0.,0.));
#121 = LINE('',#122,#123);
#122 = CARTESIAN_POINT('',(-50.,0.,0.));
#123 = VECTOR('',#124,1.);
#124 = DIRECTION('',(0.,0.,1.));
#125 = ORIENTED_EDGE('',*,*,#126,.F.);
#126 = EDGE_CURVE('',#88,#119,#127,.T.);
#127 = LINE('',#128,#129);
#128 = CARTESIAN_POINT('',(0.,0.,0.));
#129 = VECTOR('',#130,1.);
#130 = DIRECTION('',(-1.,0.,0.));
#131 = PLANE('',#132);
#132 = AXIS2_PLACEMENT_3D('',#133,#134,#135);
#133 = CARTESIAN_POINT('',(0.,0.,0.));
#134 = DIRECTION('',(0.,-1.,0.));
#135 = DIRECTION('',(-1.,0.,0.));
#136 = ADVANCED_FACE('',(#137),#162,.F.);
#137 = FACE_BOUND('',#138,.F.);
#138 = EDGE_LOOP('',(#139,#140,#148,#156));
#139 = ORIENTED_EDGE('',*,*,#118,.T.);
#140 = ORIENTED_EDGE('',*,*,#141,.T.);
#141 = EDGE_CURVE('',#111,#142,#144,.T.);
#142 = VERTEX_POINT('',#143);
#143 = CARTESIAN_POINT('',(-50.,-22.67037171458,3.));
#144 = LINE('',#145,#146);
#145 = CARTESIAN_POINT('',(-50.,0.,3.));
#146 = VECTOR('',#147,1.);
#147 = DIRECTION('',(0.,-1.,0.));
#148 = ORIENTED_EDGE('',*,*,#149,.F.);
#149 = EDGE_CURVE('',#150,#142,#152,.T.);
#150 = VERTEX_POINT('',#151);
#151 = CARTESIAN_POINT('',(-50.,-22.67037171458,0.));
#152 = LINE('',#153,#154);
#153 = CARTESIAN_POINT('',(-50.,-22.67037171458,0.));
#154 = VECTOR('',#155,1.);
#155 = DIRECTION('',(0.,0.,1.));
#156 = ORIENTED_EDGE('',*,*,#157,.F.);
#157 = EDGE_CURVE('',#119,#150,#158,.T.);
#158 = LINE('',#159,#160);
#159 = CARTESIAN_POINT('',(-50.,0.,0.));
#160 = VECTOR('',#161,1.);
#161 = DIRECTION('',(0.,-1.,0.));
#162 = PLANE('',#163);
#163 = AXIS2_PLACEMENT_3D('',#164,#165,#166);
#164 = CARTESIAN_POINT('',(-50.,0.,0.));
#165 = DIRECTION('',(1.,0.,0.));
#166 = DIRECTION('',(0.,-1.,0.));
#167 = ADVANCED_FACE('',(#168),#193,.T.);
#168 = FACE_BOUND('',#169,.T.);
#169 = EDGE_LOOP('',(#170,#180,#186,#187));
#170 = ORIENTED_EDGE('',*,*,#171,.T.);
#171 = EDGE_CURVE('',#172,#174,#176,.T.);
#172 = VERTEX_POINT('',#173);
#173 = CARTESIAN_POINT('',(-60.46785494027,-45.11875907689,0.));
#174 = VERTEX_POINT('',#175);
#175 = CARTESIAN_POINT('',(-60.46785494027,-45.11875907689,3.));
#176 = LINE('',#177,#178);
#177 = CARTESIAN_POINT('',(-60.46785494027,-45.11875907689,0.));
#178 = VECTOR('',#179,1.);
#179 = DIRECTION('',(0.,0.,1.));
#180 = ORIENTED_EDGE('',*,*,#181,.T.);
#181 = EDGE_CURVE('',#174,#142,#182,.T.);
#182 = LINE('',#183,#184);
#183 = CARTESIAN_POINT('',(-60.46785494027,-45.11875907689,3.));
#184 = VECTOR('',#185,1.);
#185 = DIRECTION('',(0.422618261741,0.906307787037,0.));
#186 = ORIENTED_EDGE('',*,*,#149,.F.);
#187 = ORIENTED_EDGE('',*,*,#188,.F.);
#188 = EDGE_CURVE('',#172,#150,#189,.T.);
#189 = LINE('',#190,#191);
#190 = CARTESIAN_POINT('',(-60.46785494027,-45.11875907689,0.));
#191 = VECTOR('',#192,1.);
#192 = DIRECTION('',(0.422618261741,0.906307787037,0.));
#193 = PLANE('',#194);
#194 = AXIS2_PLACEMENT_3D('',#195,#196,#197);
#195 = CARTESIAN_POINT('',(-60.46785494027,-45.11875907689,0.));
#196 = DIRECTION('',(-0.906307787037,0.422618261741,0.));
#197 = DIRECTION('',(0.422618261741,0.906307787037,0.));
#198 = ADVANCED_FACE('',(#199),#226,.T.);
#199 = FACE_BOUND('',#200,.F.);
#200 = EDGE_LOOP('',(#201,#202,#211,#219));
#201 = ORIENTED_EDGE('',*,*,#171,.T.);
#202 = ORIENTED_EDGE('',*,*,#203,.T.);
#203 = EDGE_CURVE('',#174,#204,#206,.T.);
#204 = VERTEX_POINT('',#205);
#205 = CARTESIAN_POINT('',(-45.11875912345,-60.46785496198,3.));
#206 = CIRCLE('',#207,11.55);
#207 = AXIS2_PLACEMENT_3D('',#208,#209,#210);
#208 = CARTESIAN_POINT('',(-50.,-50.,3.));
#209 = DIRECTION('',(0.,0.,1.));
#210 = DIRECTION('',(1.,0.,0.));
#211 = ORIENTED_EDGE('',*,*,#212,.F.);
#212 = EDGE_CURVE('',#213,#204,#215,.T.);
#213 = VERTEX_POINT('',#214);
#214 = CARTESIAN_POINT('',(-45.11875912345,-60.46785496198,0.));
#215 = LINE('',#216,#217);
#216 = CARTESIAN_POINT('',(-45.11875912345,-60.46785496198,0.));
#217 = VECTOR('',#218,1.);
#218 = DIRECTION('',(0.,0.,1.));
#219 = ORIENTED_EDGE('',*,*,#220,.F.);
#220 = EDGE_CURVE('',#172,#213,#221,.T.);
#221 = CIRCLE('',#222,11.55);
#222 = AXIS2_PLACEMENT_3D('',#223,#224,#225);
#223 = CARTESIAN_POINT('',(-50.,-50.,0.));
#224 = DIRECTION('',(0.,0.,1.));
#225 = DIRECTION('',(1.,0.,0.));
#226 = CYLINDRICAL_SURFACE('',#227,11.55);
#227 = AXIS2_PLACEMENT_3D('',#228,#229,#230);
#228 = CARTESIAN_POINT('',(-50.,-50.,0.));
#229 = DIRECTION('',(-0.,-0.,-1.));
#230 = DIRECTION('',(1.,0.,0.));
#231 = ADVANCED_FACE('',(#232),#257,.F.);
#232 = FACE_BOUND('',#233,.F.);
#233 = EDGE_LOOP('',(#234,#235,#243,#251));
#234 = ORIENTED_EDGE('',*,*,#212,.T.);
#235 = ORIENTED_EDGE('',*,*,#236,.T.);
#236 = EDGE_CURVE('',#204,#237,#239,.T.);
#237 = VERTEX_POINT('',#238);
#238 = CARTESIAN_POINT('',(-22.67037171458,-50.,3.));
#239 = LINE('',#240,#241);
#240 = CARTESIAN_POINT('',(-45.11875912345,-60.46785496198,3.));
#241 = VECTOR('',#242,1.);
#242 = DIRECTION('',(0.906307787037,0.422618261741,0.));
#243 = ORIENTED_EDGE('',*,*,#244,.F.);
#244 = EDGE_CURVE('',#245,#237,#247,.T.);
#245 = VERTEX_POINT('',#246);
#246 = CARTESIAN_POINT('',(-22.67037171458,-50.,0.));
#247 = LINE('',#248,#249);
#248 = CARTESIAN_POINT('',(-22.67037171458,-50.,0.));
#249 = VECTOR('',#250,1.);
#250 = DIRECTION('',(0.,0.,1.));
#251 = ORIENTED_EDGE('',*,*,#252,.F.);
#252 = EDGE_CURVE('',#213,#245,#253,.T.);
#253 = LINE('',#254,#255);
#254 = CARTESIAN_POINT('',(-45.11875912345,-60.46785496198,0.));
#255 = VECTOR('',#256,1.);
#256 = DIRECTION('',(0.906307787037,0.422618261741,0.));
#257 = PLANE('',#258);
#258 = AXIS2_PLACEMENT_3D('',#259,#260,#261);
#259 = CARTESIAN_POINT('',(-45.11875912345,-60.46785496198,0.));
#260 = DIRECTION('',(-0.422618261741,0.906307787037,0.));
#261 = DIRECTION('',(0.906307787037,0.422618261741,0.));
#262 = ADVANCED_FACE('',(#263),#279,.T.);
#263 = FACE_BOUND('',#264,.T.);
#264 = EDGE_LOOP('',(#265,#266,#272,#273));
#265 = ORIENTED_EDGE('',*,*,#69,.T.);
#266 = ORIENTED_EDGE('',*,*,#267,.T.);
#267 = EDGE_CURVE('',#72,#237,#268,.T.);
#268 = LINE('',#269,#270);
#269 = CARTESIAN_POINT('',(0.,-50.,3.));
#270 = VECTOR('',#271,1.);
#271 = DIRECTION('',(-1.,0.,0.));
#272 = ORIENTED_EDGE('',*,*,#244,.F.);
#273 = ORIENTED_EDGE('',*,*,#274,.F.);
#274 = EDGE_CURVE('',#70,#245,#275,.T.);
#275 = LINE('',#276,#277);
#276 = CARTESIAN_POINT('',(0.,-50.,0.));
#277 = VECTOR('',#278,1.);
#278 = DIRECTION('',(-1.,0.,0.));
#279 = PLANE('',#280);
#280 = AXIS2_PLACEMENT_3D('',#281,#282,#283);
#281 = CARTESIAN_POINT('',(0.,-50.,0.));
#282 = DIRECTION('',(0.,-1.,0.));
#283 = DIRECTION('',(-1.,0.,0.));
#284 = ADVANCED_FACE('',(#285),#321,.F.);
#285 = FACE_BOUND('',#286,.T.);
#286 = EDGE_LOOP('',(#287,#297,#306,#314));
#287 = ORIENTED_EDGE('',*,*,#288,.T.);
#288 = EDGE_CURVE('',#289,#291,#293,.T.);
#289 = VERTEX_POINT('',#290);
#290 = CARTESIAN_POINT('',(-40.89256789815,-30.46907118159,0.));
#291 = VERTEX_POINT('',#292);
#292 = CARTESIAN_POINT('',(-40.89256789815,-30.46907118159,3.));
#293 = LINE('',#294,#295);
#294 = CARTESIAN_POINT('',(-40.89256789815,-30.46907118159,0.));
#295 = VECTOR('',#296,1.);
#296 = DIRECTION('',(0.,0.,1.));
#297 = ORIENTED_EDGE('',*,*,#298,.T.);
#298 = EDGE_CURVE('',#291,#299,#301,.T.);
#299 = VERTEX_POINT('',#300);
#300 = CARTESIAN_POINT('',(-42.20269307088,-33.27862132917,3.));
#301 = CIRCLE('',#302,1.55);
#302 = AXIS2_PLACEMENT_3D('',#303,#304,#305);
#303 = CARTESIAN_POINT('',(-41.54763476518,-31.87384425926,3.));
#304 = DIRECTION('',(0.,0.,1.));
#305 = DIRECTION('',(1.,0.,0.));
#306 = ORIENTED_EDGE('',*,*,#307,.F.);
#307 = EDGE_CURVE('',#308,#299,#310,.T.);
#308 = VERTEX_POINT('',#309);
#309 = CARTESIAN_POINT('',(-42.20269307088,-33.27862132917,0.));
#310 = LINE('',#311,#312);
#311 = CARTESIAN_POINT('',(-42.20269307088,-33.27862132917,0.));
#312 = VECTOR('',#313,1.);
#313 = DIRECTION('',(0.,0.,1.));
#314 = ORIENTED_EDGE('',*,*,#315,.F.);
#315 = EDGE_CURVE('',#289,#308,#316,.T.);
#316 = CIRCLE('',#317,1.55);
#317 = AXIS2_PLACEMENT_3D('',#318,#319,#320);
#318 = CARTESIAN_POINT('',(-41.54763476518,-31.87384425926,0.));
#319 = DIRECTION('',(0.,0.,1.));
#320 = DIRECTION('',(1.,0.,0.));
#321 = CYLINDRICAL_SURFACE('',#322,1.55);
#322 = AXIS2_PLACEMENT_3D('',#323,#324,#325);
#323 = CARTESIAN_POINT('',(-41.54763476518,-31.87384425926,0.));
#324 = DIRECTION('',(-0.,-0.,-1.));
#325 = DIRECTION('',(1.,0.,0.));
#326 = ADVANCED_FACE('',(#327),#354,.T.);
#327 = FACE_BOUND('',#328,.F.);
#328 = EDGE_LOOP('',(#329,#339,#346,#347));
#329 = ORIENTED_EDGE('',*,*,#330,.T.);
#330 = EDGE_CURVE('',#331,#333,#335,.T.);
#331 = VERTEX_POINT('',#332);
#332 = CARTESIAN_POINT('',(-33.27862502905,-42.20268513643,0.));
#333 = VERTEX_POINT('',#334);
#334 = CARTESIAN_POINT('',(-33.27862502905,-42.20268513643,3.));
#335 = LINE('',#336,#337);
#336 = CARTESIAN_POINT('',(-33.27862502905,-42.20268513643,0.));
#337 = VECTOR('',#338,1.);
#338 = DIRECTION('',(0.,0.,1.));
#339 = ORIENTED_EDGE('',*,*,#340,.T.);
#340 = EDGE_CURVE('',#333,#299,#341,.T.);
#341 = CIRCLE('',#342,18.45);
#342 = AXIS2_PLACEMENT_3D('',#343,#344,#345);
#343 = CARTESIAN_POINT('',(-50.,-50.,3.));
#344 = DIRECTION('',(0.,0.,1.));
#345 = DIRECTION('',(1.,0.,0.));
#346 = ORIENTED_EDGE('',*,*,#307,.F.);
#347 = ORIENTED_EDGE('',*,*,#348,.F.);
#348 = EDGE_CURVE('',#331,#308,#349,.T.);
#349 = CIRCLE('',#350,18.45);
#350 = AXIS2_PLACEMENT_3D('',#351,#352,#353);
#351 = CARTESIAN_POINT('',(-50.,-50.,0.));
#352 = DIRECTION('',(0.,0.,1.));
#353 = DIRECTION('',(1.,0.,0.));
#354 = CYLINDRICAL_SURFACE('',#355,18.45);
#355 = AXIS2_PLACEMENT_3D('',#356,#357,#358);
#356 = CARTESIAN_POINT('',(-50.,-50.,0.));
#357 = DIRECTION('',(-0.,-0.,-1.));
#358 = DIRECTION('',(1.,0.,0.));
#359 = ADVANCED_FACE('',(#360),#387,.F.);
#360 = FACE_BOUND('',#361,.T.);
#361 = EDGE_LOOP('',(#362,#363,#372,#380));
#362 = ORIENTED_EDGE('',*,*,#330,.T.);
#363 = ORIENTED_EDGE('',*,*,#364,.T.);
#364 = EDGE_CURVE('',#333,#365,#367,.T.);
#365 = VERTEX_POINT('',#366);
#366 = CARTESIAN_POINT('',(-30.46906718936,-40.89257645948,3.));
#367 = CIRCLE('',#368,1.55);
#368 = AXIS2_PLACEMENT_3D('',#369,#370,#371);
#369 = CARTESIAN_POINT('',(-31.87384425926,-41.54763476518,3.));
#370 = DIRECTION('',(0.,0.,1.));
#371 = DIRECTION('',(1.,0.,0.));
#372 = ORIENTED_EDGE('',*,*,#373,.F.);
#373 = EDGE_CURVE('',#374,#365,#376,.T.);
#374 = VERTEX_POINT('',#375);
#375 = CARTESIAN_POINT('',(-30.46906718936,-40.89257645948,0.));
#376 = LINE('',#377,#378);
#377 = CARTESIAN_POINT('',(-30.46906718936,-40.89257645948,0.));
#378 = VECTOR('',#379,1.);
#379 = DIRECTION('',(0.,0.,1.));
#380 = ORIENTED_EDGE('',*,*,#381,.F.);
#381 = EDGE_CURVE('',#331,#374,#382,.T.);
#382 = CIRCLE('',#383,1.55);
#383 = AXIS2_PLACEMENT_3D('',#384,#385,#386);
#384 = CARTESIAN_POINT('',(-31.87384425926,-41.54763476518,0.));
#385 = DIRECTION('',(0.,0.,1.));
#386 = DIRECTION('',(1.,0.,0.));
#387 = CYLINDRICAL_SURFACE('',#388,1.55);
#388 = AXIS2_PLACEMENT_3D('',#389,#390,#391);
#389 = CARTESIAN_POINT('',(-31.87384425926,-41.54763476518,0.));
#390 = DIRECTION('',(-0.,-0.,-1.));
#391 = DIRECTION('',(1.,0.,0.));
#392 = ADVANCED_FACE('',(#393),#411,.F.);
#393 = FACE_BOUND('',#394,.T.);
#394 = EDGE_LOOP('',(#395,#396,#403,#404));
#395 = ORIENTED_EDGE('',*,*,#373,.T.);
#396 = ORIENTED_EDGE('',*,*,#397,.T.);
#397 = EDGE_CURVE('',#365,#291,#398,.T.);
#398 = CIRCLE('',#399,21.55);
#399 = AXIS2_PLACEMENT_3D('',#400,#401,#402);
#400 = CARTESIAN_POINT('',(-50.,-50.,3.));
#401 = DIRECTION('',(0.,0.,1.));
#402 = DIRECTION('',(1.,0.,0.));
#403 = ORIENTED_EDGE('',*,*,#288,.F.);
#404 = ORIENTED_EDGE('',*,*,#405,.F.);
#405 = EDGE_CURVE('',#374,#289,#406,.T.);
#406 = CIRCLE('',#407,21.55);
#407 = AXIS2_PLACEMENT_3D('',#408,#409,#410);
#408 = CARTESIAN_POINT('',(-50.,-50.,0.));
#409 = DIRECTION('',(0.,0.,1.));
#410 = DIRECTION('',(1.,0.,0.));
#411 = CYLINDRICAL_SURFACE('',#412,21.55);
#412 = AXIS2_PLACEMENT_3D('',#413,#414,#415);
#413 = CARTESIAN_POINT('',(-50.,-50.,0.));
#414 = DIRECTION('',(-0.,-0.,-1.));
#415 = DIRECTION('',(1.,0.,0.));
#416 = ADVANCED_FACE('',(#417),#444,.F.);
#417 = FACE_BOUND('',#418,.T.);
#418 = EDGE_LOOP('',(#419,#429,#436,#437));
#419 = ORIENTED_EDGE('',*,*,#420,.T.);
#420 = EDGE_CURVE('',#421,#423,#425,.T.);
#421 = VERTEX_POINT('',#422);
#422 = CARTESIAN_POINT('',(-48.45,-50.,0.));
#423 = VERTEX_POINT('',#424);
#424 = CARTESIAN_POINT('',(-48.45,-50.,3.));
#425 = LINE('',#426,#427);
#426 = CARTESIAN_POINT('',(-48.45,-50.,0.));
#427 = VECTOR('',#428,1.);
#428 = DIRECTION('',(0.,0.,1.));
#429 = ORIENTED_EDGE('',*,*,#430,.T.);
#430 = EDGE_CURVE('',#423,#423,#431,.T.);
#431 = CIRCLE('',#432,1.55);
#432 = AXIS2_PLACEMENT_3D('',#433,#434,#435);
#433 = CARTESIAN_POINT('',(-50.,-50.,3.));
#434 = DIRECTION('',(0.,0.,1.));
#435 = DIRECTION('',(1.,0.,0.));
#436 = ORIENTED_EDGE('',*,*,#420,.F.);
#437 = ORIENTED_EDGE('',*,*,#438,.F.);
#438 = EDGE_CURVE('',#421,#421,#439,.T.);
#439 = CIRCLE('',#440,1.55);
#440 = AXIS2_PLACEMENT_3D('',#441,#442,#443);
#441 = CARTESIAN_POINT('',(-50.,-50.,0.));
#442 = DIRECTION('',(0.,0.,1.));
#443 = DIRECTION('',(1.,0.,0.));
#444 = CYLINDRICAL_SURFACE('',#445,1.55);
#445 = AXIS2_PLACEMENT_3D('',#446,#447,#448);
#446 = CARTESIAN_POINT('',(-50.,-50.,0.));
#447 = DIRECTION('',(-0.,-0.,-1.));
#448 = DIRECTION('',(1.,0.,0.));
#449 = ADVANCED_FACE('',(#450,#459,#465),#468,.F.);
#450 = FACE_BOUND('',#451,.F.);
#451 = EDGE_LOOP('',(#452,#453,#454,#455,#456,#457,#458));
#452 = ORIENTED_EDGE('',*,*,#95,.T.);
#453 = ORIENTED_EDGE('',*,*,#126,.T.);
#454 = ORIENTED_EDGE('',*,*,#157,.T.);
#455 = ORIENTED_EDGE('',*,*,#188,.F.);
#456 = ORIENTED_EDGE('',*,*,#220,.T.);
#457 = ORIENTED_EDGE('',*,*,#252,.T.);
#458 = ORIENTED_EDGE('',*,*,#274,.F.);
#459 = FACE_BOUND('',#460,.T.);
#460 = EDGE_LOOP('',(#461,#462,#463,#464));
#461 = ORIENTED_EDGE('',*,*,#315,.T.);
#462 = ORIENTED_EDGE('',*,*,#348,.F.);
#463 = ORIENTED_EDGE('',*,*,#381,.T.);
#464 = ORIENTED_EDGE('',*,*,#405,.T.);
#465 = FACE_BOUND('',#466,.T.);
#466 = EDGE_LOOP('',(#467));
#467 = ORIENTED_EDGE('',*,*,#438,.T.);
#468 = PLANE('',#469);
#469 = AXIS2_PLACEMENT_3D('',#470,#471,#472);
#470 = CARTESIAN_POINT('',(-30.40969004236,-30.40969005316,0.));
#471 = DIRECTION('',(0.,0.,1.));
#472 = DIRECTION('',(1.,0.,0.));
#473 = ADVANCED_FACE('',(#474,#483,#489),#492,.T.);
#474 = FACE_BOUND('',#475,.T.);
#475 = EDGE_LOOP('',(#476,#477,#478,#479,#480,#481,#482));
#476 = ORIENTED_EDGE('',*,*,#79,.T.);
#477 = ORIENTED_EDGE('',*,*,#110,.T.);
#478 = ORIENTED_EDGE('',*,*,#141,.T.);
#479 = ORIENTED_EDGE('',*,*,#181,.F.);
#480 = ORIENTED_EDGE('',*,*,#203,.T.);
#481 = ORIENTED_EDGE('',*,*,#236,.T.);
#482 = ORIENTED_EDGE('',*,*,#267,.F.);
#483 = FACE_BOUND('',#484,.F.);
#484 = EDGE_LOOP('',(#485,#486,#487,#488));
#485 = ORIENTED_EDGE('',*,*,#298,.T.);
#486 = ORIENTED_EDGE('',*,*,#340,.F.);
#487 = ORIENTED_EDGE('',*,*,#364,.T.);
#488 = ORIENTED_EDGE('',*,*,#397,.T.);
#489 = FACE_BOUND('',#490,.F.);
#490 = EDGE_LOOP('',(#491));
#491 = ORIENTED_EDGE('',*,*,#430,.T.);
#492 = PLANE('',#493);
#493 = AXIS2_PLACEMENT_3D('',#494,#495,#496);
#494 = CARTESIAN_POINT('',(-30.40969004236,-30.40969005316,3.));
#495 = DIRECTION('',(0.,0.,1.));
#496 = DIRECTION('',(1.,0.,0.));
#497 = ( GEOMETRIC_REPRESENTATION_CONTEXT(3) 
GLOBAL_UNCERTAINTY_ASSIGNED_CONTEXT((#501)) GLOBAL_UNIT_ASSIGNED_CONTEXT
((#498,#499,#500)) REPRESENTATION_CONTEXT('Context #1',
  '3D Context with UNIT and UNCERTAINTY') );
#498 = ( LENGTH_UNIT() NAMED_UNIT(*) SI_UNIT(.MILLI.,.METRE.) );
#499 = ( NAMED_UNIT(*) PLANE_ANGLE_UNIT() SI_UNIT($,.RADIAN.) );
#500 = ( NAMED_UNIT(*) SI_UNIT($,.STERADIAN.) SOLID_ANGLE_UNIT() );
#501 = UNCERTAINTY_MEASURE_WITH_UNIT(LENGTH_MEASURE(1.E-07),#498,
  'distance_accuracy_value','confusion accuracy');
#502 = CONTEXT_DEPENDENT_SHAPE_REPRESENTATION(#503,#505);
#503 = ( REPRESENTATION_RELATIONSHIP('','',#62,#10) 
REPRESENTATION_RELATIONSHIP_WITH_TRANSFORMATION(#504) 
SHAPE_REPRESENTATION_RELATIONSHIP() );
#504 = ITEM_DEFINED_TRANSFORMATION('','',#11,#15);
#505 = PRODUCT_DEFINITION_SHAPE('Placement','Placement of an item',#506
  );
#506 = NEXT_ASSEMBLY_USAGE_OCCURRENCE('1','Zawartość','',#5,#57,$);
#507 = CC_DESIGN_SECURITY_CLASSIFICATION(#508,(#506));
#508 = SECURITY_CLASSIFICATION('','',#39);
#509 = CC_DESIGN_PERSON_AND_ORGANIZATION_ASSIGNMENT(#28,#37,(#508));
#510 = CC_DESIGN_DATE_AND_TIME_ASSIGNMENT(#42,#48,(#508));
#511 = CC_DESIGN_APPROVAL(#50,(#508));
#512 = PRODUCT_RELATED_PRODUCT_CATEGORY('detail',$,(#59));
#513 = PRODUCT_CATEGORY_RELATIONSHIP('','',#514,#512);
#514 = PRODUCT_CATEGORY('part',$);
#515 = CC_DESIGN_PERSON_AND_ORGANIZATION_ASSIGNMENT(#28,#31,(#58,#57));
#516 = CC_DESIGN_PERSON_AND_ORGANIZATION_ASSIGNMENT(#28,#33,(#59));
#517 = CC_DESIGN_PERSON_AND_ORGANIZATION_ASSIGNMENT(#28,#35,(#58));
#518 = CC_DESIGN_PERSON_AND_ORGANIZATION_ASSIGNMENT(#28,#37,(#519));
#519 = SECURITY_CLASSIFICATION('','',#39);
#520 = CC_DESIGN_SECURITY_CLASSIFICATION(#519,(#58));
#521 = CC_DESIGN_DATE_AND_TIME_ASSIGNMENT(#42,#46,(#57));
#522 = CC_DESIGN_DATE_AND_TIME_ASSIGNMENT(#42,#48,(#519));
#523 = CC_DESIGN_APPROVAL(#50,(#58,#57,#519));
#524 = MECHANICAL_DESIGN_GEOMETRIC_PRESENTATION_REPRESENTATION('',(#525)
  ,#497);
#525 = STYLED_ITEM('color',(#526),#63);
#526 = PRESENTATION_STYLE_ASSIGNMENT((#527,#533));
#527 = SURFACE_STYLE_USAGE(.BOTH.,#528);
#528 = SURFACE_SIDE_STYLE('',(#529));
#529 = SURFACE_STYLE_FILL_AREA(#530);
#530 = FILL_AREA_STYLE('',(#531));
#531 = FILL_AREA_STYLE_COLOUR('',#532);
#532 = COLOUR_RGB('',0.447058818107,0.474509808674,0.501960817233);
#533 = CURVE_STYLE('',#534,POSITIVE_LENGTH_MEASURE(0.1),#535);
#534 = DRAUGHTING_PRE_DEFINED_CURVE_FONT('continuous');
#535 = COLOUR_RGB('',9.803921802644E-02,9.803921802644E-02,
  9.803921802644E-02);
ENDSEC;
END-ISO-10303-21;
