ISO-10303-21;
HEADER;
FILE_DESCRIPTION(('FreeCAD Model'),'2;1');
FILE_NAME('Open CASCADE Shape Model','2026-04-25T16:22:33',(''),(''),
  'Open CASCADE STEP processor 7.8','FreeCAD','Unknown');
FILE_SCHEMA(('CONFIG_CONTROL_DESIGN','SHAPE_APPEARANCE_LAYER_MIM'));
ENDSEC;
DATA;
#1 = APPLICATION_PROTOCOL_DEFINITION('international standard',
  'config_control_design',1994,#2);
#2 = APPLICATION_CONTEXT(
'configuration controlled 3D designs of mechanical parts and assemblies'
  );
#3 = SHAPE_DEFINITION_REPRESENTATION(#4,#10);
#4 = PRODUCT_DEFINITION_SHAPE('','',#5);
#5 = PRODUCT_DEFINITION('design','',#6,#9);
#6 = PRODUCT_DEFINITION_FORMATION_WITH_SPECIFIED_SOURCE('','',#7,
  .NOT_KNOWN.);
#7 = PRODUCT('Zawartość','Zawartość','',(#8));
#8 = MECHANICAL_CONTEXT('',#2,'mechanical');
#9 = DESIGN_CONTEXT('',#2,'design');
#10 = ADVANCED_BREP_SHAPE_REPRESENTATION('',(#11,#15),#375);
#11 = AXIS2_PLACEMENT_3D('',#12,#13,#14);
#12 = CARTESIAN_POINT('',(0.,0.,0.));
#13 = DIRECTION('',(0.,0.,1.));
#14 = DIRECTION('',(1.,0.,-0.));
#15 = MANIFOLD_SOLID_BREP('',#16);
#16 = CLOSED_SHELL('',(#17,#79,#110,#166,#190,#207,#232,#257,#292,#316,
    #346,#363));
#17 = ADVANCED_FACE('',(#18,#52,#63),#74,.F.);
#18 = FACE_BOUND('',#19,.F.);
#19 = EDGE_LOOP('',(#20,#30,#38,#46));
#20 = ORIENTED_EDGE('',*,*,#21,.T.);
#21 = EDGE_CURVE('',#22,#24,#26,.T.);
#22 = VERTEX_POINT('',#23);
#23 = CARTESIAN_POINT('',(-7.5,13.,0.));
#24 = VERTEX_POINT('',#25);
#25 = CARTESIAN_POINT('',(-7.5,-13.,0.));
#26 = LINE('',#27,#28);
#27 = CARTESIAN_POINT('',(-7.5,13.,0.));
#28 = VECTOR('',#29,1.);
#29 = DIRECTION('',(0.,-1.,0.));
#30 = ORIENTED_EDGE('',*,*,#31,.T.);
#31 = EDGE_CURVE('',#24,#32,#34,.T.);
#32 = VERTEX_POINT('',#33);
#33 = CARTESIAN_POINT('',(7.5,-13.,0.));
#34 = LINE('',#35,#36);
#35 = CARTESIAN_POINT('',(-7.5,-13.,0.));
#36 = VECTOR('',#37,1.);
#37 = DIRECTION('',(1.,0.,0.));
#38 = ORIENTED_EDGE('',*,*,#39,.T.);
#39 = EDGE_CURVE('',#32,#40,#42,.T.);
#40 = VERTEX_POINT('',#41);
#41 = CARTESIAN_POINT('',(7.5,13.,0.));
#42 = LINE('',#43,#44);
#43 = CARTESIAN_POINT('',(7.5,-13.,0.));
#44 = VECTOR('',#45,1.);
#45 = DIRECTION('',(0.,1.,0.));
#46 = ORIENTED_EDGE('',*,*,#47,.T.);
#47 = EDGE_CURVE('',#40,#22,#48,.T.);
#48 = LINE('',#49,#50);
#49 = CARTESIAN_POINT('',(7.5,13.,0.));
#50 = VECTOR('',#51,1.);
#51 = DIRECTION('',(-1.,-1.184237892934E-16,0.));
#52 = FACE_BOUND('',#53,.F.);
#53 = EDGE_LOOP('',(#54));
#54 = ORIENTED_EDGE('',*,*,#55,.F.);
#55 = EDGE_CURVE('',#56,#56,#58,.T.);
#56 = VERTEX_POINT('',#57);
#57 = CARTESIAN_POINT('',(2.05,-7.,0.));
#58 = CIRCLE('',#59,2.05);
#59 = AXIS2_PLACEMENT_3D('',#60,#61,#62);
#60 = CARTESIAN_POINT('',(0.,-7.,0.));
#61 = DIRECTION('',(0.,0.,1.));
#62 = DIRECTION('',(1.,0.,0.));
#63 = FACE_BOUND('',#64,.F.);
#64 = EDGE_LOOP('',(#65));
#65 = ORIENTED_EDGE('',*,*,#66,.F.);
#66 = EDGE_CURVE('',#67,#67,#69,.T.);
#67 = VERTEX_POINT('',#68);
#68 = CARTESIAN_POINT('',(2.05,8.,0.));
#69 = CIRCLE('',#70,2.05);
#70 = AXIS2_PLACEMENT_3D('',#71,#72,#73);
#71 = CARTESIAN_POINT('',(0.,8.,0.));
#72 = DIRECTION('',(0.,0.,1.));
#73 = DIRECTION('',(1.,0.,0.));
#74 = PLANE('',#75);
#75 = AXIS2_PLACEMENT_3D('',#76,#77,#78);
#76 = CARTESIAN_POINT('',(0.,-8.665155314148E-16,0.));
#77 = DIRECTION('',(0.,0.,1.));
#78 = DIRECTION('',(1.,0.,0.));
#79 = ADVANCED_FACE('',(#80),#105,.T.);
#80 = FACE_BOUND('',#81,.T.);
#81 = EDGE_LOOP('',(#82,#83,#91,#99));
#82 = ORIENTED_EDGE('',*,*,#21,.T.);
#83 = ORIENTED_EDGE('',*,*,#84,.T.);
#84 = EDGE_CURVE('',#24,#85,#87,.T.);
#85 = VERTEX_POINT('',#86);
#86 = CARTESIAN_POINT('',(-7.5,-13.,4.));
#87 = LINE('',#88,#89);
#88 = CARTESIAN_POINT('',(-7.5,-13.,0.));
#89 = VECTOR('',#90,1.);
#90 = DIRECTION('',(0.,0.,1.));
#91 = ORIENTED_EDGE('',*,*,#92,.T.);
#92 = EDGE_CURVE('',#85,#93,#95,.T.);
#93 = VERTEX_POINT('',#94);
#94 = CARTESIAN_POINT('',(-7.5,13.,4.));
#95 = LINE('',#96,#97);
#96 = CARTESIAN_POINT('',(-7.5,-13.,4.));
#97 = VECTOR('',#98,1.);
#98 = DIRECTION('',(0.,1.,0.));
#99 = ORIENTED_EDGE('',*,*,#100,.F.);
#100 = EDGE_CURVE('',#22,#93,#101,.T.);
#101 = LINE('',#102,#103);
#102 = CARTESIAN_POINT('',(-7.5,13.,1.));
#103 = VECTOR('',#104,1.);
#104 = DIRECTION('',(0.,0.,1.));
#105 = PLANE('',#106);
#106 = AXIS2_PLACEMENT_3D('',#107,#108,#109);
#107 = CARTESIAN_POINT('',(-7.5,-2.013204417987E-15,2.));
#108 = DIRECTION('',(-1.,-0.,-0.));
#109 = DIRECTION('',(0.,0.,-1.));
#110 = ADVANCED_FACE('',(#111),#161,.T.);
#111 = FACE_BOUND('',#112,.T.);
#112 = EDGE_LOOP('',(#113,#114,#115,#123,#131,#139,#147,#155));
#113 = ORIENTED_EDGE('',*,*,#47,.T.);
#114 = ORIENTED_EDGE('',*,*,#100,.T.);
#115 = ORIENTED_EDGE('',*,*,#116,.T.);
#116 = EDGE_CURVE('',#93,#117,#119,.T.);
#117 = VERTEX_POINT('',#118);
#118 = CARTESIAN_POINT('',(-6.5,13.,4.));
#119 = LINE('',#120,#121);
#120 = CARTESIAN_POINT('',(-7.5,13.,4.));
#121 = VECTOR('',#122,1.);
#122 = DIRECTION('',(1.,0.,0.));
#123 = ORIENTED_EDGE('',*,*,#124,.F.);
#124 = EDGE_CURVE('',#125,#117,#127,.T.);
#125 = VERTEX_POINT('',#126);
#126 = CARTESIAN_POINT('',(-6.5,13.,1.));
#127 = LINE('',#128,#129);
#128 = CARTESIAN_POINT('',(-6.5,13.,1.));
#129 = VECTOR('',#130,1.);
#130 = DIRECTION('',(0.,0.,1.));
#131 = ORIENTED_EDGE('',*,*,#132,.F.);
#132 = EDGE_CURVE('',#133,#125,#135,.T.);
#133 = VERTEX_POINT('',#134);
#134 = CARTESIAN_POINT('',(6.5,13.,1.));
#135 = LINE('',#136,#137);
#136 = CARTESIAN_POINT('',(7.5,13.,1.));
#137 = VECTOR('',#138,1.);
#138 = DIRECTION('',(-1.,-1.184237892934E-16,0.));
#139 = ORIENTED_EDGE('',*,*,#140,.T.);
#140 = EDGE_CURVE('',#133,#141,#143,.T.);
#141 = VERTEX_POINT('',#142);
#142 = CARTESIAN_POINT('',(6.5,13.,4.));
#143 = LINE('',#144,#145);
#144 = CARTESIAN_POINT('',(6.5,13.,1.));
#145 = VECTOR('',#146,1.);
#146 = DIRECTION('',(0.,0.,1.));
#147 = ORIENTED_EDGE('',*,*,#148,.T.);
#148 = EDGE_CURVE('',#141,#149,#151,.T.);
#149 = VERTEX_POINT('',#150);
#150 = CARTESIAN_POINT('',(7.5,13.,4.));
#151 = LINE('',#152,#153);
#152 = CARTESIAN_POINT('',(6.5,13.,4.));
#153 = VECTOR('',#154,1.);
#154 = DIRECTION('',(1.,0.,0.));
#155 = ORIENTED_EDGE('',*,*,#156,.F.);
#156 = EDGE_CURVE('',#40,#149,#157,.T.);
#157 = LINE('',#158,#159);
#158 = CARTESIAN_POINT('',(7.5,13.,1.));
#159 = VECTOR('',#160,1.);
#160 = DIRECTION('',(0.,0.,1.));
#161 = PLANE('',#162);
#162 = AXIS2_PLACEMENT_3D('',#163,#164,#165);
#163 = CARTESIAN_POINT('',(0.,13.,1.181818181818));
#164 = DIRECTION('',(0.,1.,0.));
#165 = DIRECTION('',(0.,0.,1.));
#166 = ADVANCED_FACE('',(#167),#185,.T.);
#167 = FACE_BOUND('',#168,.T.);
#168 = EDGE_LOOP('',(#169,#170,#171,#179));
#169 = ORIENTED_EDGE('',*,*,#84,.F.);
#170 = ORIENTED_EDGE('',*,*,#31,.T.);
#171 = ORIENTED_EDGE('',*,*,#172,.T.);
#172 = EDGE_CURVE('',#32,#173,#175,.T.);
#173 = VERTEX_POINT('',#174);
#174 = CARTESIAN_POINT('',(7.5,-13.,4.));
#175 = LINE('',#176,#177);
#176 = CARTESIAN_POINT('',(7.5,-13.,0.));
#177 = VECTOR('',#178,1.);
#178 = DIRECTION('',(0.,0.,1.));
#179 = ORIENTED_EDGE('',*,*,#180,.T.);
#180 = EDGE_CURVE('',#173,#85,#181,.T.);
#181 = LINE('',#182,#183);
#182 = CARTESIAN_POINT('',(7.5,-13.,4.));
#183 = VECTOR('',#184,1.);
#184 = DIRECTION('',(-1.,0.,0.));
#185 = PLANE('',#186);
#186 = AXIS2_PLACEMENT_3D('',#187,#188,#189);
#187 = CARTESIAN_POINT('',(0.,-13.,2.));
#188 = DIRECTION('',(-0.,-1.,-4.187126835729E-16));
#189 = DIRECTION('',(0.,4.187126835729E-16,-1.));
#190 = ADVANCED_FACE('',(#191),#202,.T.);
#191 = FACE_BOUND('',#192,.T.);
#192 = EDGE_LOOP('',(#193,#194,#195,#196));
#193 = ORIENTED_EDGE('',*,*,#172,.F.);
#194 = ORIENTED_EDGE('',*,*,#39,.T.);
#195 = ORIENTED_EDGE('',*,*,#156,.T.);
#196 = ORIENTED_EDGE('',*,*,#197,.T.);
#197 = EDGE_CURVE('',#149,#173,#198,.T.);
#198 = LINE('',#199,#200);
#199 = CARTESIAN_POINT('',(7.5,13.,4.));
#200 = VECTOR('',#201,1.);
#201 = DIRECTION('',(0.,-1.,0.));
#202 = PLANE('',#203);
#203 = AXIS2_PLACEMENT_3D('',#204,#205,#206);
#204 = CARTESIAN_POINT('',(7.5,-1.06581410364E-15,2.));
#205 = DIRECTION('',(1.,0.,0.));
#206 = DIRECTION('',(0.,0.,1.));
#207 = ADVANCED_FACE('',(#208),#227,.F.);
#208 = FACE_BOUND('',#209,.F.);
#209 = EDGE_LOOP('',(#210,#219,#225,#226));
#210 = ORIENTED_EDGE('',*,*,#211,.F.);
#211 = EDGE_CURVE('',#212,#212,#214,.T.);
#212 = VERTEX_POINT('',#213);
#213 = CARTESIAN_POINT('',(2.05,-7.,1.));
#214 = CIRCLE('',#215,2.05);
#215 = AXIS2_PLACEMENT_3D('',#216,#217,#218);
#216 = CARTESIAN_POINT('',(0.,-7.,1.));
#217 = DIRECTION('',(0.,0.,1.));
#218 = DIRECTION('',(1.,0.,0.));
#219 = ORIENTED_EDGE('',*,*,#220,.T.);
#220 = EDGE_CURVE('',#212,#56,#221,.T.);
#221 = LINE('',#222,#223);
#222 = CARTESIAN_POINT('',(2.05,-7.,1.));
#223 = VECTOR('',#224,1.);
#224 = DIRECTION('',(-0.,-0.,-1.));
#225 = ORIENTED_EDGE('',*,*,#55,.T.);
#226 = ORIENTED_EDGE('',*,*,#220,.F.);
#227 = CYLINDRICAL_SURFACE('',#228,2.05);
#228 = AXIS2_PLACEMENT_3D('',#229,#230,#231);
#229 = CARTESIAN_POINT('',(0.,-7.,1.));
#230 = DIRECTION('',(0.,0.,1.));
#231 = DIRECTION('',(1.,0.,0.));
#232 = ADVANCED_FACE('',(#233),#252,.F.);
#233 = FACE_BOUND('',#234,.F.);
#234 = EDGE_LOOP('',(#235,#244,#250,#251));
#235 = ORIENTED_EDGE('',*,*,#236,.F.);
#236 = EDGE_CURVE('',#237,#237,#239,.T.);
#237 = VERTEX_POINT('',#238);
#238 = CARTESIAN_POINT('',(2.05,8.,1.));
#239 = CIRCLE('',#240,2.05);
#240 = AXIS2_PLACEMENT_3D('',#241,#242,#243);
#241 = CARTESIAN_POINT('',(0.,8.,1.));
#242 = DIRECTION('',(0.,0.,1.));
#243 = DIRECTION('',(1.,0.,0.));
#244 = ORIENTED_EDGE('',*,*,#245,.T.);
#245 = EDGE_CURVE('',#237,#67,#246,.T.);
#246 = LINE('',#247,#248);
#247 = CARTESIAN_POINT('',(2.05,8.,1.));
#248 = VECTOR('',#249,1.);
#249 = DIRECTION('',(-0.,-0.,-1.));
#250 = ORIENTED_EDGE('',*,*,#66,.T.);
#251 = ORIENTED_EDGE('',*,*,#245,.F.);
#252 = CYLINDRICAL_SURFACE('',#253,2.05);
#253 = AXIS2_PLACEMENT_3D('',#254,#255,#256);
#254 = CARTESIAN_POINT('',(0.,8.,1.));
#255 = DIRECTION('',(0.,0.,1.));
#256 = DIRECTION('',(1.,0.,0.));
#257 = ADVANCED_FACE('',(#258),#287,.T.);
#258 = FACE_BOUND('',#259,.F.);
#259 = EDGE_LOOP('',(#260,#261,#269,#277,#283,#284,#285,#286));
#260 = ORIENTED_EDGE('',*,*,#116,.T.);
#261 = ORIENTED_EDGE('',*,*,#262,.T.);
#262 = EDGE_CURVE('',#117,#263,#265,.T.);
#263 = VERTEX_POINT('',#264);
#264 = CARTESIAN_POINT('',(-6.5,-12.,4.));
#265 = LINE('',#266,#267);
#266 = CARTESIAN_POINT('',(-6.5,13.,4.));
#267 = VECTOR('',#268,1.);
#268 = DIRECTION('',(0.,-1.,0.));
#269 = ORIENTED_EDGE('',*,*,#270,.T.);
#270 = EDGE_CURVE('',#263,#271,#273,.T.);
#271 = VERTEX_POINT('',#272);
#272 = CARTESIAN_POINT('',(6.5,-12.,4.));
#273 = LINE('',#274,#275);
#274 = CARTESIAN_POINT('',(-6.5,-12.,4.));
#275 = VECTOR('',#276,1.);
#276 = DIRECTION('',(1.,0.,0.));
#277 = ORIENTED_EDGE('',*,*,#278,.T.);
#278 = EDGE_CURVE('',#271,#141,#279,.T.);
#279 = LINE('',#280,#281);
#280 = CARTESIAN_POINT('',(6.5,-12.,4.));
#281 = VECTOR('',#282,1.);
#282 = DIRECTION('',(0.,1.,0.));
#283 = ORIENTED_EDGE('',*,*,#148,.T.);
#284 = ORIENTED_EDGE('',*,*,#197,.T.);
#285 = ORIENTED_EDGE('',*,*,#180,.T.);
#286 = ORIENTED_EDGE('',*,*,#92,.T.);
#287 = PLANE('',#288);
#288 = AXIS2_PLACEMENT_3D('',#289,#290,#291);
#289 = CARTESIAN_POINT('',(0.,-2.272727272727,4.));
#290 = DIRECTION('',(0.,0.,1.));
#291 = DIRECTION('',(1.,0.,0.));
#292 = ADVANCED_FACE('',(#293),#311,.T.);
#293 = FACE_BOUND('',#294,.T.);
#294 = EDGE_LOOP('',(#295,#296,#297,#305));
#295 = ORIENTED_EDGE('',*,*,#124,.T.);
#296 = ORIENTED_EDGE('',*,*,#262,.T.);
#297 = ORIENTED_EDGE('',*,*,#298,.F.);
#298 = EDGE_CURVE('',#299,#263,#301,.T.);
#299 = VERTEX_POINT('',#300);
#300 = CARTESIAN_POINT('',(-6.5,-12.,1.));
#301 = LINE('',#302,#303);
#302 = CARTESIAN_POINT('',(-6.5,-12.,1.));
#303 = VECTOR('',#304,1.);
#304 = DIRECTION('',(0.,0.,1.));
#305 = ORIENTED_EDGE('',*,*,#306,.F.);
#306 = EDGE_CURVE('',#125,#299,#307,.T.);
#307 = LINE('',#308,#309);
#308 = CARTESIAN_POINT('',(-6.5,13.,1.));
#309 = VECTOR('',#310,1.);
#310 = DIRECTION('',(0.,-1.,0.));
#311 = PLANE('',#312);
#312 = AXIS2_PLACEMENT_3D('',#313,#314,#315);
#313 = CARTESIAN_POINT('',(-6.5,13.,1.));
#314 = DIRECTION('',(1.,0.,0.));
#315 = DIRECTION('',(0.,-1.,0.));
#316 = ADVANCED_FACE('',(#317,#335,#338),#341,.T.);
#317 = FACE_BOUND('',#318,.T.);
#318 = EDGE_LOOP('',(#319,#320,#321,#329));
#319 = ORIENTED_EDGE('',*,*,#132,.T.);
#320 = ORIENTED_EDGE('',*,*,#306,.T.);
#321 = ORIENTED_EDGE('',*,*,#322,.T.);
#322 = EDGE_CURVE('',#299,#323,#325,.T.);
#323 = VERTEX_POINT('',#324);
#324 = CARTESIAN_POINT('',(6.5,-12.,1.));
#325 = LINE('',#326,#327);
#326 = CARTESIAN_POINT('',(-6.5,-12.,1.));
#327 = VECTOR('',#328,1.);
#328 = DIRECTION('',(1.,0.,0.));
#329 = ORIENTED_EDGE('',*,*,#330,.T.);
#330 = EDGE_CURVE('',#323,#133,#331,.T.);
#331 = LINE('',#332,#333);
#332 = CARTESIAN_POINT('',(6.5,-12.,1.));
#333 = VECTOR('',#334,1.);
#334 = DIRECTION('',(0.,1.,0.));
#335 = FACE_BOUND('',#336,.T.);
#336 = EDGE_LOOP('',(#337));
#337 = ORIENTED_EDGE('',*,*,#211,.F.);
#338 = FACE_BOUND('',#339,.T.);
#339 = EDGE_LOOP('',(#340));
#340 = ORIENTED_EDGE('',*,*,#236,.F.);
#341 = PLANE('',#342);
#342 = AXIS2_PLACEMENT_3D('',#343,#344,#345);
#343 = CARTESIAN_POINT('',(0.,-8.665155314148E-16,1.));
#344 = DIRECTION('',(0.,0.,1.));
#345 = DIRECTION('',(1.,0.,0.));
#346 = ADVANCED_FACE('',(#347),#358,.T.);
#347 = FACE_BOUND('',#348,.T.);
#348 = EDGE_LOOP('',(#349,#355,#356,#357));
#349 = ORIENTED_EDGE('',*,*,#350,.T.);
#350 = EDGE_CURVE('',#323,#271,#351,.T.);
#351 = LINE('',#352,#353);
#352 = CARTESIAN_POINT('',(6.5,-12.,1.));
#353 = VECTOR('',#354,1.);
#354 = DIRECTION('',(0.,0.,1.));
#355 = ORIENTED_EDGE('',*,*,#278,.T.);
#356 = ORIENTED_EDGE('',*,*,#140,.F.);
#357 = ORIENTED_EDGE('',*,*,#330,.F.);
#358 = PLANE('',#359);
#359 = AXIS2_PLACEMENT_3D('',#360,#361,#362);
#360 = CARTESIAN_POINT('',(6.5,-12.,1.));
#361 = DIRECTION('',(-1.,0.,0.));
#362 = DIRECTION('',(0.,1.,0.));
#363 = ADVANCED_FACE('',(#364),#370,.T.);
#364 = FACE_BOUND('',#365,.T.);
#365 = EDGE_LOOP('',(#366,#367,#368,#369));
#366 = ORIENTED_EDGE('',*,*,#298,.T.);
#367 = ORIENTED_EDGE('',*,*,#270,.T.);
#368 = ORIENTED_EDGE('',*,*,#350,.F.);
#369 = ORIENTED_EDGE('',*,*,#322,.F.);
#370 = PLANE('',#371);
#371 = AXIS2_PLACEMENT_3D('',#372,#373,#374);
#372 = CARTESIAN_POINT('',(-6.5,-12.,1.));
#373 = DIRECTION('',(0.,1.,0.));
#374 = DIRECTION('',(1.,0.,0.));
#375 = ( GEOMETRIC_REPRESENTATION_CONTEXT(3) 
GLOBAL_UNCERTAINTY_ASSIGNED_CONTEXT((#379)) GLOBAL_UNIT_ASSIGNED_CONTEXT
((#376,#377,#378)) REPRESENTATION_CONTEXT('Context #1',
  '3D Context with UNIT and UNCERTAINTY') );
#376 = ( LENGTH_UNIT() NAMED_UNIT(*) SI_UNIT(.MILLI.,.METRE.) );
#377 = ( NAMED_UNIT(*) PLANE_ANGLE_UNIT() SI_UNIT($,.RADIAN.) );
#378 = ( NAMED_UNIT(*) SI_UNIT($,.STERADIAN.) SOLID_ANGLE_UNIT() );
#379 = UNCERTAINTY_MEASURE_WITH_UNIT(LENGTH_MEASURE(1.E-07),#376,
  'distance_accuracy_value','confusion accuracy');
#380 = PRODUCT_RELATED_PRODUCT_CATEGORY('detail',$,(#7));
#381 = PRODUCT_CATEGORY_RELATIONSHIP('','',#382,#380);
#382 = PRODUCT_CATEGORY('part',$);
#383 = CC_DESIGN_PERSON_AND_ORGANIZATION_ASSIGNMENT(#384,#387,(#6,#5));
#384 = PERSON_AND_ORGANIZATION(#385,#386);
#385 = PERSON('IP169.254.190,karol','','karol',$,$,$);
#386 = ORGANIZATION('IP169.254.190','Unspecified','');
#387 = PERSON_AND_ORGANIZATION_ROLE('creator');
#388 = CC_DESIGN_PERSON_AND_ORGANIZATION_ASSIGNMENT(#384,#389,(#7));
#389 = PERSON_AND_ORGANIZATION_ROLE('design_owner');
#390 = CC_DESIGN_PERSON_AND_ORGANIZATION_ASSIGNMENT(#384,#391,(#6));
#391 = PERSON_AND_ORGANIZATION_ROLE('design_supplier');
#392 = CC_DESIGN_PERSON_AND_ORGANIZATION_ASSIGNMENT(#384,#393,(#394));
#393 = PERSON_AND_ORGANIZATION_ROLE('classification_officer');
#394 = SECURITY_CLASSIFICATION('','',#395);
#395 = SECURITY_CLASSIFICATION_LEVEL('unclassified');
#396 = CC_DESIGN_SECURITY_CLASSIFICATION(#394,(#6));
#397 = CC_DESIGN_DATE_AND_TIME_ASSIGNMENT(#398,#402,(#5));
#398 = DATE_AND_TIME(#399,#400);
#399 = CALENDAR_DATE(2026,25,4);
#400 = LOCAL_TIME(16,22,$,#401);
#401 = COORDINATED_UNIVERSAL_TIME_OFFSET(1,$,.AHEAD.);
#402 = DATE_TIME_ROLE('creation_date');
#403 = CC_DESIGN_DATE_AND_TIME_ASSIGNMENT(#398,#404,(#394));
#404 = DATE_TIME_ROLE('classification_date');
#405 = CC_DESIGN_APPROVAL(#406,(#6,#5,#394));
#406 = APPROVAL(#407,'');
#407 = APPROVAL_STATUS('not_yet_approved');
#408 = APPROVAL_PERSON_ORGANIZATION(#384,#406,#409);
#409 = APPROVAL_ROLE('approver');
#410 = APPROVAL_DATE_TIME(#398,#406);
#411 = MECHANICAL_DESIGN_GEOMETRIC_PRESENTATION_REPRESENTATION('',(#412)
  ,#375);
#412 = STYLED_ITEM('color',(#413),#15);
#413 = PRESENTATION_STYLE_ASSIGNMENT((#414,#420));
#414 = SURFACE_STYLE_USAGE(.BOTH.,#415);
#415 = SURFACE_SIDE_STYLE('',(#416));
#416 = SURFACE_STYLE_FILL_AREA(#417);
#417 = FILL_AREA_STYLE('',(#418));
#418 = FILL_AREA_STYLE_COLOUR('',#419);
#419 = COLOUR_RGB('',0.447059003357,0.474510015008,0.501960993452);
#420 = CURVE_STYLE('',#421,POSITIVE_LENGTH_MEASURE(0.1),#422);
#421 = DRAUGHTING_PRE_DEFINED_CURVE_FONT('continuous');
#422 = COLOUR_RGB('',9.803921802644E-02,9.803921802644E-02,
  9.803921802644E-02);
ENDSEC;
END-ISO-10303-21;
