ISO-10303-21;
HEADER;
FILE_DESCRIPTION(('FreeCAD Model'),'2;1');
FILE_NAME('Open CASCADE Shape Model','2026-05-10T15:35:38',(''),(''),
  'Open CASCADE STEP processor 7.8','FreeCAD','Unknown');
FILE_SCHEMA(('CONFIG_CONTROL_DESIGN','SHAPE_APPEARANCE_LAYER_MIM'));
ENDSEC;
DATA;
#1 = APPLICATION_PROTOCOL_DEFINITION('international standard',
  'config_control_design',1994,#2);
#2 = APPLICATION_CONTEXT(
'configuration controlled 3D designs of mechanical parts and assemblies'
  );
#3 = SHAPE_DEFINITION_REPRESENTATION(#4,#10);
#4 = PRODUCT_DEFINITION_SHAPE('','',#5);
#5 = PRODUCT_DEFINITION('design','',#6,#9);
#6 = PRODUCT_DEFINITION_FORMATION_WITH_SPECIFIED_SOURCE('','',#7,
  .NOT_KNOWN.);
#7 = PRODUCT('Zawartość','Zawartość','',(#8));
#8 = MECHANICAL_CONTEXT('',#2,'mechanical');
#9 = DESIGN_CONTEXT('',#2,'design');
#10 = ADVANCED_BREP_SHAPE_REPRESENTATION('',(#11,#15),#2380);
#11 = AXIS2_PLACEMENT_3D('',#12,#13,#14);
#12 = CARTESIAN_POINT('',(0.,0.,0.));
#13 = DIRECTION('',(0.,0.,1.));
#14 = DIRECTION('',(1.,0.,-0.));
#15 = MANIFOLD_SOLID_BREP('',#16);
#16 = CLOSED_SHELL('',(#17,#407,#438,#462,#486,#550,#575,#600,#624,#648,
    #673,#698,#722,#746,#802,#881,#905,#929,#954,#1065,#1089,#1129,#1154
    ,#1210,#1234,#1267,#1291,#1315,#1332,#1397,#1421,#1446,#1471,#1488,
    #1520,#1537,#1569,#1586,#1628,#1645,#1687,#1704,#1742,#1784,#1808,
    #1854,#1973,#2011,#2043,#2084,#2112,#2124,#2146,#2232,#2244,#2266,
    #2283,#2300,#2317,#2334,#2351,#2368));
#17 = ADVANCED_FACE('',(#18,#308,#327,#346,#374),#402,.T.);
#18 = FACE_BOUND('',#19,.T.);
#19 = EDGE_LOOP('',(#20,#30,#38,#47,#55,#64,#72,#80,#88,#97,#105,#114,
    #122,#130,#138,#146,#154,#163,#171,#180,#188,#196,#204,#212,#220,
    #228,#236,#244,#252,#260,#268,#277,#285,#294,#302));
#20 = ORIENTED_EDGE('',*,*,#21,.T.);
#21 = EDGE_CURVE('',#22,#24,#26,.T.);
#22 = VERTEX_POINT('',#23);
#23 = CARTESIAN_POINT('',(-13.,-14.49,-9.));
#24 = VERTEX_POINT('',#25);
#25 = CARTESIAN_POINT('',(-13.,-14.5,-9.));
#26 = LINE('',#27,#28);
#27 = CARTESIAN_POINT('',(-13.,-7.5,-9.));
#28 = VECTOR('',#29,1.);
#29 = DIRECTION('',(0.,-1.,0.));
#30 = ORIENTED_EDGE('',*,*,#31,.T.);
#31 = EDGE_CURVE('',#24,#32,#34,.T.);
#32 = VERTEX_POINT('',#33);
#33 = CARTESIAN_POINT('',(-15.,-14.5,-9.));
#34 = LINE('',#35,#36);
#35 = CARTESIAN_POINT('',(-13.,-14.5,-9.));
#36 = VECTOR('',#37,1.);
#37 = DIRECTION('',(-1.,0.,0.));
#38 = ORIENTED_EDGE('',*,*,#39,.T.);
#39 = EDGE_CURVE('',#32,#40,#42,.T.);
#40 = VERTEX_POINT('',#41);
#41 = CARTESIAN_POINT('',(-18.,-11.5,-9.));
#42 = CIRCLE('',#43,3.);
#43 = AXIS2_PLACEMENT_3D('',#44,#45,#46);
#44 = CARTESIAN_POINT('',(-15.,-11.5,-9.));
#45 = DIRECTION('',(-0.,-0.,-1.));
#46 = DIRECTION('',(0.,-1.,0.));
#47 = ORIENTED_EDGE('',*,*,#48,.T.);
#48 = EDGE_CURVE('',#40,#49,#51,.T.);
#49 = VERTEX_POINT('',#50);
#50 = CARTESIAN_POINT('',(-18.,-10.5,-9.));
#51 = LINE('',#52,#53);
#52 = CARTESIAN_POINT('',(-18.,-14.5,-9.));
#53 = VECTOR('',#54,1.);
#54 = DIRECTION('',(0.,1.,0.));
#55 = ORIENTED_EDGE('',*,*,#56,.T.);
#56 = EDGE_CURVE('',#49,#57,#59,.T.);
#57 = VERTEX_POINT('',#58);
#58 = CARTESIAN_POINT('',(-15.,-7.5,-9.));
#59 = CIRCLE('',#60,3.);
#60 = AXIS2_PLACEMENT_3D('',#61,#62,#63);
#61 = CARTESIAN_POINT('',(-15.,-10.5,-9.));
#62 = DIRECTION('',(-0.,-0.,-1.));
#63 = DIRECTION('',(0.,-1.,0.));
#64 = ORIENTED_EDGE('',*,*,#65,.T.);
#65 = EDGE_CURVE('',#57,#66,#68,.T.);
#66 = VERTEX_POINT('',#67);
#67 = CARTESIAN_POINT('',(-13.5,-7.5,-9.));
#68 = LINE('',#69,#70);
#69 = CARTESIAN_POINT('',(-18.,-7.5,-9.));
#70 = VECTOR('',#71,1.);
#71 = DIRECTION('',(1.,0.,0.));
#72 = ORIENTED_EDGE('',*,*,#73,.T.);
#73 = EDGE_CURVE('',#66,#74,#76,.T.);
#74 = VERTEX_POINT('',#75);
#75 = CARTESIAN_POINT('',(-13.5,7.5,-9.));
#76 = LINE('',#77,#78);
#77 = CARTESIAN_POINT('',(-13.5,-13.5,-9.));
#78 = VECTOR('',#79,1.);
#79 = DIRECTION('',(0.,1.,0.));
#80 = ORIENTED_EDGE('',*,*,#81,.T.);
#81 = EDGE_CURVE('',#74,#82,#84,.T.);
#82 = VERTEX_POINT('',#83);
#83 = CARTESIAN_POINT('',(-15.,7.5,-9.));
#84 = LINE('',#85,#86);
#85 = CARTESIAN_POINT('',(-13.,7.5,-9.));
#86 = VECTOR('',#87,1.);
#87 = DIRECTION('',(-1.,0.,0.));
#88 = ORIENTED_EDGE('',*,*,#89,.T.);
#89 = EDGE_CURVE('',#82,#90,#92,.T.);
#90 = VERTEX_POINT('',#91);
#91 = CARTESIAN_POINT('',(-18.,10.5,-9.));
#92 = CIRCLE('',#93,3.);
#93 = AXIS2_PLACEMENT_3D('',#94,#95,#96);
#94 = CARTESIAN_POINT('',(-15.,10.5,-9.));
#95 = DIRECTION('',(-0.,-0.,-1.));
#96 = DIRECTION('',(0.,-1.,0.));
#97 = ORIENTED_EDGE('',*,*,#98,.T.);
#98 = EDGE_CURVE('',#90,#99,#101,.T.);
#99 = VERTEX_POINT('',#100);
#100 = CARTESIAN_POINT('',(-18.,11.5,-9.));
#101 = LINE('',#102,#103);
#102 = CARTESIAN_POINT('',(-18.,7.5,-9.));
#103 = VECTOR('',#104,1.);
#104 = DIRECTION('',(0.,1.,0.));
#105 = ORIENTED_EDGE('',*,*,#106,.T.);
#106 = EDGE_CURVE('',#99,#107,#109,.T.);
#107 = VERTEX_POINT('',#108);
#108 = CARTESIAN_POINT('',(-15.,14.5,-9.));
#109 = CIRCLE('',#110,3.);
#110 = AXIS2_PLACEMENT_3D('',#111,#112,#113);
#111 = CARTESIAN_POINT('',(-15.,11.5,-9.));
#112 = DIRECTION('',(-0.,-0.,-1.));
#113 = DIRECTION('',(0.,-1.,0.));
#114 = ORIENTED_EDGE('',*,*,#115,.T.);
#115 = EDGE_CURVE('',#107,#116,#118,.T.);
#116 = VERTEX_POINT('',#117);
#117 = CARTESIAN_POINT('',(-13.,14.5,-9.));
#118 = LINE('',#119,#120);
#119 = CARTESIAN_POINT('',(-18.,14.5,-9.));
#120 = VECTOR('',#121,1.);
#121 = DIRECTION('',(1.,0.,0.));
#122 = ORIENTED_EDGE('',*,*,#123,.T.);
#123 = EDGE_CURVE('',#116,#124,#126,.T.);
#124 = VERTEX_POINT('',#125);
#125 = CARTESIAN_POINT('',(-13.,14.490000000003,-9.));
#126 = LINE('',#127,#128);
#127 = CARTESIAN_POINT('',(-13.,14.5,-9.));
#128 = VECTOR('',#129,1.);
#129 = DIRECTION('',(0.,-1.,0.));
#130 = ORIENTED_EDGE('',*,*,#131,.T.);
#131 = EDGE_CURVE('',#124,#132,#134,.T.);
#132 = VERTEX_POINT('',#133);
#133 = CARTESIAN_POINT('',(-12.01,13.500000000003,-9.));
#134 = LINE('',#135,#136);
#135 = CARTESIAN_POINT('',(-6.193452561874,7.683452561879,-9.));
#136 = VECTOR('',#137,1.);
#137 = DIRECTION('',(0.707106781187,-0.707106781186,0.));
#138 = ORIENTED_EDGE('',*,*,#139,.T.);
#139 = EDGE_CURVE('',#132,#140,#142,.T.);
#140 = VERTEX_POINT('',#141);
#141 = CARTESIAN_POINT('',(13.5,13.5,-9.));
#142 = LINE('',#143,#144);
#143 = CARTESIAN_POINT('',(-13.5,13.5,-9.));
#144 = VECTOR('',#145,1.);
#145 = DIRECTION('',(1.,0.,0.));
#146 = ORIENTED_EDGE('',*,*,#147,.T.);
#147 = EDGE_CURVE('',#140,#148,#150,.T.);
#148 = VERTEX_POINT('',#149);
#149 = CARTESIAN_POINT('',(14.999999999999,13.500000000009,-9.));
#150 = LINE('',#151,#152);
#151 = CARTESIAN_POINT('',(13.,13.500000000072,-9.));
#152 = VECTOR('',#153,1.);
#153 = DIRECTION('',(1.,-1.449933506592E-11,0.));
#154 = ORIENTED_EDGE('',*,*,#155,.T.);
#155 = EDGE_CURVE('',#148,#156,#158,.T.);
#156 = VERTEX_POINT('',#157);
#157 = CARTESIAN_POINT('',(18.,10.500000000009,-9.));
#158 = CIRCLE('',#159,3.);
#159 = AXIS2_PLACEMENT_3D('',#160,#161,#162);
#160 = CARTESIAN_POINT('',(15.,10.500000000009,-9.));
#161 = DIRECTION('',(-0.,-0.,-1.));
#162 = DIRECTION('',(0.,-1.,0.));
#163 = ORIENTED_EDGE('',*,*,#164,.T.);
#164 = EDGE_CURVE('',#156,#165,#167,.T.);
#165 = VERTEX_POINT('',#166);
#166 = CARTESIAN_POINT('',(18.,9.5,-9.));
#167 = LINE('',#168,#169);
#168 = CARTESIAN_POINT('',(18.,13.5,-9.));
#169 = VECTOR('',#170,1.);
#170 = DIRECTION('',(0.,-1.,0.));
#171 = ORIENTED_EDGE('',*,*,#172,.T.);
#172 = EDGE_CURVE('',#165,#173,#175,.T.);
#173 = VERTEX_POINT('',#174);
#174 = CARTESIAN_POINT('',(15.,6.5,-9.));
#175 = CIRCLE('',#176,3.);
#176 = AXIS2_PLACEMENT_3D('',#177,#178,#179);
#177 = CARTESIAN_POINT('',(15.,9.5,-9.));
#178 = DIRECTION('',(-0.,-0.,-1.));
#179 = DIRECTION('',(0.,-1.,0.));
#180 = ORIENTED_EDGE('',*,*,#181,.T.);
#181 = EDGE_CURVE('',#173,#182,#184,.T.);
#182 = VERTEX_POINT('',#183);
#183 = CARTESIAN_POINT('',(13.5,6.5,-9.));
#184 = LINE('',#185,#186);
#185 = CARTESIAN_POINT('',(18.,6.5,-9.));
#186 = VECTOR('',#187,1.);
#187 = DIRECTION('',(-1.,0.,0.));
#188 = ORIENTED_EDGE('',*,*,#189,.T.);
#189 = EDGE_CURVE('',#182,#190,#192,.T.);
#190 = VERTEX_POINT('',#191);
#191 = CARTESIAN_POINT('',(13.5,5.,-9.));
#192 = LINE('',#193,#194);
#193 = CARTESIAN_POINT('',(13.5,13.5,-9.));
#194 = VECTOR('',#195,1.);
#195 = DIRECTION('',(0.,-1.,0.));
#196 = ORIENTED_EDGE('',*,*,#197,.T.);
#197 = EDGE_CURVE('',#190,#198,#200,.T.);
#198 = VERTEX_POINT('',#199);
#199 = CARTESIAN_POINT('',(12.55,5.,-9.));
#200 = LINE('',#201,#202);
#201 = CARTESIAN_POINT('',(13.5,5.,-9.));
#202 = VECTOR('',#203,1.);
#203 = DIRECTION('',(-1.,-0.,-0.));
#204 = ORIENTED_EDGE('',*,*,#205,.F.);
#205 = EDGE_CURVE('',#206,#198,#208,.T.);
#206 = VERTEX_POINT('',#207);
#207 = CARTESIAN_POINT('',(12.55,12.55,-9.));
#208 = LINE('',#209,#210);
#209 = CARTESIAN_POINT('',(12.55,12.55,-9.));
#210 = VECTOR('',#211,1.);
#211 = DIRECTION('',(0.,-1.,0.));
#212 = ORIENTED_EDGE('',*,*,#213,.F.);
#213 = EDGE_CURVE('',#214,#206,#216,.T.);
#214 = VERTEX_POINT('',#215);
#215 = CARTESIAN_POINT('',(-12.55,12.55,-9.));
#216 = LINE('',#217,#218);
#217 = CARTESIAN_POINT('',(-12.55,12.55,-9.));
#218 = VECTOR('',#219,1.);
#219 = DIRECTION('',(1.,0.,0.));
#220 = ORIENTED_EDGE('',*,*,#221,.F.);
#221 = EDGE_CURVE('',#222,#214,#224,.T.);
#222 = VERTEX_POINT('',#223);
#223 = CARTESIAN_POINT('',(-12.55,-12.55,-9.));
#224 = LINE('',#225,#226);
#225 = CARTESIAN_POINT('',(-12.55,-12.55,-9.));
#226 = VECTOR('',#227,1.);
#227 = DIRECTION('',(0.,1.,0.));
#228 = ORIENTED_EDGE('',*,*,#229,.F.);
#229 = EDGE_CURVE('',#230,#222,#232,.T.);
#230 = VERTEX_POINT('',#231);
#231 = CARTESIAN_POINT('',(12.55,-12.55,-9.));
#232 = LINE('',#233,#234);
#233 = CARTESIAN_POINT('',(12.55,-12.55,-9.));
#234 = VECTOR('',#235,1.);
#235 = DIRECTION('',(-1.,0.,0.));
#236 = ORIENTED_EDGE('',*,*,#237,.F.);
#237 = EDGE_CURVE('',#238,#230,#240,.T.);
#238 = VERTEX_POINT('',#239);
#239 = CARTESIAN_POINT('',(12.55,-5.,-9.));
#240 = LINE('',#241,#242);
#241 = CARTESIAN_POINT('',(12.55,12.55,-9.));
#242 = VECTOR('',#243,1.);
#243 = DIRECTION('',(0.,-1.,0.));
#244 = ORIENTED_EDGE('',*,*,#245,.F.);
#245 = EDGE_CURVE('',#246,#238,#248,.T.);
#246 = VERTEX_POINT('',#247);
#247 = CARTESIAN_POINT('',(13.5,-5.,-9.));
#248 = LINE('',#249,#250);
#249 = CARTESIAN_POINT('',(13.5,-5.,-9.));
#250 = VECTOR('',#251,1.);
#251 = DIRECTION('',(-1.,-0.,-0.));
#252 = ORIENTED_EDGE('',*,*,#253,.T.);
#253 = EDGE_CURVE('',#246,#254,#256,.T.);
#254 = VERTEX_POINT('',#255);
#255 = CARTESIAN_POINT('',(13.5,-6.5,-9.));
#256 = LINE('',#257,#258);
#257 = CARTESIAN_POINT('',(13.5,13.5,-9.));
#258 = VECTOR('',#259,1.);
#259 = DIRECTION('',(0.,-1.,0.));
#260 = ORIENTED_EDGE('',*,*,#261,.T.);
#261 = EDGE_CURVE('',#254,#262,#264,.T.);
#262 = VERTEX_POINT('',#263);
#263 = CARTESIAN_POINT('',(15.,-6.5,-9.));
#264 = LINE('',#265,#266);
#265 = CARTESIAN_POINT('',(13.,-6.5,-9.));
#266 = VECTOR('',#267,1.);
#267 = DIRECTION('',(1.,0.,0.));
#268 = ORIENTED_EDGE('',*,*,#269,.T.);
#269 = EDGE_CURVE('',#262,#270,#272,.T.);
#270 = VERTEX_POINT('',#271);
#271 = CARTESIAN_POINT('',(18.,-9.5,-9.));
#272 = CIRCLE('',#273,3.);
#273 = AXIS2_PLACEMENT_3D('',#274,#275,#276);
#274 = CARTESIAN_POINT('',(15.,-9.5,-9.));
#275 = DIRECTION('',(-0.,-0.,-1.));
#276 = DIRECTION('',(0.,-1.,0.));
#277 = ORIENTED_EDGE('',*,*,#278,.T.);
#278 = EDGE_CURVE('',#270,#279,#281,.T.);
#279 = VERTEX_POINT('',#280);
#280 = CARTESIAN_POINT('',(18.,-10.5,-9.));
#281 = LINE('',#282,#283);
#282 = CARTESIAN_POINT('',(18.,-6.5,-9.));
#283 = VECTOR('',#284,1.);
#284 = DIRECTION('',(0.,-1.,0.));
#285 = ORIENTED_EDGE('',*,*,#286,.T.);
#286 = EDGE_CURVE('',#279,#287,#289,.T.);
#287 = VERTEX_POINT('',#288);
#288 = CARTESIAN_POINT('',(15.,-13.5,-9.));
#289 = CIRCLE('',#290,3.);
#290 = AXIS2_PLACEMENT_3D('',#291,#292,#293);
#291 = CARTESIAN_POINT('',(15.,-10.5,-9.));
#292 = DIRECTION('',(-0.,-0.,-1.));
#293 = DIRECTION('',(0.,-1.,0.));
#294 = ORIENTED_EDGE('',*,*,#295,.T.);
#295 = EDGE_CURVE('',#287,#296,#298,.T.);
#296 = VERTEX_POINT('',#297);
#297 = CARTESIAN_POINT('',(-12.01,-13.5,-9.));
#298 = LINE('',#299,#300);
#299 = CARTESIAN_POINT('',(18.,-13.5,-9.));
#300 = VECTOR('',#301,1.);
#301 = DIRECTION('',(-1.,0.,0.));
#302 = ORIENTED_EDGE('',*,*,#303,.F.);
#303 = EDGE_CURVE('',#22,#296,#304,.T.);
#304 = LINE('',#305,#306);
#305 = CARTESIAN_POINT('',(-6.193452561876,-7.683452561876,-9.));
#306 = VECTOR('',#307,1.);
#307 = DIRECTION('',(0.707106781187,0.707106781187,0.));
#308 = FACE_BOUND('',#309,.T.);
#309 = EDGE_LOOP('',(#310,#321));
#310 = ORIENTED_EDGE('',*,*,#311,.F.);
#311 = EDGE_CURVE('',#312,#314,#316,.T.);
#312 = VERTEX_POINT('',#313);
#313 = CARTESIAN_POINT('',(-13.5,-11.39051248379,-9.));
#314 = VERTEX_POINT('',#315);
#315 = CARTESIAN_POINT('',(-13.5,-10.6094875162,-9.));
#316 = CIRCLE('',#317,1.55);
#317 = AXIS2_PLACEMENT_3D('',#318,#319,#320);
#318 = CARTESIAN_POINT('',(-15.,-11.,-9.));
#319 = DIRECTION('',(0.,0.,-1.));
#320 = DIRECTION('',(1.,0.,0.));
#321 = ORIENTED_EDGE('',*,*,#322,.T.);
#322 = EDGE_CURVE('',#312,#314,#323,.T.);
#323 = LINE('',#324,#325);
#324 = CARTESIAN_POINT('',(-13.5,-13.5,-9.));
#325 = VECTOR('',#326,1.);
#326 = DIRECTION('',(0.,1.,0.));
#327 = FACE_BOUND('',#328,.T.);
#328 = EDGE_LOOP('',(#329,#340));
#329 = ORIENTED_EDGE('',*,*,#330,.F.);
#330 = EDGE_CURVE('',#331,#333,#335,.T.);
#331 = VERTEX_POINT('',#332);
#332 = CARTESIAN_POINT('',(-13.5,10.609487516205,-9.));
#333 = VERTEX_POINT('',#334);
#334 = CARTESIAN_POINT('',(-13.5,11.390512483795,-9.));
#335 = CIRCLE('',#336,1.55);
#336 = AXIS2_PLACEMENT_3D('',#337,#338,#339);
#337 = CARTESIAN_POINT('',(-15.,11.,-9.));
#338 = DIRECTION('',(0.,0.,-1.));
#339 = DIRECTION('',(1.,0.,0.));
#340 = ORIENTED_EDGE('',*,*,#341,.T.);
#341 = EDGE_CURVE('',#331,#333,#342,.T.);
#342 = LINE('',#343,#344);
#343 = CARTESIAN_POINT('',(-13.5,-13.5,-9.));
#344 = VECTOR('',#345,1.);
#345 = DIRECTION('',(0.,1.,0.));
#346 = FACE_BOUND('',#347,.T.);
#347 = EDGE_LOOP('',(#348,#359,#368));
#348 = ORIENTED_EDGE('',*,*,#349,.F.);
#349 = EDGE_CURVE('',#350,#352,#354,.T.);
#350 = VERTEX_POINT('',#351);
#351 = CARTESIAN_POINT('',(16.55,10.,-9.));
#352 = VERTEX_POINT('',#353);
#353 = CARTESIAN_POINT('',(13.5,9.609487516205,-9.));
#354 = CIRCLE('',#355,1.55);
#355 = AXIS2_PLACEMENT_3D('',#356,#357,#358);
#356 = CARTESIAN_POINT('',(15.,10.,-9.));
#357 = DIRECTION('',(0.,0.,-1.));
#358 = DIRECTION('',(1.,0.,0.));
#359 = ORIENTED_EDGE('',*,*,#360,.F.);
#360 = EDGE_CURVE('',#361,#350,#363,.T.);
#361 = VERTEX_POINT('',#362);
#362 = CARTESIAN_POINT('',(13.5,10.390512483795,-9.));
#363 = CIRCLE('',#364,1.55);
#364 = AXIS2_PLACEMENT_3D('',#365,#366,#367);
#365 = CARTESIAN_POINT('',(15.,10.,-9.));
#366 = DIRECTION('',(0.,0.,-1.));
#367 = DIRECTION('',(1.,0.,0.));
#368 = ORIENTED_EDGE('',*,*,#369,.T.);
#369 = EDGE_CURVE('',#361,#352,#370,.T.);
#370 = LINE('',#371,#372);
#371 = CARTESIAN_POINT('',(13.5,13.5,-9.));
#372 = VECTOR('',#373,1.);
#373 = DIRECTION('',(0.,-1.,0.));
#374 = FACE_BOUND('',#375,.T.);
#375 = EDGE_LOOP('',(#376,#387,#396));
#376 = ORIENTED_EDGE('',*,*,#377,.F.);
#377 = EDGE_CURVE('',#378,#380,#382,.T.);
#378 = VERTEX_POINT('',#379);
#379 = CARTESIAN_POINT('',(16.55,-10.,-9.));
#380 = VERTEX_POINT('',#381);
#381 = CARTESIAN_POINT('',(13.5,-10.39051248379,-9.));
#382 = CIRCLE('',#383,1.55);
#383 = AXIS2_PLACEMENT_3D('',#384,#385,#386);
#384 = CARTESIAN_POINT('',(15.,-10.,-9.));
#385 = DIRECTION('',(0.,0.,-1.));
#386 = DIRECTION('',(1.,0.,0.));
#387 = ORIENTED_EDGE('',*,*,#388,.F.);
#388 = EDGE_CURVE('',#389,#378,#391,.T.);
#389 = VERTEX_POINT('',#390);
#390 = CARTESIAN_POINT('',(13.5,-9.609487516205,-9.));
#391 = CIRCLE('',#392,1.55);
#392 = AXIS2_PLACEMENT_3D('',#393,#394,#395);
#393 = CARTESIAN_POINT('',(15.,-10.,-9.));
#394 = DIRECTION('',(0.,0.,-1.));
#395 = DIRECTION('',(1.,0.,0.));
#396 = ORIENTED_EDGE('',*,*,#397,.T.);
#397 = EDGE_CURVE('',#389,#380,#398,.T.);
#398 = LINE('',#399,#400);
#399 = CARTESIAN_POINT('',(13.5,13.5,-9.));
#400 = VECTOR('',#401,1.);
#401 = DIRECTION('',(0.,-1.,0.));
#402 = PLANE('',#403);
#403 = AXIS2_PLACEMENT_3D('',#404,#405,#406);
#404 = CARTESIAN_POINT('',(-1.253810247503,6.372979049006E-13,-9.));
#405 = DIRECTION('',(-0.,-0.,-1.));
#406 = DIRECTION('',(-1.,0.,0.));
#407 = ADVANCED_FACE('',(#408),#433,.T.);
#408 = FACE_BOUND('',#409,.T.);
#409 = EDGE_LOOP('',(#410,#411,#419,#427));
#410 = ORIENTED_EDGE('',*,*,#21,.F.);
#411 = ORIENTED_EDGE('',*,*,#412,.T.);
#412 = EDGE_CURVE('',#22,#413,#415,.T.);
#413 = VERTEX_POINT('',#414);
#414 = CARTESIAN_POINT('',(-13.,-14.49,-8.));
#415 = LINE('',#416,#417);
#416 = CARTESIAN_POINT('',(-13.,-14.49,-9.));
#417 = VECTOR('',#418,1.);
#418 = DIRECTION('',(0.,0.,1.));
#419 = ORIENTED_EDGE('',*,*,#420,.T.);
#420 = EDGE_CURVE('',#413,#421,#423,.T.);
#421 = VERTEX_POINT('',#422);
#422 = CARTESIAN_POINT('',(-13.,-14.5,-8.));
#423 = LINE('',#424,#425);
#424 = CARTESIAN_POINT('',(-13.,-7.5,-8.));
#425 = VECTOR('',#426,1.);
#426 = DIRECTION('',(0.,-1.,0.));
#427 = ORIENTED_EDGE('',*,*,#428,.F.);
#428 = EDGE_CURVE('',#24,#421,#429,.T.);
#429 = LINE('',#430,#431);
#430 = CARTESIAN_POINT('',(-13.,-14.5,-9.));
#431 = VECTOR('',#432,1.);
#432 = DIRECTION('',(0.,0.,1.));
#433 = PLANE('',#434);
#434 = AXIS2_PLACEMENT_3D('',#435,#436,#437);
#435 = CARTESIAN_POINT('',(-13.,-7.5,-9.));
#436 = DIRECTION('',(1.,0.,0.));
#437 = DIRECTION('',(0.,-1.,0.));
#438 = ADVANCED_FACE('',(#439),#457,.F.);
#439 = FACE_BOUND('',#440,.F.);
#440 = EDGE_LOOP('',(#441,#442,#443,#451));
#441 = ORIENTED_EDGE('',*,*,#303,.F.);
#442 = ORIENTED_EDGE('',*,*,#412,.T.);
#443 = ORIENTED_EDGE('',*,*,#444,.T.);
#444 = EDGE_CURVE('',#413,#445,#447,.T.);
#445 = VERTEX_POINT('',#446);
#446 = CARTESIAN_POINT('',(-12.01,-13.5,-8.));
#447 = LINE('',#448,#449);
#448 = CARTESIAN_POINT('',(-12.49857876393,-13.98857876393,-8.));
#449 = VECTOR('',#450,1.);
#450 = DIRECTION('',(0.707106781187,0.707106781187,0.));
#451 = ORIENTED_EDGE('',*,*,#452,.F.);
#452 = EDGE_CURVE('',#296,#445,#453,.T.);
#453 = LINE('',#454,#455);
#454 = CARTESIAN_POINT('',(-12.01,-13.5,-9.));
#455 = VECTOR('',#456,1.);
#456 = DIRECTION('',(0.,0.,1.));
#457 = PLANE('',#458);
#458 = AXIS2_PLACEMENT_3D('',#459,#460,#461);
#459 = CARTESIAN_POINT('',(-12.505,-13.995,-9.));
#460 = DIRECTION('',(-0.707106781187,0.707106781187,0.));
#461 = DIRECTION('',(0.,0.,1.));
#462 = ADVANCED_FACE('',(#463),#481,.T.);
#463 = FACE_BOUND('',#464,.T.);
#464 = EDGE_LOOP('',(#465,#466,#467,#475));
#465 = ORIENTED_EDGE('',*,*,#31,.F.);
#466 = ORIENTED_EDGE('',*,*,#428,.T.);
#467 = ORIENTED_EDGE('',*,*,#468,.T.);
#468 = EDGE_CURVE('',#421,#469,#471,.T.);
#469 = VERTEX_POINT('',#470);
#470 = CARTESIAN_POINT('',(-15.,-14.5,-8.));
#471 = LINE('',#472,#473);
#472 = CARTESIAN_POINT('',(-13.,-14.5,-8.));
#473 = VECTOR('',#474,1.);
#474 = DIRECTION('',(-1.,0.,0.));
#475 = ORIENTED_EDGE('',*,*,#476,.F.);
#476 = EDGE_CURVE('',#32,#469,#477,.T.);
#477 = LINE('',#478,#479);
#478 = CARTESIAN_POINT('',(-15.,-14.5,-9.));
#479 = VECTOR('',#480,1.);
#480 = DIRECTION('',(0.,0.,1.));
#481 = PLANE('',#482);
#482 = AXIS2_PLACEMENT_3D('',#483,#484,#485);
#483 = CARTESIAN_POINT('',(-13.,-14.5,-9.));
#484 = DIRECTION('',(-0.,-1.,-0.));
#485 = DIRECTION('',(-1.,0.,0.));
#486 = ADVANCED_FACE('',(#487),#545,.T.);
#487 = FACE_BOUND('',#488,.T.);
#488 = EDGE_LOOP('',(#489,#490,#498,#506,#514,#522,#530,#538,#544));
#489 = ORIENTED_EDGE('',*,*,#295,.F.);
#490 = ORIENTED_EDGE('',*,*,#491,.T.);
#491 = EDGE_CURVE('',#287,#492,#494,.T.);
#492 = VERTEX_POINT('',#493);
#493 = CARTESIAN_POINT('',(15.,-13.5,-8.));
#494 = LINE('',#495,#496);
#495 = CARTESIAN_POINT('',(15.,-13.5,-9.));
#496 = VECTOR('',#497,1.);
#497 = DIRECTION('',(0.,0.,1.));
#498 = ORIENTED_EDGE('',*,*,#499,.T.);
#499 = EDGE_CURVE('',#492,#500,#502,.T.);
#500 = VERTEX_POINT('',#501);
#501 = CARTESIAN_POINT('',(13.5,-13.5,-8.));
#502 = LINE('',#503,#504);
#503 = CARTESIAN_POINT('',(18.,-13.5,-8.));
#504 = VECTOR('',#505,1.);
#505 = DIRECTION('',(-1.,0.,0.));
#506 = ORIENTED_EDGE('',*,*,#507,.F.);
#507 = EDGE_CURVE('',#508,#500,#510,.T.);
#508 = VERTEX_POINT('',#509);
#509 = CARTESIAN_POINT('',(13.5,-13.5,1.));
#510 = LINE('',#511,#512);
#511 = CARTESIAN_POINT('',(13.5,-13.5,0.));
#512 = VECTOR('',#513,1.);
#513 = DIRECTION('',(0.,0.,-1.));
#514 = ORIENTED_EDGE('',*,*,#515,.F.);
#515 = EDGE_CURVE('',#516,#508,#518,.T.);
#516 = VERTEX_POINT('',#517);
#517 = CARTESIAN_POINT('',(-13.34168760482,-13.5,1.));
#518 = LINE('',#519,#520);
#519 = CARTESIAN_POINT('',(-13.5,-13.5,1.));
#520 = VECTOR('',#521,1.);
#521 = DIRECTION('',(1.,0.,0.));
#522 = ORIENTED_EDGE('',*,*,#523,.T.);
#523 = EDGE_CURVE('',#516,#524,#526,.T.);
#524 = VERTEX_POINT('',#525);
#525 = CARTESIAN_POINT('',(-13.34168760482,-13.5,-8.));
#526 = LINE('',#527,#528);
#527 = CARTESIAN_POINT('',(-13.34168760482,-13.5,-8.));
#528 = VECTOR('',#529,1.);
#529 = DIRECTION('',(-0.,-0.,-1.));
#530 = ORIENTED_EDGE('',*,*,#531,.F.);
#531 = EDGE_CURVE('',#532,#524,#534,.T.);
#532 = VERTEX_POINT('',#533);
#533 = CARTESIAN_POINT('',(-13.,-13.5,-8.));
#534 = LINE('',#535,#536);
#535 = CARTESIAN_POINT('',(3.675293328149E-12,-13.5,-8.));
#536 = VECTOR('',#537,1.);
#537 = DIRECTION('',(-1.,0.,0.));
#538 = ORIENTED_EDGE('',*,*,#539,.T.);
#539 = EDGE_CURVE('',#532,#445,#540,.T.);
#540 = LINE('',#541,#542);
#541 = CARTESIAN_POINT('',(-6.800197076633,-13.5,-8.));
#542 = VECTOR('',#543,1.);
#543 = DIRECTION('',(1.,0.,0.));
#544 = ORIENTED_EDGE('',*,*,#452,.F.);
#545 = PLANE('',#546);
#546 = AXIS2_PLACEMENT_3D('',#547,#548,#549);
#547 = CARTESIAN_POINT('',(1.768072289157,-13.5,-4.481927710843));
#548 = DIRECTION('',(-0.,-1.,-0.));
#549 = DIRECTION('',(0.,0.,-1.));
#550 = ADVANCED_FACE('',(#551),#570,.T.);
#551 = FACE_BOUND('',#552,.F.);
#552 = EDGE_LOOP('',(#553,#554,#562,#569));
#553 = ORIENTED_EDGE('',*,*,#39,.T.);
#554 = ORIENTED_EDGE('',*,*,#555,.T.);
#555 = EDGE_CURVE('',#40,#556,#558,.T.);
#556 = VERTEX_POINT('',#557);
#557 = CARTESIAN_POINT('',(-18.,-11.5,-8.));
#558 = LINE('',#559,#560);
#559 = CARTESIAN_POINT('',(-18.,-11.5,-9.));
#560 = VECTOR('',#561,1.);
#561 = DIRECTION('',(0.,0.,1.));
#562 = ORIENTED_EDGE('',*,*,#563,.F.);
#563 = EDGE_CURVE('',#469,#556,#564,.T.);
#564 = CIRCLE('',#565,3.);
#565 = AXIS2_PLACEMENT_3D('',#566,#567,#568);
#566 = CARTESIAN_POINT('',(-15.,-11.5,-8.));
#567 = DIRECTION('',(-0.,-0.,-1.));
#568 = DIRECTION('',(0.,-1.,0.));
#569 = ORIENTED_EDGE('',*,*,#476,.F.);
#570 = CYLINDRICAL_SURFACE('',#571,3.);
#571 = AXIS2_PLACEMENT_3D('',#572,#573,#574);
#572 = CARTESIAN_POINT('',(-15.,-11.5,-9.));
#573 = DIRECTION('',(0.,0.,1.));
#574 = DIRECTION('',(0.,-1.,0.));
#575 = ADVANCED_FACE('',(#576),#595,.T.);
#576 = FACE_BOUND('',#577,.F.);
#577 = EDGE_LOOP('',(#578,#579,#580,#589));
#578 = ORIENTED_EDGE('',*,*,#286,.T.);
#579 = ORIENTED_EDGE('',*,*,#491,.T.);
#580 = ORIENTED_EDGE('',*,*,#581,.F.);
#581 = EDGE_CURVE('',#582,#492,#584,.T.);
#582 = VERTEX_POINT('',#583);
#583 = CARTESIAN_POINT('',(18.,-10.5,-8.));
#584 = CIRCLE('',#585,3.);
#585 = AXIS2_PLACEMENT_3D('',#586,#587,#588);
#586 = CARTESIAN_POINT('',(15.,-10.5,-8.));
#587 = DIRECTION('',(-0.,-0.,-1.));
#588 = DIRECTION('',(0.,-1.,0.));
#589 = ORIENTED_EDGE('',*,*,#590,.F.);
#590 = EDGE_CURVE('',#279,#582,#591,.T.);
#591 = LINE('',#592,#593);
#592 = CARTESIAN_POINT('',(18.,-10.5,-9.));
#593 = VECTOR('',#594,1.);
#594 = DIRECTION('',(0.,0.,1.));
#595 = CYLINDRICAL_SURFACE('',#596,3.);
#596 = AXIS2_PLACEMENT_3D('',#597,#598,#599);
#597 = CARTESIAN_POINT('',(15.,-10.5,-9.));
#598 = DIRECTION('',(0.,0.,1.));
#599 = DIRECTION('',(1.,0.,0.));
#600 = ADVANCED_FACE('',(#601),#619,.T.);
#601 = FACE_BOUND('',#602,.T.);
#602 = EDGE_LOOP('',(#603,#604,#605,#613));
#603 = ORIENTED_EDGE('',*,*,#48,.F.);
#604 = ORIENTED_EDGE('',*,*,#555,.T.);
#605 = ORIENTED_EDGE('',*,*,#606,.T.);
#606 = EDGE_CURVE('',#556,#607,#609,.T.);
#607 = VERTEX_POINT('',#608);
#608 = CARTESIAN_POINT('',(-18.,-10.5,-8.));
#609 = LINE('',#610,#611);
#610 = CARTESIAN_POINT('',(-18.,-14.5,-8.));
#611 = VECTOR('',#612,1.);
#612 = DIRECTION('',(0.,1.,0.));
#613 = ORIENTED_EDGE('',*,*,#614,.F.);
#614 = EDGE_CURVE('',#49,#607,#615,.T.);
#615 = LINE('',#616,#617);
#616 = CARTESIAN_POINT('',(-18.,-10.5,-9.));
#617 = VECTOR('',#618,1.);
#618 = DIRECTION('',(0.,0.,1.));
#619 = PLANE('',#620);
#620 = AXIS2_PLACEMENT_3D('',#621,#622,#623);
#621 = CARTESIAN_POINT('',(-18.,-14.5,-9.));
#622 = DIRECTION('',(-1.,0.,0.));
#623 = DIRECTION('',(0.,1.,0.));
#624 = ADVANCED_FACE('',(#625),#643,.T.);
#625 = FACE_BOUND('',#626,.T.);
#626 = EDGE_LOOP('',(#627,#628,#636,#642));
#627 = ORIENTED_EDGE('',*,*,#278,.F.);
#628 = ORIENTED_EDGE('',*,*,#629,.T.);
#629 = EDGE_CURVE('',#270,#630,#632,.T.);
#630 = VERTEX_POINT('',#631);
#631 = CARTESIAN_POINT('',(18.,-9.5,-8.));
#632 = LINE('',#633,#634);
#633 = CARTESIAN_POINT('',(18.,-9.5,-9.));
#634 = VECTOR('',#635,1.);
#635 = DIRECTION('',(0.,0.,1.));
#636 = ORIENTED_EDGE('',*,*,#637,.T.);
#637 = EDGE_CURVE('',#630,#582,#638,.T.);
#638 = LINE('',#639,#640);
#639 = CARTESIAN_POINT('',(18.,-6.5,-8.));
#640 = VECTOR('',#641,1.);
#641 = DIRECTION('',(0.,-1.,0.));
#642 = ORIENTED_EDGE('',*,*,#590,.F.);
#643 = PLANE('',#644);
#644 = AXIS2_PLACEMENT_3D('',#645,#646,#647);
#645 = CARTESIAN_POINT('',(18.,-6.5,-9.));
#646 = DIRECTION('',(1.,0.,0.));
#647 = DIRECTION('',(0.,-1.,0.));
#648 = ADVANCED_FACE('',(#649),#668,.T.);
#649 = FACE_BOUND('',#650,.F.);
#650 = EDGE_LOOP('',(#651,#652,#660,#667));
#651 = ORIENTED_EDGE('',*,*,#56,.T.);
#652 = ORIENTED_EDGE('',*,*,#653,.T.);
#653 = EDGE_CURVE('',#57,#654,#656,.T.);
#654 = VERTEX_POINT('',#655);
#655 = CARTESIAN_POINT('',(-15.,-7.5,-8.));
#656 = LINE('',#657,#658);
#657 = CARTESIAN_POINT('',(-15.,-7.5,-9.));
#658 = VECTOR('',#659,1.);
#659 = DIRECTION('',(0.,0.,1.));
#660 = ORIENTED_EDGE('',*,*,#661,.F.);
#661 = EDGE_CURVE('',#607,#654,#662,.T.);
#662 = CIRCLE('',#663,3.);
#663 = AXIS2_PLACEMENT_3D('',#664,#665,#666);
#664 = CARTESIAN_POINT('',(-15.,-10.5,-8.));
#665 = DIRECTION('',(-0.,-0.,-1.));
#666 = DIRECTION('',(0.,-1.,0.));
#667 = ORIENTED_EDGE('',*,*,#614,.F.);
#668 = CYLINDRICAL_SURFACE('',#669,3.);
#669 = AXIS2_PLACEMENT_3D('',#670,#671,#672);
#670 = CARTESIAN_POINT('',(-15.,-10.5,-9.));
#671 = DIRECTION('',(0.,0.,1.));
#672 = DIRECTION('',(-1.,0.,0.));
#673 = ADVANCED_FACE('',(#674),#693,.T.);
#674 = FACE_BOUND('',#675,.F.);
#675 = EDGE_LOOP('',(#676,#677,#678,#687));
#676 = ORIENTED_EDGE('',*,*,#269,.T.);
#677 = ORIENTED_EDGE('',*,*,#629,.T.);
#678 = ORIENTED_EDGE('',*,*,#679,.F.);
#679 = EDGE_CURVE('',#680,#630,#682,.T.);
#680 = VERTEX_POINT('',#681);
#681 = CARTESIAN_POINT('',(15.,-6.5,-8.));
#682 = CIRCLE('',#683,3.);
#683 = AXIS2_PLACEMENT_3D('',#684,#685,#686);
#684 = CARTESIAN_POINT('',(15.,-9.5,-8.));
#685 = DIRECTION('',(-0.,-0.,-1.));
#686 = DIRECTION('',(0.,-1.,0.));
#687 = ORIENTED_EDGE('',*,*,#688,.F.);
#688 = EDGE_CURVE('',#262,#680,#689,.T.);
#689 = LINE('',#690,#691);
#690 = CARTESIAN_POINT('',(15.,-6.5,-9.));
#691 = VECTOR('',#692,1.);
#692 = DIRECTION('',(0.,0.,1.));
#693 = CYLINDRICAL_SURFACE('',#694,3.);
#694 = AXIS2_PLACEMENT_3D('',#695,#696,#697);
#695 = CARTESIAN_POINT('',(15.,-9.5,-9.));
#696 = DIRECTION('',(0.,0.,1.));
#697 = DIRECTION('',(0.,1.,0.));
#698 = ADVANCED_FACE('',(#699),#717,.T.);
#699 = FACE_BOUND('',#700,.T.);
#700 = EDGE_LOOP('',(#701,#702,#703,#711));
#701 = ORIENTED_EDGE('',*,*,#65,.F.);
#702 = ORIENTED_EDGE('',*,*,#653,.T.);
#703 = ORIENTED_EDGE('',*,*,#704,.T.);
#704 = EDGE_CURVE('',#654,#705,#707,.T.);
#705 = VERTEX_POINT('',#706);
#706 = CARTESIAN_POINT('',(-13.5,-7.5,-8.));
#707 = LINE('',#708,#709);
#708 = CARTESIAN_POINT('',(-18.,-7.5,-8.));
#709 = VECTOR('',#710,1.);
#710 = DIRECTION('',(1.,0.,0.));
#711 = ORIENTED_EDGE('',*,*,#712,.T.);
#712 = EDGE_CURVE('',#705,#66,#713,.T.);
#713 = LINE('',#714,#715);
#714 = CARTESIAN_POINT('',(-13.5,-7.5,-6.5));
#715 = VECTOR('',#716,1.);
#716 = DIRECTION('',(0.,0.,-1.));
#717 = PLANE('',#718);
#718 = AXIS2_PLACEMENT_3D('',#719,#720,#721);
#719 = CARTESIAN_POINT('',(-18.,-7.5,-9.));
#720 = DIRECTION('',(0.,1.,0.));
#721 = DIRECTION('',(1.,0.,0.));
#722 = ADVANCED_FACE('',(#723),#741,.T.);
#723 = FACE_BOUND('',#724,.T.);
#724 = EDGE_LOOP('',(#725,#726,#734,#740));
#725 = ORIENTED_EDGE('',*,*,#261,.F.);
#726 = ORIENTED_EDGE('',*,*,#727,.T.);
#727 = EDGE_CURVE('',#254,#728,#730,.T.);
#728 = VERTEX_POINT('',#729);
#729 = CARTESIAN_POINT('',(13.5,-6.5,-8.));
#730 = LINE('',#731,#732);
#731 = CARTESIAN_POINT('',(13.5,-6.5,-6.5));
#732 = VECTOR('',#733,1.);
#733 = DIRECTION('',(0.,0.,1.));
#734 = ORIENTED_EDGE('',*,*,#735,.T.);
#735 = EDGE_CURVE('',#728,#680,#736,.T.);
#736 = LINE('',#737,#738);
#737 = CARTESIAN_POINT('',(13.,-6.5,-8.));
#738 = VECTOR('',#739,1.);
#739 = DIRECTION('',(1.,0.,0.));
#740 = ORIENTED_EDGE('',*,*,#688,.F.);
#741 = PLANE('',#742);
#742 = AXIS2_PLACEMENT_3D('',#743,#744,#745);
#743 = CARTESIAN_POINT('',(13.,-6.5,-9.));
#744 = DIRECTION('',(0.,1.,0.));
#745 = DIRECTION('',(1.,0.,0.));
#746 = ADVANCED_FACE('',(#747),#797,.T.);
#747 = FACE_BOUND('',#748,.T.);
#748 = EDGE_LOOP('',(#749,#759,#767,#775,#781,#782,#783,#791));
#749 = ORIENTED_EDGE('',*,*,#750,.F.);
#750 = EDGE_CURVE('',#751,#753,#755,.T.);
#751 = VERTEX_POINT('',#752);
#752 = CARTESIAN_POINT('',(-13.5,8.401923788647,1.));
#753 = VERTEX_POINT('',#754);
#754 = CARTESIAN_POINT('',(-13.5,-8.401923788647,1.));
#755 = LINE('',#756,#757);
#756 = CARTESIAN_POINT('',(-13.5,13.5,1.));
#757 = VECTOR('',#758,1.);
#758 = DIRECTION('',(0.,-1.,0.));
#759 = ORIENTED_EDGE('',*,*,#760,.T.);
#760 = EDGE_CURVE('',#751,#761,#763,.T.);
#761 = VERTEX_POINT('',#762);
#762 = CARTESIAN_POINT('',(-13.5,8.401923788647,-8.));
#763 = LINE('',#764,#765);
#764 = CARTESIAN_POINT('',(-13.5,8.401923788647,-8.));
#765 = VECTOR('',#766,1.);
#766 = DIRECTION('',(-0.,-0.,-1.));
#767 = ORIENTED_EDGE('',*,*,#768,.F.);
#768 = EDGE_CURVE('',#769,#761,#771,.T.);
#769 = VERTEX_POINT('',#770);
#770 = CARTESIAN_POINT('',(-13.5,7.5,-8.));
#771 = LINE('',#772,#773);
#772 = CARTESIAN_POINT('',(-13.5,4.523320712859E-12,-8.));
#773 = VECTOR('',#774,1.);
#774 = DIRECTION('',(0.,1.,0.));
#775 = ORIENTED_EDGE('',*,*,#776,.F.);
#776 = EDGE_CURVE('',#74,#769,#777,.T.);
#777 = LINE('',#778,#779);
#778 = CARTESIAN_POINT('',(-13.5,7.5,-6.5));
#779 = VECTOR('',#780,1.);
#780 = DIRECTION('',(0.,0.,1.));
#781 = ORIENTED_EDGE('',*,*,#73,.F.);
#782 = ORIENTED_EDGE('',*,*,#712,.F.);
#783 = ORIENTED_EDGE('',*,*,#784,.F.);
#784 = EDGE_CURVE('',#785,#705,#787,.T.);
#785 = VERTEX_POINT('',#786);
#786 = CARTESIAN_POINT('',(-13.5,-8.401923788647,-8.));
#787 = LINE('',#788,#789);
#788 = CARTESIAN_POINT('',(-13.5,4.523320712859E-12,-8.));
#789 = VECTOR('',#790,1.);
#790 = DIRECTION('',(0.,1.,0.));
#791 = ORIENTED_EDGE('',*,*,#792,.F.);
#792 = EDGE_CURVE('',#753,#785,#793,.T.);
#793 = LINE('',#794,#795);
#794 = CARTESIAN_POINT('',(-13.5,-8.401923788647,-8.));
#795 = VECTOR('',#796,1.);
#796 = DIRECTION('',(-0.,-0.,-1.));
#797 = PLANE('',#798);
#798 = AXIS2_PLACEMENT_3D('',#799,#800,#801);
#799 = CARTESIAN_POINT('',(-13.5,0.,-4.));
#800 = DIRECTION('',(-1.,-0.,-0.));
#801 = DIRECTION('',(0.,0.,-1.));
#802 = ADVANCED_FACE('',(#803),#876,.T.);
#803 = FACE_BOUND('',#804,.T.);
#804 = EDGE_LOOP('',(#805,#815,#823,#829,#830,#831,#839,#847,#853,#854,
    #862,#870));
#805 = ORIENTED_EDGE('',*,*,#806,.F.);
#806 = EDGE_CURVE('',#807,#809,#811,.T.);
#807 = VERTEX_POINT('',#808);
#808 = CARTESIAN_POINT('',(13.5,-7.401923788647,1.));
#809 = VERTEX_POINT('',#810);
#810 = CARTESIAN_POINT('',(13.5,7.401923788647,1.));
#811 = LINE('',#812,#813);
#812 = CARTESIAN_POINT('',(13.5,-13.5,1.));
#813 = VECTOR('',#814,1.);
#814 = DIRECTION('',(0.,1.,0.));
#815 = ORIENTED_EDGE('',*,*,#816,.T.);
#816 = EDGE_CURVE('',#807,#817,#819,.T.);
#817 = VERTEX_POINT('',#818);
#818 = CARTESIAN_POINT('',(13.5,-7.401923788647,-8.));
#819 = LINE('',#820,#821);
#820 = CARTESIAN_POINT('',(13.5,-7.401923788647,-8.));
#821 = VECTOR('',#822,1.);
#822 = DIRECTION('',(-0.,-0.,-1.));
#823 = ORIENTED_EDGE('',*,*,#824,.F.);
#824 = EDGE_CURVE('',#728,#817,#825,.T.);
#825 = LINE('',#826,#827);
#826 = CARTESIAN_POINT('',(13.5,4.523320712859E-12,-8.));
#827 = VECTOR('',#828,1.);
#828 = DIRECTION('',(0.,-1.,0.));
#829 = ORIENTED_EDGE('',*,*,#727,.F.);
#830 = ORIENTED_EDGE('',*,*,#253,.F.);
#831 = ORIENTED_EDGE('',*,*,#832,.F.);
#832 = EDGE_CURVE('',#833,#246,#835,.T.);
#833 = VERTEX_POINT('',#834);
#834 = CARTESIAN_POINT('',(13.5,-5.,-3.));
#835 = LINE('',#836,#837);
#836 = CARTESIAN_POINT('',(13.5,-5.,-3.));
#837 = VECTOR('',#838,1.);
#838 = DIRECTION('',(0.,0.,-1.));
#839 = ORIENTED_EDGE('',*,*,#840,.F.);
#840 = EDGE_CURVE('',#841,#833,#843,.T.);
#841 = VERTEX_POINT('',#842);
#842 = CARTESIAN_POINT('',(13.5,5.,-3.));
#843 = LINE('',#844,#845);
#844 = CARTESIAN_POINT('',(13.5,5.,-3.));
#845 = VECTOR('',#846,1.);
#846 = DIRECTION('',(0.,-1.,0.));
#847 = ORIENTED_EDGE('',*,*,#848,.F.);
#848 = EDGE_CURVE('',#190,#841,#849,.T.);
#849 = LINE('',#850,#851);
#850 = CARTESIAN_POINT('',(13.5,5.,-9.));
#851 = VECTOR('',#852,1.);
#852 = DIRECTION('',(0.,0.,1.));
#853 = ORIENTED_EDGE('',*,*,#189,.F.);
#854 = ORIENTED_EDGE('',*,*,#855,.F.);
#855 = EDGE_CURVE('',#856,#182,#858,.T.);
#856 = VERTEX_POINT('',#857);
#857 = CARTESIAN_POINT('',(13.5,6.5,-8.));
#858 = LINE('',#859,#860);
#859 = CARTESIAN_POINT('',(13.5,6.5,-6.5));
#860 = VECTOR('',#861,1.);
#861 = DIRECTION('',(0.,0.,-1.));
#862 = ORIENTED_EDGE('',*,*,#863,.F.);
#863 = EDGE_CURVE('',#864,#856,#866,.T.);
#864 = VERTEX_POINT('',#865);
#865 = CARTESIAN_POINT('',(13.5,7.401923788647,-8.));
#866 = LINE('',#867,#868);
#867 = CARTESIAN_POINT('',(13.5,4.523320712859E-12,-8.));
#868 = VECTOR('',#869,1.);
#869 = DIRECTION('',(0.,-1.,0.));
#870 = ORIENTED_EDGE('',*,*,#871,.F.);
#871 = EDGE_CURVE('',#809,#864,#872,.T.);
#872 = LINE('',#873,#874);
#873 = CARTESIAN_POINT('',(13.5,7.401923788647,-8.));
#874 = VECTOR('',#875,1.);
#875 = DIRECTION('',(-0.,-0.,-1.));
#876 = PLANE('',#877);
#877 = AXIS2_PLACEMENT_3D('',#878,#879,#880);
#878 = CARTESIAN_POINT('',(13.5,0.,-4.));
#879 = DIRECTION('',(1.,0.,0.));
#880 = DIRECTION('',(0.,0.,1.));
#881 = ADVANCED_FACE('',(#882),#900,.T.);
#882 = FACE_BOUND('',#883,.T.);
#883 = EDGE_LOOP('',(#884,#885,#886,#894));
#884 = ORIENTED_EDGE('',*,*,#81,.F.);
#885 = ORIENTED_EDGE('',*,*,#776,.T.);
#886 = ORIENTED_EDGE('',*,*,#887,.T.);
#887 = EDGE_CURVE('',#769,#888,#890,.T.);
#888 = VERTEX_POINT('',#889);
#889 = CARTESIAN_POINT('',(-15.,7.5,-8.));
#890 = LINE('',#891,#892);
#891 = CARTESIAN_POINT('',(-13.,7.5,-8.));
#892 = VECTOR('',#893,1.);
#893 = DIRECTION('',(-1.,0.,0.));
#894 = ORIENTED_EDGE('',*,*,#895,.F.);
#895 = EDGE_CURVE('',#82,#888,#896,.T.);
#896 = LINE('',#897,#898);
#897 = CARTESIAN_POINT('',(-15.,7.5,-9.));
#898 = VECTOR('',#899,1.);
#899 = DIRECTION('',(0.,0.,1.));
#900 = PLANE('',#901);
#901 = AXIS2_PLACEMENT_3D('',#902,#903,#904);
#902 = CARTESIAN_POINT('',(-13.,7.5,-9.));
#903 = DIRECTION('',(-0.,-1.,-0.));
#904 = DIRECTION('',(-1.,0.,0.));
#905 = ADVANCED_FACE('',(#906),#924,.F.);
#906 = FACE_BOUND('',#907,.F.);
#907 = EDGE_LOOP('',(#908,#909,#917,#923));
#908 = ORIENTED_EDGE('',*,*,#832,.F.);
#909 = ORIENTED_EDGE('',*,*,#910,.T.);
#910 = EDGE_CURVE('',#833,#911,#913,.T.);
#911 = VERTEX_POINT('',#912);
#912 = CARTESIAN_POINT('',(12.55,-5.,-3.));
#913 = LINE('',#914,#915);
#914 = CARTESIAN_POINT('',(13.5,-5.,-3.));
#915 = VECTOR('',#916,1.);
#916 = DIRECTION('',(-1.,-0.,-0.));
#917 = ORIENTED_EDGE('',*,*,#918,.F.);
#918 = EDGE_CURVE('',#238,#911,#919,.T.);
#919 = LINE('',#920,#921);
#920 = CARTESIAN_POINT('',(12.55,-5.,-1.5));
#921 = VECTOR('',#922,1.);
#922 = DIRECTION('',(0.,0.,1.));
#923 = ORIENTED_EDGE('',*,*,#245,.F.);
#924 = PLANE('',#925);
#925 = AXIS2_PLACEMENT_3D('',#926,#927,#928);
#926 = CARTESIAN_POINT('',(13.5,-5.,-3.));
#927 = DIRECTION('',(0.,-1.,0.));
#928 = DIRECTION('',(0.,0.,-1.));
#929 = ADVANCED_FACE('',(#930),#949,.T.);
#930 = FACE_BOUND('',#931,.F.);
#931 = EDGE_LOOP('',(#932,#933,#941,#948));
#932 = ORIENTED_EDGE('',*,*,#89,.T.);
#933 = ORIENTED_EDGE('',*,*,#934,.T.);
#934 = EDGE_CURVE('',#90,#935,#937,.T.);
#935 = VERTEX_POINT('',#936);
#936 = CARTESIAN_POINT('',(-18.,10.5,-8.));
#937 = LINE('',#938,#939);
#938 = CARTESIAN_POINT('',(-18.,10.5,-9.));
#939 = VECTOR('',#940,1.);
#940 = DIRECTION('',(0.,0.,1.));
#941 = ORIENTED_EDGE('',*,*,#942,.F.);
#942 = EDGE_CURVE('',#888,#935,#943,.T.);
#943 = CIRCLE('',#944,3.);
#944 = AXIS2_PLACEMENT_3D('',#945,#946,#947);
#945 = CARTESIAN_POINT('',(-15.,10.5,-8.));
#946 = DIRECTION('',(-0.,-0.,-1.));
#947 = DIRECTION('',(0.,-1.,0.));
#948 = ORIENTED_EDGE('',*,*,#895,.F.);
#949 = CYLINDRICAL_SURFACE('',#950,3.);
#950 = AXIS2_PLACEMENT_3D('',#951,#952,#953);
#951 = CARTESIAN_POINT('',(-15.,10.5,-9.));
#952 = DIRECTION('',(0.,0.,1.));
#953 = DIRECTION('',(0.,-1.,0.));
#954 = ADVANCED_FACE('',(#955),#1060,.T.);
#955 = FACE_BOUND('',#956,.T.);
#956 = EDGE_LOOP('',(#957,#967,#973,#974,#982,#988,#989,#990,#998,#1006,
    #1014,#1022,#1030,#1038,#1046,#1054));
#957 = ORIENTED_EDGE('',*,*,#958,.F.);
#958 = EDGE_CURVE('',#959,#961,#963,.T.);
#959 = VERTEX_POINT('',#960);
#960 = CARTESIAN_POINT('',(12.55,12.55,0.));
#961 = VERTEX_POINT('',#962);
#962 = CARTESIAN_POINT('',(12.55,11.731328969318,0.));
#963 = LINE('',#964,#965);
#964 = CARTESIAN_POINT('',(12.55,12.55,0.));
#965 = VECTOR('',#966,1.);
#966 = DIRECTION('',(0.,-1.,0.));
#967 = ORIENTED_EDGE('',*,*,#968,.T.);
#968 = EDGE_CURVE('',#959,#206,#969,.T.);
#969 = LINE('',#970,#971);
#970 = CARTESIAN_POINT('',(12.55,12.55,0.));
#971 = VECTOR('',#972,1.);
#972 = DIRECTION('',(0.,0.,-1.));
#973 = ORIENTED_EDGE('',*,*,#205,.T.);
#974 = ORIENTED_EDGE('',*,*,#975,.F.);
#975 = EDGE_CURVE('',#976,#198,#978,.T.);
#976 = VERTEX_POINT('',#977);
#977 = CARTESIAN_POINT('',(12.55,5.,-3.));
#978 = LINE('',#979,#980);
#979 = CARTESIAN_POINT('',(12.55,5.,-4.5));
#980 = VECTOR('',#981,1.);
#981 = DIRECTION('',(0.,0.,-1.));
#982 = ORIENTED_EDGE('',*,*,#983,.F.);
#983 = EDGE_CURVE('',#911,#976,#984,.T.);
#984 = LINE('',#985,#986);
#985 = CARTESIAN_POINT('',(12.55,8.775,-3.));
#986 = VECTOR('',#987,1.);
#987 = DIRECTION('',(0.,1.,0.));
#988 = ORIENTED_EDGE('',*,*,#918,.F.);
#989 = ORIENTED_EDGE('',*,*,#237,.T.);
#990 = ORIENTED_EDGE('',*,*,#991,.F.);
#991 = EDGE_CURVE('',#992,#230,#994,.T.);
#992 = VERTEX_POINT('',#993);
#993 = CARTESIAN_POINT('',(12.55,-12.55,0.));
#994 = LINE('',#995,#996);
#995 = CARTESIAN_POINT('',(12.55,-12.55,0.));
#996 = VECTOR('',#997,1.);
#997 = DIRECTION('',(0.,0.,-1.));
#998 = ORIENTED_EDGE('',*,*,#999,.F.);
#999 = EDGE_CURVE('',#1000,#992,#1002,.T.);
#1000 = VERTEX_POINT('',#1001);
#1001 = CARTESIAN_POINT('',(12.55,-11.73132896931,0.));
#1002 = LINE('',#1003,#1004);
#1003 = CARTESIAN_POINT('',(12.55,12.55,0.));
#1004 = VECTOR('',#1005,1.);
#1005 = DIRECTION('',(0.,-1.,0.));
#1006 = ORIENTED_EDGE('',*,*,#1007,.T.);
#1007 = EDGE_CURVE('',#1000,#1008,#1010,.T.);
#1008 = VERTEX_POINT('',#1009);
#1009 = CARTESIAN_POINT('',(12.55,-11.73132896931,-8.));
#1010 = LINE('',#1011,#1012);
#1011 = CARTESIAN_POINT('',(12.55,-11.73132896931,-8.));
#1012 = VECTOR('',#1013,1.);
#1013 = DIRECTION('',(-0.,-0.,-1.));
#1014 = ORIENTED_EDGE('',*,*,#1015,.T.);
#1015 = EDGE_CURVE('',#1008,#1016,#1018,.T.);
#1016 = VERTEX_POINT('',#1017);
#1017 = CARTESIAN_POINT('',(12.55,-8.268671030682,-8.));
#1018 = LINE('',#1019,#1020);
#1019 = CARTESIAN_POINT('',(12.55,6.275,-8.));
#1020 = VECTOR('',#1021,1.);
#1021 = DIRECTION('',(0.,1.,0.));
#1022 = ORIENTED_EDGE('',*,*,#1023,.F.);
#1023 = EDGE_CURVE('',#1024,#1016,#1026,.T.);
#1024 = VERTEX_POINT('',#1025);
#1025 = CARTESIAN_POINT('',(12.55,-8.268671030682,0.));
#1026 = LINE('',#1027,#1028);
#1027 = CARTESIAN_POINT('',(12.55,-8.268671030682,-8.));
#1028 = VECTOR('',#1029,1.);
#1029 = DIRECTION('',(-0.,-0.,-1.));
#1030 = ORIENTED_EDGE('',*,*,#1031,.F.);
#1031 = EDGE_CURVE('',#1032,#1024,#1034,.T.);
#1032 = VERTEX_POINT('',#1033);
#1033 = CARTESIAN_POINT('',(12.55,8.268671030682,0.));
#1034 = LINE('',#1035,#1036);
#1035 = CARTESIAN_POINT('',(12.55,12.55,0.));
#1036 = VECTOR('',#1037,1.);
#1037 = DIRECTION('',(0.,-1.,0.));
#1038 = ORIENTED_EDGE('',*,*,#1039,.T.);
#1039 = EDGE_CURVE('',#1032,#1040,#1042,.T.);
#1040 = VERTEX_POINT('',#1041);
#1041 = CARTESIAN_POINT('',(12.55,8.268671030682,-8.));
#1042 = LINE('',#1043,#1044);
#1043 = CARTESIAN_POINT('',(12.55,8.268671030682,-8.));
#1044 = VECTOR('',#1045,1.);
#1045 = DIRECTION('',(-0.,-0.,-1.));
#1046 = ORIENTED_EDGE('',*,*,#1047,.T.);
#1047 = EDGE_CURVE('',#1040,#1048,#1050,.T.);
#1048 = VERTEX_POINT('',#1049);
#1049 = CARTESIAN_POINT('',(12.55,11.731328969318,-8.));
#1050 = LINE('',#1051,#1052);
#1051 = CARTESIAN_POINT('',(12.55,6.275,-8.));
#1052 = VECTOR('',#1053,1.);
#1053 = DIRECTION('',(0.,1.,0.));
#1054 = ORIENTED_EDGE('',*,*,#1055,.F.);
#1055 = EDGE_CURVE('',#961,#1048,#1056,.T.);
#1056 = LINE('',#1057,#1058);
#1057 = CARTESIAN_POINT('',(12.55,11.731328969318,-8.));
#1058 = VECTOR('',#1059,1.);
#1059 = DIRECTION('',(-0.,-0.,-1.));
#1060 = PLANE('',#1061);
#1061 = AXIS2_PLACEMENT_3D('',#1062,#1063,#1064);
#1062 = CARTESIAN_POINT('',(12.55,12.55,0.));
#1063 = DIRECTION('',(-1.,-0.,-0.));
#1064 = DIRECTION('',(0.,-1.,0.));
#1065 = ADVANCED_FACE('',(#1066),#1084,.T.);
#1066 = FACE_BOUND('',#1067,.T.);
#1067 = EDGE_LOOP('',(#1068,#1069,#1070,#1078));
#1068 = ORIENTED_EDGE('',*,*,#98,.F.);
#1069 = ORIENTED_EDGE('',*,*,#934,.T.);
#1070 = ORIENTED_EDGE('',*,*,#1071,.T.);
#1071 = EDGE_CURVE('',#935,#1072,#1074,.T.);
#1072 = VERTEX_POINT('',#1073);
#1073 = CARTESIAN_POINT('',(-18.,11.5,-8.));
#1074 = LINE('',#1075,#1076);
#1075 = CARTESIAN_POINT('',(-18.,7.5,-8.));
#1076 = VECTOR('',#1077,1.);
#1077 = DIRECTION('',(0.,1.,0.));
#1078 = ORIENTED_EDGE('',*,*,#1079,.F.);
#1079 = EDGE_CURVE('',#99,#1072,#1080,.T.);
#1080 = LINE('',#1081,#1082);
#1081 = CARTESIAN_POINT('',(-18.,11.5,-9.));
#1082 = VECTOR('',#1083,1.);
#1083 = DIRECTION('',(0.,0.,1.));
#1084 = PLANE('',#1085);
#1085 = AXIS2_PLACEMENT_3D('',#1086,#1087,#1088);
#1086 = CARTESIAN_POINT('',(-18.,7.5,-9.));
#1087 = DIRECTION('',(-1.,0.,0.));
#1088 = DIRECTION('',(0.,1.,0.));
#1089 = ADVANCED_FACE('',(#1090),#1124,.T.);
#1090 = FACE_BOUND('',#1091,.T.);
#1091 = EDGE_LOOP('',(#1092,#1100,#1101,#1102,#1110,#1118));
#1092 = ORIENTED_EDGE('',*,*,#1093,.F.);
#1093 = EDGE_CURVE('',#992,#1094,#1096,.T.);
#1094 = VERTEX_POINT('',#1095);
#1095 = CARTESIAN_POINT('',(-12.43144009219,-12.55,0.));
#1096 = LINE('',#1097,#1098);
#1097 = CARTESIAN_POINT('',(12.55,-12.55,0.));
#1098 = VECTOR('',#1099,1.);
#1099 = DIRECTION('',(-1.,0.,0.));
#1100 = ORIENTED_EDGE('',*,*,#991,.T.);
#1101 = ORIENTED_EDGE('',*,*,#229,.T.);
#1102 = ORIENTED_EDGE('',*,*,#1103,.F.);
#1103 = EDGE_CURVE('',#1104,#222,#1106,.T.);
#1104 = VERTEX_POINT('',#1105);
#1105 = CARTESIAN_POINT('',(-12.55,-12.55,-8.));
#1106 = LINE('',#1107,#1108);
#1107 = CARTESIAN_POINT('',(-12.55,-12.55,0.));
#1108 = VECTOR('',#1109,1.);
#1109 = DIRECTION('',(0.,0.,-1.));
#1110 = ORIENTED_EDGE('',*,*,#1111,.T.);
#1111 = EDGE_CURVE('',#1104,#1112,#1114,.T.);
#1112 = VERTEX_POINT('',#1113);
#1113 = CARTESIAN_POINT('',(-12.43144009219,-12.55,-8.));
#1114 = LINE('',#1115,#1116);
#1115 = CARTESIAN_POINT('',(6.275,-12.55,-8.));
#1116 = VECTOR('',#1117,1.);
#1117 = DIRECTION('',(1.,0.,0.));
#1118 = ORIENTED_EDGE('',*,*,#1119,.F.);
#1119 = EDGE_CURVE('',#1094,#1112,#1120,.T.);
#1120 = LINE('',#1121,#1122);
#1121 = CARTESIAN_POINT('',(-12.43144009219,-12.55,-8.));
#1122 = VECTOR('',#1123,1.);
#1123 = DIRECTION('',(-0.,-0.,-1.));
#1124 = PLANE('',#1125);
#1125 = AXIS2_PLACEMENT_3D('',#1126,#1127,#1128);
#1126 = CARTESIAN_POINT('',(12.55,-12.55,0.));
#1127 = DIRECTION('',(0.,1.,0.));
#1128 = DIRECTION('',(-1.,0.,0.));
#1129 = ADVANCED_FACE('',(#1130),#1149,.T.);
#1130 = FACE_BOUND('',#1131,.F.);
#1131 = EDGE_LOOP('',(#1132,#1133,#1141,#1148));
#1132 = ORIENTED_EDGE('',*,*,#106,.T.);
#1133 = ORIENTED_EDGE('',*,*,#1134,.T.);
#1134 = EDGE_CURVE('',#107,#1135,#1137,.T.);
#1135 = VERTEX_POINT('',#1136);
#1136 = CARTESIAN_POINT('',(-15.,14.5,-8.));
#1137 = LINE('',#1138,#1139);
#1138 = CARTESIAN_POINT('',(-15.,14.5,-9.));
#1139 = VECTOR('',#1140,1.);
#1140 = DIRECTION('',(0.,0.,1.));
#1141 = ORIENTED_EDGE('',*,*,#1142,.F.);
#1142 = EDGE_CURVE('',#1072,#1135,#1143,.T.);
#1143 = CIRCLE('',#1144,3.);
#1144 = AXIS2_PLACEMENT_3D('',#1145,#1146,#1147);
#1145 = CARTESIAN_POINT('',(-15.,11.5,-8.));
#1146 = DIRECTION('',(-0.,-0.,-1.));
#1147 = DIRECTION('',(0.,-1.,0.));
#1148 = ORIENTED_EDGE('',*,*,#1079,.F.);
#1149 = CYLINDRICAL_SURFACE('',#1150,3.);
#1150 = AXIS2_PLACEMENT_3D('',#1151,#1152,#1153);
#1151 = CARTESIAN_POINT('',(-15.,11.5,-9.));
#1152 = DIRECTION('',(0.,0.,1.));
#1153 = DIRECTION('',(-1.,0.,0.));
#1154 = ADVANCED_FACE('',(#1155),#1205,.T.);
#1155 = FACE_BOUND('',#1156,.T.);
#1156 = EDGE_LOOP('',(#1157,#1165,#1166,#1167,#1175,#1183,#1191,#1199));
#1157 = ORIENTED_EDGE('',*,*,#1158,.T.);
#1158 = EDGE_CURVE('',#1159,#1104,#1161,.T.);
#1159 = VERTEX_POINT('',#1160);
#1160 = CARTESIAN_POINT('',(-12.55,-9.268671030682,-8.));
#1161 = LINE('',#1162,#1163);
#1162 = CARTESIAN_POINT('',(-12.55,-6.275,-8.));
#1163 = VECTOR('',#1164,1.);
#1164 = DIRECTION('',(0.,-1.,0.));
#1165 = ORIENTED_EDGE('',*,*,#1103,.T.);
#1166 = ORIENTED_EDGE('',*,*,#221,.T.);
#1167 = ORIENTED_EDGE('',*,*,#1168,.F.);
#1168 = EDGE_CURVE('',#1169,#214,#1171,.T.);
#1169 = VERTEX_POINT('',#1170);
#1170 = CARTESIAN_POINT('',(-12.55,12.55,-8.));
#1171 = LINE('',#1172,#1173);
#1172 = CARTESIAN_POINT('',(-12.55,12.55,0.));
#1173 = VECTOR('',#1174,1.);
#1174 = DIRECTION('',(0.,0.,-1.));
#1175 = ORIENTED_EDGE('',*,*,#1176,.T.);
#1176 = EDGE_CURVE('',#1169,#1177,#1179,.T.);
#1177 = VERTEX_POINT('',#1178);
#1178 = CARTESIAN_POINT('',(-12.55,9.268671030682,-8.));
#1179 = LINE('',#1180,#1181);
#1180 = CARTESIAN_POINT('',(-12.55,-6.275,-8.));
#1181 = VECTOR('',#1182,1.);
#1182 = DIRECTION('',(0.,-1.,0.));
#1183 = ORIENTED_EDGE('',*,*,#1184,.F.);
#1184 = EDGE_CURVE('',#1185,#1177,#1187,.T.);
#1185 = VERTEX_POINT('',#1186);
#1186 = CARTESIAN_POINT('',(-12.55,9.268671030682,0.));
#1187 = LINE('',#1188,#1189);
#1188 = CARTESIAN_POINT('',(-12.55,9.268671030682,-8.));
#1189 = VECTOR('',#1190,1.);
#1190 = DIRECTION('',(-0.,-0.,-1.));
#1191 = ORIENTED_EDGE('',*,*,#1192,.F.);
#1192 = EDGE_CURVE('',#1193,#1185,#1195,.T.);
#1193 = VERTEX_POINT('',#1194);
#1194 = CARTESIAN_POINT('',(-12.55,-9.268671030682,0.));
#1195 = LINE('',#1196,#1197);
#1196 = CARTESIAN_POINT('',(-12.55,-12.55,0.));
#1197 = VECTOR('',#1198,1.);
#1198 = DIRECTION('',(0.,1.,0.));
#1199 = ORIENTED_EDGE('',*,*,#1200,.T.);
#1200 = EDGE_CURVE('',#1193,#1159,#1201,.T.);
#1201 = LINE('',#1202,#1203);
#1202 = CARTESIAN_POINT('',(-12.55,-9.268671030682,-8.));
#1203 = VECTOR('',#1204,1.);
#1204 = DIRECTION('',(-0.,-0.,-1.));
#1205 = PLANE('',#1206);
#1206 = AXIS2_PLACEMENT_3D('',#1207,#1208,#1209);
#1207 = CARTESIAN_POINT('',(-12.55,-12.55,0.));
#1208 = DIRECTION('',(1.,0.,0.));
#1209 = DIRECTION('',(0.,1.,0.));
#1210 = ADVANCED_FACE('',(#1211),#1229,.T.);
#1211 = FACE_BOUND('',#1212,.T.);
#1212 = EDGE_LOOP('',(#1213,#1214,#1215,#1223));
#1213 = ORIENTED_EDGE('',*,*,#115,.F.);
#1214 = ORIENTED_EDGE('',*,*,#1134,.T.);
#1215 = ORIENTED_EDGE('',*,*,#1216,.T.);
#1216 = EDGE_CURVE('',#1135,#1217,#1219,.T.);
#1217 = VERTEX_POINT('',#1218);
#1218 = CARTESIAN_POINT('',(-13.,14.5,-8.));
#1219 = LINE('',#1220,#1221);
#1220 = CARTESIAN_POINT('',(-18.,14.5,-8.));
#1221 = VECTOR('',#1222,1.);
#1222 = DIRECTION('',(1.,0.,0.));
#1223 = ORIENTED_EDGE('',*,*,#1224,.F.);
#1224 = EDGE_CURVE('',#116,#1217,#1225,.T.);
#1225 = LINE('',#1226,#1227);
#1226 = CARTESIAN_POINT('',(-13.,14.5,-9.));
#1227 = VECTOR('',#1228,1.);
#1228 = DIRECTION('',(0.,0.,1.));
#1229 = PLANE('',#1230);
#1230 = AXIS2_PLACEMENT_3D('',#1231,#1232,#1233);
#1231 = CARTESIAN_POINT('',(-18.,14.5,-9.));
#1232 = DIRECTION('',(0.,1.,0.));
#1233 = DIRECTION('',(1.,0.,0.));
#1234 = ADVANCED_FACE('',(#1235),#1262,.T.);
#1235 = FACE_BOUND('',#1236,.T.);
#1236 = EDGE_LOOP('',(#1237,#1245,#1246,#1247,#1248,#1256));
#1237 = ORIENTED_EDGE('',*,*,#1238,.T.);
#1238 = EDGE_CURVE('',#1239,#1169,#1241,.T.);
#1239 = VERTEX_POINT('',#1240);
#1240 = CARTESIAN_POINT('',(-12.43144009219,12.55,-8.));
#1241 = LINE('',#1242,#1243);
#1242 = CARTESIAN_POINT('',(-6.275,12.55,-8.));
#1243 = VECTOR('',#1244,1.);
#1244 = DIRECTION('',(-1.,0.,0.));
#1245 = ORIENTED_EDGE('',*,*,#1168,.T.);
#1246 = ORIENTED_EDGE('',*,*,#213,.T.);
#1247 = ORIENTED_EDGE('',*,*,#968,.F.);
#1248 = ORIENTED_EDGE('',*,*,#1249,.F.);
#1249 = EDGE_CURVE('',#1250,#959,#1252,.T.);
#1250 = VERTEX_POINT('',#1251);
#1251 = CARTESIAN_POINT('',(-12.43144009219,12.55,0.));
#1252 = LINE('',#1253,#1254);
#1253 = CARTESIAN_POINT('',(-12.55,12.55,0.));
#1254 = VECTOR('',#1255,1.);
#1255 = DIRECTION('',(1.,0.,0.));
#1256 = ORIENTED_EDGE('',*,*,#1257,.T.);
#1257 = EDGE_CURVE('',#1250,#1239,#1258,.T.);
#1258 = LINE('',#1259,#1260);
#1259 = CARTESIAN_POINT('',(-12.43144009219,12.55,-8.));
#1260 = VECTOR('',#1261,1.);
#1261 = DIRECTION('',(-0.,-0.,-1.));
#1262 = PLANE('',#1263);
#1263 = AXIS2_PLACEMENT_3D('',#1264,#1265,#1266);
#1264 = CARTESIAN_POINT('',(-12.55,12.55,0.));
#1265 = DIRECTION('',(0.,-1.,0.));
#1266 = DIRECTION('',(1.,0.,0.));
#1267 = ADVANCED_FACE('',(#1268),#1286,.T.);
#1268 = FACE_BOUND('',#1269,.T.);
#1269 = EDGE_LOOP('',(#1270,#1271,#1272,#1280));
#1270 = ORIENTED_EDGE('',*,*,#123,.F.);
#1271 = ORIENTED_EDGE('',*,*,#1224,.T.);
#1272 = ORIENTED_EDGE('',*,*,#1273,.T.);
#1273 = EDGE_CURVE('',#1217,#1274,#1276,.T.);
#1274 = VERTEX_POINT('',#1275);
#1275 = CARTESIAN_POINT('',(-13.,14.490000000002,-8.));
#1276 = LINE('',#1277,#1278);
#1277 = CARTESIAN_POINT('',(-13.,14.5,-8.));
#1278 = VECTOR('',#1279,1.);
#1279 = DIRECTION('',(0.,-1.,0.));
#1280 = ORIENTED_EDGE('',*,*,#1281,.T.);
#1281 = EDGE_CURVE('',#1274,#124,#1282,.T.);
#1282 = LINE('',#1283,#1284);
#1283 = CARTESIAN_POINT('',(-13.,14.490000000002,-8.));
#1284 = VECTOR('',#1285,1.);
#1285 = DIRECTION('',(0.,0.,-1.));
#1286 = PLANE('',#1287);
#1287 = AXIS2_PLACEMENT_3D('',#1288,#1289,#1290);
#1288 = CARTESIAN_POINT('',(-13.,14.5,-9.));
#1289 = DIRECTION('',(1.,0.,0.));
#1290 = DIRECTION('',(0.,-1.,0.));
#1291 = ADVANCED_FACE('',(#1292),#1310,.F.);
#1292 = FACE_BOUND('',#1293,.F.);
#1293 = EDGE_LOOP('',(#1294,#1302,#1303,#1304));
#1294 = ORIENTED_EDGE('',*,*,#1295,.F.);
#1295 = EDGE_CURVE('',#1274,#1296,#1298,.T.);
#1296 = VERTEX_POINT('',#1297);
#1297 = CARTESIAN_POINT('',(-12.01,13.500000000003,-8.));
#1298 = LINE('',#1299,#1300);
#1299 = CARTESIAN_POINT('',(-12.49857876393,13.988578763941,-8.));
#1300 = VECTOR('',#1301,1.);
#1301 = DIRECTION('',(0.707106781187,-0.707106781186,0.));
#1302 = ORIENTED_EDGE('',*,*,#1281,.T.);
#1303 = ORIENTED_EDGE('',*,*,#131,.T.);
#1304 = ORIENTED_EDGE('',*,*,#1305,.F.);
#1305 = EDGE_CURVE('',#1296,#132,#1306,.T.);
#1306 = LINE('',#1307,#1308);
#1307 = CARTESIAN_POINT('',(-12.01,13.500000000003,-8.));
#1308 = VECTOR('',#1309,1.);
#1309 = DIRECTION('',(0.,0.,-1.));
#1310 = PLANE('',#1311);
#1311 = AXIS2_PLACEMENT_3D('',#1312,#1313,#1314);
#1312 = CARTESIAN_POINT('',(-12.505,13.995000000003,-8.));
#1313 = DIRECTION('',(-0.707106781186,-0.707106781187,
    -3.894953350512E-13));
#1314 = DIRECTION('',(2.754147926552E-13,2.754147926553E-13,-1.));
#1315 = ADVANCED_FACE('',(#1316),#1327,.F.);
#1316 = FACE_BOUND('',#1317,.F.);
#1317 = EDGE_LOOP('',(#1318,#1319,#1320,#1321));
#1318 = ORIENTED_EDGE('',*,*,#848,.F.);
#1319 = ORIENTED_EDGE('',*,*,#197,.T.);
#1320 = ORIENTED_EDGE('',*,*,#975,.F.);
#1321 = ORIENTED_EDGE('',*,*,#1322,.F.);
#1322 = EDGE_CURVE('',#841,#976,#1323,.T.);
#1323 = LINE('',#1324,#1325);
#1324 = CARTESIAN_POINT('',(13.5,5.,-3.));
#1325 = VECTOR('',#1326,1.);
#1326 = DIRECTION('',(-1.,-0.,-0.));
#1327 = PLANE('',#1328);
#1328 = AXIS2_PLACEMENT_3D('',#1329,#1330,#1331);
#1329 = CARTESIAN_POINT('',(13.5,5.,-9.));
#1330 = DIRECTION('',(0.,1.,0.));
#1331 = DIRECTION('',(0.,0.,1.));
#1332 = ADVANCED_FACE('',(#1333),#1392,.T.);
#1333 = FACE_BOUND('',#1334,.T.);
#1334 = EDGE_LOOP('',(#1335,#1336,#1337,#1345,#1353,#1361,#1369,#1377,
    #1385,#1391));
#1335 = ORIENTED_EDGE('',*,*,#139,.F.);
#1336 = ORIENTED_EDGE('',*,*,#1305,.F.);
#1337 = ORIENTED_EDGE('',*,*,#1338,.F.);
#1338 = EDGE_CURVE('',#1339,#1296,#1341,.T.);
#1339 = VERTEX_POINT('',#1340);
#1340 = CARTESIAN_POINT('',(-13.,13.5,-8.));
#1341 = LINE('',#1342,#1343);
#1342 = CARTESIAN_POINT('',(-6.800197076633,13.500000000004,-8.));
#1343 = VECTOR('',#1344,1.);
#1344 = DIRECTION('',(1.,2.038870038918E-13,0.));
#1345 = ORIENTED_EDGE('',*,*,#1346,.F.);
#1346 = EDGE_CURVE('',#1347,#1339,#1349,.T.);
#1347 = VERTEX_POINT('',#1348);
#1348 = CARTESIAN_POINT('',(-13.34168760482,13.5,-8.));
#1349 = LINE('',#1350,#1351);
#1350 = CARTESIAN_POINT('',(3.675293328149E-12,13.5,-8.));
#1351 = VECTOR('',#1352,1.);
#1352 = DIRECTION('',(1.,0.,0.));
#1353 = ORIENTED_EDGE('',*,*,#1354,.F.);
#1354 = EDGE_CURVE('',#1355,#1347,#1357,.T.);
#1355 = VERTEX_POINT('',#1356);
#1356 = CARTESIAN_POINT('',(-13.34168760482,13.5,1.));
#1357 = LINE('',#1358,#1359);
#1358 = CARTESIAN_POINT('',(-13.34168760482,13.500000000002,
    -7.999999999999));
#1359 = VECTOR('',#1360,1.);
#1360 = DIRECTION('',(-0.,-0.,-1.));
#1361 = ORIENTED_EDGE('',*,*,#1362,.F.);
#1362 = EDGE_CURVE('',#1363,#1355,#1365,.T.);
#1363 = VERTEX_POINT('',#1364);
#1364 = CARTESIAN_POINT('',(13.5,13.5,1.));
#1365 = LINE('',#1366,#1367);
#1366 = CARTESIAN_POINT('',(13.5,13.5,1.));
#1367 = VECTOR('',#1368,1.);
#1368 = DIRECTION('',(-1.,0.,0.));
#1369 = ORIENTED_EDGE('',*,*,#1370,.F.);
#1370 = EDGE_CURVE('',#1371,#1363,#1373,.T.);
#1371 = VERTEX_POINT('',#1372);
#1372 = CARTESIAN_POINT('',(13.5,13.500000000033,-8.));
#1373 = LINE('',#1374,#1375);
#1374 = CARTESIAN_POINT('',(13.5,13.5,0.));
#1375 = VECTOR('',#1376,1.);
#1376 = DIRECTION('',(0.,0.,1.));
#1377 = ORIENTED_EDGE('',*,*,#1378,.T.);
#1378 = EDGE_CURVE('',#1371,#1379,#1381,.T.);
#1379 = VERTEX_POINT('',#1380);
#1380 = CARTESIAN_POINT('',(14.999999999999,13.500000000009,-8.));
#1381 = LINE('',#1382,#1383);
#1382 = CARTESIAN_POINT('',(13.,13.500000000072,-8.));
#1383 = VECTOR('',#1384,1.);
#1384 = DIRECTION('',(1.,-1.449933506592E-11,0.));
#1385 = ORIENTED_EDGE('',*,*,#1386,.F.);
#1386 = EDGE_CURVE('',#148,#1379,#1387,.T.);
#1387 = LINE('',#1388,#1389);
#1388 = CARTESIAN_POINT('',(14.999999999999,13.500000000009,
    -9.000000000002));
#1389 = VECTOR('',#1390,1.);
#1390 = DIRECTION('',(0.,0.,1.));
#1391 = ORIENTED_EDGE('',*,*,#147,.F.);
#1392 = PLANE('',#1393);
#1393 = AXIS2_PLACEMENT_3D('',#1394,#1395,#1396);
#1394 = CARTESIAN_POINT('',(1.768072289157,13.500000000004,
    -4.481927710843));
#1395 = DIRECTION('',(-2.038870038918E-13,1.,5.508937665578E-13));
#1396 = DIRECTION('',(0.,-5.508937665578E-13,1.));
#1397 = ADVANCED_FACE('',(#1398),#1416,.T.);
#1398 = FACE_BOUND('',#1399,.T.);
#1399 = EDGE_LOOP('',(#1400,#1401,#1409,#1415));
#1400 = ORIENTED_EDGE('',*,*,#181,.F.);
#1401 = ORIENTED_EDGE('',*,*,#1402,.T.);
#1402 = EDGE_CURVE('',#173,#1403,#1405,.T.);
#1403 = VERTEX_POINT('',#1404);
#1404 = CARTESIAN_POINT('',(15.,6.5,-8.));
#1405 = LINE('',#1406,#1407);
#1406 = CARTESIAN_POINT('',(15.,6.5,-9.));
#1407 = VECTOR('',#1408,1.);
#1408 = DIRECTION('',(0.,0.,1.));
#1409 = ORIENTED_EDGE('',*,*,#1410,.T.);
#1410 = EDGE_CURVE('',#1403,#856,#1411,.T.);
#1411 = LINE('',#1412,#1413);
#1412 = CARTESIAN_POINT('',(18.,6.5,-8.));
#1413 = VECTOR('',#1414,1.);
#1414 = DIRECTION('',(-1.,0.,0.));
#1415 = ORIENTED_EDGE('',*,*,#855,.T.);
#1416 = PLANE('',#1417);
#1417 = AXIS2_PLACEMENT_3D('',#1418,#1419,#1420);
#1418 = CARTESIAN_POINT('',(18.,6.5,-9.));
#1419 = DIRECTION('',(-0.,-1.,-0.));
#1420 = DIRECTION('',(-1.,0.,0.));
#1421 = ADVANCED_FACE('',(#1422),#1441,.T.);
#1422 = FACE_BOUND('',#1423,.F.);
#1423 = EDGE_LOOP('',(#1424,#1425,#1433,#1440));
#1424 = ORIENTED_EDGE('',*,*,#155,.T.);
#1425 = ORIENTED_EDGE('',*,*,#1426,.T.);
#1426 = EDGE_CURVE('',#156,#1427,#1429,.T.);
#1427 = VERTEX_POINT('',#1428);
#1428 = CARTESIAN_POINT('',(18.,10.500000000009,-8.));
#1429 = LINE('',#1430,#1431);
#1430 = CARTESIAN_POINT('',(18.,10.500000000009,-9.000000000002));
#1431 = VECTOR('',#1432,1.);
#1432 = DIRECTION('',(0.,0.,1.));
#1433 = ORIENTED_EDGE('',*,*,#1434,.F.);
#1434 = EDGE_CURVE('',#1379,#1427,#1435,.T.);
#1435 = CIRCLE('',#1436,3.);
#1436 = AXIS2_PLACEMENT_3D('',#1437,#1438,#1439);
#1437 = CARTESIAN_POINT('',(15.,10.500000000009,-8.));
#1438 = DIRECTION('',(-0.,-0.,-1.));
#1439 = DIRECTION('',(0.,-1.,0.));
#1440 = ORIENTED_EDGE('',*,*,#1386,.F.);
#1441 = CYLINDRICAL_SURFACE('',#1442,3.);
#1442 = AXIS2_PLACEMENT_3D('',#1443,#1444,#1445);
#1443 = CARTESIAN_POINT('',(15.,10.500000000009,-9.000000000002));
#1444 = DIRECTION('',(0.,0.,1.));
#1445 = DIRECTION('',(-2.038870038918E-13,1.,0.));
#1446 = ADVANCED_FACE('',(#1447),#1466,.T.);
#1447 = FACE_BOUND('',#1448,.F.);
#1448 = EDGE_LOOP('',(#1449,#1450,#1451,#1460));
#1449 = ORIENTED_EDGE('',*,*,#172,.T.);
#1450 = ORIENTED_EDGE('',*,*,#1402,.T.);
#1451 = ORIENTED_EDGE('',*,*,#1452,.F.);
#1452 = EDGE_CURVE('',#1453,#1403,#1455,.T.);
#1453 = VERTEX_POINT('',#1454);
#1454 = CARTESIAN_POINT('',(18.,9.5,-8.));
#1455 = CIRCLE('',#1456,3.);
#1456 = AXIS2_PLACEMENT_3D('',#1457,#1458,#1459);
#1457 = CARTESIAN_POINT('',(15.,9.5,-8.));
#1458 = DIRECTION('',(-0.,-0.,-1.));
#1459 = DIRECTION('',(0.,-1.,0.));
#1460 = ORIENTED_EDGE('',*,*,#1461,.F.);
#1461 = EDGE_CURVE('',#165,#1453,#1462,.T.);
#1462 = LINE('',#1463,#1464);
#1463 = CARTESIAN_POINT('',(18.,9.5,-9.));
#1464 = VECTOR('',#1465,1.);
#1465 = DIRECTION('',(0.,0.,1.));
#1466 = CYLINDRICAL_SURFACE('',#1467,3.);
#1467 = AXIS2_PLACEMENT_3D('',#1468,#1469,#1470);
#1468 = CARTESIAN_POINT('',(15.,9.5,-9.));
#1469 = DIRECTION('',(0.,0.,1.));
#1470 = DIRECTION('',(1.,0.,0.));
#1471 = ADVANCED_FACE('',(#1472),#1483,.T.);
#1472 = FACE_BOUND('',#1473,.T.);
#1473 = EDGE_LOOP('',(#1474,#1475,#1476,#1482));
#1474 = ORIENTED_EDGE('',*,*,#164,.F.);
#1475 = ORIENTED_EDGE('',*,*,#1426,.T.);
#1476 = ORIENTED_EDGE('',*,*,#1477,.T.);
#1477 = EDGE_CURVE('',#1427,#1453,#1478,.T.);
#1478 = LINE('',#1479,#1480);
#1479 = CARTESIAN_POINT('',(18.,13.5,-8.));
#1480 = VECTOR('',#1481,1.);
#1481 = DIRECTION('',(0.,-1.,0.));
#1482 = ORIENTED_EDGE('',*,*,#1461,.F.);
#1483 = PLANE('',#1484);
#1484 = AXIS2_PLACEMENT_3D('',#1485,#1486,#1487);
#1485 = CARTESIAN_POINT('',(18.,13.5,-9.));
#1486 = DIRECTION('',(1.,0.,0.));
#1487 = DIRECTION('',(0.,-1.,0.));
#1488 = ADVANCED_FACE('',(#1489),#1515,.F.);
#1489 = FACE_BOUND('',#1490,.F.);
#1490 = EDGE_LOOP('',(#1491,#1492,#1500,#1509));
#1491 = ORIENTED_EDGE('',*,*,#311,.F.);
#1492 = ORIENTED_EDGE('',*,*,#1493,.F.);
#1493 = EDGE_CURVE('',#1494,#312,#1496,.T.);
#1494 = VERTEX_POINT('',#1495);
#1495 = CARTESIAN_POINT('',(-13.5,-11.39051248379,-8.));
#1496 = LINE('',#1497,#1498);
#1497 = CARTESIAN_POINT('',(-13.5,-11.39051248379,-9.));
#1498 = VECTOR('',#1499,1.);
#1499 = DIRECTION('',(0.,0.,-1.));
#1500 = ORIENTED_EDGE('',*,*,#1501,.T.);
#1501 = EDGE_CURVE('',#1494,#1502,#1504,.T.);
#1502 = VERTEX_POINT('',#1503);
#1503 = CARTESIAN_POINT('',(-13.5,-10.6094875162,-8.));
#1504 = CIRCLE('',#1505,1.55);
#1505 = AXIS2_PLACEMENT_3D('',#1506,#1507,#1508);
#1506 = CARTESIAN_POINT('',(-15.,-11.,-8.));
#1507 = DIRECTION('',(0.,0.,-1.));
#1508 = DIRECTION('',(1.,0.,0.));
#1509 = ORIENTED_EDGE('',*,*,#1510,.T.);
#1510 = EDGE_CURVE('',#1502,#314,#1511,.T.);
#1511 = LINE('',#1512,#1513);
#1512 = CARTESIAN_POINT('',(-13.5,-10.6094875162,-9.));
#1513 = VECTOR('',#1514,1.);
#1514 = DIRECTION('',(0.,0.,-1.));
#1515 = CYLINDRICAL_SURFACE('',#1516,1.55);
#1516 = AXIS2_PLACEMENT_3D('',#1517,#1518,#1519);
#1517 = CARTESIAN_POINT('',(-15.,-11.,-9.));
#1518 = DIRECTION('',(0.,0.,-1.));
#1519 = DIRECTION('',(1.,0.,0.));
#1520 = ADVANCED_FACE('',(#1521),#1532,.T.);
#1521 = FACE_BOUND('',#1522,.T.);
#1522 = EDGE_LOOP('',(#1523,#1529,#1530,#1531));
#1523 = ORIENTED_EDGE('',*,*,#1524,.T.);
#1524 = EDGE_CURVE('',#1494,#1502,#1525,.T.);
#1525 = LINE('',#1526,#1527);
#1526 = CARTESIAN_POINT('',(-13.5,-1.709300165674E-16,-8.));
#1527 = VECTOR('',#1528,1.);
#1528 = DIRECTION('',(0.,1.,0.));
#1529 = ORIENTED_EDGE('',*,*,#1510,.T.);
#1530 = ORIENTED_EDGE('',*,*,#322,.F.);
#1531 = ORIENTED_EDGE('',*,*,#1493,.F.);
#1532 = PLANE('',#1533);
#1533 = AXIS2_PLACEMENT_3D('',#1534,#1535,#1536);
#1534 = CARTESIAN_POINT('',(-13.5,0.,-4.));
#1535 = DIRECTION('',(-1.,-0.,-0.));
#1536 = DIRECTION('',(0.,0.,-1.));
#1537 = ADVANCED_FACE('',(#1538),#1564,.F.);
#1538 = FACE_BOUND('',#1539,.F.);
#1539 = EDGE_LOOP('',(#1540,#1541,#1549,#1558));
#1540 = ORIENTED_EDGE('',*,*,#330,.F.);
#1541 = ORIENTED_EDGE('',*,*,#1542,.F.);
#1542 = EDGE_CURVE('',#1543,#331,#1545,.T.);
#1543 = VERTEX_POINT('',#1544);
#1544 = CARTESIAN_POINT('',(-13.5,10.609487516205,-8.));
#1545 = LINE('',#1546,#1547);
#1546 = CARTESIAN_POINT('',(-13.5,10.609487516205,-9.));
#1547 = VECTOR('',#1548,1.);
#1548 = DIRECTION('',(0.,0.,-1.));
#1549 = ORIENTED_EDGE('',*,*,#1550,.T.);
#1550 = EDGE_CURVE('',#1543,#1551,#1553,.T.);
#1551 = VERTEX_POINT('',#1552);
#1552 = CARTESIAN_POINT('',(-13.5,11.390512483795,-8.));
#1553 = CIRCLE('',#1554,1.55);
#1554 = AXIS2_PLACEMENT_3D('',#1555,#1556,#1557);
#1555 = CARTESIAN_POINT('',(-15.,11.,-8.));
#1556 = DIRECTION('',(0.,0.,-1.));
#1557 = DIRECTION('',(1.,0.,0.));
#1558 = ORIENTED_EDGE('',*,*,#1559,.T.);
#1559 = EDGE_CURVE('',#1551,#333,#1560,.T.);
#1560 = LINE('',#1561,#1562);
#1561 = CARTESIAN_POINT('',(-13.5,11.390512483795,-9.));
#1562 = VECTOR('',#1563,1.);
#1563 = DIRECTION('',(0.,0.,-1.));
#1564 = CYLINDRICAL_SURFACE('',#1565,1.55);
#1565 = AXIS2_PLACEMENT_3D('',#1566,#1567,#1568);
#1566 = CARTESIAN_POINT('',(-15.,11.,-9.));
#1567 = DIRECTION('',(0.,0.,-1.));
#1568 = DIRECTION('',(1.,0.,0.));
#1569 = ADVANCED_FACE('',(#1570),#1581,.T.);
#1570 = FACE_BOUND('',#1571,.T.);
#1571 = EDGE_LOOP('',(#1572,#1578,#1579,#1580));
#1572 = ORIENTED_EDGE('',*,*,#1573,.T.);
#1573 = EDGE_CURVE('',#1543,#1551,#1574,.T.);
#1574 = LINE('',#1575,#1576);
#1575 = CARTESIAN_POINT('',(-13.5,-1.709300165674E-16,-8.));
#1576 = VECTOR('',#1577,1.);
#1577 = DIRECTION('',(0.,1.,0.));
#1578 = ORIENTED_EDGE('',*,*,#1559,.T.);
#1579 = ORIENTED_EDGE('',*,*,#341,.F.);
#1580 = ORIENTED_EDGE('',*,*,#1542,.F.);
#1581 = PLANE('',#1582);
#1582 = AXIS2_PLACEMENT_3D('',#1583,#1584,#1585);
#1583 = CARTESIAN_POINT('',(-13.5,0.,-4.));
#1584 = DIRECTION('',(-1.,-0.,-0.));
#1585 = DIRECTION('',(0.,0.,-1.));
#1586 = ADVANCED_FACE('',(#1587),#1623,.F.);
#1587 = FACE_BOUND('',#1588,.F.);
#1588 = EDGE_LOOP('',(#1589,#1597,#1598,#1599,#1607,#1616));
#1589 = ORIENTED_EDGE('',*,*,#1590,.T.);
#1590 = EDGE_CURVE('',#1591,#352,#1593,.T.);
#1591 = VERTEX_POINT('',#1592);
#1592 = CARTESIAN_POINT('',(13.5,9.609487516205,-8.));
#1593 = LINE('',#1594,#1595);
#1594 = CARTESIAN_POINT('',(13.5,9.609487516205,-9.));
#1595 = VECTOR('',#1596,1.);
#1596 = DIRECTION('',(0.,0.,-1.));
#1597 = ORIENTED_EDGE('',*,*,#349,.F.);
#1598 = ORIENTED_EDGE('',*,*,#360,.F.);
#1599 = ORIENTED_EDGE('',*,*,#1600,.F.);
#1600 = EDGE_CURVE('',#1601,#361,#1603,.T.);
#1601 = VERTEX_POINT('',#1602);
#1602 = CARTESIAN_POINT('',(13.5,10.390512483795,-8.));
#1603 = LINE('',#1604,#1605);
#1604 = CARTESIAN_POINT('',(13.5,10.390512483795,-9.));
#1605 = VECTOR('',#1606,1.);
#1606 = DIRECTION('',(0.,0.,-1.));
#1607 = ORIENTED_EDGE('',*,*,#1608,.T.);
#1608 = EDGE_CURVE('',#1601,#1609,#1611,.T.);
#1609 = VERTEX_POINT('',#1610);
#1610 = CARTESIAN_POINT('',(16.55,10.,-8.));
#1611 = CIRCLE('',#1612,1.55);
#1612 = AXIS2_PLACEMENT_3D('',#1613,#1614,#1615);
#1613 = CARTESIAN_POINT('',(15.,10.,-8.));
#1614 = DIRECTION('',(0.,0.,-1.));
#1615 = DIRECTION('',(1.,0.,0.));
#1616 = ORIENTED_EDGE('',*,*,#1617,.T.);
#1617 = EDGE_CURVE('',#1609,#1591,#1618,.T.);
#1618 = CIRCLE('',#1619,1.55);
#1619 = AXIS2_PLACEMENT_3D('',#1620,#1621,#1622);
#1620 = CARTESIAN_POINT('',(15.,10.,-8.));
#1621 = DIRECTION('',(0.,0.,-1.));
#1622 = DIRECTION('',(1.,0.,0.));
#1623 = CYLINDRICAL_SURFACE('',#1624,1.55);
#1624 = AXIS2_PLACEMENT_3D('',#1625,#1626,#1627);
#1625 = CARTESIAN_POINT('',(15.,10.,-9.));
#1626 = DIRECTION('',(0.,0.,-1.));
#1627 = DIRECTION('',(1.,0.,0.));
#1628 = ADVANCED_FACE('',(#1629),#1640,.T.);
#1629 = FACE_BOUND('',#1630,.T.);
#1630 = EDGE_LOOP('',(#1631,#1637,#1638,#1639));
#1631 = ORIENTED_EDGE('',*,*,#1632,.T.);
#1632 = EDGE_CURVE('',#1601,#1591,#1633,.T.);
#1633 = LINE('',#1634,#1635);
#1634 = CARTESIAN_POINT('',(13.5,-1.709300165674E-16,-8.));
#1635 = VECTOR('',#1636,1.);
#1636 = DIRECTION('',(0.,-1.,0.));
#1637 = ORIENTED_EDGE('',*,*,#1590,.T.);
#1638 = ORIENTED_EDGE('',*,*,#369,.F.);
#1639 = ORIENTED_EDGE('',*,*,#1600,.F.);
#1640 = PLANE('',#1641);
#1641 = AXIS2_PLACEMENT_3D('',#1642,#1643,#1644);
#1642 = CARTESIAN_POINT('',(13.5,0.,-4.));
#1643 = DIRECTION('',(1.,0.,0.));
#1644 = DIRECTION('',(0.,0.,1.));
#1645 = ADVANCED_FACE('',(#1646),#1682,.F.);
#1646 = FACE_BOUND('',#1647,.F.);
#1647 = EDGE_LOOP('',(#1648,#1656,#1657,#1658,#1666,#1675));
#1648 = ORIENTED_EDGE('',*,*,#1649,.T.);
#1649 = EDGE_CURVE('',#1650,#380,#1652,.T.);
#1650 = VERTEX_POINT('',#1651);
#1651 = CARTESIAN_POINT('',(13.5,-10.39051248379,-8.));
#1652 = LINE('',#1653,#1654);
#1653 = CARTESIAN_POINT('',(13.5,-10.39051248379,-9.));
#1654 = VECTOR('',#1655,1.);
#1655 = DIRECTION('',(0.,0.,-1.));
#1656 = ORIENTED_EDGE('',*,*,#377,.F.);
#1657 = ORIENTED_EDGE('',*,*,#388,.F.);
#1658 = ORIENTED_EDGE('',*,*,#1659,.F.);
#1659 = EDGE_CURVE('',#1660,#389,#1662,.T.);
#1660 = VERTEX_POINT('',#1661);
#1661 = CARTESIAN_POINT('',(13.5,-9.609487516205,-8.));
#1662 = LINE('',#1663,#1664);
#1663 = CARTESIAN_POINT('',(13.5,-9.609487516205,-9.));
#1664 = VECTOR('',#1665,1.);
#1665 = DIRECTION('',(0.,0.,-1.));
#1666 = ORIENTED_EDGE('',*,*,#1667,.T.);
#1667 = EDGE_CURVE('',#1660,#1668,#1670,.T.);
#1668 = VERTEX_POINT('',#1669);
#1669 = CARTESIAN_POINT('',(16.55,-10.,-8.));
#1670 = CIRCLE('',#1671,1.55);
#1671 = AXIS2_PLACEMENT_3D('',#1672,#1673,#1674);
#1672 = CARTESIAN_POINT('',(15.,-10.,-8.));
#1673 = DIRECTION('',(0.,0.,-1.));
#1674 = DIRECTION('',(1.,0.,0.));
#1675 = ORIENTED_EDGE('',*,*,#1676,.T.);
#1676 = EDGE_CURVE('',#1668,#1650,#1677,.T.);
#1677 = CIRCLE('',#1678,1.55);
#1678 = AXIS2_PLACEMENT_3D('',#1679,#1680,#1681);
#1679 = CARTESIAN_POINT('',(15.,-10.,-8.));
#1680 = DIRECTION('',(0.,0.,-1.));
#1681 = DIRECTION('',(1.,0.,0.));
#1682 = CYLINDRICAL_SURFACE('',#1683,1.55);
#1683 = AXIS2_PLACEMENT_3D('',#1684,#1685,#1686);
#1684 = CARTESIAN_POINT('',(15.,-10.,-9.));
#1685 = DIRECTION('',(0.,0.,-1.));
#1686 = DIRECTION('',(1.,0.,0.));
#1687 = ADVANCED_FACE('',(#1688),#1699,.T.);
#1688 = FACE_BOUND('',#1689,.T.);
#1689 = EDGE_LOOP('',(#1690,#1696,#1697,#1698));
#1690 = ORIENTED_EDGE('',*,*,#1691,.T.);
#1691 = EDGE_CURVE('',#1660,#1650,#1692,.T.);
#1692 = LINE('',#1693,#1694);
#1693 = CARTESIAN_POINT('',(13.5,-1.709300165674E-16,-8.));
#1694 = VECTOR('',#1695,1.);
#1695 = DIRECTION('',(0.,-1.,0.));
#1696 = ORIENTED_EDGE('',*,*,#1649,.T.);
#1697 = ORIENTED_EDGE('',*,*,#397,.F.);
#1698 = ORIENTED_EDGE('',*,*,#1659,.F.);
#1699 = PLANE('',#1700);
#1700 = AXIS2_PLACEMENT_3D('',#1701,#1702,#1703);
#1701 = CARTESIAN_POINT('',(13.5,0.,-4.));
#1702 = DIRECTION('',(1.,0.,0.));
#1703 = DIRECTION('',(0.,0.,1.));
#1704 = ADVANCED_FACE('',(#1705,#1733),#1737,.T.);
#1705 = FACE_BOUND('',#1706,.T.);
#1706 = EDGE_LOOP('',(#1707,#1708,#1709,#1710,#1711,#1718,#1719,#1720,
    #1727,#1728,#1729,#1730,#1731,#1732));
#1707 = ORIENTED_EDGE('',*,*,#420,.F.);
#1708 = ORIENTED_EDGE('',*,*,#444,.T.);
#1709 = ORIENTED_EDGE('',*,*,#539,.F.);
#1710 = ORIENTED_EDGE('',*,*,#531,.T.);
#1711 = ORIENTED_EDGE('',*,*,#1712,.T.);
#1712 = EDGE_CURVE('',#524,#1112,#1713,.T.);
#1713 = CIRCLE('',#1714,3.);
#1714 = AXIS2_PLACEMENT_3D('',#1715,#1716,#1717);
#1715 = CARTESIAN_POINT('',(-15.,-11.,-8.));
#1716 = DIRECTION('',(0.,0.,1.));
#1717 = DIRECTION('',(1.,0.,0.));
#1718 = ORIENTED_EDGE('',*,*,#1111,.F.);
#1719 = ORIENTED_EDGE('',*,*,#1158,.F.);
#1720 = ORIENTED_EDGE('',*,*,#1721,.T.);
#1721 = EDGE_CURVE('',#1159,#785,#1722,.T.);
#1722 = CIRCLE('',#1723,3.);
#1723 = AXIS2_PLACEMENT_3D('',#1724,#1725,#1726);
#1724 = CARTESIAN_POINT('',(-15.,-11.,-8.));
#1725 = DIRECTION('',(0.,0.,1.));
#1726 = DIRECTION('',(1.,0.,0.));
#1727 = ORIENTED_EDGE('',*,*,#784,.T.);
#1728 = ORIENTED_EDGE('',*,*,#704,.F.);
#1729 = ORIENTED_EDGE('',*,*,#661,.F.);
#1730 = ORIENTED_EDGE('',*,*,#606,.F.);
#1731 = ORIENTED_EDGE('',*,*,#563,.F.);
#1732 = ORIENTED_EDGE('',*,*,#468,.F.);
#1733 = FACE_BOUND('',#1734,.T.);
#1734 = EDGE_LOOP('',(#1735,#1736));
#1735 = ORIENTED_EDGE('',*,*,#1501,.T.);
#1736 = ORIENTED_EDGE('',*,*,#1524,.F.);
#1737 = PLANE('',#1738);
#1738 = AXIS2_PLACEMENT_3D('',#1739,#1740,#1741);
#1739 = CARTESIAN_POINT('',(-15.36846644242,-11.10584861333,-8.));
#1740 = DIRECTION('',(0.,0.,1.));
#1741 = DIRECTION('',(1.,0.,0.));
#1742 = ADVANCED_FACE('',(#1743,#1774),#1779,.T.);
#1743 = FACE_BOUND('',#1744,.T.);
#1744 = EDGE_LOOP('',(#1745,#1746,#1747,#1748,#1749,#1750,#1751,#1758,
    #1759,#1768));
#1745 = ORIENTED_EDGE('',*,*,#499,.F.);
#1746 = ORIENTED_EDGE('',*,*,#581,.F.);
#1747 = ORIENTED_EDGE('',*,*,#637,.F.);
#1748 = ORIENTED_EDGE('',*,*,#679,.F.);
#1749 = ORIENTED_EDGE('',*,*,#735,.F.);
#1750 = ORIENTED_EDGE('',*,*,#824,.T.);
#1751 = ORIENTED_EDGE('',*,*,#1752,.T.);
#1752 = EDGE_CURVE('',#817,#1016,#1753,.T.);
#1753 = CIRCLE('',#1754,3.);
#1754 = AXIS2_PLACEMENT_3D('',#1755,#1756,#1757);
#1755 = CARTESIAN_POINT('',(15.,-10.,-8.));
#1756 = DIRECTION('',(0.,0.,1.));
#1757 = DIRECTION('',(1.,0.,0.));
#1758 = ORIENTED_EDGE('',*,*,#1015,.F.);
#1759 = ORIENTED_EDGE('',*,*,#1760,.T.);
#1760 = EDGE_CURVE('',#1008,#1761,#1763,.T.);
#1761 = VERTEX_POINT('',#1762);
#1762 = CARTESIAN_POINT('',(13.5,-12.59807621135,-8.));
#1763 = CIRCLE('',#1764,3.);
#1764 = AXIS2_PLACEMENT_3D('',#1765,#1766,#1767);
#1765 = CARTESIAN_POINT('',(15.,-10.,-8.));
#1766 = DIRECTION('',(0.,0.,1.));
#1767 = DIRECTION('',(1.,0.,0.));
#1768 = ORIENTED_EDGE('',*,*,#1769,.T.);
#1769 = EDGE_CURVE('',#1761,#500,#1770,.T.);
#1770 = LINE('',#1771,#1772);
#1771 = CARTESIAN_POINT('',(13.5,4.523320712859E-12,-8.));
#1772 = VECTOR('',#1773,1.);
#1773 = DIRECTION('',(0.,-1.,0.));
#1774 = FACE_BOUND('',#1775,.T.);
#1775 = EDGE_LOOP('',(#1776,#1777,#1778));
#1776 = ORIENTED_EDGE('',*,*,#1676,.T.);
#1777 = ORIENTED_EDGE('',*,*,#1691,.F.);
#1778 = ORIENTED_EDGE('',*,*,#1667,.T.);
#1779 = PLANE('',#1780);
#1780 = AXIS2_PLACEMENT_3D('',#1781,#1782,#1783);
#1781 = CARTESIAN_POINT('',(15.476758260713,-10.,-8.));
#1782 = DIRECTION('',(0.,0.,1.));
#1783 = DIRECTION('',(1.,0.,0.));
#1784 = ADVANCED_FACE('',(#1785),#1803,.T.);
#1785 = FACE_BOUND('',#1786,.T.);
#1786 = EDGE_LOOP('',(#1787,#1795,#1796,#1797));
#1787 = ORIENTED_EDGE('',*,*,#1788,.F.);
#1788 = EDGE_CURVE('',#508,#1789,#1791,.T.);
#1789 = VERTEX_POINT('',#1790);
#1790 = CARTESIAN_POINT('',(13.5,-12.59807621135,1.));
#1791 = LINE('',#1792,#1793);
#1792 = CARTESIAN_POINT('',(13.5,-13.5,1.));
#1793 = VECTOR('',#1794,1.);
#1794 = DIRECTION('',(0.,1.,0.));
#1795 = ORIENTED_EDGE('',*,*,#507,.T.);
#1796 = ORIENTED_EDGE('',*,*,#1769,.F.);
#1797 = ORIENTED_EDGE('',*,*,#1798,.F.);
#1798 = EDGE_CURVE('',#1789,#1761,#1799,.T.);
#1799 = LINE('',#1800,#1801);
#1800 = CARTESIAN_POINT('',(13.5,-12.59807621135,-8.));
#1801 = VECTOR('',#1802,1.);
#1802 = DIRECTION('',(-0.,-0.,-1.));
#1803 = PLANE('',#1804);
#1804 = AXIS2_PLACEMENT_3D('',#1805,#1806,#1807);
#1805 = CARTESIAN_POINT('',(13.5,0.,-4.));
#1806 = DIRECTION('',(1.,0.,0.));
#1807 = DIRECTION('',(0.,0.,1.));
#1808 = ADVANCED_FACE('',(#1809),#1849,.F.);
#1809 = FACE_BOUND('',#1810,.T.);
#1810 = EDGE_LOOP('',(#1811,#1820,#1821,#1822,#1823,#1832,#1839,#1840,
    #1841,#1842));
#1811 = ORIENTED_EDGE('',*,*,#1812,.T.);
#1812 = EDGE_CURVE('',#1813,#1094,#1815,.T.);
#1813 = VERTEX_POINT('',#1814);
#1814 = CARTESIAN_POINT('',(-12.,-11.,0.));
#1815 = CIRCLE('',#1816,3.);
#1816 = AXIS2_PLACEMENT_3D('',#1817,#1818,#1819);
#1817 = CARTESIAN_POINT('',(-15.,-11.,0.));
#1818 = DIRECTION('',(0.,0.,-1.));
#1819 = DIRECTION('',(1.,0.,0.));
#1820 = ORIENTED_EDGE('',*,*,#1119,.T.);
#1821 = ORIENTED_EDGE('',*,*,#1712,.F.);
#1822 = ORIENTED_EDGE('',*,*,#523,.F.);
#1823 = ORIENTED_EDGE('',*,*,#1824,.F.);
#1824 = EDGE_CURVE('',#1825,#516,#1827,.T.);
#1825 = VERTEX_POINT('',#1826);
#1826 = CARTESIAN_POINT('',(-12.,-11.,1.));
#1827 = CIRCLE('',#1828,3.);
#1828 = AXIS2_PLACEMENT_3D('',#1829,#1830,#1831);
#1829 = CARTESIAN_POINT('',(-15.,-11.,1.));
#1830 = DIRECTION('',(0.,0.,-1.));
#1831 = DIRECTION('',(1.,0.,0.));
#1832 = ORIENTED_EDGE('',*,*,#1833,.F.);
#1833 = EDGE_CURVE('',#753,#1825,#1834,.T.);
#1834 = CIRCLE('',#1835,3.);
#1835 = AXIS2_PLACEMENT_3D('',#1836,#1837,#1838);
#1836 = CARTESIAN_POINT('',(-15.,-11.,1.));
#1837 = DIRECTION('',(0.,0.,-1.));
#1838 = DIRECTION('',(1.,0.,0.));
#1839 = ORIENTED_EDGE('',*,*,#792,.T.);
#1840 = ORIENTED_EDGE('',*,*,#1721,.F.);
#1841 = ORIENTED_EDGE('',*,*,#1200,.F.);
#1842 = ORIENTED_EDGE('',*,*,#1843,.T.);
#1843 = EDGE_CURVE('',#1193,#1813,#1844,.T.);
#1844 = CIRCLE('',#1845,3.);
#1845 = AXIS2_PLACEMENT_3D('',#1846,#1847,#1848);
#1846 = CARTESIAN_POINT('',(-15.,-11.,0.));
#1847 = DIRECTION('',(0.,0.,-1.));
#1848 = DIRECTION('',(1.,0.,0.));
#1849 = CYLINDRICAL_SURFACE('',#1850,3.);
#1850 = AXIS2_PLACEMENT_3D('',#1851,#1852,#1853);
#1851 = CARTESIAN_POINT('',(-15.,-11.,-8.));
#1852 = DIRECTION('',(-0.,-0.,-1.));
#1853 = DIRECTION('',(1.,0.,0.));
#1854 = ADVANCED_FACE('',(#1855,#1902),#1968,.T.);
#1855 = FACE_BOUND('',#1856,.T.);
#1856 = EDGE_LOOP('',(#1857,#1866,#1867,#1868,#1869,#1870,#1871,#1878,
    #1879,#1888,#1894,#1895));
#1857 = ORIENTED_EDGE('',*,*,#1858,.T.);
#1858 = EDGE_CURVE('',#1859,#751,#1861,.T.);
#1859 = VERTEX_POINT('',#1860);
#1860 = CARTESIAN_POINT('',(-12.,11.,1.));
#1861 = CIRCLE('',#1862,3.);
#1862 = AXIS2_PLACEMENT_3D('',#1863,#1864,#1865);
#1863 = CARTESIAN_POINT('',(-15.,11.,1.));
#1864 = DIRECTION('',(0.,0.,-1.));
#1865 = DIRECTION('',(1.,0.,0.));
#1866 = ORIENTED_EDGE('',*,*,#750,.T.);
#1867 = ORIENTED_EDGE('',*,*,#1833,.T.);
#1868 = ORIENTED_EDGE('',*,*,#1824,.T.);
#1869 = ORIENTED_EDGE('',*,*,#515,.T.);
#1870 = ORIENTED_EDGE('',*,*,#1788,.T.);
#1871 = ORIENTED_EDGE('',*,*,#1872,.T.);
#1872 = EDGE_CURVE('',#1789,#807,#1873,.T.);
#1873 = CIRCLE('',#1874,3.);
#1874 = AXIS2_PLACEMENT_3D('',#1875,#1876,#1877);
#1875 = CARTESIAN_POINT('',(15.,-10.,1.));
#1876 = DIRECTION('',(0.,0.,-1.));
#1877 = DIRECTION('',(1.,0.,0.));
#1878 = ORIENTED_EDGE('',*,*,#806,.T.);
#1879 = ORIENTED_EDGE('',*,*,#1880,.T.);
#1880 = EDGE_CURVE('',#809,#1881,#1883,.T.);
#1881 = VERTEX_POINT('',#1882);
#1882 = CARTESIAN_POINT('',(13.5,12.598076211353,1.));
#1883 = CIRCLE('',#1884,3.);
#1884 = AXIS2_PLACEMENT_3D('',#1885,#1886,#1887);
#1885 = CARTESIAN_POINT('',(15.,10.,1.));
#1886 = DIRECTION('',(0.,0.,-1.));
#1887 = DIRECTION('',(1.,0.,0.));
#1888 = ORIENTED_EDGE('',*,*,#1889,.T.);
#1889 = EDGE_CURVE('',#1881,#1363,#1890,.T.);
#1890 = LINE('',#1891,#1892);
#1891 = CARTESIAN_POINT('',(13.5,-13.5,1.));
#1892 = VECTOR('',#1893,1.);
#1893 = DIRECTION('',(0.,1.,0.));
#1894 = ORIENTED_EDGE('',*,*,#1362,.T.);
#1895 = ORIENTED_EDGE('',*,*,#1896,.T.);
#1896 = EDGE_CURVE('',#1355,#1859,#1897,.T.);
#1897 = CIRCLE('',#1898,3.);
#1898 = AXIS2_PLACEMENT_3D('',#1899,#1900,#1901);
#1899 = CARTESIAN_POINT('',(-15.,11.,1.));
#1900 = DIRECTION('',(0.,0.,-1.));
#1901 = DIRECTION('',(1.,0.,0.));
#1902 = FACE_BOUND('',#1903,.T.);
#1903 = EDGE_LOOP('',(#1904,#1914,#1922,#1930,#1938,#1946,#1954,#1962));
#1904 = ORIENTED_EDGE('',*,*,#1905,.F.);
#1905 = EDGE_CURVE('',#1906,#1908,#1910,.T.);
#1906 = VERTEX_POINT('',#1907);
#1907 = CARTESIAN_POINT('',(-11.5,6.9,1.));
#1908 = VERTEX_POINT('',#1909);
#1909 = CARTESIAN_POINT('',(-11.5,-6.9,1.));
#1910 = LINE('',#1911,#1912);
#1911 = CARTESIAN_POINT('',(-11.5,11.5,1.));
#1912 = VECTOR('',#1913,1.);
#1913 = DIRECTION('',(0.,-1.,0.));
#1914 = ORIENTED_EDGE('',*,*,#1915,.T.);
#1915 = EDGE_CURVE('',#1906,#1916,#1918,.T.);
#1916 = VERTEX_POINT('',#1917);
#1917 = CARTESIAN_POINT('',(-6.9,11.5,1.));
#1918 = LINE('',#1919,#1920);
#1919 = CARTESIAN_POINT('',(-11.7,6.7,1.));
#1920 = VECTOR('',#1921,1.);
#1921 = DIRECTION('',(0.707106781187,0.707106781187,0.));
#1922 = ORIENTED_EDGE('',*,*,#1923,.F.);
#1923 = EDGE_CURVE('',#1924,#1916,#1926,.T.);
#1924 = VERTEX_POINT('',#1925);
#1925 = CARTESIAN_POINT('',(6.9,11.5,1.));
#1926 = LINE('',#1927,#1928);
#1927 = CARTESIAN_POINT('',(11.5,11.5,1.));
#1928 = VECTOR('',#1929,1.);
#1929 = DIRECTION('',(-1.,0.,0.));
#1930 = ORIENTED_EDGE('',*,*,#1931,.F.);
#1931 = EDGE_CURVE('',#1932,#1924,#1934,.T.);
#1932 = VERTEX_POINT('',#1933);
#1933 = CARTESIAN_POINT('',(11.5,6.9,1.));
#1934 = LINE('',#1935,#1936);
#1935 = CARTESIAN_POINT('',(11.7,6.7,1.));
#1936 = VECTOR('',#1937,1.);
#1937 = DIRECTION('',(-0.707106781187,0.707106781187,0.));
#1938 = ORIENTED_EDGE('',*,*,#1939,.F.);
#1939 = EDGE_CURVE('',#1940,#1932,#1942,.T.);
#1940 = VERTEX_POINT('',#1941);
#1941 = CARTESIAN_POINT('',(11.5,-6.9,1.));
#1942 = LINE('',#1943,#1944);
#1943 = CARTESIAN_POINT('',(11.5,-11.5,1.));
#1944 = VECTOR('',#1945,1.);
#1945 = DIRECTION('',(0.,1.,0.));
#1946 = ORIENTED_EDGE('',*,*,#1947,.T.);
#1947 = EDGE_CURVE('',#1940,#1948,#1950,.T.);
#1948 = VERTEX_POINT('',#1949);
#1949 = CARTESIAN_POINT('',(6.9,-11.5,1.));
#1950 = LINE('',#1951,#1952);
#1951 = CARTESIAN_POINT('',(11.7,-6.7,1.));
#1952 = VECTOR('',#1953,1.);
#1953 = DIRECTION('',(-0.707106781187,-0.707106781187,0.));
#1954 = ORIENTED_EDGE('',*,*,#1955,.F.);
#1955 = EDGE_CURVE('',#1956,#1948,#1958,.T.);
#1956 = VERTEX_POINT('',#1957);
#1957 = CARTESIAN_POINT('',(-6.9,-11.5,1.));
#1958 = LINE('',#1959,#1960);
#1959 = CARTESIAN_POINT('',(-11.5,-11.5,1.));
#1960 = VECTOR('',#1961,1.);
#1961 = DIRECTION('',(1.,0.,0.));
#1962 = ORIENTED_EDGE('',*,*,#1963,.F.);
#1963 = EDGE_CURVE('',#1908,#1956,#1964,.T.);
#1964 = LINE('',#1965,#1966);
#1965 = CARTESIAN_POINT('',(-11.7,-6.7,1.));
#1966 = VECTOR('',#1967,1.);
#1967 = DIRECTION('',(0.707106781187,-0.707106781187,0.));
#1968 = PLANE('',#1969);
#1969 = AXIS2_PLACEMENT_3D('',#1970,#1971,#1972);
#1970 = CARTESIAN_POINT('',(4.584051848078E-02,1.170508989549E-15,1.));
#1971 = DIRECTION('',(0.,0.,1.));
#1972 = DIRECTION('',(1.,0.,0.));
#1973 = ADVANCED_FACE('',(#1974,#2002),#2006,.T.);
#1974 = FACE_BOUND('',#1975,.T.);
#1975 = EDGE_LOOP('',(#1976,#1977,#1978,#1979,#1980,#1981,#1982,#1983,
    #1990,#1991,#1992,#1999,#2000,#2001));
#1976 = ORIENTED_EDGE('',*,*,#1273,.F.);
#1977 = ORIENTED_EDGE('',*,*,#1216,.F.);
#1978 = ORIENTED_EDGE('',*,*,#1142,.F.);
#1979 = ORIENTED_EDGE('',*,*,#1071,.F.);
#1980 = ORIENTED_EDGE('',*,*,#942,.F.);
#1981 = ORIENTED_EDGE('',*,*,#887,.F.);
#1982 = ORIENTED_EDGE('',*,*,#768,.T.);
#1983 = ORIENTED_EDGE('',*,*,#1984,.T.);
#1984 = EDGE_CURVE('',#761,#1177,#1985,.T.);
#1985 = CIRCLE('',#1986,3.);
#1986 = AXIS2_PLACEMENT_3D('',#1987,#1988,#1989);
#1987 = CARTESIAN_POINT('',(-15.,11.,-8.));
#1988 = DIRECTION('',(0.,0.,1.));
#1989 = DIRECTION('',(1.,0.,0.));
#1990 = ORIENTED_EDGE('',*,*,#1176,.F.);
#1991 = ORIENTED_EDGE('',*,*,#1238,.F.);
#1992 = ORIENTED_EDGE('',*,*,#1993,.T.);
#1993 = EDGE_CURVE('',#1239,#1347,#1994,.T.);
#1994 = CIRCLE('',#1995,3.);
#1995 = AXIS2_PLACEMENT_3D('',#1996,#1997,#1998);
#1996 = CARTESIAN_POINT('',(-15.,11.,-8.));
#1997 = DIRECTION('',(0.,0.,1.));
#1998 = DIRECTION('',(1.,0.,0.));
#1999 = ORIENTED_EDGE('',*,*,#1346,.T.);
#2000 = ORIENTED_EDGE('',*,*,#1338,.T.);
#2001 = ORIENTED_EDGE('',*,*,#1295,.F.);
#2002 = FACE_BOUND('',#2003,.T.);
#2003 = EDGE_LOOP('',(#2004,#2005));
#2004 = ORIENTED_EDGE('',*,*,#1550,.T.);
#2005 = ORIENTED_EDGE('',*,*,#1573,.F.);
#2006 = PLANE('',#2007);
#2007 = AXIS2_PLACEMENT_3D('',#2008,#2009,#2010);
#2008 = CARTESIAN_POINT('',(-15.36846644242,11.105848613332,-8.));
#2009 = DIRECTION('',(0.,0.,1.));
#2010 = DIRECTION('',(1.,0.,0.));
#2011 = ADVANCED_FACE('',(#2012),#2038,.F.);
#2012 = FACE_BOUND('',#2013,.T.);
#2013 = EDGE_LOOP('',(#2014,#2015,#2016,#2017,#2018,#2027,#2034,#2035,
    #2036,#2037));
#2014 = ORIENTED_EDGE('',*,*,#1896,.F.);
#2015 = ORIENTED_EDGE('',*,*,#1354,.T.);
#2016 = ORIENTED_EDGE('',*,*,#1993,.F.);
#2017 = ORIENTED_EDGE('',*,*,#1257,.F.);
#2018 = ORIENTED_EDGE('',*,*,#2019,.T.);
#2019 = EDGE_CURVE('',#1250,#2020,#2022,.T.);
#2020 = VERTEX_POINT('',#2021);
#2021 = CARTESIAN_POINT('',(-12.,11.,0.));
#2022 = CIRCLE('',#2023,3.);
#2023 = AXIS2_PLACEMENT_3D('',#2024,#2025,#2026);
#2024 = CARTESIAN_POINT('',(-15.,11.,0.));
#2025 = DIRECTION('',(0.,0.,-1.));
#2026 = DIRECTION('',(1.,0.,0.));
#2027 = ORIENTED_EDGE('',*,*,#2028,.T.);
#2028 = EDGE_CURVE('',#2020,#1185,#2029,.T.);
#2029 = CIRCLE('',#2030,3.);
#2030 = AXIS2_PLACEMENT_3D('',#2031,#2032,#2033);
#2031 = CARTESIAN_POINT('',(-15.,11.,0.));
#2032 = DIRECTION('',(0.,0.,-1.));
#2033 = DIRECTION('',(1.,0.,0.));
#2034 = ORIENTED_EDGE('',*,*,#1184,.T.);
#2035 = ORIENTED_EDGE('',*,*,#1984,.F.);
#2036 = ORIENTED_EDGE('',*,*,#760,.F.);
#2037 = ORIENTED_EDGE('',*,*,#1858,.F.);
#2038 = CYLINDRICAL_SURFACE('',#2039,3.);
#2039 = AXIS2_PLACEMENT_3D('',#2040,#2041,#2042);
#2040 = CARTESIAN_POINT('',(-15.,11.,-8.));
#2041 = DIRECTION('',(-0.,-0.,-1.));
#2042 = DIRECTION('',(1.,0.,0.));
#2043 = ADVANCED_FACE('',(#2044),#2079,.F.);
#2044 = FACE_BOUND('',#2045,.T.);
#2045 = EDGE_LOOP('',(#2046,#2055,#2061,#2062,#2063,#2070,#2071,#2078));
#2046 = ORIENTED_EDGE('',*,*,#2047,.F.);
#2047 = EDGE_CURVE('',#2048,#1048,#2050,.T.);
#2048 = VERTEX_POINT('',#2049);
#2049 = CARTESIAN_POINT('',(13.5,12.598076211353,-8.));
#2050 = CIRCLE('',#2051,3.);
#2051 = AXIS2_PLACEMENT_3D('',#2052,#2053,#2054);
#2052 = CARTESIAN_POINT('',(15.,10.,-8.));
#2053 = DIRECTION('',(0.,0.,1.));
#2054 = DIRECTION('',(1.,0.,0.));
#2055 = ORIENTED_EDGE('',*,*,#2056,.F.);
#2056 = EDGE_CURVE('',#1881,#2048,#2057,.T.);
#2057 = LINE('',#2058,#2059);
#2058 = CARTESIAN_POINT('',(13.5,12.598076211353,-8.));
#2059 = VECTOR('',#2060,1.);
#2060 = DIRECTION('',(-0.,-0.,-1.));
#2061 = ORIENTED_EDGE('',*,*,#1880,.F.);
#2062 = ORIENTED_EDGE('',*,*,#871,.T.);
#2063 = ORIENTED_EDGE('',*,*,#2064,.F.);
#2064 = EDGE_CURVE('',#1040,#864,#2065,.T.);
#2065 = CIRCLE('',#2066,3.);
#2066 = AXIS2_PLACEMENT_3D('',#2067,#2068,#2069);
#2067 = CARTESIAN_POINT('',(15.,10.,-8.));
#2068 = DIRECTION('',(0.,0.,1.));
#2069 = DIRECTION('',(1.,0.,0.));
#2070 = ORIENTED_EDGE('',*,*,#1039,.F.);
#2071 = ORIENTED_EDGE('',*,*,#2072,.T.);
#2072 = EDGE_CURVE('',#1032,#961,#2073,.T.);
#2073 = CIRCLE('',#2074,3.);
#2074 = AXIS2_PLACEMENT_3D('',#2075,#2076,#2077);
#2075 = CARTESIAN_POINT('',(15.,10.,0.));
#2076 = DIRECTION('',(0.,0.,-1.));
#2077 = DIRECTION('',(1.,0.,0.));
#2078 = ORIENTED_EDGE('',*,*,#1055,.T.);
#2079 = CYLINDRICAL_SURFACE('',#2080,3.);
#2080 = AXIS2_PLACEMENT_3D('',#2081,#2082,#2083);
#2081 = CARTESIAN_POINT('',(15.,10.,-8.));
#2082 = DIRECTION('',(-0.,-0.,-1.));
#2083 = DIRECTION('',(1.,0.,0.));
#2084 = ADVANCED_FACE('',(#2085,#2102),#2107,.T.);
#2085 = FACE_BOUND('',#2086,.T.);
#2086 = EDGE_LOOP('',(#2087,#2088,#2089,#2090,#2091,#2092,#2098,#2099,
    #2100,#2101));
#2087 = ORIENTED_EDGE('',*,*,#1410,.F.);
#2088 = ORIENTED_EDGE('',*,*,#1452,.F.);
#2089 = ORIENTED_EDGE('',*,*,#1477,.F.);
#2090 = ORIENTED_EDGE('',*,*,#1434,.F.);
#2091 = ORIENTED_EDGE('',*,*,#1378,.F.);
#2092 = ORIENTED_EDGE('',*,*,#2093,.T.);
#2093 = EDGE_CURVE('',#1371,#2048,#2094,.T.);
#2094 = LINE('',#2095,#2096);
#2095 = CARTESIAN_POINT('',(13.5,4.523320712859E-12,-8.));
#2096 = VECTOR('',#2097,1.);
#2097 = DIRECTION('',(0.,-1.,0.));
#2098 = ORIENTED_EDGE('',*,*,#2047,.T.);
#2099 = ORIENTED_EDGE('',*,*,#1047,.F.);
#2100 = ORIENTED_EDGE('',*,*,#2064,.T.);
#2101 = ORIENTED_EDGE('',*,*,#863,.T.);
#2102 = FACE_BOUND('',#2103,.T.);
#2103 = EDGE_LOOP('',(#2104,#2105,#2106));
#2104 = ORIENTED_EDGE('',*,*,#1617,.T.);
#2105 = ORIENTED_EDGE('',*,*,#1632,.F.);
#2106 = ORIENTED_EDGE('',*,*,#1608,.T.);
#2107 = PLANE('',#2108);
#2108 = AXIS2_PLACEMENT_3D('',#2109,#2110,#2111);
#2109 = CARTESIAN_POINT('',(15.476758260713,10.000000000006,-8.));
#2110 = DIRECTION('',(0.,0.,1.));
#2111 = DIRECTION('',(1.,0.,0.));
#2112 = ADVANCED_FACE('',(#2113),#2119,.F.);
#2113 = FACE_BOUND('',#2114,.F.);
#2114 = EDGE_LOOP('',(#2115,#2116,#2117,#2118));
#2115 = ORIENTED_EDGE('',*,*,#840,.F.);
#2116 = ORIENTED_EDGE('',*,*,#1322,.T.);
#2117 = ORIENTED_EDGE('',*,*,#983,.F.);
#2118 = ORIENTED_EDGE('',*,*,#910,.F.);
#2119 = PLANE('',#2120);
#2120 = AXIS2_PLACEMENT_3D('',#2121,#2122,#2123);
#2121 = CARTESIAN_POINT('',(13.5,5.,-3.));
#2122 = DIRECTION('',(0.,0.,1.));
#2123 = DIRECTION('',(0.,-1.,0.));
#2124 = ADVANCED_FACE('',(#2125),#2141,.F.);
#2125 = FACE_BOUND('',#2126,.T.);
#2126 = EDGE_LOOP('',(#2127,#2128,#2129,#2130,#2131,#2132,#2133,#2140));
#2127 = ORIENTED_EDGE('',*,*,#1752,.F.);
#2128 = ORIENTED_EDGE('',*,*,#816,.F.);
#2129 = ORIENTED_EDGE('',*,*,#1872,.F.);
#2130 = ORIENTED_EDGE('',*,*,#1798,.T.);
#2131 = ORIENTED_EDGE('',*,*,#1760,.F.);
#2132 = ORIENTED_EDGE('',*,*,#1007,.F.);
#2133 = ORIENTED_EDGE('',*,*,#2134,.T.);
#2134 = EDGE_CURVE('',#1000,#1024,#2135,.T.);
#2135 = CIRCLE('',#2136,3.);
#2136 = AXIS2_PLACEMENT_3D('',#2137,#2138,#2139);
#2137 = CARTESIAN_POINT('',(15.,-10.,0.));
#2138 = DIRECTION('',(0.,0.,-1.));
#2139 = DIRECTION('',(1.,0.,0.));
#2140 = ORIENTED_EDGE('',*,*,#1023,.T.);
#2141 = CYLINDRICAL_SURFACE('',#2142,3.);
#2142 = AXIS2_PLACEMENT_3D('',#2143,#2144,#2145);
#2143 = CARTESIAN_POINT('',(15.,-10.,-8.));
#2144 = DIRECTION('',(-0.,-0.,-1.));
#2145 = DIRECTION('',(1.,0.,0.));
#2146 = ADVANCED_FACE('',(#2147,#2161),#2227,.T.);
#2147 = FACE_BOUND('',#2148,.T.);
#2148 = EDGE_LOOP('',(#2149,#2150,#2151,#2152,#2153,#2154,#2155,#2156,
    #2157,#2158,#2159,#2160));
#2149 = ORIENTED_EDGE('',*,*,#1192,.T.);
#2150 = ORIENTED_EDGE('',*,*,#2028,.F.);
#2151 = ORIENTED_EDGE('',*,*,#2019,.F.);
#2152 = ORIENTED_EDGE('',*,*,#1249,.T.);
#2153 = ORIENTED_EDGE('',*,*,#958,.T.);
#2154 = ORIENTED_EDGE('',*,*,#2072,.F.);
#2155 = ORIENTED_EDGE('',*,*,#1031,.T.);
#2156 = ORIENTED_EDGE('',*,*,#2134,.F.);
#2157 = ORIENTED_EDGE('',*,*,#999,.T.);
#2158 = ORIENTED_EDGE('',*,*,#1093,.T.);
#2159 = ORIENTED_EDGE('',*,*,#1812,.F.);
#2160 = ORIENTED_EDGE('',*,*,#1843,.F.);
#2161 = FACE_BOUND('',#2162,.T.);
#2162 = EDGE_LOOP('',(#2163,#2173,#2181,#2189,#2197,#2205,#2213,#2221));
#2163 = ORIENTED_EDGE('',*,*,#2164,.T.);
#2164 = EDGE_CURVE('',#2165,#2167,#2169,.T.);
#2165 = VERTEX_POINT('',#2166);
#2166 = CARTESIAN_POINT('',(-11.5,6.9,0.));
#2167 = VERTEX_POINT('',#2168);
#2168 = CARTESIAN_POINT('',(-11.5,-6.9,0.));
#2169 = LINE('',#2170,#2171);
#2170 = CARTESIAN_POINT('',(-11.5,11.5,0.));
#2171 = VECTOR('',#2172,1.);
#2172 = DIRECTION('',(0.,-1.,0.));
#2173 = ORIENTED_EDGE('',*,*,#2174,.T.);
#2174 = EDGE_CURVE('',#2167,#2175,#2177,.T.);
#2175 = VERTEX_POINT('',#2176);
#2176 = CARTESIAN_POINT('',(-6.9,-11.5,0.));
#2177 = LINE('',#2178,#2179);
#2178 = CARTESIAN_POINT('',(-11.7,-6.7,0.));
#2179 = VECTOR('',#2180,1.);
#2180 = DIRECTION('',(0.707106781187,-0.707106781187,0.));
#2181 = ORIENTED_EDGE('',*,*,#2182,.T.);
#2182 = EDGE_CURVE('',#2175,#2183,#2185,.T.);
#2183 = VERTEX_POINT('',#2184);
#2184 = CARTESIAN_POINT('',(6.9,-11.5,0.));
#2185 = LINE('',#2186,#2187);
#2186 = CARTESIAN_POINT('',(-11.5,-11.5,0.));
#2187 = VECTOR('',#2188,1.);
#2188 = DIRECTION('',(1.,0.,0.));
#2189 = ORIENTED_EDGE('',*,*,#2190,.F.);
#2190 = EDGE_CURVE('',#2191,#2183,#2193,.T.);
#2191 = VERTEX_POINT('',#2192);
#2192 = CARTESIAN_POINT('',(11.5,-6.9,0.));
#2193 = LINE('',#2194,#2195);
#2194 = CARTESIAN_POINT('',(11.7,-6.7,0.));
#2195 = VECTOR('',#2196,1.);
#2196 = DIRECTION('',(-0.707106781187,-0.707106781187,0.));
#2197 = ORIENTED_EDGE('',*,*,#2198,.T.);
#2198 = EDGE_CURVE('',#2191,#2199,#2201,.T.);
#2199 = VERTEX_POINT('',#2200);
#2200 = CARTESIAN_POINT('',(11.5,6.9,0.));
#2201 = LINE('',#2202,#2203);
#2202 = CARTESIAN_POINT('',(11.5,-11.5,0.));
#2203 = VECTOR('',#2204,1.);
#2204 = DIRECTION('',(0.,1.,0.));
#2205 = ORIENTED_EDGE('',*,*,#2206,.T.);
#2206 = EDGE_CURVE('',#2199,#2207,#2209,.T.);
#2207 = VERTEX_POINT('',#2208);
#2208 = CARTESIAN_POINT('',(6.9,11.5,0.));
#2209 = LINE('',#2210,#2211);
#2210 = CARTESIAN_POINT('',(11.7,6.7,0.));
#2211 = VECTOR('',#2212,1.);
#2212 = DIRECTION('',(-0.707106781187,0.707106781187,0.));
#2213 = ORIENTED_EDGE('',*,*,#2214,.T.);
#2214 = EDGE_CURVE('',#2207,#2215,#2217,.T.);
#2215 = VERTEX_POINT('',#2216);
#2216 = CARTESIAN_POINT('',(-6.9,11.5,0.));
#2217 = LINE('',#2218,#2219);
#2218 = CARTESIAN_POINT('',(11.5,11.5,0.));
#2219 = VECTOR('',#2220,1.);
#2220 = DIRECTION('',(-1.,0.,0.));
#2221 = ORIENTED_EDGE('',*,*,#2222,.F.);
#2222 = EDGE_CURVE('',#2165,#2215,#2223,.T.);
#2223 = LINE('',#2224,#2225);
#2224 = CARTESIAN_POINT('',(-11.7,6.7,0.));
#2225 = VECTOR('',#2226,1.);
#2226 = DIRECTION('',(0.707106781187,0.707106781187,0.));
#2227 = PLANE('',#2228);
#2228 = AXIS2_PLACEMENT_3D('',#2229,#2230,#2231);
#2229 = CARTESIAN_POINT('',(3.521985235537E-02,2.248086979262E-15,0.));
#2230 = DIRECTION('',(-0.,-0.,-1.));
#2231 = DIRECTION('',(-1.,0.,0.));
#2232 = ADVANCED_FACE('',(#2233),#2239,.T.);
#2233 = FACE_BOUND('',#2234,.T.);
#2234 = EDGE_LOOP('',(#2235,#2236,#2237,#2238));
#2235 = ORIENTED_EDGE('',*,*,#1889,.F.);
#2236 = ORIENTED_EDGE('',*,*,#2056,.T.);
#2237 = ORIENTED_EDGE('',*,*,#2093,.F.);
#2238 = ORIENTED_EDGE('',*,*,#1370,.T.);
#2239 = PLANE('',#2240);
#2240 = AXIS2_PLACEMENT_3D('',#2241,#2242,#2243);
#2241 = CARTESIAN_POINT('',(13.5,0.,-4.));
#2242 = DIRECTION('',(1.,0.,0.));
#2243 = DIRECTION('',(0.,0.,1.));
#2244 = ADVANCED_FACE('',(#2245),#2261,.T.);
#2245 = FACE_BOUND('',#2246,.T.);
#2246 = EDGE_LOOP('',(#2247,#2248,#2254,#2255));
#2247 = ORIENTED_EDGE('',*,*,#2164,.F.);
#2248 = ORIENTED_EDGE('',*,*,#2249,.F.);
#2249 = EDGE_CURVE('',#1906,#2165,#2250,.T.);
#2250 = LINE('',#2251,#2252);
#2251 = CARTESIAN_POINT('',(-11.5,6.9,0.5));
#2252 = VECTOR('',#2253,1.);
#2253 = DIRECTION('',(0.,0.,-1.));
#2254 = ORIENTED_EDGE('',*,*,#1905,.T.);
#2255 = ORIENTED_EDGE('',*,*,#2256,.T.);
#2256 = EDGE_CURVE('',#1908,#2167,#2257,.T.);
#2257 = LINE('',#2258,#2259);
#2258 = CARTESIAN_POINT('',(-11.5,-6.9,0.5));
#2259 = VECTOR('',#2260,1.);
#2260 = DIRECTION('',(0.,0.,-1.));
#2261 = PLANE('',#2262);
#2262 = AXIS2_PLACEMENT_3D('',#2263,#2264,#2265);
#2263 = CARTESIAN_POINT('',(-11.5,11.5,0.));
#2264 = DIRECTION('',(1.,0.,0.));
#2265 = DIRECTION('',(0.,-1.,0.));
#2266 = ADVANCED_FACE('',(#2267),#2278,.T.);
#2267 = FACE_BOUND('',#2268,.T.);
#2268 = EDGE_LOOP('',(#2269,#2270,#2271,#2272));
#2269 = ORIENTED_EDGE('',*,*,#1915,.F.);
#2270 = ORIENTED_EDGE('',*,*,#2249,.T.);
#2271 = ORIENTED_EDGE('',*,*,#2222,.T.);
#2272 = ORIENTED_EDGE('',*,*,#2273,.T.);
#2273 = EDGE_CURVE('',#2215,#1916,#2274,.T.);
#2274 = LINE('',#2275,#2276);
#2275 = CARTESIAN_POINT('',(-6.9,11.5,0.5));
#2276 = VECTOR('',#2277,1.);
#2277 = DIRECTION('',(0.,0.,1.));
#2278 = PLANE('',#2279);
#2279 = AXIS2_PLACEMENT_3D('',#2280,#2281,#2282);
#2280 = CARTESIAN_POINT('',(-11.7,6.7,1.));
#2281 = DIRECTION('',(0.707106781187,-0.707106781187,0.));
#2282 = DIRECTION('',(0.707106781187,0.707106781187,0.));
#2283 = ADVANCED_FACE('',(#2284),#2295,.T.);
#2284 = FACE_BOUND('',#2285,.T.);
#2285 = EDGE_LOOP('',(#2286,#2287,#2293,#2294));
#2286 = ORIENTED_EDGE('',*,*,#2214,.F.);
#2287 = ORIENTED_EDGE('',*,*,#2288,.T.);
#2288 = EDGE_CURVE('',#2207,#1924,#2289,.T.);
#2289 = LINE('',#2290,#2291);
#2290 = CARTESIAN_POINT('',(6.9,11.5,0.5));
#2291 = VECTOR('',#2292,1.);
#2292 = DIRECTION('',(0.,0.,1.));
#2293 = ORIENTED_EDGE('',*,*,#1923,.T.);
#2294 = ORIENTED_EDGE('',*,*,#2273,.F.);
#2295 = PLANE('',#2296);
#2296 = AXIS2_PLACEMENT_3D('',#2297,#2298,#2299);
#2297 = CARTESIAN_POINT('',(11.5,11.5,0.));
#2298 = DIRECTION('',(0.,-1.,0.));
#2299 = DIRECTION('',(-1.,0.,0.));
#2300 = ADVANCED_FACE('',(#2301),#2312,.F.);
#2301 = FACE_BOUND('',#2302,.F.);
#2302 = EDGE_LOOP('',(#2303,#2304,#2310,#2311));
#2303 = ORIENTED_EDGE('',*,*,#1931,.F.);
#2304 = ORIENTED_EDGE('',*,*,#2305,.T.);
#2305 = EDGE_CURVE('',#1932,#2199,#2306,.T.);
#2306 = LINE('',#2307,#2308);
#2307 = CARTESIAN_POINT('',(11.5,6.9,0.5));
#2308 = VECTOR('',#2309,1.);
#2309 = DIRECTION('',(0.,0.,-1.));
#2310 = ORIENTED_EDGE('',*,*,#2206,.T.);
#2311 = ORIENTED_EDGE('',*,*,#2288,.T.);
#2312 = PLANE('',#2313);
#2313 = AXIS2_PLACEMENT_3D('',#2314,#2315,#2316);
#2314 = CARTESIAN_POINT('',(11.7,6.7,1.));
#2315 = DIRECTION('',(0.707106781187,0.707106781187,0.));
#2316 = DIRECTION('',(-0.707106781187,0.707106781187,0.));
#2317 = ADVANCED_FACE('',(#2318),#2329,.T.);
#2318 = FACE_BOUND('',#2319,.T.);
#2319 = EDGE_LOOP('',(#2320,#2321,#2327,#2328));
#2320 = ORIENTED_EDGE('',*,*,#2198,.F.);
#2321 = ORIENTED_EDGE('',*,*,#2322,.F.);
#2322 = EDGE_CURVE('',#1940,#2191,#2323,.T.);
#2323 = LINE('',#2324,#2325);
#2324 = CARTESIAN_POINT('',(11.5,-6.9,0.5));
#2325 = VECTOR('',#2326,1.);
#2326 = DIRECTION('',(0.,0.,-1.));
#2327 = ORIENTED_EDGE('',*,*,#1939,.T.);
#2328 = ORIENTED_EDGE('',*,*,#2305,.T.);
#2329 = PLANE('',#2330);
#2330 = AXIS2_PLACEMENT_3D('',#2331,#2332,#2333);
#2331 = CARTESIAN_POINT('',(11.5,-11.5,0.));
#2332 = DIRECTION('',(-1.,0.,0.));
#2333 = DIRECTION('',(0.,1.,0.));
#2334 = ADVANCED_FACE('',(#2335),#2346,.T.);
#2335 = FACE_BOUND('',#2336,.T.);
#2336 = EDGE_LOOP('',(#2337,#2338,#2339,#2340));
#2337 = ORIENTED_EDGE('',*,*,#1947,.F.);
#2338 = ORIENTED_EDGE('',*,*,#2322,.T.);
#2339 = ORIENTED_EDGE('',*,*,#2190,.T.);
#2340 = ORIENTED_EDGE('',*,*,#2341,.T.);
#2341 = EDGE_CURVE('',#2183,#1948,#2342,.T.);
#2342 = LINE('',#2343,#2344);
#2343 = CARTESIAN_POINT('',(6.9,-11.5,0.5));
#2344 = VECTOR('',#2345,1.);
#2345 = DIRECTION('',(0.,0.,1.));
#2346 = PLANE('',#2347);
#2347 = AXIS2_PLACEMENT_3D('',#2348,#2349,#2350);
#2348 = CARTESIAN_POINT('',(11.7,-6.7,1.));
#2349 = DIRECTION('',(-0.707106781187,0.707106781187,0.));
#2350 = DIRECTION('',(-0.707106781187,-0.707106781187,0.));
#2351 = ADVANCED_FACE('',(#2352),#2363,.T.);
#2352 = FACE_BOUND('',#2353,.T.);
#2353 = EDGE_LOOP('',(#2354,#2355,#2361,#2362));
#2354 = ORIENTED_EDGE('',*,*,#2182,.F.);
#2355 = ORIENTED_EDGE('',*,*,#2356,.T.);
#2356 = EDGE_CURVE('',#2175,#1956,#2357,.T.);
#2357 = LINE('',#2358,#2359);
#2358 = CARTESIAN_POINT('',(-6.9,-11.5,0.5));
#2359 = VECTOR('',#2360,1.);
#2360 = DIRECTION('',(0.,0.,1.));
#2361 = ORIENTED_EDGE('',*,*,#1955,.T.);
#2362 = ORIENTED_EDGE('',*,*,#2341,.F.);
#2363 = PLANE('',#2364);
#2364 = AXIS2_PLACEMENT_3D('',#2365,#2366,#2367);
#2365 = CARTESIAN_POINT('',(-11.5,-11.5,0.));
#2366 = DIRECTION('',(0.,1.,0.));
#2367 = DIRECTION('',(1.,0.,0.));
#2368 = ADVANCED_FACE('',(#2369),#2375,.F.);
#2369 = FACE_BOUND('',#2370,.F.);
#2370 = EDGE_LOOP('',(#2371,#2372,#2373,#2374));
#2371 = ORIENTED_EDGE('',*,*,#1963,.F.);
#2372 = ORIENTED_EDGE('',*,*,#2256,.T.);
#2373 = ORIENTED_EDGE('',*,*,#2174,.T.);
#2374 = ORIENTED_EDGE('',*,*,#2356,.T.);
#2375 = PLANE('',#2376);
#2376 = AXIS2_PLACEMENT_3D('',#2377,#2378,#2379);
#2377 = CARTESIAN_POINT('',(-11.7,-6.7,1.));
#2378 = DIRECTION('',(-0.707106781187,-0.707106781187,0.));
#2379 = DIRECTION('',(0.707106781187,-0.707106781187,0.));
#2380 = ( GEOMETRIC_REPRESENTATION_CONTEXT(3) 
GLOBAL_UNCERTAINTY_ASSIGNED_CONTEXT((#2384)) 
GLOBAL_UNIT_ASSIGNED_CONTEXT((#2381,#2382,#2383)) REPRESENTATION_CONTEXT
('Context #1','3D Context with UNIT and UNCERTAINTY') );
#2381 = ( LENGTH_UNIT() NAMED_UNIT(*) SI_UNIT(.MILLI.,.METRE.) );
#2382 = ( NAMED_UNIT(*) PLANE_ANGLE_UNIT() SI_UNIT($,.RADIAN.) );
#2383 = ( NAMED_UNIT(*) SI_UNIT($,.STERADIAN.) SOLID_ANGLE_UNIT() );
#2384 = UNCERTAINTY_MEASURE_WITH_UNIT(LENGTH_MEASURE(1.E-05),#2381,
  'distance_accuracy_value','confusion accuracy');
#2385 = PRODUCT_RELATED_PRODUCT_CATEGORY('detail',$,(#7));
#2386 = PRODUCT_CATEGORY_RELATIONSHIP('','',#2387,#2385);
#2387 = PRODUCT_CATEGORY('part',$);
#2388 = CC_DESIGN_PERSON_AND_ORGANIZATION_ASSIGNMENT(#2389,#2392,(#6,#5)
  );
#2389 = PERSON_AND_ORGANIZATION(#2390,#2391);
#2390 = PERSON('IP169.254.190,karol','','karol',$,$,$);
#2391 = ORGANIZATION('IP169.254.190','Unspecified','');
#2392 = PERSON_AND_ORGANIZATION_ROLE('creator');
#2393 = CC_DESIGN_PERSON_AND_ORGANIZATION_ASSIGNMENT(#2389,#2394,(#7));
#2394 = PERSON_AND_ORGANIZATION_ROLE('design_owner');
#2395 = CC_DESIGN_PERSON_AND_ORGANIZATION_ASSIGNMENT(#2389,#2396,(#6));
#2396 = PERSON_AND_ORGANIZATION_ROLE('design_supplier');
#2397 = CC_DESIGN_PERSON_AND_ORGANIZATION_ASSIGNMENT(#2389,#2398,(#2399)
  );
#2398 = PERSON_AND_ORGANIZATION_ROLE('classification_officer');
#2399 = SECURITY_CLASSIFICATION('','',#2400);
#2400 = SECURITY_CLASSIFICATION_LEVEL('unclassified');
#2401 = CC_DESIGN_SECURITY_CLASSIFICATION(#2399,(#6));
#2402 = CC_DESIGN_DATE_AND_TIME_ASSIGNMENT(#2403,#2407,(#5));
#2403 = DATE_AND_TIME(#2404,#2405);
#2404 = CALENDAR_DATE(2026,10,5);
#2405 = LOCAL_TIME(12,9,$,#2406);
#2406 = COORDINATED_UNIVERSAL_TIME_OFFSET(1,$,.AHEAD.);
#2407 = DATE_TIME_ROLE('creation_date');
#2408 = CC_DESIGN_DATE_AND_TIME_ASSIGNMENT(#2403,#2409,(#2399));
#2409 = DATE_TIME_ROLE('classification_date');
#2410 = CC_DESIGN_APPROVAL(#2411,(#6,#5,#2399));
#2411 = APPROVAL(#2412,'');
#2412 = APPROVAL_STATUS('not_yet_approved');
#2413 = APPROVAL_PERSON_ORGANIZATION(#2389,#2411,#2414);
#2414 = APPROVAL_ROLE('approver');
#2415 = APPROVAL_DATE_TIME(#2403,#2411);
#2416 = MECHANICAL_DESIGN_GEOMETRIC_PRESENTATION_REPRESENTATION('',(
    #2417),#2380);
#2417 = STYLED_ITEM('color',(#2418),#15);
#2418 = PRESENTATION_STYLE_ASSIGNMENT((#2419,#2425));
#2419 = SURFACE_STYLE_USAGE(.BOTH.,#2420);
#2420 = SURFACE_SIDE_STYLE('',(#2421));
#2421 = SURFACE_STYLE_FILL_AREA(#2422);
#2422 = FILL_AREA_STYLE('',(#2423));
#2423 = FILL_AREA_STYLE_COLOUR('',#2424);
#2424 = COLOUR_RGB('',0.447058818107,0.474509808674,0.501960817233);
#2425 = CURVE_STYLE('',#2426,POSITIVE_LENGTH_MEASURE(0.1),#2427);
#2426 = DRAUGHTING_PRE_DEFINED_CURVE_FONT('continuous');
#2427 = COLOUR_RGB('',9.803921802644E-02,9.803921802644E-02,
  9.803921802644E-02);
ENDSEC;
END-ISO-10303-21;
