ISO-10303-21;
HEADER;
FILE_DESCRIPTION(('FreeCAD Model'),'2;1');
FILE_NAME('Open CASCADE Shape Model','2026-05-11T20:51:45',(''),(''),
  'Open CASCADE STEP processor 7.8','FreeCAD','Unknown');
FILE_SCHEMA(('CONFIG_CONTROL_DESIGN','SHAPE_APPEARANCE_LAYER_MIM'));
ENDSEC;
DATA;
#1 = APPLICATION_PROTOCOL_DEFINITION('international standard',
  'config_control_design',1994,#2);
#2 = APPLICATION_CONTEXT(
'configuration controlled 3D designs of mechanical parts and assemblies'
  );
#3 = SHAPE_DEFINITION_REPRESENTATION(#4,#10);
#4 = PRODUCT_DEFINITION_SHAPE('','',#5);
#5 = PRODUCT_DEFINITION('design','',#6,#9);
#6 = PRODUCT_DEFINITION_FORMATION_WITH_SPECIFIED_SOURCE('','',#7,
  .NOT_KNOWN.);
#7 = PRODUCT('Zawartość','Zawartość','',(#8));
#8 = MECHANICAL_CONTEXT('',#2,'mechanical');
#9 = DESIGN_CONTEXT('',#2,'design');
#10 = ADVANCED_BREP_SHAPE_REPRESENTATION('',(#11,#15),#1670);
#11 = AXIS2_PLACEMENT_3D('',#12,#13,#14);
#12 = CARTESIAN_POINT('',(0.,0.,0.));
#13 = DIRECTION('',(0.,0.,1.));
#14 = DIRECTION('',(1.,0.,-0.));
#15 = MANIFOLD_SOLID_BREP('',#16);
#16 = CLOSED_SHELL('',(#17,#89,#159,#183,#207,#247,#271,#288,#305,#386,
    #432,#456,#530,#547,#581,#621,#683,#723,#745,#781,#812,#868,#892,
    #909,#949,#1011,#1044,#1062,#1152,#1181,#1230,#1247,#1261,#1296,
    #1344,#1392,#1409,#1438,#1487,#1504,#1516,#1526,#1544,#1567,#1579,
    #1591,#1601,#1642));
#17 = ADVANCED_FACE('',(#18),#84,.T.);
#18 = FACE_BOUND('',#19,.T.);
#19 = EDGE_LOOP('',(#20,#30,#38,#46,#54,#62,#70,#78));
#20 = ORIENTED_EDGE('',*,*,#21,.F.);
#21 = EDGE_CURVE('',#22,#24,#26,.T.);
#22 = VERTEX_POINT('',#23);
#23 = CARTESIAN_POINT('',(-9.230252531694,3.99,34.720252531694));
#24 = VERTEX_POINT('',#25);
#25 = CARTESIAN_POINT('',(-9.230252531694,4.,34.720252531694));
#26 = LINE('',#27,#28);
#27 = CARTESIAN_POINT('',(-9.230252531694,3.,34.720252531694));
#28 = VECTOR('',#29,1.);
#29 = DIRECTION('',(0.,1.,-2.22044604925E-16));
#30 = ORIENTED_EDGE('',*,*,#31,.T.);
#31 = EDGE_CURVE('',#22,#32,#34,.T.);
#32 = VERTEX_POINT('',#33);
#33 = CARTESIAN_POINT('',(-16.22025253139,3.99,34.720252531694));
#34 = LINE('',#35,#36);
#35 = CARTESIAN_POINT('',(-9.230252531694,3.99,34.720252531694));
#36 = VECTOR('',#37,1.);
#37 = DIRECTION('',(-1.,0.,0.));
#38 = ORIENTED_EDGE('',*,*,#39,.F.);
#39 = EDGE_CURVE('',#40,#32,#42,.T.);
#40 = VERTEX_POINT('',#41);
#41 = CARTESIAN_POINT('',(-16.22025252923,-3.99,34.720252531694));
#42 = LINE('',#43,#44);
#43 = CARTESIAN_POINT('',(-16.22025253031,-1.032868760229E-09,
    34.720252531694));
#44 = VECTOR('',#45,1.);
#45 = DIRECTION('',(-2.710790543427E-10,1.,-7.050069464493E-16));
#46 = ORIENTED_EDGE('',*,*,#47,.F.);
#47 = EDGE_CURVE('',#48,#40,#50,.T.);
#48 = VERTEX_POINT('',#49);
#49 = CARTESIAN_POINT('',(-9.230252531694,-3.99,34.720252531694));
#50 = LINE('',#51,#52);
#51 = CARTESIAN_POINT('',(-9.230252531694,-3.99,34.720252531694));
#52 = VECTOR('',#53,1.);
#53 = DIRECTION('',(-1.,0.,0.));
#54 = ORIENTED_EDGE('',*,*,#55,.T.);
#55 = EDGE_CURVE('',#48,#56,#58,.T.);
#56 = VERTEX_POINT('',#57);
#57 = CARTESIAN_POINT('',(-9.230252531694,-4.,34.720252531694));
#58 = LINE('',#59,#60);
#59 = CARTESIAN_POINT('',(-9.230252531694,3.,34.720252531694));
#60 = VECTOR('',#61,1.);
#61 = DIRECTION('',(0.,-1.,2.22044604925E-16));
#62 = ORIENTED_EDGE('',*,*,#63,.T.);
#63 = EDGE_CURVE('',#56,#64,#66,.T.);
#64 = VERTEX_POINT('',#65);
#65 = CARTESIAN_POINT('',(-16.23025253169,-4.,34.720252531694));
#66 = LINE('',#67,#68);
#67 = CARTESIAN_POINT('',(-9.230252531694,-4.,34.720252531694));
#68 = VECTOR('',#69,1.);
#69 = DIRECTION('',(-1.,0.,0.));
#70 = ORIENTED_EDGE('',*,*,#71,.F.);
#71 = EDGE_CURVE('',#72,#64,#74,.T.);
#72 = VERTEX_POINT('',#73);
#73 = CARTESIAN_POINT('',(-16.23025253169,4.,34.720252531694));
#74 = LINE('',#75,#76);
#75 = CARTESIAN_POINT('',(-16.23025253169,3.,34.720252531694));
#76 = VECTOR('',#77,1.);
#77 = DIRECTION('',(0.,-1.,2.22044604925E-16));
#78 = ORIENTED_EDGE('',*,*,#79,.F.);
#79 = EDGE_CURVE('',#24,#72,#80,.T.);
#80 = LINE('',#81,#82);
#81 = CARTESIAN_POINT('',(-9.230252531694,4.,34.720252531694));
#82 = VECTOR('',#83,1.);
#83 = DIRECTION('',(-1.,0.,0.));
#84 = PLANE('',#85);
#85 = AXIS2_PLACEMENT_3D('',#86,#87,#88);
#86 = CARTESIAN_POINT('',(-13.68227845225,1.856453447933E-10,
    34.720252531694));
#87 = DIRECTION('',(-2.968335212932E-16,-7.050069465297E-16,-1.));
#88 = DIRECTION('',(0.,-1.,7.050069465297E-16));
#89 = ADVANCED_FACE('',(#90),#154,.T.);
#90 = FACE_BOUND('',#91,.T.);
#91 = EDGE_LOOP('',(#92,#93,#101,#109,#115,#116,#124,#132,#140,#148));
#92 = ORIENTED_EDGE('',*,*,#21,.T.);
#93 = ORIENTED_EDGE('',*,*,#94,.F.);
#94 = EDGE_CURVE('',#95,#24,#97,.T.);
#95 = VERTEX_POINT('',#96);
#96 = CARTESIAN_POINT('',(-14.18,4.,39.67));
#97 = LINE('',#98,#99);
#98 = CARTESIAN_POINT('',(-14.18,4.,39.67));
#99 = VECTOR('',#100,1.);
#100 = DIRECTION('',(0.707106781187,-1.570092458684E-16,-0.707106781187)
  );
#101 = ORIENTED_EDGE('',*,*,#102,.F.);
#102 = EDGE_CURVE('',#103,#95,#105,.T.);
#103 = VERTEX_POINT('',#104);
#104 = CARTESIAN_POINT('',(-14.18,-4.,39.67));
#105 = LINE('',#106,#107);
#106 = CARTESIAN_POINT('',(-14.18,3.,39.67));
#107 = VECTOR('',#108,1.);
#108 = DIRECTION('',(0.,1.,-2.22044604925E-16));
#109 = ORIENTED_EDGE('',*,*,#110,.T.);
#110 = EDGE_CURVE('',#103,#56,#111,.T.);
#111 = LINE('',#112,#113);
#112 = CARTESIAN_POINT('',(-14.18,-4.,39.67));
#113 = VECTOR('',#114,1.);
#114 = DIRECTION('',(0.707106781187,-1.570092458684E-16,-0.707106781187)
  );
#115 = ORIENTED_EDGE('',*,*,#55,.F.);
#116 = ORIENTED_EDGE('',*,*,#117,.T.);
#117 = EDGE_CURVE('',#48,#118,#120,.T.);
#118 = VERTEX_POINT('',#119);
#119 = CARTESIAN_POINT('',(-8.240252531694,-3.,33.730252531694));
#120 = LINE('',#121,#122);
#121 = CARTESIAN_POINT('',(-9.239292687149,-3.999040155455,
    34.729292687149));
#122 = VECTOR('',#123,1.);
#123 = DIRECTION('',(0.57735026919,0.57735026919,-0.57735026919));
#124 = ORIENTED_EDGE('',*,*,#125,.F.);
#125 = EDGE_CURVE('',#126,#118,#128,.T.);
#126 = VERTEX_POINT('',#127);
#127 = CARTESIAN_POINT('',(-10.65213562544,-3.,36.142135625447));
#128 = LINE('',#129,#130);
#129 = CARTESIAN_POINT('',(-7.976488276689,-3.,33.466488276689));
#130 = VECTOR('',#131,1.);
#131 = DIRECTION('',(0.707106781187,-3.062913785737E-16,-0.707106781187)
  );
#132 = ORIENTED_EDGE('',*,*,#133,.T.);
#133 = EDGE_CURVE('',#126,#134,#136,.T.);
#134 = VERTEX_POINT('',#135);
#135 = CARTESIAN_POINT('',(-10.65213562419,3.,36.14213562419));
#136 = LINE('',#137,#138);
#137 = CARTESIAN_POINT('',(-10.65213562415,1.499999999122,
    36.142135624151));
#138 = VECTOR('',#139,1.);
#139 = DIRECTION('',(1.665959788757E-10,1.,-1.665962009203E-10));
#140 = ORIENTED_EDGE('',*,*,#141,.T.);
#141 = EDGE_CURVE('',#134,#142,#144,.T.);
#142 = VERTEX_POINT('',#143);
#143 = CARTESIAN_POINT('',(-8.240252531694,3.,33.730252531694));
#144 = LINE('',#145,#146);
#145 = CARTESIAN_POINT('',(-14.18,3.,39.67));
#146 = VECTOR('',#147,1.);
#147 = DIRECTION('',(0.707106781187,-1.570092458684E-16,-0.707106781187)
  );
#148 = ORIENTED_EDGE('',*,*,#149,.F.);
#149 = EDGE_CURVE('',#22,#142,#150,.T.);
#150 = LINE('',#151,#152);
#151 = CARTESIAN_POINT('',(-9.239292687094,3.9990401554,34.729292687094)
  );
#152 = VECTOR('',#153,1.);
#153 = DIRECTION('',(0.57735026919,-0.57735026919,-0.57735026919));
#154 = PLANE('',#155);
#155 = AXIS2_PLACEMENT_3D('',#156,#157,#158);
#156 = CARTESIAN_POINT('',(-11.74737299797,-1.652142954722E-10,
    37.237372997977));
#157 = DIRECTION('',(0.707106781187,3.40333387899E-16,0.707106781187));
#158 = DIRECTION('',(-0.707106781187,0.,0.707106781187));
#159 = ADVANCED_FACE('',(#160),#178,.F.);
#160 = FACE_BOUND('',#161,.F.);
#161 = EDGE_LOOP('',(#162,#163,#164,#172));
#162 = ORIENTED_EDGE('',*,*,#149,.F.);
#163 = ORIENTED_EDGE('',*,*,#31,.T.);
#164 = ORIENTED_EDGE('',*,*,#165,.T.);
#165 = EDGE_CURVE('',#32,#166,#168,.T.);
#166 = VERTEX_POINT('',#167);
#167 = CARTESIAN_POINT('',(-15.23025253198,3.,33.730252531694));
#168 = LINE('',#169,#170);
#169 = CARTESIAN_POINT('',(-12.34219095758,0.111938426964,
    30.842190958658));
#170 = VECTOR('',#171,1.);
#171 = DIRECTION('',(0.577350269266,-0.577350269151,-0.577350269151));
#172 = ORIENTED_EDGE('',*,*,#173,.F.);
#173 = EDGE_CURVE('',#142,#166,#174,.T.);
#174 = LINE('',#175,#176);
#175 = CARTESIAN_POINT('',(-9.230252531694,3.,33.730252531694));
#176 = VECTOR('',#177,1.);
#177 = DIRECTION('',(-1.,0.,0.));
#178 = PLANE('',#179);
#179 = AXIS2_PLACEMENT_3D('',#180,#181,#182);
#180 = CARTESIAN_POINT('',(-9.230252531694,3.495,34.225252531694));
#181 = DIRECTION('',(0.,-0.707106781187,0.707106781187));
#182 = DIRECTION('',(-1.,0.,0.));
#183 = ADVANCED_FACE('',(#184),#202,.T.);
#184 = FACE_BOUND('',#185,.T.);
#185 = EDGE_LOOP('',(#186,#187,#195,#201));
#186 = ORIENTED_EDGE('',*,*,#79,.T.);
#187 = ORIENTED_EDGE('',*,*,#188,.T.);
#188 = EDGE_CURVE('',#72,#189,#191,.T.);
#189 = VERTEX_POINT('',#190);
#190 = CARTESIAN_POINT('',(-21.18,4.,39.67));
#191 = LINE('',#192,#193);
#192 = CARTESIAN_POINT('',(-16.23025253169,4.,34.720252531694));
#193 = VECTOR('',#194,1.);
#194 = DIRECTION('',(-0.707106781187,1.570092458684E-16,0.707106781186)
  );
#195 = ORIENTED_EDGE('',*,*,#196,.T.);
#196 = EDGE_CURVE('',#189,#95,#197,.T.);
#197 = LINE('',#198,#199);
#198 = CARTESIAN_POINT('',(-21.18,4.,39.67));
#199 = VECTOR('',#200,1.);
#200 = DIRECTION('',(1.,0.,0.));
#201 = ORIENTED_EDGE('',*,*,#94,.T.);
#202 = PLANE('',#203);
#203 = AXIS2_PLACEMENT_3D('',#204,#205,#206);
#204 = CARTESIAN_POINT('',(-15.20512626584,4.,37.195126265847));
#205 = DIRECTION('',(0.,1.,-2.691587072029E-16));
#206 = DIRECTION('',(0.,2.691587072029E-16,1.));
#207 = ADVANCED_FACE('',(#208),#242,.T.);
#208 = FACE_BOUND('',#209,.T.);
#209 = EDGE_LOOP('',(#210,#220,#226,#227,#228,#236));
#210 = ORIENTED_EDGE('',*,*,#211,.F.);
#211 = EDGE_CURVE('',#212,#214,#216,.T.);
#212 = VERTEX_POINT('',#213);
#213 = CARTESIAN_POINT('',(-15.23025252938,-3.,33.730252531694));
#214 = VERTEX_POINT('',#215);
#215 = CARTESIAN_POINT('',(-3.5,-3.,22.));
#216 = LINE('',#217,#218);
#217 = CARTESIAN_POINT('',(-17.64213562291,-3.,36.142135625515));
#218 = VECTOR('',#219,1.);
#219 = DIRECTION('',(0.707106781143,-1.57009245878E-16,-0.70710678123));
#220 = ORIENTED_EDGE('',*,*,#221,.F.);
#221 = EDGE_CURVE('',#40,#212,#222,.T.);
#222 = LINE('',#223,#224);
#223 = CARTESIAN_POINT('',(-12.342190958,-0.111938427436,30.84219095913)
  );
#224 = VECTOR('',#225,1.);
#225 = DIRECTION('',(0.577350269057,0.577350269256,-0.577350269256));
#226 = ORIENTED_EDGE('',*,*,#39,.T.);
#227 = ORIENTED_EDGE('',*,*,#165,.T.);
#228 = ORIENTED_EDGE('',*,*,#229,.T.);
#229 = EDGE_CURVE('',#166,#230,#232,.T.);
#230 = VERTEX_POINT('',#231);
#231 = CARTESIAN_POINT('',(-3.5,3.,22.));
#232 = LINE('',#233,#234);
#233 = CARTESIAN_POINT('',(-17.64213562449,3.,36.142135624192));
#234 = VECTOR('',#235,1.);
#235 = DIRECTION('',(0.707106781189,-1.570092458677E-16,-0.707106781184)
  );
#236 = ORIENTED_EDGE('',*,*,#237,.T.);
#237 = EDGE_CURVE('',#230,#214,#238,.T.);
#238 = LINE('',#239,#240);
#239 = CARTESIAN_POINT('',(-3.499999999139,-2.,22.));
#240 = VECTOR('',#241,1.);
#241 = DIRECTION('',(0.,-1.,2.22044604925E-16));
#242 = PLANE('',#243);
#243 = AXIS2_PLACEMENT_3D('',#244,#245,#246);
#244 = CARTESIAN_POINT('',(-10.57106781153,-3.201958356453E-11,
    29.071067812503));
#245 = DIRECTION('',(-0.707106781212,-1.916823360855E-10,-0.707106781161
    ));
#246 = DIRECTION('',(0.707106781161,0.,-0.707106781212));
#247 = ADVANCED_FACE('',(#248),#266,.T.);
#248 = FACE_BOUND('',#249,.T.);
#249 = EDGE_LOOP('',(#250,#258,#264,#265));
#250 = ORIENTED_EDGE('',*,*,#251,.F.);
#251 = EDGE_CURVE('',#252,#64,#254,.T.);
#252 = VERTEX_POINT('',#253);
#253 = CARTESIAN_POINT('',(-21.18,-4.,39.67));
#254 = LINE('',#255,#256);
#255 = CARTESIAN_POINT('',(-21.18,-4.,39.67));
#256 = VECTOR('',#257,1.);
#257 = DIRECTION('',(0.707106781187,-1.570092458684E-16,-0.707106781187)
  );
#258 = ORIENTED_EDGE('',*,*,#259,.T.);
#259 = EDGE_CURVE('',#252,#189,#260,.T.);
#260 = LINE('',#261,#262);
#261 = CARTESIAN_POINT('',(-21.18,3.,39.67));
#262 = VECTOR('',#263,1.);
#263 = DIRECTION('',(0.,1.,-2.22044604925E-16));
#264 = ORIENTED_EDGE('',*,*,#188,.F.);
#265 = ORIENTED_EDGE('',*,*,#71,.T.);
#266 = PLANE('',#267);
#267 = AXIS2_PLACEMENT_3D('',#268,#269,#270);
#268 = CARTESIAN_POINT('',(-18.70512626584,9.716671911519E-14,
    37.195126265847));
#269 = DIRECTION('',(-0.707106781186,-2.50400122774E-14,-0.707106781187)
  );
#270 = DIRECTION('',(-0.707106781187,0.,0.707106781186));
#271 = ADVANCED_FACE('',(#272),#283,.T.);
#272 = FACE_BOUND('',#273,.T.);
#273 = EDGE_LOOP('',(#274,#275,#276,#277));
#274 = ORIENTED_EDGE('',*,*,#251,.T.);
#275 = ORIENTED_EDGE('',*,*,#63,.F.);
#276 = ORIENTED_EDGE('',*,*,#110,.F.);
#277 = ORIENTED_EDGE('',*,*,#278,.T.);
#278 = EDGE_CURVE('',#103,#252,#279,.T.);
#279 = LINE('',#280,#281);
#280 = CARTESIAN_POINT('',(-20.18,-4.,39.67));
#281 = VECTOR('',#282,1.);
#282 = DIRECTION('',(-1.,0.,0.));
#283 = PLANE('',#284);
#284 = AXIS2_PLACEMENT_3D('',#285,#286,#287);
#285 = CARTESIAN_POINT('',(-15.20512626584,-4.,37.195126265847));
#286 = DIRECTION('',(-0.,-1.,-0.));
#287 = DIRECTION('',(0.,0.,-1.));
#288 = ADVANCED_FACE('',(#289),#300,.F.);
#289 = FACE_BOUND('',#290,.T.);
#290 = EDGE_LOOP('',(#291,#292,#293,#294));
#291 = ORIENTED_EDGE('',*,*,#117,.F.);
#292 = ORIENTED_EDGE('',*,*,#47,.T.);
#293 = ORIENTED_EDGE('',*,*,#221,.T.);
#294 = ORIENTED_EDGE('',*,*,#295,.F.);
#295 = EDGE_CURVE('',#118,#212,#296,.T.);
#296 = LINE('',#297,#298);
#297 = CARTESIAN_POINT('',(-9.230252531694,-3.,33.730252531694));
#298 = VECTOR('',#299,1.);
#299 = DIRECTION('',(-1.,0.,0.));
#300 = PLANE('',#301);
#301 = AXIS2_PLACEMENT_3D('',#302,#303,#304);
#302 = CARTESIAN_POINT('',(-9.230252531694,-3.495,34.225252531694));
#303 = DIRECTION('',(0.,0.707106781187,0.707106781187));
#304 = DIRECTION('',(1.,0.,0.));
#305 = ADVANCED_FACE('',(#306),#381,.T.);
#306 = FACE_BOUND('',#307,.T.);
#307 = EDGE_LOOP('',(#308,#309,#310,#311,#319,#327,#335,#343,#351,#359,
    #367,#375));
#308 = ORIENTED_EDGE('',*,*,#229,.F.);
#309 = ORIENTED_EDGE('',*,*,#173,.F.);
#310 = ORIENTED_EDGE('',*,*,#141,.F.);
#311 = ORIENTED_EDGE('',*,*,#312,.T.);
#312 = EDGE_CURVE('',#134,#313,#315,.T.);
#313 = VERTEX_POINT('',#314);
#314 = CARTESIAN_POINT('',(-10.64213562449,3.,36.14213562419));
#315 = LINE('',#316,#317);
#316 = CARTESIAN_POINT('',(-11.64213562449,3.,36.142135624192));
#317 = VECTOR('',#318,1.);
#318 = DIRECTION('',(1.,-5.884902352949E-28,-2.650324404385E-12));
#319 = ORIENTED_EDGE('',*,*,#320,.T.);
#320 = EDGE_CURVE('',#313,#321,#323,.T.);
#321 = VERTEX_POINT('',#322);
#322 = CARTESIAN_POINT('',(3.5,3.,22.));
#323 = LINE('',#324,#325);
#324 = CARTESIAN_POINT('',(-10.64213562449,3.,36.14213562419));
#325 = VECTOR('',#326,1.);
#326 = DIRECTION('',(0.707106781164,-1.570092458734E-16,-0.707106781209)
  );
#327 = ORIENTED_EDGE('',*,*,#328,.F.);
#328 = EDGE_CURVE('',#329,#321,#331,.T.);
#329 = VERTEX_POINT('',#330);
#330 = CARTESIAN_POINT('',(3.5,3.,19.8));
#331 = LINE('',#332,#333);
#332 = CARTESIAN_POINT('',(3.5,3.,19.8));
#333 = VECTOR('',#334,1.);
#334 = DIRECTION('',(0.,0.,1.));
#335 = ORIENTED_EDGE('',*,*,#336,.T.);
#336 = EDGE_CURVE('',#329,#337,#339,.T.);
#337 = VERTEX_POINT('',#338);
#338 = CARTESIAN_POINT('',(1.,3.,19.8));
#339 = LINE('',#340,#341);
#340 = CARTESIAN_POINT('',(3.5,3.,19.8));
#341 = VECTOR('',#342,1.);
#342 = DIRECTION('',(-1.,0.,0.));
#343 = ORIENTED_EDGE('',*,*,#344,.T.);
#344 = EDGE_CURVE('',#337,#345,#347,.T.);
#345 = VERTEX_POINT('',#346);
#346 = CARTESIAN_POINT('',(1.,3.,21.8));
#347 = LINE('',#348,#349);
#348 = CARTESIAN_POINT('',(1.,3.,14.9));
#349 = VECTOR('',#350,1.);
#350 = DIRECTION('',(0.,0.,1.));
#351 = ORIENTED_EDGE('',*,*,#352,.F.);
#352 = EDGE_CURVE('',#353,#345,#355,.T.);
#353 = VERTEX_POINT('',#354);
#354 = CARTESIAN_POINT('',(-1.,3.,21.8));
#355 = LINE('',#356,#357);
#356 = CARTESIAN_POINT('',(1.7984947858,3.,21.8));
#357 = VECTOR('',#358,1.);
#358 = DIRECTION('',(1.,0.,0.));
#359 = ORIENTED_EDGE('',*,*,#360,.T.);
#360 = EDGE_CURVE('',#353,#361,#363,.T.);
#361 = VERTEX_POINT('',#362);
#362 = CARTESIAN_POINT('',(-1.,3.,19.8));
#363 = LINE('',#364,#365);
#364 = CARTESIAN_POINT('',(-1.,3.,14.9));
#365 = VECTOR('',#366,1.);
#366 = DIRECTION('',(0.,0.,-1.));
#367 = ORIENTED_EDGE('',*,*,#368,.T.);
#368 = EDGE_CURVE('',#361,#369,#371,.T.);
#369 = VERTEX_POINT('',#370);
#370 = CARTESIAN_POINT('',(-3.5,3.,19.8));
#371 = LINE('',#372,#373);
#372 = CARTESIAN_POINT('',(3.5,3.,19.8));
#373 = VECTOR('',#374,1.);
#374 = DIRECTION('',(-1.,0.,0.));
#375 = ORIENTED_EDGE('',*,*,#376,.T.);
#376 = EDGE_CURVE('',#369,#230,#377,.T.);
#377 = LINE('',#378,#379);
#378 = CARTESIAN_POINT('',(-3.5,3.,19.8));
#379 = VECTOR('',#380,1.);
#380 = DIRECTION('',(0.,0.,1.));
#381 = PLANE('',#382);
#382 = AXIS2_PLACEMENT_3D('',#383,#384,#385);
#383 = CARTESIAN_POINT('',(-6.11919329934,3.,27.782013811765));
#384 = DIRECTION('',(0.,1.,-7.457933325712E-16));
#385 = DIRECTION('',(0.,7.457933325712E-16,1.));
#386 = ADVANCED_FACE('',(#387,#393),#427,.T.);
#387 = FACE_BOUND('',#388,.T.);
#388 = EDGE_LOOP('',(#389,#390,#391,#392));
#389 = ORIENTED_EDGE('',*,*,#259,.F.);
#390 = ORIENTED_EDGE('',*,*,#278,.F.);
#391 = ORIENTED_EDGE('',*,*,#102,.T.);
#392 = ORIENTED_EDGE('',*,*,#196,.F.);
#393 = FACE_BOUND('',#394,.T.);
#394 = EDGE_LOOP('',(#395,#405,#413,#421));
#395 = ORIENTED_EDGE('',*,*,#396,.T.);
#396 = EDGE_CURVE('',#397,#399,#401,.T.);
#397 = VERTEX_POINT('',#398);
#398 = CARTESIAN_POINT('',(-20.18,3.,39.67));
#399 = VERTEX_POINT('',#400);
#400 = CARTESIAN_POINT('',(-15.18,3.,39.67));
#401 = LINE('',#402,#403);
#402 = CARTESIAN_POINT('',(-21.18,3.,39.67));
#403 = VECTOR('',#404,1.);
#404 = DIRECTION('',(1.,0.,0.));
#405 = ORIENTED_EDGE('',*,*,#406,.T.);
#406 = EDGE_CURVE('',#399,#407,#409,.T.);
#407 = VERTEX_POINT('',#408);
#408 = CARTESIAN_POINT('',(-15.18,-3.,39.67));
#409 = LINE('',#410,#411);
#410 = CARTESIAN_POINT('',(-15.18,3.,39.67));
#411 = VECTOR('',#412,1.);
#412 = DIRECTION('',(0.,-1.,2.22044604925E-16));
#413 = ORIENTED_EDGE('',*,*,#414,.T.);
#414 = EDGE_CURVE('',#407,#415,#417,.T.);
#415 = VERTEX_POINT('',#416);
#416 = CARTESIAN_POINT('',(-20.18,-3.,39.67));
#417 = LINE('',#418,#419);
#418 = CARTESIAN_POINT('',(-14.18,-3.,39.67));
#419 = VECTOR('',#420,1.);
#420 = DIRECTION('',(-1.,0.,0.));
#421 = ORIENTED_EDGE('',*,*,#422,.F.);
#422 = EDGE_CURVE('',#397,#415,#423,.T.);
#423 = LINE('',#424,#425);
#424 = CARTESIAN_POINT('',(-20.18,3.,39.67));
#425 = VECTOR('',#426,1.);
#426 = DIRECTION('',(0.,-1.,2.22044604925E-16));
#427 = PLANE('',#428);
#428 = AXIS2_PLACEMENT_3D('',#429,#430,#431);
#429 = CARTESIAN_POINT('',(-17.68,1.385558334732E-13,39.67));
#430 = DIRECTION('',(0.,0.,1.));
#431 = DIRECTION('',(1.,0.,0.));
#432 = ADVANCED_FACE('',(#433),#451,.T.);
#433 = FACE_BOUND('',#434,.T.);
#434 = EDGE_LOOP('',(#435,#443,#449,#450));
#435 = ORIENTED_EDGE('',*,*,#436,.F.);
#436 = EDGE_CURVE('',#437,#126,#439,.T.);
#437 = VERTEX_POINT('',#438);
#438 = CARTESIAN_POINT('',(-10.64213562291,-3.,36.142135625447));
#439 = LINE('',#440,#441);
#440 = CARTESIAN_POINT('',(-10.64213562291,-3.,36.142135625447));
#441 = VECTOR('',#442,1.);
#442 = DIRECTION('',(-1.,2.133531129545E-27,9.60857E-12));
#443 = ORIENTED_EDGE('',*,*,#444,.T.);
#444 = EDGE_CURVE('',#437,#313,#445,.T.);
#445 = LINE('',#446,#447);
#446 = CARTESIAN_POINT('',(-10.64213562449,-2.,36.14213562419));
#447 = VECTOR('',#448,1.);
#448 = DIRECTION('',(0.,1.,-2.22044604925E-16));
#449 = ORIENTED_EDGE('',*,*,#312,.F.);
#450 = ORIENTED_EDGE('',*,*,#133,.F.);
#451 = PLANE('',#452);
#452 = AXIS2_PLACEMENT_3D('',#453,#454,#455);
#453 = CARTESIAN_POINT('',(-14.1421356237,-6.832141690001E-16,
    36.142135624755));
#454 = DIRECTION('',(1.014184496357E-10,1.665962009034E-10,1.));
#455 = DIRECTION('',(0.,1.,-1.665962009034E-10));
#456 = ADVANCED_FACE('',(#457),#525,.T.);
#457 = FACE_BOUND('',#458,.T.);
#458 = EDGE_LOOP('',(#459,#460,#468,#476,#484,#492,#500,#508,#516,#522,
    #523,#524));
#459 = ORIENTED_EDGE('',*,*,#211,.T.);
#460 = ORIENTED_EDGE('',*,*,#461,.F.);
#461 = EDGE_CURVE('',#462,#214,#464,.T.);
#462 = VERTEX_POINT('',#463);
#463 = CARTESIAN_POINT('',(-3.5,-3.,19.8));
#464 = LINE('',#465,#466);
#465 = CARTESIAN_POINT('',(-3.5,-3.,19.8));
#466 = VECTOR('',#467,1.);
#467 = DIRECTION('',(0.,0.,1.));
#468 = ORIENTED_EDGE('',*,*,#469,.T.);
#469 = EDGE_CURVE('',#462,#470,#472,.T.);
#470 = VERTEX_POINT('',#471);
#471 = CARTESIAN_POINT('',(-1.,-3.,19.8));
#472 = LINE('',#473,#474);
#473 = CARTESIAN_POINT('',(-3.5,-3.,19.8));
#474 = VECTOR('',#475,1.);
#475 = DIRECTION('',(1.,0.,0.));
#476 = ORIENTED_EDGE('',*,*,#477,.T.);
#477 = EDGE_CURVE('',#470,#478,#480,.T.);
#478 = VERTEX_POINT('',#479);
#479 = CARTESIAN_POINT('',(-1.,-3.,21.8));
#480 = LINE('',#481,#482);
#481 = CARTESIAN_POINT('',(-1.,-3.,14.9));
#482 = VECTOR('',#483,1.);
#483 = DIRECTION('',(0.,0.,1.));
#484 = ORIENTED_EDGE('',*,*,#485,.F.);
#485 = EDGE_CURVE('',#486,#478,#488,.T.);
#486 = VERTEX_POINT('',#487);
#487 = CARTESIAN_POINT('',(1.,-3.,21.8));
#488 = LINE('',#489,#490);
#489 = CARTESIAN_POINT('',(-1.7015052142,-3.,21.8));
#490 = VECTOR('',#491,1.);
#491 = DIRECTION('',(-1.,0.,0.));
#492 = ORIENTED_EDGE('',*,*,#493,.T.);
#493 = EDGE_CURVE('',#486,#494,#496,.T.);
#494 = VERTEX_POINT('',#495);
#495 = CARTESIAN_POINT('',(1.,-3.,19.8));
#496 = LINE('',#497,#498);
#497 = CARTESIAN_POINT('',(1.,-3.,14.9));
#498 = VECTOR('',#499,1.);
#499 = DIRECTION('',(0.,0.,-1.));
#500 = ORIENTED_EDGE('',*,*,#501,.T.);
#501 = EDGE_CURVE('',#494,#502,#504,.T.);
#502 = VERTEX_POINT('',#503);
#503 = CARTESIAN_POINT('',(3.5,-3.,19.8));
#504 = LINE('',#505,#506);
#505 = CARTESIAN_POINT('',(-3.5,-3.,19.8));
#506 = VECTOR('',#507,1.);
#507 = DIRECTION('',(1.,0.,0.));
#508 = ORIENTED_EDGE('',*,*,#509,.T.);
#509 = EDGE_CURVE('',#502,#510,#512,.T.);
#510 = VERTEX_POINT('',#511);
#511 = CARTESIAN_POINT('',(3.5,-3.,22.));
#512 = LINE('',#513,#514);
#513 = CARTESIAN_POINT('',(3.5,-3.,19.8));
#514 = VECTOR('',#515,1.);
#515 = DIRECTION('',(0.,0.,1.));
#516 = ORIENTED_EDGE('',*,*,#517,.T.);
#517 = EDGE_CURVE('',#510,#437,#518,.T.);
#518 = LINE('',#519,#520);
#519 = CARTESIAN_POINT('',(3.499999999139,-3.,22.));
#520 = VECTOR('',#521,1.);
#521 = DIRECTION('',(-0.707106781102,1.570092458872E-16,0.707106781271)
  );
#522 = ORIENTED_EDGE('',*,*,#436,.T.);
#523 = ORIENTED_EDGE('',*,*,#125,.T.);
#524 = ORIENTED_EDGE('',*,*,#295,.T.);
#525 = PLANE('',#526);
#526 = AXIS2_PLACEMENT_3D('',#527,#528,#529);
#527 = CARTESIAN_POINT('',(-6.119193298466,-3.,27.782013812335));
#528 = DIRECTION('',(0.,-1.,4.331614216169E-16));
#529 = DIRECTION('',(0.,-4.331614216169E-16,-1.));
#530 = ADVANCED_FACE('',(#531),#542,.F.);
#531 = FACE_BOUND('',#532,.F.);
#532 = EDGE_LOOP('',(#533,#534,#535,#536));
#533 = ORIENTED_EDGE('',*,*,#376,.T.);
#534 = ORIENTED_EDGE('',*,*,#237,.T.);
#535 = ORIENTED_EDGE('',*,*,#461,.F.);
#536 = ORIENTED_EDGE('',*,*,#537,.F.);
#537 = EDGE_CURVE('',#369,#462,#538,.T.);
#538 = LINE('',#539,#540);
#539 = CARTESIAN_POINT('',(-3.5,3.,19.8));
#540 = VECTOR('',#541,1.);
#541 = DIRECTION('',(0.,-1.,0.));
#542 = PLANE('',#543);
#543 = AXIS2_PLACEMENT_3D('',#544,#545,#546);
#544 = CARTESIAN_POINT('',(-3.5,3.,19.8));
#545 = DIRECTION('',(1.,0.,0.));
#546 = DIRECTION('',(0.,-1.,0.));
#547 = ADVANCED_FACE('',(#548),#576,.F.);
#548 = FACE_BOUND('',#549,.F.);
#549 = EDGE_LOOP('',(#550,#551,#559,#568,#574,#575));
#550 = ORIENTED_EDGE('',*,*,#469,.T.);
#551 = ORIENTED_EDGE('',*,*,#552,.F.);
#552 = EDGE_CURVE('',#553,#470,#555,.T.);
#553 = VERTEX_POINT('',#554);
#554 = CARTESIAN_POINT('',(-1.,-2.828427124746,19.8));
#555 = LINE('',#556,#557);
#556 = CARTESIAN_POINT('',(-1.,3.4525,19.8));
#557 = VECTOR('',#558,1.);
#558 = DIRECTION('',(0.,-1.,0.));
#559 = ORIENTED_EDGE('',*,*,#560,.T.);
#560 = EDGE_CURVE('',#553,#561,#563,.T.);
#561 = VERTEX_POINT('',#562);
#562 = CARTESIAN_POINT('',(-1.,2.828427124746,19.8));
#563 = CIRCLE('',#564,3.);
#564 = AXIS2_PLACEMENT_3D('',#565,#566,#567);
#565 = CARTESIAN_POINT('',(0.,0.,19.8));
#566 = DIRECTION('',(0.,0.,-1.));
#567 = DIRECTION('',(1.,0.,0.));
#568 = ORIENTED_EDGE('',*,*,#569,.F.);
#569 = EDGE_CURVE('',#361,#561,#570,.T.);
#570 = LINE('',#571,#572);
#571 = CARTESIAN_POINT('',(-1.,3.4525,19.8));
#572 = VECTOR('',#573,1.);
#573 = DIRECTION('',(0.,-1.,0.));
#574 = ORIENTED_EDGE('',*,*,#368,.T.);
#575 = ORIENTED_EDGE('',*,*,#537,.T.);
#576 = PLANE('',#577);
#577 = AXIS2_PLACEMENT_3D('',#578,#579,#580);
#578 = CARTESIAN_POINT('',(0.,0.,19.8));
#579 = DIRECTION('',(0.,0.,1.));
#580 = DIRECTION('',(1.,0.,0.));
#581 = ADVANCED_FACE('',(#582),#616,.F.);
#582 = FACE_BOUND('',#583,.F.);
#583 = EDGE_LOOP('',(#584,#594,#602,#608,#609,#610));
#584 = ORIENTED_EDGE('',*,*,#585,.F.);
#585 = EDGE_CURVE('',#586,#588,#590,.T.);
#586 = VERTEX_POINT('',#587);
#587 = CARTESIAN_POINT('',(-1.,5.989658136306,10.));
#588 = VERTEX_POINT('',#589);
#589 = CARTESIAN_POINT('',(-1.,2.828427124746,10.));
#590 = LINE('',#591,#592);
#591 = CARTESIAN_POINT('',(-1.,6.905,10.));
#592 = VECTOR('',#593,1.);
#593 = DIRECTION('',(0.,-1.,0.));
#594 = ORIENTED_EDGE('',*,*,#595,.F.);
#595 = EDGE_CURVE('',#596,#586,#598,.T.);
#596 = VERTEX_POINT('',#597);
#597 = CARTESIAN_POINT('',(-1.,5.989658136306,21.8));
#598 = LINE('',#599,#600);
#599 = CARTESIAN_POINT('',(-1.,5.989658136306,0.));
#600 = VECTOR('',#601,1.);
#601 = DIRECTION('',(-0.,-0.,-1.));
#602 = ORIENTED_EDGE('',*,*,#603,.T.);
#603 = EDGE_CURVE('',#596,#353,#604,.T.);
#604 = LINE('',#605,#606);
#605 = CARTESIAN_POINT('',(-1.,6.905,21.8));
#606 = VECTOR('',#607,1.);
#607 = DIRECTION('',(0.,-1.,0.));
#608 = ORIENTED_EDGE('',*,*,#360,.T.);
#609 = ORIENTED_EDGE('',*,*,#569,.T.);
#610 = ORIENTED_EDGE('',*,*,#611,.T.);
#611 = EDGE_CURVE('',#561,#588,#612,.T.);
#612 = LINE('',#613,#614);
#613 = CARTESIAN_POINT('',(-1.,2.828427124746,10.));
#614 = VECTOR('',#615,1.);
#615 = DIRECTION('',(0.,0.,-1.));
#616 = PLANE('',#617);
#617 = AXIS2_PLACEMENT_3D('',#618,#619,#620);
#618 = CARTESIAN_POINT('',(-1.,6.905,10.));
#619 = DIRECTION('',(1.,0.,0.));
#620 = DIRECTION('',(0.,-1.,0.));
#621 = ADVANCED_FACE('',(#622,#650),#678,.T.);
#622 = FACE_BOUND('',#623,.T.);
#623 = EDGE_LOOP('',(#624,#625,#633,#642,#649));
#624 = ORIENTED_EDGE('',*,*,#352,.T.);
#625 = ORIENTED_EDGE('',*,*,#626,.T.);
#626 = EDGE_CURVE('',#345,#627,#629,.T.);
#627 = VERTEX_POINT('',#628);
#628 = CARTESIAN_POINT('',(1.,5.989658136306,21.8));
#629 = LINE('',#630,#631);
#630 = CARTESIAN_POINT('',(1.,-6.905,21.8));
#631 = VECTOR('',#632,1.);
#632 = DIRECTION('',(0.,1.,0.));
#633 = ORIENTED_EDGE('',*,*,#634,.T.);
#634 = EDGE_CURVE('',#627,#635,#637,.T.);
#635 = VERTEX_POINT('',#636);
#636 = CARTESIAN_POINT('',(3.65,9.5,21.8));
#637 = CIRCLE('',#638,3.65);
#638 = AXIS2_PLACEMENT_3D('',#639,#640,#641);
#639 = CARTESIAN_POINT('',(0.,9.5,21.8));
#640 = DIRECTION('',(0.,0.,1.));
#641 = DIRECTION('',(1.,0.,0.));
#642 = ORIENTED_EDGE('',*,*,#643,.T.);
#643 = EDGE_CURVE('',#635,#596,#644,.T.);
#644 = CIRCLE('',#645,3.65);
#645 = AXIS2_PLACEMENT_3D('',#646,#647,#648);
#646 = CARTESIAN_POINT('',(0.,9.5,21.8));
#647 = DIRECTION('',(0.,0.,1.));
#648 = DIRECTION('',(1.,0.,0.));
#649 = ORIENTED_EDGE('',*,*,#603,.T.);
#650 = FACE_BOUND('',#651,.T.);
#651 = EDGE_LOOP('',(#652,#663,#671));
#652 = ORIENTED_EDGE('',*,*,#653,.F.);
#653 = EDGE_CURVE('',#654,#656,#658,.T.);
#654 = VERTEX_POINT('',#655);
#655 = CARTESIAN_POINT('',(0.537098687394,6.905,21.8));
#656 = VERTEX_POINT('',#657);
#657 = CARTESIAN_POINT('',(2.65,9.5,21.8));
#658 = CIRCLE('',#659,2.65);
#659 = AXIS2_PLACEMENT_3D('',#660,#661,#662);
#660 = CARTESIAN_POINT('',(0.,9.5,21.8));
#661 = DIRECTION('',(0.,0.,1.));
#662 = DIRECTION('',(1.,0.,0.));
#663 = ORIENTED_EDGE('',*,*,#664,.T.);
#664 = EDGE_CURVE('',#654,#665,#667,.T.);
#665 = VERTEX_POINT('',#666);
#666 = CARTESIAN_POINT('',(-0.537098687394,6.905,21.8));
#667 = LINE('',#668,#669);
#668 = CARTESIAN_POINT('',(1.,6.905,21.8));
#669 = VECTOR('',#670,1.);
#670 = DIRECTION('',(-1.,0.,0.));
#671 = ORIENTED_EDGE('',*,*,#672,.F.);
#672 = EDGE_CURVE('',#656,#665,#673,.T.);
#673 = CIRCLE('',#674,2.65);
#674 = AXIS2_PLACEMENT_3D('',#675,#676,#677);
#675 = CARTESIAN_POINT('',(0.,9.5,21.8));
#676 = DIRECTION('',(0.,0.,1.));
#677 = DIRECTION('',(1.,0.,0.));
#678 = PLANE('',#679);
#679 = AXIS2_PLACEMENT_3D('',#680,#681,#682);
#680 = CARTESIAN_POINT('',(9.698957160036E-02,9.E-16,21.8));
#681 = DIRECTION('',(0.,0.,1.));
#682 = DIRECTION('',(1.,0.,0.));
#683 = ADVANCED_FACE('',(#684),#718,.F.);
#684 = FACE_BOUND('',#685,.F.);
#685 = EDGE_LOOP('',(#686,#696,#704,#710,#711,#712));
#686 = ORIENTED_EDGE('',*,*,#687,.F.);
#687 = EDGE_CURVE('',#688,#690,#692,.T.);
#688 = VERTEX_POINT('',#689);
#689 = CARTESIAN_POINT('',(1.,2.828427124746,10.));
#690 = VERTEX_POINT('',#691);
#691 = CARTESIAN_POINT('',(1.,5.989658136306,10.));
#692 = LINE('',#693,#694);
#693 = CARTESIAN_POINT('',(1.,-6.905,10.));
#694 = VECTOR('',#695,1.);
#695 = DIRECTION('',(0.,1.,0.));
#696 = ORIENTED_EDGE('',*,*,#697,.F.);
#697 = EDGE_CURVE('',#698,#688,#700,.T.);
#698 = VERTEX_POINT('',#699);
#699 = CARTESIAN_POINT('',(1.,2.828427124746,19.8));
#700 = LINE('',#701,#702);
#701 = CARTESIAN_POINT('',(1.,2.828427124746,10.));
#702 = VECTOR('',#703,1.);
#703 = DIRECTION('',(0.,0.,-1.));
#704 = ORIENTED_EDGE('',*,*,#705,.T.);
#705 = EDGE_CURVE('',#698,#337,#706,.T.);
#706 = LINE('',#707,#708);
#707 = CARTESIAN_POINT('',(1.,-3.4525,19.8));
#708 = VECTOR('',#709,1.);
#709 = DIRECTION('',(0.,1.,0.));
#710 = ORIENTED_EDGE('',*,*,#344,.T.);
#711 = ORIENTED_EDGE('',*,*,#626,.T.);
#712 = ORIENTED_EDGE('',*,*,#713,.T.);
#713 = EDGE_CURVE('',#627,#690,#714,.T.);
#714 = LINE('',#715,#716);
#715 = CARTESIAN_POINT('',(1.,5.989658136306,0.));
#716 = VECTOR('',#717,1.);
#717 = DIRECTION('',(-0.,-0.,-1.));
#718 = PLANE('',#719);
#719 = AXIS2_PLACEMENT_3D('',#720,#721,#722);
#720 = CARTESIAN_POINT('',(1.,-6.905,10.));
#721 = DIRECTION('',(-1.,0.,0.));
#722 = DIRECTION('',(0.,1.,0.));
#723 = ADVANCED_FACE('',(#724),#740,.F.);
#724 = FACE_BOUND('',#725,.F.);
#725 = EDGE_LOOP('',(#726,#727,#733,#734));
#726 = ORIENTED_EDGE('',*,*,#509,.T.);
#727 = ORIENTED_EDGE('',*,*,#728,.T.);
#728 = EDGE_CURVE('',#510,#321,#729,.T.);
#729 = LINE('',#730,#731);
#730 = CARTESIAN_POINT('',(3.499999998779,-2.,22.000000000005));
#731 = VECTOR('',#732,1.);
#732 = DIRECTION('',(0.,1.,-2.22044604925E-16));
#733 = ORIENTED_EDGE('',*,*,#328,.F.);
#734 = ORIENTED_EDGE('',*,*,#735,.F.);
#735 = EDGE_CURVE('',#502,#329,#736,.T.);
#736 = LINE('',#737,#738);
#737 = CARTESIAN_POINT('',(3.5,-3.,19.8));
#738 = VECTOR('',#739,1.);
#739 = DIRECTION('',(0.,1.,0.));
#740 = PLANE('',#741);
#741 = AXIS2_PLACEMENT_3D('',#742,#743,#744);
#742 = CARTESIAN_POINT('',(3.5,-3.,19.8));
#743 = DIRECTION('',(-1.,0.,0.));
#744 = DIRECTION('',(0.,1.,0.));
#745 = ADVANCED_FACE('',(#746),#776,.F.);
#746 = FACE_BOUND('',#747,.F.);
#747 = EDGE_LOOP('',(#748,#749,#750,#751,#752,#761,#770));
#748 = ORIENTED_EDGE('',*,*,#501,.T.);
#749 = ORIENTED_EDGE('',*,*,#735,.T.);
#750 = ORIENTED_EDGE('',*,*,#336,.T.);
#751 = ORIENTED_EDGE('',*,*,#705,.F.);
#752 = ORIENTED_EDGE('',*,*,#753,.T.);
#753 = EDGE_CURVE('',#698,#754,#756,.T.);
#754 = VERTEX_POINT('',#755);
#755 = CARTESIAN_POINT('',(3.,0.,19.8));
#756 = CIRCLE('',#757,3.);
#757 = AXIS2_PLACEMENT_3D('',#758,#759,#760);
#758 = CARTESIAN_POINT('',(0.,0.,19.8));
#759 = DIRECTION('',(0.,0.,-1.));
#760 = DIRECTION('',(1.,0.,0.));
#761 = ORIENTED_EDGE('',*,*,#762,.T.);
#762 = EDGE_CURVE('',#754,#763,#765,.T.);
#763 = VERTEX_POINT('',#764);
#764 = CARTESIAN_POINT('',(1.,-2.828427124746,19.8));
#765 = CIRCLE('',#766,3.);
#766 = AXIS2_PLACEMENT_3D('',#767,#768,#769);
#767 = CARTESIAN_POINT('',(0.,0.,19.8));
#768 = DIRECTION('',(0.,0.,-1.));
#769 = DIRECTION('',(1.,0.,0.));
#770 = ORIENTED_EDGE('',*,*,#771,.F.);
#771 = EDGE_CURVE('',#494,#763,#772,.T.);
#772 = LINE('',#773,#774);
#773 = CARTESIAN_POINT('',(1.,-3.4525,19.8));
#774 = VECTOR('',#775,1.);
#775 = DIRECTION('',(0.,1.,0.));
#776 = PLANE('',#777);
#777 = AXIS2_PLACEMENT_3D('',#778,#779,#780);
#778 = CARTESIAN_POINT('',(0.,0.,19.8));
#779 = DIRECTION('',(0.,0.,1.));
#780 = DIRECTION('',(1.,0.,0.));
#781 = ADVANCED_FACE('',(#782),#807,.F.);
#782 = FACE_BOUND('',#783,.F.);
#783 = EDGE_LOOP('',(#784,#794,#800,#801));
#784 = ORIENTED_EDGE('',*,*,#785,.T.);
#785 = EDGE_CURVE('',#786,#788,#790,.T.);
#786 = VERTEX_POINT('',#787);
#787 = CARTESIAN_POINT('',(-11.65213562419,3.,36.142135624192));
#788 = VERTEX_POINT('',#789);
#789 = CARTESIAN_POINT('',(-16.65213562419,3.,36.142135624192));
#790 = LINE('',#791,#792);
#791 = CARTESIAN_POINT('',(-16.64213562449,3.,36.142135624192));
#792 = VECTOR('',#793,1.);
#793 = DIRECTION('',(-1.,0.,0.));
#794 = ORIENTED_EDGE('',*,*,#795,.T.);
#795 = EDGE_CURVE('',#788,#397,#796,.T.);
#796 = LINE('',#797,#798);
#797 = CARTESIAN_POINT('',(-15.23025253169,3.,34.720252531694));
#798 = VECTOR('',#799,1.);
#799 = DIRECTION('',(-0.707106781187,1.570092458684E-16,0.707106781187)
  );
#800 = ORIENTED_EDGE('',*,*,#396,.T.);
#801 = ORIENTED_EDGE('',*,*,#802,.F.);
#802 = EDGE_CURVE('',#786,#399,#803,.T.);
#803 = LINE('',#804,#805);
#804 = CARTESIAN_POINT('',(-10.23025253169,3.,34.720252531694));
#805 = VECTOR('',#806,1.);
#806 = DIRECTION('',(-0.707106781187,1.570092458684E-16,0.707106781187)
  );
#807 = PLANE('',#808);
#808 = AXIS2_PLACEMENT_3D('',#809,#810,#811);
#809 = CARTESIAN_POINT('',(-15.20512626584,3.,37.195126265847));
#810 = DIRECTION('',(0.,1.,-2.691587072029E-16));
#811 = DIRECTION('',(0.,2.691587072029E-16,1.));
#812 = ADVANCED_FACE('',(#813),#863,.T.);
#813 = FACE_BOUND('',#814,.T.);
#814 = EDGE_LOOP('',(#815,#825,#833,#841,#849,#855,#856,#857));
#815 = ORIENTED_EDGE('',*,*,#816,.F.);
#816 = EDGE_CURVE('',#817,#819,#821,.T.);
#817 = VERTEX_POINT('',#818);
#818 = CARTESIAN_POINT('',(-10.23025253169,2.,34.720252531694));
#819 = VERTEX_POINT('',#820);
#820 = CARTESIAN_POINT('',(-11.65213562373,2.,36.142135623731));
#821 = LINE('',#822,#823);
#822 = CARTESIAN_POINT('',(-8.02816017178,2.,32.51816017178));
#823 = VECTOR('',#824,1.);
#824 = DIRECTION('',(-0.707106781187,0.,0.707106781187));
#825 = ORIENTED_EDGE('',*,*,#826,.T.);
#826 = EDGE_CURVE('',#817,#827,#829,.T.);
#827 = VERTEX_POINT('',#828);
#828 = CARTESIAN_POINT('',(-10.23025253169,-2.,34.720252531694));
#829 = LINE('',#830,#831);
#830 = CARTESIAN_POINT('',(-10.23025253169,3.,34.720252531694));
#831 = VECTOR('',#832,1.);
#832 = DIRECTION('',(0.,-1.,2.22044604925E-16));
#833 = ORIENTED_EDGE('',*,*,#834,.T.);
#834 = EDGE_CURVE('',#827,#835,#837,.T.);
#835 = VERTEX_POINT('',#836);
#836 = CARTESIAN_POINT('',(-11.65213562545,-2.,36.142135625457));
#837 = LINE('',#838,#839);
#838 = CARTESIAN_POINT('',(-8.028160172029,-2.,32.518160172029));
#839 = VECTOR('',#840,1.);
#840 = DIRECTION('',(-0.707106781187,0.,0.707106781187));
#841 = ORIENTED_EDGE('',*,*,#842,.T.);
#842 = EDGE_CURVE('',#835,#843,#845,.T.);
#843 = VERTEX_POINT('',#844);
#844 = CARTESIAN_POINT('',(-11.65213562545,-3.,36.142135625457));
#845 = LINE('',#846,#847);
#846 = CARTESIAN_POINT('',(-11.65213562425,1.500000000029,
    36.142135624253));
#847 = VECTOR('',#848,1.);
#848 = DIRECTION('',(-1.665959788757E-10,-1.,1.665962009203E-10));
#849 = ORIENTED_EDGE('',*,*,#850,.F.);
#850 = EDGE_CURVE('',#407,#843,#851,.T.);
#851 = LINE('',#852,#853);
#852 = CARTESIAN_POINT('',(-12.09268939877,-3.,36.582689398771));
#853 = VECTOR('',#854,1.);
#854 = DIRECTION('',(0.707106781187,0.,-0.707106781187));
#855 = ORIENTED_EDGE('',*,*,#406,.F.);
#856 = ORIENTED_EDGE('',*,*,#802,.F.);
#857 = ORIENTED_EDGE('',*,*,#858,.T.);
#858 = EDGE_CURVE('',#786,#819,#859,.T.);
#859 = LINE('',#860,#861);
#860 = CARTESIAN_POINT('',(-11.65213562425,1.500000000029,
    36.142135624253));
#861 = VECTOR('',#862,1.);
#862 = DIRECTION('',(-1.665959788757E-10,-1.,1.665962009203E-10));
#863 = PLANE('',#864);
#864 = AXIS2_PLACEMENT_3D('',#865,#866,#867);
#865 = CARTESIAN_POINT('',(-10.23025253169,3.,34.720252531694));
#866 = DIRECTION('',(-0.707106781187,-1.570092458684E-16,-0.707106781187
    ));
#867 = DIRECTION('',(-0.707106781187,1.570092458684E-16,0.707106781187)
  );
#868 = ADVANCED_FACE('',(#869),#887,.T.);
#869 = FACE_BOUND('',#870,.T.);
#870 = EDGE_LOOP('',(#871,#879,#880,#881));
#871 = ORIENTED_EDGE('',*,*,#872,.F.);
#872 = EDGE_CURVE('',#415,#873,#875,.T.);
#873 = VERTEX_POINT('',#874);
#874 = CARTESIAN_POINT('',(-16.6521356255,-3.,36.142135625505));
#875 = LINE('',#876,#877);
#876 = CARTESIAN_POINT('',(-15.84268939877,-3.,35.332689398771));
#877 = VECTOR('',#878,1.);
#878 = DIRECTION('',(0.707106781187,0.,-0.707106781187));
#879 = ORIENTED_EDGE('',*,*,#414,.F.);
#880 = ORIENTED_EDGE('',*,*,#850,.T.);
#881 = ORIENTED_EDGE('',*,*,#882,.T.);
#882 = EDGE_CURVE('',#843,#873,#883,.T.);
#883 = LINE('',#884,#885);
#884 = CARTESIAN_POINT('',(-10.64213562291,-3.,36.142135625447));
#885 = VECTOR('',#886,1.);
#886 = DIRECTION('',(-1.,2.133531129545E-27,9.60857E-12));
#887 = PLANE('',#888);
#888 = AXIS2_PLACEMENT_3D('',#889,#890,#891);
#889 = CARTESIAN_POINT('',(-15.20512626584,-3.,37.195126265847));
#890 = DIRECTION('',(0.,1.,0.));
#891 = DIRECTION('',(0.,0.,1.));
#892 = ADVANCED_FACE('',(#893),#904,.F.);
#893 = FACE_BOUND('',#894,.F.);
#894 = EDGE_LOOP('',(#895,#901,#902,#903));
#895 = ORIENTED_EDGE('',*,*,#896,.T.);
#896 = EDGE_CURVE('',#788,#873,#897,.T.);
#897 = LINE('',#898,#899);
#898 = CARTESIAN_POINT('',(-16.65213562476,1.500000000446,36.14213562476
    ));
#899 = VECTOR('',#900,1.);
#900 = DIRECTION('',(-1.665959788757E-10,-1.,1.665962009203E-10));
#901 = ORIENTED_EDGE('',*,*,#872,.F.);
#902 = ORIENTED_EDGE('',*,*,#422,.F.);
#903 = ORIENTED_EDGE('',*,*,#795,.F.);
#904 = PLANE('',#905);
#905 = AXIS2_PLACEMENT_3D('',#906,#907,#908);
#906 = CARTESIAN_POINT('',(-15.23025253169,3.,34.720252531694));
#907 = DIRECTION('',(-0.707106781187,-1.570092458684E-16,-0.707106781187
    ));
#908 = DIRECTION('',(-0.707106781187,1.570092458684E-16,0.707106781187)
  );
#909 = ADVANCED_FACE('',(#910),#944,.F.);
#910 = FACE_BOUND('',#911,.F.);
#911 = EDGE_LOOP('',(#912,#922,#928,#929,#930,#938));
#912 = ORIENTED_EDGE('',*,*,#913,.F.);
#913 = EDGE_CURVE('',#914,#916,#918,.T.);
#914 = VERTEX_POINT('',#915);
#915 = CARTESIAN_POINT('',(-1.,-2.828427124746,10.));
#916 = VERTEX_POINT('',#917);
#917 = CARTESIAN_POINT('',(-1.,-5.989658136306,10.));
#918 = LINE('',#919,#920);
#919 = CARTESIAN_POINT('',(-1.,6.905,10.));
#920 = VECTOR('',#921,1.);
#921 = DIRECTION('',(0.,-1.,0.));
#922 = ORIENTED_EDGE('',*,*,#923,.F.);
#923 = EDGE_CURVE('',#553,#914,#924,.T.);
#924 = LINE('',#925,#926);
#925 = CARTESIAN_POINT('',(-1.,-2.828427124746,10.));
#926 = VECTOR('',#927,1.);
#927 = DIRECTION('',(0.,0.,-1.));
#928 = ORIENTED_EDGE('',*,*,#552,.T.);
#929 = ORIENTED_EDGE('',*,*,#477,.T.);
#930 = ORIENTED_EDGE('',*,*,#931,.T.);
#931 = EDGE_CURVE('',#478,#932,#934,.T.);
#932 = VERTEX_POINT('',#933);
#933 = CARTESIAN_POINT('',(-1.,-5.989658136306,21.8));
#934 = LINE('',#935,#936);
#935 = CARTESIAN_POINT('',(-1.,6.905,21.8));
#936 = VECTOR('',#937,1.);
#937 = DIRECTION('',(0.,-1.,0.));
#938 = ORIENTED_EDGE('',*,*,#939,.T.);
#939 = EDGE_CURVE('',#932,#916,#940,.T.);
#940 = LINE('',#941,#942);
#941 = CARTESIAN_POINT('',(-1.,-5.989658136306,0.));
#942 = VECTOR('',#943,1.);
#943 = DIRECTION('',(-0.,-0.,-1.));
#944 = PLANE('',#945);
#945 = AXIS2_PLACEMENT_3D('',#946,#947,#948);
#946 = CARTESIAN_POINT('',(-1.,6.905,10.));
#947 = DIRECTION('',(1.,0.,0.));
#948 = DIRECTION('',(0.,-1.,0.));
#949 = ADVANCED_FACE('',(#950,#978),#1006,.T.);
#950 = FACE_BOUND('',#951,.T.);
#951 = EDGE_LOOP('',(#952,#963,#969,#970,#971));
#952 = ORIENTED_EDGE('',*,*,#953,.T.);
#953 = EDGE_CURVE('',#954,#956,#958,.T.);
#954 = VERTEX_POINT('',#955);
#955 = CARTESIAN_POINT('',(3.65,-9.5,21.8));
#956 = VERTEX_POINT('',#957);
#957 = CARTESIAN_POINT('',(1.,-5.989658136306,21.8));
#958 = CIRCLE('',#959,3.65);
#959 = AXIS2_PLACEMENT_3D('',#960,#961,#962);
#960 = CARTESIAN_POINT('',(0.,-9.5,21.8));
#961 = DIRECTION('',(0.,0.,1.));
#962 = DIRECTION('',(1.,0.,0.));
#963 = ORIENTED_EDGE('',*,*,#964,.T.);
#964 = EDGE_CURVE('',#956,#486,#965,.T.);
#965 = LINE('',#966,#967);
#966 = CARTESIAN_POINT('',(1.,-6.905,21.8));
#967 = VECTOR('',#968,1.);
#968 = DIRECTION('',(0.,1.,0.));
#969 = ORIENTED_EDGE('',*,*,#485,.T.);
#970 = ORIENTED_EDGE('',*,*,#931,.T.);
#971 = ORIENTED_EDGE('',*,*,#972,.T.);
#972 = EDGE_CURVE('',#932,#954,#973,.T.);
#973 = CIRCLE('',#974,3.65);
#974 = AXIS2_PLACEMENT_3D('',#975,#976,#977);
#975 = CARTESIAN_POINT('',(0.,-9.5,21.8));
#976 = DIRECTION('',(0.,0.,1.));
#977 = DIRECTION('',(1.,0.,0.));
#978 = FACE_BOUND('',#979,.T.);
#979 = EDGE_LOOP('',(#980,#991,#999));
#980 = ORIENTED_EDGE('',*,*,#981,.F.);
#981 = EDGE_CURVE('',#982,#984,#986,.T.);
#982 = VERTEX_POINT('',#983);
#983 = CARTESIAN_POINT('',(-0.537098687394,-6.905,21.8));
#984 = VERTEX_POINT('',#985);
#985 = CARTESIAN_POINT('',(2.65,-9.5,21.8));
#986 = CIRCLE('',#987,2.65);
#987 = AXIS2_PLACEMENT_3D('',#988,#989,#990);
#988 = CARTESIAN_POINT('',(0.,-9.5,21.8));
#989 = DIRECTION('',(0.,0.,1.));
#990 = DIRECTION('',(1.,0.,0.));
#991 = ORIENTED_EDGE('',*,*,#992,.T.);
#992 = EDGE_CURVE('',#982,#993,#995,.T.);
#993 = VERTEX_POINT('',#994);
#994 = CARTESIAN_POINT('',(0.537098687394,-6.905,21.8));
#995 = LINE('',#996,#997);
#996 = CARTESIAN_POINT('',(-1.,-6.905,21.8));
#997 = VECTOR('',#998,1.);
#998 = DIRECTION('',(1.,0.,0.));
#999 = ORIENTED_EDGE('',*,*,#1000,.F.);
#1000 = EDGE_CURVE('',#984,#993,#1001,.T.);
#1001 = CIRCLE('',#1002,2.65);
#1002 = AXIS2_PLACEMENT_3D('',#1003,#1004,#1005);
#1003 = CARTESIAN_POINT('',(0.,-9.5,21.8));
#1004 = DIRECTION('',(0.,0.,1.));
#1005 = DIRECTION('',(1.,0.,0.));
#1006 = PLANE('',#1007);
#1007 = AXIS2_PLACEMENT_3D('',#1008,#1009,#1010);
#1008 = CARTESIAN_POINT('',(9.698957160036E-02,9.E-16,21.8));
#1009 = DIRECTION('',(0.,0.,1.));
#1010 = DIRECTION('',(1.,0.,0.));
#1011 = ADVANCED_FACE('',(#1012),#1039,.F.);
#1012 = FACE_BOUND('',#1013,.F.);
#1013 = EDGE_LOOP('',(#1014,#1024,#1030,#1031,#1032,#1033));
#1014 = ORIENTED_EDGE('',*,*,#1015,.F.);
#1015 = EDGE_CURVE('',#1016,#1018,#1020,.T.);
#1016 = VERTEX_POINT('',#1017);
#1017 = CARTESIAN_POINT('',(1.,-5.989658136306,10.));
#1018 = VERTEX_POINT('',#1019);
#1019 = CARTESIAN_POINT('',(1.,-2.828427124746,10.));
#1020 = LINE('',#1021,#1022);
#1021 = CARTESIAN_POINT('',(1.,-6.905,10.));
#1022 = VECTOR('',#1023,1.);
#1023 = DIRECTION('',(0.,1.,0.));
#1024 = ORIENTED_EDGE('',*,*,#1025,.F.);
#1025 = EDGE_CURVE('',#956,#1016,#1026,.T.);
#1026 = LINE('',#1027,#1028);
#1027 = CARTESIAN_POINT('',(1.,-5.989658136306,0.));
#1028 = VECTOR('',#1029,1.);
#1029 = DIRECTION('',(-0.,-0.,-1.));
#1030 = ORIENTED_EDGE('',*,*,#964,.T.);
#1031 = ORIENTED_EDGE('',*,*,#493,.T.);
#1032 = ORIENTED_EDGE('',*,*,#771,.T.);
#1033 = ORIENTED_EDGE('',*,*,#1034,.T.);
#1034 = EDGE_CURVE('',#763,#1018,#1035,.T.);
#1035 = LINE('',#1036,#1037);
#1036 = CARTESIAN_POINT('',(1.,-2.828427124746,10.));
#1037 = VECTOR('',#1038,1.);
#1038 = DIRECTION('',(0.,0.,-1.));
#1039 = PLANE('',#1040);
#1040 = AXIS2_PLACEMENT_3D('',#1041,#1042,#1043);
#1041 = CARTESIAN_POINT('',(1.,-6.905,10.));
#1042 = DIRECTION('',(-1.,0.,0.));
#1043 = DIRECTION('',(0.,1.,0.));
#1044 = ADVANCED_FACE('',(#1045),#1057,.T.);
#1045 = FACE_BOUND('',#1046,.T.);
#1046 = EDGE_LOOP('',(#1047,#1048,#1049,#1050));
#1047 = ORIENTED_EDGE('',*,*,#923,.F.);
#1048 = ORIENTED_EDGE('',*,*,#560,.T.);
#1049 = ORIENTED_EDGE('',*,*,#611,.T.);
#1050 = ORIENTED_EDGE('',*,*,#1051,.F.);
#1051 = EDGE_CURVE('',#914,#588,#1052,.T.);
#1052 = CIRCLE('',#1053,3.);
#1053 = AXIS2_PLACEMENT_3D('',#1054,#1055,#1056);
#1054 = CARTESIAN_POINT('',(0.,0.,10.));
#1055 = DIRECTION('',(0.,0.,-1.));
#1056 = DIRECTION('',(1.,0.,0.));
#1057 = CYLINDRICAL_SURFACE('',#1058,3.);
#1058 = AXIS2_PLACEMENT_3D('',#1059,#1060,#1061);
#1059 = CARTESIAN_POINT('',(0.,0.,10.));
#1060 = DIRECTION('',(0.,0.,-1.));
#1061 = DIRECTION('',(1.,0.,0.));
#1062 = ADVANCED_FACE('',(#1063,#1100),#1147,.T.);
#1063 = FACE_BOUND('',#1064,.T.);
#1064 = EDGE_LOOP('',(#1065,#1066,#1075,#1082,#1083,#1090,#1091,#1092,
    #1093));
#1065 = ORIENTED_EDGE('',*,*,#687,.F.);
#1066 = ORIENTED_EDGE('',*,*,#1067,.T.);
#1067 = EDGE_CURVE('',#688,#1068,#1070,.T.);
#1068 = VERTEX_POINT('',#1069);
#1069 = CARTESIAN_POINT('',(3.,0.,10.));
#1070 = CIRCLE('',#1071,3.);
#1071 = AXIS2_PLACEMENT_3D('',#1072,#1073,#1074);
#1072 = CARTESIAN_POINT('',(0.,0.,10.));
#1073 = DIRECTION('',(0.,0.,-1.));
#1074 = DIRECTION('',(1.,0.,0.));
#1075 = ORIENTED_EDGE('',*,*,#1076,.T.);
#1076 = EDGE_CURVE('',#1068,#1018,#1077,.T.);
#1077 = CIRCLE('',#1078,3.);
#1078 = AXIS2_PLACEMENT_3D('',#1079,#1080,#1081);
#1079 = CARTESIAN_POINT('',(0.,0.,10.));
#1080 = DIRECTION('',(0.,0.,-1.));
#1081 = DIRECTION('',(1.,0.,0.));
#1082 = ORIENTED_EDGE('',*,*,#1015,.F.);
#1083 = ORIENTED_EDGE('',*,*,#1084,.F.);
#1084 = EDGE_CURVE('',#916,#1016,#1085,.T.);
#1085 = CIRCLE('',#1086,3.65);
#1086 = AXIS2_PLACEMENT_3D('',#1087,#1088,#1089);
#1087 = CARTESIAN_POINT('',(0.,-9.5,10.));
#1088 = DIRECTION('',(0.,0.,-1.));
#1089 = DIRECTION('',(1.,0.,0.));
#1090 = ORIENTED_EDGE('',*,*,#913,.F.);
#1091 = ORIENTED_EDGE('',*,*,#1051,.T.);
#1092 = ORIENTED_EDGE('',*,*,#585,.F.);
#1093 = ORIENTED_EDGE('',*,*,#1094,.F.);
#1094 = EDGE_CURVE('',#690,#586,#1095,.T.);
#1095 = CIRCLE('',#1096,3.65);
#1096 = AXIS2_PLACEMENT_3D('',#1097,#1098,#1099);
#1097 = CARTESIAN_POINT('',(0.,9.5,10.));
#1098 = DIRECTION('',(0.,0.,-1.));
#1099 = DIRECTION('',(1.,0.,0.));
#1100 = FACE_BOUND('',#1101,.T.);
#1101 = EDGE_LOOP('',(#1102,#1113,#1122,#1131,#1140));
#1102 = ORIENTED_EDGE('',*,*,#1103,.F.);
#1103 = EDGE_CURVE('',#1104,#1106,#1108,.T.);
#1104 = VERTEX_POINT('',#1105);
#1105 = CARTESIAN_POINT('',(-1.,-2.015564437075,10.));
#1106 = VERTEX_POINT('',#1107);
#1107 = CARTESIAN_POINT('',(-1.,2.015564437075,10.));
#1108 = CIRCLE('',#1109,2.25);
#1109 = AXIS2_PLACEMENT_3D('',#1110,#1111,#1112);
#1110 = CARTESIAN_POINT('',(0.,0.,10.));
#1111 = DIRECTION('',(0.,0.,-1.));
#1112 = DIRECTION('',(1.,0.,0.));
#1113 = ORIENTED_EDGE('',*,*,#1114,.F.);
#1114 = EDGE_CURVE('',#1115,#1104,#1117,.T.);
#1115 = VERTEX_POINT('',#1116);
#1116 = CARTESIAN_POINT('',(1.,-2.015564437075,10.));
#1117 = CIRCLE('',#1118,2.25);
#1118 = AXIS2_PLACEMENT_3D('',#1119,#1120,#1121);
#1119 = CARTESIAN_POINT('',(0.,0.,10.));
#1120 = DIRECTION('',(0.,0.,-1.));
#1121 = DIRECTION('',(1.,0.,0.));
#1122 = ORIENTED_EDGE('',*,*,#1123,.F.);
#1123 = EDGE_CURVE('',#1124,#1115,#1126,.T.);
#1124 = VERTEX_POINT('',#1125);
#1125 = CARTESIAN_POINT('',(2.25,0.,10.));
#1126 = CIRCLE('',#1127,2.25);
#1127 = AXIS2_PLACEMENT_3D('',#1128,#1129,#1130);
#1128 = CARTESIAN_POINT('',(0.,0.,10.));
#1129 = DIRECTION('',(0.,0.,-1.));
#1130 = DIRECTION('',(1.,0.,0.));
#1131 = ORIENTED_EDGE('',*,*,#1132,.F.);
#1132 = EDGE_CURVE('',#1133,#1124,#1135,.T.);
#1133 = VERTEX_POINT('',#1134);
#1134 = CARTESIAN_POINT('',(1.,2.015564437075,10.));
#1135 = CIRCLE('',#1136,2.25);
#1136 = AXIS2_PLACEMENT_3D('',#1137,#1138,#1139);
#1137 = CARTESIAN_POINT('',(0.,0.,10.));
#1138 = DIRECTION('',(0.,0.,-1.));
#1139 = DIRECTION('',(1.,0.,0.));
#1140 = ORIENTED_EDGE('',*,*,#1141,.F.);
#1141 = EDGE_CURVE('',#1106,#1133,#1142,.T.);
#1142 = CIRCLE('',#1143,2.25);
#1143 = AXIS2_PLACEMENT_3D('',#1144,#1145,#1146);
#1144 = CARTESIAN_POINT('',(0.,0.,10.));
#1145 = DIRECTION('',(0.,0.,-1.));
#1146 = DIRECTION('',(1.,0.,0.));
#1147 = PLANE('',#1148);
#1148 = AXIS2_PLACEMENT_3D('',#1149,#1150,#1151);
#1149 = CARTESIAN_POINT('',(3.373697213012E-02,1.280810690075E-16,10.));
#1150 = DIRECTION('',(-0.,-0.,-1.));
#1151 = DIRECTION('',(-1.,0.,0.));
#1152 = ADVANCED_FACE('',(#1153),#1176,.T.);
#1153 = FACE_BOUND('',#1154,.F.);
#1154 = EDGE_LOOP('',(#1155,#1164,#1170,#1171,#1172,#1173,#1174,#1175));
#1155 = ORIENTED_EDGE('',*,*,#1156,.F.);
#1156 = EDGE_CURVE('',#1157,#1157,#1159,.T.);
#1157 = VERTEX_POINT('',#1158);
#1158 = CARTESIAN_POINT('',(3.65,9.5,0.));
#1159 = CIRCLE('',#1160,3.65);
#1160 = AXIS2_PLACEMENT_3D('',#1161,#1162,#1163);
#1161 = CARTESIAN_POINT('',(0.,9.5,0.));
#1162 = DIRECTION('',(0.,0.,1.));
#1163 = DIRECTION('',(1.,0.,0.));
#1164 = ORIENTED_EDGE('',*,*,#1165,.T.);
#1165 = EDGE_CURVE('',#1157,#635,#1166,.T.);
#1166 = LINE('',#1167,#1168);
#1167 = CARTESIAN_POINT('',(3.65,9.5,0.));
#1168 = VECTOR('',#1169,1.);
#1169 = DIRECTION('',(0.,0.,1.));
#1170 = ORIENTED_EDGE('',*,*,#643,.T.);
#1171 = ORIENTED_EDGE('',*,*,#595,.T.);
#1172 = ORIENTED_EDGE('',*,*,#1094,.F.);
#1173 = ORIENTED_EDGE('',*,*,#713,.F.);
#1174 = ORIENTED_EDGE('',*,*,#634,.T.);
#1175 = ORIENTED_EDGE('',*,*,#1165,.F.);
#1176 = CYLINDRICAL_SURFACE('',#1177,3.65);
#1177 = AXIS2_PLACEMENT_3D('',#1178,#1179,#1180);
#1178 = CARTESIAN_POINT('',(0.,9.5,0.));
#1179 = DIRECTION('',(-0.,-0.,-1.));
#1180 = DIRECTION('',(1.,0.,0.));
#1181 = ADVANCED_FACE('',(#1182),#1225,.F.);
#1182 = FACE_BOUND('',#1183,.T.);
#1183 = EDGE_LOOP('',(#1184,#1193,#1199,#1200,#1208,#1217,#1223,#1224));
#1184 = ORIENTED_EDGE('',*,*,#1185,.F.);
#1185 = EDGE_CURVE('',#1186,#1186,#1188,.T.);
#1186 = VERTEX_POINT('',#1187);
#1187 = CARTESIAN_POINT('',(2.65,9.5,0.));
#1188 = CIRCLE('',#1189,2.65);
#1189 = AXIS2_PLACEMENT_3D('',#1190,#1191,#1192);
#1190 = CARTESIAN_POINT('',(0.,9.5,0.));
#1191 = DIRECTION('',(0.,0.,1.));
#1192 = DIRECTION('',(1.,0.,0.));
#1193 = ORIENTED_EDGE('',*,*,#1194,.T.);
#1194 = EDGE_CURVE('',#1186,#656,#1195,.T.);
#1195 = LINE('',#1196,#1197);
#1196 = CARTESIAN_POINT('',(2.65,9.5,0.));
#1197 = VECTOR('',#1198,1.);
#1198 = DIRECTION('',(0.,0.,1.));
#1199 = ORIENTED_EDGE('',*,*,#672,.T.);
#1200 = ORIENTED_EDGE('',*,*,#1201,.T.);
#1201 = EDGE_CURVE('',#665,#1202,#1204,.T.);
#1202 = VERTEX_POINT('',#1203);
#1203 = CARTESIAN_POINT('',(-0.537098687394,6.905,10.));
#1204 = LINE('',#1205,#1206);
#1205 = CARTESIAN_POINT('',(-0.537098687394,6.905,0.));
#1206 = VECTOR('',#1207,1.);
#1207 = DIRECTION('',(-0.,-0.,-1.));
#1208 = ORIENTED_EDGE('',*,*,#1209,.F.);
#1209 = EDGE_CURVE('',#1210,#1202,#1212,.T.);
#1210 = VERTEX_POINT('',#1211);
#1211 = CARTESIAN_POINT('',(0.537098687394,6.905,10.));
#1212 = CIRCLE('',#1213,2.65);
#1213 = AXIS2_PLACEMENT_3D('',#1214,#1215,#1216);
#1214 = CARTESIAN_POINT('',(0.,9.5,10.));
#1215 = DIRECTION('',(0.,0.,-1.));
#1216 = DIRECTION('',(1.,0.,0.));
#1217 = ORIENTED_EDGE('',*,*,#1218,.F.);
#1218 = EDGE_CURVE('',#654,#1210,#1219,.T.);
#1219 = LINE('',#1220,#1221);
#1220 = CARTESIAN_POINT('',(0.537098687394,6.905,0.));
#1221 = VECTOR('',#1222,1.);
#1222 = DIRECTION('',(-0.,-0.,-1.));
#1223 = ORIENTED_EDGE('',*,*,#653,.T.);
#1224 = ORIENTED_EDGE('',*,*,#1194,.F.);
#1225 = CYLINDRICAL_SURFACE('',#1226,2.65);
#1226 = AXIS2_PLACEMENT_3D('',#1227,#1228,#1229);
#1227 = CARTESIAN_POINT('',(0.,9.5,0.));
#1228 = DIRECTION('',(-0.,-0.,-1.));
#1229 = DIRECTION('',(1.,0.,0.));
#1230 = ADVANCED_FACE('',(#1231),#1242,.F.);
#1231 = FACE_BOUND('',#1232,.F.);
#1232 = EDGE_LOOP('',(#1233,#1239,#1240,#1241));
#1233 = ORIENTED_EDGE('',*,*,#1234,.F.);
#1234 = EDGE_CURVE('',#1210,#1202,#1235,.T.);
#1235 = LINE('',#1236,#1237);
#1236 = CARTESIAN_POINT('',(1.,6.905,10.));
#1237 = VECTOR('',#1238,1.);
#1238 = DIRECTION('',(-1.,0.,0.));
#1239 = ORIENTED_EDGE('',*,*,#1218,.F.);
#1240 = ORIENTED_EDGE('',*,*,#664,.T.);
#1241 = ORIENTED_EDGE('',*,*,#1201,.T.);
#1242 = PLANE('',#1243);
#1243 = AXIS2_PLACEMENT_3D('',#1244,#1245,#1246);
#1244 = CARTESIAN_POINT('',(1.,6.905,10.));
#1245 = DIRECTION('',(0.,-1.,0.));
#1246 = DIRECTION('',(-1.,0.,0.));
#1247 = ADVANCED_FACE('',(#1248),#1256,.T.);
#1248 = FACE_BOUND('',#1249,.T.);
#1249 = EDGE_LOOP('',(#1250,#1251,#1252,#1253,#1254,#1255));
#1250 = ORIENTED_EDGE('',*,*,#762,.T.);
#1251 = ORIENTED_EDGE('',*,*,#1034,.T.);
#1252 = ORIENTED_EDGE('',*,*,#1076,.F.);
#1253 = ORIENTED_EDGE('',*,*,#1067,.F.);
#1254 = ORIENTED_EDGE('',*,*,#697,.F.);
#1255 = ORIENTED_EDGE('',*,*,#753,.T.);
#1256 = CYLINDRICAL_SURFACE('',#1257,3.);
#1257 = AXIS2_PLACEMENT_3D('',#1258,#1259,#1260);
#1258 = CARTESIAN_POINT('',(0.,0.,10.));
#1259 = DIRECTION('',(0.,0.,-1.));
#1260 = DIRECTION('',(1.,0.,0.));
#1261 = ADVANCED_FACE('',(#1262),#1291,.T.);
#1262 = FACE_BOUND('',#1263,.T.);
#1263 = EDGE_LOOP('',(#1264,#1265,#1266,#1274,#1282,#1288,#1289,#1290));
#1264 = ORIENTED_EDGE('',*,*,#882,.F.);
#1265 = ORIENTED_EDGE('',*,*,#842,.F.);
#1266 = ORIENTED_EDGE('',*,*,#1267,.T.);
#1267 = EDGE_CURVE('',#835,#1268,#1270,.T.);
#1268 = VERTEX_POINT('',#1269);
#1269 = CARTESIAN_POINT('',(-16.64213562449,-2.,36.142135624192));
#1270 = LINE('',#1271,#1272);
#1271 = CARTESIAN_POINT('',(-10.64213562291,-2.,36.142135625447));
#1272 = VECTOR('',#1273,1.);
#1273 = DIRECTION('',(-1.,2.133531129545E-27,9.60857E-12));
#1274 = ORIENTED_EDGE('',*,*,#1275,.T.);
#1275 = EDGE_CURVE('',#1268,#1276,#1278,.T.);
#1276 = VERTEX_POINT('',#1277);
#1277 = CARTESIAN_POINT('',(-16.64213562449,2.,36.142135623962));
#1278 = LINE('',#1279,#1280);
#1279 = CARTESIAN_POINT('',(-16.64213562449,-2.,36.142135624192));
#1280 = VECTOR('',#1281,1.);
#1281 = DIRECTION('',(0.,1.,-2.22044604925E-16));
#1282 = ORIENTED_EDGE('',*,*,#1283,.T.);
#1283 = EDGE_CURVE('',#1276,#819,#1284,.T.);
#1284 = LINE('',#1285,#1286);
#1285 = CARTESIAN_POINT('',(-17.64213562373,2.,36.142135623731));
#1286 = VECTOR('',#1287,1.);
#1287 = DIRECTION('',(1.,0.,0.));
#1288 = ORIENTED_EDGE('',*,*,#858,.F.);
#1289 = ORIENTED_EDGE('',*,*,#785,.T.);
#1290 = ORIENTED_EDGE('',*,*,#896,.T.);
#1291 = PLANE('',#1292);
#1292 = AXIS2_PLACEMENT_3D('',#1293,#1294,#1295);
#1293 = CARTESIAN_POINT('',(-14.1421356237,-6.832141690001E-16,
    36.142135624755));
#1294 = DIRECTION('',(1.014184496357E-10,1.665962009034E-10,1.));
#1295 = DIRECTION('',(0.,1.,-1.665962009034E-10));
#1296 = ADVANCED_FACE('',(#1297),#1339,.F.);
#1297 = FACE_BOUND('',#1298,.F.);
#1298 = EDGE_LOOP('',(#1299,#1309,#1317,#1325,#1331,#1332,#1333));
#1299 = ORIENTED_EDGE('',*,*,#1300,.F.);
#1300 = EDGE_CURVE('',#1301,#1303,#1305,.T.);
#1301 = VERTEX_POINT('',#1302);
#1302 = CARTESIAN_POINT('',(-1.030776406404,2.,25.530776405992));
#1303 = VERTEX_POINT('',#1304);
#1304 = CARTESIAN_POINT('',(-10.22025253201,2.,34.720252531694));
#1305 = LINE('',#1306,#1307);
#1306 = CARTESIAN_POINT('',(-1.660533906247,2.,26.160533905841));
#1307 = VECTOR('',#1308,1.);
#1308 = DIRECTION('',(-0.707106781183,0.,0.70710678119));
#1309 = ORIENTED_EDGE('',*,*,#1310,.T.);
#1310 = EDGE_CURVE('',#1301,#1311,#1313,.T.);
#1311 = VERTEX_POINT('',#1312);
#1312 = CARTESIAN_POINT('',(-1.030776406404,2.,22.));
#1313 = LINE('',#1314,#1315);
#1314 = CARTESIAN_POINT('',(-1.030776406404,2.,10.));
#1315 = VECTOR('',#1316,1.);
#1316 = DIRECTION('',(0.,0.,-1.));
#1317 = ORIENTED_EDGE('',*,*,#1318,.T.);
#1318 = EDGE_CURVE('',#1311,#1319,#1321,.T.);
#1319 = VERTEX_POINT('',#1320);
#1320 = CARTESIAN_POINT('',(-2.499999999548,2.,22.));
#1321 = LINE('',#1322,#1323);
#1322 = CARTESIAN_POINT('',(3.5,2.,22.));
#1323 = VECTOR('',#1324,1.);
#1324 = DIRECTION('',(-1.,0.,0.));
#1325 = ORIENTED_EDGE('',*,*,#1326,.T.);
#1326 = EDGE_CURVE('',#1319,#1276,#1327,.T.);
#1327 = LINE('',#1328,#1329);
#1328 = CARTESIAN_POINT('',(-5.410533905655,2.,24.910533905951));
#1329 = VECTOR('',#1330,1.);
#1330 = DIRECTION('',(-0.707106781205,0.,0.707106781168));
#1331 = ORIENTED_EDGE('',*,*,#1283,.T.);
#1332 = ORIENTED_EDGE('',*,*,#816,.F.);
#1333 = ORIENTED_EDGE('',*,*,#1334,.F.);
#1334 = EDGE_CURVE('',#1303,#817,#1335,.T.);
#1335 = LINE('',#1336,#1337);
#1336 = CARTESIAN_POINT('',(-8.15066017178,2.,34.720252531694));
#1337 = VECTOR('',#1338,1.);
#1338 = DIRECTION('',(-1.,0.,0.));
#1339 = PLANE('',#1340);
#1340 = AXIS2_PLACEMENT_3D('',#1341,#1342,#1343);
#1341 = CARTESIAN_POINT('',(-7.071067811865,2.,29.071067811865));
#1342 = DIRECTION('',(0.,1.,0.));
#1343 = DIRECTION('',(0.,0.,1.));
#1344 = ADVANCED_FACE('',(#1345),#1387,.T.);
#1345 = FACE_BOUND('',#1346,.T.);
#1346 = EDGE_LOOP('',(#1347,#1357,#1363,#1364,#1365,#1373,#1381));
#1347 = ORIENTED_EDGE('',*,*,#1348,.F.);
#1348 = EDGE_CURVE('',#1349,#1351,#1353,.T.);
#1349 = VERTEX_POINT('',#1350);
#1350 = CARTESIAN_POINT('',(-2.499999999548,-2.,22.));
#1351 = VERTEX_POINT('',#1352);
#1352 = CARTESIAN_POINT('',(-1.030776406404,-2.,22.));
#1353 = LINE('',#1354,#1355);
#1354 = CARTESIAN_POINT('',(-3.499999999139,-2.,22.));
#1355 = VECTOR('',#1356,1.);
#1356 = DIRECTION('',(1.,0.,0.));
#1357 = ORIENTED_EDGE('',*,*,#1358,.T.);
#1358 = EDGE_CURVE('',#1349,#1268,#1359,.T.);
#1359 = LINE('',#1360,#1361);
#1360 = CARTESIAN_POINT('',(-2.499999999548,-2.,22.));
#1361 = VECTOR('',#1362,1.);
#1362 = DIRECTION('',(-0.707106781205,1.570092458642E-16,0.707106781168)
  );
#1363 = ORIENTED_EDGE('',*,*,#1267,.F.);
#1364 = ORIENTED_EDGE('',*,*,#834,.F.);
#1365 = ORIENTED_EDGE('',*,*,#1366,.F.);
#1366 = EDGE_CURVE('',#1367,#827,#1369,.T.);
#1367 = VERTEX_POINT('',#1368);
#1368 = CARTESIAN_POINT('',(-10.22025253201,-2.,34.720252531694));
#1369 = LINE('',#1370,#1371);
#1370 = CARTESIAN_POINT('',(-8.150660171729,-2.,34.720252531694));
#1371 = VECTOR('',#1372,1.);
#1372 = DIRECTION('',(-1.,0.,0.));
#1373 = ORIENTED_EDGE('',*,*,#1374,.F.);
#1374 = EDGE_CURVE('',#1375,#1367,#1377,.T.);
#1375 = VERTEX_POINT('',#1376);
#1376 = CARTESIAN_POINT('',(-1.030776406404,-2.,25.530776405992));
#1377 = LINE('',#1378,#1379);
#1378 = CARTESIAN_POINT('',(2.499999999547,-2.,22.000000000005));
#1379 = VECTOR('',#1380,1.);
#1380 = DIRECTION('',(-0.707106781183,1.570092458692E-16,0.70710678119)
  );
#1381 = ORIENTED_EDGE('',*,*,#1382,.T.);
#1382 = EDGE_CURVE('',#1375,#1351,#1383,.T.);
#1383 = LINE('',#1384,#1385);
#1384 = CARTESIAN_POINT('',(-1.030776406404,-2.,10.));
#1385 = VECTOR('',#1386,1.);
#1386 = DIRECTION('',(0.,0.,-1.));
#1387 = PLANE('',#1388);
#1388 = AXIS2_PLACEMENT_3D('',#1389,#1390,#1391);
#1389 = CARTESIAN_POINT('',(-7.071067811763,-2.,29.071067812966));
#1390 = DIRECTION('',(0.,1.,0.));
#1391 = DIRECTION('',(0.,0.,1.));
#1392 = ADVANCED_FACE('',(#1393),#1404,.T.);
#1393 = FACE_BOUND('',#1394,.T.);
#1394 = EDGE_LOOP('',(#1395,#1396,#1397,#1403));
#1395 = ORIENTED_EDGE('',*,*,#826,.F.);
#1396 = ORIENTED_EDGE('',*,*,#1334,.F.);
#1397 = ORIENTED_EDGE('',*,*,#1398,.F.);
#1398 = EDGE_CURVE('',#1367,#1303,#1399,.T.);
#1399 = LINE('',#1400,#1401);
#1400 = CARTESIAN_POINT('',(-10.22025253201,0.5,34.720252531694));
#1401 = VECTOR('',#1402,1.);
#1402 = DIRECTION('',(0.,1.,-2.22044604925E-16));
#1403 = ORIENTED_EDGE('',*,*,#1366,.T.);
#1404 = PLANE('',#1405);
#1405 = AXIS2_PLACEMENT_3D('',#1406,#1407,#1408);
#1406 = CARTESIAN_POINT('',(-9.230252531694,3.,34.720252531694));
#1407 = DIRECTION('',(-0.,-2.22044604925E-16,-1.));
#1408 = DIRECTION('',(-1.,0.,0.));
#1409 = ADVANCED_FACE('',(#1410),#1433,.T.);
#1410 = FACE_BOUND('',#1411,.F.);
#1411 = EDGE_LOOP('',(#1412,#1421,#1427,#1428,#1429,#1430,#1431,#1432));
#1412 = ORIENTED_EDGE('',*,*,#1413,.F.);
#1413 = EDGE_CURVE('',#1414,#1414,#1416,.T.);
#1414 = VERTEX_POINT('',#1415);
#1415 = CARTESIAN_POINT('',(3.65,-9.5,0.));
#1416 = CIRCLE('',#1417,3.65);
#1417 = AXIS2_PLACEMENT_3D('',#1418,#1419,#1420);
#1418 = CARTESIAN_POINT('',(0.,-9.5,0.));
#1419 = DIRECTION('',(0.,0.,1.));
#1420 = DIRECTION('',(1.,0.,0.));
#1421 = ORIENTED_EDGE('',*,*,#1422,.T.);
#1422 = EDGE_CURVE('',#1414,#954,#1423,.T.);
#1423 = LINE('',#1424,#1425);
#1424 = CARTESIAN_POINT('',(3.65,-9.5,0.));
#1425 = VECTOR('',#1426,1.);
#1426 = DIRECTION('',(0.,0.,1.));
#1427 = ORIENTED_EDGE('',*,*,#953,.T.);
#1428 = ORIENTED_EDGE('',*,*,#1025,.T.);
#1429 = ORIENTED_EDGE('',*,*,#1084,.F.);
#1430 = ORIENTED_EDGE('',*,*,#939,.F.);
#1431 = ORIENTED_EDGE('',*,*,#972,.T.);
#1432 = ORIENTED_EDGE('',*,*,#1422,.F.);
#1433 = CYLINDRICAL_SURFACE('',#1434,3.65);
#1434 = AXIS2_PLACEMENT_3D('',#1435,#1436,#1437);
#1435 = CARTESIAN_POINT('',(0.,-9.5,0.));
#1436 = DIRECTION('',(-0.,-0.,-1.));
#1437 = DIRECTION('',(1.,0.,0.));
#1438 = ADVANCED_FACE('',(#1439),#1482,.F.);
#1439 = FACE_BOUND('',#1440,.T.);
#1440 = EDGE_LOOP('',(#1441,#1450,#1456,#1457,#1465,#1474,#1480,#1481));
#1441 = ORIENTED_EDGE('',*,*,#1442,.F.);
#1442 = EDGE_CURVE('',#1443,#1443,#1445,.T.);
#1443 = VERTEX_POINT('',#1444);
#1444 = CARTESIAN_POINT('',(2.65,-9.5,0.));
#1445 = CIRCLE('',#1446,2.65);
#1446 = AXIS2_PLACEMENT_3D('',#1447,#1448,#1449);
#1447 = CARTESIAN_POINT('',(0.,-9.5,0.));
#1448 = DIRECTION('',(0.,0.,1.));
#1449 = DIRECTION('',(1.,0.,0.));
#1450 = ORIENTED_EDGE('',*,*,#1451,.T.);
#1451 = EDGE_CURVE('',#1443,#984,#1452,.T.);
#1452 = LINE('',#1453,#1454);
#1453 = CARTESIAN_POINT('',(2.65,-9.5,0.));
#1454 = VECTOR('',#1455,1.);
#1455 = DIRECTION('',(0.,0.,1.));
#1456 = ORIENTED_EDGE('',*,*,#1000,.T.);
#1457 = ORIENTED_EDGE('',*,*,#1458,.T.);
#1458 = EDGE_CURVE('',#993,#1459,#1461,.T.);
#1459 = VERTEX_POINT('',#1460);
#1460 = CARTESIAN_POINT('',(0.537098687394,-6.905,10.));
#1461 = LINE('',#1462,#1463);
#1462 = CARTESIAN_POINT('',(0.537098687394,-6.905,0.));
#1463 = VECTOR('',#1464,1.);
#1464 = DIRECTION('',(-0.,-0.,-1.));
#1465 = ORIENTED_EDGE('',*,*,#1466,.F.);
#1466 = EDGE_CURVE('',#1467,#1459,#1469,.T.);
#1467 = VERTEX_POINT('',#1468);
#1468 = CARTESIAN_POINT('',(-0.537098687394,-6.905,10.));
#1469 = CIRCLE('',#1470,2.65);
#1470 = AXIS2_PLACEMENT_3D('',#1471,#1472,#1473);
#1471 = CARTESIAN_POINT('',(0.,-9.5,10.));
#1472 = DIRECTION('',(0.,0.,-1.));
#1473 = DIRECTION('',(1.,0.,0.));
#1474 = ORIENTED_EDGE('',*,*,#1475,.F.);
#1475 = EDGE_CURVE('',#982,#1467,#1476,.T.);
#1476 = LINE('',#1477,#1478);
#1477 = CARTESIAN_POINT('',(-0.537098687394,-6.905,0.));
#1478 = VECTOR('',#1479,1.);
#1479 = DIRECTION('',(-0.,-0.,-1.));
#1480 = ORIENTED_EDGE('',*,*,#981,.T.);
#1481 = ORIENTED_EDGE('',*,*,#1451,.F.);
#1482 = CYLINDRICAL_SURFACE('',#1483,2.65);
#1483 = AXIS2_PLACEMENT_3D('',#1484,#1485,#1486);
#1484 = CARTESIAN_POINT('',(0.,-9.5,0.));
#1485 = DIRECTION('',(-0.,-0.,-1.));
#1486 = DIRECTION('',(1.,0.,0.));
#1487 = ADVANCED_FACE('',(#1488),#1499,.F.);
#1488 = FACE_BOUND('',#1489,.F.);
#1489 = EDGE_LOOP('',(#1490,#1496,#1497,#1498));
#1490 = ORIENTED_EDGE('',*,*,#1491,.F.);
#1491 = EDGE_CURVE('',#1467,#1459,#1492,.T.);
#1492 = LINE('',#1493,#1494);
#1493 = CARTESIAN_POINT('',(-1.,-6.905,10.));
#1494 = VECTOR('',#1495,1.);
#1495 = DIRECTION('',(1.,0.,0.));
#1496 = ORIENTED_EDGE('',*,*,#1475,.F.);
#1497 = ORIENTED_EDGE('',*,*,#992,.T.);
#1498 = ORIENTED_EDGE('',*,*,#1458,.T.);
#1499 = PLANE('',#1500);
#1500 = AXIS2_PLACEMENT_3D('',#1501,#1502,#1503);
#1501 = CARTESIAN_POINT('',(-1.,-6.905,10.));
#1502 = DIRECTION('',(0.,1.,0.));
#1503 = DIRECTION('',(1.,0.,0.));
#1504 = ADVANCED_FACE('',(#1505,#1508),#1511,.F.);
#1505 = FACE_BOUND('',#1506,.F.);
#1506 = EDGE_LOOP('',(#1507));
#1507 = ORIENTED_EDGE('',*,*,#1156,.T.);
#1508 = FACE_BOUND('',#1509,.T.);
#1509 = EDGE_LOOP('',(#1510));
#1510 = ORIENTED_EDGE('',*,*,#1185,.T.);
#1511 = PLANE('',#1512);
#1512 = AXIS2_PLACEMENT_3D('',#1513,#1514,#1515);
#1513 = CARTESIAN_POINT('',(-2.2E-16,-2.7E-16,0.));
#1514 = DIRECTION('',(0.,0.,1.));
#1515 = DIRECTION('',(1.,0.,0.));
#1516 = ADVANCED_FACE('',(#1517),#1521,.F.);
#1517 = FACE_BOUND('',#1518,.F.);
#1518 = EDGE_LOOP('',(#1519,#1520));
#1519 = ORIENTED_EDGE('',*,*,#1234,.T.);
#1520 = ORIENTED_EDGE('',*,*,#1209,.F.);
#1521 = PLANE('',#1522);
#1522 = AXIS2_PLACEMENT_3D('',#1523,#1524,#1525);
#1523 = CARTESIAN_POINT('',(0.,-6.E-17,10.));
#1524 = DIRECTION('',(0.,0.,1.));
#1525 = DIRECTION('',(1.,0.,0.));
#1526 = ADVANCED_FACE('',(#1527),#1539,.F.);
#1527 = FACE_BOUND('',#1528,.F.);
#1528 = EDGE_LOOP('',(#1529,#1530,#1537,#1538));
#1529 = ORIENTED_EDGE('',*,*,#1374,.F.);
#1530 = ORIENTED_EDGE('',*,*,#1531,.F.);
#1531 = EDGE_CURVE('',#1301,#1375,#1532,.T.);
#1532 = ELLIPSE('',#1533,3.181980515355,2.25);
#1533 = AXIS2_PLACEMENT_3D('',#1534,#1535,#1536);
#1534 = CARTESIAN_POINT('',(0.,0.,24.499999999577));
#1535 = DIRECTION('',(0.70710678119,1.570092458676E-16,0.707106781183));
#1536 = DIRECTION('',(0.707106781183,1.57009245866E-16,-0.70710678119));
#1537 = ORIENTED_EDGE('',*,*,#1300,.T.);
#1538 = ORIENTED_EDGE('',*,*,#1398,.F.);
#1539 = PLANE('',#1540);
#1540 = AXIS2_PLACEMENT_3D('',#1541,#1542,#1543);
#1541 = CARTESIAN_POINT('',(2.499999999547,-2.,22.000000000005));
#1542 = DIRECTION('',(0.70710678119,1.570092458676E-16,0.707106781183));
#1543 = DIRECTION('',(-0.707106781183,1.570092458692E-16,0.70710678119)
  );
#1544 = ADVANCED_FACE('',(#1545),#1562,.T.);
#1545 = FACE_BOUND('',#1546,.T.);
#1546 = EDGE_LOOP('',(#1547,#1554,#1555,#1561));
#1547 = ORIENTED_EDGE('',*,*,#1548,.T.);
#1548 = EDGE_CURVE('',#1351,#1311,#1549,.T.);
#1549 = CIRCLE('',#1550,2.25);
#1550 = AXIS2_PLACEMENT_3D('',#1551,#1552,#1553);
#1551 = CARTESIAN_POINT('',(0.,0.,22.000000000001));
#1552 = DIRECTION('',(0.,0.,-1.));
#1553 = DIRECTION('',(1.,0.,0.));
#1554 = ORIENTED_EDGE('',*,*,#1318,.T.);
#1555 = ORIENTED_EDGE('',*,*,#1556,.F.);
#1556 = EDGE_CURVE('',#1349,#1319,#1557,.T.);
#1557 = LINE('',#1558,#1559);
#1558 = CARTESIAN_POINT('',(-2.499999999548,-2.,22.));
#1559 = VECTOR('',#1560,1.);
#1560 = DIRECTION('',(0.,1.,-2.22044604925E-16));
#1561 = ORIENTED_EDGE('',*,*,#1348,.T.);
#1562 = PLANE('',#1563);
#1563 = AXIS2_PLACEMENT_3D('',#1564,#1565,#1566);
#1564 = CARTESIAN_POINT('',(-2.63295558222E-13,1.315614284313E-14,
    22.000000000001));
#1565 = DIRECTION('',(-6.718223425941E-13,0.,1.));
#1566 = DIRECTION('',(1.,0.,6.718223425941E-13));
#1567 = ADVANCED_FACE('',(#1568),#1574,.T.);
#1568 = FACE_BOUND('',#1569,.T.);
#1569 = EDGE_LOOP('',(#1570,#1571,#1572,#1573));
#1570 = ORIENTED_EDGE('',*,*,#1358,.F.);
#1571 = ORIENTED_EDGE('',*,*,#1556,.T.);
#1572 = ORIENTED_EDGE('',*,*,#1326,.T.);
#1573 = ORIENTED_EDGE('',*,*,#1275,.F.);
#1574 = PLANE('',#1575);
#1575 = AXIS2_PLACEMENT_3D('',#1576,#1577,#1578);
#1576 = CARTESIAN_POINT('',(-2.499999999548,-2.,22.));
#1577 = DIRECTION('',(0.707106781168,1.570092458726E-16,0.707106781205)
  );
#1578 = DIRECTION('',(-0.707106781205,1.570092458642E-16,0.707106781168)
  );
#1579 = ADVANCED_FACE('',(#1580,#1583),#1586,.F.);
#1580 = FACE_BOUND('',#1581,.F.);
#1581 = EDGE_LOOP('',(#1582));
#1582 = ORIENTED_EDGE('',*,*,#1413,.T.);
#1583 = FACE_BOUND('',#1584,.T.);
#1584 = EDGE_LOOP('',(#1585));
#1585 = ORIENTED_EDGE('',*,*,#1442,.T.);
#1586 = PLANE('',#1587);
#1587 = AXIS2_PLACEMENT_3D('',#1588,#1589,#1590);
#1588 = CARTESIAN_POINT('',(-2.2E-16,-2.7E-16,0.));
#1589 = DIRECTION('',(0.,0.,1.));
#1590 = DIRECTION('',(1.,0.,0.));
#1591 = ADVANCED_FACE('',(#1592),#1596,.F.);
#1592 = FACE_BOUND('',#1593,.F.);
#1593 = EDGE_LOOP('',(#1594,#1595));
#1594 = ORIENTED_EDGE('',*,*,#1466,.F.);
#1595 = ORIENTED_EDGE('',*,*,#1491,.T.);
#1596 = PLANE('',#1597);
#1597 = AXIS2_PLACEMENT_3D('',#1598,#1599,#1600);
#1598 = CARTESIAN_POINT('',(0.,-6.E-17,10.));
#1599 = DIRECTION('',(0.,0.,1.));
#1600 = DIRECTION('',(1.,0.,0.));
#1601 = ADVANCED_FACE('',(#1602,#1608),#1637,.T.);
#1602 = FACE_BOUND('',#1603,.T.);
#1603 = EDGE_LOOP('',(#1604,#1605,#1606,#1607));
#1604 = ORIENTED_EDGE('',*,*,#517,.F.);
#1605 = ORIENTED_EDGE('',*,*,#728,.T.);
#1606 = ORIENTED_EDGE('',*,*,#320,.F.);
#1607 = ORIENTED_EDGE('',*,*,#444,.F.);
#1608 = FACE_BOUND('',#1609,.T.);
#1609 = EDGE_LOOP('',(#1610,#1621,#1630));
#1610 = ORIENTED_EDGE('',*,*,#1611,.F.);
#1611 = EDGE_CURVE('',#1612,#1614,#1616,.T.);
#1612 = VERTEX_POINT('',#1613);
#1613 = CARTESIAN_POINT('',(1.030776406403,2.,24.469223592405));
#1614 = VERTEX_POINT('',#1615);
#1615 = CARTESIAN_POINT('',(1.030776406403,-2.,24.469223593282));
#1616 = ELLIPSE('',#1617,3.181980515549,2.25);
#1617 = AXIS2_PLACEMENT_3D('',#1618,#1619,#1620);
#1618 = CARTESIAN_POINT('',(0.,0.,25.499999999382));
#1619 = DIRECTION('',(0.707106781233,1.549133158258E-10,0.70710678114));
#1620 = DIRECTION('',(0.70710678114,1.549133158054E-10,-0.707106781233)
  );
#1621 = ORIENTED_EDGE('',*,*,#1622,.F.);
#1622 = EDGE_CURVE('',#1623,#1612,#1625,.T.);
#1623 = VERTEX_POINT('',#1624);
#1624 = CARTESIAN_POINT('',(2.249999999999,0.,23.249999999086));
#1625 = ELLIPSE('',#1626,3.181980515549,2.25);
#1626 = AXIS2_PLACEMENT_3D('',#1627,#1628,#1629);
#1627 = CARTESIAN_POINT('',(0.,0.,25.499999999382));
#1628 = DIRECTION('',(0.707106781233,1.549133158258E-10,0.70710678114));
#1629 = DIRECTION('',(0.70710678114,1.549133158054E-10,-0.707106781233)
  );
#1630 = ORIENTED_EDGE('',*,*,#1631,.F.);
#1631 = EDGE_CURVE('',#1614,#1623,#1632,.T.);
#1632 = ELLIPSE('',#1633,3.181980515549,2.25);
#1633 = AXIS2_PLACEMENT_3D('',#1634,#1635,#1636);
#1634 = CARTESIAN_POINT('',(0.,0.,25.499999999382));
#1635 = DIRECTION('',(0.707106781233,1.549133158258E-10,0.70710678114));
#1636 = DIRECTION('',(0.70710678114,1.549133158054E-10,-0.707106781233)
  );
#1637 = PLANE('',#1638);
#1638 = AXIS2_PLACEMENT_3D('',#1639,#1640,#1641);
#1639 = CARTESIAN_POINT('',(-3.571067812485,-1.450250176359E-12,
    29.071067812338));
#1640 = DIRECTION('',(0.707106781233,1.549133158258E-10,0.70710678114));
#1641 = DIRECTION('',(-0.70710678114,0.,0.707106781233));
#1642 = ADVANCED_FACE('',(#1643,#1659),#1665,.F.);
#1643 = FACE_BOUND('',#1644,.F.);
#1644 = EDGE_LOOP('',(#1645,#1646,#1647,#1652,#1653,#1654,#1655,#1656,
    #1657,#1658));
#1645 = ORIENTED_EDGE('',*,*,#1611,.F.);
#1646 = ORIENTED_EDGE('',*,*,#1622,.F.);
#1647 = ORIENTED_EDGE('',*,*,#1648,.T.);
#1648 = EDGE_CURVE('',#1623,#1124,#1649,.T.);
#1649 = B_SPLINE_CURVE_WITH_KNOTS('',1,(#1650,#1651),.UNSPECIFIED.,.F.,
  .F.,(2,2),(-13.24999999908,0.),.PIECEWISE_BEZIER_KNOTS.);
#1650 = CARTESIAN_POINT('',(2.25,0.,23.249999999086));
#1651 = CARTESIAN_POINT('',(2.25,0.,10.));
#1652 = ORIENTED_EDGE('',*,*,#1132,.F.);
#1653 = ORIENTED_EDGE('',*,*,#1141,.F.);
#1654 = ORIENTED_EDGE('',*,*,#1103,.F.);
#1655 = ORIENTED_EDGE('',*,*,#1114,.F.);
#1656 = ORIENTED_EDGE('',*,*,#1123,.F.);
#1657 = ORIENTED_EDGE('',*,*,#1648,.F.);
#1658 = ORIENTED_EDGE('',*,*,#1631,.F.);
#1659 = FACE_BOUND('',#1660,.F.);
#1660 = EDGE_LOOP('',(#1661,#1662,#1663,#1664));
#1661 = ORIENTED_EDGE('',*,*,#1548,.T.);
#1662 = ORIENTED_EDGE('',*,*,#1310,.F.);
#1663 = ORIENTED_EDGE('',*,*,#1531,.T.);
#1664 = ORIENTED_EDGE('',*,*,#1382,.T.);
#1665 = CYLINDRICAL_SURFACE('',#1666,2.25);
#1666 = AXIS2_PLACEMENT_3D('',#1667,#1668,#1669);
#1667 = CARTESIAN_POINT('',(0.,0.,10.));
#1668 = DIRECTION('',(0.,0.,-1.));
#1669 = DIRECTION('',(1.,0.,0.));
#1670 = ( GEOMETRIC_REPRESENTATION_CONTEXT(3) 
GLOBAL_UNCERTAINTY_ASSIGNED_CONTEXT((#1674)) 
GLOBAL_UNIT_ASSIGNED_CONTEXT((#1671,#1672,#1673)) REPRESENTATION_CONTEXT
('Context #1','3D Context with UNIT and UNCERTAINTY') );
#1671 = ( LENGTH_UNIT() NAMED_UNIT(*) SI_UNIT(.MILLI.,.METRE.) );
#1672 = ( NAMED_UNIT(*) PLANE_ANGLE_UNIT() SI_UNIT($,.RADIAN.) );
#1673 = ( NAMED_UNIT(*) SI_UNIT($,.STERADIAN.) SOLID_ANGLE_UNIT() );
#1674 = UNCERTAINTY_MEASURE_WITH_UNIT(LENGTH_MEASURE(5.E-05),#1671,
  'distance_accuracy_value','confusion accuracy');
#1675 = PRODUCT_RELATED_PRODUCT_CATEGORY('detail',$,(#7));
#1676 = PRODUCT_CATEGORY_RELATIONSHIP('','',#1677,#1675);
#1677 = PRODUCT_CATEGORY('part',$);
#1678 = CC_DESIGN_PERSON_AND_ORGANIZATION_ASSIGNMENT(#1679,#1682,(#6,#5)
  );
#1679 = PERSON_AND_ORGANIZATION(#1680,#1681);
#1680 = PERSON('IP169.254.190,karol','','karol',$,$,$);
#1681 = ORGANIZATION('IP169.254.190','Unspecified','');
#1682 = PERSON_AND_ORGANIZATION_ROLE('creator');
#1683 = CC_DESIGN_PERSON_AND_ORGANIZATION_ASSIGNMENT(#1679,#1684,(#7));
#1684 = PERSON_AND_ORGANIZATION_ROLE('design_owner');
#1685 = CC_DESIGN_PERSON_AND_ORGANIZATION_ASSIGNMENT(#1679,#1686,(#6));
#1686 = PERSON_AND_ORGANIZATION_ROLE('design_supplier');
#1687 = CC_DESIGN_PERSON_AND_ORGANIZATION_ASSIGNMENT(#1679,#1688,(#1689)
  );
#1688 = PERSON_AND_ORGANIZATION_ROLE('classification_officer');
#1689 = SECURITY_CLASSIFICATION('','',#1690);
#1690 = SECURITY_CLASSIFICATION_LEVEL('unclassified');
#1691 = CC_DESIGN_SECURITY_CLASSIFICATION(#1689,(#6));
#1692 = CC_DESIGN_DATE_AND_TIME_ASSIGNMENT(#1693,#1697,(#5));
#1693 = DATE_AND_TIME(#1694,#1695);
#1694 = CALENDAR_DATE(2026,11,5);
#1695 = LOCAL_TIME(20,51,$,#1696);
#1696 = COORDINATED_UNIVERSAL_TIME_OFFSET(1,$,.AHEAD.);
#1697 = DATE_TIME_ROLE('creation_date');
#1698 = CC_DESIGN_DATE_AND_TIME_ASSIGNMENT(#1693,#1699,(#1689));
#1699 = DATE_TIME_ROLE('classification_date');
#1700 = CC_DESIGN_APPROVAL(#1701,(#6,#5,#1689));
#1701 = APPROVAL(#1702,'');
#1702 = APPROVAL_STATUS('not_yet_approved');
#1703 = APPROVAL_PERSON_ORGANIZATION(#1679,#1701,#1704);
#1704 = APPROVAL_ROLE('approver');
#1705 = APPROVAL_DATE_TIME(#1693,#1701);
#1706 = MECHANICAL_DESIGN_GEOMETRIC_PRESENTATION_REPRESENTATION('',(
    #1707),#1670);
#1707 = STYLED_ITEM('color',(#1708),#15);
#1708 = PRESENTATION_STYLE_ASSIGNMENT((#1709,#1715));
#1709 = SURFACE_STYLE_USAGE(.BOTH.,#1710);
#1710 = SURFACE_SIDE_STYLE('',(#1711));
#1711 = SURFACE_STYLE_FILL_AREA(#1712);
#1712 = FILL_AREA_STYLE('',(#1713));
#1713 = FILL_AREA_STYLE_COLOUR('',#1714);
#1714 = COLOUR_RGB('',0.447058818107,0.474509808674,0.501960817233);
#1715 = CURVE_STYLE('',#1716,POSITIVE_LENGTH_MEASURE(0.1),#1717);
#1716 = DRAUGHTING_PRE_DEFINED_CURVE_FONT('continuous');
#1717 = COLOUR_RGB('',9.803921802644E-02,9.803921802644E-02,
  9.803921802644E-02);
ENDSEC;
END-ISO-10303-21;
